<svg xmlns="http://www.w3.org/2000/svg"  viewBox="0 0 340 340" width="500px" height="500px"><path fill="#a8b8db" d="M249.887,86.331a11.155,11.155,0,1,0-12.979-12.163l-5.538.766-10.431,30.417,12.134,14.573a10.456,10.456,0,0,0,20.411-1.156,10.288,10.288,0,0,0-5.828-11.086,10.923,10.923,0,0,0,9.68-9.593A11.2,11.2,0,0,0,249.887,86.331Z"/><path fill="#dae5fc" d="M27.392,283.459a3.5,3.5,0,0,1-3.384-2.618c-8.887-34.1,4.293-53.436,4.858-54.243a3.5,3.5,0,0,1,5.739,4.007c-.175.258-11.821,17.78-3.823,48.47a3.5,3.5,0,0,1-3.39,4.384Z"/><path fill="#567bc6" d="M261,205.614s-16.022-27.009,6.272-47.634l15.589-2.4s24.779,43.963,36.031,77.714A29.446,29.446,0,0,1,319,251.631c-3.232,10.052-9.189,26.646-16.96,39.792l-36.687-11.61s6.709-16.436,15.1-38.261Z"/><path fill="#e5838b" d="M61.17,271.86l-1.654,4.151A10.5,10.5,0,0,0,65.945,289.9c5.3,1.722,12.029,2.3,18.376-1.8L87.673,277.2S70.6,269.555,61.17,271.86Z"/><path fill="#e54c5b" d="M41.286,224.723c6.057,4.049,16.624,11.435,27.088,16.759L59.528,259.44s-17.212-10.034-29.215-19.565a9.373,9.373,0,0,1,1.525-15.712l.279-.137A9.289,9.289,0,0,1,41.286,224.723Z"/><path fill="#ffcacf" d="M159.139,144.358,184.03,169l37.9-24.646,5.18-37.8-60.085-6.093S161.233,123.092,159.139,144.358Z"/><path fill="#e5838b" d="M167.028,100.463s-5.717,22.331-7.846,43.474h0l-.009.093,0,.015h0c-.011.1-.022.209-.032.313L182.715,167.7l7.33-5.693-12.3-19.578a61.949,61.949,0,0,1,3.506-9.491s12.314,2.85,17.108-7.668c0,0,15.024,8.583,21.94,10.992a7.5,7.5,0,0,0,2.7.317l4.114-30.025Z"/><path fill="#fff" d="M165.129,141.387l17.5,17.973a212.044,212.044,0,0,1,28.5-16.45l5.483,12.671,1.827,137.209-69.829-11.278S146.243,189.212,165.129,141.387Z"/><path fill="#dae5fc" d="M191.792,269.718a30.884,30.884,0,0,1-23.437-22.582,62.14,62.14,0,0,1-1.327-19.537c.725-30.985,6.616-77.464,6.616-77.464h0l-8.515-8.748c-18.886,47.825-16.521,140.125-16.521,140.125l69.829,11.278-.245-18.437a39.113,39.113,0,0,0-12.781-2.692A94.853,94.853,0,0,1,191.792,269.718Z"/><path fill="#567bc6" d="M128.3,139.785l-16.884,50.477a8.632,8.632,0,0,1-4.633,5.129l-.928.419a8.633,8.633,0,0,0-4.954,6.4h0a8.631,8.631,0,0,1-3.459,5.536l-34.19,25.6,31.286,24.788s32.487-14.161,44.884-41.844,4.959-62.12,4.959-62.12Z"/><path fill="#38508e" d="M138.4,187.7l-4.144,17.031a33.017,33.017,0,0,1-3.524,8.912c-2.177,3.714-4.378,5.6-6.976,8.408-7.117,7.683-20.134,19.633-36.08,24.745a48.752,48.752,0,0,0-5.03,1.918l11.894,9.423s32.487-14.161,44.884-41.844c3.315-7.4,4.059-18.621,3.972-28A2.534,2.534,0,0,0,138.4,187.7Z"/><path fill="#567bc6" d="M174.863,123.974s-5.938,6.2-7.835,25.694-7.3,81.508-7.889,128.017l-26.189-5.168s3.805-59.253,9.209-97.592a23.515,23.515,0,0,0-1.392-11.863l-10.4-26.548Z"/><path fill="#38508e" d="M169.464,127.606a6.9,6.9,0,0,0-.489-1.972l-38.609,10.88-2.067,3.271-3.6,10.748a18.328,18.328,0,0,0,10.428,2.781c7.153,0,11.239-3.928,13.162-8.083a5.711,5.711,0,0,1,5.8-3.331l12.931,1.438S169.3,128.369,169.464,127.606Z"/><path fill="#ffb664" d="M131.648,148.171l1.211.161a10.648,10.648,0,0,0,11.332-6.721l2.148-5.567,22.811,1.007s2.526-9.409,5.713-13.077l-34-1.676a17.939,17.939,0,0,0-17.82,11.671c-.044.12-.086.241-.128.363A10.605,10.605,0,0,0,131.648,148.171Z"/><path fill="#e87b40" d="M173.644,123.914,140.862,122.3a17.939,17.939,0,0,0-17.82,11.671c-.044.12-.086.241-.128.363s-.072.27-.113.4c4.39-6.032,12.322-6.3,12.322-6.3l25.9,1.007s10.045.6,11.644-1.955l.007-.013a1.4,1.4,0,0,0,.121-.246A21.392,21.392,0,0,0,173.644,123.914Z"/><polygon fill="#567bc6" points="205.463 151.903 205.411 166.68 205.411 283.482 255.423 292.79 260.995 205.614 284.535 171.65 269.704 144.908 236.445 139.785 205.463 151.903"/><path fill="#38508e" d="M269.7,144.908l-33.259-5.123L218,147l-3.894,5.765a214.641,214.641,0,0,1,42.848,2.288,5.509,5.509,0,0,1,4,2.893c2.328,4.511,8.746,13.583,21.486,9.926Z"/><path fill="#ffb664" d="M242.028,132.94c11.57.115,24.13.594,32.649,2.547,7.655.68,13.829,5.916,16.834,12.989a19.616,19.616,0,0,1,1.613,8.3s-.574,11.237-11.712,12.118c0,0-16.4.305-15.647-17.779a233.491,233.491,0,0,0-41.017-4.235Z"/><path fill="#e87b40" d="M282.842,138.194a18.755,18.755,0,0,0-8.165-2.707c-8.519-1.953-21.079-2.432-32.649-2.547l-8.518,6.87c6.939.1,25.861.587,35.178,2.986a23.966,23.966,0,0,1,8.219,3.873,5.288,5.288,0,0,0,6.1.474l.11-.071A5.3,5.3,0,0,0,282.842,138.194Z"/><path fill="#38508e" d="M242.7,133a64.915,64.915,0,0,0-11.055-21.575,86.16,86.16,0,0,1-19.8,16.967,13.884,13.884,0,0,0-6.431,11.738v17.517C218.437,152.449,233.691,143.536,242.7,133Z"/><path fill="#38508e" d="M166.3,157.423,157.967,136.4a19.728,19.728,0,0,1-1.426-9.77c.649-5.4,3.24-8.154,7.339-8.8l17.375-2.731S169.677,137,166.3,157.423Z"/><path fill="#dae5fc" d="M177.35,153.942c-1.688,12.954-6.472,56.835-5.381,131.343l5.959.962c-.135-57.134,4.7-126.887,4.7-126.887Z"/><path fill="#38508e" d="M159.463,262.919c-13.12-2.9-22.631-5.334-25.41-6.056-.711,9.55-1.1,15.654-1.1,15.654l26.189,5.168C159.2,272.906,159.311,267.962,159.463,262.919Z"/><path fill="#38508e" d="M256.482,276.219c-15.4.11-33.522-1.845-51.071-4.558v11.821l50.012,9.308Z"/><path fill="#ffcacf" d="M241.566,74.307c-.293,11.361-2.847,35.688-18.769,45.822a11.684,11.684,0,0,1-10.622.9,97.586,97.586,0,0,1-11.752-5.653L184.03,102.707V62.224L240.5,61.8l.411,2.62A54.768,54.768,0,0,1,241.566,74.307Z"/><path fill="#e5838b" d="M184.03,102.707a67.3,67.3,0,0,0,16.4,12.665,13.326,13.326,0,0,0-2.52-7.619c9.154-12.227,0-20.6,0-20.6,6.75-2.127,7.506-11.1,7.506-11.1l-5.842-10.966L184.8,62.218l-.767.006Z"/><path fill="#e5838b" d="M240.5,61.8l-56.471.428V75.035c11.864,2.373,33.841,5.189,57.5.317.013-.359.024-.708.033-1.045a54.768,54.768,0,0,0-.654-9.891Z"/><path fill="#fff" d="M180.532,127.231s-30.524-3.464-48.457-17.431c-7.229-5.63-3.4-17.227,5.758-17.3q.7-.006,1.451.039s-2.37-14.712,11.851-17.609c0,0-3.029-15.011,8.032-17.776l30.812,5.4-3.443,23.306Z"/><path fill="#fff" d="M198.844,75.565a10.461,10.461,0,1,1-20.778-1.736S183.2,65.1,188.383,65.1A10.462,10.462,0,0,1,198.844,75.565Z"/><circle cx="188.383" cy="75.565" r="6.156" fill="#a8b8db"/><path fill="#fff" d="M196.431,96.832a10.471,10.471,0,1,1-20.922,0c0-6.031,5.311-11.843,11.027-10.965C192.528,86.788,196.431,90.8,196.431,96.832Z"/><path fill="#a8b8db" d="M192.231,96.341a6.261,6.261,0,0,1-12.522,0c0-3.458,3.179-6.79,6.6-6.286C189.9,90.583,192.231,92.883,192.231,96.341Z"/><path fill="#fff" d="M193.69,118.544a11.149,11.149,0,0,1-21.846-4.471,11.019,11.019,0,0,1,12.9-8.7A11.223,11.223,0,0,1,193.69,118.544Z"/><path fill="#ffcacf" d="M80.632,235.079S61.017,222.1,50.139,242.545a85.032,85.032,0,0,0-6.166,17.34,8.631,8.631,0,0,0,6.308,10.208q.323.079.666.145l4.217.262a11.869,11.869,0,0,0,10.79,5.9,35.409,35.409,0,0,0,4.086-.567s11.652,10.179,21.063-4a44.543,44.543,0,0,0,6.485-14.758,14.37,14.37,0,0,0-6.376-15.328Z"/><path fill="#ffb664" d="M89.774,292.6a8.645,8.645,0,0,1-10.395-7.321c-.869-6.638.232-17.127,10.082-29.977,6.966-9.087,14.452-12.587,20.106-13.838a8.613,8.613,0,0,1,10.465,8.474c-.054,5.946-1.675,14.677-8.094,25.5C104.974,287.172,96.088,291.252,89.774,292.6Z"/><path fill="#e87b40" d="M86.879,283.233a7.124,7.124,0,0,0,10.467,6.633c4.864-2.523,10.123-6.9,14.592-14.433,5.035-8.489,7.119-15.692,7.808-21.273a6.577,6.577,0,0,0-8.976-6.881l-.215.089c-6.868,2.932-18.48,12.62-22.006,26.331A47.948,47.948,0,0,0,86.879,283.233Z"/><path fill="#d2e8ff" d="M103.294,271.891a50.246,50.246,0,0,1,6.36-8.579,4.487,4.487,0,0,1,4.692-1.2c5.739,1.924,19.972,6.532,30.6,8.631l-8.066,15.415s-18.478-3.6-32.309-10.073A2.961,2.961,0,0,1,103.294,271.891Z"/><path fill="#333353" d="M327.028,314.064V291.423s-96.132-1.215-181.893-23.357a5.926,5.926,0,0,0-5.83,1.691,42.774,42.774,0,0,0-7.84,12.586,5.925,5.925,0,0,0,3.756,7.971C173.077,301.606,239.531,316.09,327.028,314.064Z"/><path fill="#ffb664" d="M16.533,280.466a12.776,12.776,0,0,1,20.577-.781,10.937,10.937,0,0,1,2.523,6.929c.167,8.042,4.284,17.452,6.054,21.14a1.435,1.435,0,0,1-.99,2.029,40.944,40.944,0,0,1-7.2.931,5.113,5.113,0,0,1-4.791-2.972l-3.6-7.8a25.958,25.958,0,0,0-1.861,9.318,1.645,1.645,0,0,1-1.769,1.671l-3.154-.266c-6.478-.4-8.22-4.544-8.764-8.3C12.675,296.325,12.223,286.761,16.533,280.466Z"/><path fill="#e5838b" d="M251.2,310.441s-6.554,11.827,3.159,19.173a21,21,0,0,0,14.367,3.888c8.417-.587,14.26-8.192,11.477-15.426q-.158-.408-.346-.828C275.807,308.311,251.2,310.441,251.2,310.441Z"/><path fill="#ffcacf" d="M284.535,278.327s-22.573-9.967-30.218,13.1A89.26,89.26,0,0,0,251,310.441a9.055,9.055,0,0,0,8.322,9.444q.416.03.855.034l4.267-.474a12.408,12.408,0,0,0,11.651,4.291l4.672-1.4s13.844,8.471,21.076-7.852a46.735,46.735,0,0,0,4.105-16.4,15.072,15.072,0,0,0-9.3-14.726Z"/><path fill="#e5838b" d="M56.409,252.569a37.221,37.221,0,0,0-5.46,17.659,17.7,17.7,0,0,0,4.215.272,58.021,58.021,0,0,1,2.964-17.1A.96.96,0,0,0,56.409,252.569Z"/><path fill="#e5838b" d="M71.243,258.968A44.158,44.158,0,0,0,65.954,276.4a17.649,17.649,0,0,0,4.086-.562A51.64,51.64,0,0,1,73.026,259.8.986.986,0,0,0,71.243,258.968Z"/><path fill="#e5838b" d="M265.65,302.813a43.356,43.356,0,0,0-5.474,17.1,18.751,18.751,0,0,0,4.266-.466,81.429,81.429,0,0,1,3.212-15.755A1.1,1.1,0,0,0,265.65,302.813Z"/><path fill="#e5838b" d="M282.106,305.983a42.339,42.339,0,0,0-6.013,17.753,18.185,18.185,0,0,0,4.672-1.4,90.135,90.135,0,0,1,3.307-15.4A1.1,1.1,0,0,0,282.106,305.983Z"/><path fill="#ffb664" d="M152.786,232.888c-.1,0-.2,0-.3-.015l-5.8-.569a3.078,3.078,0,1,1,.6-6.126l5.8.569a3.078,3.078,0,0,1-.3,6.141Z"/><path fill="#ffb664" d="M150.539,252.116c-.1,0-.2-.006-.3-.015l-5.8-.569a3.078,3.078,0,0,1,.6-6.127l5.8.569a3.078,3.078,0,0,1-.3,6.142Z"/><path fill="#ffb664" d="M154.112,212.691a3.247,3.247,0,0,1-.392-.024l-5.373-.684a3.078,3.078,0,0,1,.777-6.107l5.373.684a3.078,3.078,0,0,1-.385,6.131Z"/><path fill="#ffb664" d="M155.388,193.812c-.081,0-.161,0-.242-.009l-5.54-.43a3.078,3.078,0,1,1,.477-6.137l5.54.43a3.078,3.078,0,0,1-.235,6.146Z"/><path fill="#ffb664" d="M157.437,173.086q-.12,0-.24-.009l-5.168-.4a3.078,3.078,0,1,1,.472-6.138l5.168.4a3.078,3.078,0,0,1-.232,6.147Z"/><path fill="#ffb664" d="M221.932,177.022a3.5,3.5,0,0,1-.182-7l4.028-.213a3.5,3.5,0,1,1,.37,6.99l-4.028.213C222.057,177.021,222,177.022,221.932,177.022Z"/><path fill="#ffb664" d="M221.932,197.734a3.5,3.5,0,0,1-.182-7l4.028-.214a3.5,3.5,0,1,1,.37,6.99l-4.028.214C222.057,197.732,222,197.734,221.932,197.734Z"/><path fill="#ffb664" d="M221.932,217.453a3.5,3.5,0,0,1-.182-7l4.028-.213a3.5,3.5,0,1,1,.369,6.991l-4.027.213C222.057,217.452,221.994,217.453,221.932,217.453Z"/><path fill="#ffb664" d="M221.932,238.852a3.5,3.5,0,0,1-.182-7l4.028-.213a3.5,3.5,0,1,1,.369,6.99l-4.027.213C222.057,238.85,221.994,238.852,221.932,238.852Z"/><path fill="#ffb664" d="M221.932,260.25a3.5,3.5,0,0,1-.182-7l4.028-.213a3.5,3.5,0,0,1,.37,6.99l-4.028.213C222.057,260.249,222,260.25,221.932,260.25Z"/><path fill="#e8808f" d="M231.036,88.052a3.223,3.223,0,0,1-.5-6.407l3.294-.519a3.223,3.223,0,0,1,1,6.367l-3.294.52A3.346,3.346,0,0,1,231.036,88.052Z"/><path fill="#e8808f" d="M217.57,88.365a3.316,3.316,0,0,1-.629-.011l-3.762-.433a3.223,3.223,0,1,1,.736-6.4l3.762.433a3.223,3.223,0,0,1-.107,6.415Z"/><path fill="#a8b8db" d="M188.383,65.1c-.373-.018.814-1.807.814-1.807l-30.03-6.139c-11.061,2.765-8.032,17.776-8.032,17.776-14.221,2.9-11.851,17.609-11.851,17.609-.512-.031-1-.043-1.479-.039-9.2.082-12.987,11.644-5.731,17.3a59.186,59.186,0,0,0,8.222,5.3c-1.521-7.736.527-12.274,3.014-14.9a108.925,108.925,0,0,0,26.192,5.989,1.21,1.21,0,0,0,.445-2.372c-4.132-1.08-8.043-2.29-11.595-3.5a10.933,10.933,0,0,1-6.885-13.662c.927-2.883,2.052-5.483,3.272-6.365A77.454,77.454,0,0,0,169.962,84.3a1.211,1.211,0,0,0,.542-2.358c-2.951-.863-5.594-1.712-7.9-2.5a6.46,6.46,0,0,1-4.293-7.247A10.873,10.873,0,0,1,160,68.133c7.9,2.543,18.072,5.7,18.072,5.7,4.007.734,8.19.265,11.912.376,0,0,6.981.32,7.39,6.7a10.513,10.513,0,0,0,1.618-5.336C198.987,69,194.154,65.379,188.383,65.1Z"/><path fill="#38508e" d="M276.262,233.8l4.2,7.748a34.117,34.117,0,0,1,15.756-2.648,1.827,1.827,0,0,0,1.048-3.431C293.305,233.344,286.748,231.767,276.262,233.8Z"/><circle cx="193.545" cy="177.022" r="3.5" fill="#dae5fc"/><circle cx="192.776" cy="193.512" r="3.5" fill="#dae5fc"/><circle cx="192.478" cy="210.003" r="3.5" fill="#dae5fc"/><circle cx="191.637" cy="226.691" r="3.5" fill="#dae5fc"/><circle cx="191.205" cy="247.368" r="3.5" fill="#dae5fc"/><path fill="#a8b8db" d="M188.885,117.039a6.261,6.261,0,1,1-12.521,0c0-3.458,3.178-6.79,6.6-6.286C186.549,111.28,188.885,113.581,188.885,117.039Z"/><path fill="#38508e" d="M250.258,179.9c-2.162,8.569-1.258,21.321,9.9,38.882l.842-13.17s-7.2-12.676-6.989-25.239A1.9,1.9,0,0,0,250.258,179.9Z"/><path fill="#e87b40" d="M32.7,307.742a5.113,5.113,0,0,0,4.791,2.972,40.944,40.944,0,0,0,7.2-.931,1.435,1.435,0,0,0,.99-2.029c-1.77-3.688-5.887-13.1-6.054-21.14a10.937,10.937,0,0,0-2.523-6.929,13.5,13.5,0,0,0-3.146-2.771c.309,6.5-.916,22.743-20.741,22.734.094.962.206,1.88.329,2.723.544,3.754,2.286,7.9,8.764,8.3l3.154.266a1.645,1.645,0,0,0,1.769-1.671,25.958,25.958,0,0,1,1.861-9.318Z"/><path fill="#567bc6" d="M265.347,49.232a13.582,13.582,0,0,1-7.554,12.649c-8.492,4.2-20.844,7.528-38.664,7.528-30.751,0-66.28-10.525-82.34-18.2l-5.418-2.943s.656-11.253,20.46-11.756,54.04-24.167,54.04-24.167L235.911,34l25.678-9.733A97.851,97.851,0,0,1,265.347,49.232Z"/><path fill="#38508e" d="M167.955,32.774c-5.758,2.151-11.36,3.62-16.124,3.741-19.8.5-20.46,11.756-20.46,11.756l5.418,2.943a177.511,177.511,0,0,0,26.659,9.6C160.055,49.259,163.542,39.6,167.955,32.774Z"/><path fill="#ffb664" d="M136.789,51.214a105.723,105.723,0,0,1-10.351-4.774c-7.832-4.155-5.521-16.066,3.3-16.963a34.705,34.705,0,0,1,6.476,0s24.5,2.568,41.708-7.685c7.791-4.641,14.726-9.2,19.789-12.661a15.522,15.522,0,0,1,17.72.159c4.848,3.425,10.981,7.958,16.748,12.79a9.227,9.227,0,0,0,12.21-.33,95,95,0,0,0,7.36-7.585,4.9,4.9,0,0,1,8.369,1.652,60.045,60.045,0,0,1,2.741,13.23,80.385,80.385,0,0,1-17.4,12.561,13.256,13.256,0,0,1-14.333-1.332c-5-3.925-12.222-9.448-18.295-13.555a11.231,11.231,0,0,0-12.24-.226c-8.285,5.171-23.836,14.076-36.043,16.4-.452.086-.89.2-1.329.252C146.619,44.929,141.786,46.073,136.789,51.214Z"/><path fill="#e87b40" d="M136.214,29.477a34.705,34.705,0,0,0-6.476,0c-8.821.9-11.132,12.808-3.3,16.963a105.723,105.723,0,0,0,10.351,4.774c5.781-4.411,10.044-4.968,26.429-8.069,3.646-13.251,14.7-21.353,14.7-21.353C160.71,32.045,136.214,29.477,136.214,29.477Z"/></svg>