<svg xmlns="http://www.w3.org/2000/svg"  viewBox="0 0 340 340" width="500px" height="500px"><polygon fill="#ffd9d2" points="159.693 295.134 159.693 329.184 133.47 329.184 120.15 282.289 159.693 295.134"/><polygon fill="#ffd9d2" points="159.693 295.134 159.693 329.184 185.915 329.184 198.066 285.989 159.693 295.134"/><path fill="#f29999" d="M159.693,295.134,120.15,282.289l8.983,31.625a38.433,38.433,0,0,0,6.008.468,48.224,48.224,0,0,0,14.559-2.4,11.132,11.132,0,0,1,3.373-.533,10.022,10.022,0,0,1,3.168.508v17.231h6.9V313.605a36.884,36.884,0,0,0,5.409.419,35.949,35.949,0,0,0,21.108-6.882,10.264,10.264,0,0,1,2.85-1.406l5.555-19.747Z"/><path fill="#404a66" d="M289.289,149.909c-13.563-23.216-43.532-42.583-43.532-42.583A166.846,166.846,0,0,1,202.2,67.212,88.056,88.056,0,0,1,191.032,47.2a148.009,148.009,0,0,0-9.493-19.841c-9.693-14.782-27.383-9.693-27.383-9.693-16.478-4.847-28.11,15.024-28.11,15.024-25.687,45.558-.969,91.358-.969,91.358l36.349,89.9c26.072,1.693,47.806-2.066,65.6-8.36a9.614,9.614,0,0,0,6.332-10.6c-.753-4.591-1.483-10.459-1.977-17.724l20.1,16.951A130.839,130.839,0,0,0,288.433,162.1,10.957,10.957,0,0,0,289.289,149.909Z"/><path fill="#ffc0e4" d="M88.915,235.988s-10.5,2.625-23.416,13.206c-.188.154-.371.311-.549.473,0,0-6.092,15.947,2.1,20.692a25.255,25.255,0,0,0,4.155,2.436c4,1.39,8.225,3.8,10.387,7.449,3.182,5.365,8.87,12.092,21.633,12.178,4.831.032,10.193,3.038,13.754,6.3,5.282,4.846,13.762,9.469,29.584,4.441,3.781-1.2,8.707-2.2,12.464-.931,5.913,2,13.766,3.876,24-3.367,3.865-2.737,10.342-3.027,15.041-2.436,5.547.7,11.32-.886,18.053-5.873,2.817-2.087,8.392-2.738,11.891-2.937,4.515-.258,8.592-1.739,13.9-8.74a21.565,21.565,0,0,1,6.375-5.587c4.615-2.537,12.826-6.881,12.68-20.2-.049-4.394-4.323-11.1-4.323-11.1a13.932,13.932,0,0,0-2.118-1.324,87.848,87.848,0,0,0-23.084-7.745Z"/><path fill="#f270b1" d="M252.85,245.626a23.822,23.822,0,0,0,3.308-3.963,13.971,13.971,0,0,0-1.637-.992,87.848,87.848,0,0,0-23.084-7.745L88.916,235.988s-10.063,2.52-22.6,12.551a31.788,31.788,0,0,0,12.845,6.945,11.72,11.72,0,0,1,6.091,3.8c7.244,9.1,18.166,14.109,30.754,14.109.865,0,1.75-.023,2.632-.069.207-.01.413-.016.619-.016a10.115,10.115,0,0,1,5.209,1.368,43.467,43.467,0,0,0,22.021,6.459,36.979,36.979,0,0,0,17.775-4.575,11.576,11.576,0,0,1,5.485-1.426,10.5,10.5,0,0,1,3.263.517,41,41,0,0,0,12.722,2.1,34.5,34.5,0,0,0,21.221-7.162,11.191,11.191,0,0,1,5.272-2.275c7.488-.936,17.752-3.715,24.119-11.635a12.075,12.075,0,0,1,5.077-3.892A33.389,33.389,0,0,0,252.85,245.626Z"/><path fill="#ffc0e4" d="M130.987,190.336s-7.276,18.929-25.648,28.95a98.594,98.594,0,0,1-18.13,6.235,9.907,9.907,0,0,0-4.47,16.9,19.2,19.2,0,0,0,8.027,4.4c5.2.436,8.283,2.825,10.05,6.436,3.5,4.391,10.213,9.677,22.088,9.063l.3-.013c4.008-.882,7.443-.581,9.635,2.292q.162.093.324.189c5.541,3.323,15.6,7.3,26.361,1.474,1.06-.574,2.478-.547,3.287-1.413,2.7-2.892,8.749-2.014,12.445.245,5.776,1.7,13.613,2.169,20.969-3.388q.213-.162.431-.318c2.083-3.058,6.072-4.072,11.2-3.867,4.429-.855,9.686-2.688,12.832-6.6q.334-.415.686-.814s.9-4.321,6.588-5.621c1.112-.254,4.43-1.405,4.43-1.405a20.124,20.124,0,0,0,3.711-2.811c7.877-7.564,2.405-20.91-8.516-20.832-2.408.018-4.983-.027-7.64-.17a35.881,35.881,0,0,1-27.062-14.439c-4.041-5.492-7.919-13.128-10.439-23.674Z"/><path fill="#f270b1" d="M188.864,198.435a71.083,71.083,0,0,1-6.419-17.285l-51.458,9.186a58.5,58.5,0,0,1-6.329,11.279C133.412,203.378,167.555,209.24,188.864,198.435Z"/><path fill="#ffd9d2" d="M104.173,155.606l-12.3,27.01L53.615,164.263,52.23,178.807s25.191,22.625,43.286,28.742l30.473-38.365Z"/><path fill="#f29999" d="M104.173,155.606,98.7,167.633l10.685,5.277a19.612,19.612,0,0,0,3.9,12.278l12.711-16Z"/><path fill="#ffd9d2" d="M202.561,95.458s30.983-29.382,57.793-49.64A13.671,13.671,0,0,0,265.776,34.9v-.991a13.7,13.7,0,0,1,3.517-9.167l4.169-4.631c3.208-3.3,5.533-2.81,8.015.277l1.172,1.48,7.414-5.844c7.427-7.4,9.546-.619,10.6,4.107a36.569,36.569,0,0,1,.847,6.387,14.114,14.114,0,0,1-4.866,11.2l-8.418,7.367a20.716,20.716,0,0,1-8.273,4.417h0a20.725,20.725,0,0,0-10.03,6.15L206.71,125.893Z"/><path fill="#f29999" d="M206.71,125.893l9.876-10.973A109.148,109.148,0,0,0,212,86.714c-5.823,5.316-9.438,8.744-9.438,8.744Z"/><path fill="#ffc0e4" d="M175.264,113.405s.664-5.756,9.4-10.541c5.816-3.185,11.817-10.056,15.181-14.3a2.477,2.477,0,0,1,4.3.771,107.5,107.5,0,0,1,5.407,33.611,16.335,16.335,0,0,1-2.241,8.016A46.43,46.43,0,0,1,191.116,147.6s1.115,10.674-2.928,17.662a8.437,8.437,0,0,0-.3,8.241c.164.305.344.613.54.92a4.691,4.691,0,0,1-.333,5.617,47.238,47.238,0,0,1-7.039,6.551,42.4,42.4,0,0,1-25.69,8.446H132.607a6.775,6.775,0,0,1-6.688-7.709q.086-.645.15-1.332a8.345,8.345,0,0,0-1.891-6.1,21.675,21.675,0,0,1-4.841-12.11L94.281,153.161a1.612,1.612,0,0,1-.052-2.756,33.555,33.555,0,0,0,3.755-2.761,14.243,14.243,0,0,0,4.761-8.251c.867-4.718,3.3-12.971,10.008-18.161,6.572-5.083,15.939-5.056,21.97.659q.343.325.679.68Z"/><path fill="#ffd9d2" d="M166.52,106.485V92.728l-10.937,2.345h-10.09v15.644a9.294,9.294,0,0,1-4,7.641l-6.087,4.213c5.969,13.856,20.181,18.545,20.181,18.545,18.9-8.1,19.681-27.711,19.681-27.711a15.511,15.511,0,0,1-2.968-.1A6.83,6.83,0,0,1,166.52,106.485Z"/><path fill="#f29999" d="M166.52,92.728l-10.937,2.345h-10.09v15.644c0,.309-.026.613-.056.917,10.461-1.2,17.1-4.6,21.083-7.65Z"/><path fill="#ffd9d2" d="M160.68,36.381a51.558,51.558,0,0,1,7.793,19.239,4.96,4.96,0,0,0,4.868,4h8.223s1.189,28.418-15.428,38.749a20.873,20.873,0,0,1-21.828.031c-7.363-4.521-15.778-15.547-14.616-37.433h17.4a10.184,10.184,0,0,0,8.134-3.994C157.928,53.411,160.865,47.06,160.68,36.381Z"/><path fill="#f29999" d="M65.8,170.107l-12.182-5.844L52.23,178.807s5.675,5.094,13.567,11.1Z"/><path fill="#8490a5" d="M46.66,138.439,65.718,140,53.379,192.772a5.869,5.869,0,0,1-6.28,4.535h0a5.868,5.868,0,0,1-5.289-6.352Z"/><path fill="#ffd9d2" d="M48.931,154.439a23.871,23.871,0,0,1,5.117.862,8.783,8.783,0,0,1,6.171,9.9l-2.144,12.83a8.786,8.786,0,0,1-11.4,6.933,21.476,21.476,0,0,1-4.283-1.949,8.245,8.245,0,0,1-3.845-8.134l1.729-13.22A8.269,8.269,0,0,1,48.931,154.439Z"/><circle cx="57.55" cy="129.241" r="14.599" fill="#c6c6c6"/><path fill="#efefef" d="M68.352,122.255a14.6,14.6,0,0,0-.367-3.213,14.581,14.581,0,0,0-24.667,13.413,14.592,14.592,0,0,0,25.034-10.2Z"/><path fill="#404a66" d="M149.62,70.565a20.573,20.573,0,0,0-3.5-1.037,3.5,3.5,0,1,0-1.365,6.865,13.515,13.515,0,0,1,2.3.685,3.5,3.5,0,1,0,2.566-6.513Z"/><path fill="#404a66" d="M169.2,72.306a3.5,3.5,0,0,0-4.016-2.893,20.159,20.159,0,0,0-4.136,1.152,3.5,3.5,0,1,0,2.564,6.513,13.191,13.191,0,0,1,2.695-.756A3.5,3.5,0,0,0,169.2,72.306Z"/><path fill="#404a66" d="M187.35,303.877a14.123,14.123,0,0,1,1.833-1.081l-7.423,26.388h8.311l7.83-27.835c6.078.765,14.975.45,22.852-5.385a13.98,13.98,0,0,1,7.564-2.655c5.338-.3,13.012-2.392,19.247-10.618a15.014,15.014,0,0,1,4.771-4.127c5.25-2.886,14.032-10.042,13.861-25.535a18,18,0,0,0-9.867-15.926A87.23,87.23,0,0,0,243.83,232a16.36,16.36,0,0,0-1.22-6.49,16.05,16.05,0,0,0-14.933-10.072h-.119c-2.537.019-5.025-.037-7.4-.164a32.714,32.714,0,0,1-9.374-1.9,151.155,151.155,0,0,0,17.238-4.95,12.611,12.611,0,0,0,8.291-13.913c-.526-3.208-.975-6.648-1.342-10.282l14.566,12.287A3,3,0,0,0,253,196.8a134.419,134.419,0,0,0,37.816-32.868,13.891,13.891,0,0,0,1.068-15.539c-13.766-23.562-43.245-42.782-44.5-43.593l-9.946-7.065L272.9,58.329a16.676,16.676,0,0,1,8.09-4.962,24.831,24.831,0,0,0,9.871-5.27l8.419-7.367a18,18,0,0,0,6.228-14.384,40.7,40.7,0,0,0-.94-7.084,10.722,10.722,0,0,0-18.34-5.016l-2.409,2.509a9.427,9.427,0,0,0-13.332.684L266.32,22.07a17.678,17.678,0,0,0-4.545,11.843V34.9a9.722,9.722,0,0,1-3.833,7.723C243.076,53.86,226.812,68,215.391,78.252A149.056,149.056,0,0,1,204.6,65.42a85.121,85.121,0,0,1-10.784-19.333,149.869,149.869,0,0,0-9.712-20.282l-.059-.093c-8.289-12.639-22.684-12.9-29.877-11.155-18.064-4.59-30.2,15.736-30.738,16.658-15.682,27.814-13.241,55.651-8.416,74.167.075.267,1.371,4.824,2.746,8.919a22.029,22.029,0,0,0-7.458,3.768c-7.818,6.047-10.557,15.5-11.493,20.6a10.252,10.252,0,0,1-3.422,5.93,28.646,28.646,0,0,1-5.259,3.557,4,4,0,0,0-.273,7.056l7.98,4.655-7.914,17.377-25.65-12.305a12.805,12.805,0,0,0,.065-1.473l4.567-19.528a18.606,18.606,0,1,0-26.418-3.83l-1.167,12.636a12.327,12.327,0,0,0-5.011,8.4l-1.73,13.22a12.278,12.278,0,0,0,3.768,10.576l-.524,5.672A9.9,9.9,0,0,0,42.8,200.04l-.312,3.058a4,4,0,1,0,7.959.812l.315-3.081a9.848,9.848,0,0,0,4.585-3.176,4,4,0,0,0-6.231-5.018,1.87,1.87,0,0,1-3.322-1.312l.221-2.39a12.569,12.569,0,0,0,9.946-1.344c.084-.05.159-.112.242-.164,7.83,6.414,20.459,16.013,31.961,21.433a11.578,11.578,0,0,0,14.057-3.319L116.231,187.9a4,4,0,1,0-6.264-4.975L95.955,200.564a3.616,3.616,0,0,1-4.382,1.056c-10.741-5.06-22.761-14.207-30.269-20.357a12.876,12.876,0,0,0,.717-2.574l.921-5.515,27.2,13.048a4,4,0,0,0,5.371-1.948l9.27-20.356,10.831,6.319a25.347,25.347,0,0,0,5.485,12.205,4.373,4.373,0,0,1,.986,3.18q-.057.606-.133,1.179a10.859,10.859,0,0,0,2.246,8.141c-3.575,6.122-10.18,15.024-20.689,20.785a95.9,95.9,0,0,1-17.249,5.909,14.034,14.034,0,0,0-10.545,15.748A86.81,86.81,0,0,0,62.964,246.1,18.146,18.146,0,0,0,56.4,261.6a17.812,17.812,0,0,0,8.788,14,27.521,27.521,0,0,0,4.752,2.157,13.938,13.938,0,0,1,7.375,6.082c3.135,5.289,10.673,14.176,25.92,14.278a15.4,15.4,0,0,1,10.328,4.045,31,31,0,0,0,9.793,6.054l5.956,20.969h8.317l-5.385-18.958c.962.081,1.948.137,2.977.137a43.725,43.725,0,0,0,13.267-2.2,14.689,14.689,0,0,1,7.2-.47v21.488h8V309.647A32,32,0,0,0,187.35,303.877ZM56.274,164.541l-2.144,12.83a4.848,4.848,0,0,1-2.289,3.361,4.615,4.615,0,0,1-3.9.438,17.5,17.5,0,0,1-3.482-1.579,4.231,4.231,0,0,1-1.95-4.191l1.729-13.221a4.278,4.278,0,0,1,4.186-3.756c.084,0,.17,0,.255.008a19.806,19.806,0,0,1,4.257.714A4.768,4.768,0,0,1,56.274,164.541Zm2.291-11.513a12.6,12.6,0,0,0-3.408-1.57,27.678,27.678,0,0,0-5.592-.977l.4-4.277a18.071,18.071,0,0,0,9.854,1.484ZM57.55,139.84a10.6,10.6,0,1,1,10.6-10.6A10.611,10.611,0,0,1,57.55,139.84ZM243.135,109.2c.035.025.071.049.107.073l.886.573c.294.19,29.535,19.265,42.571,41.577a7.913,7.913,0,0,1-.642,8.85,127.842,127.842,0,0,1-34.288,30.269l-18.458-15.568a3,3,0,0,0-4.928,2.5c.443,6.513,1.119,12.571,2.009,18a6.617,6.617,0,0,1-4.371,7.287,147.3,147.3,0,0,1-23.514,6.145,31.205,31.205,0,0,1-6.4-6.453,50.544,50.544,0,0,1-4.217-6.85c-.321-.715-2.512-5.651-3.919-9.677,1.106-1.055,2.161-2.141,3.139-3.265a8.65,8.65,0,0,0,.684-10.4c-.141-.22-.268-.44-.387-.659a4.448,4.448,0,0,1,.245-4.341c3.33-5.757,3.68-13.341,3.593-17.345a31.438,31.438,0,0,0,9.946-9.068,53.539,53.539,0,0,0,5.573-7.862,20.549,20.549,0,0,0,2.724-8.642l19.9-22.11Zm19.63-60.189a17.767,17.767,0,0,0,7.01-14.106v-.991a9.684,9.684,0,0,1,2.492-6.491l4.167-4.631a1.412,1.412,0,0,1,1.041-.472,1.281,1.281,0,0,1,.93.339l-2.628,3a4,4,0,0,0,6.016,5.273l5.151-5.876L292,19.787a2.726,2.726,0,0,1,4.763,1.221,32.712,32.712,0,0,1,.754,5.69,10.181,10.181,0,0,1-3.5,8.012l-8.419,7.366a16.813,16.813,0,0,1-6.677,3.565,24.659,24.659,0,0,0-11.965,7.337L213.115,112.8a113.71,113.71,0,0,0-3.347-18.6C218.775,85.859,242.171,64.571,262.765,49.01ZM128.635,34.2c.1-.178,10.6-17.8,24.675-13.662a3,3,0,0,0,1.675,0c.159-.044,15.623-4.317,24.012,8.405a147.949,147.949,0,0,1,9.248,19.356,91.161,91.161,0,0,0,11.545,20.7,155.3,155.3,0,0,0,11.147,13.269c-1.381,1.255-2.654,2.417-3.8,3.468-.492-1.36-.827-2.172-.888-2.317a4,4,0,0,0-6.968-.745c-2.4,3.432-10.043,13.119-16.537,16.675-6.031,3.3-8.886,7.135-10.244,9.9a2.85,2.85,0,0,1-1.981-2.772V100.17c16.016-12.362,15.09-39.514,15.04-40.716a4,4,0,0,0-4-3.832h-9.021A55.589,55.589,0,0,0,163.9,34a4,4,0,0,0-7.213,2.45c.166,9.685-2.433,15.194-4.642,18.11a6.216,6.216,0,0,1-4.946,2.409h-17.4a4,4,0,0,0-3.994,3.788c-1.374,25.888,10.046,36.782,15.794,40.589v9.372a5.292,5.292,0,0,1-2.28,4.351L135.7,117.5a20.133,20.133,0,0,0-11.872-4.019c-1.45-4.164-3.01-9.655-3.016-9.677C116.276,86.424,113.962,60.23,128.635,34.2Zm15.13,87.443a13.291,13.291,0,0,0,5.727-10.929v-5.937a24.738,24.738,0,0,0,13.028-.43v2.134a10.886,10.886,0,0,0,8.168,10.577,28.478,28.478,0,0,1-15.215,19.7c-3.047-1.341-10.447-5.228-14.933-12.886ZM133.584,64.969h13.51a14.258,14.258,0,0,0,11.323-5.578,28.821,28.821,0,0,0,4.527-9.178,51.39,51.39,0,0,1,2.185,9.882,4,4,0,0,0,3.972,3.527h8.407c-.36,7.614-2.433,24.481-13.484,31.351a16.888,16.888,0,0,1-17.623.02C142.42,92.549,133.579,84.869,133.584,64.969ZM123.322,167.43l0-.013v-.009c-1.452-15.688,5.437-24.466,5.763-24.872a4,4,0,0,0-6.175-5.086c-.328.4-7.031,8.684-7.724,23.273L99.5,151.573q.534-.42,1.08-.884a18.281,18.281,0,0,0,6.1-10.573c.73-3.974,2.808-11.3,8.519-15.719,5.132-3.971,12.343-3.8,16.777.4.029.028.059.06.088.088,6.771,14.759,21.626,19.817,22.265,20.028a4.006,4.006,0,0,0,2.829-.122c19.853-8.507,21.891-28.053,22.084-30.9.153-.627,1.263-4.191,7.345-7.521,5.451-2.985,10.887-8.694,14.587-13.1a102.993,102.993,0,0,1,4.377,29.625,12.414,12.414,0,0,1-1.707,6.074,45.348,45.348,0,0,1-4.889,6.858,4.464,4.464,0,0,0-.379.518,21.6,21.6,0,0,1-4.928,5.036,22.775,22.775,0,0,0-4.354-7.355,4,4,0,1,0-5.928,5.372,17.267,17.267,0,0,1,3.769,8.591l0,.012v.01c.272,2.609.371,10.434-2.41,15.243a12.375,12.375,0,0,0-.361,12.147c.209.387.437.777.684,1.164a.734.734,0,0,1,.02.848,43.424,43.424,0,0,1-6.437,5.989,38.6,38.6,0,0,1-23.271,7.63H132.607a2.688,2.688,0,0,1-2.047-.926,2.814,2.814,0,0,1-.675-2.258c.062-.475.118-.967.167-1.481a12.436,12.436,0,0,0-2.806-9.046A17.642,17.642,0,0,1,123.322,167.43ZM83.754,233.737a5.925,5.925,0,0,1,4.4-4.33,101.943,101.943,0,0,0,18.94-6.528c.053-.026.105-.053.157-.081,12.214-6.663,19.81-16.892,23.886-23.879a10.68,10.68,0,0,0,1.467.113h22.755a46.909,46.909,0,0,0,26.042-7.794c1.491,3.873,3.13,7.518,3.231,7.743.027.059.056.118.085.177a58.805,58.805,0,0,0,4.942,8.037,39.762,39.762,0,0,0,30.07,16.063c2.536.135,5.192.2,7.882.175h.068a8.124,8.124,0,0,1,5.649,13.946,16.643,16.643,0,0,1-5.713,3.561,23.8,23.8,0,0,0-10.048,7.47c-3.072,3.821-9.377,5.123-12.86,5.559a22.9,22.9,0,0,0-10.9,4.543c-5.18,3.914-11.307,4.754-18.215,2.5a22.67,22.67,0,0,0-17.98,1.731c-8.726,4.725-17,1.855-22.4-1.386a22.041,22.041,0,0,0-12.525-3.032c-10.094.514-15.775-3.823-18.751-7.56a23.143,23.143,0,0,0-12.118-7.8,15.3,15.3,0,0,1-6.379-3.488A5.738,5.738,0,0,1,83.754,233.737ZM160.14,300.6a22.44,22.44,0,0,0-14.075-.059c-13.77,4.378-22.334.09-27.094-4.276a23.39,23.39,0,0,0-15.682-6.15c-10.746-.071-16.314-5.672-19.094-10.358A21.937,21.937,0,0,0,72.564,270.2a19.5,19.5,0,0,1-3.367-1.522,9.684,9.684,0,0,1-4.822-7.719,10.145,10.145,0,0,1,3.659-8.67,78.969,78.969,0,0,1,11.211-7.713c.25.268.509.531.783.783a23.225,23.225,0,0,0,9.676,5.316,15.2,15.2,0,0,1,7.983,5.072c4.144,5.205,11.927,11.259,25.422,10.566a14.03,14.03,0,0,1,8,1.9,33.656,33.656,0,0,0,16.98,5.015,27.683,27.683,0,0,0,13.342-3.454,14.744,14.744,0,0,1,11.687-1.162c6.562,2.143,16.314,3.236,25.522-3.72a14.89,14.89,0,0,1,7.065-2.988c5.722-.716,13.507-2.769,18.1-8.485a15.591,15.591,0,0,1,6.633-5,24.632,24.632,0,0,0,8.433-5.277,16.537,16.537,0,0,0,2.754-3.465,79.131,79.131,0,0,1,11.088,4.554,10.025,10.025,0,0,1,5.482,8.878c.12,10.758-5.216,15.963-9.713,18.436a22.962,22.962,0,0,0-7.3,6.306c-4.39,5.792-9.67,7.255-13.327,7.463a21.959,21.959,0,0,0-11.87,4.213c-5.75,4.259-12.467,4.457-17.092,3.876a22.924,22.924,0,0,0-16.172,3.937A24.291,24.291,0,0,1,160.14,300.6Z"/></svg>