<svg xmlns="http://www.w3.org/2000/svg" xmlns:xlink="http://www.w3.org/1999/xlink" viewBox="0 0 340 340" width="500px" height="500px"><defs><linearGradient id="s1f8_cdAUBdlTbuCSDZEva" x1="3.637" x2="158.876" y1="68.45" y2="280.643" gradientUnits="userSpaceOnUse"><stop offset="0" stop-color="#9a9da6"/><stop offset="1" stop-color="#6b6d6e"/></linearGradient><linearGradient id="s1f8_cdAUBdlTbuCSDZEvb" x1="130.742" x2="156.588" y1="182.526" y2="234.218" gradientUnits="userSpaceOnUse"><stop offset="0" stop-color="#c6b78c"/><stop offset="1" stop-color="#94875b"/></linearGradient><linearGradient id="s1f8_cdAUBdlTbuCSDZEvc" x1="154.69" x2="242.19" y1="264.752" y2="334.085" gradientUnits="userSpaceOnUse"><stop offset="0" stop-color="#914939"/><stop offset="1" stop-color="#783b2b"/></linearGradient><linearGradient id="s1f8_cdAUBdlTbuCSDZEvg" x1="45.826" x2="176.386" y1="39.3" y2="217.76" xlink:href="#s1f8_cdAUBdlTbuCSDZEva"/><linearGradient id="s1f8_cdAUBdlTbuCSDZEvh" x1="216.142" x2="233.465" y1="277.019" y2="341.152" xlink:href="#s1f8_cdAUBdlTbuCSDZEvb"/><linearGradient id="s1f8_cdAUBdlTbuCSDZEvi" x1="173.583" x2="186.114" y1="161.053" y2="228.871" xlink:href="#s1f8_cdAUBdlTbuCSDZEvb"/><linearGradient id="s1f8_cdAUBdlTbuCSDZEvj" x1="246.135" x2="258.298" y1="132.564" y2="262.303" xlink:href="#s1f8_cdAUBdlTbuCSDZEvb"/><linearGradient id="s1f8_cdAUBdlTbuCSDZEve" x1="177.696" x2="223.96" y1="106.296" y2="143.135" gradientUnits="userSpaceOnUse"><stop offset="0" stop-color="#cf8272"/><stop offset="1" stop-color="#b56757"/></linearGradient><linearGradient id="s1f8_cdAUBdlTbuCSDZEvk" x1="206.056" x2="251.971" y1="109.137" y2="129.309" xlink:href="#s1f8_cdAUBdlTbuCSDZEvc"/><linearGradient id="s1f8_cdAUBdlTbuCSDZEvd" x1="259.329" x2="279.199" y1="-4.13" y2="85.045" gradientUnits="userSpaceOnUse"><stop offset="0" stop-color="#ffe695"/><stop offset="1" stop-color="#ffb265"/></linearGradient><linearGradient id="s1f8_cdAUBdlTbuCSDZEvf" x1="190.239" x2="244.208" y1="56.893" y2="130.225" gradientUnits="userSpaceOnUse"><stop offset="0" stop-color="#ffcac0"/><stop offset="1" stop-color="#e5837c"/></linearGradient><linearGradient id="s1f8_cdAUBdlTbuCSDZEvl" x1="194.96" x2="214.798" y1="10.224" y2="99.256" xlink:href="#s1f8_cdAUBdlTbuCSDZEvd"/><linearGradient id="s1f8_cdAUBdlTbuCSDZEvm" x1="229.569" x2="247.522" y1="244.292" y2="292.101" xlink:href="#s1f8_cdAUBdlTbuCSDZEve"/><linearGradient id="s1f8_cdAUBdlTbuCSDZEvn" x1="173.645" x2="191.185" y1="256.764" y2="303.472" xlink:href="#s1f8_cdAUBdlTbuCSDZEve"/><linearGradient id="s1f8_cdAUBdlTbuCSDZEvo" x1="90.698" x2="151.009" y1="110.63" y2="175.672" xlink:href="#s1f8_cdAUBdlTbuCSDZEva"/><linearGradient id="s1f8_cdAUBdlTbuCSDZEvp" x1="94.105" x2="80.828" y1="160.04" y2="195.938" xlink:href="#s1f8_cdAUBdlTbuCSDZEvf"/><linearGradient id="s1f8_cdAUBdlTbuCSDZEvq" x1="190.749" x2="278.249" y1="219.246" y2="288.579" xlink:href="#s1f8_cdAUBdlTbuCSDZEvc"/><linearGradient id="s1f8_cdAUBdlTbuCSDZEvr" x1="170.753" x2="258.253" y1="244.48" y2="313.814" xlink:href="#s1f8_cdAUBdlTbuCSDZEvc"/><linearGradient id="s1f8_cdAUBdlTbuCSDZEvs" x1="180.058" x2="209.071" y1="231.219" y2="308.48" xlink:href="#s1f8_cdAUBdlTbuCSDZEve"/><linearGradient id="s1f8_cdAUBdlTbuCSDZEvt" x1="231.545" x2="258.576" y1="213.224" y2="285.209" xlink:href="#s1f8_cdAUBdlTbuCSDZEve"/><linearGradient id="s1f8_cdAUBdlTbuCSDZEvu" x1="162.229" x2="249.729" y1="255.238" y2="324.571" xlink:href="#s1f8_cdAUBdlTbuCSDZEvc"/><linearGradient id="s1f8_cdAUBdlTbuCSDZEvv" x1="173.459" x2="260.959" y1="241.066" y2="310.4" xlink:href="#s1f8_cdAUBdlTbuCSDZEvc"/><linearGradient id="s1f8_cdAUBdlTbuCSDZEvw" x1="202.173" x2="289.673" y1="204.829" y2="274.162" xlink:href="#s1f8_cdAUBdlTbuCSDZEvc"/><linearGradient id="s1f8_cdAUBdlTbuCSDZEvx" x1="251.63" x2="318.229" y1="257.069" y2="259.162" xlink:href="#s1f8_cdAUBdlTbuCSDZEvf"/></defs><path fill="url(#s1f8_cdAUBdlTbuCSDZEva)" d="M61.29,114.54a61.589,61.589,0,0,1-8.972,3.119,9.353,9.353,0,0,1-4.729,1.068q-1.927.364-3.991.635a5.973,5.973,0,0,1-4.889.472q-1.653.1-3.382.144a2.482,2.482,0,0,0-2.422,2.483v21.47a2.481,2.481,0,0,0,2.282,2.48c6.493.522,25.747,1.155,43.546-7.368C74.75,128.318,69.034,120.014,61.29,114.54Z"/><path fill="#34363a" d="M32.905,128.2v6.028c2.316.195,4.553.286,6.707.286,16.453,0,28.042-5.189,33-7.918a48.439,48.439,0,0,0-3.6-4.9C63.592,124.506,50.709,129.8,32.905,128.2Z"/><path fill="#34363a" d="M67.62,143.236a71.782,71.782,0,0,0,11.113-4.193c-3.983-10.725-9.7-19.029-17.443-24.5-1.52.666-3.165,1.3-4.915,1.892Z"/><polygon fill="#e5837c" points="104.708 180.868 125.795 198.169 137.933 176.574 119.437 165.41 104.708 180.868"/><path fill="url(#s1f8_cdAUBdlTbuCSDZEvb)" d="M137.552,174.543,121.229,199.68a3.663,3.663,0,0,0,.766,4.843l43.229,35.294-20.471-69.49Z"/><polygon fill="#34363a" points="137.933 176.574 160.433 248.337 192.132 242.431 186.493 196.345 150.681 161.201 137.933 176.574"/><path fill="url(#s1f8_cdAUBdlTbuCSDZEvc)" d="M180.34,244.874s-32.048-5.256-37.106,22.453c-2.559,14.019.06,23.535,3.274,29.516a15.935,15.935,0,0,0,14.067,8.31H178.2Z"/><path fill="#34363a" d="M124.693,169.005,98.639,194.561a6.236,6.236,0,0,1-8.438.271l-7.685-6.626a6.236,6.236,0,0,1-.307-9.162l28.6-28.2Z"/><path fill="#34363a" d="M78.73,139.037A73.915,73.915,0,0,0,95.246,127.92L78.471,102.3a51.409,51.409,0,0,1-17.184,12.237Z"/><path fill="#34363a" d="M48.721,58.663,27.065,74.2a2.72,2.72,0,0,0-.632,3.785l6.007,8.459a2.72,2.72,0,0,0,3.754.67L60.579,70.432Z"/><path fill="#34363a" d="M113.27,117.78l11.344-9.669a3.422,3.422,0,0,1,4.8.36l15.465,17.8a3.422,3.422,0,0,1-.344,4.832L134,140.213Z"/><path fill="#34363a" d="M63.193,48.278l-29.909-36.7a1.594,1.594,0,0,0-2.245-.226l-5.01,4.1a1.593,1.593,0,0,0-.282,2.168l28.9,39.893Z"/><path fill="url(#s1f8_cdAUBdlTbuCSDZEvg)" d="M94.275,86.412l-3.647-4.475c-2.223-.56-3.443-2.156-3.792-4.652L81.41,70.628a5.392,5.392,0,0,1-3.79-4.65l-5.332-6.542A5.813,5.813,0,0,1,68.5,54.784l-5.3-6.506L48.721,58.663l29.455,43.968C85.145,98.258,90.794,93.035,94.275,86.412Z"/><path fill="#34363a" d="M238.425,107.343h27.428a18.215,18.215,0,0,1,18.118,15.675c.036.272.071.548.1.826a18.1,18.1,0,0,0,7.069,12.361c5.064,3.794,11.177,10.861,11.177,22.869v58.075l-25.894,31.745s-28.206,6.809-38-14.42Z"/><polygon fill="#34363a" points="190.841 150.067 179.105 170.451 184.87 201.543 199.305 210.602 212.674 150.067 190.841 150.067"/><path fill="url(#s1f8_cdAUBdlTbuCSDZEvh)" d="M215.088,314.181a2.375,2.375,0,0,1,4.165-1.372l11.343,16.2h62.265s-8.019-18.731-18.159-37.338c0,0-35.607-25.511-62.028-25.511s-40.233,32.225-40.233,32.225c-1.693,8.418-3.4,18.556-4.935,30.624h46.725Z"/><path fill="url(#s1f8_cdAUBdlTbuCSDZEvi)" d="M188.479,163.706c-5.676,10-9.582,26.338,7.922,44.22-5.873,9.561-10.941,11.785-15.443,8.854,0,0-34.041-22.754-4.857-62.412C181.787,155.278,185.772,158.59,188.479,163.706Z"/><path fill="#63533b" d="M176.107,154.373a60.7,60.7,0,0,0,12.373,9.333,42.8,42.8,0,0,1,7.921-10.139l-12.972-8.03A103.651,103.651,0,0,0,176.107,154.373Z"/><path fill="#63533b" d="M182.747,237.164h13.589V207.926a53.365,53.365,0,0,1-7.2-9.02c.587,5.763.393,16.143-8.246,17.874Z"/><path fill="url(#s1f8_cdAUBdlTbuCSDZEvj)" d="M243.717,212.87l-5.292,35.467-32.311-3.463-12.659-20.961.893-18.663s.769-18.68,6.7-35.472l54.085-43.919c4.53,2.8,9.927,7.335,15.966,14.651,11.928,14.45,28.364,38.478,38.516,53.694a29.417,29.417,0,0,1,1.436,30.228c-5.435,10.142-13.554,23.47-23.879,35.193L267.5,239.5s9.95-9.949,14.52-23.628a7.477,7.477,0,0,0-1.593-7.421c-5.58-6.056-14.979-17.875-14.979-17.875Z"/><path fill="#63533b" d="M242.222,198.169l-22.287-20.885s1.311,19.637,8.919,33.187a9.667,9.667,0,0,1,.768,7.8L222.533,239.5H208.177v-2.374a13.211,13.211,0,0,0-13.211-13.211h-1.511l-1.323,27.672L249.9,251.2v-37.24l15.551-23.386-4.293-5.669a4.649,4.649,0,0,0-7.217-.24Z"/><path fill="#63533b" d="M240.161,121.734l-29.29,30.192c-4.275,4.788-7.453,11.171-9.815,17.853l.152.06a4.843,4.843,0,0,0,2.622.271c7.553-1.326,43.945-9.47,51.3-44.245C245.812,120.114,240.161,121.734,240.161,121.734Z"/><path fill="#34363a" d="M222.882,132.642s-11.2,28.405.415,54.529c7.872,17.712,19.407,24.123,26.6,26.788,5.344-3.191,9-7.385,10.1-13.1,0,0-38.979-21.77-17-80.861Z"/><path fill="url(#s1f8_cdAUBdlTbuCSDZEve)" d="M182.158,108.909s-9.137-2.523-13.514,6.057,5.289,12.046,5.289,12.046-9.222,2.743-3.058,14.043c4.269,7.828,15.008,12.647,22,15.061a20.57,20.57,0,0,0,13.115.1c6.875-2.246,17.814-6.917,26.764-15.767l3.742-29.555Z"/><path fill="#63533b" d="M264.543,298.571a16.3,16.3,0,0,0,10.158-6.9c-5.444-9.991-11.5-19.946-17.254-26.948L182.5,263.346s-5,9.833-10.1,35.225h22.761a13.718,13.718,0,0,0,13.718-13.718V280.6h27.989v8.633a9.341,9.341,0,0,0,9.342,9.342Z"/><path fill="url(#s1f8_cdAUBdlTbuCSDZEvk)" d="M235.608,104.4q-.207.115-.417.241s4.466-11.659-5.55-16.614L186.5,106.915l-3.382,2.622s6.835,19.154,31.121,8.539c0,0,9.766-5.989,13.727,1.353,1.741,3.227,3.262,13.4-29.726,14.866a1.386,1.386,0,0,0-.418,2.689c7.061,2.471,19.666,4.811,32.323-3a9.208,9.208,0,0,1,2.524,6.507,49,49,0,0,0,14.383-28.064A7.764,7.764,0,0,0,235.608,104.4Z"/><path fill="url(#s1f8_cdAUBdlTbuCSDZEvd)" d="M257.329,43.255V64.787s.143,17.825,15.829,20.82c6.561,1.252,11.076-.19,14.109-2.291a7.492,7.492,0,0,0,.837-11.595h0a9.939,9.939,0,0,1-3.11-7.222V32.7s0-20.249-18.11-20.249c-16.685,0-19.656,9.7-19.656,9.7Z"/><path fill="#34363a" d="M235.161,23.934s9.023-8.336,16.967-.785c5.9,5.613,6.987,13.717,7.154,17.51a11.093,11.093,0,0,1-1.054,5.436c-1.446,2.908-4.763,6.256-12.18,3.437Z"/><path fill="url(#s1f8_cdAUBdlTbuCSDZEvf)" d="M172.058,69.21V87.749a27.224,27.224,0,0,0,22.635,26.833s23.334,2.729,29.572-26.555l2.287-46.291S179.462,15.4,172.058,69.21Z"/><path fill="#e5837c" d="M226.552,41.736s-47.09-28.114-54.494,25.7c0,0,2.242-4.614,10.307-9.473a3.179,3.179,0,0,1,4.229.92c1.945,2.759,6.234,7.314,14.813,10.7A57.961,57.961,0,0,1,207.8,72.56a20.022,20.022,0,0,1,10.274,20.149c-.016.121-.032.242-.049.364-1.359,9.844-8.17,21.465-23.332,21.5a27.323,27.323,0,0,0,4.58.391h0a27.216,27.216,0,0,0,27.217-27.181Z"/><rect width="52.649" height="23.931" x="189.574" y="247.561" fill="#34363a"/><path fill="url(#s1f8_cdAUBdlTbuCSDZEvl)" d="M190.573,44.262s-1.838,14.143,16.248,22.6c21.907,10.242,19.131,26.307,19.131,26.307s27.847-13.153,20.33-46.507-29.361-40.4-56.138-26.777c0,0-23.35-5.609-29.126,22.549-2.447,11.932,5.044,21.867,11.04,26.777C172.058,69.21,177.434,50.535,190.573,44.262Z"/><path fill="url(#s1f8_cdAUBdlTbuCSDZEvm)" d="M229.728,265.073v17.746a9.106,9.106,0,0,0,9.107,9.106h8.482c8.695-2.508,12.325-9.893,4.218-28.579C243.007,262.871,234.611,262.506,229.728,265.073Z"/><path fill="url(#s1f8_cdAUBdlTbuCSDZEvn)" d="M169.624,264.9v17.924a9.106,9.106,0,0,0,9.107,9.106h6.13c11.523-3.221,11.83-12.476,7.271-24.349Z"/><path fill="url(#s1f8_cdAUBdlTbuCSDZEvo)" d="M83.43,113.46l6.76-6.071a9.984,9.984,0,0,0,5.219-4.688l7.011-6.3,49.67,60.94a5.287,5.287,0,0,1-.606,7.31l-13.551,11.92a8.283,8.283,0,0,1-12.023-1.151L82.86,119.758A4.645,4.645,0,0,1,83.43,113.46Z"/><path fill="url(#s1f8_cdAUBdlTbuCSDZEvp)" d="M81.2,159.221,94.485,148.5s6.421.191,10.256,5.167,1.7,13.179,1.7,13.179l-9.383,9a11.922,11.922,0,0,1-17.538-1.087c-.095-.118-.189-.237-.283-.359A11.11,11.11,0,0,1,81.2,159.221Z"/><polygon fill="#34363a" points="78.176 102.631 84.679 112.338 102.42 96.404 94.275 86.412 78.176 102.631"/><path fill="#34363a" d="M68.5,54.784l-6.426,5.141a1.451,1.451,0,0,0-.227,2.041l1.934,2.417a1.451,1.451,0,0,0,2.041.227l6.469-5.174Z"/><path fill="#34363a" d="M77.62,65.978l-6.414,5.216A1.453,1.453,0,0,0,71,73.237l1.953,2.4a1.453,1.453,0,0,0,2.043.211l6.418-5.221Z"/><path fill="#34363a" d="M86.836,77.285l-7.421,5.752a1.452,1.452,0,0,0-.259,2.037l1.9,2.447a1.451,1.451,0,0,0,2.037.258l7.538-5.842Z"/><path fill="#34363a" d="M125.9,150.841a3.493,3.493,0,0,1-2.656-1.337l-.944-1.2a3.5,3.5,0,1,1,5.506-4.324l.944,1.2a3.5,3.5,0,0,1-2.85,5.66Z"/><path fill="#34363a" d="M95.409,102.7l-5.219,4.688,24.193,30.827a3.5,3.5,0,0,0,5.507-4.323Z"/><circle cx="185.816" cy="81.614" r="3.658" fill="#af5454"/><circle cx="202.456" cy="81.614" r="3.658" fill="#af5454"/><path fill="url(#s1f8_cdAUBdlTbuCSDZEvq)" d="M229.728,246.088v18.985l3.442.688a13.4,13.4,0,0,1,7.268,4.128,40.587,40.587,0,0,0,7.9,6.8,6.959,6.959,0,0,1,3.167,5.875v.616s.358,5.631-4.189,8.747h3.357a9.106,9.106,0,0,0,9.106-9.106V246.088Z"/><path fill="#e5837c" d="M102.059,157.588a17.682,17.682,0,0,1,3.887,9.725s8.492-6.724,1.613-15.618l-6.548-8.467L94.485,148.5Z"/><path fill="#34363a" d="M49.864,129.8l5.258-1.514-2.808-10.646q-2.254.6-4.728,1.066Z"/><path fill="#34363a" d="M43.6,119.35q-2.356.308-4.889.471l-.178,10.243,5.463-.33Z"/><polygon fill="url(#s1f8_cdAUBdlTbuCSDZEvr)" points="169.624 264.895 199.676 270.902 199.676 246.088 169.624 246.088 169.624 264.895"/><path fill="url(#s1f8_cdAUBdlTbuCSDZEvs)" d="M181.159,228.634h6.982a11.535,11.535,0,0,1,11.535,11.535v5.919a15.026,15.026,0,0,1-15.026,15.026h0a15.026,15.026,0,0,1-15.026-15.026v-5.919A11.535,11.535,0,0,1,181.159,228.634Z"/><path fill="url(#s1f8_cdAUBdlTbuCSDZEvt)" d="M247.037,258.816a11.924,11.924,0,0,1-15.072-4.835,14.963,14.963,0,0,1-2.237-7.893v-5.919a11.535,11.535,0,0,1,11.535-11.535h6.022s12.088,2.093,7.8,18.927C253.407,254.138,250.2,257.33,247.037,258.816Z"/><path fill="url(#s1f8_cdAUBdlTbuCSDZEvu)" d="M199.676,282.819V266.156H190.15v14.8s.541,7.328-5.289,10.966h5.708A9.106,9.106,0,0,0,199.676,282.819Z"/><circle cx="184.65" cy="249.934" r="3.658" fill="url(#s1f8_cdAUBdlTbuCSDZEvv)"/><path fill="url(#s1f8_cdAUBdlTbuCSDZEvw)" d="M248.245,228.634h-.96c1.937.812,5.012,2.9,5.012,7.947v17.011a14.511,14.511,0,0,1-1.031,6.022,15.012,15.012,0,0,0,8.514-13.526v-5.919A11.534,11.534,0,0,0,248.245,228.634Z"/><path fill="url(#s1f8_cdAUBdlTbuCSDZEvx)" d="M267.5,239.5l-6.108,6.421a16.293,16.293,0,0,0-11.684,1.01c-5.731,2.71-7.538,10.924-4.6,16.542a26.532,26.532,0,0,0,5.2,6.784,19.183,19.183,0,0,0,25.577.708,100.839,100.839,0,0,0,11.3-11.337S279.9,246.4,267.5,239.5Z"/></svg>