<svg xmlns="http://www.w3.org/2000/svg"  viewBox="0 0 340 340" width="500px" height="500px"><path fill="#ffcac0" d="M82.217,112.3a53.023,53.023,0,0,0,24.621,6.838L90.819,162.326c-12.368,1.035-21.72-7.758-28.724-24.2Z"/><path fill="#ef837c" d="M73.239,133.98a38.13,38.13,0,0,0,8.98-21.684A48.035,48.035,0,0,1,69.049,101.7L40.963,118.514c5.631,37.529,41.679,65.86,41.679,65.86l8.177-22.048a64.809,64.809,0,0,1-17.742-15.489A10.293,10.293,0,0,1,73.239,133.98Z"/><path fill="#f5eef7" d="M243,100.8l-80.33,10.335c-25.56,1.869-55.832,8-55.832,8-11.746,11.3-17.79,26.868-20.9,39.964L146.73,217.16l52.333,2.226,64.843-17.056s9.155-35.508,50.211-54.094C314.117,148.236,278.886,97.47,243,100.8Z"/><path fill="#b1a7c6" d="M143.333,217.016l-3.685-41.89c-25.656-.665-42.717-8.091-53.709-16.024a119.482,119.482,0,0,0-3.3,25.272s6.431,6.073,18.935,13.219a45.66,45.66,0,0,1,17.683,18.4Z"/><path fill="#b1a7c6" d="M263.906,202.33a68.83,68.83,0,0,1,6.7-15.2c-25.685-16.586-28.817-45.916-28.817-45.916l-5.529,45.071-3.219,24.16Z"/><path fill="#b1a7c6" d="M230.879,123.649l-84.089-2.975s-7.048,41.085,17.367,58.847a3.277,3.277,0,0,0,3.866,0,18.6,18.6,0,0,0,4.782-5.051,45.424,45.424,0,0,0,19.523,17.975,9.608,9.608,0,0,0,7.055.483C210.365,189.406,241.877,174.7,230.879,123.649Z"/><path fill="#d07a76" d="M136.546,114.551c-2.042,5.764-9.163,27.3-13.657,59.057-.86,6.075,17.314,130.617,17.314,130.617l123.123-5.654c1.877-47.283,1.159-90.936-11.5-117.9a49.393,49.393,0,0,1-5.433-19.406c-1.29-20.21-1.294-36.47-.939-48-16.122,1.316-20.207,28.453-21.37,61.86.213,2.884.454,5.749.727,8.575a20.258,20.258,0,0,1-20.177,22.193H179.179a28.075,28.075,0,0,1-28.06-26.92c-.217-5.286-.381-11.1-.432-17.215C150.529,142.669,136.546,114.551,136.546,114.551Z"/><path fill="#7f4242" d="M255.072,186.255a59.525,59.525,0,0,1-3.245-5.58h0c11.8,41.777-12.085,62.3-12.085,62.3l-100.2,6.461c9.928-71.8-16.571-75.814-16.652-75.826-.86,6.076-1.625,12.521-2.239,19.307a384.842,384.842,0,0,0-1.452,44.246l27.529,90.417H308.32V225.322S272.178,212.348,255.072,186.255Z"/><path fill="#7f4242" d="M150.688,161.755l0,0c-.159-19.091.781-41.061,4.64-58.773,0,0-14.274,1.518-18.22,10.017,0,0-.2.532-.564,1.548A105.456,105.456,0,0,0,150.688,161.755Z"/><path fill="#7f4242" d="M224.086,175.126h0c4.871-6.872,8.545-16.161,9.031-28.66v0c.89-20.279,7.27-29.249,12.337-33.2.119-3.887.279-7.241.445-10.025a9.3,9.3,0,0,0-9.288-9.859H223.626S221.211,136.055,224.086,175.126Z"/><path fill="#ffcac0" d="M155.55,85.291s-5.691-52.662,40.795-54.736c0,0,34.55-3.172,34.966,39.287l-27.157,53.441H160.6Z"/><path fill="#ef837c" d="M170.967,101.829a20.525,20.525,0,0,1,1.119-5.428.972.972,0,0,0-1.5-1.1c-1.833,1.335-3.938,3.985-4.545,9.209Z"/><path fill="#ffcac0" d="M226.414,67.042V93.6s10.8,1.554,15.028-6.666A13.4,13.4,0,0,0,239.1,71.152C236.647,68.8,232.712,66.862,226.414,67.042Z"/><path fill="#ef837c" d="M226.414,88.783c9.051-.3,11-6.4,9.287-11.283-1.159-3.306-6.885-4.128-9.287-4.33Z"/><path fill="#342a35" d="M226.414,67.042s-12.14-1.512-12.14,16.287c0,0-.706,12.206-11.53,15.616a13.884,13.884,0,0,0-8.63,7.466c-1.465,3.315-4.787,6.631-12.215,6.631,0,0-9.811.84-10.932-11.213,0,0-13.787-1.362-15.417-16.538,0,0-18.36,35.6-2.1,68.115,0,0,3.977,8.408,9.373,13.869a3.459,3.459,0,0,0,4.287.532,16.334,16.334,0,0,0,6.1-7.254s2.9,10.983,17.538,19.509a7.2,7.2,0,0,0,7.247-.018c10.01-5.828,37.049-24.684,32.885-56.4C225.953,86.134,226.414,67.042,226.414,67.042Z"/><path fill="#ffcac0" d="M329.553,197.049a75.962,75.962,0,0,0-15.436-48.813s-31.64,8.728-44.859,37.99C287.588,204.9,307.512,209.983,329.553,197.049Z"/><path fill="#ef837c" d="M271.674,223.968l47.436,12.206a90.666,90.666,0,0,0,10.439-39.125c-28.073,3.738-47.235-1.89-60.287-10.821a62.535,62.535,0,0,0-4.059,12.218S276.39,208.71,271.674,223.968Z"/><path fill="#ffb583" d="M243,264.192s3.152-40.5,35.609-47.16c14.229-2.918,24.619.721,31.8,5.729,0,0,12.232,18.866-22.186,37.729S243,264.192,243,264.192Z"/><path fill="#db734e" d="M310.408,222.765c-.056,8.336-4.2,19.828-23.572,27.422H265.2l0,4.295S263.26,272.892,243,276.273v6.782c52.751,8.03,71.875-22.411,77.994-37.372a14.9,14.9,0,0,0-2.168-15.071A41.743,41.743,0,0,0,310.408,222.765Z"/><path fill="#dce2f9" d="M196.585,265.128c-6.171,14.54-21.11,15.715-21.11,15.715h0a32.746,32.746,0,0,0-28.745,32.5v14.234H59.848c2.465-28.8-12.135-38.986-22.142-42.579a13.539,13.539,0,0,1-8.859-12.782v-7.094C79.3,262.848,136.187,263.258,196.585,265.128Z"/><path fill="#818db7" d="M28.847,254.482v10.641H196.572a33.777,33.777,0,0,0,2.491-10.641C143.232,250.367,82.615,250.161,28.847,254.482Z"/><polygon fill="#f5eef7" points="136.098 237.849 89.421 237.849 73.894 254.482 134.357 254.482 136.098 237.849"/><path fill="#c7c4d6" d="M134.357,254.482h27.516l4.645-16.633H136.1A40.826,40.826,0,0,0,134.357,254.482Z"/><path fill="#342a35" d="M180.192,234.1h0a14.9,14.9,0,0,0-11.35-5.248H157.228a7.742,7.742,0,0,0-7.742,7.742V246.74a7.742,7.742,0,0,0,7.742,7.742H330V239.346H191.542A14.9,14.9,0,0,1,180.192,234.1Z"/><path fill="#ffb583" d="M40.952,134.378C53.9,131.029,71,123.4,76.473,106.174a26.325,26.325,0,0,0,1.152-7.351c.183-7.8,1.15-29.721,6.244-44.274H63.049c-30.335,14.614-36.681,50.059-33.125,68.812C31.58,132.1,40.915,134.388,40.952,134.378Z"/><rect width="37.846" height="69.757" x="92.402" y="12.422" fill="#dce2f9" rx="9.411"/><path fill="#7f4242" d="M17.155,37.867H59.979a0,0,0,0,1,0,0v17.2a0,0,0,0,1,0,0H17.155a6.118,6.118,0,0,1-6.118-6.118v-4.96A6.118,6.118,0,0,1,17.155,37.867Z"/><path fill="#ef837c" d="M174.654,85.68a3.462,3.462,0,0,1-.912-.122,23.391,23.391,0,0,0-3.146-.587,3.5,3.5,0,0,1,.722-6.963,30.405,30.405,0,0,1,4.244.791,3.5,3.5,0,0,1-.908,6.881Z"/><path fill="#ef837c" d="M191.858,85.68a3.5,3.5,0,0,1-.908-6.881,43.8,43.8,0,0,1,4.9-.92,3.5,3.5,0,0,1,.887,6.943,37.316,37.316,0,0,0-3.971.736A3.467,3.467,0,0,1,191.858,85.68Z"/><path fill="#fe5d77" d="M10,237.849V248.6a5.884,5.884,0,0,0,5.884,5.884h58.01a82.159,82.159,0,0,0,15.527-16.633Z"/><path fill="#818db7" d="M131.815,285H37.706c10.007,3.593,24.607,13.782,22.142,42.579H78.28C77.185,299.765,92.4,300.343,92.4,300.343h27.451a15.073,15.073,0,0,0,12.222-6.251l2.571-3.562A3.49,3.49,0,0,0,131.815,285Z"/><path fill="#db734e" d="M45.472,45.342s-23.03,30.4-21.527,76.678a13.292,13.292,0,0,0,16.569,12.47c.145-.036.292-.076.437-.114-2.506-2.031-4.342-5.184-5.057-9.872-2.426-15.906,1.489-32.461,4.627-42.331a12.909,12.909,0,0,1,12.307-9H65.749L79.88,53.592Z"/><path fill="#db734e" d="M87.462,62.123l-2.1,11.685a10.14,10.14,0,0,1-9.982,8.351H63.44A8.388,8.388,0,0,1,55.29,71.8a30.376,30.376,0,0,1,5.1-10.759Z"/><path fill="#ffb583" d="M44.812,36.142a45.053,45.053,0,0,0-5.3,14.752A11.533,11.533,0,0,0,50.86,64.429H83.307A9.1,9.1,0,0,0,92.4,55.335V37.82A9.319,9.319,0,0,0,83.083,28.5H58.142A15.368,15.368,0,0,0,44.812,36.142Z"/><path fill="#ffb583" d="M229.186,225.909H248.6a16.6,16.6,0,0,1,16.6,16.6v11.973c0,18.187-16.589,31.87-40.969,21.021-6.249-4.214-11.648-10.561-11.648-19.911V242.509A16.6,16.6,0,0,1,229.186,225.909Z"/><path fill="#db734e" d="M224.239,275.5A54.771,54.771,0,0,0,243,283.055c23.023,0,22.2-26.353,22.2-26.353v-2.188C265.083,255.532,261.478,283.051,224.239,275.5Z"/></svg>