<svg xmlns="http://www.w3.org/2000/svg"  viewBox="0 0 340 340" width="500px" height="500px"><path fill="#2b2b2b" d="M296.833,333.2c18.491.444,37.78-9.424,38.345-32.635.284-2.969,3.871-47.42-29.525-88.172a81.061,81.061,0,0,1-8.736-12.963,14.037,14.037,0,0,0,3.584-9.365V163.1a14.134,14.134,0,0,0-14.294-14.114c1.071-14.774-.908-22.441,4.962-33.792,4.566-8.228,11.283-15.831,16.115-20.761a24.423,24.423,0,0,0,6.686-13.051l1.255-7.369a20.223,20.223,0,0,0-6.149-18.159c-13.8-12.962-20.019-25.64-22.809-33.993A14.951,14.951,0,0,0,269.393,12l-14,2.6c-12.641,5.952-24.943,21.774-31.293,30.132-14.7,21.334,3.058,40.344,20.135,49.483a14.594,14.594,0,0,0,18.852-4.129A24.7,24.7,0,0,0,267.3,74a3.456,3.456,0,0,0-3.406-3.029,21.825,21.825,0,0,1-10.05-2.179c-4.4-2.182-5.661-8.477-2.609-12.287,4.435-5.845,12.569-5.984,12.635-5.985,22.113-.945,27.806,27.446,14.917,41.925a177.317,177.317,0,0,0-13.285,18.3,31.98,31.98,0,0,0-4.926,17.77l.406,20.481c-2.118-.031-7.7.022-9.893,0A12.926,12.926,0,0,0,238.174,161.9v13.805a11.463,11.463,0,0,0,11.45,11.449H254.3c-.093,2.975,0,6.417,1.408,9.015-5.551-1.09-12.821-1.7-19.237.4-2.783-2.826-9.255-12.093-9.655-30.166,14.313-15.39-.044-31.921-14.685-37.737-5.688-2.3-6.54-9.419-11.608-12.492,5.905-7.8,11.911-21.533,2.224-39.45a52.707,52.707,0,0,0-10.488-13.381C186.14,57.631,174.6,46.41,166.066,35.453a50.371,50.371,0,0,1-8.756-17.762c-1.192-6.738-7-11.975-14.1-10.718-40.118,5.705-38.641,36.4-68,59.655C55.539,82.476,50.457,100,59.67,120.213c2.527,5.542,7.61,9.446,14.847,11.5-10.979,11.723-25.243,22.724-34.362,61.311-5.439,3.8-24.19,19.668-19.819,55.651C16.662,254.052,3.2,276.76,4.693,319.153a14.077,14.077,0,0,0,14.13,13.618S291.819,332.622,296.833,333.2ZM254.3,180.245h-4.676a4.544,4.544,0,0,1-4.539-4.538V161.9a6.007,6.007,0,0,1,6-6H254.3ZM297.744,213.5c32.042,34.871,31.76,87.461,30.535,86.649-.442,17.519-13.349,25.375-28.138,26.021,24.78-27.878,7.62-86.25-7.827-108.107ZM261.21,187.156h16.336a3.456,3.456,0,0,0,0-6.911H261.21v-8.716h16.336a3.456,3.456,0,0,0,0-6.911H261.21V155.9h25.177a7.211,7.211,0,0,1,7.2,7.2v26.96a7.211,7.211,0,0,1-7.2,7.2H268.414a7.212,7.212,0,0,1-7.2-7.2Zm-.553,14.687a14.222,14.222,0,0,0,1.383.8c.443,20.639,1.643,76.7,1.312,96.533-12.159,4.1-15.78-11.052-16.535-16.326C240.438,249.743,253.011,217.286,260.657,201.843Zm-44.864-12.29s4.581,8.074,10.669,13.305a26.722,26.722,0,0,0-4.756,6.092c-2.158,3.98,3.7,7.322,6.019,3.394a24.048,24.048,0,0,1,7.141-7.464c3.274-2.066,6.795,2.239,4.241,5.148-9.067,10.326-18.245,28.313-17.847,58.69a3.456,3.456,0,0,0,6.911-.091c-.261-19.879,6.749-36.342,12.848-46.848a1.933,1.933,0,0,1,3.508,1.575c-10.3,30.84-13.342,63.324-.753,99.351-25.969-14.545-39.107-54.212-37.108-82.42,1.585-13.285-5.492-19.794-5.795-20.064-3.391-2.923-7.86,1.987-4.643,5.116.192.183,4.714,4.586,3.576,14.13-2.165,18.164,2.532,38.27,2.9,39.809,7.943,38.027-3.8,45.6-5.754,46.585H177.259c6.955-11.608,4.367-31.323,3.974-34.006a3.459,3.459,0,0,0-4.14-2.877,3.572,3.572,0,0,0-2.675,4.038c1.078,7.591,1.906,27.423-6.353,32.845H131.773c-1.5-2.723-1.775-7-1.735-8.487.057-4.53-6.667-4.749-6.906-.21a28.733,28.733,0,0,0,1.193,8.7h-22.66c-3.735-4.028-3.993-12.65-3.749-15.831.278-4.531-6.467-5.064-6.89-.543-.1,1.209-.615,9.525,2.508,16.374H80.017c-16.535-10.779-14.107-25.544-9.084-36.111,3.993-7.763,3.513-16.886,3.37-25.562,5.7-5.154,11.663-10.014,17.16-14.259-.216,4.905-.391,9.819-.447,13.8.017,4.534,6.755,4.664,6.907.044l0,.054,3.977-21.674c1.273-.915,2.467-1.761,3.569-2.534,2.473,4.031,8.177,11.5,19.26,17.722a34.214,34.214,0,0,1,10.613,9.558,10.794,10.794,0,0,0,17.691-.361c3.555-5.459,5.563-13.261,1.706-23.849,0,0,5.713-5.364-.241-15.114-2.345-3.445-5.045-6.931-6.042-10.765,6.473-4.628,13.206-8.96,19.871-12.942-.694,7.222-1.3,16.373-1.307,26.375a3.588,3.588,0,0,0,3.273,3.642,3.456,3.456,0,0,0,3.638-3.451s3.119-24.187,11.045-35.932h0c5.905-3.135,11.5-5.921,16.524-8.32C203.964,185.086,212.215,182.114,215.793,189.553ZM133.329,97.708c10.658-.192,20.639,5.569,27.414,15.8,15.2,22.991-2.2,49.239-2.332,49.438-.53.744-13.02,18.468-17.3,39.852a32.653,32.653,0,0,0,6.918,27.465,1.936,1.936,0,0,1,.19,2.189c-.669,2.072-5.605.389-5.9.2-20.062-19.555-11.84-42.788-1.113-62.958,12.494-23.492.978-45.063.482-45.97-2.244-3.915-8.156-.733-6.066,3.311.421.779,10.185,19.291-.517,39.414-11.261,21.174-21.123,48.392,2.527,71.288,4.072,5.068,6.48,10.149,7.147,15.1a1.456,1.456,0,0,1-2.623,1.061c-2.346-3.379-5.491-5.663-9.473-8.554a105.707,105.707,0,0,1-13.2-10.928c-16.553-16.356-4.466-40.293-3.943-41.321,10.578-16.14-5.011-42.82,6.781-53.594,3.685-2.555-.015-8.173-3.829-5.752-16.563,12.871.208,39.448-8.822,55.67-1.287,1.233-4.839,3.945-6.583,2.192a2.279,2.279,0,0,1-.473-2.42c3.283-8.788.177-18.5.043-18.913-7.694-21.247-5.457-33.742,2.529-53.583C112.606,98.252,132.414,97.722,133.329,97.708ZM113.3,68.372c3.457-5.365,11.475-15.555,22.151-14.8,13.146.935,14.467,13.435,22.066,19.85-.191,9.439-.16,17.336-1.386,25.071-12-8.5-24.836-11.107-41.943-2.209C113.781,88.888,113.49,79.7,113.3,68.372Zm37.12,171.172.058-.031-.01.026Zm50.746-101.567c6.309,4.8,16.469,15.475,7.855,30.1h0c-11.67,5.108-28.319,12.5-47.849,21.479a101.466,101.466,0,0,1,11.967-22.305c14.321-20.9,5.143-43.3,2.105-49.488q6.93.992,13.69,1.639l-.047.01s6.545,1.71,7.824,10.916A11.591,11.591,0,0,0,201.161,137.977ZM64.268,91c2.393-5.981,7.063-12.376,15.275-18.993C92.92,61.228,102.6,47.238,108.366,37.4a48.378,48.378,0,0,1,35.671-23.565c4.054-.749,5.889,2.175,6.609,5.688,4.248,19.011,26.378,38.561,36.9,48.874,8.5,7.711,12.912,17.2,13.22,26.127-16.234.913-22.307-9.394-24.235-12.97h0c-2.751-5.943-8.814-11.865-12.426-17.666-6.855-11.6-14.384-24.858-29.563-24.666-14.76-.36-22.55,11.963-29.934,22.884A135.505,135.505,0,0,1,89.022,81.493C85.693,84.951,77.308,93.358,64.268,91ZM31.289,246.47c5.675-6.09,15.954-16.06,27.507-22.237,3.966-2.207.785-8.169-3.259-6.094a105.035,105.035,0,0,0-20.408,14.8,52.806,52.806,0,0,1,7.761-33.232c7.241-5.768,16.077-9.179,24.742-12.743,4.326-1.374,2.394-7.852-1.985-6.619a71.468,71.468,0,0,0-9.927,4.027c9.183-38.518,34.215-55.838,38.953-59.028-11.221,34.114,6.625,43.729,1.472,61.436,0,0-7.283,10.972,2.975,20.233a48.285,48.285,0,0,0-.932,14.188c-38.936,24.913-60.359,50.15-71.246,78.31A84.479,84.479,0,0,1,31.289,246.47Z"/><path fill="#2b2b2b" d="M130.049,75.117c-2.35-1.479-6.305-2.822-7.576.78a3.455,3.455,0,0,0,2.2,4.363c1.393.376,2.255,1.312,3.622,1.292A3.471,3.471,0,0,0,130.049,75.117Z"/><path fill="#2b2b2b" d="M142.6,81.552c1.37.019,2.227-.915,3.623-1.292a3.455,3.455,0,0,0,2.2-4.363c-1.272-3.6-5.227-2.259-7.577-.78A3.471,3.471,0,0,0,142.6,81.552Z"/><path fill="#2b2b2b" d="M94.405,274.8c-4.618.079-4.617,6.949,0,7.027C99.024,281.748,99.023,274.878,94.405,274.8Z"/></svg>