<svg xmlns="http://www.w3.org/2000/svg"  viewBox="0 0 340 340" width="500px" height="500px"><path fill="#dce2f9" d="M180.454,184.894l-15.31-153.9a18.346,18.346,0,0,1,2.118-10.542L173.51,8.9l23.918,174.426Z"/><path fill="#7784b2" d="M180.454,184.894l1.447,14.544,20.921-2.081L186.066,28.91a18.347,18.347,0,0,0-4.154-9.918l-8.4-10.1,16.427,164.517a6.365,6.365,0,0,1-2.284,5.542Z"/><path fill="#7784b2" d="M251.473,128.874s-8.071-2.251-15.079,1.287c0,0-6.933,3.87-10.362,13.847a14.563,14.563,0,0,0,.124,9.916,23.952,23.952,0,0,0,15.016,14.3S254.34,150.532,251.473,128.874Z"/><rect width="44.553" height="21.468" x="175.152" y="204.398" fill="#342a35"/><path fill="#ffb655" d="M166.792,198.094v13.584l21.016-2.021c10.082-5.846,18.47-12.1,22.592-19.382l-39.165,3.02A4.814,4.814,0,0,0,166.792,198.094Z"/><path fill="#f27b31" d="M187.252,203.41l.556,6.247,30.9-2.971V189.635l-8.3.64L192.373,195.8A7.283,7.283,0,0,0,187.252,203.41Z"/><path fill="#7f4242" d="M39.86,111.293a2.014,2.014,0,0,0-3.152.991,73.443,73.443,0,0,0-3.267,16.283c-.553,9.123,1.935,21.286-4.009,28.75l30.409-17.969S53.853,122.145,39.86,111.293Z"/><path fill="#d07a76" d="M82.049,136.125c-.555-13.276-6.722-23.617-9.833-28.029a2.017,2.017,0,0,0-3.385.137c-6.6,11.157-2.227,19.312-14.988,26.951,0,0-22.782,38.37-34.01,80.929,0,0-5.962,41.572-5.677,42.633a11.617,11.617,0,0,0,12.162,8.613c11.772-1,28.2-6.566,31.014-29.407a14.369,14.369,0,0,1,6.018-10.125c5.124-3.544,12.29-9.5,14.894-16.511L76.6,231.443c-.751,21.762,1.362,55.037,19.538,67.718l32.623,31.072h100.12V260.578c-49.759-12.146-91.933-32.843-102.481-89.188C107.246,159.443,90.57,147.073,82.049,136.125Z"/><path fill="#7f4242" d="M169.581,237.215l-.007.034,0-.028C148.1,223.269,132.3,202.906,126.4,171.39c-12.9-8.047-24.667-16.285-33.586-24.152L78.9,150.151s-5.535,16.395,15.468,37.692c9.716,9.853,15.475,26.271,18.859,41.072a71.738,71.738,0,0,0,20.887,34.414,29.809,29.809,0,0,1,2.2,41.65,151.526,151.526,0,0,1-16.889,16.356l9.343,8.9H214.5l14.378-69.655C206.955,255.226,186.505,248.207,169.581,237.215Z"/><path fill="#dce2f9" d="M82.055,136.125h-.006c-5.234,12.913-3.659,21.192,2.546,29.355,5.671,5.416,10.2,9.652,14.071,13.626a5.384,5.384,0,0,1,4.1,4.417,82.7,82.7,0,0,1,11.3,16.484c1.391,1.094,2.268,2.928,2.713,5.383,2.217,4.629,4.555,10.057,7.2,16.646q.791,1.968,1.665,3.763a19.19,19.19,0,0,1,2.937,5.26c8.974,14.039,21.919,18.421,31,20l7.214-34.87a47.963,47.963,0,0,1-11.964-9.132c-2.223-.763-3.509-2.538-4.2-4.949A44.81,44.81,0,0,1,145,192.069q-1.823-4.566-3.729-8.663c-1.832-1.277-2.858-3.942-3.578-7.131a86.521,86.521,0,0,0-15.5-21.025c-2.269-.619-3.987-2.308-5.324-4.737a80.77,80.77,0,0,0-6.984-5.046C101.409,139.992,92.143,135.863,82.055,136.125Z"/><path fill="#342a35" d="M228.882,224.656s-40.041,2.526-59.333-5.483V237.4s-11.49,41.254,23.392,50.283c8.324,2.154,21.187,2.735,35.941,2.373Z"/><path fill="#dce2f9" d="M114.627,293.193c19.745-10.418,42.92-33.518,48.573-83.066a5.393,5.393,0,0,1,8.268-3.905l2.427,1.552a9.512,9.512,0,0,1,4.379,8.519c-.255,4.82-.868,12.494-2.341,22,0,0-11.867,39.282-32.478,56.116S114.627,293.193,114.627,293.193Z"/><path fill="#7784b2" d="M208.011,308.08a98.3,98.3,0,0,1,6.493,22.153h48.681L239.1,292.258Z"/><path fill="#7784b2" d="M253.916,315.622,239.1,292.258H199.9a107.336,107.336,0,0,1,8.105,15.823C215.368,310.928,230.7,315.467,253.916,315.622Z"/><path fill="#dce2f9" d="M194.326,254.7h0a9.207,9.207,0,0,1,7.092,3.3,44.492,44.492,0,0,0,3.077,3.334c7.489,13.139,11.465,26.5,11.433,40.132-7.3-.345-15.663-1.574-22.623-4.814a13.031,13.031,0,0,1-6.918-8.163c-1.828-6.2-3.971-17.011-.905-27.317A9.188,9.188,0,0,1,194.326,254.7Z"/><rect width="47.487" height="39.033" x="257.857" y="159.268" fill="#7784b2"/><path fill="#7784b2" d="M242.223,116.476s3.433,18.934-.729,27.776l36.1-24.239-6.762-19.766Z"/><path fill="#dce2f9" d="M286.67,119.077H276.453a20.931,20.931,0,0,0-10.222,2.653c-6.176,3.453-16.813,10.18-25.376,19.622a30.785,30.785,0,0,0-7.693,16.441,61.978,61.978,0,0,0,2.259,27.093l8.711,2.957s31.987-5.854,41.5-30.12S286.67,119.077,286.67,119.077Z"/><path fill="#7784b2" d="M265.472,149.795c2.743,8.935,4.176,26.668-21.34,38.048l12.448,4.226s23.1-11.454,32.614-35.72c4-10.2,4.184-18.4,3.062-24.491l-22.55,2.012-2.6,4.136A14.312,14.312,0,0,0,265.472,149.795Z"/><path fill="#dce2f9" d="M291.572,169.916a77.634,77.634,0,0,1,2.307,28.385l20.326-.771c4.091-13.747,6.649-27.021-4.485-36.057Z"/><path fill="#7784b2" d="M324.712,197.131s2.916-23.343-6.473-44.724l-30.29,7.506a56.622,56.622,0,0,1,3.621,10l12.188-1.8a9.353,9.353,0,0,1,10.671,8.177,80.655,80.655,0,0,1-.224,21.232Z"/><path fill="#fe5d77" d="M259.815,29.734a98.2,98.2,0,0,1-6.278,18.824l19.995-4.73s1.029-3.061,5.187-5.575a11.073,11.073,0,0,1,16.039,5.494,17.113,17.113,0,0,1,.759,11.436s11.039-.41,17.287-15.306-8.492-28.17-8.492-28.17A31.459,31.459,0,0,0,291.264,8.9a49.484,49.484,0,0,0-14.617,2.416A25.05,25.05,0,0,0,259.815,29.734Z"/><path fill="#dce2f9" d="M236.737,121.038s24.666-8.557,40.072-22.8a4.962,4.962,0,0,0,1.293-5.251,94.692,94.692,0,0,1-1.6-53.1l-45.153,5.03a11.736,11.736,0,0,0-10.285,8.721,93.678,93.678,0,0,0-3.038,21.879Z"/><path fill="#342a35" d="M218.022,75.507l3.722,42.013a2.56,2.56,0,0,0,2.309,2.322l12.684,1.2-1.4-34.358,7.187-2.269a8.7,8.7,0,0,0,6.082-8.3V68.8Z"/><path fill="#7784b2" d="M122.181,155.262q-2.551-2.5-5.322-4.735c-1.077,12.944-12.668,24-18.194,28.58,1.452,1.493,2.813,2.95,4.1,4.417C108.482,178.779,119.249,168.358,122.181,155.262Z"/><path fill="#7784b2" d="M116.773,205.392c6.729-3.217,18.556-10.249,24.491-21.983q-1.745-3.744-3.577-7.131c-3.922,12.765-16.855,20.476-23.626,23.73Q115.4,202.515,116.773,205.392Z"/><path fill="#7784b2" d="M154.829,207.061a49.042,49.042,0,0,1-4.2-4.952c-5.792,12.182-18.509,20.224-24.987,23.689a51.88,51.88,0,0,0,2.939,5.26C135.356,227.454,147.932,219.478,154.829,207.061Z"/><path fill="#7f4242" d="M76.6,231.443c4.382-3.617,8.915-8.784,10.047-15.254,1.324-7.562-1.221-14.175-3.684-18.5a1.518,1.518,0,0,0-2.84.829,28.712,28.712,0,0,1-1.881,12.793A200.167,200.167,0,0,0,76.6,231.443Z"/><path fill="#7f4242" d="M44.467,208.106,18.941,219.619a166.513,166.513,0,0,0-5.186,35.79,11.828,11.828,0,0,0,.414,3.333c31.164,3.019,33.605-20.6,33.605-20.6l3.706-22.981a5.772,5.772,0,0,0-4.586-6.583Z"/><path fill="#7f4242" d="M44.47,191.806a3.387,3.387,0,0,1-.433-4.931l2.15-2.563a3.5,3.5,0,1,1,5.363,4.5L49.4,191.374A3.958,3.958,0,0,1,44.47,191.806Z"/><path fill="#342a35" d="M77.415,318.011a3.49,3.49,0,0,1-.405-.024c-21.272-2.453-35.44-18.319-40.972-45.881a147.926,147.926,0,0,1-2-40,3.5,3.5,0,0,1,6.961.734c-.077.731-7.154,73.121,36.819,78.192a3.5,3.5,0,0,1-.4,6.978Z"/><circle cx="26.211" cy="233.842" r="3.559" fill="#0a0000"/><circle cx="99.521" cy="161.281" r="3.559" fill="#7784b2"/><circle cx="117.881" cy="183.323" r="3.559" fill="#7784b2"/><circle cx="132.46" cy="208.924" r="3.559" fill="#7784b2"/><circle cx="147.014" cy="232.474" r="3.559" fill="#7784b2"/><path fill="#dce2f9" d="M319.707,142.685a59.729,59.729,0,0,1,2.555,6.177,6.944,6.944,0,0,1-5.3,9.108l-27.888,4.688a8.654,8.654,0,0,1-8.463-3.487l-3.786-5.273a44.88,44.88,0,0,1,12.961-15.777C301.519,136.6,311.6,137.939,319.707,142.685Z"/><path fill="#7784b2" d="M292.434,143.184c7.612-2.312,17.354-3.622,27.268-.5a57.909,57.909,0,0,0-9.362-14.107,49.994,49.994,0,0,0-20.555,9.54A2.9,2.9,0,0,0,292.434,143.184Z"/><path fill="#dce2f9" d="M269.706,133.87A46.7,46.7,0,0,1,292.3,112.435a16.93,16.93,0,0,1,19.8,4.159,70.153,70.153,0,0,1,6.043,8.064,5.569,5.569,0,0,1-4.388,8.629c-8.868.347-22.668,4.127-36.925,20.611l-5.9-7.646A11.661,11.661,0,0,1,269.706,133.87Z"/><path fill="#7f4242" d="M68.6,178.948a26.068,26.068,0,0,1-.379,3.072,2.407,2.407,0,0,1-4.254,1.038c-2.426-3.011-6.586-6.84-12.5-7.706-8.293-1.215-16.782,1.986-22.876,13.535l4.893-19.812,16.577-4.235Z"/><path fill="#bc446b" d="M305.938,93.714c13.453,0,19.477-7.8,22.086-13.523a2.756,2.756,0,0,0-3.27-3.812,29.1,29.1,0,0,1-6.577,1.146c-8.52.479-11.46-9.525-5.421-17.9A38.064,38.064,0,0,0,318.211,26.9c-1.937-6.941-7.322-12.192-13.9-15.183,4.752,8.361,8.7,29.805-8.792,43.469-1.139,4.29-3.5,8.321-4.772,13.62C286.458,86.7,298.341,93.714,305.938,93.714Z"/><path fill="#7784b2" d="M129.932,331.1a17.716,17.716,0,0,0,14.422-7.872c19.79-29.6,28.089-62.41,31.574-84.929a6.6,6.6,0,0,0-7.834,5c-12.336,55.025-43.522,52.292-53.468,49.9a74.615,74.615,0,0,1-17.315,6.584,9.469,9.469,0,0,0-5.689,14.612C102.036,328.971,119.255,331.26,129.932,331.1Z"/><path fill="#dce2f9" d="M29.907,187.055a19.28,19.28,0,0,1,29.509-13.923l3.5-6.106-8.895-16.5a19.558,19.558,0,0,1-1.009-11.118,19.282,19.282,0,0,1,.835-4.225,64.364,64.364,0,0,0-36.289,35.631,24.456,24.456,0,0,0-1.773,10.215l.744,17.834a29.91,29.91,0,0,1-1.4,10.415,246.945,246.945,0,0,0-7.058,26.946s7.709,15.074,24.585.8,7.769-30.4,7.769-30.4A19.261,19.261,0,0,1,29.907,187.055Z"/><path fill="#818db7" d="M42.19,233.842l3.592-17.153a36.77,36.77,0,0,1,1.121-4.141,3.423,3.423,0,0,0-2.436-4.442,19.15,19.15,0,0,1-4.036-1.5c.6,1.929.71,4.66-.295,8.527-2.979,11.463-6.954,26.611-32.067,21.093-1.524,7.6-2.014,12.138-2.014,12.138A45.106,45.106,0,0,0,29,247.874,18.415,18.415,0,0,0,42.19,233.842Z"/><path fill="#818db7" d="M65.555,179.436a1.656,1.656,0,0,0,3.049-.488,20.706,20.706,0,0,0-.265-8.959l-1.479-5.847a11.516,11.516,0,0,0-5.09-6.882,18.153,18.153,0,0,1-8.761-17.85h0s-2.951,9.955,4.192,20.544a16.97,16.97,0,0,1,2.211,13.186A19.382,19.382,0,0,1,65.555,179.436Z"/><path fill="#7784b2" d="M220.676,270.839a36.476,36.476,0,0,1-15.755-9.1,103.066,103.066,0,0,0,11.008,39.726,104.293,104.293,0,0,0,17.618-.657Z"/><path fill="#dce2f9" d="M235.083,176.5c15.316,7.734,46.126,19.475,87.353,16.064a10.561,10.561,0,0,1,11.447,10.252c.724,29.57-3.914,107.476-70.7,127.422,0,0-77.858-30.136-43-147.356A10.562,10.562,0,0,1,235.083,176.5Z"/><path fill="#7784b2" d="M321.019,247.657a104.717,104.717,0,0,1-36.149,2.794c2.655-20.486,4.329-38.882,5.1-48.152l.119-1.435-1.429-.178c-2.328-.288-4.643-.621-6.883-.988l-1.605-.264-.134,1.62c-.767,9.291-2.437,27.723-5.091,48.206A186.785,186.785,0,0,1,222.3,232.3l-1.866-.948-.3,2.072c-.246,1.711-.417,3.48-.509,5.257a5.072,5.072,0,0,0,2.914,4.881,193.443,193.443,0,0,0,51.046,15.723c-3.675,25.951-7.9,46.705-12.552,61.708l-.57,1.833,1.917.109q.69.039,1.386.039a26.438,26.438,0,0,0,6.622-.862l.825-.213.239-.818c4.469-15.245,8.526-35.634,12.06-60.615,3.928.336,7.762.506,11.417.506a113.366,113.366,0,0,0,21.654-2.032,6.478,6.478,0,0,0,5.036-4.65c.446-1.608.865-3.233,1.248-4.832l.587-2.457Z"/></svg>