<svg xmlns="http://www.w3.org/2000/svg"  viewBox="0 0 340 340" width="500px" height="500px"><path fill="#5b5b81" d="M152.628,233.732s-39.7,43.735-42.819,97.03h40.242s8.682-36.53,26.944-50.3h20.529a117.455,117.455,0,0,0,16,50.3H256.63A123.827,123.827,0,0,1,242.8,298.789a81.3,81.3,0,0,1-1.809-35.39,184.405,184.405,0,0,0,2.714-32.409Z"/><path fill="#333353" d="M150.292,236.465c5.391,5.709,39.737,38.337,93.136,5.985.227-3.729.34-7.586.279-11.46l-91.079,2.742S151.766,234.683,150.292,236.465Z"/><path fill="#333353" d="M242.8,298.789a81.3,81.3,0,0,1-1.809-35.39,184.405,184.405,0,0,0,2.714-32.409l-13.882.418c-.6,4.591-1.415,9.322-2.522,14.179,0,0-15.285,51.5,13.3,85.175H256.63A123.827,123.827,0,0,1,242.8,298.789Z"/><path fill="#ffcacf" d="M133.21,148.988s-7.48,10.059-10.317,30.693c0,0-7.882,46.107-54.165,43.59l-2.116,23.593s73.781,11.594,86.393-76.1C153.005,170.762,145.075,156.726,133.21,148.988Z"/><path fill="#e5838b" d="M85.85,221.762a56.939,56.939,0,0,1-17.122,1.509l-2.116,23.593a79.793,79.793,0,0,0,31.434-2.738Z"/><path fill="#d2e8ff" d="M86.745,9.238s-31.431,8.039-34.5,54.623-1.21,135.08-1.21,135.08l18.517,1.219S61.361,74.569,86.745,9.238Z"/><path fill="#96aef4" d="M51.037,198.941l18.517,1.219s-.387-5.937-.732-15.892l-18.168-11.41C50.817,188.48,51.037,198.941,51.037,198.941Z"/><path fill="#e9efff" d="M133.21,148.988s20.661-33.015,73.885-31.618c0,0,36.884,51.1,36.612,113.62,0,0-42.341,33.812-91.079,2.742,0,0,15.243-22.1,4.354-48.738C147.145,160.93,133.21,148.988,133.21,148.988Z"/><path fill="#8294be" d="M226.737,174.519a155.113,155.113,0,0,1,1.77,65.194,75.143,75.143,0,0,0,15.2-8.723,147.205,147.205,0,0,0-.877-27.222l-6.2-28.574A195.069,195.069,0,0,0,215.4,129.261l-14.954-5.877S196.2,150.2,218.76,163.9A17.479,17.479,0,0,1,226.737,174.519Z"/><path fill="#ffcacf" d="M140.466,125.332l15.421,19.9a7.887,7.887,0,0,0,12.137.462c.23-.264.46-.535.687-.815a22.057,22.057,0,0,0,2.021-24.441L162.9,106.091S146.843,111.258,140.466,125.332Z"/><path fill="#333353" d="M52.074,204.113H67.783a0,0,0,0,1,0,0v54.093a7.466,7.466,0,0,1-7.466,7.466h-.778a7.466,7.466,0,0,1-7.466-7.466V204.113a0,0,0,0,1,0,0Z"/><path fill="#ffcacf" d="M52.4,211.394h14.33a8.622,8.622,0,0,1,8.622,8.621v20.594a9.028,9.028,0,0,1-9.027,9.027H59.659a13.166,13.166,0,0,1-13.144-11.95c-.711-8.057-.707-15.441.414-21.773A5.53,5.53,0,0,1,52.4,211.394Z"/><path fill="#ffb664" d="M96.005,185.3a9.471,9.471,0,0,0-5.367.085c-7.12,2.281-7.594,11.45-7.594,11.45H61.516v-.009H35.307S19.72,196.11,19.72,211.394c0,8.089,4.263,10.7,7.308,11.535a9.471,9.471,0,0,0,5.367-.085c7.119-2.281,7.593-11.45,7.593-11.45H61.516v.009h26.21s15.587.713,15.587-14.571C103.313,188.743,99.05,186.131,96.005,185.3Z"/><path fill="#7177db" d="M227.3,151.085a198.017,198.017,0,0,0-10.958-20.309c-17.711,37.856-52.318,40.856-66.061,40.444a117.821,117.821,0,0,1,6.7,13.774c.441,1.08.825,2.15,1.183,3.214C197.318,190.658,219.106,164.011,227.3,151.085Z"/><path fill="#7177db" d="M242.824,203.769c-1.791-9.579-4.189-18.952-6.193-28.573-23.765,37.886-62.385,32.553-75.738,29.324a54.624,54.624,0,0,1-1.9,14.439C199.694,236.231,232.054,213.118,242.824,203.769Z"/><path fill="#e5838b" d="M140.466,125.332l5.931,7.654a67.7,67.7,0,0,0,23.041-14.919L162.9,106.091S146.843,111.258,140.466,125.332Z"/><path fill="#ffb664" d="M178.09,72.31s.334,17.2-7.672,28.077L147.739,106.1,127.65,78.024l44.57-9.305Z"/><path fill="#e87b40" d="M172.22,68.719l-44.57,9.305,7.02,9.812,2.245.685A120.568,120.568,0,0,0,163,82.8a7.67,7.67,0,0,1,7.481,1.328,20.358,20.358,0,0,0,5.712,3.3,63.527,63.527,0,0,0,1.9-15.112Z"/><path fill="#ffcacf" d="M128.582,78.178l13.621,9.5a42.33,42.33,0,0,0,10.333,9.1s4.152-8.471,12.29-7.142a8.246,8.246,0,0,1,6.6,5.261,11.1,11.1,0,0,1-1.2,10.434c-2.158,3.18-6.329,6.784-14.2,7.059,0,0-7.64,17.44-30.893,17.44q-.726,0-1.428-.025c-14.39-.509-25.645-12.649-25.645-27.048V76.351Z"/><path fill="#e8808f" d="M109.443,99.541a3.494,3.494,0,0,1-1.013-.151l-3.485-1.053a3.5,3.5,0,1,1,2.026-6.7l3.484,1.053a3.5,3.5,0,0,1-1.012,6.851Z"/><path fill="#e8808f" d="M122.728,99.985a3.5,3.5,0,0,1-1-6.853l3.59-1.079a3.5,3.5,0,1,1,2.014,6.7l-3.591,1.079A3.492,3.492,0,0,1,122.728,99.985Z"/><path fill="#e87b40" d="M103.313,196.832c0-8.089-4.263-10.7-7.308-11.535a9.471,9.471,0,0,0-5.367.085c-7.12,2.281-7.594,11.45-7.594,11.45H74.107c-2.443,6.481-8.222,10.2-13.053,12.254a1.2,1.2,0,0,0,.462,2.308h0v.009h26.21S103.313,212.116,103.313,196.832Z"/><path fill="#fff" d="M32.282,202.076a8.744,8.744,0,0,0-3.477.674c-1.958.849-4.328,2.751-4.43,7v.265a2.873,2.873,0,0,0,2.873,2.873h0a3.852,3.852,0,0,0,3.338-1.929l3.757-6.515a1.577,1.577,0,0,0-1.366-2.365Z"/><path fill="#e5838b" d="M98.058,76.351V86.91c18.062,6.164,44.266.916,44.266.916h0a40.056,40.056,0,0,1-6.065-9.647Z"/><path fill="#3b499b" d="M172.406,52.344s5.482-11.236,23.446-13.094c0,0,4.669,14.925-10.606,26.382l-9.451.64Z"/><path fill="#7177db" d="M93.835,62.355s-5.442,2.66-4.294,9.815c1.224,7.624,10.02,8.793,10.02,8.793s36.806,7.361,70.546-6.952a18.943,18.943,0,0,0,19.425,6.339C203.1,77.014,206.1,60.106,206.1,60.106s-14.722-7.157-28.218,2.249c0,0-5.725-36.6-43.554-36.6S93.835,62.355,93.835,62.355Z"/><path fill="#3b499b" d="M93.835,62.355s22.323,6.317,42.969,1.727A2.068,2.068,0,0,0,136.515,60c-12.006-.768-30.56-2.988-39.773-9.4A45.327,45.327,0,0,0,93.835,62.355Z"/><path fill="#3b499b" d="M229.008,185.4a156.463,156.463,0,0,1,2.127,26.972,93.391,93.391,0,0,0,11.689-8.6,166.27,166.27,0,0,0-6.193-28.573A76.225,76.225,0,0,1,229.008,185.4Z"/><path fill="#3b499b" d="M227.3,151.085a198.017,198.017,0,0,0-10.958-20.309,74.825,74.825,0,0,1-11.65,17.992,36.76,36.76,0,0,0,13.237,14.591A90.663,90.663,0,0,0,227.3,151.085Z"/><path fill="#ffcacf" d="M201.525,117.327s80.773-4.927,91.422,84.158c0,0,27.678,3.968,27.33,29.606a7.279,7.279,0,0,1-6.392,7.237l-4.316-1a11.113,11.113,0,0,1-2.279,2.171,7.667,7.667,0,0,1-11.514-3.5c-1.816-4.467-5.8-11.089-13.738-12.44a41.686,41.686,0,0,0-9.97,7.341,6.84,6.84,0,0,1-10.881-1.17q-.2-.346-.377-.714a6.726,6.726,0,0,1,.365-6.4,37.173,37.173,0,0,1,7.688-9.082,10.517,10.517,0,0,0,3.679-9.456c-1.773-12.911-10.751-41.756-54.914-55.756C217.628,148.322,195.032,141.214,201.525,117.327Z"/><path fill="#e5838b" d="M313.885,238.32c.265-11.058-5.221-17.028-9.958-20.11-1.366-.889-3.118.989-1.935,2.11a22.946,22.946,0,0,1,7.577,17.006h0a7.025,7.025,0,0,0,3.815,1.031C313.553,238.354,313.719,238.336,313.885,238.32Z"/></svg>