<svg xmlns="http://www.w3.org/2000/svg"  viewBox="0 0 340 340" width="500px" height="500px"><path fill="#82936e" d="M215.993,67.246s.335,17.374-4.648,28.73-11.63,43.117-5.409,80.1l3.124,21.556,18.887-.09s-7.06-54.526-3.662-81.235S215.993,67.246,215.993,67.246Z"/><path fill="#82936e" d="M223.1,197.692s1.414-34.5,31.051-44.069c12.884-4.16,20.643-10.283,25.3-15.877,0,0-2.979,14.549-18.494,25.759a29.559,29.559,0,0,0-11.742,17.643,53.5,53.5,0,0,0-.931,16.544Z"/><path fill="#c9d38c" d="M217.69,197.556l.612-38.621a58.529,58.529,0,0,1,6.06-11.279c14.643-21.215,38.529-48.607,39.032-61.017,0,0,10.164,21.649-12.591,57.656-21.4,33.87-16.634,53.4-16.634,53.4Z"/><path fill="#82936e" d="M226.833,193.839c1.438-16.065-6.124-30.713-8.525-34.9-7.905,19.5-4.056,38.618-4.056,38.618l12.094.082C226.543,196.467,226.71,195.211,226.833,193.839Z"/><path fill="#c9d38c" d="M182.18,133.061s39.913,15.606,39.411,64.545H195.655S200.687,159.589,182.18,133.061Z"/><path fill="#f2e8ee" d="M107.064,141.1s-22.453,5.337-22.453,31.508v41.681H175.2s2.038-46.77-13.4-63.49Z"/><path fill="#f2e8ee" d="M102.979,267.009,99.17,283.192c-.643,11.812-2.2,28.222-5.936,42.7H131.64V267.009Z"/><path fill="#c9b1b1" d="M99.168,283.192c5.847.941,17.547,2.632,32.472,3.808V267.009H99.612S99.691,273.582,99.168,283.192Z"/><path fill="#f7c6c9" d="M129.474,117v29.529c2.626,3.5,11.274,8.825,15.934,13.012a12.827,12.827,0,0,0,8.567,3.278h0c5.327,0,10.3-7.3,7.825-12.014-1.354-2.584-3.209-4.047-4.606-6.438s-3.261-4.7-3.261-7.453V129.9Z"/><path fill="#d67c86" d="M153.933,129.9V113.385L129.474,97.07V117S136.521,129.441,153.933,129.9Z"/><path fill="#e8905e" d="M108.674,37.871S86.566,18.761,70.5,43.041a24.724,24.724,0,0,0-4.045,13.652v47.315s0,17.863-5.905,21.554c0,0,36.464,5.019,36.464-23.325V66.068Z"/><path fill="#ffc180" d="M178.372,70.815s16.291-22.576,1.409-43.338c-14.27-19.907-29.949-10.922-29.949-10.922S121.645,4.223,101.385,34.876s2.643,57.784,16.56,60.955Z"/><path fill="#f7c6c9" d="M165.007,43.152c.393.709-3.039,32.7-34.473,39.776,0,0-1.944-8.309-10.253-8.309,0,0-7.955-1.061-7.955,11.491v8.242c0,6.814,7.42,11.394,13.275,7.908a8.437,8.437,0,0,0,3.873-5.19s3.889,23.512,26.163,23.512h0A26.164,26.164,0,0,0,181.8,94.419V72.938a34.368,34.368,0,0,0-15.559-29.024Q165.641,43.527,165.007,43.152Z"/><path fill="#d67c86" d="M165.007,43.152S162.355,72.5,130.534,82.928v3.813A1.285,1.285,0,0,0,132.1,88C167.6,79.609,165.007,43.152,165.007,43.152Z"/><path fill="#f78db5" d="M121.378,134.7a13.342,13.342,0,0,1,12.265,6.166,64.541,64.541,0,0,1,10.251,34.125V195.52a11.08,11.08,0,0,0,11.132,11.027h0a11.079,11.079,0,0,0,11.131-11.027v-20.3a46.245,46.245,0,0,0-1.4-11.323c-1.522-6.034-4.485-15.319-9.208-22.221l.095.232a19.615,19.615,0,0,1,15.927,7.785,50.117,50.117,0,0,1,9.854,30.651L186.049,325.9H124.107s.2-33.241,0-49.993c0,0-14.7-.8-25.114-3.622a7.764,7.764,0,0,1-5.759-7.482v-2.764a7.792,7.792,0,0,1,7.828-7.755h25.994l-.59-78.892S124.3,148.507,107.2,141.1A24.371,24.371,0,0,1,121.378,134.7Z"/><path fill="#dd6698" d="M183.345,240.846H126.956l.1,13.436H101.062a7.822,7.822,0,0,0-7.317,5.016c4.082,4.642,14.463,11.247,40.529,11.247h50.015Z"/><path fill="#f7c6c9" d="M127.173,223.736l.059,1.336a6.934,6.934,0,0,0,6.915,6.427H159.69v27.383s-45.894,3.347-56.462-4.6c-4.693-3.528-6.742-12.558-7.595-21.146C104.564,227.88,115.439,225.232,127.173,223.736Z"/><path fill="#e1ecfe" d="M244.684,288.449H197.975a14.229,14.229,0,0,1-14.206-13.417l-.256-4.487a101.786,101.786,0,0,0-2.19-38.32l-2.144-37.532a2.594,2.594,0,0,1,2.589-2.742h79.123a2.594,2.594,0,0,1,2.59,2.742l-4.59,80.339A14.23,14.23,0,0,1,244.684,288.449Z"/><path fill="#aac3d6" d="M181.816,240.846l1.7,29.7h8.77s26.557,2.337,24.189-29.7Z"/><path fill="#89b9f2" d="M155.472,220.617l4.218,38.265h38.745a18.036,18.036,0,0,0,18.037-18.036v-2.41a15.493,15.493,0,0,0-14.665-15.471h0a8.338,8.338,0,0,1-7.586-6.083h0a9.26,9.26,0,0,0-8.918-6.768h0a9.259,9.259,0,0,0-9.018,7.155l-1,4.271Z"/><path fill="#d67c86" d="M162.172,105.644a20.112,20.112,0,0,1-10.662-3.106,3,3,0,0,1,3.4-4.944,13.678,13.678,0,0,0,14.435-.081,3,3,0,0,1,3.138,5.115A19.464,19.464,0,0,1,162.172,105.644Z"/><circle cx="171.931" cy="82.74" r="3.899" fill="#d67c86"/><circle cx="158.166" cy="82.74" r="3.899" fill="#d67c86"/><path fill="#d67c86" d="M126.757,214.294H95.231a133.2,133.2,0,0,0,.4,18.841l31.54-9.4Z"/><path fill="#aac3d6" d="M244.684,288.449a14.23,14.23,0,0,0,14.207-13.417l4.59-80.339a2.594,2.594,0,0,0-2.59-2.742H239.754l-3.892,83.258s-.158,8.038-5.548,13.24Z"/><rect width="28.63" height="40.668" x="248.074" y="216.064" fill="#5f72ad" rx="14.315"/></svg>