<svg xmlns="http://www.w3.org/2000/svg"  viewBox="0 0 340 340" width="500px" height="500px"><polygon fill="#b1a7c6" points="131.531 329.578 208.469 329.578 208.469 309.448 130.376 309.448 131.531 329.578"/><rect width="82.371" height="109.223" x="128.814" y="107.177" fill="#ffcac0"/><rect width="39.994" height="51.818" x="95.021" y="237.08" fill="#342a35"/><path fill="#ef837c" d="M211.186,176.029H128.814v1.683l2.507.913a51.722,51.722,0,0,0,77.358,0l2.507-.913Z"/><path fill="#ef837c" d="M211.186,107.177l-82.465,6.577v62.275c33.393-4.416,33.224-32.625,33.224-32.625v-8.457a38.259,38.259,0,0,0,10.536,2.347,5.978,5.978,0,0,1,5.511,5.947v.163s-.168,28.209,33.225,32.625Z"/><path fill="#ffb655" d="M192.029,147.842a30.1,30.1,0,0,1-3.932,9,21.427,21.427,0,0,1-36.194,0,30.1,30.1,0,0,1-3.932-9l-19.313,12.543c5.7,13.848,14.75,21.11,22.933,24.913a11.361,11.361,0,0,1,5.846,2.233A44.931,44.931,0,0,0,167,189.353a5.934,5.934,0,0,1,6,0,44.465,44.465,0,0,0,9.561-1.847,5.761,5.761,0,0,1,5.844-2.258c8.129-3.816,17.138-11.075,22.937-24.861Z"/><path fill="#f27b31" d="M202.5,154.644l-10.472-6.8a30.1,30.1,0,0,1-3.932,9,21.427,21.427,0,0,1-36.194,0,30.1,30.1,0,0,1-3.932-9l-10.472,6.8c7.834,22.379,32.428,20.549,32.428,20.549S194.605,175.229,202.5,154.644Z"/><path fill="#f27b31" d="M128.721,160.527a50.533,50.533,0,0,0,8.31,13.738c9.263-2.8,15.076-7.743,18.73-12.871a21.8,21.8,0,0,1-3.858-4.547,30.1,30.1,0,0,1-3.932-9l-19.25,12.5Z"/><path fill="#f27b31" d="M202.873,174.255a51.457,51.457,0,0,0,8.344-13.592V160.3l-19.188-12.462a30.1,30.1,0,0,1-3.932,9,21.773,21.773,0,0,1-3.9,4.58C187.852,166.537,193.649,171.463,202.873,174.255Z"/><rect width="39.994" height="51.818" x="204.986" y="237.08" fill="#342a35" transform="rotate(180 224.982 262.988)"/><path fill="#f5eef7" d="M170,232.672c-13.026-28.376-31.649-51.134-53.269-70.883-9.829,12.94-43.226,62.176-21.09,107.924l17.6-28.771A49.619,49.619,0,0,0,125.7,256.133c3.816,15.413,1.236,39-1.031,54.973h90.67c-2.267-15.976-4.306-38.859-.49-54.272,7.756-6.4,11.913-15.892,11.913-15.892l17.6,28.771c22.136-45.748-11.261-94.984-21.09-107.924C201.649,181.538,183.026,204.3,170,232.672Z"/><path fill="#b1a7c6" d="M214.173,301.934c-1.617-14.51-2.272-32.5.672-45.1,0,0-9.919,6.133-25.229,4.869a34.889,34.889,0,0,1-10.448-2.528,24.107,24.107,0,0,0-18.348,0,34.962,34.962,0,0,1-10.467,2.533c-15.31,1.264-24.657-5.57-24.657-5.57,3.137,12.67,1.951,30.853.17,45.8Z"/><path fill="#b1a7c6" d="M118.362,201.635c8.025-11.31,9.712-18.858,9.86-22.9L120.2,161.086l-3.465.7c-9.829,12.94-43.226,62.176-21.09,107.924l17.6-28.771C108.963,230.787,107.774,216.556,118.362,201.635Z"/><path fill="#d1c7f2" d="M211.548,45.85s-1.891,13.431,9.072,26.382c14.6,17.246,28.889,57.537,25.447,104.79l-34.519-26.383L194.782,49.055Z"/><path fill="#d1c7f2" d="M128.452,45.85s1.891,13.431-9.072,26.382c-14.6,17.246-28.889,57.537-25.447,104.79l34.519-26.383L145.218,49.055Z"/><path fill="#fff" d="M207.18,158.526c-12.4,28.87-37.193,52.819-37.18,52.8.013.016-24.782-23.933-37.18-52.8l-16.089,3.263c8.862,18.087,26.637,48.979,53.269,70.883,26.632-21.9,44.407-52.8,53.269-70.883Z"/><path fill="#d2c8db" d="M128.183,179.4a4.682,4.682,0,0,1,4.2-4.291,31.789,31.789,0,0,0,7.9-1.963l0-.005c-1.351-2.3-2.658-4.66-3.9-7.072-.055-.106-.107-.214-.162-.32-.5-.984-1.3-2.609-1.768-3.608-.033-.068-.065-.137-.1-.2-.529-1.129-1.047-2.264-1.539-3.409l-16.089,3.263c2.8,5.719,6.5,12.719,11.08,20.31A22.643,22.643,0,0,0,128.183,179.4Z"/><path fill="#b1a7c6" d="M221.639,201.635c-8.025-11.31-9.712-18.858-9.861-22.9l8.026-17.646,3.466.7c9.829,12.94,43.226,62.176,21.09,107.924l-17.6-28.771C231.037,230.787,232.226,216.556,221.639,201.635Z"/><path fill="#d2c8db" d="M211.818,179.4a4.683,4.683,0,0,0-4.2-4.291,31.789,31.789,0,0,1-7.9-1.963l0-.005c1.351-2.3,2.659-4.66,3.9-7.072.054-.106.107-.214.161-.32.5-.984,1.3-2.609,1.769-3.608l.1-.2c.529-1.129,1.046-2.264,1.538-3.409l16.09,3.263c-2.8,5.719-6.5,12.719-11.08,20.31A22.643,22.643,0,0,1,211.818,179.4Z"/><path fill="#f7908e" d="M169.429,324.276s-25.5,0-41.1-6.341l11.613-27.959s18.659,6.307,35.171,1.514Z"/><path fill="#ffcac0" d="M200.054,289.976l-7.692,1.322a8.485,8.485,0,0,1-7.44-2.363h0a8.493,8.493,0,0,0-6.582-2.466l-6.257.429a5.938,5.938,0,0,0-5.485,6.677l.549,4.306h0A12.555,12.555,0,0,0,156.518,312.6l.26,1.405a12.554,12.554,0,0,0,12.651,10.267c11.3-.277,28.28-1.412,41.913-10.723Z"/><path fill="#f5eef7" d="M99.32,262.989s15.38,20.022,40.626,26.987l-8.415,39.6h-26.4S94.387,292.3,99.32,262.989Z"/><path fill="#655baa" d="M122.455,155.135s4.6,14.143-8.84,31.114c-9.823,12.408-17.567,33.133-17.566,52.362a46.256,46.256,0,0,0,8.472,26.335c7.516,10.818,18.913,34.825.609,64.632H43.256s-9.087-43.34,12.108-76.366c6.129-3.84,9.46-11.428,10.417-22.195,1.706-15.182,10.323-46.229,49.6-78.71Z"/><path fill="#f5eef7" d="M240.68,262.989s-15.38,20.022-40.626,26.987l8.415,39.6h26.4S245.613,292.3,240.68,262.989Z"/><path fill="#655baa" d="M217.545,155.135s-4.6,14.143,8.84,31.114c9.823,12.408,17.567,33.133,17.566,52.362a46.256,46.256,0,0,1-8.472,26.335c-7.516,10.818-18.913,34.825-.609,64.632h61.874s9.087-43.34-12.108-76.366c-5.012-4.519-9.4-11.332-10.417-22.195-1.706-15.182-10.323-46.229-49.6-78.71Z"/><path fill="#342a35" d="M222.728,128.466a23.049,23.049,0,0,1-6.537-16.184V100.36c0-8.9-3.029-14.436-5.842-17.657A19.91,19.91,0,0,1,205.314,70.4l-1.046-27.5C198.87,13.961,170,15.721,170,15.721s-29.772-1.76-34.268,27.17l-1.046,27.5A19.91,19.91,0,0,1,129.651,82.7c-2.813,3.221-5.842,8.756-5.842,17.657v11.922a23.049,23.049,0,0,1-6.537,16.184c-5.894,5.991-12.543,16.411-4.8,28.581,12.684,19.938,43.2,6.451,43.2-14.074v-56.3h28.658v56.3c0,20.525,30.516,34.012,43.2,14.074C235.271,144.877,228.622,134.457,222.728,128.466Z"/><path fill="#ffcac0" d="M188.072,72.4a25.664,25.664,0,0,1-5.492-7.227,34.325,34.325,0,0,0-25.145-.029,25.656,25.656,0,0,1-5.507,7.256,12.186,12.186,0,0,0-3.957,8.957V106.7c.964,10.461,9.635,15.312,15.805,17.456a18.972,18.972,0,0,0,12.448,0c6.17-2.144,14.841-7,15.805-17.456V81.353A12.186,12.186,0,0,0,188.072,72.4Z"/><path fill="#ef837c" d="M170,65.362c4.278,0,8.489-.073,12.584-.195a24.959,24.959,0,0,1-2.659-11.42h-19.85a24.949,24.949,0,0,1-2.645,11.39C161.224,65.278,165.4,65.362,170,65.362Z"/><path fill="#ffb655" d="M170,10.422a3,3,0,0,0-2,.763,27.612,27.612,0,0,0-3.858,4.207A9.406,9.406,0,0,0,162.31,21c-.017,11.783-3.944,19.921-16.391,19.921-9.324,0-13.693-3.872-15.706-7.028a2.13,2.13,0,0,0-3.813.457,31.794,31.794,0,0,0-.954,13.325,8.227,8.227,0,0,0,6.39,7.028c8.265,1.865,23.215,2.8,38.164,2.8C171.755,44.435,171.28,28.031,170,10.422Z"/><path fill="#f27b31" d="M173,166.585a21.687,21.687,0,0,1-6,0V189.35a48.959,48.959,0,0,0,6,0Z"/><path fill="#f27b31" d="M151.6,185.289a45.106,45.106,0,0,0,5.843,2.239,68.7,68.7,0,0,1,5.5-21.922,21.107,21.107,0,0,1-5.349-2.749A74.82,74.82,0,0,0,151.6,185.289Z"/><path fill="#f27b31" d="M177.067,165.606a68.718,68.718,0,0,1,5.493,21.9,45.06,45.06,0,0,0,5.841-2.264,74.9,74.9,0,0,0-5.985-22.381A21.107,21.107,0,0,1,177.067,165.606Z"/><path fill="#ef837c" d="M163.427,93.76a3.5,3.5,0,0,1-.979-.14,9.981,9.981,0,0,0-2.043-.332,3.5,3.5,0,0,1,.491-6.983,16.847,16.847,0,0,1,3.508.594,3.5,3.5,0,0,1-.977,6.861Z"/><path fill="#ef837c" d="M176.573,93.76A3.5,3.5,0,0,1,175.6,86.9a16.847,16.847,0,0,1,3.508-.594,3.5,3.5,0,0,1,.491,6.983,9.981,9.981,0,0,0-2.043.332A3.5,3.5,0,0,1,176.573,93.76Z"/><path fill="#f7908e" d="M154.429,303.034l20.731-3.05a3.063,3.063,0,0,0,2.569-3.57h0a3.061,3.061,0,0,0-3.259-2.512l-15.038,1.205Z"/><path fill="#f27b31" d="M213.6,34.351a2.13,2.13,0,0,0-3.811-.462c-2.011,3.157-6.38,7.032-15.708,7.032-12.445,0-16.373-8.136-16.391-19.916a9.406,9.406,0,0,0-1.832-5.609A27.669,27.669,0,0,0,172,11.184a3.006,3.006,0,0,0-2-.762V33.414a2.847,2.847,0,0,1-2.089,2.774,8.3,8.3,0,0,0,0,16.055A2.847,2.847,0,0,1,170,55.017V57.5c14.952,0,29.9-.933,38.169-2.8a8.224,8.224,0,0,0,6.385-7.023A31.809,31.809,0,0,0,213.6,34.351Z"/><circle cx="170" cy="44.216" r="3.559" fill="#fff"/><path fill="#3e3a6b" d="M267.215,264.244a3.248,3.248,0,0,0,4.77,4.148,38.369,38.369,0,0,0,12.649-15.179q-1.512-2.357-3.232-4.637a35.81,35.81,0,0,1-7.183-17.56A62.643,62.643,0,0,1,267.215,264.244Z"/><circle cx="258.935" cy="276.105" r="3.559" fill="#3e3a6b"/><path fill="#3e3a6b" d="M58.6,248.576q-1.725,2.277-3.232,4.637a38.369,38.369,0,0,0,12.649,15.179,3.248,3.248,0,0,0,4.77-4.148,62.643,62.643,0,0,1-7-33.228A35.81,35.81,0,0,1,58.6,248.576Z"/><circle cx="81.065" cy="276.105" r="3.559" fill="#3e3a6b"/></svg>