<svg xmlns="http://www.w3.org/2000/svg"  viewBox="0 0 340 340" width="500px" height="500px"><path fill="#ffc362" d="M40.644,18.33s-6.993,2.285-7.45,13.4v7.615A13.377,13.377,0,0,0,18.9,40.49c-6.767,5.149-5.353,16.069-5.353,16.069S17.5,49.7,25.472,50.2a7.935,7.935,0,0,1,7.418,7.927v3.742H44.2Z"/><path fill="#fa883e" d="M32.89,61.868v8.855H48.4v-12.6A7.935,7.935,0,0,1,55.816,50.2c7.975-.5,11.925,6.36,11.925,6.36s1.414-10.92-5.353-16.069a13.377,13.377,0,0,0-14.294-1.142V31.733c-.457-11.118-7.45-13.4-7.45-13.4V51.071a11.293,11.293,0,0,1-6.611,10.277Z"/><path fill="#6d68b7" d="M246.347,133.829c-11.808-3.929-23.225-7.1-35.215-7.022l2.42,15.549,23.823,11.335Z"/><ellipse cx="190.375" cy="44.712" fill="#3c3c4f" rx="35.803" ry="23.86"/><path fill="#3c3c4f" d="M49.349,330l-8.7-74.707,220.225-53.808,60.959,50.573L307.962,330h-55.1c-40.389-4.96-77.964-6.4-109.262,0Z"/><path fill="#f79089" d="M283.8,301.36l-9.959,12.91c-4.812,6.238-13.111,15.349-20.981,15.73H237.032l-5.706-36.749s17.942,2.951,32.114-10.728C263.44,282.523,278.7,286.637,283.8,301.36Z"/><path fill="#b9b4d3" d="M307.727,204.322l-20.007-17.36-12.471-10.82-26.41,38.828,34.817,30.643-20.216,36.91L283.8,301.36l29.767-38.589C327.413,244.819,307.727,204.322,307.727,204.322Z"/><path fill="#6d68b7" d="M281.38,166.432l-4.8,14.067,3.757,32.051c26.988,30.909,27.627,64.414,27.627,117.45h10.851c7.055,0,11.339-2.717,12.485-12.883C331.3,317.117,346.145,220.5,281.38,166.432Z"/><path fill="#b9b4d3" d="M42.393,296.134H92.616a44.333,44.333,0,0,0,20.261-4.721c9.626-4.939,20.367-14.9,20.563-34.784H42.393Z"/><path fill="#3c3c4f" d="M179.631,304.215H143.6a10.156,10.156,0,0,0-10.156,10.156v5.473A10.156,10.156,0,0,0,143.6,330h36.035Z"/><path fill="#3c3c4f" d="M237.032,304.215H201V330h36.035a10.157,10.157,0,0,0,10.157-10.156v-5.473A10.157,10.157,0,0,0,237.032,304.215Z"/><path fill="#4d5284" d="M277.988,183.367l-3.011,1.821-5.563,16.3a132.513,132.513,0,0,1,10.907,11.077,70.55,70.55,0,0,0,3.154-26.364A3.621,3.621,0,0,0,277.988,183.367Z"/><path fill="#b9b4d3" d="M129.231,280.393c-.11,5.86,1.062,20.3,14.848,23.822h19.732l-8.582-44.169Z"/><path fill="#b9b4d3" d="M251.251,277.906s2.708,21.86-14.7,26.309H216.817l14.509-74.672L251.4,214.3Z"/><path fill="#fdfbff" d="M149.3,270.588v5s.194,21.667,14.509,28.631h53.006c14.315-6.964,14.509-28.631,14.509-28.631v-18.39L175.738,243.43S154.538,253.079,149.3,270.588Z"/><path fill="#b9b4d3" d="M129.225,229.543l.152,48.363s-.116.952-.145,2.488c11.115-3.08,23.513-9.9,31.778-21.4,29.851,13.6,53.979,7.381,70.316-1.8V229.543Z"/><path fill="#b9b4d3" d="M212.739,133.823,239.1,150.09s-17.537,58.478-70.644,37.269V151.328Z"/><path fill="#6d68b7" d="M239.5,136.748c-4.716,9.475-11.118,33.136-34.509,40.912-6.756,2.245-15.968,3.657-22.822,1.89-8.452,6.895-9.69,36.646-11.719,63.887a57.5,57.5,0,0,0,54.314-1.526c17.883-10.184,40.6-28.87,58.659-62.7a10.716,10.716,0,0,0-2.04-12.78l-7.42-7.1.327-.887a11.093,11.093,0,0,0-3.807-12.779,88.569,88.569,0,0,0-24.133-11.833A5.735,5.735,0,0,0,239.5,136.748Z"/><path fill="#4d5284" d="M196.953,214.3c23.37-4.689,34.441-20.634,39.583-32.853A2.712,2.712,0,0,0,232,178.6a89.687,89.687,0,0,1-19.322,16.517,34,34,0,0,1-28.361,3.825,62.2,62.2,0,0,1-12.778-5.484L159.11,207.372C165.965,213.621,177.52,218.2,196.953,214.3Z"/><path fill="#4d5284" d="M182.167,179.547q-1.4-.36-2.764-.844a47.009,47.009,0,0,1-12.767-6.776l-12.719,59.9a70.933,70.933,0,0,0,12.029,9.08c1.471.917,2.976,1.753,4.5,2.523C182.056,218.533,182.42,189.34,182.167,179.547Z"/><path fill="#6d68b7" d="M173.724,168.2c-2.632,82.532-36.407,100.691-62.58,102.2-13.457.778-26.451-3.612-38.047-10.484-17-10.073-31.913-8.845-31.913-8.845S35.2,238.9,49.821,231.141c12.406-6.583,26.908,3.322,26.908,3.322,23.585-3.654,21.26-25.247,21.26-25.247V174.669a35.457,35.457,0,0,1,5.192-18.025l54.486-17.515Z"/><path fill="#4d5284" d="M173.728,132.481l-57.137,9.3a52.135,52.135,0,0,0-13.407,14.864c1.149,6.3,10.233,16.475,27.733,16.38,12.326-.067,19.526-2.883,28.193-10.118a25.48,25.48,0,0,0,14.61,5.29c.214-6.713.226-13.843.008-21.433Z"/><path fill="#3c3c4f" d="M227.788,52.531s-.229,11.918,10.847,25c0,0,10.315,13.522,5.461,27.879-5.986,17.706-28.839,17.706-28.839,17.706V52.531Z"/><path fill="#fa883e" d="M168.451,117.379H149.822a58.629,58.629,0,0,0-15.21,3.5h0a53.066,53.066,0,0,0-20.736,13.452,14.234,14.234,0,0,0-2.256,3.235l.006.027a13.548,13.548,0,0,0,3.76,17.026c3.641,2.725,9.027,4.8,16.98,4.7C154.951,159.056,171.734,135.663,168.451,117.379Z"/><path fill="#3c3c4f" d="M152.963,52.531s.228,12.162-10.847,25.511c0,0-10.918,13.981-5.462,28.45,6.813,18.068,31.412,16.594,31.412,16.594l-2.573-70.555Z"/><path fill="#ffd7cd" d="M209.056,113.981H171.694a12.264,12.264,0,0,1-12.264-12.264V72.932l61.89.515v28.27A12.264,12.264,0,0,1,209.056,113.981Z"/><path fill="#f79089" d="M159.43,72.932a120.176,120.176,0,0,0,30.733,4.281,133.627,133.627,0,0,0,31.157-3.766v-15.5H159.43Z"/><path fill="#ffc362" d="M190.375,70.085c-17.765,0-29.187-4-35.694-7.409A12.924,12.924,0,0,1,147.73,51.23V31.208c0-5.735,3.218-8.288,6.653-10.485A22.825,22.825,0,0,1,158.774,33.9a10.778,10.778,0,1,0,20.332-4.978,8.535,8.535,0,0,1,.9-9.373A48.086,48.086,0,0,1,190.375,10C192.961,31.87,193.562,52.327,190.375,70.085Z"/><path fill="#3c3c4f" d="M164.016,115.826v19.963a29.565,29.565,0,0,0,10.938,21.14,24.359,24.359,0,0,0,30.842,0,29.569,29.569,0,0,0,10.939-21.14V115.826Z"/><path fill="#3c3c4f" d="M223.92,117.25c-3.77-11.833-14.434-16.095-20.028-17.874a10.03,10.03,0,0,0-8.855,1.344,24.9,24.9,0,0,0-4.662,4.285,24.863,24.863,0,0,0-4.6-4.24,10.212,10.212,0,0,0-9.057-1.344c-5.412,1.737-14.9,5.771-19.755,16.277-2.392,5.177.585,10.575,1.546,11.294h0c.009-.012,6.06-7.805,13.543-5.9s13.857,2.549,18.32-2.709c4.464,5.258,10.832,4.621,18.321,2.709s13.543,5.9,13.543,5.9C224.021,125.662,225.334,121.688,223.92,117.25Z"/><rect width="17.41" height="129.92" x="31.939" y="143.902" fill="#ffc362"/><rect width="17.41" height="44.172" x="31.939" y="285.829" fill="#fa883e"/><path fill="#f79089" d="M56.731,245.613h5.6a8.339,8.339,0,0,1,8.339,8.339v12.189a8.338,8.338,0,0,1-8.339,8.338H52.1Z"/><path fill="#ffd7cd" d="M49.293,296.134H30.231a11,11,0,0,1-11-11V256.616a11,11,0,0,1,11-11h26.5V258.36a6.888,6.888,0,0,0,0,7v11.29a7.681,7.681,0,0,0,0,7V288.7A7.439,7.439,0,0,1,49.293,296.134Z"/><rect width="36.057" height="25.785" x="172.286" y="304.215" fill="#ffc362" rx="7.346"/><path fill="#ffc362" d="M42.927,115.192H18.352V127.12s-1.028,10.574,7.418,10.574v8.655a3.42,3.42,0,0,0,3.424,3.42h11.45Z"/><path fill="#6d68b7" d="M10.846,96.962a29.8,29.8,0,0,1,44.885-25.7C62.975,95.608,30.485,119.351,10.846,96.962Z"/><path fill="#fa883e" d="M39.971,137v8.971l15.547-1.484v-6.792c8.446,0,7.418-10.574,7.418-10.574V115.192H24.576l-1.7,5.69,14.1,10.238A7.267,7.267,0,0,1,39.971,137Z"/><path fill="#4d5284" d="M55.728,71.267c-1.091,10.864-8.389,28.774-44.783,28.019A29.794,29.794,0,1,0,55.728,71.267Z"/><path fill="#ffc362" d="M40.644,107.382H13.153a6.062,6.062,0,0,1-6.061-6.062V92.6a6.062,6.062,0,0,1,6.061-6.062H40.644C42.416,93.782,42.644,100.766,40.644,107.382Z"/><path fill="#4d5284" d="M279.7,164.82l-5.736-5.492h0c-14.448,25.17-33.532,48.659-53.2,61.847a38.648,38.648,0,0,1-24.747,6.658c-.115-.009-.231-.02-.347-.031a2.307,2.307,0,0,0-1.313,4.336c3.481,1.838,8.81,3.08,16.782,1.747C228.765,230.936,266.939,193.079,279.7,164.82Z"/><path fill="#4d5284" d="M160.737,160.5A118.475,118.475,0,0,1,149.244,218.2c-1.5,3.078-6.487,1.592-5.691-1.738,3.578-14.981,10.364-36.637,4.177-52.362l10.8-10.1Z"/><path fill="#4d5284" d="M122.735,201.545a4.417,4.417,0,1,0-8.833.087c.186,8.751-.629,27.515-10.718,31.18-5.706,2.072-10-.179-13.159-3.857-3.1,2.548-9.037,7.539-14.949,8.455,0,0,15.816,12.1,30.992,5.637,17.016-7.252,16.667-26.014,16.667-26.014Z"/><path fill="#4d5284" d="M122.74,170l-.993,12.834a3.685,3.685,0,0,1-3.674,3.4h0a3.675,3.675,0,0,1-3.653-3.2,102.451,102.451,0,0,1-.465-22.474Z"/><path fill="#3c3c4f" d="M181.773,88.234a3.462,3.462,0,0,1-.912-.122,23.388,23.388,0,0,0-3.151-.588,3.5,3.5,0,0,1,.729-6.962,30.487,30.487,0,0,1,4.242.792,3.5,3.5,0,0,1-.908,6.88Z"/><path fill="#3c3c4f" d="M198.977,88.234a3.5,3.5,0,0,1-.908-6.88,30.514,30.514,0,0,1,4.242-.792,3.5,3.5,0,0,1,.728,6.962,23.471,23.471,0,0,0-3.149.588A3.511,3.511,0,0,1,198.977,88.234Z"/><path fill="#fa883e" d="M233.02,31.208c0-5.735-3.217-8.288-6.653-10.485a22.828,22.828,0,0,0-4.39,13.172,10.778,10.778,0,1,1-20.334-4.975,8.539,8.539,0,0,0-.9-9.378A48.066,48.066,0,0,0,190.375,10V45.834a2.487,2.487,0,0,1-1.972,2.41,8.854,8.854,0,0,0,0,17.262,2.486,2.486,0,0,1,1.972,2.409v2.17c17.765,0,29.188-4,35.695-7.409a12.923,12.923,0,0,0,6.95-11.446Z"/><circle cx="166.06" cy="55.159" r="3.559" fill="#fff"/><circle cx="214.691" cy="55.159" r="3.559" fill="#fff"/><path fill="#fa883e" d="M25.77,146.349a3.42,3.42,0,0,0,3.424,3.42h22.9a3.424,3.424,0,0,0,3.424-3.424v-8.651H25.77Z"/><polygon fill="#fa883e" points="49.349 167.763 49.349 143.902 31.939 143.902 31.939 160.785 49.349 167.763"/><path fill="#fa883e" d="M68.134,86.542H40.644v20.84h27.49A6.062,6.062,0,0,0,74.2,101.32V92.6A6.062,6.062,0,0,0,68.134,86.542Z"/><circle cx="40.644" cy="96.962" r="3.559" fill="#fff"/><circle cx="23.209" cy="96.962" r="3.559" fill="#fff"/><circle cx="58.066" cy="96.962" r="3.559" fill="#e2ddef"/><path fill="#fa883e" d="M197.776,308.475h-.743a3.559,3.559,0,0,0-3.226,2.056l-5.729,12.3a2.044,2.044,0,0,0,1.853,2.908h7.845a4.918,4.918,0,0,0,4.918-4.918v-7.429A4.918,4.918,0,0,0,197.776,308.475Z"/><circle cx="190.375" cy="56.875" r="3.559" fill="#fff"/><path fill="#ffc362" d="M134.612,120.882h0a57.694,57.694,0,0,0-11.343,5.618c-1.449,2.986-1.976,6.893.189,11.7,5.575,12.373,21.529,2.05,21.529,2.05a22.433,22.433,0,0,0,3.795-22.775A61.455,61.455,0,0,0,134.612,120.882Z"/><path fill="#3c3c4f" d="M10.2,110.409a33.5,33.5,0,0,0,4.654,7.647v8.917c-.4,3.254.7,11.785,7.418,13.7v9.093a3.5,3.5,0,0,0,3.5,3.5h2.669v88.967a14.515,14.515,0,0,0-12.711,14.38v28.515a14.515,14.515,0,0,0,12.711,14.38V330a3.5,3.5,0,0,0,3.5,3.5H318.813c9.641,0,14.712-5.06,15.955-15.923,6.073-38.067-2.575-115.569-51.034-153.736l-5.748-5.5a14.666,14.666,0,0,0-5.431-15.5,58.518,58.518,0,0,0-17.436-8.769c-1.906-.9-14.756-6.805-27.218-9.585.054-.168.111-.335.158-.5,8.569-.13,15.149-4,19.114-11.312,8.778-16.184-4.734-33.364-5.792-34.667a51.078,51.078,0,0,1-8.506-16.464,16.355,16.355,0,0,0,3.645-10.31V31.208c0-8.146-5.377-11.586-8.267-13.433-4.12-2.125-6.161,2.187-8.6,8.616a42.6,42.6,0,0,0-14.951-7.18c-3.54-6-12.566-12.383-12.463-12.171a3.5,3.5,0,0,0-3.733,0c.092-.164-8.921,6.141-12.464,12.171a42.582,42.582,0,0,0-14.95,7.181c-2.405-6.416-4.533-10.756-8.6-8.618-2.89,1.848-8.268,5.288-8.268,13.434V51.23a16.347,16.347,0,0,0,3.654,10.319A51.528,51.528,0,0,1,139.369,78c-2.5,2.459-16.207,23.568-3.113,38.6-10.011,3.153-31.771,13.786-29.515,29.43-5.776,6.321-12.252,16.179-12.252,28.634v34.548c.13,2.27,1.48,17.827-17.04,21.568-3.558-2.108-14.025-7.452-24.6-4.579V153.269h2.669a3.5,3.5,0,0,0,3.5-3.5v-9.093c6.722-1.913,7.816-10.48,7.418-13.7v-8.918a33.488,33.488,0,0,0,4.652-7.645,9.575,9.575,0,0,0,6.608-9.089c-.2-7.009,1.731-14.8-6.606-17.806A33.024,33.024,0,0,0,51.9,65.614V58.126a4.434,4.434,0,0,1,4.135-4.433c5.645-.346,8.568,4.434,8.675,4.613a3.522,3.522,0,0,0,6.5-1.3c1.327-8.325-3.115-24.784-19.618-22.48C52.5,21.068,43.38,13.677,39.557,15c-2.231.516-10.721,5.947-9.863,19.525-16.525-2.3-20.94,14.169-19.618,22.48a3.529,3.529,0,0,0,6.489,1.322c.121-.2,3.053-4.983,8.69-4.637a4.434,4.434,0,0,1,4.135,4.433v7.489A33.031,33.031,0,0,0,10.2,83.515,9.574,9.574,0,0,0,3.592,92.6C3.789,99.613,1.861,107.408,10.2,110.409ZM40.644,123.26a26.111,26.111,0,0,1-22.31-12.378H62.953A26.141,26.141,0,0,1,40.644,123.26Zm27.49-33.218A2.565,2.565,0,0,1,70.7,92.6v8.717a2.564,2.564,0,0,1-2.562,2.561H13.153a2.564,2.564,0,0,1-2.561-2.561V92.6a2.565,2.565,0,0,1,2.561-2.562ZM22.728,285.131V256.616a7.512,7.512,0,0,1,7.5-7.5h23v10.1H33.985a3.5,3.5,0,0,0,0,7H53.231v9.319H33.985a3.5,3.5,0,0,0,0,7H53.231V288.7a3.943,3.943,0,0,1-3.938,3.939H30.231A7.512,7.512,0,0,1,22.728,285.131Zm39.6-36.018a4.844,4.844,0,0,1,4.838,4.839V266.14a4.844,4.844,0,0,1-4.838,4.84h-2.1V249.113ZM74.166,266.14v-1.591c17.155,9.383,34.177,12.015,51.69,6.8l.009,2.889c-6.012,11.726-19.779,18.542-33.249,18.4H59.486c1.3-2.564.569-11.781.745-14.654C67.478,278.779,74.186,273.651,74.166,266.14ZM160.8,241.726a61.167,61.167,0,0,0,67.029,2.454v31.373c0,.191-.305,18.839-11.857,25.162H164.66c-16.413-10.63-10.857-35.049-11.857-47.424A71.94,71.94,0,0,0,160.8,241.726Zm109.05-35.051c20.486,19.524,28.877,38.955,32.29,65.27a3.46,3.46,0,0,0-.376.4l-18.4,23.849-15.437-14.284,21.2-34.46a3.5,3.5,0,0,0-.76-4.539l-29.106-23.9C262.8,215.281,266.35,211.183,269.847,206.675ZM211.125,326.5a10.774,10.774,0,0,0,.717-3.846c-.18-2.864.551-12.386-.717-14.939h25.907a6.663,6.663,0,0,1,6.656,6.656v5.473a6.663,6.663,0,0,1-6.656,6.656Zm-31.494,0a3.85,3.85,0,0,1-3.845-3.846V311.561a3.85,3.85,0,0,1,3.845-3.846H201a3.85,3.85,0,0,1,3.845,3.846v11.093A3.85,3.85,0,0,1,201,326.5Zm-36.035,0a6.664,6.664,0,0,1-6.657-6.656v-5.473a6.7,6.7,0,0,1,7.154-6.656H169.5a10.774,10.774,0,0,0-.717,3.846c.179,2.864-.551,12.387.717,14.939ZM52.849,299.634H92.616c12.889.051,25.592-5,33.977-14.3.987,5.6,3.346,13.115,8.927,18.053a13.629,13.629,0,0,0-5.581,10.987c0,3.779-.382,8.878,1.743,12.129H52.849ZM245.524,303.7a23.026,23.026,0,0,0,7.226-10.061,41.753,41.753,0,0,0,10.637-6.392l15.685,14.513c-8.233,10.376-18.359,26.707-30.127,24.745,2.129-3.263,1.746-8.341,1.743-12.129A13.627,13.627,0,0,0,245.524,303.7Zm15.187-23.416a34.988,34.988,0,0,1-5.93,4.511c.132-2.1-.029-56.369.1-60.331l26.692,21.921Zm15.9,36.129,26.569-34.443c1.062,12.966,1.259,27.586,1.279,44.535H267.312A71.526,71.526,0,0,0,276.61,316.408Zm-28.833-38.072c.024.186,2.125,18.487-11.689,22.379h-9.5c7.985-9.906,8.235-24.339,8.242-25.131V239.779a142.028,142.028,0,0,0,13.04-9.932C247.892,230.5,247.7,277.711,247.777,278.336Zm-93.733,22.379h-9.39c-13.981-5.5-11.512-26.243-11.806-32.01A55.168,55.168,0,0,0,145.8,260.37C146.365,271.962,143.087,285.541,154.044,300.715ZM35.439,299.634h10.41V326.5H35.439ZM327.132,262.34a206.539,206.539,0,0,1,.688,54.385c-1.023,9.074-4.379,9.775-9.007,9.775h-7.352c-.015-54.227-.806-90.877-37.417-125.475a184.608,184.608,0,0,0,12.463-20.164,14.055,14.055,0,0,0,1.343-3.711C313.8,203.508,323.573,237.424,327.132,262.34ZM271,157.23a3.826,3.826,0,0,0,.536,4.626l7.419,7.105a7.232,7.232,0,0,1,1.373,8.6c-27.223,48.979-73.746,88.022-116.32,57.865,6.614-14.26,10.789-32.351,12.493-54.1,28.87,12.6,54.676-20.335,63.721-37.936a7.589,7.589,0,0,1,8.227-3.8,50.867,50.867,0,0,1,19.953,8.883A7.629,7.629,0,0,1,271,157.23ZM190.375,73.585A92.087,92.087,0,0,0,217.82,69.8v31.917a8.877,8.877,0,0,1-.086,1.19c-5.273-3.976-9.392-6.327-14.97-7.148a3.5,3.5,0,1,0-6.887-1.235,4.922,4.922,0,0,1-1.175,2.583c-.178.079-.355.163-.53.25a8.853,8.853,0,0,1-7.768-.091l-.072-.034A4.8,4.8,0,0,1,185,94.4a3.5,3.5,0,1,0-6.87,1.343c-5.643.779-9.8,3.162-15.109,7.161a8.863,8.863,0,0,1-.087-1.189V69.8A92.079,92.079,0,0,0,190.375,73.585Zm-13.029,89.1c18.317,9.747,37.833-3.364,41.958-20.694l9.962,6.149c-10.117,15.655-30.373,36.991-52.285,25.809Q177.262,168.458,177.346,162.682Zm56.721-22.611c-.356.658-.747,1.361-1.159,2.087l-12.673-7.822v-4.492a3.834,3.834,0,0,0,1.5.612,93.136,93.136,0,0,1,16.944,4.494A14.487,14.487,0,0,0,234.067,140.071Zm-74.009-22.734a30.079,30.079,0,0,1,16.293-14.082c4.548-1.8,8.864.785,11.282,3.924a3.53,3.53,0,0,0,5.478.009c.236-.453,3.54-3.678,5.063-3.932,6.5-3.133,23.2,8.261,23.292,18.1a16.933,16.933,0,0,0-10.361-4.064c-8.284,1-13.949,3.77-18.061-1.168a3.524,3.524,0,0,0-5.337,0c-2.759,3.251-6.629,3.665-14.787,1.583-5.682-1.45-10.546,1.178-13.635,3.649A6.833,6.833,0,0,1,160.058,117.337Zm12.186,7.411c6.441,1.554,12.94,2.2,18.131-1.593,5.476,4,12.406,3.065,19.186,1.333a6.667,6.667,0,0,1,3.674.157v11.116C211.21,161.925,176.251,169.547,168,139.3A39.563,39.563,0,0,0,172.244,124.748Zm63.685-42.354c.119.145,11.766,14.632,5.09,26.94-2.689,4.96-7.057,7.519-12.986,7.646-.856-3.081-2.932-6.056-4.762-8.453a15.713,15.713,0,0,0,1.549-6.81V67.168c.783-.351,1.5-.7,2.188-1.045A58.72,58.72,0,0,0,235.929,82.394ZM218.422,34.75c-1.12,8.38-13.056,8.548-14.425.207-.6-2.938,1.6-5.265,1.963-8.017A30.362,30.362,0,0,1,218.422,34.75Zm-43.631-7.81c.367,2.752,2.561,5.079,1.963,8.017-1.371,8.345-13.31,8.169-14.426-.209A30.387,30.387,0,0,1,174.791,26.94ZM151.23,31.208a6.783,6.783,0,0,1,2.148-5.363,18.945,18.945,0,0,1,1.9,8.05,14.37,14.37,0,0,0,15.932,14.183c9.738-1,15.707-12.193,11-20.787a5.052,5.052,0,0,1,.514-5.541,47.08,47.08,0,0,1,7.656-7.446,47.015,47.015,0,0,1,7.657,7.447,5.051,5.051,0,0,1,.513,5.541c-4.707,8.593,1.262,19.787,11,20.786C217.78,49.2,225.657,42.2,225.476,33.9a18.948,18.948,0,0,1,1.9-8.05,6.783,6.783,0,0,1,2.148,5.363V51.23a9.4,9.4,0,0,1-5.074,8.345c-15.968,9.258-52.217,9.24-68.142,0a9.407,9.407,0,0,1-5.074-8.345Zm-11.5,78.126c-6.652-12.466,4.939-26.716,5.163-27.032a59.6,59.6,0,0,0,8.842-16.182c.687.346,1.41.7,2.2,1.048v34.549a15.692,15.692,0,0,0,1.546,6.813,36.532,36.532,0,0,0-3.5,5.349c-4.07.045-4.164-.243-9.614.7A14.53,14.53,0,0,1,139.731,109.334Zm-23.29,27.38c.912-.984,1.857-1.9,2.822-2.768-.031,18.226,26.274,18.974,31.239,3.405a3.5,3.5,0,1,0-6.742-1.884c-.714,2.557-3.421,4.758-6.9,5.606-3.507.856-6.784.1-8.767-2.023-4.256-4.708.1-11.09.378-11.555a58.6,58.6,0,0,1,21.468-6.616h2.3c-.213,4.3,4.308,12.956,9.023,8.269a16.9,16.9,0,0,1,3.827-3.364c-1.842,15.2-17.158,30.31-32.774,30.042-6.192.061-11.191-1.274-14.841-4C112.678,148.391,112.385,140.892,116.441,136.714ZM74.754,237.353a3.509,3.509,0,0,0,2.51.569c21.108-3.271,25.073-20.2,24.225-28.884V174.669c0-8.6,3.894-15.843,8.056-21.13,5.128,6.812,12.784,9.112,22.3,9.29,11.792.148,23.647-6.086,31.3-15.918a33.314,33.314,0,0,0,7.244,10.607c.888,90.522-39.224,130.2-96.219,98.98.791-7.566-3.919-14.271-11.839-14.385H52.849v-8.52C62.92,229.487,74.638,237.273,74.754,237.353Zm-28.905,4.76H35.439V153.269h10.41ZM58.075,133.262a3.121,3.121,0,0,1-2.557.932,3.5,3.5,0,0,0-3.5,3.5v8.575H29.27v-8.575a3.5,3.5,0,0,0-3.5-3.5c-3.932.269-4.006-4.906-3.935-6.735.037-.153.008-2.729.017-2.954,10.643,7.608,26.939,7.607,37.584-.011C59.21,127.326,60.251,130.135,58.075,133.262ZM25.689,46.706a15.681,15.681,0,0,0-7.937,1.54c2.385-7.948,10.7-7.71,13.688-5.87a3.523,3.523,0,0,0,5.254-3.028c-.069-6.547-.51-13.712,3.943-17.024,4.486,3.32,4.02,10.509,3.956,17.024a3.525,3.525,0,0,0,5.255,3.028c2.91-1.828,11.274-2.133,13.688,5.869-7.982-4.072-18.434-.13-18.638,9.881v5.825a32.312,32.312,0,0,0-8.508,0V58.126A11.447,11.447,0,0,0,25.689,46.706ZM40.644,70.664a26.1,26.1,0,0,1,22.31,12.378H18.334A26.111,26.111,0,0,1,40.644,70.664Z"/></svg>