<svg xmlns="http://www.w3.org/2000/svg"  viewBox="0 0 340 340" width="500px" height="500px"><path fill="#7f4242" d="M74.653,167.761s-24.2,63.23-28.384,160H86.7s26.225-42.972,26.225-103.505C112.92,224.256,95.31,183.714,74.653,167.761Z"/><path fill="#7f4242" d="M238.523,327.761h-24.5L201.293,289.3l46.313,2.445S250.114,315.413,238.523,327.761Z"/><path fill="#d07a76" d="M85.382,192l1.739,3.927a93.359,93.359,0,0,0,7.443,13.746c6.292,9.508,9.8,25.718,4.762,39.079-5.81,15.41,9.1,24.8,9.1,24.8v6.249C86.7,296.434,86.7,327.761,86.7,327.761H214.018c-.5-24.563-10.61-41.119-10.61-41.119l36.146,9.139c2.51,18.458-1.031,31.98-1.031,31.98,10.853,0,18.478-2.969,23.765-6.67a27.534,27.534,0,0,0,11.578-21.734,139.78,139.78,0,0,0-2.361-29.068l-23.9-67.156c-6.159-12.117-12.215-22.226-16.667-29.22Z"/><path fill="#7f4242" d="M259.156,228.57,235.7,244.262l-9.385,30.083,11.654,11.4L271.5,270.291A219.273,219.273,0,0,0,259.156,228.57Z"/><path fill="#7f4242" d="M74.653,167.761s-1.078,2.821-2.815,8.165c4.627,8.539,14.515,25.328,54.875,29.894v25.271a6.8,6.8,0,0,0,6.8,6.8h32.483a6.8,6.8,0,0,0,6.8-6.8V205.82c42.6-5.714,54.831-24.431,58.148-31.907-4.27-6.706-7.068-10.552-7.068-10.552Z"/><path fill="#b1a7c6" d="M247.711,182.348l18.068-.734,27.952,56.823-16.444,8.711S245.56,209.236,247.711,182.348Z"/><path fill="#d07a76" d="M225.861,153.8a41.4,41.4,0,0,0-3.879-4.476l-14.384-9.1a38.253,38.253,0,0,0,3.926-1.569A18.378,18.378,0,0,0,216.38,108.8c-8.892-8.546-20.457-13.531-31.389-16.427h-68.2c-10.932,2.9-22.5,7.881-31.389,16.427a18.378,18.378,0,0,0,4.856,29.853,38.253,38.253,0,0,0,3.926,1.569l-14.334,9.049a41.4,41.4,0,0,0-3.929,4.526,13.276,13.276,0,0,0,2.7,18.667c10.483,7.678,32.057,18,72.264,18s61.781-10.326,72.265-18A13.276,13.276,0,0,0,225.861,153.8Z"/><path fill="#7f4242" d="M184.991,92.378a123.513,123.513,0,0,0-34.1-3.885,123.507,123.507,0,0,0-34.1,3.885A31.827,31.827,0,0,0,133.51,114.1h34.763A31.827,31.827,0,0,0,184.991,92.378Z"/><path fill="#7f4242" d="M187.891,107.216c-12.839-11.06-61.16-11.06-74,0a9.384,9.384,0,0,0,.789,14.737l18.83,13.329h34.763l18.83-13.329A9.384,9.384,0,0,0,187.891,107.216Z"/><path fill="#ffcac0" d="M133.51,114.1v21.181l2.029,1.436a62.056,62.056,0,0,1,9.147,9.121c2.67,3.316,5.363,7.389,6.2,11.126.843-3.737,3.536-7.81,6.206-11.126a62.056,62.056,0,0,1,9.147-9.121l2.029-1.436v-15.52A87.5,87.5,0,0,0,133.51,114.1Z"/><path fill="#655baa" d="M209.261,204.665l38.45-22.317,29.576,64.8-35.318,19.405c-25.33-3.191-48.2-23.041-42.4-50.165A22.793,22.793,0,0,1,209.261,204.665Z"/><path fill="#3e3a6b" d="M203.566,237.592a40.446,40.446,0,0,1-3.988-21.2c-3.8,10.3,0,21.346,0,21.346,3.939,10.55,4.271,18.451,3.693,23.587a30.919,30.919,0,0,0,2.945,16.9l3.042,6.294,32.708-17.97c-5.97-12.158-17.194-16.406-24.026-17.887A21.341,21.341,0,0,1,203.566,237.592Z"/><path fill="#7f4242" d="M93.975,276.849c0-3.907,3.975-6.715,7.96-5.623,7.663,2.1,21.926,4.491,47.159,4.491,45.018,0,58-13.585,58-13.585l-.934,16.1S184.951,289.3,147.4,289.3c-26.937,0-42.719-4.474-49.488-7a5.876,5.876,0,0,1-3.936-5.45Z"/><path fill="#ffcac0" d="M225.9,259.957c-6.081-5.14-14.961-5.8-21.314-1-3.332,2.518-6.119,6.557-6.678,13.034a34.609,34.609,0,0,0,6.724,22.849s10.849,8.439,22.922,3.226a17.13,17.13,0,0,0,10.784-16.992A37.952,37.952,0,0,0,225.9,259.957Z"/><path fill="#fff" d="M251.879,222.062l-1.614-3.159a2.227,2.227,0,0,0-2.995-.969l-4.393,2.246a2.226,2.226,0,0,1-2.987-.954l-2.566-4.927a2.227,2.227,0,0,0-3-.946l-3.147,1.639a2.227,2.227,0,0,0-.946,3l2.522,4.842a2.225,2.225,0,0,1-.961,3.01l-16.572,8.471a2.226,2.226,0,0,0-.969,2.995l1.615,3.159a2.225,2.225,0,0,0,3,.969l16.657-8.514a2.225,2.225,0,0,1,2.987.954l2.545,4.886a2.227,2.227,0,0,0,3,.946l3.147-1.64a2.225,2.225,0,0,0,.946-3l-2.5-4.8a2.227,2.227,0,0,1,.962-3.011l4.307-2.2A2.225,2.225,0,0,0,251.879,222.062Z"/><path fill="#ef837c" d="M133.51,100.193V114.1c5.674,4.733,16.893,10.594,34.763,5.661V100.193A119.952,119.952,0,0,0,133.51,100.193Z"/><path fill="#ffcac0" d="M182.216,32S175.7,12.239,150.891,12.239,119.567,32,119.567,32c-7.4,10.92,4.415,25.228,4.415,25.228v27.4A24.834,24.834,0,0,0,129.114,100a27.3,27.3,0,0,0,43.555,0A24.834,24.834,0,0,0,177.8,84.623v-27.4S189.62,42.92,182.216,32Z"/><path fill="#342a35" d="M182.216,32s3.923,9.212-8.206,15.5a8.475,8.475,0,0,0-4.618,7.51h0a8.42,8.42,0,0,0,4.058,7.2L191.256,73s12.869-9.474,6.562-24.611C192.021,34.471,182.216,32,182.216,32Z"/><path fill="#ef837c" d="M177.8,64.845l4.215-.02a9.822,9.822,0,0,1,9.87,9.822h0a9.823,9.823,0,0,1-9.484,9.818l-4.6.158Z"/><path fill="#342a35" d="M119.567,32s-3.923,9.212,8.206,15.5a8.475,8.475,0,0,1,4.618,7.51h0a8.422,8.422,0,0,1-4.058,7.2L110.527,73s-12.869-9.474-6.562-24.611C109.762,34.471,119.567,32,119.567,32Z"/><path fill="#ef837c" d="M123.982,64.845l-4.215-.02a9.822,9.822,0,0,0-9.87,9.822h0a9.823,9.823,0,0,0,9.484,9.818l4.6.158Z"/><circle cx="142.258" cy="71.165" r="3.559" fill="#ef837c"/><circle cx="159.525" cy="71.165" r="3.559" fill="#ef837c"/><path fill="#fff" d="M172.818,175.234H160.782V159.015a3.1,3.1,0,0,0-3.1-3.1H144.1a3.1,3.1,0,0,0-3.1,3.1v16.219H128.965a3.1,3.1,0,0,0-3.1,3.1v13.577a3.1,3.1,0,0,0,3.1,3.1H141v31.357a3.1,3.1,0,0,0,3.1,3.1H157.68a3.1,3.1,0,0,0,3.1-3.1V195.014h12.036a3.1,3.1,0,0,0,3.1-3.1V178.336A3.1,3.1,0,0,0,172.818,175.234Z"/><path fill="#7f4242" d="M94.185,140.225a36.14,36.14,0,0,0-14.333,9.049c14.734-4.546,36.964-.252,36.964-.252,2.88.421,3.886-3.694,1.179-4.763A61.562,61.562,0,0,0,94.185,140.225Z"/><path fill="#7f4242" d="M207.6,140.225a62.381,62.381,0,0,0-23.505,3.847c-2.728,1.04-1.589,5.584,1.211,4.759a64.782,64.782,0,0,1,36.678.494A36.156,36.156,0,0,0,207.6,140.225Z"/><path fill="#ef837c" d="M239.574,295.782a56.728,56.728,0,0,0-1.242-14.708,19.807,19.807,0,0,1-12.759,13.67c-10.66,3.931-17.138,2.478-20.941.091a35.193,35.193,0,0,0,17.712,12.938A13.164,13.164,0,0,0,239.574,295.782Z"/></svg>