<svg xmlns="http://www.w3.org/2000/svg" xmlns:xlink="http://www.w3.org/1999/xlink" viewBox="0 0 340 340" width="500px" height="500px"><defs><linearGradient id="yJVkrWECNbGg_Ws5pqKiPa" x1="135.866" x2="135.866" y1="127.973" y2="156.647" gradientUnits="userSpaceOnUse"><stop offset="0" stop-color="#ffcac0"/><stop offset="1" stop-color="#e5837c"/></linearGradient><linearGradient id="yJVkrWECNbGg_Ws5pqKiPb" x1="124.865" x2="124.865" y1="138.05" y2="303.169" gradientUnits="userSpaceOnUse"><stop offset="0" stop-color="#a2b6e7"/><stop offset="1" stop-color="#7487ba"/></linearGradient><linearGradient id="yJVkrWECNbGg_Ws5pqKiPi" x1="135.866" x2="135.866" y1="68.852" y2="134.339" xlink:href="#yJVkrWECNbGg_Ws5pqKiPa"/><linearGradient id="yJVkrWECNbGg_Ws5pqKiPj" x1="98.99" x2="162.741" y1="35.395" y2="35.395" xlink:href="#yJVkrWECNbGg_Ws5pqKiPb"/><linearGradient id="yJVkrWECNbGg_Ws5pqKiPc" x1="109.125" x2="164.38" y1="37.418" y2="63.673" gradientUnits="userSpaceOnUse"><stop offset="0" stop-color="#6a729f"/><stop offset="1" stop-color="#495179"/></linearGradient><linearGradient id="yJVkrWECNbGg_Ws5pqKiPk" x1="131.799" x2="175.158" y1="141.509" y2="388.782" xlink:href="#yJVkrWECNbGg_Ws5pqKiPc"/><linearGradient id="yJVkrWECNbGg_Ws5pqKiPd" x1="175.349" x2="185.795" y1="231.58" y2="305.417" gradientUnits="userSpaceOnUse"><stop offset="0" stop-color="#b8b2c1"/><stop offset="1" stop-color="#948e94"/></linearGradient><linearGradient id="yJVkrWECNbGg_Ws5pqKiPe" x1="175.24" x2="223.571" y1="212.674" y2="336.253" gradientUnits="userSpaceOnUse"><stop offset="0" stop-color="#807284"/><stop offset="1" stop-color="#5c4e57"/></linearGradient><linearGradient id="yJVkrWECNbGg_Ws5pqKiPl" x1="180.401" x2="187.161" y1="237.146" y2="284.931" xlink:href="#yJVkrWECNbGg_Ws5pqKiPd"/><linearGradient id="yJVkrWECNbGg_Ws5pqKiPm" x1="184.724" x2="211.986" y1="219.152" y2="288.86" xlink:href="#yJVkrWECNbGg_Ws5pqKiPe"/><linearGradient id="yJVkrWECNbGg_Ws5pqKiPf" x1="190.483" x2="295.228" y1="215.95" y2="284.921" gradientUnits="userSpaceOnUse"><stop offset="0" stop-color="#9a9da6"/><stop offset="1" stop-color="#6b6d6e"/></linearGradient><linearGradient id="yJVkrWECNbGg_Ws5pqKiPn" x1="312.725" x2="194.626" y1="278.432" y2="206.785" xlink:href="#yJVkrWECNbGg_Ws5pqKiPf"/><linearGradient id="yJVkrWECNbGg_Ws5pqKiPo" x1="42.71" x2="134.352" y1="153.512" y2="187.676" xlink:href="#yJVkrWECNbGg_Ws5pqKiPf"/><linearGradient id="yJVkrWECNbGg_Ws5pqKiPp" x1="25.009" x2="69.021" y1="150.227" y2="173.333" gradientUnits="userSpaceOnUse"><stop offset="0" stop-color="#8487a1"/><stop offset="1" stop-color="#515366"/></linearGradient><linearGradient id="yJVkrWECNbGg_Ws5pqKiPq" x1="127.662" x2="211.666" y1="170.257" y2="227.734" xlink:href="#yJVkrWECNbGg_Ws5pqKiPf"/><linearGradient id="yJVkrWECNbGg_Ws5pqKiPr" x1="162.428" x2="226.618" y1="112.793" y2="331.712" xlink:href="#yJVkrWECNbGg_Ws5pqKiPc"/><linearGradient id="yJVkrWECNbGg_Ws5pqKiPs" x1="198.621" x2="237.679" y1="279.394" y2="279.394" xlink:href="#yJVkrWECNbGg_Ws5pqKiPb"/><linearGradient id="yJVkrWECNbGg_Ws5pqKiPt" x1="89.272" x2="89.272" y1="246.847" y2="295.587" xlink:href="#yJVkrWECNbGg_Ws5pqKiPd"/><linearGradient id="yJVkrWECNbGg_Ws5pqKiPu" x1="89.272" x2="89.272" y1="250.621" y2="272.124" xlink:href="#yJVkrWECNbGg_Ws5pqKiPe"/><linearGradient id="yJVkrWECNbGg_Ws5pqKiPv" x1="89.272" x2="89.272" y1="227.818" y2="299.772" xlink:href="#yJVkrWECNbGg_Ws5pqKiPd"/><linearGradient id="yJVkrWECNbGg_Ws5pqKiPw" x1="120.335" x2="120.335" y1="246.962" y2="295.562" xlink:href="#yJVkrWECNbGg_Ws5pqKiPd"/><linearGradient id="yJVkrWECNbGg_Ws5pqKiPx" x1="120.335" x2="120.335" y1="250.621" y2="272.124" xlink:href="#yJVkrWECNbGg_Ws5pqKiPe"/><linearGradient id="yJVkrWECNbGg_Ws5pqKiPy" x1="120.335" x2="120.335" y1="227.818" y2="299.772" xlink:href="#yJVkrWECNbGg_Ws5pqKiPd"/><linearGradient id="yJVkrWECNbGg_Ws5pqKiPz" x1="101.389" x2="66.377" y1="182.45" y2="239.969" xlink:href="#yJVkrWECNbGg_Ws5pqKiPb"/><linearGradient id="yJVkrWECNbGg_Ws5pqKiPA" x1="125.406" x2="84.518" y1="185.811" y2="235.46" xlink:href="#yJVkrWECNbGg_Ws5pqKiPc"/><linearGradient id="yJVkrWECNbGg_Ws5pqKiPg" x1="237.407" x2="233.019" y1="87.864" y2="82.063" gradientTransform="rotate(-72.709 231.168 137.733)" gradientUnits="userSpaceOnUse"><stop offset="0" stop-color="#ffd998"/><stop offset="1" stop-color="#ffe3b5"/></linearGradient><linearGradient id="yJVkrWECNbGg_Ws5pqKiPh" x1="237.069" x2="232.746" y1="106.529" y2="92.093" gradientTransform="rotate(-72.709 231.168 137.733)" gradientUnits="userSpaceOnUse"><stop offset="0" stop-color="#f28181"/><stop offset="1" stop-color="#ea5e5e"/></linearGradient><linearGradient id="yJVkrWECNbGg_Ws5pqKiPB" x1="221.549" x2="217.161" y1="87.661" y2="81.86" xlink:href="#yJVkrWECNbGg_Ws5pqKiPg"/><linearGradient id="yJVkrWECNbGg_Ws5pqKiPC" x1="221.211" x2="216.888" y1="106.326" y2="91.891" xlink:href="#yJVkrWECNbGg_Ws5pqKiPh"/><linearGradient id="yJVkrWECNbGg_Ws5pqKiPD" x1="205.457" x2="201.069" y1="87.463" y2="81.663" xlink:href="#yJVkrWECNbGg_Ws5pqKiPg"/><linearGradient id="yJVkrWECNbGg_Ws5pqKiPE" x1="205.119" x2="200.796" y1="106.129" y2="91.693" xlink:href="#yJVkrWECNbGg_Ws5pqKiPh"/><linearGradient id="yJVkrWECNbGg_Ws5pqKiPF" x1="234.718" x2="222.517" y1="259.336" y2="288.415" gradientUnits="userSpaceOnUse"><stop offset="0" stop-color="#5d6592"/><stop offset="1" stop-color="#3c446c"/></linearGradient><linearGradient id="yJVkrWECNbGg_Ws5pqKiPG" x1="109.484" x2="138.652" y1="237.817" y2="276.142" xlink:href="#yJVkrWECNbGg_Ws5pqKiPe"/><linearGradient id="yJVkrWECNbGg_Ws5pqKiPH" x1="89.814" x2="118.982" y1="252.787" y2="291.112" xlink:href="#yJVkrWECNbGg_Ws5pqKiPe"/></defs><path fill="#34363a" d="M113.322,127.541H158.54l-10.862,46.233s-21.734-.138-22.566-.138S113.322,127.541,113.322,127.541Z"/><path fill="#34363a" d="M101.867,69.049h8.426a0,0,0,0,1,0,0V94.256a0,0,0,0,1,0,0h-8.426a9.842,9.842,0,0,1-9.842-9.842V78.891A9.842,9.842,0,0,1,101.867,69.049Z"/><path fill="#34363a" d="M171.835,68.957h8.426a0,0,0,0,1,0,0V94.164a0,0,0,0,1,0,0h-8.426a9.842,9.842,0,0,1-9.842-9.842V78.8A9.842,9.842,0,0,1,171.835,68.957Z" transform="rotate(180 171.127 81.56)"/><path fill="url(#yJVkrWECNbGg_Ws5pqKiPa)" d="M135.866,144.925h0a18.318,18.318,0,0,1-18.318-18.318V118.45c13.787-.964,26.2,1.275,36.636,8.157a18.3,18.3,0,0,1-18.318,18.318Z"/><path fill="#e5837c" d="M153.373,132.008a18.319,18.319,0,0,0,.811-5.4V102.022H117.548V118.45C122.551,121.75,134.716,128.629,153.373,132.008Z"/><polygon fill="#34363a" points="86.55 301.398 84.873 330 201.325 330 199.712 298.624 86.55 301.398"/><path fill="#34363a" d="M203.54,144.418s14.052,2.386,20.416,34.2,11.666,69.544,11.666,69.544H207.184l-20.879-40.113Z"/><path fill="url(#yJVkrWECNbGg_Ws5pqKiPb)" d="M190.372,131.33l-38.4.251c-3.875,15.343-9.054,42.653-12.222,73.675-6.109-36.782-18.464-68.475-22.314-80.983a7.508,7.508,0,0,0-8.319-5.117c-25.01,3.649-49.757,19.139-49.757,19.139,19.225,41.64,24.352,108.866,24.352,108.866,8.237,15.228,6.86,30.229-1.079,45.076l-.115,4.778a11.975,11.975,0,0,0,7.242,11.278c14.885,6.416,31.048,6.229,40.244,5.376a8.22,8.22,0,0,0,7.541-8.12s0,8.12,8.175,8.12c3.332,0,8.741.286,15,.355Z"/><path fill="#34363a" d="M24.881,225.318S36,191.732,53.14,168.57l26.948-.416L84.873,204.1Z"/><path fill="#34363a" d="M170.865,75.448h-68.35s-4.249,40.625,33.351,42.7C173.466,116.073,170.865,75.448,170.865,75.448Z"/><path fill="url(#yJVkrWECNbGg_Ws5pqKiPi)" d="M166.172,62.107H105.56l-.517,16.441S111.109,97.3,135.866,97.3,166.69,78.548,166.69,78.548Z"/><path fill="#e5837c" d="M105.56,62.107l-.517,16.441a24.926,24.926,0,0,0,3.9,6.834c.006-.041,1.533-12.147,10.144-13.2h38.884a11.027,11.027,0,0,1,8.718,6.368l-.518-16.441Z"/><path fill="url(#yJVkrWECNbGg_Ws5pqKiPj)" d="M159.859,18.451A43.675,43.675,0,0,0,135.866,10S107.918,10,98.99,36.9c0,0,7.083,32.135,41,21.869S159.859,18.451,159.859,18.451Z"/><path fill="url(#yJVkrWECNbGg_Ws5pqKiPc)" d="M174.687,72.61a8.692,8.692,0,0,0,2.6-10.915c-.279-.547-.527-1.08-.743-1.58a13.043,13.043,0,0,1-1.1-5.119c-.084-19.229-7.326-30.236-15.592-36.542-4.282,16.609-23.991,19.685-23.991,19.685H98.6A59.144,59.144,0,0,0,96.284,55a13.079,13.079,0,0,1-1.1,5.119c-.216.5-.464,1.033-.744,1.58A8.7,8.7,0,0,0,97.045,72.61l8,5.938s1.378-7.043,6.132-10.261a8.959,8.959,0,0,1,5.057-1.467H155.5a8.959,8.959,0,0,1,5.057,1.467c4.754,3.218,6.132,10.261,6.132,10.261Z"/><path fill="#34363a" d="M178.473,35.115a14.114,14.114,0,0,0-1.379-2.85,7.184,7.184,0,0,0-6.084-3.33h-24.2c-7.578,0-10.942,7.241-10.942,7.241s-3.363-7.241-10.941-7.241h-24.2a7.186,7.186,0,0,0-6.085,3.33,14.221,14.221,0,0,0-1.379,2.85A7.14,7.14,0,0,0,96.683,43.7l16.209,8.78a13.459,13.459,0,0,0,9.278,1.359c4.291-.94,10.108-3.16,13.7-8.4,3.589,5.243,9.406,7.463,13.7,8.4a13.462,13.462,0,0,0,9.279-1.359L175.05,43.7A7.139,7.139,0,0,0,178.473,35.115Z"/><path fill="url(#yJVkrWECNbGg_Ws5pqKiPk)" d="M199.18,131.22c-2.625-1.261-5.562-2.589-8.714-3.894l-30.628,22.4s-3.107,6.8-.412,11.771a6.707,6.707,0,0,1,.536,4.708l-5.392,23.192L69.116,163.04C77.5,193.194,82.152,230.78,83.3,242.528l-.663,21.682v28.027l42.39.851a5.881,5.881,0,0,1,5.762,5.883l0,5.644s-.065,6.875-5.6,9.384c0,0,4.169-.164,4.774-.233,8.213-.928,7.592-8.217,7.592-8.217V293.306l15.353.3a8.533,8.533,0,0,1,7.962,5.355c1.251,3.179,1.834,8-.141,15.063,11.179.124,25.062-.441,34.657-4.555,4.552-1.951,9.274-7.453,9.158-12.293l.464-44.72-67.453,6.48V225.42s8.133.193,14.978-3.654L180.714,239.2l14.844-16.992,3.958,1.055c-.188-25.613,1.508-53.2,7.642-74.451A14.973,14.973,0,0,0,199.18,131.22Z"/><path fill="#34363a" d="M172.424,147.128l13.041,3.055s-7.013,22.908-8.436,39.943l-13.6-3.541s.3-3.683,1.175-9C166.043,168.809,168.791,155.578,172.424,147.128Z"/><path fill="#34363a" d="M176.047,273c-19.559.7-43.725,0-43.725,0V249.379a348.74,348.74,0,0,0,43.725,0Z"/><path fill="url(#yJVkrWECNbGg_Ws5pqKiPd)" d="M188.2,292.237h-9.078a11.64,11.64,0,0,1-11.639-11.553l-.194-26.237,26.777,3.913,1.553,32.025Z"/><path fill="url(#yJVkrWECNbGg_Ws5pqKiPe)" d="M167.171,239.2l.113,15.248c4.175,3.213,9.928,5.26,16.641,6.6a9.315,9.315,0,0,1,7.46,9.151v12.538s.889,6.2-3.19,9.5h10.074A11.638,11.638,0,0,0,209.907,280.6V239.2Z"/><path fill="url(#yJVkrWECNbGg_Ws5pqKiPl)" d="M167.171,230.805V239.2a10.25,10.25,0,0,0,10.25,10.25h13.964c1.609-6.217,1.788-13.566,1.352-21.4Z"/><path fill="url(#yJVkrWECNbGg_Ws5pqKiPm)" d="M209.907,239.2V228.95a10.25,10.25,0,0,0-10.249-10.25H177.421a10.25,10.25,0,0,0-10.25,10.25v1.855l21.219,11.888a5.856,5.856,0,0,1,3,5.11v1.646h8.273A10.25,10.25,0,0,0,209.907,239.2Z"/><path fill="url(#yJVkrWECNbGg_Ws5pqKiPf)" d="M191.512,228.18l97.9,64.332a2.193,2.193,0,0,0,2.913-.457l9.015-11.173L197.182,208.807Z"/><path fill="#34363a" d="M301.336,280.882,190.373,204.1l-5,11.718h0l-2.777,6.506,8.918,5.86,4.1-4.7s69.539,43.292,101.139,63.082Z"/><path fill="url(#yJVkrWECNbGg_Ws5pqKiPn)" d="M216.559,210.441l104.132,65.841a1.729,1.729,0,0,1,.493,2.45l-6.169,8.846a1.729,1.729,0,0,1-2.342.472L206.484,220.907C207.6,216.132,211.269,212.82,216.559,210.441Z"/><path fill="url(#yJVkrWECNbGg_Ws5pqKiPo)" d="M36.6,181.177l48.275-13.5,19.233,6.095s13.727-7.934,12.579-18.187L56.7,128.784s-18.936,9.432-27.16,35.474A36.114,36.114,0,0,0,36.6,181.177Z"/><path fill="url(#yJVkrWECNbGg_Ws5pqKiPp)" d="M109.105,166.334,73.74,152.555c-5.855-2.134-19.366,3.072-21.746,8.831L50.442,164.7a10.65,10.65,0,0,1-5.535,5.31L41.5,171.436a6.564,6.564,0,0,1-8.033-2.444,19.768,19.768,0,0,1-2.723-8.2c-.419,1.125-.826,2.272-1.2,3.466,0,0,.66,12.1,6.84,19.982l33.1-11.634a25.866,25.866,0,0,1,17.312.054l15.576,5.586Z"/><polygon fill="#34363a" points="216.559 210.441 201.325 200.808 190.373 210.721 206.484 220.907 216.559 210.441"/><polygon fill="#34363a" points="119.088 184.24 133.022 162.888 116.685 155.587 99.336 177.157 119.088 184.24"/><path fill="#34363a" d="M29.374,185.763l7.006-1.523h0A61.136,61.136,0,0,1,34.264,167.1c.423-8.255,22.436-38.311,22.436-38.311l-8.2-4.229a7.122,7.122,0,0,0-9.036,2.145,226.363,226.363,0,0,0-17.471,28.421A31.114,31.114,0,0,0,18.565,171.3a62.163,62.163,0,0,0,1.048,8.061A8.179,8.179,0,0,0,29.374,185.763Z"/><path fill="url(#yJVkrWECNbGg_Ws5pqKiPq)" d="M138.743,161.238,164.6,177.587c7.729,7.221,15.64,13.078,24.048,15.205l12.678,8.016L185.2,222.241a5.343,5.343,0,0,1-7.233,1.234L119.088,184.24l8.624-19.632A7.607,7.607,0,0,1,138.743,161.238Z"/><rect width="17.114" height="36.718" x="271.36" y="250.348" fill="#34363a" rx="2.566" transform="rotate(34.447 279.919 268.71)"/><path fill="url(#yJVkrWECNbGg_Ws5pqKiPr)" d="M181.678,124a108.37,108.37,0,0,0-19.326-4.841,7.549,7.549,0,0,0-8.362,5.117c-.613,1.979-1.293,4.435-2.019,7.308C151.977,131.583,170.774,137.524,181.678,124Z"/><path fill="url(#yJVkrWECNbGg_Ws5pqKiPs)" d="M198.621,262.933v14.044A18.878,18.878,0,0,0,217.5,295.855h9.229a19.143,19.143,0,0,0,2.672-.187c7.447-5.466,11.333-13.2,5.35-27.244Z"/><path fill="url(#yJVkrWECNbGg_Ws5pqKiPt)" d="M104.8,269.2v6.743c0,5.994-4.33,10.853-9.672,10.853H83.412c-5.342,0-9.672-4.859-9.672-10.853V261.906A92.989,92.989,0,0,1,104.8,269.2Z"/><path fill="url(#yJVkrWECNbGg_Ws5pqKiPu)" d="M73.74,261.906c8.429,5.988,19.076,7.88,31.063,7.3V250.048H73.74Z"/><path fill="url(#yJVkrWECNbGg_Ws5pqKiPv)" d="M81.592,234.675H96.951a7.852,7.852,0,0,1,7.852,7.852v8.125a10.176,10.176,0,0,1-10.176,10.176H83.916A10.176,10.176,0,0,1,73.74,250.652v-8.125A7.852,7.852,0,0,1,81.592,234.675Z"/><path fill="url(#yJVkrWECNbGg_Ws5pqKiPw)" d="M135.866,269.6v6.351c0,5.994-4.33,10.853-9.672,10.853H114.475c-5.342,0-9.672-4.859-9.672-10.853v-13.97C115.992,262.563,126.435,264.9,135.866,269.6Z"/><path fill="url(#yJVkrWECNbGg_Ws5pqKiPx)" d="M104.8,261.831c6.577,5.918,18.16,7.359,31.063,7.619V249.9H104.8Z"/><path fill="url(#yJVkrWECNbGg_Ws5pqKiPy)" d="M112.655,234.675h15.359a7.852,7.852,0,0,1,7.852,7.852v8.125a10.176,10.176,0,0,1-10.176,10.176H114.979A10.176,10.176,0,0,1,104.8,250.652v-8.125A7.852,7.852,0,0,1,112.655,234.675Z"/><path fill="#34363a" d="M98.451,193.484l17.44-7.5a21.073,21.073,0,0,1,13.473-1.112c5.841,1.475,14.125,4.309,21.215,9.528a11.136,11.136,0,0,1,2.243,15.647h0a12.317,12.317,0,0,1-12.791,4.563l-.71-.174a12.854,12.854,0,0,0-9.5,1.35l-14.868,8.584S102.406,210.8,98.451,193.484Z"/><path fill="url(#yJVkrWECNbGg_Ws5pqKiPz)" d="M46.587,215.781l51.864-22.3a49.385,49.385,0,0,1,7.663,8.74s4.821,10.062,5.986,19.328l-57.773,28.5Z"/><path fill="#34363a" d="M185.564,197.44l3.083-4.648L164.6,177.587l-2.748,3.918a6.549,6.549,0,0,0,1.741,9.219l12.895,8.553A6.549,6.549,0,0,0,185.564,197.44Z"/><path fill="#34363a" d="M181.459,168.368l-16.028-5.146a9.772,9.772,0,0,1-6.327-12.26l12.141-38.26a9.772,9.772,0,0,1,12.3-6.349l16.028,5.146A9.773,9.773,0,0,1,205.9,123.76l-12.141,38.259A9.772,9.772,0,0,1,181.459,168.368Z"/><path fill="url(#yJVkrWECNbGg_Ws5pqKiPA)" d="M53.655,247.073,56.7,260.558l58.25-36.186a49.6,49.6,0,0,0-8.839-22.146h0s2.606,9.1-4.041,12.509l-35.5,18.017Z"/><circle cx="126.661" cy="81.56" r="3.607" fill="#af5454"/><circle cx="145.071" cy="81.56" r="3.607" fill="#af5454"/><path fill="url(#yJVkrWECNbGg_Ws5pqKiPg)" d="M176.936,114.1l-2.3,7.4a.862.862,0,0,0,.567,1.08l6.306,2.058a19.2,19.2,0,0,0,2.817-9.047l-6.306-2.058A.863.863,0,0,0,176.936,114.1Z"/><path fill="url(#yJVkrWECNbGg_Ws5pqKiPh)" d="M201.209,122.211l-2.1,6.743a1.207,1.207,0,0,1-1.512.793l-16.092-5.114,2.817-9.047,16.092,5.114A1.208,1.208,0,0,1,201.209,122.211Z"/><path fill="url(#yJVkrWECNbGg_Ws5pqKiPB)" d="M172.03,129.176l-2.3,7.4a.863.863,0,0,0,.568,1.08l6.306,2.059a19.19,19.19,0,0,0,2.816-9.048l-6.306-2.058A.862.862,0,0,0,172.03,129.176Z"/><path fill="url(#yJVkrWECNbGg_Ws5pqKiPC)" d="M196.3,137.293l-2.1,6.742a1.208,1.208,0,0,1-1.511.794L176.6,139.715l2.816-9.048,16.092,5.114A1.207,1.207,0,0,1,196.3,137.293Z"/><path fill="url(#yJVkrWECNbGg_Ws5pqKiPD)" d="M167.058,144.482l-2.3,7.4a.864.864,0,0,0,.568,1.08l6.306,2.058a19.182,19.182,0,0,0,2.816-9.047l-6.306-2.058A.862.862,0,0,0,167.058,144.482Z"/><path fill="url(#yJVkrWECNbGg_Ws5pqKiPE)" d="M191.33,152.6l-2.1,6.743a1.207,1.207,0,0,1-1.511.793l-16.092-5.114,2.816-9.047,16.092,5.114A1.207,1.207,0,0,1,191.33,152.6Z"/><rect width="13.398" height="51.711" x="176.323" y="112.904" fill="#34363a" transform="rotate(17.291 183.023 138.763)"/><path fill="#fff" d="M98.751,35.7l.042-.078a4.307,4.307,0,0,1,3.8-2.181h8.229a1.19,1.19,0,0,1,.841,2.031l-5.536,5.536a3.113,3.113,0,0,1-3.6.582l-2.16-1.081A3.567,3.567,0,0,1,98.751,35.7Z"/><path fill="#fff" d="M143.359,35.469a6.8,6.8,0,0,0-1.756,6.285,1.32,1.32,0,0,0,2.059.842l9.6-6.763a1.317,1.317,0,0,0-.759-2.393h-3.967A7.243,7.243,0,0,0,143.359,35.469Z"/><ellipse cx="43.454" cy="239.118" fill="#34363a" rx="23.92" ry="26.706" transform="rotate(-24.294 43.457 239.122)"/><path fill="url(#yJVkrWECNbGg_Ws5pqKiPF)" d="M209.584,271.839l16.649,4.853a8.263,8.263,0,0,1,5.933,8.491,25.907,25.907,0,0,1-2.768,10.462,18.866,18.866,0,0,0,16.209-18.668v-16.1L217.335,262.4Z"/><path fill="#34363a" d="M209.584,240.013h21.243a14.78,14.78,0,0,1,14.78,14.78v6.083a10.963,10.963,0,0,1-10.963,10.963H207.527a8.906,8.906,0,0,1-8.906-8.906V250.975a10.963,10.963,0,0,1,10.963-10.963Z"/><circle cx="120.335" cy="252.075" r="3.169" fill="url(#yJVkrWECNbGg_Ws5pqKiPG)"/><circle cx="89.272" cy="252.075" r="3.169" fill="url(#yJVkrWECNbGg_Ws5pqKiPH)"/></svg>