<svg xmlns="http://www.w3.org/2000/svg" xmlns:xlink="http://www.w3.org/1999/xlink" viewBox="0 0 340 340" width="500px" height="500px"><defs><linearGradient id="XZmYZmWDb59gC-SRL4s_8a" x1="243.81" x2="257.358" y1="163.055" y2="282.846" gradientUnits="userSpaceOnUse"><stop offset="0" stop-color="#ed9b7e"/><stop offset="1" stop-color="#c97a54"/></linearGradient><linearGradient id="XZmYZmWDb59gC-SRL4s_8b" x1="225.222" x2="225.222" y1="140.306" y2="297.015" gradientUnits="userSpaceOnUse"><stop offset="0" stop-color="#9b5656"/><stop offset="1" stop-color="#8e4d4d"/></linearGradient><linearGradient id="XZmYZmWDb59gC-SRL4s_8c" x1="259.772" x2="259.772" y1="241.971" y2="280.896" gradientUnits="userSpaceOnUse"><stop offset="0" stop-color="#fcd09f"/><stop offset="1" stop-color="#eda07a"/></linearGradient><linearGradient id="XZmYZmWDb59gC-SRL4s_8g" x1="93.947" x2="73.796" y1="143.795" y2="281.045" xlink:href="#XZmYZmWDb59gC-SRL4s_8a"/><linearGradient id="XZmYZmWDb59gC-SRL4s_8h" x1="96.646" x2="96.646" y1="140.306" y2="297.015" xlink:href="#XZmYZmWDb59gC-SRL4s_8b"/><linearGradient id="XZmYZmWDb59gC-SRL4s_8i" x1="175.224" x2="175.224" y1="126.344" y2="254.248" xlink:href="#XZmYZmWDb59gC-SRL4s_8c"/><linearGradient id="XZmYZmWDb59gC-SRL4s_8j" x1="152.832" x2="179.649" y1="207.552" y2="306.857" gradientUnits="userSpaceOnUse"><stop offset="0" stop-color="#d8a373"/><stop offset="1" stop-color="#bf6e58"/></linearGradient><linearGradient id="XZmYZmWDb59gC-SRL4s_8k" x1="176.092" x2="176.092" y1="140.306" y2="297.015" xlink:href="#XZmYZmWDb59gC-SRL4s_8b"/><linearGradient id="XZmYZmWDb59gC-SRL4s_8e" x1="141.183" x2="178.894" y1="100.768" y2="133.45" gradientUnits="userSpaceOnUse"><stop offset="0" stop-color="#e5b080"/><stop offset="1" stop-color="#cc7b65"/></linearGradient><linearGradient id="XZmYZmWDb59gC-SRL4s_8d" x1="171.6" x2="230.525" y1="177.691" y2="217.746" gradientUnits="userSpaceOnUse"><stop offset="0" stop-color="#9a9da6"/><stop offset="1" stop-color="#6b6d6e"/></linearGradient><linearGradient id="XZmYZmWDb59gC-SRL4s_8f" x1="112.961" x2="78.732" y1="207.167" y2="244.082" gradientUnits="userSpaceOnUse"><stop offset="0" stop-color="#ffcac0"/><stop offset="1" stop-color="#e5837c"/></linearGradient><linearGradient id="XZmYZmWDb59gC-SRL4s_8l" x1="147.369" x2="180.202" y1="279.304" y2="225.541" xlink:href="#XZmYZmWDb59gC-SRL4s_8d"/><linearGradient id="XZmYZmWDb59gC-SRL4s_8m" x1="193.13" x2="287.644" y1="180.368" y2="331.404" xlink:href="#XZmYZmWDb59gC-SRL4s_8d"/><linearGradient id="XZmYZmWDb59gC-SRL4s_8n" x1="163.023" x2="261.868" y1="188.918" y2="346.877" xlink:href="#XZmYZmWDb59gC-SRL4s_8d"/><linearGradient id="XZmYZmWDb59gC-SRL4s_8o" x1="55.3" x2="55.3" y1="140.306" y2="297.015" xlink:href="#XZmYZmWDb59gC-SRL4s_8b"/><linearGradient id="XZmYZmWDb59gC-SRL4s_8p" x1="76.746" x2="78.597" y1="212.529" y2="258.339" xlink:href="#XZmYZmWDb59gC-SRL4s_8c"/><linearGradient id="XZmYZmWDb59gC-SRL4s_8q" x1="81.456" x2="146.671" y1="164.793" y2="210.145" xlink:href="#XZmYZmWDb59gC-SRL4s_8d"/><linearGradient id="XZmYZmWDb59gC-SRL4s_8r" x1="157.001" x2="157.001" y1="273.194" y2="329.215" xlink:href="#XZmYZmWDb59gC-SRL4s_8a"/><linearGradient id="XZmYZmWDb59gC-SRL4s_8s" x1="215.279" x2="215.279" y1="274.418" y2="320.861" xlink:href="#XZmYZmWDb59gC-SRL4s_8a"/><linearGradient id="XZmYZmWDb59gC-SRL4s_8t" x1="156.055" x2="162.621" y1="16.423" y2="76.112" xlink:href="#XZmYZmWDb59gC-SRL4s_8c"/><linearGradient id="XZmYZmWDb59gC-SRL4s_8u" x1="153.31" x2="185.315" y1="42.077" y2="90.542" xlink:href="#XZmYZmWDb59gC-SRL4s_8e"/><linearGradient id="XZmYZmWDb59gC-SRL4s_8v" x1="164.887" x2="164.887" y1="65.317" y2="146.366" xlink:href="#XZmYZmWDb59gC-SRL4s_8f"/><linearGradient id="XZmYZmWDb59gC-SRL4s_8w" x1="119.634" x2="119.634" y1="273.194" y2="329.215" xlink:href="#XZmYZmWDb59gC-SRL4s_8a"/><linearGradient id="XZmYZmWDb59gC-SRL4s_8x" x1="119.634" x2="119.634" y1="140.306" y2="297.015" xlink:href="#XZmYZmWDb59gC-SRL4s_8b"/><linearGradient id="XZmYZmWDb59gC-SRL4s_8y" x1="219.505" x2="219.505" y1="140.306" y2="297.015" xlink:href="#XZmYZmWDb59gC-SRL4s_8b"/><linearGradient id="XZmYZmWDb59gC-SRL4s_8z" x1="154.954" x2="154.954" y1="140.306" y2="297.015" xlink:href="#XZmYZmWDb59gC-SRL4s_8b"/><linearGradient id="XZmYZmWDb59gC-SRL4s_8A" x1="72.352" x2="96.168" y1="218.64" y2="266.667" xlink:href="#XZmYZmWDb59gC-SRL4s_8e"/></defs><path fill="url(#XZmYZmWDb59gC-SRL4s_8a)" d="M282.735,204.741a234.1,234.1,0,0,0-14.566-19.26c-8.892-3.724-13.134-10.029-15.645-17.294-9.088-9.345-17.918-17.378-25.091-23.543,0,0-5.828,23.656-1.3,42.578a103.853,103.853,0,0,0,13.439,31.812,13.541,13.541,0,0,1,2.325,9.923,189.056,189.056,0,0,1-5.954,26.123c-2.959,9.555-11.244,8.155-18.589,4.545l.275,5.453,42.811,17.194c19.416-14.221,25.447-41.263,27.32-56.689A30.673,30.673,0,0,0,282.735,204.741Z"/><path fill="#34363a" d="M252.523,168.188l-11.55,11.825a1.954,1.954,0,0,0,.058,2.788l2.277,2.143a8.363,8.363,0,0,0,6.013,2.274,184.024,184.024,0,0,0,18.936-1.628C263.106,179.423,257.772,173.586,252.523,168.188Z"/><path fill="url(#XZmYZmWDb59gC-SRL4s_8b)" d="M214.422,201.526l21.94,14.3a13.474,13.474,0,0,1,3.21,3.214c-.3-4.94-2.709-9.476-4.853-12.6a23.03,23.03,0,0,1-3.925-11.524l-3.362-50.271c-9.834-8.45-16.559-13.4-16.559-13.4Z"/><path fill="url(#XZmYZmWDb59gC-SRL4s_8c)" d="M236.066,243.52s24.544-3.954,43.468,7.954A8.567,8.567,0,0,1,282.322,263c-2.668,4.619-6.81,10.515-12.117,14.084Z"/><path fill="#34363a" d="M199.88,81.184a39.589,39.589,0,0,0,7.271,22.159L205,105.026a3.638,3.638,0,0,1-5.366-.99c-2.349-3.954-5.693-10.96-5.8-18.928Z"/><path fill="#34363a" d="M130.205,81.242a39.585,39.585,0,0,1-7.272,22.159l2.156,1.683a3.638,3.638,0,0,0,5.366-.99c2.349-3.954,5.694-10.96,5.8-18.928Z"/><path fill="#34363a" d="M254.544,264.225a3.5,3.5,0,0,1-2.766-5.642l7.674-9.921a.917.917,0,0,0,.1-.993.928.928,0,0,0-.847-.559l-27.25-.763a3.5,3.5,0,1,1,.2-7l27.279.764A7.976,7.976,0,0,1,265,252.929l-7.686,9.938A3.5,3.5,0,0,1,254.544,264.225Z"/><path fill="url(#XZmYZmWDb59gC-SRL4s_8g)" d="M133.248,134.015s-19.9-.28-41.764,23.265c-5.777,11.275-16.586,22.286-28.9,33.218-10.19,12.943-20.179,27.514-27.7,42.988a21.663,21.663,0,0,0-.607,17.89c5.6,6.922,13.693,9.266,24.332,6.949L80.4,253.109,85.037,229.6l43.52-1.682Z"/><path fill="url(#XZmYZmWDb59gC-SRL4s_8h)" d="M78.181,208.929l47.94,6.088,4.672-31.866-8.8-10.506-29.61-15.078S72.621,177.739,62.5,190.605c2.114,3.176,5.535,6.411,12.148,9.954a33.112,33.112,0,0,0-9.388,3.405,2.643,2.643,0,0,0,1.26,4.965Z"/><path fill="url(#XZmYZmWDb59gC-SRL4s_8i)" d="M123.168,134.878l-.844,27.144s9.2,68.386-2.894,93.115l-1.736,55.851,115.06,1.577L216.1,134.455a14.718,14.718,0,0,0-7.182-11.48q-.639-.375-1.393-.778c-5.47-2.918-70.649-6.843-79.572,2.189q-.51.517-1.011,1.075A14.818,14.818,0,0,0,123.168,134.878Z"/><polygon fill="url(#XZmYZmWDb59gC-SRL4s_8j)" points="119.43 255.137 117.694 310.988 232.754 312.565 226.657 247.377 137.273 183.151 119.43 255.137"/><path fill="url(#XZmYZmWDb59gC-SRL4s_8k)" d="M230.3,286.32l2.455-27.144-63.286-52.892L151.123,193.1l-26.632-6.057-2.973.906-2.088,67.186h29.376s2.077,13.139,7.828,22.324a16.424,16.424,0,0,0,13.932,7.67h15.176a3.668,3.668,0,0,0,3.481-4.84c-2.043-6.068-4.6-16.843-1.333-26.483l26.794,17.107a5.628,5.628,0,0,1,2.573,5.537,20.532,20.532,0,0,1-.982,3.9Z"/><path fill="url(#XZmYZmWDb59gC-SRL4s_8e)" d="M164.887,140.469c22.449,0,36.007-10.877,42.631-18.268a59.637,59.637,0,0,0-27.288-6.686H148.068a30.16,30.16,0,0,0-20.117,8.874C133.542,131.561,144.571,140.469,164.887,140.469Z"/><polygon fill="#34363a" points="184.819 187.843 175.224 200.55 188.619 208.929 197.604 196.779 184.819 187.843"/><path fill="url(#XZmYZmWDb59gC-SRL4s_8d)" d="M199.99,207.453l-26.172-18.328a2.844,2.844,0,0,1-.605-4.085l6.921-8.811a2.842,2.842,0,0,1,3.866-.573L209.765,193.7a2.842,2.842,0,0,1,.681,3.983l-6.514,9.1A2.843,2.843,0,0,1,199.99,207.453Z"/><polygon fill="url(#XZmYZmWDb59gC-SRL4s_8f)" points="112.315 208.929 93.441 208.929 91.309 231.213 114.269 225.048 112.315 208.929"/><path fill="url(#XZmYZmWDb59gC-SRL4s_8l)" d="M152.72,227.206c-4.869,10.709-9.852,27.605-3.5,43.991a7.642,7.642,0,0,0,7.112,4.91h17.923a2.723,2.723,0,0,0,2.594-3.572c-2.079-6.325-5.271-19.945.655-31.778C171.136,233.5,162.712,229.223,152.72,227.206Z"/><path fill="#34363a" d="M263.4,277.227l34.572,24.419a3.227,3.227,0,0,0,4.4-.638l4.308-5.465a3.229,3.229,0,0,0-.673-4.635l-32.4-22.884Z"/><polygon fill="#34363a" points="77.17 177.614 97.766 154.509 133.248 181.746 86.852 187.555 77.17 177.614"/><path fill="#34363a" d="M177.517,240.764a29.194,29.194,0,0,1,5.324-7.455L158.926,216a74.372,74.372,0,0,0-6.2,11.2l12.759,6.977c-.742,1.791-1.516,3.892-2.224,6.242l-5.417-1.74-1.529,4.76,5.694,1.828a57.993,57.993,0,0,0-1.11,7.293l-5.708-.912-.788,4.938,6.3,1.006a48.634,48.634,0,0,0,.638,7.486l-5.013-.031-.031,5,6.168.038a45.114,45.114,0,0,0,2.153,6.014h5.421c-6.4-18.477-2.743-32,.548-39.134Z"/><path fill="url(#XZmYZmWDb59gC-SRL4s_8m)" d="M273.6,268.024l-56.585-39.967a30.354,30.354,0,0,0-7.693,19.12l51.937,36.9Z"/><polygon fill="#34363a" points="139.878 194.072 161.466 208.971 168.766 194.059 151.264 181.511 139.878 194.072"/><polygon fill="#34363a" points="209.321 247.177 217.014 228.057 212.504 224.871 200.293 240.764 209.321 247.177"/><path fill="#34363a" d="M148.806,124.388V153.4a10.311,10.311,0,0,0,10.311,10.312h11.54A10.311,10.311,0,0,0,180.968,153.4V124.388Z"/><polygon fill="#d8726f" points="114.269 225.048 91.686 227.276 90.507 239.601 115.528 235.43 114.269 225.048"/><path fill="#d8726f" d="M148.806,105.482h32.162a0,0,0,0,1,0,0v18.906a16.081,16.081,0,0,1-16.081,16.081h0a16.081,16.081,0,0,1-16.081-16.081V105.482A0,0,0,0,1,148.806,105.482Z"/><path fill="url(#XZmYZmWDb59gC-SRL4s_8n)" d="M168.758,193.974l43.746,30.9-13.532,18.282a4.955,4.955,0,0,1-6.87,1.078l-38.924-27.925Z"/><path fill="url(#XZmYZmWDb59gC-SRL4s_8o)" d="M76.319,248.912l-18.087,5.245c-11.388,2.628-19.118.2-23.95-2.783a21.672,21.672,0,0,0,24.556,13.234,91.1,91.1,0,0,0,11.9-3.338Z"/><path fill="#34363a" d="M112.315,208.929h39.809a6.356,6.356,0,0,1,6.356,6.355v8.563a12.328,12.328,0,0,1-3.872,8.971l-11.684,11.02a11.573,11.573,0,0,1-7.941,3.154H120.744a8.429,8.429,0,0,1-8.429-8.429Z"/><path fill="url(#XZmYZmWDb59gC-SRL4s_8p)" d="M66.579,251.507c-.881-10.6-.543-25.079,5.005-38.236a7.15,7.15,0,0,1,6.6-4.342H85.9C93.951,235.219,87.151,254.075,66.579,251.507Z"/><path fill="url(#XZmYZmWDb59gC-SRL4s_8q)" d="M101.43,146.419a9.212,9.212,0,0,0-12.757,2.1l-18.234,25a11.651,11.651,0,0,0,.713,14.616L74.6,192a8.516,8.516,0,0,0,8.635,2.539,96.682,96.682,0,0,1,16.929-3.309c13.736-.962,26.523,5.545,31.471,8.557a5.224,5.224,0,0,0,6.862-1.255l12.77-17.023Zm12.031,32.774c-5.39-1.051-17.558-1.505-26.154-.753a2.225,2.225,0,0,1-1.9-3.661l9.377-10.945a4.227,4.227,0,0,1,5.763-.741l16.081,11.717C118.844,176.425,116.151,179.717,113.461,179.193Z"/><polygon fill="#34363a" points="194.351 325.254 170.036 325.254 168.074 305.247 199.892 305.247 194.351 325.254"/><path fill="url(#XZmYZmWDb59gC-SRL4s_8r)" d="M170.036,325.254H147.1l-3.128-17.087L147.1,289.4h12.63a10.311,10.311,0,0,1,10.311,10.311Z"/><path fill="url(#XZmYZmWDb59gC-SRL4s_8s)" d="M216.275,280.353h-7.534a14.39,14.39,0,0,0-14.39,14.39v17.822s33.7,16.592,41.122-9.666C240.7,284.416,216.275,280.353,216.275,280.353Z"/><path fill="#34363a" d="M193.864,231.886a3.48,3.48,0,0,1-2.05-.666l-.933-.676a3.5,3.5,0,1,1,4.106-5.669l.933.676a3.5,3.5,0,0,1-2.056,6.335Z"/><path fill="#34363a" d="M183.6,224.452a3.483,3.483,0,0,1-2.049-.665l-11-7.959a3.5,3.5,0,0,1,4.1-5.67l10.994,7.959a3.5,3.5,0,0,1-2.055,6.335Z"/><path fill="#34363a" d="M199.759,80.114l-8.139,1.744c0,28.534-26.733,29.8-26.733,29.8s-26.734-1.269-26.734-29.8l-8.139-1.744s-4.052,39.62,34.873,41.42C203.811,119.734,199.759,80.114,199.759,80.114Z"/><path fill="url(#XZmYZmWDb59gC-SRL4s_8t)" d="M197.622,29.62c-13.817-15.065-32.735-15.065-32.735-15.065s-35.741,0-44.85,39.12c0,0,14.08,19,45.833,10.589S197.622,29.62,197.622,29.62Z"/><path fill="url(#XZmYZmWDb59gC-SRL4s_8u)" d="M203.945,78.549a16.243,16.243,0,0,0,7.38-15.256c-1.637-15.785-7.087-26.453-13.706-33.67-15.5,31.973-61.346,27.546-77.575,24.054a77.552,77.552,0,0,0-1.595,9.616,16.24,16.24,0,0,0,7.379,15.256L138.6,86.823h52.584Z"/><path fill="#34363a" d="M160.156,45.511h9.462a6.065,6.065,0,0,1,6.065,6.065V81.858a0,0,0,0,1,0,0H154.09a0,0,0,0,1,0,0V51.576A6.065,6.065,0,0,1,160.156,45.511Z"/><path fill="url(#XZmYZmWDb59gC-SRL4s_8v)" d="M164.887,114.373h0a28.628,28.628,0,0,1-28.628-28.628v-.579c.333-6.493,3-12.806,6.837-19.029l35.5-2.92c10.46.223,13.883,5.042,14.921,11.419V85.745A28.628,28.628,0,0,1,164.887,114.373Z"/><circle cx="154.9" cy="82.114" r="3.511" fill="#af5454"/><circle cx="174.873" cy="82.114" r="3.511" fill="#af5454"/><path fill="#e5837c" d="M179.06,59.273H150.713a14.454,14.454,0,0,0-14.454,14.454V85.166s5.113-17.3,16.719-17.3h28.908s8.387-.48,11.628,6.77v-.909A14.454,14.454,0,0,0,179.06,59.273Z"/><path fill="url(#XZmYZmWDb59gC-SRL4s_8w)" d="M99.4,305.581V284.548a11.927,11.927,0,0,1,11.927-11.927h16.621a11.927,11.927,0,0,1,11.927,11.927v23.894A50.772,50.772,0,0,1,116.81,314.3C103.86,314.3,99.4,305.581,99.4,305.581Z"/><path fill="url(#XZmYZmWDb59gC-SRL4s_8x)" d="M111.311,308.442c-6.286,0-9.87-1.294-11.914-2.861v7.746a11.927,11.927,0,0,0,11.927,11.927h28.548V308.442Z"/><path fill="url(#XZmYZmWDb59gC-SRL4s_8y)" d="M216.275,280.353s-4.524,10.259,5.84,22.379a5.961,5.961,0,0,1,.216,7.468h0a5.969,5.969,0,0,1-4.758,2.365H194.351v12.689l42.391.191a7.917,7.917,0,0,0,7.917-7.917V280.353Z"/><path fill="#34363a" d="M238.335,262.738,261.7,273.679a11.524,11.524,0,0,1,6.391,12.8l-1.288,6.143a12.962,12.962,0,0,1-14.462,10.156,80.559,80.559,0,0,1-21.715-6.095,16.328,16.328,0,0,1-9.634-14.572,42.645,42.645,0,0,1,1.333-11.979A11.516,11.516,0,0,1,238.335,262.738Z"/><path fill="url(#XZmYZmWDb59gC-SRL4s_8z)" d="M147.1,304.1V289.4h-7.223v35.858h30.164V312.565H155.564A8.469,8.469,0,0,1,147.1,304.1Z"/><polygon fill="#34363a" points="225.932 245.233 231.236 238.102 226.94 235.068 221.602 242.244 225.932 245.233"/><polygon fill="#34363a" points="237.344 253.109 242.558 246.1 238.262 243.065 233.014 250.121 237.344 253.109"/><polygon fill="#34363a" points="248.678 260.933 253.804 254.043 249.508 251.008 244.348 257.944 248.678 260.933"/><polygon fill="#34363a" points="257.41 266.959 261.74 269.948 266.763 263.196 262.467 260.162 257.41 266.959"/><path fill="url(#XZmYZmWDb59gC-SRL4s_8A)" d="M75.217,266.79a92.4,92.4,0,0,0,19.846-3.929,3.564,3.564,0,0,0,2.409-4.266c-6.021-23.861-4.031-49.666-4.031-49.666H85.9c5.835,30.871-16.209,41.276-19.322,42.578.309,3.715.766,6.958,1.2,9.5A7,7,0,0,0,75.217,266.79Z"/></svg>