<svg xmlns="http://www.w3.org/2000/svg" xmlns:xlink="http://www.w3.org/1999/xlink" viewBox="0 0 340 340" width="500px" height="500px"><defs><linearGradient id="9LQvIlvsZCndxGrlLphhGd" x1="286.729" x2="286.729" y1="345.303" y2="305.347" gradientUnits="userSpaceOnUse"><stop offset="0" stop-color="#f2a399"/><stop offset="1" stop-color="#e58c83"/></linearGradient><linearGradient id="9LQvIlvsZCndxGrlLphhGa" x1="277.503" x2="277.503" y1="59.014" y2="342.554" gradientUnits="userSpaceOnUse"><stop offset="0" stop-color="#898ba5"/><stop offset="1" stop-color="#656778"/></linearGradient><linearGradient id="9LQvIlvsZCndxGrlLphhGb" x1="305.76" x2="280.612" y1="258.145" y2="293.272" gradientUnits="userSpaceOnUse"><stop offset="0" stop-color="#f7e69f"/><stop offset="1" stop-color="#f7b26f"/></linearGradient><linearGradient id="9LQvIlvsZCndxGrlLphhGc" x1="296.761" x2="276.004" y1="246.495" y2="274.637" gradientUnits="userSpaceOnUse"><stop offset="0" stop-color="#f4d28d"/><stop offset="1" stop-color="#f49e5d"/></linearGradient><linearGradient id="9LQvIlvsZCndxGrlLphhGg" x1="122.137" x2="122.137" y1="122.53" y2="323.485" xlink:href="#9LQvIlvsZCndxGrlLphhGa"/><linearGradient id="9LQvIlvsZCndxGrlLphhGh" x1="238.766" x2="238.766" y1="64.304" y2="328.255" xlink:href="#9LQvIlvsZCndxGrlLphhGa"/><linearGradient id="9LQvIlvsZCndxGrlLphhGi" x1="197.681" x2="197.867" y1="112.743" y2="184.597" gradientUnits="userSpaceOnUse"><stop offset="0" stop-color="#becce5"/><stop offset="1" stop-color="#a8bad4"/></linearGradient><linearGradient id="9LQvIlvsZCndxGrlLphhGj" x1="244.019" x2="244.019" y1="165.092" y2="189.44" xlink:href="#9LQvIlvsZCndxGrlLphhGb"/><linearGradient id="9LQvIlvsZCndxGrlLphhGk" x1="161.995" x2="176.276" y1="107.113" y2="181.579" xlink:href="#9LQvIlvsZCndxGrlLphhGa"/><linearGradient id="9LQvIlvsZCndxGrlLphhGl" x1="260.647" x2="235.823" y1="178.69" y2="173.703" xlink:href="#9LQvIlvsZCndxGrlLphhGc"/><linearGradient id="9LQvIlvsZCndxGrlLphhGm" x1="215.73" x2="215.73" y1="121.693" y2="211.761" xlink:href="#9LQvIlvsZCndxGrlLphhGa"/><linearGradient id="9LQvIlvsZCndxGrlLphhGf" x1="234.345" x2="249.962" y1="203.266" y2="208.146" gradientUnits="userSpaceOnUse"><stop offset="0" stop-color="#f7f7f7"/><stop offset="1" stop-color="#f3f7f7"/></linearGradient><linearGradient id="9LQvIlvsZCndxGrlLphhGn" x1="241.509" x2="238.263" y1="216.351" y2="238.085" xlink:href="#9LQvIlvsZCndxGrlLphhGb"/><linearGradient id="9LQvIlvsZCndxGrlLphhGo" x1="193.453" x2="193.453" y1="58.321" y2="109.781" xlink:href="#9LQvIlvsZCndxGrlLphhGd"/><linearGradient id="9LQvIlvsZCndxGrlLphhGp" x1="215.136" x2="199.41" y1="61.139" y2="38.042" xlink:href="#9LQvIlvsZCndxGrlLphhGa"/><linearGradient id="9LQvIlvsZCndxGrlLphhGq" x1="183.475" x2="183.475" y1="53.208" y2="261.643" xlink:href="#9LQvIlvsZCndxGrlLphhGa"/><linearGradient id="9LQvIlvsZCndxGrlLphhGr" x1="136.06" x2="136.06" y1="48.287" y2="80.742" xlink:href="#9LQvIlvsZCndxGrlLphhGd"/><linearGradient id="9LQvIlvsZCndxGrlLphhGs" x1="83.36" x2="94.511" y1="79.644" y2="110.813" xlink:href="#9LQvIlvsZCndxGrlLphhGb"/><linearGradient id="9LQvIlvsZCndxGrlLphhGe" x1="158.687" x2="152.398" y1="242.184" y2="256.308" gradientUnits="userSpaceOnUse"><stop offset="0" stop-color="#eaf7f7"/><stop offset="1" stop-color="#d4f1f7"/></linearGradient><linearGradient id="9LQvIlvsZCndxGrlLphhGt" x1="145.516" x2="161.958" y1="212.691" y2="226.471" xlink:href="#9LQvIlvsZCndxGrlLphhGb"/><linearGradient id="9LQvIlvsZCndxGrlLphhGu" x1="255.898" x2="278.946" y1="120.458" y2="144.177" xlink:href="#9LQvIlvsZCndxGrlLphhGb"/><linearGradient id="9LQvIlvsZCndxGrlLphhGv" x1="108.684" x2="141.841" y1="120.791" y2="131.106" xlink:href="#9LQvIlvsZCndxGrlLphhGb"/><linearGradient id="9LQvIlvsZCndxGrlLphhGw" x1="113.837" x2="106.662" y1="63.891" y2="109.396" xlink:href="#9LQvIlvsZCndxGrlLphhGc"/><linearGradient id="9LQvIlvsZCndxGrlLphhGx" x1="112.143" x2="136.861" y1="121.175" y2="131.353" xlink:href="#9LQvIlvsZCndxGrlLphhGc"/><linearGradient id="9LQvIlvsZCndxGrlLphhGy" x1="174.916" x2="162.78" y1="209.038" y2="226.263" xlink:href="#9LQvIlvsZCndxGrlLphhGc"/><linearGradient id="9LQvIlvsZCndxGrlLphhGz" x1="209.428" x2="218.524" y1="30.868" y2="40.825" xlink:href="#9LQvIlvsZCndxGrlLphhGe"/><linearGradient id="9LQvIlvsZCndxGrlLphhGA" x1="155.546" x2="134.053" y1="191.782" y2="206.917" xlink:href="#9LQvIlvsZCndxGrlLphhGf"/><linearGradient id="9LQvIlvsZCndxGrlLphhGB" x1="156.512" x2="175.162" y1="191.47" y2="207.292" gradientUnits="userSpaceOnUse"><stop offset="0" stop-color="#f77294"/><stop offset="1" stop-color="#f65a81"/></linearGradient><linearGradient id="9LQvIlvsZCndxGrlLphhGC" x1="152.816" x2="165.284" y1="265.258" y2="251.466" gradientUnits="userSpaceOnUse"><stop offset=".004" stop-color="#cae9f7"/><stop offset="1" stop-color="#a0c9f7"/></linearGradient><linearGradient id="9LQvIlvsZCndxGrlLphhGD" x1="252.284" x2="240.994" y1="219.394" y2="238.305" xlink:href="#9LQvIlvsZCndxGrlLphhGc"/><linearGradient id="9LQvIlvsZCndxGrlLphhGE" x1="233.222" x2="246.366" y1="200.591" y2="209.456" gradientUnits="userSpaceOnUse"><stop offset="0" stop-color="#eaefed"/><stop offset="1" stop-color="#d4efed"/></linearGradient><linearGradient id="9LQvIlvsZCndxGrlLphhGF" x1="270.976" x2="266.511" y1="98.735" y2="137.464" xlink:href="#9LQvIlvsZCndxGrlLphhGc"/></defs><path fill="url(#9LQvIlvsZCndxGrlLphhGd)" d="M306.52,303.61h0a23.3,23.3,0,0,1-23.178,25.661h-8.973l-7.554-22.747S285.09,297.6,306.52,303.61Z"/><path fill="url(#9LQvIlvsZCndxGrlLphhGa)" d="M306.52,303.61l-2.014-19.753a31.279,31.279,0,0,1-1.461-14.32c-2.885-28.378-9.692-96.056-10.015-106.043C292.62,150.8,287,147.981,287,147.981c-42.6,11.907-43.776,88.806-32.348,130.968l23.835,26.718Z"/><path fill="url(#9LQvIlvsZCndxGrlLphhGb)" d="M303.045,269.537l-23.834,1.732c-1.485,4.892-.637,9.624,2.041,14.229l23.254-1.641S303.825,277.212,303.045,269.537Z"/><path fill="url(#9LQvIlvsZCndxGrlLphhGc)" d="M264.436,272.343c.233,5.2.506,10.012.783,14.285l16.033-1.13-2.041-14.229Z"/><polygon fill="#34363a" points="269.931 282.538 274.369 329.271 125.933 329.271 135.796 279.826 269.931 282.538"/><path fill="url(#9LQvIlvsZCndxGrlLphhGg)" d="M202.741,292.466,188.814,315.4s-32.063,3.411-61.967-10.633a8.13,8.13,0,0,1-4.215-10.188c.535-1.428,1.172-3,1.919-4.632a22.831,22.831,0,0,0,2.017-8.656c.609-16.38,1.435-68.3-11.155-92.04-30.8-4.6-63.8-8.829-73.188-17.042q-.651-.956-1.217-1.977l-5.18-9.342a19.551,19.551,0,0,1,.895-20.418c7.558-11.205,20.8-30.171,35.717-48.52,6.073-2.479,10.009-6.17,10.126-12.028,4.249-4.856,8.556-9.524,12.839-13.832a2.548,2.548,0,0,1,3.5-.1l28.025,24.888-11.357,18.432c-3.989,2.574-7.1,6.058-7.569,12.286l-8.238,13.372s42.345-17.812,65.166-21.946l45.968,78.72Z"/><path fill="url(#9LQvIlvsZCndxGrlLphhGh)" d="M190.538,203.656v73.471a23.994,23.994,0,0,0,4.74,14.318l17.7,21.546s30.819,2.577,56-11.894a11.743,11.743,0,0,0,5.705-12.429c-4.556-23.311-15.2-94.287,12.313-140.687l-55.518-30.326-9.9,22.983-2.022,29.742Z"/><path fill="#f7f7f7" d="M170.165,110.044l45.671-4.749s10.524,54.121-12.671,80.078C203.165,185.373,159.152,151.934,170.165,110.044Z"/><path fill="url(#9LQvIlvsZCndxGrlLphhGi)" d="M183.635,108.643l-6.429,7.418s6.905,12.661,24.049,14.446a6.587,6.587,0,0,1,5.882,5.978c.669,7.693.609,21.933-6.316,35.719a54.949,54.949,0,0,0-3.384,8.214c3.421,3.2,5.728,4.955,5.728,4.955,23.2-25.957,12.671-80.078,12.671-80.078Z"/><path fill="#34363a" d="M195.755,137.738h2.961A2.225,2.225,0,0,1,200.73,139c2.078,4.35,8.742,19.222,10.168,33.8l-8.157,16.443L187.7,171.556s1.59-19.032,5.929-32.262A2.244,2.244,0,0,1,195.755,137.738Z"/><rect width="29.702" height="14.997" x="229.168" y="167.204" fill="url(#9LQvIlvsZCndxGrlLphhGj)" rx="1.905"/><path fill="url(#9LQvIlvsZCndxGrlLphhGk)" d="M176.574,101.328a123.934,123.934,0,0,1-16.364,11.624,12.839,12.839,0,0,0-5.676,7.128,232.9,232.9,0,0,0-7.152,27.6,2.147,2.147,0,0,0,2.106,2.542H164.93a34.832,34.832,0,0,1-4.219,12.99,3.168,3.168,0,0,0,.27,3.668c3.419,4.081,12.941,14.187,29.786,23.041,4.165-2.428,6.218-6.331,7.6-10.7C187.391,164.262,169.735,134.031,176.574,101.328Z"/><path fill="#34363a" d="M206.348,189.019a109.376,109.376,0,0,1-7.983-9.805A61.077,61.077,0,0,1,190.937,190c3.054,1.6,6.344,3.158,9.884,4.63Z"/><path fill="#c66765" d="M194.11,123.743H192.4a18.87,18.87,0,0,1-18.87-18.87V93.991h39.45l.5,11.3C213.477,115.717,204.532,123.743,194.11,123.743Z"/><path fill="url(#9LQvIlvsZCndxGrlLphhGl)" d="M229.168,169.249v10.907a1.924,1.924,0,0,0,1.775,2.045h11.948c5.15-5.148,7.922-15,7.922-15h-19.87A1.924,1.924,0,0,0,229.168,169.249Z"/><path fill="url(#9LQvIlvsZCndxGrlLphhGm)" d="M213.178,101.958c1.149,11.465,5.953,74.064-22.64,101.7l5.376,3.84a5.69,5.69,0,0,0,6.661-.023c6.627-4.832,21.69-17.542,35.087-41.306a3.145,3.145,0,0,0-.121-3.268l-10.547-15.978,12.193-2.373a2.137,2.137,0,0,0,1.718-2.358,166.479,166.479,0,0,0-4.755-24.433,10.465,10.465,0,0,0-5.948-6.7,63.481,63.481,0,0,1-15.843-9.721A.721.721,0,0,0,213.178,101.958Z"/><path fill="url(#9LQvIlvsZCndxGrlLphhGf)" d="M229.515,208.392a5.71,5.71,0,0,1-.347-1.969h0a5.722,5.722,0,0,1,5.722-5.723h14.035a5.7,5.7,0,0,1,3.74,1.392s4.148,5.852-2.946,8.34A23.233,23.233,0,0,1,229.515,208.392Z"/><path fill="url(#9LQvIlvsZCndxGrlLphhGn)" d="M236.59,236.114a9.377,9.377,0,1,1,11.6-14.648C245.771,227.616,242.075,232.648,236.59,236.114Z"/><path fill="#c66765" d="M166.953,82.117s-13.5,1.459-14.712-11.794,4.61-18,12.822-18.6Z"/><path fill="#c66765" d="M219.558,82.117s13.5,1.459,14.712-11.794-4.61-18-12.823-18.6Z"/><path fill="url(#9LQvIlvsZCndxGrlLphhGo)" d="M196.864,105.3h-7.218a23.535,23.535,0,0,1-23.52-22.7l-.435-12.624c10.43-13.963,55.523-11.477,55.523-11.477l-.829,24.1A23.536,23.536,0,0,1,196.864,105.3Z"/><path fill="#c66765" d="M164.93,47.861l.761,22.109a47.823,47.823,0,0,0,15.622-7.011,8.691,8.691,0,0,1,5.362-1.514c13.462.763,27.967-1.656,34.539-2.952l1.667-10.632Z"/><path fill="url(#9LQvIlvsZCndxGrlLphhGp)" d="M216.923,14.218s17.486,3.909,14.124,31.479A6.156,6.156,0,0,1,225.973,51c-9.7,1.664-33.865,4.928-55.808.768C170.165,51.771,180.053,14.218,216.923,14.218Z"/><path fill="url(#9LQvIlvsZCndxGrlLphhGq)" d="M192.375,37.386a123.46,123.46,0,0,0,6.8-10.423S206,15.356,216.923,14.218c0,0-42.932-13.634-65.769,14.574,0,0-5.651,13,8.363,22.283S192.375,37.386,192.375,37.386Z"/><path fill="#34363a" d="M164.017,44.132c-11.781-2.583-13.925-8.495-12.863-15.34-5.146,6.475-9.263,15.125-11.612,26.621L153.026,64.4s19.291.451,39.34-27.02C189.845,40.268,182.265,48.133,164.017,44.132Z"/><path fill="url(#9LQvIlvsZCndxGrlLphhGr)" d="M165.171,54.56,165.05,52.8a1.793,1.793,0,0,0-1.852-1.668L127.168,52.4a18.308,18.308,0,0,0-11.7,4.775l-8.517,7.776c5.727,5.821,12.175,10.759,21.737,11.883Z"/><path fill="#c66765" d="M165.376,57.521l-.205-2.961-27.723,8.723a18.012,18.012,0,0,0-6.361,3.545L127.1,70.267a5.21,5.21,0,0,1-5.417.861L106.95,64.953,102.4,69.1l24.524,21.78,7.8-11.158a13.3,13.3,0,0,1,5.738-4.637L159.5,67.074A9.644,9.644,0,0,0,165.376,57.521Z"/><path fill="url(#9LQvIlvsZCndxGrlLphhGs)" d="M82.569,79.927c-3.429,3.918-6.82,7.955-10.128,12.025,9.519,4.933,18.405,12.324,25.121,18.738,5.777-2.072,8-6.38,7.871-12.177A215.358,215.358,0,0,0,82.569,79.927Z"/><path fill="url(#9LQvIlvsZCndxGrlLphhGe)" d="M151.483,261.084a9.377,9.377,0,0,1,11.643-14.7C160.784,253.174,157.1,258.319,151.483,261.084Z"/><path fill="url(#9LQvIlvsZCndxGrlLphhGt)" d="M166.405,229.438H148.821a6.609,6.609,0,0,1-6.608-6.608h0a6.608,6.608,0,0,1,6.608-6.608h17.584a6.608,6.608,0,0,1,6.608,6.608h0A6.609,6.609,0,0,1,166.405,229.438Z"/><path fill="url(#9LQvIlvsZCndxGrlLphhGu)" d="M250.618,126.118a8.253,8.253,0,0,1,11.256-3.985l18.662,9.444a7.485,7.485,0,0,1,4.063,7.469s-3.55,9.947-24.543-1.075C251.017,133.225,250.618,126.118,250.618,126.118Z"/><path fill="url(#9LQvIlvsZCndxGrlLphhGv)" d="M133.989,114.141a8.124,8.124,0,0,0-2.157.5l-19.31,7.311a7.387,7.387,0,0,0-4.264,9.6l1.2,3.077c.059.149.121.3.188.438,4.676,4.375,17.066-.8,29.408-5.922C141.373,120.325,139.386,115.609,133.989,114.141Z"/><path fill="url(#9LQvIlvsZCndxGrlLphhGw)" d="M108,121.6l7.569-12.286a116.516,116.516,0,0,0-10.143-10.8l-7.866,12.173C102.3,115.217,105.964,119.258,108,121.6Z"/><path fill="url(#9LQvIlvsZCndxGrlLphhGx)" d="M143.138,121.8l-.675-2.068a8.144,8.144,0,0,0-8.473-5.582c.425.217,2.34,1.365,4.037,5.1l.426,1.328a5.778,5.778,0,0,1-3.332,7.122l-18.516,7.5a11.039,11.039,0,0,1-6.948-.136,7.38,7.38,0,0,0,9.165,3.832L138.13,132A8.148,8.148,0,0,0,143.138,121.8Z"/><path fill="url(#9LQvIlvsZCndxGrlLphhGy)" d="M166.405,216.222h-4.686l-10.466,13.216h15.152a6.608,6.608,0,0,0,0-13.216Z"/><path fill="url(#9LQvIlvsZCndxGrlLphhGz)" d="M219.413,32.633a1.5,1.5,0,0,0-1.037-1.439,23.872,23.872,0,0,1-4.236-2.037,1.367,1.367,0,0,0-1.325,0,24.185,24.185,0,0,1-4.236,2.037,1.5,1.5,0,0,0-1.038,1.439v3.722a5.5,5.5,0,0,0,1.1,3.35,8,8,0,0,0,4.22,3.082,2.393,2.393,0,0,0,1.239,0,8.331,8.331,0,0,0,4.219-3.082,5.5,5.5,0,0,0,1.1-3.35Z"/><path fill="url(#9LQvIlvsZCndxGrlLphhGA)" d="M155.482,190.971H139.941a2.507,2.507,0,0,0-2.507,2.507v8.2a2.508,2.508,0,0,0,2.507,2.507h15.541A17.2,17.2,0,0,0,155.482,190.971Z"/><path fill="url(#9LQvIlvsZCndxGrlLphhGB)" d="M171.023,190.971H155.482v13.216h15.541a2.507,2.507,0,0,0,2.507-2.507v-8.2A2.506,2.506,0,0,0,171.023,190.971Z"/><path fill="url(#9LQvIlvsZCndxGrlLphhGC)" d="M163.121,246.388l-11.634,14.691a9.37,9.37,0,1,0,11.634-14.691Z"/><path fill="url(#9LQvIlvsZCndxGrlLphhGD)" d="M248.185,221.473l-11.593,14.638a9.37,9.37,0,0,0,11.593-14.638Z"/><path fill="url(#9LQvIlvsZCndxGrlLphhGE)" d="M254.647,206.423a5.706,5.706,0,0,0-1.985-4.328c.349,1.418.828,4.6-1.279,6.476a4.317,4.317,0,0,1-2.882,1.01H235.069a12.73,12.73,0,0,1-5.4-1.118c-.049-.023-.1-.049-.146-.073a5.719,5.719,0,0,0,5.368,3.755h14.035A5.722,5.722,0,0,0,254.647,206.423Z"/><path fill="url(#9LQvIlvsZCndxGrlLphhGF)" d="M282.253,144.672l1.543-2.97a7.444,7.444,0,0,0,.8-2.656,8.253,8.253,0,0,1-10.323,2.262s-7.7-3.706-16.274-8.05c-5.4-2.734-6.964-5.466-7.387-7.117l-.892,1.988a8.253,8.253,0,0,0,3.946,10.813l18.7,9.019A7.482,7.482,0,0,0,282.253,144.672Z"/><circle cx="184.09" cy="70.282" r="3.607" fill="#34363a"/><circle cx="202.741" cy="70.282" r="3.607" fill="#34363a"/><path fill="#34363a" d="M283.342,332.771h-8.973a3.5,3.5,0,0,1,0-7h8.973a19.8,19.8,0,0,0,19.7-21.806,3.5,3.5,0,0,1,6.964-.71,26.8,26.8,0,0,1-26.66,29.516Z"/><path fill="#34363a" d="M273.719,309.517a3.5,3.5,0,0,1-.253-6.991l29.207-2.143-1.649-16.171a3.5,3.5,0,0,1,6.964-.71L310,303.255a3.5,3.5,0,0,1-3.225,3.846l-32.8,2.406C273.892,309.514,273.805,309.517,273.719,309.517Z"/><path fill="#34363a" d="M303.04,273.038a3.5,3.5,0,0,1-3.477-3.147c-2.907-28.593-9.7-96.188-10.031-106.284-.325-10.04-4.195-12.542-4.234-12.566a.9.9,0,0,0,.127.068l3.14-6.256c.766.384,7.5,4.171,7.963,18.528.32,9.877,7.1,77.281,10,105.8a3.5,3.5,0,0,1-3.128,3.836C303.279,273.031,303.159,273.038,303.04,273.038Z"/><path fill="#34363a" d="M274.365,332.771a3.5,3.5,0,0,1-3.48-3.169l-2.8-29.521a3.5,3.5,0,0,1,6.969-.662l2.8,29.521a3.5,3.5,0,0,1-3.153,3.815C274.588,332.766,274.475,332.771,274.365,332.771Z"/><path fill="#34363a" d="M276.244,289.351a3.5,3.5,0,0,1-.243-6.992l24.656-1.739c-.2-1.926-.459-4.49-.75-7.346l-26.686,1.939a3.5,3.5,0,1,1-.507-6.981l30.077-2.186a3.5,3.5,0,0,1,3.736,3.137c.78,7.673,1.461,14.317,1.461,14.318a3.5,3.5,0,0,1-3.236,3.848l-28.259,1.993C276.41,289.348,276.326,289.351,276.244,289.351Z"/><path fill="#34363a" d="M99.765,138.473a3.5,3.5,0,0,1-2.981-5.336l8.238-13.371a3.5,3.5,0,1,1,5.96,3.672l-2.954,4.793a3.5,3.5,0,0,1,1.018,6.741c-4.83,1.926-7.9,3.215-7.925,3.227A3.488,3.488,0,0,1,99.765,138.473Z"/><path fill="#34363a" d="M115.568,112.816a3.5,3.5,0,0,1-2.977-5.336l9.816-15.931L97.248,69.206C93.41,73.1,89.368,77.466,85.2,82.229a3.5,3.5,0,0,1-5.268-4.609c5.129-5.862,10.081-11.149,14.719-15.715a3.5,3.5,0,0,1,4.78-.123l29.821,26.484a3.5,3.5,0,0,1,.656,4.453l-11.357,18.432A3.5,3.5,0,0,1,115.568,112.816Z"/><path fill="#34363a" d="M179.536,319.286c-12.043,0-33.545-1.631-54.288-11.4a11.64,11.64,0,0,1-5.892-14.535c.611-1.632,1.275-3.238,1.974-4.773a19.524,19.524,0,0,0,1.74-7.418c.557-14.974,1.439-64.717-9.885-88.542-7.494-.5-34.32-2.478-54.916-6.173a28.981,28.981,0,0,1-20.322-14.512l-5.18-9.342a22.961,22.961,0,0,1,1.058-24.078c8.316-12.328,21.294-30.795,35.9-48.765a3.5,3.5,0,0,1,5.432,4.415c-14.443,17.77-27.292,36.054-35.527,48.264a15.989,15.989,0,0,0-.74,16.77l5.18,9.342a22.008,22.008,0,0,0,15.436,11.016c23.643,4.242,55.793,6.186,56.115,6.206a3.5,3.5,0,0,1,2.884,1.853c12.694,23.932,12.314,73.574,11.561,93.807a26.522,26.522,0,0,1-2.364,10.06c-.633,1.388-1.235,2.843-1.789,4.324a4.6,4.6,0,0,0,2.319,5.749c24.829,11.7,51.622,10.932,58.523,10.5l9.552-15.729a3.5,3.5,0,1,1,5.983,3.633l-10.483,17.264a3.5,3.5,0,0,1-2.622,1.664C188.753,318.927,185.184,319.286,179.536,319.286Z"/><path fill="#34363a" d="M143.54,122.2a3.5,3.5,0,0,1-1.063-6.836c.9-.286,1.884-.591,2.931-.914a127.837,127.837,0,0,0,13.4-4.7,3.5,3.5,0,1,1,2.827,6.4,132.946,132.946,0,0,1-14.157,4.99c-1.024.317-1.989.614-2.869.9A3.49,3.49,0,0,1,143.54,122.2Z"/><path fill="#34363a" d="M218.906,316.684c-3.62,0-5.884-.177-6.217-.205a3.5,3.5,0,0,1-2.413-1.266l-17.7-21.546c-.037-.043-.071-.088-.105-.133a27.684,27.684,0,0,1-5.431-16.407V203.656a3.5,3.5,0,0,1,7,0v73.471a20.637,20.637,0,0,0,4,12.165l16.671,20.291c6.245.262,31.632.487,52.524-11.52a8.249,8.249,0,0,0,4.013-8.724c-3.358-17.187-10.285-61.6-2.075-102.683a3.5,3.5,0,0,1,6.864,1.372c-7.965,39.861-1.2,83.19,2.082,99.968a15.25,15.25,0,0,1-7.4,16.136C251.494,315.183,229.452,316.683,218.906,316.684Z"/><path fill="#34363a" d="M248.987,130.722a3.486,3.486,0,0,1-1.675-.429l-10.946-5.979a3.5,3.5,0,0,1,3.355-6.144l10.947,5.979a3.5,3.5,0,0,1-1.681,6.573Z"/><path fill="#34363a" d="M286.992,151.481a3.485,3.485,0,0,1-1.675-.428L281,148.7a3.5,3.5,0,0,1,3.355-6.143l4.315,2.356a3.5,3.5,0,0,1-1.681,6.572Z"/><path fill="#34363a" d="M209.566,167.965a3.5,3.5,0,0,1-3.418-2.764,120.042,120.042,0,0,0-8.236-23.963h-1.234a143.3,143.3,0,0,0-4.536,22.188,3.5,3.5,0,1,1-6.938-.932c1-7.4,2.785-17.912,5.66-25.937a3.5,3.5,0,0,1,3.295-2.319h5.95a3.5,3.5,0,0,1,3.115,1.9,125.44,125.44,0,0,1,9.768,27.588,3.5,3.5,0,0,1-2.686,4.158A3.539,3.539,0,0,1,209.566,167.965Z"/><path fill="#34363a" d="M197.964,196.906a3.488,3.488,0,0,1-1.422-.3c-27.368-12.185-39.384-28.853-39.882-29.557a3.5,3.5,0,0,1,.028-4.085,26.937,26.937,0,0,0,4.052-9.243H146.949a3.5,3.5,0,0,1-3.456-4.049c1.8-11.364,5.6-24.08,7.705-30.647a16.345,16.345,0,0,1,7.234-9.084,121.831,121.831,0,0,0,15.844-11.25A3.5,3.5,0,0,1,180,102.044c-7.412,35.447,15.151,67.956,25.2,80.288a3.5,3.5,0,1,1-5.428,4.42c-9.85-12.092-31.009-42.5-27.932-77.279-2.709,1.967-6.066,4.25-9.831,6.484a9.358,9.358,0,0,0-4.139,5.2,236.888,236.888,0,0,0-6.744,25.562h13.81a3.5,3.5,0,0,1,3.485,3.814,38.359,38.359,0,0,1-4.589,14.279c3.8,4.471,15.186,16.325,35.562,25.4a3.5,3.5,0,0,1-1.425,6.7Z"/><path fill="#34363a" d="M194.11,127.243H192.4a22.481,22.481,0,0,1-20.222-12.8,3.5,3.5,0,1,1,6.325-3,15.451,15.451,0,0,0,13.9,8.794h1.71a15.387,15.387,0,0,0,15.37-15.37,3.5,3.5,0,0,1,7,0A22.4,22.4,0,0,1,194.11,127.243Z"/><path fill="#34363a" d="M258.87,185.7H227.929a3.5,3.5,0,0,1,0-7H255.37v-8H238.043a3.5,3.5,0,0,1,0-7H258.87a3.5,3.5,0,0,1,3.5,3.5v15A3.5,3.5,0,0,1,258.87,185.7Z"/><path fill="#34363a" d="M199.233,212.064a9.2,9.2,0,0,1-5.353-1.72L188.5,206.5a3.5,3.5,0,0,1-.4-5.364c29.939-28.935,21.49-99.858,21.4-100.571a3.5,3.5,0,0,1,5.812-3.037,59.4,59.4,0,0,0,16.237,10.3,13.974,13.974,0,0,1,7.957,8.957,174.581,174.581,0,0,1,5.1,27.028A3.5,3.5,0,0,1,241.8,147.6l-9.006,1.753,8.718,13.206a3.5,3.5,0,0,1,.148,3.611c-14.129,25.766-30.6,39.442-37.025,44.126A9.157,9.157,0,0,1,199.233,212.064Zm-3.374-8.908,2.09,1.492a2.189,2.189,0,0,0,2.564,0c5.893-4.3,20.782-16.661,33.988-40l-10.428-15.8a3.5,3.5,0,0,1,2.253-5.364l10.944-2.13a160.284,160.284,0,0,0-4.473-22.6,7,7,0,0,0-3.979-4.489A67.241,67.241,0,0,1,217.2,107.89C218.549,127.433,219.3,176.736,195.859,203.156Z"/><path fill="#34363a" d="M275.644,152.219a11.03,11.03,0,0,1-4.8-1.1l-18.7-9.019a11.693,11.693,0,0,1-5.619-15.4h0l.9-2.011a11.755,11.755,0,0,1,16.031-5.675l18.662,9.444a10.982,10.982,0,0,1,4.785,14.861l-1.544,2.971A10.929,10.929,0,0,1,275.644,152.219Zm-22.735-22.657a4.729,4.729,0,0,0,2.272,6.227l18.7,9.019a3.962,3.962,0,0,0,5.262-1.75l1.544-2.97a3.982,3.982,0,0,0-1.736-5.388l-18.661-9.444a4.752,4.752,0,0,0-6.483,2.3Z"/><path fill="#34363a" d="M248.925,213.988H234.89a9.223,9.223,0,1,1,0-18.445h14.035a9.223,9.223,0,0,1,0,18.445ZM234.89,202.543a2.223,2.223,0,1,0,0,4.445h14.035a2.223,2.223,0,0,0,0-4.445Z"/><path fill="#34363a" d="M241.762,242.137a12.877,12.877,0,1,1,12.877-12.876A12.89,12.89,0,0,1,241.762,242.137Zm0-18.753a5.877,5.877,0,1,0,5.877,5.877A5.884,5.884,0,0,0,241.762,223.384Z"/><path fill="#34363a" d="M157.329,266.629a12.877,12.877,0,1,1,12.877-12.876A12.89,12.89,0,0,1,157.329,266.629Zm0-18.753a5.877,5.877,0,1,0,5.877,5.877A5.884,5.884,0,0,0,157.329,247.876Z"/><path fill="#34363a" d="M116.3,142.832a10.829,10.829,0,0,1-10.1-6.934l-1.2-3.077a10.886,10.886,0,0,1,6.284-14.144l19.311-7.312a11.648,11.648,0,0,1,15.2,7.282l.674,2.068h0a11.587,11.587,0,0,1-7.16,14.581L120,142.187A10.988,10.988,0,0,1,116.3,142.832Zm18.42-25.225a4.667,4.667,0,0,0-1.65.305l-19.31,7.312a3.884,3.884,0,0,0-2.243,5.048l1.2,3.078a3.87,3.87,0,0,0,4.925,2.244l19.308-6.889a4.623,4.623,0,0,0,2.856-5.819l-.674-2.068a4.662,4.662,0,0,0-4.415-3.211Z"/><path fill="#34363a" d="M164.934,85.644c-.057,0-.115,0-.173-.005-9.012-.439-14.977-5.867-15.956-14.517a3.5,3.5,0,1,1,6.955-.787c.593,5.242,3.736,8.039,9.342,8.313a3.5,3.5,0,0,1-.168,7Z"/><path fill="#34363a" d="M221.1,85.661a3.5,3.5,0,0,1-.076-7c4.1-.091,9.12-1.666,9.762-8.659.5-5.409-.265-9.347-2.261-11.7-1.548-1.828-3.947-2.838-7.335-3.089a3.5,3.5,0,1,1,.516-6.98c5.284.39,9.375,2.256,12.161,5.545,3.255,3.843,4.564,9.518,3.889,16.868-1.25,13.623-13,14.938-16.578,15.017Z"/><path fill="#34363a" d="M196.864,108.8h-7.218a26.936,26.936,0,0,1-27.018-26.077l-.715-20.764a3.5,3.5,0,1,1,7-.241l.714,20.761A19.961,19.961,0,0,0,189.646,101.8h7.218A19.962,19.962,0,0,0,216.887,82.47l1.042-30.29a3.5,3.5,0,0,1,3.5-3.38l.123,0a3.5,3.5,0,0,1,3.377,3.619l-1.042,30.293A26.939,26.939,0,0,1,196.864,108.8Z"/><path fill="#34363a" d="M193.932,57.307a144.985,144.985,0,0,1-16.089-.853,3.5,3.5,0,0,1,.778-6.957c19.365,2.169,39.15-.638,46.76-1.944a2.666,2.666,0,0,0,2.192-2.28c2.905-23.832-10.861-27.5-11.449-27.647a3.516,3.516,0,0,1-2.589-4.2,3.478,3.478,0,0,1,4.152-2.62c.2.046,20.537,4.951,16.834,35.317a9.711,9.711,0,0,1-7.956,8.332A198.2,198.2,0,0,1,193.932,57.307Z"/><path fill="#34363a" d="M165.413,64.594a3.5,3.5,0,0,1-1.462-6.681c8.145-3.741,20.342-12.453,32.2-32.717a36.328,36.328,0,0,1,9.191-9.948c-10.085-1.532-25.7-2.12-38.878,5.1-11.082,6.071-18.663,16.7-22.53,31.605a3.5,3.5,0,0,1-6.776-1.759c4.377-16.861,13.119-28.976,25.984-36.007,24.053-13.147,53.624-3.7,54.872-3.3a3.5,3.5,0,0,1-.727,6.807c-8.992.937-15.042,10.945-15.1,11.046-12.769,21.825-26.251,31.368-35.311,35.529A3.492,3.492,0,0,1,165.413,64.594Z"/><path fill="#34363a" d="M126.928,94.383A3.5,3.5,0,0,1,124.6,93.5L100.079,71.721a3.5,3.5,0,0,1-.035-5.2l13.063-11.927A21.833,21.833,0,0,1,127.046,48.9l37.762-1.327a3.5,3.5,0,0,1,3.614,3.257l.446,6.446a13.143,13.143,0,0,1-8.012,13.02l-19.035,8.014A9.772,9.772,0,0,0,137.6,81.73l-7.8,11.158a3.5,3.5,0,0,1-2.868,1.495ZM107.634,69.067l18.677,16.588,5.546-7.935a16.766,16.766,0,0,1,7.248-5.857l19.035-8.014a6.144,6.144,0,0,0,3.744-6.086l-.212-3.072L127.291,55.9a14.826,14.826,0,0,0-9.464,3.862Z"/><path fill="#34363a" d="M108,125.1a3.5,3.5,0,0,1-2.64-1.2c-5.208-5.989-19-20.79-34.531-28.838a3.5,3.5,0,0,1-1.105-5.315c3.449-4.244,6.884-8.323,10.21-12.123a3.5,3.5,0,0,1,4.655-.553c6.56,4.64,22.975,16.855,33.7,30.038a3.5,3.5,0,0,1,.264,4.044l-7.569,12.287a3.5,3.5,0,0,1-2.694,1.652C108.192,125.1,108.1,125.1,108,125.1ZM77.808,90.926c12.493,7.361,23.438,18.105,29.671,24.852l3.788-6.15c-8.917-10.342-21.211-19.931-28.148-25Q80.5,87.683,77.808,90.926Z"/><path fill="#34363a" d="M173.53,207.687h-36.1a3.5,3.5,0,0,1-3.5-3.5V190.971a3.5,3.5,0,0,1,3.5-3.5h36.1a3.5,3.5,0,0,1,3.5,3.5v13.216A3.5,3.5,0,0,1,173.53,207.687Zm-32.6-7h29.1v-6.216h-29.1Z"/><path fill="#34363a" d="M166.121,233.977H148.538a10.108,10.108,0,0,1,0-20.216h17.583a10.108,10.108,0,0,1,0,20.216Zm-17.583-13.216a3.108,3.108,0,0,0,0,6.216h17.583a3.108,3.108,0,0,0,0-6.216Z"/><path fill="#34363a" d="M87.774,143.389a3.5,3.5,0,0,1-1.329-6.739l11.991-4.915a3.5,3.5,0,1,1,2.655,6.476L89.1,143.126A3.471,3.471,0,0,1,87.774,143.389Z"/><path fill="#34363a" d="M157.329,246.842a3.5,3.5,0,0,1-3.5-3.5V231.076a3.5,3.5,0,1,1,7,0v12.266A3.5,3.5,0,0,1,157.329,246.842Z"/><path fill="#34363a" d="M130.978,303.978a3.5,3.5,0,0,0-4.117,2.748L122.2,329.271h7.148l4.383-21.176A3.5,3.5,0,0,0,130.978,303.978Z"/></svg>