<svg xmlns="http://www.w3.org/2000/svg"  viewBox="0 0 340 340" width="500px" height="500px"><path fill="#bdcdd1" d="M254.586,206.361s-6.341,27.129-6.341,65.885V276.6a37.165,37.165,0,0,0,12.9,28.4q.445.378.911.755a7.459,7.459,0,0,1,2.745,5.8h0a7.516,7.516,0,0,1-7.517,7.516h-5.415a14.525,14.525,0,0,1-12.123-6.543c-.318-.483-.669-.991-1.045-1.523a65.728,65.728,0,0,1-11.952-37.922v-47.7Z"/><path fill="#bdcdd1" d="M141.587,205.267a191.2,191.2,0,0,1-18.056,48.258,20.511,20.511,0,0,1-7.473,7.85c-7.408,4.431-22.1,16-24.765,39.092,0,0-.216,2.812,2.661,6.045a6.97,6.97,0,0,1,1.83,4.617v1.207a6.738,6.738,0,0,1-6.738,6.737H80.372a11.133,11.133,0,0,1-11.117-10.412c-.487-7.653-1.5-14.63,3.687-26.248a51.5,51.5,0,0,1,6.58-10.725c5.147-6.564,15.393-22.842,6.383-39.477l18.543-39.517Z"/><path fill="#d87a45" d="M263.073,40.036s4.81-7,14.815-13.168a6.246,6.246,0,0,1,9.477,6.02l-2.344,20.7S266.476,49.981,263.073,40.036Z"/><path fill="#ffac6e" d="M322.966,81.153l-4.987-11.314a72.161,72.161,0,0,1-11.764-6.976c.249-.082.5-.153.745-.252-3.936-2.428-7.8-5.058-11.051-7.448-.964-.748-1.882-1.462-2.739-2.122-.812-.627-1.564-1.224-2.241-1.782a40.957,40.957,0,0,0-18.421-8.743,54.11,54.11,0,0,0-5.859-.812,64.082,64.082,0,0,0-6.743-17.071,7.654,7.654,0,0,0-12.657-.956A112.814,112.814,0,0,0,236.608,40.1a23.879,23.879,0,0,1-4.938,6.371c-36.206,33.046-50.622,62.606-50.622,62.606-4.984-.59-11.085,1.191-14.956,2.607a60.08,60.08,0,0,1-10.76,2.849c-29.358,4.9-49.153,1.361-49.153,1.361a70.861,70.861,0,0,0-.358-34.513A47.719,47.719,0,0,0,87.106,54.013q-.708-.487-1.419-.941c-17.439-11.121-43.9-7.591-58.859,6.691A51.573,51.573,0,0,0,11.935,87.4a39.506,39.506,0,0,0,.268,17.637C16.73,122.6,31.359,129.1,39.475,131.4a7.819,7.819,0,0,1,5.6,8.87,22.7,22.7,0,0,1-1.128,4.032,21,21,0,0,1-8.406,10.032c-7.268,4.7-10.429,10.3-11.78,13.87a2.379,2.379,0,0,0,2.471,3.225l2.165-.236a.982.982,0,0,1,.762,1.705,25.385,25.385,0,0,0-6.638,9.977,2.265,2.265,0,0,0,3.287,2.738l.309-.186a.937.937,0,0,1,1.419.8c.122,7.367,4.538,14.24,4.538,14.24a49.809,49.809,0,0,1,6.556,11.5A80.73,80.73,0,0,1,44.9,243.483l.005,2.843c-.6,8.776-6.426,15.862-10.54,19.823a16.355,16.355,0,0,0-4.88,9.7l-1.563,12.184c1.43,15.019,17.489,22.716,20.045,12.841a20.514,20.514,0,0,1,.251-7.274c2.363-11.152,8.3-20.59,12.518-26.2a43.066,43.066,0,0,1,7.455-7.723c1.366-1.1,2.485-2.333,3.654-3.375,8.706-7.755,11.274-15.142,11.274-15.142,8.3-17.223,16.471-28.424,22.159-34.7,4.021-4.438,11.669-4.26,17.278-2.163a115.544,115.544,0,0,1,25.541,13.81C168.51,232.417,188.9,230.47,188.9,230.47l2.289,34.728c.253,6.059.551,12.026.824,17.094,3.125,18.352,25.916,34.3,24.918,17.838l-.631-1.056a23.779,23.779,0,0,1-3-12.516c1.09-29.916,11.934-49.457,11.934-49.457a93.186,93.186,0,0,1,8.369-7.779L249.931,215.1a35.038,35.038,0,0,0,11.689-12.448c5.885-11.827,10.615-30.866,12.343-54.35,1.85-13.8,6.568-23,8.548-28.706a18.3,18.3,0,0,1,9.289-10.36c8.579-4.209,16.293-8.871,20.822-10.6A14.492,14.492,0,0,0,321,91.164C323.121,86.839,322.966,81.153,322.966,81.153Z"/><path fill="#fff" d="M293.368,53.252c-5.626-1.77-14.2-3.148-23.153.339a45.1,45.1,0,0,0-17.466,11.687,33.161,33.161,0,0,1-13.9,9.628,29.96,29.96,0,0,1-7.588,1.552,2,2,0,0,0-1.544,3.066,15.793,15.793,0,0,0,4.641,4.582,1.988,1.988,0,0,1,.272,3.081,12.7,12.7,0,0,0-1.223,1.346c-13.013,16.509,1.58,32.974,5.921,37.228a1.987,1.987,0,0,1,.2,2.632c-1.76,2.275-6.534,6.293-18.579,7.116a3.033,3.033,0,0,0-2.837,2.906,25.769,25.769,0,0,0,4.494,15.374,11.491,11.491,0,0,1-.261,13.447,16.666,16.666,0,0,1-1.157,1.327,26.855,26.855,0,0,0-6.223,9.855c-4.028,11.718-7.659,35.1,18.543,51.017a167.4,167.4,0,0,1,17.109-12.311c25.81-16.888,25.491-68.508,25.491-68.508,1.86-13.694,4.437-22.994,6.447-28.706a18.369,18.369,0,0,1,9.274-10.432c8.616-4.2,16.581-7.393,21.127-9.121a16.312,16.312,0,0,0,8.92-7.93,34.636,34.636,0,0,0,2.665-10.316l-5.867-13.174C310.65,65.422,299.971,58.362,293.368,53.252Z"/><path fill="#404a66" d="M315.213,67.292a37.328,37.328,0,0,1,9.325,4.411c3.3,2.361,3.553,4.294,4.12,6.7a5.644,5.644,0,0,1-1.541,5.226,6.71,6.71,0,0,1-8.643.6C314.838,81.519,311.4,76.2,315.213,67.292Z"/><path fill="#fff" d="M92.49,198.771c-3.926,4.406-8.133,11.886-10.169,24.464a114.252,114.252,0,0,1-10.48,33.075c8.716-7.739,12.124-13.695,12.124-13.695,8.323-17.2,16.861-28.283,22.56-34.553a14.627,14.627,0,0,1,15.979-3.831l-14.971-8.1A12.3,12.3,0,0,0,92.49,198.771Z"/><path fill="#d87a45" d="M106.27,115.8c.017-.073.031-.145.048-.219A.194.194,0,0,0,106.27,115.8Z"/><path fill="#fff" d="M38.644,123.758c-2.2-3.114-3.423-8.108-.643-15.987,0,0,5.522-13.8,21.4-11.043,0,0,14.149,2.49,17.254,17.636,0,0-9.265-5.8-19.216-2.158a8.573,8.573,0,0,0-5.676,8.644c.048.6.279,1.211.319,1.876.129,2.15-2.457,4.515-2.457,4.515A9.715,9.715,0,0,1,38.644,123.758Z"/><path fill="#fff" d="M37.588,319.292l8.122-.014a6.694,6.694,0,0,0,6.525-5.25,6.534,6.534,0,0,0-1.094-5.338,16.4,16.4,0,0,1-2.106-3.808,18.133,18.133,0,0,1-1.068-4c-2.577,1.676-5.648,2.029-9.2-.3a30.339,30.339,0,0,1-10.853-12.542l-1.725,13.445A22.922,22.922,0,0,0,28.4,313.605,10.222,10.222,0,0,0,37.588,319.292Z"/><path fill="#fff" d="M224.426,308.773a35.963,35.963,0,0,1-7.5-8.643c-.22-.347-.417-.706-.618-1.063-2.961,3.048-6.763,4.531-11.367,1.512a31.01,31.01,0,0,1-12.932-18.287c.234,4.359.45,8.062.6,10.577a24.6,24.6,0,0,0,2.048,8.461,53.279,53.279,0,0,0,7.824,12.428A14.719,14.719,0,0,0,213.817,319l7.147-.012a5.683,5.683,0,0,0,5.674-5.693v-.027A5.817,5.817,0,0,0,224.426,308.773Z"/><path fill="#404a66" d="M256.519,217.7c22.919-19.343,23.58-64.312,23.586-68.811,1.851-13.5,4.4-22.491,6.228-27.668a14.261,14.261,0,0,1,7.231-8.137c8.24-4.019,15.865-7.1,20.81-8.984a20.234,20.234,0,0,0,11.088-9.9,29.03,29.03,0,0,0,2.063-5.957,10.885,10.885,0,0,0,2.366-1.724,9.489,9.489,0,0,0,2.652-9.062l-.124-.515a12.625,12.625,0,0,0-5.551-8.485,34.763,34.763,0,0,0-9.132-4.327c-.1-.061-.188-.133-.294-.186a145.374,145.374,0,0,1-23.973-15.726,43.69,43.69,0,0,0-3.518-2.618l1.388-12.255a10.244,10.244,0,0,0-15.55-9.874c-1.307.806-2.591,1.661-3.815,2.544a4,4,0,1,0,4.676,6.49c1.071-.77,2.194-1.519,3.337-2.224a2.245,2.245,0,0,1,3.4,2.164l-1.024,9.04a44.206,44.206,0,0,0-8.982-2.73c-1.263-.238-2.388-.415-3.324-.544a68.406,68.406,0,0,0-6.415-15.361,11.669,11.669,0,0,0-19.292-1.507,116.03,116.03,0,0,0-11.047,16.987,19.878,19.878,0,0,1-4.124,5.307c-30.965,28.168-46.166,53.621-50.388,61.359a44.468,44.468,0,0,0-13.95,2.932,56.646,56.646,0,0,1-10.091,2.654,178.768,178.768,0,0,1-33.43,2.443,4,4,0,1,0-.193,8q2.05.05,4.122.05a189.531,189.531,0,0,0,30.8-2.6,64.562,64.562,0,0,0,11.521-3.028,45.85,45.85,0,0,1,6.976-1.972,3.993,3.993,0,0,0,7.441,2.73l2.712-5.26c.006-.012.008-.024.014-.036s.015-.023.021-.036c.143-.289,14.637-29.31,49.824-61.318a27.8,27.8,0,0,0,5.787-7.438,107.979,107.979,0,0,1,10.253-15.782,3.689,3.689,0,0,1,3.193-1.391,3.6,3.6,0,0,1,2.884,1.844,61.253,61.253,0,0,1,4.912,11.091h-4.573a4,4,0,0,0,0,8h9.687c.479.039,2.455.221,5.194.738a36.185,36.185,0,0,1,16.444,7.746,158.9,158.9,0,0,0,21.92,14.83c-2.054,7.372-.018,13.9,5.819,18.249a10.629,10.629,0,0,0,2.894,1.525,16.257,16.257,0,0,1-.695,1.7,12.257,12.257,0,0,1-6.753,5.957c-5.1,1.939-12.955,5.119-21.457,9.265L271.7,114.675a4,4,0,1,0,3.453,7.217l2.986-1.429a157.194,157.194,0,0,0-6,27.615,4.083,4.083,0,0,0-.036.563c0,.494.03,49.556-23.634,65.106-1.208.742-16.332,10.141-26.263,20.713a3.93,3.93,0,0,0-.579.791c-.463.832-11.354,20.706-12.521,51.218a27.605,27.605,0,0,0,4.23,15.894,39.589,39.589,0,0,0,8.328,9.608,1.842,1.842,0,0,1,.731,1.419,1.684,1.684,0,0,1-1.683,1.683h-7.148a10.679,10.679,0,0,1-8.247-3.815,48.737,48.737,0,0,1-7.215-11.492,20.526,20.526,0,0,1-1.7-7.088c-.321-5.488-.927-16.371-1.381-27.7l-2.23-34.732c-.848-13.188-4.591-20.206-4.749-20.5a4,4,0,0,0-7.04,3.8c.026.051,2.319,4.493,3.4,13a64.578,64.578,0,0,1-34.091-11.746,120.343,120.343,0,0,0-26.131-14.218l-14.744-7.98a16.242,16.242,0,0,0-19.933,3.5c-5.55,6.228-9.294,15.139-11.131,26.485a110.979,110.979,0,0,1-9.766,31.231c-.974.85-2,1.718-3.118,2.608a46.476,46.476,0,0,0-8.037,8.284c-4.708,6.221-10.847,16.1-13.357,27.851a23.5,23.5,0,0,0,.993,13.584,20.319,20.319,0,0,0,2.62,4.742,2.56,2.56,0,0,1,.38,2.071,2.678,2.678,0,0,1-2.629,2.107H37.337a6.182,6.182,0,0,1-5.59-3.467,18.922,18.922,0,0,1-1.795-9.945l3.318-25.524a12.4,12.4,0,0,1,3.7-7.325c5-4.8,11.108-12.584,11.794-22.413q.009-.139.009-.279v-2.842a84.266,84.266,0,0,0-6.526-33.09,53.749,53.749,0,0,0-6.937-12.249c-.61-1.023-4.231-7.382-3.756-13.317a4,4,0,0,0-6.046-3.748L19.135,184.7a4,4,0,0,0,4.117,6.86l.849-.51a37.644,37.644,0,0,0,4.556,11.345,4.123,4.123,0,0,0,.246.343,45.453,45.453,0,0,1,5.978,10.574,76.321,76.321,0,0,1,5.891,29.968v2.7c-.589,7.609-6.1,13.952-9.343,17.065a20.443,20.443,0,0,0-6.092,12.067L22.006,300.73q-.012.1-.021.192a26.853,26.853,0,0,0,2.582,14.215,14.134,14.134,0,0,0,12.77,7.936h8.122A10.627,10.627,0,0,0,55.9,314.7a10.5,10.5,0,0,0-1.789-8.609,12.4,12.4,0,0,1-1.579-2.883,15.538,15.538,0,0,1-.609-8.973c2.2-10.311,7.693-19.12,11.912-24.693a38.5,38.5,0,0,1,6.651-6.861c12.045-9.624,16.761-17.744,16.955-18.085.046-.079.088-.16.128-.242,8.116-16.772,16.4-27.535,21.923-33.61a10.57,10.57,0,0,1,11.6-2.775,100.067,100.067,0,0,1,13.985,6.636,192.5,192.5,0,0,1-15.063,37.009,16.516,16.516,0,0,1-6.009,6.324,55.944,55.944,0,0,0-26.686,42.067c-.006.05-.011.1-.014.152-.058.752-.153,4.724,3.661,9.009a3,3,0,0,1,.818,1.959v1.206a2.741,2.741,0,0,1-2.738,2.738H80.372a7.142,7.142,0,0,1-7.125-6.666c-.04-.627-.084-1.251-.127-1.874-.476-6.828-.886-12.724,3.475-22.49a47.719,47.719,0,0,1,6.074-9.887,54,54,0,0,0,8.988-16.643,4,4,0,1,0-7.629-2.406,45.9,45.9,0,0,1-7.655,14.113,55.709,55.709,0,0,0-7.083,11.561c-5.176,11.59-4.654,19.073-4.15,26.308.042.607.084,1.214.123,1.826a15.159,15.159,0,0,0,15.109,14.158h8.674a10.75,10.75,0,0,0,10.738-10.738v-1.206a10.976,10.976,0,0,0-2.842-7.276,5.9,5.9,0,0,1-1.647-3.169c2.492-20.824,15.353-31.412,22.817-35.877a24.523,24.523,0,0,0,8.935-9.376,200.032,200.032,0,0,0,15.092-36.5c1.166.766,2.356,1.571,3.572,2.426a72.177,72.177,0,0,0,39.341,13.231l1.979,30.815c.452,11.292,1.062,22.23,1.384,27.746a28.534,28.534,0,0,0,2.366,9.843,56.715,56.715,0,0,0,8.391,13.389,18.655,18.655,0,0,0,14.394,6.7h7.148a9.7,9.7,0,0,0,6-17.305,31.624,31.624,0,0,1-6.62-7.682,19.64,19.64,0,0,1-3-11.31c1-26.186,9.805-44.321,11.3-47.223,5.905-6.179,13.912-12.057,19.093-15.6a361,361,0,0,0-3.25,48.294V276.6a41.047,41.047,0,0,0,14.314,31.448q.481.41.985.816a3.483,3.483,0,0,1,1.26,2.693,3.52,3.52,0,0,1-3.517,3.516h-5.414a10.508,10.508,0,0,1-8.787-4.751c-.341-.514-.714-1.056-1.114-1.623a61.377,61.377,0,0,1-11.219-35.614V261.711a4,4,0,0,0-8,0v11.374a69.345,69.345,0,0,0,12.684,40.23c.351.5.679.971.974,1.418a18.488,18.488,0,0,0,15.462,8.34h5.414A11.529,11.529,0,0,0,268.8,311.557a11.4,11.4,0,0,0-4.229-8.913c-.287-.232-.566-.464-.841-.7A33.066,33.066,0,0,1,252.245,276.6v-4.354A346.382,346.382,0,0,1,256.519,217.7ZM317.656,72.583a22,22,0,0,1,4.552,2.371c1.828,1.31,1.979,1.945,2.428,3.83l.137.575a1.464,1.464,0,0,1-.429,1.39,2.73,2.73,0,0,1-3.481.27C318.949,79.594,316.754,77.24,317.656,72.583ZM95.266,300.937v-.011l.007-.062Zm8.3-95.57a141.674,141.674,0,0,0-19.1,27.529c.675-2.847,1.288-5.85,1.8-9.022,1.568-9.68,4.751-17.441,9.207-22.442a8.277,8.277,0,0,1,10.153-1.787l3.16,1.71A18.674,18.674,0,0,0,103.568,205.367Z"/><path fill="#404a66" d="M41.464,135.8a17.637,17.637,0,0,1-1.218,6.9,16.943,16.943,0,0,1-6.84,8.052A38.952,38.952,0,0,0,29.044,154c-.067.057-.131.116-.193.178l-2.948,2.9a4,4,0,1,0,5.613,5.7l2.852-2.809a31.1,31.1,0,0,1,3.368-2.5A24.835,24.835,0,0,0,49.017,131.6a3.978,3.978,0,0,0-1.334-2.267c-.039-.034-.083-.064-.123-.1a4.082,4.082,0,0,0-.445-.306c-.046-.028-.084-.064-.131-.09-1.041-.572-10.018-5.982-5.243-19.65.41-.974,4.811-10.64,16.938-8.529a18.9,18.9,0,0,1,10.656,6.823,25,25,0,0,0-13.156.92c-4.3,1.32-9.889,6.384-8.014,15.156a4,4,0,1,0,7.824-1.672c-.9-4.209,1.535-5.5,2.557-5.841.088-.025.176-.055.262-.086,5.87-2.145,11.63-.15,14.25,1.044a48.211,48.211,0,0,1,.419,11.11,11.024,11.024,0,0,0,4.242,9.75,10.865,10.865,0,0,0,6.653,2.278,11,11,0,0,0,3.717-.65c7.033-2.518,16.544-8.424,21.91-22.252.009-.024.011-.048.02-.073s.021-.039.029-.061c5.369-15.456,1.6-29.895-.207-36.834A51.732,51.732,0,0,0,89.547,50.568c-.5-.348-1.013-.686-1.518-1.008-18.585-11.892-47.2-8.711-63.792,7.088a55.232,55.232,0,0,0-16.083,29.7,43.228,43.228,0,0,0,.283,19.423C14.08,127.811,33.664,134.132,41.464,135.8ZM16,87.931a47.38,47.38,0,0,1,13.76-25.49C43.6,49.256,68.31,46.442,83.721,56.3c.428.273.856.559,1.281.852a43.735,43.735,0,0,1,17.1,25.142c2.572,9.862,4.4,20.578.414,32.118-3.434,8.806-9.194,14.712-17.123,17.552a2.854,2.854,0,0,1-2.782-.428,3.027,3.027,0,0,1-1.163-2.713,56.166,56.166,0,0,0-.876-15.252v-.01l-.01-.043,0-.013v0c-3.635-17.555-19.78-20.593-20.474-20.715C45,90.159,36.613,100.47,34.287,106.285c-.021.051-.04.1-.059.155-2.639,7.478-2.2,13.614-.4,18.371-6.84-3.285-14.687-9.48-17.643-21.029A35.308,35.308,0,0,1,16,87.931Z"/><path fill="#404a66" d="M22.785,178.04a4,4,0,0,0,1.23-.194,29.646,29.646,0,0,0,5.434-2.52c2.3-1.275,4.109-2.282,6.9-2.282a4,4,0,0,0,0-8c-4.863,0-8.008,1.747-10.784,3.288a22.693,22.693,0,0,1-4.007,1.9,4,4,0,0,0,1.227,7.807Z"/><path fill="#404a66" d="M218.783,165.266a40.384,40.384,0,0,0-9.037,16.687c-2.9,11.581-3.347,28.376,10.97,42.624a4,4,0,1,0,5.642-5.67c-11.654-11.6-11.247-25.442-8.851-35.013a32.5,32.5,0,0,1,7.308-13.374c.239-.273.461-.544.679-.822a15.424,15.424,0,0,0,.43-18.139,21.878,21.878,0,0,1-3.846-12.125c18.358-1.521,21.829-10.3,22.181-11.355a4,4,0,0,0-2.017-4.847l-.345-.176a20.247,20.247,0,0,1-10.7-14.739,19.775,19.775,0,0,1,5.112-17.036,16.9,16.9,0,0,1,2.7-2.362,4,4,0,0,0-.4-7,15.843,15.843,0,0,1-3.175-1.977,34.375,34.375,0,0,0,4.712-1.251,36.812,36.812,0,0,0,15.6-10.76,34.2,34.2,0,0,1,3.824-3.673,4,4,0,0,0-5.092-6.172,42.426,42.426,0,0,0-4.72,4.539,28.917,28.917,0,0,1-12.2,8.5,25.746,25.746,0,0,1-9.093,1.4,4,4,0,0,0-4.035,4.789,16.328,16.328,0,0,0,5.828,8.737,27.706,27.706,0,0,0-6.942,23.6,28.183,28.183,0,0,0,11.039,18.1c-2.436,1.663-7.165,3.63-16.036,3.884a4,4,0,0,0-3.778,3.076,28.767,28.767,0,0,0,4.75,21.312,7.448,7.448,0,0,1-.088,8.747C219.065,164.933,218.929,165.1,218.783,165.266Z"/><path fill="#404a66" d="M280.859,68.172a4,4,0,1,0,2.561-7.58,15.622,15.622,0,0,0-4.555-.763,4,4,0,0,0-.025,8A7.643,7.643,0,0,1,280.859,68.172Z"/></svg>