<svg xmlns="http://www.w3.org/2000/svg"  viewBox="0 0 340 340" width="500px" height="500px"><path fill="#3c3c4f" d="M130.5,150.52c-.62-2.654,10.238,57.483-84.085,177.2h54.112c52.05-15,103.246-16.238,153.356,0h16.6c17.064-64.687,5.666-124.987-22.855-182.647Z"/><path fill="#e4efff" d="M66.7,183.726C70.99,195.7,77.062,211.471,82.17,220.248l-6.239,27.474s-23.6,0-31.7-38.083C40.326,191.263,66.7,183.726,66.7,183.726Z"/><path fill="#7f91bf" d="M75.931,247.722c-13.443-6.009-21.926-26.138-25.4-36.094a10.491,10.491,0,0,1,1.743-10.062L66.7,183.725c-3.257-9.092-5.489-16-5.489-16l-31.667,16.1c9.445,53.6,28.928,76.769,28.928,76.769L72,265.03l3.93-17.308Z"/><path fill="#e4efff" d="M64.087,116.9l10.53,23.368C167.251,106.591,253.482,69.051,331.06,26.3l-19.272-7.2a9.6,9.6,0,0,0-6.965.1Z"/><path fill="#7f91bf" d="M85.635,164.722,317.854,50a9.6,9.6,0,0,0,4.476-4.612L331.06,26.3,74.617,140.272Z"/><path fill="#7f91bf" d="M215.58,55.418,64.087,116.9l10.53,23.368q71-25.816,136.677-54.844Z"/><path fill="#ffc362" d="M42.673,101.031l36.136,83.591a3.5,3.5,0,0,0,4.793,1.733l18.21-9.223-37.9-85.5A3.5,3.5,0,0,0,59.3,89.849l-14.832,6.6A3.5,3.5,0,0,0,42.673,101.031Z"/><path fill="#7f91bf" d="M110.266,179.136a130.815,130.815,0,0,0-23.06,45.388l-2.2,45.051s29.465-11.742,42.825-38.828V179.136Z"/><path fill="#fa883e" d="M95.654,163.1,80.6,144.484a6.865,6.865,0,0,0-8.057-1.986l-10.011,4.317,16.282,37.664a3.5,3.5,0,0,0,4.793,1.733l18.21-9.223Z"/><path fill="#e4efff" d="M158.152,124.032s-9.673,6.886-28.141,11c-10.184,2.267-20.38,5.756-27.527,13.357-3.287,3.5-7.373,7.684-9.844,12.877a17.235,17.235,0,0,0-1.628,7c11.733,10.852,26.6,12.247,45.8.55Z"/><path fill="#7f91bf" d="M138.013,147.648s-18.893,23.112-47,20.615c-.22,8.768,5.593,17.986,14,20.794,4.078,1.362,9.284,1.866,15.917.786A216.093,216.093,0,0,0,146.545,155.1Z"/><path fill="#3c3c4f" d="M142.351,327.722h46.7V292.945h-46.7S140.2,319.919,142.351,327.722Z"/><path fill="#e4efff" d="M150.625,303.625a20.016,20.016,0,0,1,30.357.244c2.3,1.059,3.345,3.7,4.1,6.711a50.065,50.065,0,0,1,3.967,17.142h19.135c2.222-1.612,4.586-1.45,7.054,0h21.577c2.584-21.486-4.4-38.24-22.953-49.277-18.112-2.27-55.018-5.321-88.575,1.657,0,0-9.691,6.827-17.036,21.035a9,9,0,0,1-3.068,6.791,73.734,73.734,0,0,0-4.657,19.794h41.825a49.947,49.947,0,0,1,4.026-17.271C145.934,307.9,147.934,305.71,150.625,303.625Z"/><path fill="#e4efff" d="M124.075,167.271c-6.042,12.031-12.34,29.5-11.686,49.228a7.389,7.389,0,0,1,.528,7.023,84.117,84.117,0,0,0,12.37,34.812,536.6,536.6,0,0,0,86.905.959s41.155-54.658,12.973-88.064C202.915,144.855,124.075,167.271,124.075,167.271Z"/><path fill="#e4efff" d="M253.347,216.017a152.821,152.821,0,0,1,11.118,31.167c6.419,5.912,7.758,22.212,3.656,29.718,1.124,15.487,2.494,37.436,2.36,50.82h23.065s11.686-57.187,6.077-99.842a97,97,0,0,0-2.232-11.133c-.633-2.506-13.06-30.458-13.06-30.458Z"/><path fill="#7f91bf" d="M295.39,209.486l-19.912-41.764-45.47,12.8s12.615,13.251,23.334,35.5l11.6-4.894.108.313a13.691,13.691,0,0,0,13.212,9.28c5.839-.132,13.167-1.006,19.124-3.971C296.784,214.237,296.122,211.807,295.39,209.486Z"/><path fill="#7f91bf" d="M302.5,256.118c-8.432-.078-27.84-.271-36.321-.466.19,1.108.38,2.217.545,3.344,0,0,.644,7.493,1.4,17.906a119.2,119.2,0,0,0,12.339,1.384,10.84,10.84,0,0,1,8,4.289c2.957,3.89,8.035,9.433,14.254,11.607C303.1,282.74,303.184,269.457,302.5,256.118Z"/><path fill="#e4efff" d="M270.363,201.608c.376,1.212.763,2.477,1.154,3.78a8.947,8.947,0,0,0,8.637,6.412,51.825,51.825,0,0,0,15.236-2.314s-1.649-6.136-3.492-13.26C284.685,194.452,277.511,196.735,270.363,201.608Z"/><path fill="#7f91bf" d="M288.393,182.222l-22.068,7.062s1.838,5.246,4.037,12.324a84.289,84.289,0,0,0,21.536-5.382C290.673,191.491,289.362,186.32,288.393,182.222Z"/><path fill="#7f91bf" d="M245.257,172.724V150.3c-30.015-13.525-68.053-11.325-110.745,0a104.532,104.532,0,0,0-10.437,16.969c2.122,5.024,7.384,12.647,20.3,16.455,20.235,5.968,57-10.661,57-10.661s4.568,13.154,19.157,22.365a19.351,19.351,0,0,1,9.061,17.755,34.712,34.712,0,0,1-6.11,17.648c-5.643,7.952-9.022,19.7-10.9,28.433q6.263-.406,12.584-.932s2.621-9.318,11.065-23.3S251.372,203.59,245.257,172.724Z"/><path fill="#e4efff" d="M256.771,185.517a56.123,56.123,0,0,1,4.45,5.46,9.2,9.2,0,0,0,8.268,3.9,68.446,68.446,0,0,0,21.493-5.451A3.6,3.6,0,0,0,293.1,185.6a74.858,74.858,0,0,1-.827-14.882,29.611,29.611,0,0,0-1.324-10.08C270.979,161.657,259.336,169.738,256.771,185.517Z"/><path fill="#e4efff" d="M151.172,93.647v13.895c1.861,3.794,1.151,7.616-1.608,11.46a40.221,40.221,0,0,1-4.021,9.345,90.457,90.457,0,0,1-5.99,8.9,11.255,11.255,0,0,1-4.482,5.394c-1.6,1.766-3.326,3.521-5.192,5.227a8.909,8.909,0,0,0-.629,12.687,34.366,34.366,0,0,0,25.73,10.813c13.833,0,30.262-5.1,43.753-14.555l24.743-33.464a54.129,54.129,0,0,1-13.024-8.079,11.016,11.016,0,0,1-5.234-5,39.194,39.194,0,0,1-10.546-24.909Z"/><path fill="#7f91bf" d="M160.81,105.922a183.171,183.171,0,0,0,29.418-18.449l-39.056,6.174-.336,14.036A61.016,61.016,0,0,1,149.563,119,26.7,26.7,0,0,0,160.81,105.922Z"/><path fill="#7f91bf" d="M280.687,146.4s-25.078-.875-33.271,30.442a82.554,82.554,0,0,1,9.641,9c2.731-6.035,9.458-15.217,25.91-21.115a32.623,32.623,0,0,0,7.973-4.083C289.1,154.531,285.5,148.745,280.687,146.4Z"/><path fill="#e4efff" d="M134.512,28.249s8.705-15.84,33.976-15.84c0,0,29.992-2.132,35.018,34.269,0,0,1.008,13.355-5.915,23.565a14.347,14.347,0,0,0-2.529,7.32l-.39,7.8A134.338,134.338,0,0,1,163.82,96.182Z"/><path fill="#7f91bf" d="M169.035,75.134a35.858,35.858,0,0,0,6.433-6.046,21.409,21.409,0,0,0,4.853-12.483l.275-4.645a3.938,3.938,0,0,0-3.61-4.168c-26.141-2.021-39.855-19.9-39.855-19.9s-.793.823-2.122,2.23l17.932,67.726a94.388,94.388,0,0,0,10.878-1.674C163.627,89.05,164.232,78.612,169.035,75.134Z"/><path fill="#e4efff" d="M135.522,25.353c4.413,7.337,16.564,24.251,36.364,27.527v4.949a13.416,13.416,0,0,1-4.425,9.968c-4.17,3.761-9.9,11.65-10.733,26.946-.248,4.542-4.566,11.089-8.732,12.916l-21.314,9.473a3.908,3.908,0,0,1-5.191-2.044c-2.3-5.44-6.351-16.1-7.254-25.788-.152-1.628-.268-3.47-.355-5.453,2.466-5.687,2.642-11.01-.2-15.855.035-3.964.115-7.805.2-11.111a39.069,39.069,0,0,1,7.836-22.525,72.776,72.776,0,0,1,8.789-9.708A3.261,3.261,0,0,1,135.522,25.353Z"/><path fill="#7f91bf" d="M217.968,136.443l-7.271-8.078s-12.2,8.466-11.969,28.438A65.914,65.914,0,0,0,217.968,136.443Z"/><path fill="#3c3c4f" d="M139.237,59.6l-25.55,8.4c-.048,5.411-.013,11.043.2,15.855l21.716-11.3a5.905,5.905,0,0,0,3.17-4.9Z"/><path fill="#e4efff" d="M226.242,118.748a8.674,8.674,0,0,0-11.207,2.5c-6.127,8.556-14.118,24.627-4.969,42.221,3.679,7.076,9.53,13.351,16.1,18.737a13.952,13.952,0,0,0,8.843,3.172h9.1a6.4,6.4,0,0,0,5.549-3.238c4.168-7.291,15.686-24.549,32.478-26.943a8.005,8.005,0,0,0,5.762-11.815c-4.117-7.467-12.2-15.746-27.9-16.531C242.769,125.99,232.09,121.925,226.242,118.748Z"/><path fill="#7f91bf" d="M316.691,269.062s.812,30.149-4.671,58.66H293.546s4.666-36.784,1.01-58.66Z"/><path fill="#7f91bf" d="M225.165,280.1s-4.211-.769-11.3-1.657c3.149,2.849,21.379,20.552,22.953,49.277h17.067S250.026,295.239,225.165,280.1Z"/><rect width="26.298" height="21.768" x="125.287" y="258.334" fill="#3c3c4f"/><path fill="#e4efff" d="M52.786,177.86l-15.154,8.919a9.012,9.012,0,0,1-11.991-2.6,37.662,37.662,0,0,1-2.106-3.446l17.9-25.658Z"/><path fill="#7f91bf" d="M23.5,180.657l24.857-11.7L41.44,155.072l-23.1,9.828A50.015,50.015,0,0,0,23.5,180.657Z"/><path fill="#7f91bf" d="M66.019,154.087l2.56,6.026a8.952,8.952,0,0,1-4.014,11.394c-3.308,1.772-7.219,3.884-10.555,5.69a12.729,12.729,0,0,1-16.128-3.362A24.34,24.34,0,0,1,32.9,162.06S51.071,154.863,66.019,154.087Z"/><path fill="#e4efff" d="M14.6,140.423l28.17-13.844a10.09,10.09,0,0,1,13.737,5.11l9.516,22.4L52.1,159.755a7.577,7.577,0,0,0-6.51,2.65l-9.237,3.761c-2.561-.541-4.707.417-6.5,2.647l-2.98,1.213c-7.749,3.254-11.628-.567-13.933-5.811a52.778,52.778,0,0,1-3.875-13.286A10.06,10.06,0,0,1,14.6,140.423Z"/><circle cx="239.039" cy="170.648" r="3.559" fill="#3c3c4f"/><circle cx="160.04" cy="60.406" r="3.559" fill="#3c3c4f"/><rect width="60.877" height="21.768" x="164.288" y="258.334" fill="#3c3c4f"/><rect width="26.47" height="21.768" x="144.702" y="258.334" fill="#ffc362" rx="6.883"/><path fill="#3c3c4f" d="M263.817,256.8l.181,7.23a3.679,3.679,0,0,0,2.878,3.5c13.066,2.855,26.67.83,26.67.83V252.119c-7.168,1.348-20.17,1.3-26.365,1.253A3.338,3.338,0,0,0,263.817,256.8Z"/><path fill="#e4efff" d="M299.625,227.875a41.5,41.5,0,0,1-4.433,15.235c-5.3,12.027-1.62,22.341,3.932,30.889,12.671,8.575,17.916,1.689,20.6-10.534C319.722,263.465,319.084,235.848,299.625,227.875Z"/><path fill="#7f91bf" d="M315.9,279.028a29.283,29.283,0,0,0,3.8-14.861s.013-.249.017-.7c-1.737,7.254-5.457,11.9-12.9,8.246-13.857-6.8-14.2-23.193-11.634-28.6a25.466,25.466,0,0,1-3.144,4.574,12.4,12.4,0,0,0-3.138,8.141v5.526a24.227,24.227,0,0,0,5.584,15.6,38.276,38.276,0,0,0,5.177,5.095,10.913,10.913,0,0,0,16.235-3.018Z"/><path fill="#3c3c4f" d="M87.914,267.223c3.231-13.733,2.362-38.953,1.9-48.3a3.654,3.654,0,0,0-3.8-3.469l-2.338.092a3.659,3.659,0,0,0-3.489,3.227c-3.844,32.789-11.96,47.266-11.96,47.266Z"/><path fill="#7f91bf" d="M63.741,256.876a97.367,97.367,0,0,0,16.427,2.491c10.838,6.819,3.026,20.735-9.977,21.1a29.41,29.41,0,0,1-14.949-7.831,9.471,9.471,0,0,1,.059-13.714q.27-.243.567-.473A9.26,9.26,0,0,1,63.741,256.876Z"/><path fill="#7f91bf" d="M80.169,259.365c1.392,5.044,2.162,14.892-9.978,21.1A42.659,42.659,0,0,0,88.3,280.1c19.949-4.67,17.206-23.328,17.206-23.328A70.624,70.624,0,0,1,80.169,259.365Z"/><path fill="#fa883e" d="M164.288,258.334h-.467L153.64,280.1h10.648a6.882,6.882,0,0,0,6.883-6.883v-8A6.883,6.883,0,0,0,164.288,258.334Z"/><path fill="#3c3c4f" d="M334.556,26.178a3.548,3.548,0,0,0-2.272-3.159l-22.773-8.506a3.5,3.5,0,0,0-2.541.036L206.591,55.289a42.986,42.986,0,0,0,.382-9.09c-8.116-50.133-56.249-39.994-70.305-25.96a3.5,3.5,0,0,0-5.236-1.007c-16.959,13.9-22.226,27.139-21.245,48.729.039,10.393-.211,17,1.145,25.99l-36.07,14.64L65.7,87.007a3.522,3.522,0,0,0-4.623-1.78l-21.2,9.427a3.5,3.5,0,0,0-1.791,4.587l9.864,22.816a13.493,13.493,0,0,0-6.728,1.381L13.053,137.281A13.5,13.5,0,0,0,5.6,151.454c1.231,7.353,4.3,19.223,11.226,22.234,2.321,6.365,4.539,12.99,10.329,16.365,7.177,36.5,18.912,58.222,24.77,67.331-11.3,14.7,10.026,26.745,21.665,27.169-8.939,13.352-18.982,27.119-29.921,41a3.527,3.527,0,0,0,2.749,5.666H312.02a3.5,3.5,0,0,0,3.437-2.839A282.456,282.456,0,0,0,320.1,278.53c4.914-9.688,7.066-40.341-17.342-53.083-2.783-14.964-4.033-15.851-8.406-33.724a3.685,3.685,0,0,0,2.624-4.178,74.8,74.8,0,0,1-1.213-16.615,35.614,35.614,0,0,0-4.543-18.552c5.847-12.225-12.824-28.906-31.048-29.022-16.491-.825-26.645-4.633-32.26-7.683h0a12.262,12.262,0,0,0-11.357-.186,49.686,49.686,0,0,1-8.876-7.686L322.45,51.636a3.5,3.5,0,0,0,1.645-1.688l10.148-22.195A3.776,3.776,0,0,0,334.556,26.178Zm-26.217-4.63,13.47,5.031L198.373,81.439l.185-3.7a10.887,10.887,0,0,1,1.93-5.531,35.221,35.221,0,0,0,4.181-8.583ZM168.488,15.909c1.573-.076,26.677-1.689,31.533,31.118.062,1.149.516,12.634-5.327,21.251-3.184,4.234-3.255,9.886-3.414,14.853a131.891,131.891,0,0,1-30.934,10.157c1.039-12.767,5.687-19.508,9.5-22.927a16.832,16.832,0,0,0,5.543-12.532V52.881a3.5,3.5,0,0,0-2.928-3.454c-16.065-2.658-26.879-15.325-32.082-23.009C144.635,21.957,153.217,15.909,168.488,15.909ZM152.129,154.94c15.087,2.8,29.491-7.665,42.194-20.716a55.764,55.764,0,0,0,8.644,6.309,39.034,39.034,0,0,0-.465,8.89c-17.726,15.638-54.119,27.565-70.709,8.725-4.262-5.183,1.85-8.632,4.969-12.173A27.659,27.659,0,0,0,152.129,154.94Zm133.893,2.651a28.2,28.2,0,0,1,2.756,12.911,78.222,78.222,0,0,0,.869,15.684,64.686,64.686,0,0,1-20.441,5.2,5.7,5.7,0,0,1-5.1-2.393,68.371,68.371,0,0,0-8.545-9.692c5.194-7.741,14.664-18.868,27.075-20.638A11.209,11.209,0,0,0,286.022,157.591Zm-38.09,31.287c2.286-.14,2.833-1.289,3.9-3.434,4.493,3.753,7.355,11.109,13.695,12.528.925,2.861,1.816,5.693,2.633,8.42,3.685,11.054,14.768,9.54,24.84,7.384a138.9,138.9,0,0,1,3.1,14.244c-.189,1.942-1.349,11.24-6.692,17.362a16.5,16.5,0,0,0-2.636,4.151,132.156,132.156,0,0,1-18.128.349c-5.73-27.328-18.345-48.533-27.41-61Zm26.052,135.344c-.1-15.116-1.626-37.789-2.729-52.386a87.9,87.9,0,0,0,16.423.577,26.489,26.489,0,0,0,4.49,7.193c1,16.713-.917,37.027-1.742,44.616Zm-17.126,0c-1.615-8.545-7.839-32.564-28.193-46.025V258.858c.616-1.936,3.5-10.313,10.561-22.009a79.917,79.917,0,0,0,9.562-22.22,149.29,149.29,0,0,1,12.805,35.736c-9.717,3.718-7.776,18.835,2.538,20.1,1.1,14.36,2.744,38.2,2.853,53.755ZM152.517,306.858c6.215-8.721,20.153-8.721,26.366,0,3.9,5.245,5.607,11.839,6.318,17.364h-39C146.911,318.7,148.615,312.1,152.517,306.858Zm31.983-4.179c-9.141-12.732-29.349-12.411-38.048.636-15.918-.61-28.1-1.541-34.239-2.073a61.72,61.72,0,0,1,14.273-17.64h79.586a98.278,98.278,0,0,1,12.855,19.214c-10.871.6-22.084.968-33.572,1.073C185.079,303.481,184.8,303.077,184.5,302.679Zm-80.648-49.064a57.576,57.576,0,0,1-10.381,2.047c1.665-15.652,1.919-30.421-.02-40.564a172.005,172.005,0,0,1,11.317-22.475,30.806,30.806,0,0,0,6.118,1.152,88.166,88.166,0,0,0,3.365,50.114A84.367,84.367,0,0,1,103.852,253.615Zm-46.025.012c-5.426-8.419-16.26-28.4-23.26-62.2a12.475,12.475,0,0,0,4.84-1.636c1.751-1.01,16.176-9.6,17.625-10.254,3.575,9.025,11.385,27.583,19.216,38.622-.558,16.887-3.66,29.19-6.38,36.428C65.3,253.829,62.074,252.315,57.827,253.627Zm5.99-94.865,1.956,4.525a5.412,5.412,0,0,1-2.861,5.135c-3.726,2-8.217,4.423-11.794,6.36-5.449,2.859-9.839-1.217-12.276-5.853Zm13.255,30.662a3.521,3.521,0,0,0,4.794,1.734l11.842-6a21.881,21.881,0,0,0,4.706,4.446,184.379,184.379,0,0,0-10.575,20.752c-2.793-.328-4.3-.7-7.742.988-7-10.938-13.813-27.4-16.861-35.153,2.254-1.232,4.64-2.268,6.306-4.189Zm50.445-44.142a12.565,12.565,0,0,0-3.154,14.074A123.151,123.151,0,0,0,112.6,186.883c-12.03.285-20.346-11.584-15.131-22.576,7.05-15.066,20.855-23.814,37.464-26.879A76.24,76.24,0,0,1,127.517,145.282Zm13.645,48.326c-1.1,2.816-6.905,15.138-25.362,20.425-.112-19.7,6.857-37.03,13.281-48.776a37.257,37.257,0,0,0,12.052,7.244A201.405,201.405,0,0,0,141.162,193.608ZM32.3,171.591c1.928,3.557,4.632,7.395,8.332,9.358l-4.78,2.814c-6.414,3.358-9.319-4.548-11.373-9.351C26.994,173.952,30.007,172.474,32.3,171.591Zm50.915,47.091c-.076-1.78,1.233-1.553,2.432-1.548,1.213-.058,1.273.446,1.311.754a172.614,172.614,0,0,1-.605,38.171,85.91,85.91,0,0,1-9.413-.465C79.7,247.712,82.655,235.533,83.219,218.682Zm32.933,2.507c16.871-4.353,25.257-13.949,29.076-20.208,18.14,22.341,47.944,35.169,87.505,33.1a121.965,121.965,0,0,0-10.094,20.757H204.978a106.39,106.39,0,0,1,.182-12.643,3.5,3.5,0,0,0-6.982-.513,113.327,113.327,0,0,0-.21,13.156h-44.26c-4.48-9.467-5.827-25.693-5.554-38.255a3.5,3.5,0,0,0-7-.153c-.133,6.094-.082,25.055,4.961,38.408H127.286A80.436,80.436,0,0,1,116.152,221.189ZM174.094,276.6a10.3,10.3,0,0,0,.577-3.383c-.122-2.444.4-9.156-.577-11.385h47.571V276.6Zm-22.51,0a3.386,3.386,0,0,1-3.382-3.383v-8a3.386,3.386,0,0,1,3.381-3.383c.006-.012,12.7.009,12.705,0a3.387,3.387,0,0,1,3.383,3.383v8a3.386,3.386,0,0,1-3.383,3.383Zm-9.805,0H128.787V261.834h12.992a10.3,10.3,0,0,0-.577,3.383C141.324,267.662,140.8,274.373,141.779,276.6Zm84.716,25.75a106.684,106.684,0,0,0-11.4-18.75h9.054a52.443,52.443,0,0,1,16.626,17.626Q233.754,301.866,226.5,302.352Zm59.237-36.858c-5.6.21-13.943,0-21.49-2.244a2.774,2.774,0,0,1-1.931-2.578c-.4-1.927.793-4.131,2.965-3.954a151.568,151.568,0,0,0,20.132-.04A60.919,60.919,0,0,0,285.732,265.494Zm-53.439-76.841a155.166,155.166,0,0,1,11.206,16.37,67.2,67.2,0,0,1-6.686,21.751,134.554,134.554,0,0,1-29.07-.515,50.943,50.943,0,0,1,4.78-12.052c6.428-11.253,8.142-23.677,8.488-31.808C224.16,185.376,227.894,188.08,232.293,188.653Zm-18.31-13.365c.247,4.341.593,21.211-7.538,35.447a58.447,58.447,0,0,0-5.646,14.388c-23.464-4.037-44.526-18.86-52.659-32.1-.443-7.324-.243-14.832-.08-18.723,19.136,2.536,39.768-4.778,55.814-16.959A47.3,47.3,0,0,0,213.983,175.288ZM142.53,126.567c-.3.51-.617,1.006-.926,1.507a104.654,104.654,0,0,1-12.354,3.537c-14.288,3.2-25.993,10.862-33.872,22.367l-7.073-15.959,59.118-26.275A37.141,37.141,0,0,1,142.53,126.567Zm-18.013-90.1a69.169,69.169,0,0,1,8.151-9.045c4.593,7.605,16.391,23.8,35.718,28.327.244,3.438-.525,7.124-3.218,9.4-4.956,4.447-11.051,13.158-11.935,29.4-.179,3.278-3.779,8.645-6.658,9.908l-21.7,9.642c-2.491-5.65-7.164-18.457-7.385-28.189l22.7-11.81a3.5,3.5,0,0,0,1.878-2.9l.663-11.4a3.524,3.524,0,0,0-4.587-3.528l-20.892,6.866C116.968,53.74,118.547,43.953,124.517,36.467Zm-7.3,41.7c-.041-2.332-.056-4.882-.046-7.636l18.274-6-.25,4.285Zm-4.358,22.719a120.08,120.08,0,0,0,5.617,16.064L85.468,131.62,78.1,114.994ZM60.716,93.048l30.342,68.458a22.968,22.968,0,0,0-.747,17.528l-8.289,4.2-9.43-21.814c-.217-1.87-2.65-6.887-3.352-8.7-1.22-2.37-9.762-24.327-11.523-25.707L45.886,99.643ZM12.517,150.4a6.525,6.525,0,0,1,3.623-6.84L44.309,129.72a6.617,6.617,0,0,1,7.44,1.125l9.29,21.49-9.974,4.06-3.484-11.373a3.5,3.5,0,1,0-6.693,2.051l3.668,11.972L35.1,162.9l-3.639-11.354a3.5,3.5,0,1,0-6.666,2.137l3.8,11.864L25.509,166.8c-4.748,2-7.2.949-9.373-3.992A49.165,49.165,0,0,1,12.517,150.4ZM55.836,265.523a5.6,5.6,0,0,1,7.076-5.246c6.67,1.625,23.014,4.725,39.148,1.048-.466,4.88-3.305,12.832-14.685,15.4-.18.049-18.195,4.8-29.669-6.576A6.322,6.322,0,0,1,55.836,265.523Zm26.087,19.121c19.528-1.012,27.994-14.611,27.239-26.3a92.65,92.65,0,0,0,8.1-7.393q1.99,4.167,4.528,8.362v19.079c-4.969,4.06-20.733,18.868-24.379,45.833H53.584C63.949,310.8,73.454,297.521,81.923,284.644Zm27.044,23.335c4.511.42,16.76,1.467,33.715,2.189a51.747,51.747,0,0,0-3.534,14.054H104.48A68.961,68.961,0,0,1,108.967,307.979Zm124.268,16.243c-.832-3.374-.371-10.693-5.659-9.758-4.581,1.35-1.633,6.569-1.42,9.758h-33.9A52.278,52.278,0,0,0,189,310.84c19.332-.267,37.9-1.24,55.282-2.906a81.194,81.194,0,0,1,5.415,16.288Zm75.873,0H297.472a325.138,325.138,0,0,0,1.947-38.132,14.494,14.494,0,0,0,13.546.3A286.525,286.525,0,0,1,309.108,324.222Zm7.1-60.236c.119,13.418-8.372,24.325-19.037,10.714a20.751,20.751,0,0,1-4.764-13.35v-5.526a8.929,8.929,0,0,1,2.275-5.839c4.614-5.288,6.73-12.145,7.683-16.767C317.048,242.588,316.219,263.761,316.209,263.986Zm-25.092-56.942a51.911,51.911,0,0,1-11,1.256,5.472,5.472,0,0,1-5.248-3.917c-.62-2.071-1.286-4.2-1.97-6.358a72.075,72.075,0,0,0,14.924-3.588C289.068,199.292,290.312,204.013,291.117,207.044Zm-66.544-85.22h0c6.254,3.4,17.446,7.633,35.251,8.523,11.526.576,19.94,5.53,25.01,14.725a4.529,4.529,0,0,1-3.191,6.66c-19.669,2.8-32.279,23.506-35.85,30.146H235.008c-7.848.387-19.438-15.14-21.837-20.024-7.965-15.318-1.836-29.428,4.709-38.566A5.188,5.188,0,0,1,224.573,121.824Zm-13.207-1.43a55.056,55.056,0,0,0-6.6,13.044,48.713,48.713,0,0,1-5.821-4.471c1.578-1.919,3.072-3.869,4.462-5.824a3.5,3.5,0,0,0-5.7-4.055c-14.8,20.533-40.767,40.79-56.31,21.493,7.638-9.469,13.851-21.046,13.219-33.679a23.986,23.986,0,0,0,4.1-6.235,116.343,116.343,0,0,0,15.86-3.629,67.712,67.712,0,0,0,9.074,24.446,3.5,3.5,0,1,0,5.952-3.685,60.973,60.973,0,0,1-8.27-22.979c4.248-1.515,7.812-3.012,10.4-4.174C194.2,105.4,204.033,115.077,211.366,120.394ZM318.249,45.9,203.4,102.106a34.657,34.657,0,0,1-4.83-13.093L324.032,33.251Z"/></svg>