<svg xmlns="http://www.w3.org/2000/svg"  viewBox="0 0 340 340" width="500px" height="500px"><path fill="#a44" d="M308.489,57.141c-14.585-13.7-21.121-27.176-24.026-35.873A11.6,11.6,0,0,0,271.329,13.6l-14.178,2.636c-11.54,6.308-23.225,20.636-29.522,29.16a24.353,24.353,0,0,0,.7,29.751,63.041,63.041,0,0,0,18.565,15.222,11.28,11.28,0,0,0,14.571-3.151,20.094,20.094,0,0,0,3.448-8.726,4.711,4.711,0,0,0-4-5.385,22.726,22.726,0,0,1-7.6-2.325,11.883,11.883,0,0,1-3.8-17.655c5.649-7.448,15.588-7.448,15.588-7.448,14.353,0,21,8.224,24,17.131a32.555,32.555,0,0,1-6.195,31.072,174.855,174.855,0,0,0-13.19,18.166,28.991,28.991,0,0,0-4.45,16.062l.956,48.282h17.321c.322-21.332,1.075-38.273,1.525-46.939a37.915,37.915,0,0,1,4.621-16.437c4.914-8.862,12.184-16.993,16.894-21.8a21.353,21.353,0,0,0,5.822-11.358l1.271-7.464A17.023,17.023,0,0,0,308.489,57.141Z"/><path fill="#d07a76" d="M144,8.466c-.23.025-.467.052-.708.082a52.273,52.273,0,0,0-38.73,25.576c-5.619,9.586-15.181,23.469-28.373,34.1-21.445,17.281-21.5,33.962-15.527,48.317,13.488,16.63,75.718,3.664,142.473-12.05,2.547-7.126,2.829-16.261-3.031-27.1a49.91,49.91,0,0,0-9.933-12.661c-5.924-5.531-18.011-17.24-26.9-28.658a54.732,54.732,0,0,1-9.483-19.215c-.278-1.013-.607-2.065-.994-3.1A8.368,8.368,0,0,0,144,8.466Z"/><path fill="#7f4242" d="M203.132,104.49c-21.267,4.179-48.783-12.228-64.465-15.609-17.014-3.669-39.613,9.4-58.412,23.384-8.413,6.259-14.94,6.22-19.59,4.275.249.6.505,1.195.775,1.786,6.723,14.748,32.967,10.844,32.967,10.844l95-7.157S199.1,115.766,203.132,104.49Z"/><path fill="#342a35" d="M108.956,59.482q-1.128,1.623-2.253,3.347A142.007,142.007,0,0,1,90.482,83.012a16.139,16.139,0,0,0-2.2,18.925c3.868,7.381,18.191,8.877,27.31,9.055a115.847,115.847,0,0,1,15.889,1.384c14.835,2.353,45.056,4.764,46.449-14.316,0,0,.1-12.384-10.336-24.7a84.345,84.345,0,0,1-6.538-8.8Z"/><path fill="#342a35" d="M21.08,331.584H77.847V225.066S19.172,262.678,21.08,331.584Z"/><polygon fill="#342a35" points="197.961 331.584 255.383 331.584 215.518 263.491 192.048 263.491 197.961 331.584"/><path fill="#342a35" d="M255.383,331.584h36.243s31.378-4.965,23.823-68.093l-25.333-59.573-44,5.778S198.428,309.473,255.383,331.584Z"/><path fill="#d07a76" d="M69.617,271.2q.018,1.97.042,3.97A33.592,33.592,0,0,1,66.5,290c-4.5,9.464-9.772,28.472,11.345,41.58h13.6c3.5-1.953,7.582-1.564,11.952,0h20.89a14.749,14.749,0,0,1,9,0h33.039c6.053-1.373,11.306-1.816,14.618,0h17.016s18.308-4.993,8.6-51.433l25.993-.228,18.264-80.55c-4.707-.427-9.858-.164-14.247,1.79-4.466.192-6.252-3.388-6.741-8.793a50.458,50.458,0,0,1-4.75-14.867C173.83,181.244,91.991,225.066,69.617,271.2Z"/><path fill="#7f4242" d="M255.383,331.584s-15.812-9.382-15.812-43.225,25.521-85.716,25.521-85.716a58.221,58.221,0,0,0-14.275-3.268c-8.758,9.113-19.872,25-24.846,50.607a4.941,4.941,0,0,1-9.569.467c-.533-1.759-1.085-3.689-1.65-5.805,0,0-1.946-11.077-8.67-17.233a2.167,2.167,0,0,0-3.476,2.347,24.494,24.494,0,0,1,1.071,11.229c-2.185,18.327,2.883,39.164,2.883,39.164l.024.1C207.142,282.5,218.366,325.862,255.383,331.584Z"/><path fill="#7f4242" d="M166.678,166.786c-22.829,6.556-49.175,17.85-72.659,37.289a14.635,14.635,0,0,0,4.208,2.2c-6.315,29.673,14.486,44.287,25.239,49.725a23.907,23.907,0,0,1,9.13,7.943c.08.12.161.238.241.354,7.082,10.325,23.344,5.1,22.978-7.412a38.165,38.165,0,0,0-2.62-12.238q.515-.178.994-.371a11.752,11.752,0,0,0,4.86-17.939c-8.031-10.645-11.822-25.6.882-45.568A67.646,67.646,0,0,0,166.678,166.786Z"/><path fill="#7f4242" d="M225.088,177.5a83.647,83.647,0,0,1-.774-19.8s-97.367-.832-154.512,71.014c0,0-.394,19.549-.184,42.485C107.988,229.394,200.783,187.917,225.088,177.5Z"/><path fill="#ffcac0" d="M149.759,105.556A10.15,10.15,0,0,0,159.9,96.105c.484-7.093.806-14.845,1.007-23.094-6.856-13.038-13.7-26.12-25.887-23.03-12.306,2.025-21.619,7.925-25.887,20.358.182,9.462.453,18.141.861,25.6a10.161,10.161,0,0,0,10.144,9.616Z"/><path fill="#d07a76" d="M228.369,145.917c4.032,8.107.075,17.95-8.235,21.544-12.2,5.275-37.142,16.207-67.595,30.348-19.8,2.2-37.952,11.674-54.589,27.782C21.878,273.213,21.08,331.584,21.08,331.584h-4.2A10.817,10.817,0,0,1,6.065,321.167c-1.688-47.888,15.994-70.339,15.994-70.339,1.734-6.248,2.387-12.06.512-16.853,3.612-25.312,19.077-38.321,19.077-38.321a13.55,13.55,0,0,0,2.786-11.629c7.616-25.6,22.026-40.28,22.026-40.28,25.791-31.668,65.594-36.565,65.594-36.565l21.248,2.612a311.917,311.917,0,0,0,37.939,5.858,15.127,15.127,0,0,1,10.78,5.957,26.649,26.649,0,0,1,2.105,3.338,14.921,14.921,0,0,0,7.154,6.6C216.6,133.878,224.662,138.465,228.369,145.917Z"/><path fill="#7f4242" d="M170.5,133.526l-71.067-6.287s5.715,36.151-5.99,55.237,4.788,23.8,4.788,23.8a45.971,45.971,0,0,0-.273,19.325,273.559,273.559,0,0,1,27.271-14.925c9.444-4.512,18.6-8.818,27.314-12.863a53.038,53.038,0,0,1,7.392-17.043C174.3,158.175,170.5,133.526,170.5,133.526Z"/><path fill="#f5eef7" d="M132.831,93.482s-23.182.206-31.715,21.434-10.6,34.614-2.64,56.668c0,0,2.94,8.99,0,16.845a5.669,5.669,0,0,0,6.97,7.515,14.534,14.534,0,0,0,6.292-3.937s-14.218,27.324,4.645,45.948c10.864,10.726,18.489,13.4,22.547,19.24a4.983,4.983,0,0,0,9-3.539c-.675-5.012-2.95-10.807-8.07-17.141,0,0,1.692,1.164,5.84,1.517a5.544,5.544,0,0,0,4.786-8.973,29.518,29.518,0,0,1-6.306-24.945c4.235-21.175,16.94-39.023,16.94-39.023s19.36-28.435,2.43-54.038c-6.906-10.445-17.793-17.652-30.314-17.575Z"/><path fill="#d07a76" d="M277.651,194.972s1.711,8.841,15.686,29.376,31.942,90.127-1.711,107.236c0,0,37.954.425,42.209-29.377,0,0,4.621-45.663-29.123-86.839a86.569,86.569,0,0,1-8.33-12.073,51.007,51.007,0,0,1-3.831-8.069Z"/><path fill="#ffcac0" d="M253.5,212.588c-7.154,17.846-14.393,44.6-9.169,72.21a36.643,36.643,0,0,0,4.384,13.19,13.905,13.905,0,0,0,24.481-.142,64.06,64.06,0,0,0,5.748-15.4V234.465C271.417,221.419,263.057,213.4,253.5,212.588Z"/><path fill="#ef837c" d="M253.506,212.588c2.469,6.565,7.49,13.667,17.451,18.835a36.717,36.717,0,0,0,7.991,3.042v-43.6H264.165A145.716,145.716,0,0,0,253.506,212.588Z"/><path fill="#ef837c" d="M128.77,80.149a3.485,3.485,0,0,1-1.835-.012,10.128,10.128,0,0,0-2.047-.309,3.5,3.5,0,1,1,.408-6.987,16.863,16.863,0,0,1,3.515.552,3.5,3.5,0,0,1-.041,6.756Z"/><path fill="#ef837c" d="M141.494,80.291a3.5,3.5,0,0,1-.483-6.739,16.919,16.919,0,0,1,3.472-.781,3.5,3.5,0,1,1,.865,6.946A24.819,24.819,0,0,1,141.494,80.291Z"/><path fill="#7f4242" d="M22.059,250.828A244.715,244.715,0,0,1,49.072,226.16a2.516,2.516,0,0,0-2.281-4.4,73.454,73.454,0,0,0-24.207,12.212A77.4,77.4,0,0,0,22.059,250.828Z"/><path fill="#7f4242" d="M44.455,183.958a110.584,110.584,0,0,0-2.807,11.7A86.722,86.722,0,0,1,61.2,184.9a1.909,1.909,0,0,0-.518-3.694A34.159,34.159,0,0,0,44.455,183.958Z"/><path fill="#7f4242" d="M97.665,241.531c-.271,4.933-1.806,16.953-2.948,27.168a2.465,2.465,0,0,1-4.873.182,95.28,95.28,0,0,1-1.6-22.746C89.425,227.45,97.665,241.531,97.665,241.531Z"/><path fill="#7f4242" d="M96.226,310.593a2.777,2.777,0,0,0-5.482.265,68.437,68.437,0,0,0,.7,20.726H103.4C99.98,326.155,97.689,317.881,96.226,310.593Z"/><path fill="#7f4242" d="M126.511,318.529a2.107,2.107,0,0,0-4.064.817,47.028,47.028,0,0,0,1.844,12.238h9A62.643,62.643,0,0,1,126.511,318.529Z"/><path fill="#7f4242" d="M178.746,306.205c-1.641,9.325-5.124,21.216-12.419,25.379h14.618c3.876-6.937,3.374-17.26,2.073-25.351A2.167,2.167,0,0,0,178.746,306.205Z"/><path fill="#7f4242" d="M171.445,193.489s2.6,15.817,4.877,35.938a2.587,2.587,0,0,0,5.1.262c2.289-10.52,4.367-25.492,1.859-38.823Z"/><path fill="#7f4242" d="M229.834,192.368c-8.7,8.215-11.073,17.218-11.287,24.085a2.492,2.492,0,0,0,4.736,1.14,44.864,44.864,0,0,1,13.287-16.43S233.113,198.708,229.834,192.368Z"/><circle cx="92.881" cy="282.83" r="3.559" fill="#7f4242"/><path fill="#b1a7c6" d="M144.184,204.114c2.993-14.966,10.213-28.261,14.192-34.776h0c-12.685,11.629-19.91,21.8-23.915,30.175a2.386,2.386,0,0,1-4.5-1.436c1.522-9.748,5.889-19.394,10.884-28.177,9.109-16.016,9.763-29.586,8.431-38.694a2.059,2.059,0,0,0-4.087.107c-.887,9.441-3.453,22.879-10.524,35.3-1.788,3.142-3.531,6.466-5.116,9.926a3.792,3.792,0,0,1-6.837.084c-2.516-5.051-5.511-10.834-5.794-23.029-.153-6.6.13-13.259.34-17.285a1.639,1.639,0,0,0-2.932-1.09c-2.176,2.8-4.638,8.252-4.406,18.512a81.543,81.543,0,0,0,1.483,15.4,30.975,30.975,0,0,1-16.639-10.419,92.6,92.6,0,0,0,3.712,12.875s2.94,8.99,0,16.845a5.669,5.669,0,0,0,6.97,7.516,14.545,14.545,0,0,0,6.292-3.938s-14.218,27.324,4.645,45.948c10.863,10.726,18.488,13.4,22.546,19.24,2.963,4.266,9.7,1.586,9-3.561-.679-5.007-2.955-10.795-8.067-17.119,0,0,1.69,1.162,5.83,1.516a5.547,5.547,0,0,0,4.8-8.974A29.513,29.513,0,0,1,144.184,204.114Z"/><path fill="#ef837c" d="M161.065,64.56c-.74-1.146-1.456-2.308-2.136-3.493A86.587,86.587,0,0,0,150.7,49.126a22.025,22.025,0,0,0-33.751-.035c-2.566,3.018-5.277,6.488-7.991,10.393q.069,5.572.171,10.855c4.4-6.6,10.438-14.909,23.75-16.246,0,0,10.661-2.056,18.16,9.016a35.7,35.7,0,0,0,9.862,9.9Q161,68.867,161.065,64.56Z"/><path fill="#a44" d="M283.934,233.17c-.748-23.728-.645-46.325-.259-64.8a166.171,166.171,0,0,0-17.592,1.578l1.174,59.329h0l.813,41.061v61.247h16.945l.8-61.65C284.918,257.65,283.934,233.17,283.934,233.17Z"/><path fill="#ef837c" d="M258.762,152.428h-6.617a9.577,9.577,0,0,0-9.577,9.577v13.984a8.1,8.1,0,0,0,8.1,8.1h10.086Z"/><path fill="#ffcac0" d="M287.9,152.428h-29v11.7a11.04,11.04,0,0,1,0,7v10.112a9.662,9.662,0,0,1,0,7v4.563a8.522,8.522,0,0,0,8.522,8.522H287.9a10.8,10.8,0,0,0,10.8-10.8V163.224A10.8,10.8,0,0,0,287.9,152.428Z"/><path fill="#ef837c" d="M278.948,164.132H258.9v7h20.046a3.5,3.5,0,0,0,0-7Z"/><path fill="#ef837c" d="M278.948,181.244H258.9v7h20.046a3.5,3.5,0,0,0,0-7Z"/></svg>