<svg xmlns="http://www.w3.org/2000/svg"  viewBox="0 0 340 340" width="500px" height="500px"><path fill="#c46c60" d="M300.627,180.69s-1.106,52,2.051,119.932a34.949,34.949,0,0,0,3.04,12.966,25.752,25.752,0,0,1,1.063,2.725c2.017,6.167-2.987,12.388-9.746,12.275l-30.932-.514c-9.779-.163-17.71-7.638-18.014-16.978L245.9,243.859Z"/><path fill="#f7a594" d="M209.142,50.737s-52,4.824-96.824,56.9a2.449,2.449,0,0,0,.118,3.315,13.293,13.293,0,0,0,5.895,3.631s-60.574,22.006-86.781,96.08c0,0-31.528,86.416,29.2,114.811a30.023,30.023,0,0,0,12.719,2.773h80.194a29.334,29.334,0,0,0,13.089-2.949,23.432,23.432,0,0,0,10.775-10.5s4.959,13.446,17.666,13.446h24.013a13.64,13.64,0,0,0,9.8-4.011c5.675-5.831,2.836-13.129,2.09-20.27a121.017,121.017,0,0,1-.82-18.028v-5.249a22.99,22.99,0,0,1,6.55-16.338,22.128,22.128,0,0,1,8.72-5.338s35.818-11.32,53.431-62.01a127.341,127.341,0,0,0,6.866-41.8V143.407a26.311,26.311,0,0,1,4.249,4.032,1.789,1.789,0,0,0,3.057-.613c2.518-7.832,7.664-29.392-2.967-51.149Z"/><path fill="#f7a594" d="M296.56,54.883c2.214-13.274.7-23.45-1.882-30.857-4.857-13.926-23.146-17.153-32.13-5.456a48.568,48.568,0,0,0-6.933,13.038c-2.219-.525-11.587-.525-13.807,0a48.529,48.529,0,0,0-6.932-13.038c-8.984-11.7-27.274-8.47-32.13,5.456-2.584,7.407-4.1,17.583-1.883,30.857-18.159,20.534-18.026,45.5-18.026,45.5l11.255-1.324c-.331,16.552,6.621,25.821,6.621,25.821l7.282-9.6c12.91,27.806,35.954,32.172,35.954,32.172l6.32-6.5,5.841,6.851s23.332-6.263,33.319-32.523l7.282,9.6s6.952-9.269,6.621-25.821l11.255,1.324S314.72,75.417,296.56,54.883Z"/><path fill="#404a66" d="M215.85,44.779c2.669-1.726,7.482-4.774,11.248-6.807a2.557,2.557,0,0,0,1.2-3.1c-.287-.809-.659-1.791-1.114-2.841-2.795-6.462-12.407-5.361-13.569,1.582a35.337,35.337,0,0,0-.138,10.037A1.544,1.544,0,0,0,215.85,44.779Z"/><path fill="#404a66" d="M281.237,44.779c-2.668-1.726-7.481-4.774-11.248-6.807a2.555,2.555,0,0,1-1.2-3.1c.286-.809.659-1.791,1.113-2.841,2.8-6.462,12.407-5.361,13.57,1.582a35.337,35.337,0,0,1,.138,10.037A1.545,1.545,0,0,1,281.237,44.779Z"/><path fill="#fff" d="M264.8,198.653l-2.981-5.728c-3.859,3.94-10.562,7.527-15.053,9.667a8.428,8.428,0,0,1-8.438-.7,203.269,203.269,0,0,0-22.9-13.773,116.839,116.839,0,0,0-25.836-9.313,143.4,143.4,0,0,1,21.33,17.724c21.667,20.136,38.778,26.3,46.472,28.162a9.747,9.747,0,0,0,7.79-1.448c18.4-12.6,30.009-26.5,37.085-37.463a130.118,130.118,0,0,0,3.575-30.582V143.407c-11.712,38.5-29.865,52.4-36.811,56.48A3.042,3.042,0,0,1,264.8,198.653Z"/><path fill="#404a66" d="M248.712,90.327a21.036,21.036,0,0,0-7.088,1.215c-3.927,1.4-5.508,5.684-3.388,8.982a23.878,23.878,0,0,0,9.3,8.183,2.641,2.641,0,0,0,2.354,0,23.878,23.878,0,0,0,9.3-8.183c2.12-3.3.538-7.583-3.388-8.982A21.04,21.04,0,0,0,248.712,90.327Z"/><path fill="#c46c60" d="M164.9,286.376l-6.533,7.546a13.835,13.835,0,0,1-10.459,4.78H79.425c-38.746,0-52.031-21.732-56.036-41.839-.406,25.286,6.772,54.308,37.363,68.611a30.023,30.023,0,0,0,12.719,2.773h80.194a29.334,29.334,0,0,0,13.089-2.949,23.432,23.432,0,0,0,10.775-10.5,117.052,117.052,0,0,1-7.015-26.762A3.213,3.213,0,0,0,164.9,286.376Z"/><path fill="#404a66" d="M27.792,209.292a160.767,160.767,0,0,0-8.415,48.083c-.4,34.6,13.322,59.4,39.681,71.723a34.242,34.242,0,0,0,14.413,3.149h80.194a33.489,33.489,0,0,0,14.872-3.369,28.462,28.462,0,0,0,8.652-6.5c3.244,4.527,8.986,9.87,18.006,9.87H219.66a16.687,16.687,0,0,0,16.434-13.162c.792-3.9.167-7.751-.438-11.475-.229-1.413-.446-2.747-.583-4.061a106.436,106.436,0,0,1-.811-14.852c.006-.839.013-1.74.013-2.759v-5.112c.022-.339.079-1.212.153-2.5a18.759,18.759,0,0,1,5.219-11.138,18.129,18.129,0,0,1,7.1-4.358c.649-.2,16.077-5.226,31.907-22.719a4,4,0,0,0-5.932-5.367c-14.276,15.776-28.257,20.416-28.445,20.476a26.22,26.22,0,0,0-9.185,5.273c.118-7.747-.024-16.009-.866-21.509a4,4,0,1,0-7.908,1.211c1.486,9.7.554,29.887.135,37.361a28.381,28.381,0,0,0-.181,3.135v5.249c0,1-.007,1.88-.013,2.7a114.013,114.013,0,0,0,.854,15.741c.161,1.539.406,3.05.644,4.51.511,3.154,1,6.134.5,8.6a8.668,8.668,0,0,1-8.595,6.752H195.2c-9.7,0-13.751-10.4-13.913-10.829-.022-.061-.054-.116-.08-.175-.015-.036-.02-.073-.036-.108-7.192-15.7-11.073-66.9-11.112-67.416,0-.05-.008-.1-.013-.148-1.843-16.453-6.191-26.961-6.375-27.4a4,4,0,0,0-7.38,3.089c.041.1,4.086,9.943,5.8,25.129.026.339.1,1.255.21,2.637-6.938.707-12.088,4.617-15.242,7.877a66.949,66.949,0,0,0-10-9.631,43.2,43.2,0,0,0-27.657-9.967h-.2a50.445,50.445,0,0,0-.491-7.971,4,4,0,0,0-5.19-3.193,67.411,67.411,0,0,0-21.893,12.52,4,4,0,0,0,5.348,5.949,61.787,61.787,0,0,1,14.234-9.005,24.356,24.356,0,0,1-.371,5.225,4.01,4.01,0,0,0,4.631,4.74,34.676,34.676,0,0,1,26.531,7.9c.047.039.095.076.143.113,2.174,1.65,8.426,7.008,11.208,11.931a4,4,0,0,0,3.424,2.032h.058a4,4,0,0,0,3.424-1.931c.052-.088,4.755-7.711,12.76-8.614,1.509,15.6,4.843,44.106,10.074,57.541a19.67,19.67,0,0,1-8.114,7.173,25.472,25.472,0,0,1-11.306,2.53H73.471a26.2,26.2,0,0,1-11.025-2.4c-23.586-11.028-35.385-32.625-35.071-64.19A155.382,155.382,0,0,1,35.321,212c13.171-37.23,35.376-60.691,51.684-73.818,17.731-14.271,32.549-19.783,32.692-19.836a4,4,0,0,0-.378-7.635,8.142,8.142,0,0,1-2.976-1.605c23.369-26.707,48.575-40.283,65.848-47a4,4,0,1,0-2.9-7.455c-18.717,7.282-46.3,22.218-71.395,52.016a4,4,0,0,0-.213,4.877,18.782,18.782,0,0,0,2.127,2.452,152.1,152.1,0,0,0-27.543,17.735C65.055,145.516,41.631,170.176,27.792,209.292Z"/><path fill="#404a66" d="M180.186,103.376a4,4,0,0,0,3.118.976l6.87-.809c.839,14.894,7.049,23.347,7.338,23.733a4.005,4.005,0,0,0,3.19,1.6h.011a4,4,0,0,0,3.186-1.583l3.458-4.558a68.338,68.338,0,0,0,5.992,8.793,4,4,0,0,0,6.233-5.016,62.757,62.757,0,0,1-7.959-12.921,4,4,0,0,0-6.815-.733l-3.492,4.6a45.809,45.809,0,0,1-3.225-18.326,4,4,0,0,0-4.467-4.052l-6.465.76c.887-7.77,4.217-24.194,16.7-38.31a4,4,0,0,0,.949-3.308c-1.793-10.759-1.216-20.476,1.715-28.882A14.564,14.564,0,0,1,218.1,15.605a14.089,14.089,0,0,1,13.6,5.4,44.525,44.525,0,0,1,6.331,11.928,4.033,4.033,0,0,0,4.693,2.567,63.108,63.108,0,0,1,11.966,0,4,4,0,0,0,4.694-2.567,44.569,44.569,0,0,1,6.331-11.928,14.092,14.092,0,0,1,13.6-5.4A14.562,14.562,0,0,1,290.9,25.343c2.932,8.406,3.508,18.123,1.714,28.882a4,4,0,0,0,.949,3.309c12.428,14.051,15.783,30.521,16.689,38.308l-6.453-.759a4,4,0,0,0-4.467,4.052,45.845,45.845,0,0,1-3.225,18.327l-3.493-4.6a4,4,0,0,0-6.926,1,53.125,53.125,0,0,1-5.283,10.368,4,4,0,0,0,6.678,4.405,59.488,59.488,0,0,0,3.242-5.55l3.2,4.216a4,4,0,0,0,3.187,1.583h.01a4,4,0,0,0,3.19-1.6c.289-.386,6.5-8.839,7.338-23.733l6.869.809a4,4,0,0,0,4.468-3.951A78.26,78.26,0,0,0,300.8,53.673c1.648-11.369.862-21.777-2.342-30.964a22.745,22.745,0,0,0-17.861-15,21.98,21.98,0,0,0-21.219,8.426,51.191,51.191,0,0,0-6.39,11.185,84.021,84.021,0,0,0-8.547,0,51.063,51.063,0,0,0-6.39-11.185,21.976,21.976,0,0,0-21.22-8.426,22.744,22.744,0,0,0-17.859,15c-3.2,9.186-3.99,19.6-2.342,30.964a78.258,78.258,0,0,0-17.79,46.728A4,4,0,0,0,180.186,103.376Z"/><path fill="#404a66" d="M226.905,144.027c8.739,5.87,16,7.293,16.3,7.35a3.99,3.99,0,0,0,3.612-1.141l3.258-3.351,2.991,3.509a4,4,0,0,0,3.044,1.405,4.052,4.052,0,0,0,1.037-.136,53.068,53.068,0,0,0,17.2-9.224,4,4,0,0,0-4.935-6.3,49.426,49.426,0,0,1-12.035,6.981l-4.067-4.77a4,4,0,0,0-2.913-1.4,4.049,4.049,0,0,0-3,1.21l-4.682,4.814a45.337,45.337,0,0,1-11.353-5.588,4,4,0,0,0-4.461,6.641Z"/><path fill="#404a66" d="M232.15,35.415a44.9,44.9,0,0,0-1.909-5.266,10.677,10.677,0,0,0-11.17-6.4,10.522,10.522,0,0,0-9.271,8.882,39.25,39.25,0,0,0,.214,13.149,4,4,0,0,0,6.155,2.648c.091-.059,9.063-6.01,13.874-8.342A4,4,0,0,0,232.15,35.415Zm-14.806,2.757a26.454,26.454,0,0,1,.346-4.219,2.6,2.6,0,0,1,2.355-2.261,2.788,2.788,0,0,1,.351-.021,2.611,2.611,0,0,1,2.506,1.663c.184.421.352.832.5,1.221C221.409,35.676,219.254,36.982,217.344,38.172Z"/><path fill="#404a66" d="M283.132,49.1a4,4,0,0,0,3.941-3.315,39.256,39.256,0,0,0,.215-13.15,10.523,10.523,0,0,0-9.273-8.882,10.675,10.675,0,0,0-11.168,6.4,45.161,45.161,0,0,0-1.91,5.266,4,4,0,0,0,2.108,4.674c4.81,2.332,13.783,8.283,13.874,8.342A3.992,3.992,0,0,0,283.132,49.1Zm-9.45-14.544c.153-.388.321-.8.5-1.221a2.66,2.66,0,0,1,2.857-1.642,2.6,2.6,0,0,1,2.354,2.261,26.452,26.452,0,0,1,.347,4.219C277.835,36.982,275.678,35.676,273.682,34.555Z"/><path fill="#404a66" d="M306.4,180.74c2.347-10.751,3.44-18.866,3.44-25.541v-1.942a4,4,0,0,0,5.878-1.776,76.45,76.45,0,0,0,4.211-37.3,4,4,0,1,0-7.923,1.108,70.279,70.279,0,0,1-1.638,26.694,23.053,23.053,0,0,0-2.235-1.848c-.088-.061-.181-.109-.272-.163-.052-.031-.1-.065-.155-.094a4.031,4.031,0,0,0-.646-.27c-.02-.006-.036-.017-.056-.023-.036-.011-.071-.012-.106-.021a3.877,3.877,0,0,0-.583-.115c-.052-.007-.1-.017-.156-.021a4.016,4.016,0,0,0-.676,0c-.062,0-.121.017-.183.025a4.081,4.081,0,0,0-.521.107c-.06.016-.119.031-.178.05a3.97,3.97,0,0,0-.61.25l-.022.013c-.021.012-.04.026-.061.038a3.879,3.879,0,0,0-.518.344c-.049.037-.095.076-.142.116a3.857,3.857,0,0,0-.422.416c-.024.028-.05.051-.074.079a4.032,4.032,0,0,0-.388.573c-.028.049-.052.1-.078.15a4.119,4.119,0,0,0-.245.586c-.008.024-.021.044-.029.069-10.83,35.6-27.338,49.308-34.146,53.644l-2.5-4.808a4,4,0,0,0-6.4-.953c-4.179,4.265-12.46,8.244-16.278,9.94a206.49,206.49,0,0,0-25.443-15.513,120.759,120.759,0,0,0-26.465-9.583c-26.824-10.422-28.5-30.935-28.555-31.785a4,4,0,0,0-7.985-.04,20.719,20.719,0,0,1-2.192,8.077c-10.068-16.591-3.422-34.225-3.109-35.032a4,4,0,0,0-7.445-2.928c-.415,1.051-9.957,25.977,7.435,47.382a4,4,0,0,0,5.847.39,22.11,22.11,0,0,0,3.312-4.281c4.074,8.375,12.449,18.867,29.581,25.585a138.909,138.909,0,0,1,20.422,17.014c.036.037.073.072.111.108,30.439,28.287,52.451,29.958,53.373,30.016.083,0,.165.008.248.008a4,4,0,0,0,2.173-.642c13.727-8.882,24.469-18.213,32.8-28.48-.07,23.356.1,61.816,1.889,100.445a38.845,38.845,0,0,0,3.4,14.444,21.985,21.985,0,0,1,.9,2.306,4.982,4.982,0,0,1-.776,4.584,6.181,6.181,0,0,1-4.992,2.448h-.11l-30.932-.514c-7.661-.128-13.847-5.886-14.082-13.109l-1.11-34.044a4,4,0,0,0-8,.26l1.11,34.045c.375,11.49,10.014,20.648,21.945,20.846l30.933.514.241,0a14.193,14.193,0,0,0,11.43-5.7,12.928,12.928,0,0,0,1.944-11.819,30.37,30.37,0,0,0-1.229-3.149,30.843,30.843,0,0,1-2.681-11.486c-2.228-47.935-1.935-95.669-1.809-114.3A46.313,46.313,0,0,0,306.4,180.74Zm-45.528,40.584c-4.757-.812-23.028-5.25-47.176-27.672-1.349-1.354-2.659-2.617-3.939-3.816,1.274.577,2.561,1.192,3.851,1.848a198.351,198.351,0,0,1,26.141,16.149,4,4,0,0,0,3.9.52,89.716,89.716,0,0,0,16.925-9.147l2.071,3.977a4,4,0,0,0,4.975,1.891c.9-.343,18.478-7.4,33.113-37.455-.527,3.442-1.234,7.222-2.149,11.414a37.551,37.551,0,0,1-7.085,15.145C283.832,203.925,273.8,212.815,260.875,221.324Z"/><path fill="#404a66" d="M248.712,120.9a4,4,0,0,0,4-4v-5.167a27.74,27.74,0,0,0,9.84-9.047,9.781,9.781,0,0,0,1.054-8.491,10.418,10.418,0,0,0-6.462-6.421,25.389,25.389,0,0,0-16.862,0,10.422,10.422,0,0,0-6.465,6.422,9.781,9.781,0,0,0,1.054,8.491,27.741,27.741,0,0,0,9.841,9.047V116.9A4,4,0,0,0,248.712,120.9ZM241.6,98.361a1.781,1.781,0,0,1-.212-1.583,2.483,2.483,0,0,1,1.58-1.468,17.274,17.274,0,0,1,11.491,0,2.479,2.479,0,0,1,1.576,1.467,1.779,1.779,0,0,1-.213,1.583,19.824,19.824,0,0,1-7.112,6.45A19.8,19.8,0,0,1,241.6,98.361Z"/><path fill="#404a66" d="M224.505,73.033a23.908,23.908,0,0,1,7.007,3.367,4,4,0,1,0,4.8-6.4,32.036,32.036,0,0,0-9.737-4.695,4,4,0,0,0-2.071,7.728Z"/><path fill="#404a66" d="M275.744,68.139a4,4,0,0,0-4.9-2.834A32.036,32.036,0,0,0,261.111,70a4,4,0,1,0,4.8,6.4,23.951,23.951,0,0,1,7.008-3.367A4,4,0,0,0,275.744,68.139Z"/></svg>