<svg xmlns="http://www.w3.org/2000/svg"  viewBox="0 0 340 340" width="500px" height="500px"><path fill="#8c9d78" d="M215.993,67.2s.335,17.374-4.648,28.73-11.63,43.117-5.409,80.1l3.124,21.556,18.887-.09s-7.06-54.526-3.662-81.235S215.993,67.2,215.993,67.2Z"/><path fill="#8c9d78" d="M223.1,197.645s1.414-34.5,31.051-44.069c12.884-4.16,20.643-10.283,25.3-15.877,0,0-2.979,14.549-18.494,25.759A29.559,29.559,0,0,0,249.216,181.1a53.5,53.5,0,0,0-.931,16.544Z"/><path fill="#d3dd96" d="M217.69,197.509l.612-38.621a58.529,58.529,0,0,1,6.06-11.279C239.005,126.394,262.891,99,263.394,86.592c0,0,10.164,21.649-12.591,57.656-21.4,33.87-16.634,53.4-16.634,53.4Z"/><path fill="#8c9d78" d="M219.822,155.478c-.544,1.136-1.059,2.273-1.52,3.41l-.612,38.621,11.928.1C230.543,179.928,223.976,163.78,219.822,155.478Z"/><path fill="#d3dd96" d="M182.18,133.014s39.913,15.606,39.411,64.545H195.655S200.687,159.542,182.18,133.014Z"/><path fill="#fcf2f8" d="M107.064,141.058S84.611,146.4,84.611,172.566v41.681H175.2s2.038-46.77-13.4-63.49Z"/><path fill="#fcf2f8" d="M102.979,266.962,99.17,283.145c-.643,11.812-2.2,28.222-5.936,42.705H131.64V266.962Z"/><path fill="#d3bbbb" d="M99.168,283.145c5.847.941,17.547,2.632,32.472,3.808V266.962H99.612S99.691,273.535,99.168,283.145Z"/><path fill="#ffd0d3" d="M129.474,116.952v29.529c2.626,3.5,11.274,8.825,15.934,13.012a12.827,12.827,0,0,0,8.567,3.278h0c5.327,0,10.3-7.3,7.825-12.014-1.354-2.583-3.209-4.047-4.606-6.438s-3.261-4.7-3.261-7.453v-7.011Z"/><path fill="#e08690" d="M153.933,129.855V113.338L129.474,97.023v19.929S136.521,129.394,153.933,129.855Z"/><path fill="#f29a68" d="M108.674,37.824S86.566,18.714,70.5,42.994a24.724,24.724,0,0,0-4.045,13.652v47.315s0,17.863-5.905,21.554c0,0,36.464,5.02,36.464-23.325V66.021Z"/><path fill="#ffcb8a" d="M178.372,70.768s16.291-22.576,1.409-43.338c-14.27-19.907-29.949-10.922-29.949-10.922S121.645,4.176,101.385,34.829s2.643,57.784,16.56,60.955Z"/><path fill="#ffd0d3" d="M165.007,43.105c.393.709-3.039,32.7-34.473,39.776,0,0-1.944-8.309-10.253-8.309,0,0-7.955-1.061-7.955,11.491v8.242c0,6.814,7.42,11.394,13.275,7.909a8.443,8.443,0,0,0,3.873-5.191s3.889,23.512,26.163,23.512h0A26.164,26.164,0,0,0,181.8,94.372V72.891a34.368,34.368,0,0,0-15.559-29.024Q165.641,43.48,165.007,43.105Z"/><path fill="#ff97bf" d="M121.378,134.648a13.342,13.342,0,0,1,12.265,6.166,64.544,64.544,0,0,1,10.251,34.125v20.534A11.08,11.08,0,0,0,155.026,206.5h0a11.079,11.079,0,0,0,11.131-11.027v-20.3a46.245,46.245,0,0,0-1.4-11.323c-1.522-6.034-4.485-15.319-9.208-22.221l.095.232a19.615,19.615,0,0,1,15.927,7.785,50.117,50.117,0,0,1,9.854,30.651l4.627,145.549H124.107s.2-33.241,0-49.993c0,0-14.7-.8-25.114-3.622a7.764,7.764,0,0,1-5.759-7.482v-2.764a7.792,7.792,0,0,1,7.828-7.755h25.994l-.59-78.892S124.3,148.46,107.2,141.058A24.371,24.371,0,0,1,121.378,134.648Z"/><path fill="#e770a2" d="M183.345,240.8H126.956l.1,13.436H101.062a7.822,7.822,0,0,0-7.317,5.016c4.082,4.642,14.463,11.247,40.529,11.247h50.015Z"/><path fill="#ffd0d3" d="M127.173,223.689l.059,1.336a6.933,6.933,0,0,0,6.915,6.427H159.69v27.383s-45.894,3.347-56.462-4.6c-4.693-3.528-6.742-12.558-7.595-21.146C104.564,227.833,115.439,225.185,127.173,223.689Z"/><path fill="#ebf6ff" d="M244.684,288.4H197.975a14.229,14.229,0,0,1-14.206-13.417l-.256-4.487a101.786,101.786,0,0,0-2.19-38.32l-2.144-37.532a2.594,2.594,0,0,1,2.589-2.742h79.123a2.594,2.594,0,0,1,2.59,2.742l-4.59,80.339A14.23,14.23,0,0,1,244.684,288.4Z"/><path fill="#b4cde0" d="M181.816,240.8l1.7,29.7h8.77s26.557,2.337,24.189-29.7Z"/><path fill="#93c3fc" d="M155.472,220.57l4.218,38.265h38.745A18.036,18.036,0,0,0,216.472,240.8v-2.41a15.493,15.493,0,0,0-14.665-15.471h0a8.34,8.34,0,0,1-7.586-6.084h0a9.26,9.26,0,0,0-8.918-6.768h0a9.259,9.259,0,0,0-9.018,7.155l-1,4.271Z"/><path fill="#e08690" d="M159.637,105.089a20.108,20.108,0,0,1-10.662-3.107,3,3,0,0,1,3.4-4.944,13.679,13.679,0,0,0,14.435-.08,3,3,0,0,1,3.138,5.114A19.468,19.468,0,0,1,159.637,105.089Z"/><circle cx="169.396" cy="82.184" r="3.899" fill="#e08690"/><circle cx="155.631" cy="82.184" r="3.899" fill="#e08690"/><path fill="#e08690" d="M126.757,214.247H95.231a133.2,133.2,0,0,0,.4,18.841l31.54-9.4Z"/><path fill="#b4cde0" d="M244.684,288.4a14.23,14.23,0,0,0,14.207-13.417l4.59-80.339a2.594,2.594,0,0,0-2.59-2.742H239.754l-3.892,83.258s-.158,8.038-5.548,13.24Z"/><rect width="28.63" height="40.668" x="248.074" y="216.017" fill="#697cb7" rx="14.315"/><path fill="#3e3e54" d="M60.071,128.983a52.745,52.745,0,0,0,6.651.381c7.034,0,18.12-1.2,25.7-7.808,5.366-4.678,8.087-11.193,8.087-19.366V96.63a3.5,3.5,0,0,0-7,0v5.56c0,6.137-1.856,10.741-5.672,14.077-5.812,5.078-14.89,6.06-20.846,6.086,2.771-6.714,2.959-16.015,2.959-18.391V56.646a21.144,21.144,0,0,1,3.464-11.72c6.293-9.51,14.2-12.716,23.534-9.6-6.424,10.808-8.53,22.281-6.077,33.344a44.378,44.378,0,0,0,18.009,26.765,12.684,12.684,0,0,0,6.362,9.854,11.963,11.963,0,0,0,10.729.657V131.5a16.637,16.637,0,0,0-4.867-.339,27.922,27.922,0,0,0-15.617,6.714c-4.2,1.306-24.379,8.93-24.379,34.693v41.681a3.5,3.5,0,0,0,3.5,3.5h6.974c-.193,7.6.051,24.128,5.163,33.84a11.269,11.269,0,0,0-7.014,10.4v2.764a11.274,11.274,0,0,0,6.278,10.068c-.329,11.773-1.585,32.4-6.168,50.154a3.5,3.5,0,1,0,6.779,1.749c4.529-17.551,5.921-37.662,6.333-49.974a159.575,159.575,0,0,0,17.682,2.371c.14,17.247-.029,46.4-.031,46.708a3.5,3.5,0,0,0,3.479,3.521h.021a3.5,3.5,0,0,0,3.5-3.48c0-.332.194-33.463,0-50.054a3.5,3.5,0,0,0-3.309-3.454c-.144-.008-14.463-.817-24.39-3.5a4.278,4.278,0,0,1-3.174-4.1v-2.764a4.3,4.3,0,0,1,4.328-4.254h.925c.057,0,.111-.015.168-.017,7.162,4.334,23.257,5.347,36.721,5.347,10.1,0,40.822-.73,40.822-.73l2.854,63.672a3.5,3.5,0,0,0,3.494,3.343c.053,0,.106,0,.159,0a3.5,3.5,0,0,0,3.34-3.653l-1.657-36.965a17.633,17.633,0,0,0,10.087,3.175h46.709a17.741,17.741,0,0,0,17.7-16.719l.86-15.043a17.821,17.821,0,0,0,16.96-17.772V230.332a17.844,17.844,0,0,0-14.259-17.457l1.187-20.771a3.5,3.5,0,0,0-3.5-3.7h-11.95a50.455,50.455,0,0,1,.951-6.57,26,26,0,0,1,10.37-15.54c16.431-11.872,19.74-27.246,19.873-27.894a3.5,3.5,0,0,0-6.119-2.941c-5.39,6.477-13.358,11.452-23.683,14.785-.791.256-1.558.553-2.327.847.94-1.622,1.937-3.277,3.01-4.975,23.509-37.2,13.249-60.058,12.8-61.012A3.5,3.5,0,0,0,259.9,86.45c-.321,7.908-13.34,25.267-24.827,40.583-4.681,6.241-9.52,12.693-13.588,18.588a62.1,62.1,0,0,0-6.5,12.169,68.96,68.96,0,0,0-8.056-10.931c-.166-24.973,4.708-42.868,7.629-49.524a57.145,57.145,0,0,0,3.737-13.753,84.429,84.429,0,0,1,2.525,32.241c-.459,3.613-.756,7.9-.881,12.752a3.5,3.5,0,0,0,7,.181c.119-4.615.4-8.669.828-12.05,3.5-27.483-8.166-50.177-8.664-51.13a3.5,3.5,0,0,0-6.6,1.688c0,.167.255,16.756-4.353,27.258-3.79,8.638-7.536,25.619-8.137,45.626a64.335,64.335,0,0,0-16.549-10.394,3.5,3.5,0,0,0-4.145,5.262c12.457,17.856,13.7,41.653,13.434,53.389H179.022a3.5,3.5,0,0,0-3.494,3.7l.374,6.547a3.5,3.5,0,1,0,6.988-.4l-.162-2.847h77.2l-1,17.454a17.842,17.842,0,0,0-14.361,17.473v12.037a17.831,17.831,0,0,0,11.72,16.719l-.9,15.7A10.737,10.737,0,0,1,244.684,284.9H197.975a10.738,10.738,0,0,1-10.711-10.109l-.559-12.459h11.73A21.561,21.561,0,0,0,219.972,240.8v-2.411A18.992,18.992,0,0,0,202,219.423a4.837,4.837,0,0,1-4.4-3.531,12.76,12.76,0,0,0-24.715.533l-.335,1.435-16.907-.786a3.5,3.5,0,0,0-3.642,3.879l.772,7H134.147a3.446,3.446,0,0,1-3.424-3.182l-.757-49.454c0-.085,0-.17-.011-.255-.086-1.069-2.1-23.948-16.375-34.355a19.575,19.575,0,0,1,8.069-2.569,9.824,9.824,0,0,1,9.043,4.558c3.623,5.685,9.7,17.435,9.7,32.244v20.534a14.632,14.632,0,0,0,29.263,0v-20.3A49.8,49.8,0,0,0,168.148,163a91.914,91.914,0,0,0-5.683-16.212,15.878,15.878,0,0,1,6.306,4.968,46.421,46.421,0,0,1,9.1,26.058,3.5,3.5,0,0,0,6.993-.319,53.4,53.4,0,0,0-10.494-29.947,23.2,23.2,0,0,0-16.5-9.045,4.177,4.177,0,0,1-.427-1.635v-12.89a29.7,29.7,0,0,0,27.868-29.6V72.891a39.64,39.64,0,0,0-.523-6.327c4.121-8.632,9.216-25.313-2.152-41.173C169.433,6.988,154.531,10.82,149.7,12.739c-6.233-2.059-30.122-7.814-48.691,16.6-8.377-3.31-22.3-5.1-33.427,11.719a28.123,28.123,0,0,0-4.626,15.584V103.96c-.007,7.7-1.721,17-4.26,18.588a3.5,3.5,0,0,0,1.378,6.435Zm195.158,27.923a69.888,69.888,0,0,0,13.708-6.008,47.825,47.825,0,0,1-10.029,9.723,32.992,32.992,0,0,0-13.115,19.747,57.56,57.56,0,0,0-1.134,8.037h-7.268c.506-5.81,2.308-14.793,7.715-26.5A37.979,37.979,0,0,1,255.229,156.906ZM227.242,149.6c3.991-5.781,8.788-12.178,13.428-18.364,8.4-11.2,16.511-22.015,21.434-31,0,9.357-2.657,23.783-14.259,42.143-12.914,20.435-16.739,35.953-17.481,46.027h-5.676a75.027,75.027,0,0,0-5.308-21.826A56.917,56.917,0,0,1,227.242,149.6Zm-35.8-7.273c9.947,7.162,23.672,21.35,26.231,46.081H199.745C200.015,176.776,198.888,158.81,191.441,142.324Zm60.132,100.045V230.332a10.816,10.816,0,0,1,21.631,0v12.037a10.816,10.816,0,1,1-21.631,0Zm-76.447-17.381a3.487,3.487,0,0,0,3.57-2.7l1-4.271a5.76,5.76,0,0,1,11.156-.24,11.833,11.833,0,0,0,10.77,8.637,11.992,11.992,0,0,1,11.352,11.975V240.8a14.553,14.553,0,0,1-14.537,14.536h-35.61L159.4,224.257Zm-40.979,9.964h19.389l2.274,20.626c-17.523,1-44.012.722-50.479-4.141-5.634-4.237-7.089-21.68-6.751-33.69h24.61l.551,7.534A10.474,10.474,0,0,0,134.147,234.952Zm-11.18-59.438.264,35.233H88.111V172.566c0-20.171,14.62-26.433,18.734-27.8C120.365,151.656,122.8,173.762,122.967,175.514Zm10.177-40.5a22.218,22.218,0,0,1-.17-2.63v-19.28a27.577,27.577,0,0,0,17.459,10.506v13.253a12.736,12.736,0,0,0,2.1,6.546,3.55,3.55,0,0,0,.232.339c.02.032.035.065.056.1a55.781,55.781,0,0,1,5.683,11.6c-.886,2.089-2.886,3.828-4.528,3.828a9.3,9.3,0,0,1-6.227-2.381c-1.515-1.362-3.008-2.823-4.444-4.339a71.474,71.474,0,0,0-6.709-13.619A17.054,17.054,0,0,0,133.144,135.017Zm29.513,60.456a7.632,7.632,0,0,1-15.263,0V174.939a62.193,62.193,0,0,0-.913-10.5,16.312,16.312,0,0,0,7.494,1.83,10.941,10.941,0,0,0,7.062-2.8c.116.436.226.856.324,1.242a42.831,42.831,0,0,1,1.3,10.466ZM178.3,94.372a22.689,22.689,0,0,1-22.664,22.663c-18.972,0-22.568-19.752-22.71-20.583a3.5,3.5,0,0,0-3.261-2.923c-.065,0-.129-.006-.194-.006a3.5,3.5,0,0,0-3.368,2.554,4.974,4.974,0,0,1-7.4,3.123,5.583,5.583,0,0,1-2.879-4.895V86.063c0-3.453.7-6.011,1.983-7.2a3.047,3.047,0,0,1,2.011-.821,1.7,1.7,0,0,0,.461.03c5.277,0,6.707,5.058,6.846,5.606a3.5,3.5,0,0,0,4.5,2.528c25.247-8.275,33.3-27.52,35.795-37.141A30.881,30.881,0,0,1,178.3,72.891ZM148.429,19.714a3.558,3.558,0,0,0,3.12-.156c.535-.3,13.24-7.035,25.387,9.911,6.577,9.176,6.326,18.838,4.394,26.263a36.9,36.9,0,0,0-13.2-14.814q-.651-.417-1.337-.823a3.5,3.5,0,0,0-5.27,2.686c-.1,1.067-2.735,25.367-29.019,35.675a13.637,13.637,0,0,0-12.062-7.383,9.994,9.994,0,0,0-7.169,2.457c-2.951,2.583-4.446,6.8-4.446,12.533v.395A38.082,38.082,0,0,1,97.708,67.151c-2.217-10,.064-20.507,6.6-30.392C122.623,9.043,147.4,19.269,148.429,19.714Z"/></svg>