<svg xmlns="http://www.w3.org/2000/svg"  viewBox="0 0 340 340" width="500px" height="500px"><path fill="#e54c5b" d="M83.254,260.833,98.548,251.1l34.483,54.914a6.828,6.828,0,0,1-2.99,9.862h0a6.831,6.831,0,0,1-7.924-1.725C114.373,305.351,95.077,282.531,83.254,260.833Z"/><path fill="#a02a39" d="M130.041,315.878a6.828,6.828,0,0,0,2.99-9.862l-6.206-9.883c-4.586,1.7-9.507,3.442-9.507,3.442l-15.661-23.481a10.046,10.046,0,0,1,.35-11.643L104.7,260.9l-6.151-9.8-15.294,9.731c11.823,21.7,31.119,44.518,38.863,53.32A6.831,6.831,0,0,0,130.041,315.878Z"/><path fill="#d2e8ff" d="M29.166,35.7A73.414,73.414,0,0,0,45.752,85.977S31.909,152.819,97.691,243.836L78.364,256.008a990.9,990.9,0,0,1-51.966-90.9C6.346,124.893-1.214,75.918,29.166,35.7Z"/><path fill="#96aef4" d="M97.691,243.836c-5.316-7.356-10.1-14.55-14.43-21.567l-24.935,1.266c11.646,19.715,20.038,32.473,20.038,32.473Z"/><path fill="#d9e5fc" d="M137.96,277.291l-7.015,3.371a5.789,5.789,0,0,1-7.509-2.3h0a8.187,8.187,0,0,0-10.311-3.392l-9.86,4.251a11.605,11.605,0,0,0-5.886,15.644l3.062,6.435a11.6,11.6,0,0,0,16.691,4.818l13.015-8.246,10.973-5.213Z"/><path fill="#ffb664" d="M104.4,235.819,65.616,261.406l-2.076-3.147A8.482,8.482,0,0,0,49.38,267.6l2.558,3.877a11.376,11.376,0,0,0,15.761,3.23l3.938-2.6,36.111-26.739Z"/><path fill="#e87b40" d="M128.294,233.682a11.377,11.377,0,0,0-15.761-3.231l-8.135,5.368c-.371,4.623-2.6,11.282-11.154,16.761L73.251,264.193s-2.887,2.218-1.614,7.918l42.98-28.357,2.076,3.147a8.482,8.482,0,1,0,14.159-9.342Z"/><path fill="#6c7ca2" d="M133.243,296.4l7.877-3.742-3.16-15.369-7.015,3.372a5.279,5.279,0,0,1-.53.2Z"/><path fill="#d9e5fc" d="M304.085,276.706s1.362,6.809,2.275,12.32a13.772,13.772,0,0,1-1.466,8.771l-4.19,7.794a8.41,8.41,0,0,0-.558,6.681h0a8.412,8.412,0,0,0,5.308,5.284l.487.162,1.2,4.081a8.425,8.425,0,0,0,11,5.51,26.277,26.277,0,0,0,3.488-1.571,18.718,18.718,0,0,0,9.055-20.671l-1.073-4.689a19.161,19.161,0,0,0-5.233-9.492c-3.231-3.143-7.558-9.09-8.654-19.005Z"/><path fill="#6c7ca2" d="M321.123,287.025a32.387,32.387,0,0,1-5.4-15.144l-11.641,4.825s1.362,6.809,2.275,12.32a13.622,13.622,0,0,1,.169,2.61A67.48,67.48,0,0,0,321.123,287.025Z"/><path fill="#333353" d="M126.222,139.234a3,3,0,0,1-3-3V71.954a3,3,0,0,1,6,0v64.28A3,3,0,0,1,126.222,139.234Z"/><circle cx="126.222" cy="118.355" r="8.019" fill="#ffb664"/><circle cx="126.222" cy="99.1" r="8.019" fill="#e54c5b"/><path fill="#a02a39" d="M173.389,224.25s2.112,23.925-24.605,38.321L178.8,296.164S189.9,258.4,173.389,224.25Z"/><path fill="#333353" d="M139.082,259.819l6.193-2.85a8.706,8.706,0,0,1,10.531,2.591l19.484,25.251a8.691,8.691,0,0,1-1.526,12.174,60.608,60.608,0,0,1-19.419,10.259,8.648,8.648,0,0,1-10.517-5.336c-2.9-7.786-7.388-20.846-9.661-32.547A8.692,8.692,0,0,1,139.082,259.819Z"/><path fill="#a02a39" d="M181.86,120.328S174,133.9,151.42,150.643a3.927,3.927,0,0,0-1.222,4.816c7.037,14.981,37.218,86.316,18.555,172.372,31.868-7.617,62.635-7.216,78.844-39.438,0,0,16.959-54.643-53.436-178.687Z"/><path fill="#d9e5fc" d="M184.387,214.25l-2.527,4.4a20.032,20.032,0,0,0,5.215,13.826,16.874,16.874,0,0,0,8.9,5.051,4.5,4.5,0,0,0,4.461-7.262,20.9,20.9,0,0,1-3.578-6.285l-3.326-8.659Z"/><path fill="#6c7ca2" d="M196.863,223.976a28.047,28.047,0,0,1-1.559-10l-12.221-3.126a24.479,24.479,0,0,0-1.22,7.793A19.061,19.061,0,0,0,196.863,223.976Z"/><path fill="#d9e5fc" d="M206.2,268.149c4.272,3.666,12.8,7.939,28.156,5.147v25.649s-9.368,3.848-17.229-7.488a25.839,25.839,0,0,0-15.643-10.71q-.543-.117-1.105-.217a7.274,7.274,0,0,1-6.027-8.049c.015-.1.032-.2.051-.308A7.189,7.189,0,0,1,206.2,268.149Z"/><path fill="#d9e5fc" d="M181.583,195.024,178.8,200.2a19.99,19.99,0,0,0,3.407,11.335,13.16,13.16,0,0,0,11.109,6.062,4.108,4.108,0,0,0,2.818-7.179,19.171,19.171,0,0,1-4.046-5.053s-4.46-2.964-3.933-7.172Z"/><path fill="#6c7ca2" d="M181.253,191.02A19.057,19.057,0,0,0,178.8,200.2a19.873,19.873,0,0,0,13.292,5.162,16.936,16.936,0,0,1-1.847-10.437Z"/><path fill="#d9e5fc" d="M183.119,179.336l-5.056,1.718c-1.04,4.517-.556,10.09,5.143,14.833a19.356,19.356,0,0,0,8.741,3.691,4.419,4.419,0,0,0,3.344-7.92,15.608,15.608,0,0,1-3.322-3.351l-4.11-3.764Z"/><path fill="#6c7ca2" d="M182.121,172.488a23.892,23.892,0,0,0-4.053,8.567,16.554,16.554,0,0,0,13.905,7.249,9.952,9.952,0,0,1-.918-10.122Z"/><path fill="#d9e5fc" d="M220.431,204.309s2.925,20.343-1,34.724a24.153,24.153,0,0,1-2.832,6.441c-1.906,3.045-5.115,9.533-1.195,13.871,5.274,5.836,15.972-.973,15.972-.973S232.267,224.936,220.431,204.309Z"/><path fill="#d9e5fc" d="M191.274,150.116s-7.871,5.67-10.8,13.206c-2.425,6.245-2.482,11.749,3.6,16.428a16.834,16.834,0,0,0,6.064,2.882,4.592,4.592,0,0,0,4.774-7.29c-3.58-4.639-2.949-10.4,5.712-16.074Z"/><path fill="#333353" d="M219.966,66.759s3.07,3.581,3.933,10.605a17.639,17.639,0,0,0,12.447,14.478c9.575,3,20.528,10.1,18.731,26.917,0,0,31.441-6.76,30.524,27.629,0,0,24.616,19.256,2.751,39.679L203.3,123.981,191.966,92.314l8.661-27.2Z"/><path fill="#d9e5fc" d="M186.409,114.216l6.733,10.309,11.383,14.886L215.4,129.152l-11.835-16.766-8.47-10.3A27.274,27.274,0,0,0,186.409,114.216Z"/><path fill="#6c7ca2" d="M195.7,101.245a36.516,36.516,0,0,0-9.85,13.748l7.29,9.532a30.24,30.24,0,0,1,8.4-10.377c.676-.537,1.351-1.135,2.025-1.762Z"/><path fill="#d9e5fc" d="M207.272,65.706s-58-3.333-74,5.778c0,0-2.444,14.666,11.111,32.889,0,0,7.677,10.417,9.6,19.153a3.326,3.326,0,0,0,3.245,2.624h2.519a1.438,1.438,0,0,0,1.439-1.438V116.7a2.7,2.7,0,0,1,2.461-2.744,2.6,2.6,0,0,1,2.74,2.6v8.162a1.438,1.438,0,0,0,1.438,1.438H171a1.438,1.438,0,0,0,1.437-1.386l.3-8.214a2.6,2.6,0,1,1,5.2,0l-.226,8.122a1.438,1.438,0,0,0,1.438,1.478h4.16a2.842,2.842,0,0,0,2.825-2.53l.291-2.625a22.982,22.982,0,0,1,7.738-11.289c6.932-5.51,14.006-17.418,14.286-32.312Z"/><path fill="#e54c5b" d="M189.514,143.451c7.948-5.1,27.2-17.9,41.269-30.854a3,3,0,0,1,4.606.649l9.355,15.393s49.268,96.959,47.939,160.584a21.353,21.353,0,0,1-2.477,9.577c-4.906,9.248-19.122,27.035-56.415,29.042,0,0,4.311-114.083-45.266-178.708A3.914,3.914,0,0,1,189.514,143.451Z"/><path fill="#a02a39" d="M265.1,256.527h0a5.653,5.653,0,0,0-1.8,3.873,113.888,113.888,0,0,0,2.033,25.58,10.22,10.22,0,0,0,9.209,8.324,96.882,96.882,0,0,0,17.476-.182,21.561,21.561,0,0,0,.669-4.9c.6-28.552-9-63.813-19.756-94.017l-13.708-9.767a6.279,6.279,0,0,0-9.479,7.437c6.5,16.354,14.665,39.647,17.127,58.732A5.731,5.731,0,0,1,265.1,256.527Z"/><path fill="#e54c5b" d="M244.744,128.639s-7.432,1.457-11.705,12.055a23.573,23.573,0,0,0,1.689,20.8c10.152,17.134,34.693,61.2,43.594,100.872l43.643-18S296.726,161.344,244.744,128.639Z"/><path fill="#5b5b81" d="M278.55,256.966c8.15-2.5,23.374-7.674,36.836-15.1a7.99,7.99,0,0,1,11.494,4.459,139.038,139.038,0,0,1,4.131,15.474,7.987,7.987,0,0,1-2.724,7.756,65.8,65.8,0,0,1-46.168,14.581,7.869,7.869,0,0,1-7.083-5.84,73.56,73.56,0,0,1-2.1-13.027A8.017,8.017,0,0,1,278.55,256.966Z"/><path fill="#d9e5fc" d="M205.912,295.306c.219.171.436.351.65.543a8.769,8.769,0,0,1,2.4,9.065c-.33,1.087-1.3,2.271-1.8,3.5-.921,2.241-2.072,4.6-1.929,7.021v12.4H191.966a105.679,105.679,0,0,1-.293-26.419C192.524,294.614,200.5,291.107,205.912,295.306Z"/><path fill="#6c7ca2" d="M192.689,89.444a18.106,18.106,0,0,1-1.433,8.251,8.3,8.3,0,0,1-11.719,3.669,20.185,20.185,0,0,1-8.724-9.62,8.259,8.259,0,0,1,5.336-11.115,24.066,24.066,0,0,1,6.058-.946A10.193,10.193,0,0,1,192.689,89.444Z"/><path fill="#6c7ca2" d="M143.717,92.328a18.116,18.116,0,0,0,3.086,7.785,8.3,8.3,0,0,0,12.221,1.2,20.194,20.194,0,0,0,6.579-11.2,8.259,8.259,0,0,0-7.491-9.793,24.078,24.078,0,0,0-6.124.309A10.193,10.193,0,0,0,143.717,92.328Z"/><path fill="#a02a39" d="M210.777,148.8l-2.739,1.786a3.5,3.5,0,1,0,3.824,5.863l2.739-1.786a3.5,3.5,0,1,0-3.824-5.863Z"/><path fill="#a02a39" d="M227,170.845a3.5,3.5,0,0,0-4.734-1.447l-2.886,1.536a3.5,3.5,0,1,0,3.287,6.18l2.886-1.536A3.5,3.5,0,0,0,227,170.845Z"/><path fill="#a02a39" d="M235.618,191.505a3.5,3.5,0,0,0-4.712-1.517L228,191.48a3.5,3.5,0,1,0,3.195,6.228l2.909-1.492A3.5,3.5,0,0,0,235.618,191.505Z"/><path fill="#a02a39" d="M243.479,216.781a3.5,3.5,0,0,0-4.012-2.9l-3.228.521a3.5,3.5,0,0,0,.553,6.956,3.562,3.562,0,0,0,.56-.045l3.229-.521A3.5,3.5,0,0,0,243.479,216.781Z"/><path fill="#a02a39" d="M242.526,245.811l3.264-.194a3.5,3.5,0,1,0-.414-6.987l-3.264.194a3.5,3.5,0,0,0,.2,6.993C242.385,245.817,242.456,245.815,242.526,245.811Z"/><path fill="#a02a39" d="M245.79,272.351l3.264-.194a3.5,3.5,0,1,0-.414-6.987l-3.264.194a3.5,3.5,0,0,0,.2,6.993Q245.683,272.357,245.79,272.351Z"/><path fill="#a02a39" d="M251.064,293.318l-3.269-.036a3.5,3.5,0,0,0-.079,7l3.27.036h.04a3.5,3.5,0,0,0,.038-7Z"/><path fill="#6c7ca2" d="M133.272,71.484a28.943,28.943,0,0,0,.206,7.942c7.458-1.263,42.586-6.644,74.962-2.032a49.949,49.949,0,0,0-1.168-11.688S149.272,62.373,133.272,71.484Z"/><path fill="#5b5b81" d="M99.425,75.821l1.255,6.153s59.573-22.59,142.7-6.749c0,0,1.624-1.473,3.394-5.959A11.875,11.875,0,0,0,239.3,53.655c-9.251-2.946-22.687-8.473-30.631-19.065-14.981-19.972-39.4-23.141-49.864-22.315s-33.885,4.883-43.252,34.812a48.548,48.548,0,0,1-12.416,17.47A11.857,11.857,0,0,0,99.425,75.821Z"/><path fill="#fff" d="M163.952,47.686c-1.316-1.052-2.689-2.114-4.037-3.137a39.6,39.6,0,0,1,3.633-2.89,3,3,0,0,0-3.416-4.934A48.467,48.467,0,0,0,155,40.9c-2.525-1.836-4.351-3.112-4.5-3.217a3,3,0,0,0-3.434,4.921c.032.023,1.5,1.051,3.634,2.592-1.99,2.142-3.3,3.763-3.416,3.907a3,3,0,0,0,4.678,3.757c.028-.036,1.464-1.812,3.6-4.077,1.544,1.162,3.139,2.389,4.638,3.588a3,3,0,0,0,3.748-4.686Z"/><path fill="#6c7ca2" d="M166.6,108.072l1.343-1.268a1.08,1.08,0,0,1,1.457-.022l1.462,1.3a1.078,1.078,0,0,0,1.786-.959,21.779,21.779,0,0,0-3.115-8.571,1.1,1.1,0,0,0-1.764-.087c-1.75,2.182-2.767,4.754-2.99,8.75A1.084,1.084,0,0,0,166.6,108.072Z"/><path fill="#6c7ca2" d="M206.763,327.831l-.214-12.3a16.152,16.152,0,0,1,1.161-7.087c.5-1.228.919-2.443,1.249-3.53l-4.712,5.76a12.169,12.169,0,0,0-2.751,7.706v9.451Z"/><path fill="#96aef4" d="M26.687,89.72a1.164,1.164,0,0,0-2.315-.171c-2.411,15.45-2.917,45.622,17.007,84.475l39.463,72.6,4.554-3.035-37.419-71.1S26.823,135.533,26.687,89.72Z"/></svg>