<svg xmlns="http://www.w3.org/2000/svg"  viewBox="0 0 340 340" width="500px" height="500px"><path fill="#ffcacf" d="M259.8,237.423s-13.357-5.6-21.9,1.225l2.829,42.688,5.209,1.42s21.559,2.6,23.483-27.837Z"/><path fill="#e5838b" d="M239.925,269.189l.8,12.147,5.209,1.42s21.559,2.6,23.483-27.837l-4.43-8.055h0S261.463,269.309,239.925,269.189Z"/><path fill="#a02a39" d="M220.2,82.943a141.635,141.635,0,0,0,32.426,8.632,3.018,3.018,0,0,1,2.518,3.832c-1.292,4.343-4.387,11.526-11.084,13.791L226.662,92.514S222.31,86.53,220.2,82.943Z"/><path fill="#a02a39" d="M222.944,71.269S223.5,84.62,240.48,89.314l-10.424,7.549L216.68,80.372Z"/><polygon fill="#ffcacf" points="77.853 107.724 78.949 121.722 83.044 145.912 112.021 138.185 109.051 127.12 101.962 104.87 77.853 107.724"/><path fill="#dae5fc" d="M233.907,210.655l4.059-3.438s16.585-4.609,34.605,12.361L259.8,237.423l9.622,17.5s5.6,4.023,14.346,0c6.017-2.768,20.06-17.949,28.244-27.159a12.891,12.891,0,0,0,1.1-15.679c-8.688-13.133-29.368-39.643-69.039-67.032C244.074,145.049,229.533,168.142,233.907,210.655Z"/><path fill="#333353" d="M158.538,273.693s-5.521,3.1-7.458,17.348-3.689,32.779-3.689,32.779H252.933s0-35.628-10.448-46.043Z"/><path fill="#8294be" d="M279.7,206.221l-2.038,1.243a5.492,5.492,0,0,1-6.373-.452c-4.035-3.364-11.932-9.089-21.284-11.4a8.316,8.316,0,0,1-6.051-6.169,98.051,98.051,0,0,1-2.349-15.866,2.869,2.869,0,0,0-5.621-.612,89.346,89.346,0,0,0-2.08,37.695l4.029-1.924s16.615-6.123,34.635,10.847l8.5-11.881A1.028,1.028,0,0,0,279.7,206.221Z"/><path fill="#e54c5b" d="M159.658,245.506l-1.12,28.187s34.486,8.849,83.947,4.084a212.637,212.637,0,0,0-3.924-36.368Z"/><path fill="#dae5fc" d="M149.235,145.049,129.5,167.057l-8.168-18.6s2.78-8.859-4.125-11.986a8.9,8.9,0,0,0-5.674-.463l-32.448,7.516a7.37,7.37,0,0,0-5.342,9.655,17.784,17.784,0,0,0,5.623,7.467A33.107,33.107,0,0,1,88,171.845c4.263,8.793,11.21,23.058,16.532,33.677a15.7,15.7,0,0,0,19.586,7.651l30.79-11.629S154.227,164.561,149.235,145.049Z"/><path fill="#8294be" d="M153.627,176.288a54.654,54.654,0,0,1-24.434,22.7,13.984,13.984,0,0,1-16.933-4.4,94.9,94.9,0,0,1-13.119-23.712l-2.356-5.651a13.453,13.453,0,0,0-12.414-8.287c-3.962,0-8.329-.9-10.787-4.263.049.167.093.333.155.5a17.784,17.784,0,0,0,5.623,7.467A33.111,33.111,0,0,1,88,171.846c4.263,8.792,11.21,23.057,16.532,33.676a15.7,15.7,0,0,0,19.586,7.651l30.79-11.629S154.693,189.931,153.627,176.288Z"/><path fill="#dae5fc" d="M149.235,145.049s.087,47.261,6.6,76.163a15.761,15.761,0,0,1-.828,9.439c-1.61,3.931-2.429,10.068,4.651,14.855,0,0,52.627,6.113,78.9-4.1,0,0,3.924-6.09,1.443-12.355a28.2,28.2,0,0,1-2.161-10.371c0-14.544.64-49,6.231-73.634,0,0-34.033-12.285-39.705-15.1l-20.663,4.812S160.588,141.452,149.235,145.049Z"/><path fill="#8294be" d="M178.973,190.173a144.925,144.925,0,0,0,1.487,19.736,1.726,1.726,0,0,0,3.431-.237l.283-19.429a11.907,11.907,0,0,1,3.258-8.44l1.011-1.068-.932-8.16C178.545,178.441,178.973,190.173,178.973,190.173Z"/><path fill="#ffcacf" d="M179.473,125.447s-3.689,32.388,8.97,55.289c0,0,9.58-8.912,15.664-24.947a32.216,32.216,0,0,0,2.084-11.426V104.945S192.741,101.238,179.473,125.447Z"/><path fill="#e5838b" d="M203.3,104.769c-.405.026-.848.072-1.325.147a16.844,16.844,0,0,0-2.368.549,23.845,23.845,0,0,0-8.06,4.5c-3.766,3.078-7.93,7.917-12.076,15.482h0a121.812,121.812,0,0,0-.265,19c9.984-1.1,21.707-6.323,26.983-18.267V104.945A9.617,9.617,0,0,0,203.3,104.769Z"/><path fill="#e54c5b" d="M213.94,78.371s10.913,2.922,19.58,15c7.955,11.086,21.41,19.546,30.948,21.463a1.444,1.444,0,0,1,.77,2.4,28.165,28.165,0,0,1-10.475,7,18.033,18.033,0,0,1-18.1-2.965,44.07,44.07,0,0,1-10.257-13.088c-7.221-13.434-17.532-18.116-17.532-18.116Z"/><path fill="#5b5b81" d="M143.366,47.9s3.31-18.5,16.532-24.373l2.285,8.162S173.774,16.67,193.362,16.18V27.117a60.813,60.813,0,0,1,17.276-.552s7.246,2.08,11.925,3.853l-4.769,9.66s9.532,1.931,14.429,6.339c0,0-2.5,4.156-9.6,8.329l-3.744,5.672S168.3,62.805,143.366,47.9Z"/><path fill="#333353" d="M156.917,53.781c26.2,8.323,61.96,6.637,61.96,6.637l3.744-5.672a22.831,22.831,0,0,0,10.9-8.53c-4.9-4.407-14.643-6.529-14.643-6.529l5.338-9.958a54.656,54.656,0,0,0-13.577-3.161C199.815,53.59,167.742,54.339,156.917,53.781Z"/><path fill="#e54c5b" d="M137.657,81.021A95.358,95.358,0,0,1,143.366,47.9s44.093,9.37,79.255,6.847c0,0,2.71,26.871-7.568,36.109l-8.515,3.785Z"/><path fill="#a02a39" d="M215.053,90.855c11.195-8.672,7.568-36.109,7.568-36.109-3.106.223-6.282.352-9.491.4a44.626,44.626,0,0,1-4.548,11.387,10.157,10.157,0,0,1-11.368,4.787c-11.793-3.077-37.186-8.219-58.842-2.549a84.269,84.269,0,0,0-.715,12.246L206.538,94.64Z"/><path fill="#ffcacf" d="M137.657,81.021s40.609-12.174,66.2,7.67c0,0,1.431-2.325,5.776-3.085a7.877,7.877,0,0,1,9.221,7.4c.3,5.971-1.955,13.649-15.185,14.441,0,0-5.063,22.5-28.5,22.5-7.861,0-21.012-2.818-28.8-13.38C137.64,104.742,137.64,90.593,137.657,81.021Z"/><polygon fill="#e5838b" points="103.044 104.741 76.604 107.872 78.949 121.722 109.051 127.12 103.044 104.741"/><ellipse cx="142.103" cy="95.593" fill="#ffb664" rx="15.122" ry="20.797"/><path fill="#e5838b" d="M203.687,88.891l.169-.2c-24.124-22.119-66.2-7.67-66.2-7.67-.016,9.356.006,23.079,8.152,34.735,5.077-1.617,18.582-8.217,16.478-32.375,0,0,19.724-3.962,36,6.352A4.16,4.16,0,0,0,203.687,88.891Z"/><path fill="#ffb664" d="M157.225,95.593s-3.308,17.319-14.55,18.808c-8.279,1.1-15.694-7.322-15.694-18.808s6.77-20.8,15.122-20.8S157.225,84.107,157.225,95.593Z"/><path fill="#e87b40" d="M127.047,97.4c.666,10.639,7.147,18.993,15.056,18.993,8.352,0,15.122-9.312,15.122-20.8,0-.061-.006-.121-.006-.183-1.166,2.118-3.431,3.708-6.963,4.336-5.345.949-6.9-3.43-6.9-3.43l-9.77-.838Z"/><path fill="#e8808f" d="M174.879,98.246a3.5,3.5,0,0,1-1.056-6.837l3.385-1.074a3.5,3.5,0,0,1,2.116,6.673l-3.386,1.073A3.485,3.485,0,0,1,174.879,98.246Z"/><path fill="#8294be" d="M195.533,196.664h-1.8a3,3,0,0,1,0-6h1.8a3,3,0,1,1,0,6Z"/><path fill="#8294be" d="M195.533,209.594h-1.8a3,3,0,0,1,0-6h1.8a3,3,0,0,1,0,6Z"/><path fill="#a02a39" d="M240.838,255.705a21.066,21.066,0,0,1-2.951,1.525,36.914,36.914,0,0,1-6.866,2.116l-.038.007a2.36,2.36,0,0,0,.62,4.666,42.121,42.121,0,0,0,8.148-1.239q.907-.238,1.817-.536C241.37,260.208,241.131,258.022,240.838,255.705Z"/><path fill="#a02a39" d="M216.07,263.911a1.949,1.949,0,0,0-2.027-1.867l-.059,0c-4.928.2-9.857.308-14.791.058-4.93-.211-9.856-.592-14.759-1.193q-7.355-.873-14.641-2.218c-3.533-.659-7.1-1.406-10.57-2.243l-.272,6.846c3.292.594,6.558,1.1,9.865,1.544q7.536,1.005,15.121,1.5c5.051.355,10.12.486,15.186.44,5.066-.006,10.135-.373,15.182-.846A1.952,1.952,0,0,0,216.07,263.911Z"/><path fill="#5b5b81" d="M134.567,86.161c-36.539-4.811-71.844-8.79-71.844-8.79v36.444s48.09-3.546,72.207-7.517a10.1,10.1,0,0,0,8.243-11.937c-.049-.248-.1-.493-.158-.737A9.926,9.926,0,0,0,134.567,86.161Z"/><path fill="#333353" d="M143.36,96.316a8.884,8.884,0,0,1-5.72,3.749L62.723,105.2v8.614s48.09-3.546,72.207-7.517A10.087,10.087,0,0,0,143.36,96.316Z"/><path fill="#ffb664" d="M66.371,82.121c2.224,7.46,3.789,18.594,1,27.635-1.089,3.525-5.132,6.618-8.8,7.049-6.021.708-15.6,1.757-23.12,2.22V73.27a120.328,120.328,0,0,1,23.362,1.806A10.461,10.461,0,0,1,66.371,82.121Z"/><path fill="#ffcacf" d="M84.689,67.62s-9.812-.469-9.065,10.757c.007.112.015.224.024.334A13.6,13.6,0,0,0,88.728,91.1l17.878.681a11.4,11.4,0,0,0,7.935-2.644c2.443-2.122,4.525-5.744,3.08-11.738C114.834,65.834,84.689,67.62,84.689,67.62Z"/><path fill="#e87b40" d="M52.387,105.909a11.417,11.417,0,0,1-4.906-.8,4.2,4.2,0,0,1-2.457-3.2h0l-9.571,1.573v15.543c7.554-.465,17.176-1.521,23.192-2.229,3.667-.432,7.686-3.626,8.759-7.159a32.207,32.207,0,0,0,1.048-4.829Z"/><path fill="#e87b40" d="M45.318,96.147c0,12.417-3.949,22.878-9.866,22.878S24.74,108.55,24.74,96.133s4.8-22.863,10.712-22.863S45.318,83.731,45.318,96.147Z"/><path fill="#fff" d="M40.519,96.147c0,7.628-2.107,14.055-5.264,14.055s-5.715-6.435-5.715-14.063S32.1,82.093,35.255,82.093,40.519,88.519,40.519,96.147Z"/><path fill="#fff" d="M47.581,77.592A20.155,20.155,0,0,1,49.5,81.738a2.774,2.774,0,0,0,2.447,1.939l6.5.448a1.775,1.775,0,0,0,1.825-2.289,11.2,11.2,0,0,0-1.326-2.871,4.171,4.171,0,0,0-2.723-1.719,46,46,0,0,0-7.9-.952A.856.856,0,0,0,47.581,77.592Z"/><path fill="#e5838b" d="M205.052,98.445c.77-2.584,2.64-6.37,7.08-7.244a.586.586,0,0,1,.44,1.062,6.431,6.431,0,0,0-1.865,1.939,3.277,3.277,0,0,0-.073,3.338,3.506,3.506,0,0,1,.424,2.521,3.1,3.1,0,0,1-1.226,1.891l-.075.052A3.144,3.144,0,0,1,205.052,98.445Z"/><path fill="#8294be" d="M313.113,212.081c-1.637-2.474-3.7-5.423-6.234-8.763,1.852,10.872-1.027,17.584-15.421,31.944-12.023,11.993-21.365,12.888-26.466,11.6l4.43,8.055s5.6,4.023,14.346,0c6.017-2.768,20.06-17.949,28.244-27.159A12.891,12.891,0,0,0,313.113,212.081Z"/></svg>