<svg xmlns="http://www.w3.org/2000/svg"  viewBox="0 0 340 340" width="500px" height="500px"><path fill="#829abf" d="M112.66,329.016V247.8H227.34v81.217H163.868c-7.64-1.293-14.759-1.641-20.78,0Z"/><polygon fill="#4f688e" points="155.172 247.799 112.66 247.799 112.66 329.016 145.284 329.016 155.172 247.799"/><rect width="20.779" height="81.217" x="143.088" y="247.799" fill="#fff"/><path fill="#4f688e" d="M227.34,247.8H180.879c.211,6.833.573,13.57,1.165,19.438.968,9.6,3.878,16.2,7.029,20.683A21.08,21.08,0,0,0,206.88,296.8a95.07,95.07,0,0,0,20.46-2.829Z"/><polygon fill="#ffc4b6" points="170 91.82 155.172 91.82 155.172 137.325 170 137.325 184.828 137.325 184.828 91.82 170 91.82"/><path fill="#ccd5e5" d="M143.088,247.8v46.814a20.822,20.822,0,0,0,7.84-6.693c3.15-4.478,6.06-11.086,7.028-20.683.592-5.868.954-12.605,1.165-19.438Z"/><polygon fill="#ea8b7f" points="184.828 126.191 184.828 91.82 170 91.82 155.172 91.82 155.172 105.915 184.828 126.191"/><rect width="55.541" height="76.856" x="142.23" y="185.222" fill="#6699d8"/><rect width="55.541" height="13.001" x="142.23" y="249.078" fill="#3c699e"/><path fill="#829abf" d="M280.151,218.294c-14.122-32.706-33.588-62.587-33.588-62.587-17.334-28.834-45.668-27.334-45.668-27.334l-16.067-15.5-14.828,22-14.828-22-16.067,15.5s-28.334-1.5-45.668,27.334c0,0-19.466,29.881-33.588,62.587a30,30,0,0,0,4.914,31.6c9.006,10.291,23.715,22.762,45.023,28.191,6.936,1.984,15.506,3.19,23.781,4.012a15.44,15.44,0,0,0,6.532-.758l10.213-92.363L170,168.869l19.688,20.112L199.9,281.344a15.44,15.44,0,0,0,6.532.758c8.275-.822,16.845-2.028,23.781-4.012,21.308-5.429,36.017-17.9,45.024-28.191A30,30,0,0,0,280.151,218.294Z"/><path fill="#3c699e" d="M142.23,217.735l23.2-14.889a8.4,8.4,0,0,1,9.123.029l23.218,15.11V185.222H142.23Z"/><path fill="#4f688e" d="M167.339,167.888a4,4,0,0,0,3.342-6.192l-25.61-39.078-5.966,5.755L163.99,166.08A4,4,0,0,0,167.339,167.888Z"/><path fill="#404a66" d="M143.749,192.557l-3.254,11.89c-3.552,42.3-1.374,68.384-.4,76.889h0a15.041,15.041,0,0,0,7.544-5.7,32.531,32.531,0,0,0,5.307-14.214,562.98,562.98,0,0,0,2.3-74.635Z"/><path fill="#4f688e" d="M200.9,128.373l-5.782-5.578h0l-10.285-9.922-6.144,9.117,9.364,6.4a2.867,2.867,0,0,1,.775,3.944l-16.069,24.377a4,4,0,1,0,6.691,4.385l6.7-10.228a23.713,23.713,0,0,1,26.248-9.72,47.339,47.339,0,0,0,23.053.919A51.924,51.924,0,0,0,200.9,128.373Z"/><path fill="#404a66" d="M196.252,192.557l3.253,11.89c3.552,42.3,1.374,68.384.4,76.889h0a15.041,15.041,0,0,1-7.544-5.7,32.531,32.531,0,0,1-5.307-14.214,562.98,562.98,0,0,1-2.3-74.635Z"/><path fill="#6699d8" d="M197.693,175.447l20.782,10.161c4.332-13.331,10.263-29.368,17.4-43.162a53.205,53.205,0,0,0-18.543-11.18A309.693,309.693,0,0,0,197.693,175.447Z"/><path fill="#3c699e" d="M212.217,141.1a47.06,47.06,0,0,0,23.266,1,53.251,53.251,0,0,0-18.15-10.837C215.97,133.747,214.214,137.063,212.217,141.1Z"/><path fill="#ea8b7f" d="M138.754,53.656l-2.577.59a12.717,12.717,0,0,0-9.884,12.4v.793a12.569,12.569,0,0,0,3.677,8.945c2.777,2.749,6.963,6.088,11.988,7.537Z"/><path fill="#ea8b7f" d="M201.247,53.656l2.577.59a12.717,12.717,0,0,1,9.884,12.4v.793a12.57,12.57,0,0,1-3.678,8.945c-2.776,2.749-6.962,6.088-11.988,7.537Z"/><path fill="#ffc4b6" d="M198.555,33.351c-.1-.215-.2-.429-.3-.64-11.4-23.636-45.1-23.636-56.508,0q-.153.316-.3.64a34.979,34.979,0,0,0-2.992,15.614l.692,23.3a31.61,31.61,0,0,0,6,17.623,53.088,53.088,0,0,0,11.225,11.559,14.415,14.415,0,0,0,8.546,2.807h10.172a14.064,14.064,0,0,0,8.254-2.594,52.8,52.8,0,0,0,11.524-11.782,31.591,31.591,0,0,0,5.991-17.613l.692-23.295A34.979,34.979,0,0,0,198.555,33.351Z"/><path fill="#ffc4b6" d="M170,138.277s-13.4-.685-14.828,14.165v14.394L140.5,176.66v27.787L170,185.484Z"/><path fill="#ffc4b6" d="M170,138.277s13.4-.685,14.828,14.165v14.394l14.677,9.824v27.787L170,185.484Z"/><path fill="#ffe1dc" d="M165.341,31.654a3,3,0,0,1-1.435-5.819l.387-.111a3,3,0,0,1,1.606,5.781l-.283.081A2.827,2.827,0,0,1,165.341,31.654Z"/><path fill="#ffe1dc" d="M152.572,42.71a3,3,0,0,1-3.316-4.176,19.088,19.088,0,0,1,5.09-6.3,3,3,0,0,1,3.821,4.627A13.709,13.709,0,0,0,154.726,41,2.994,2.994,0,0,1,152.572,42.71Z"/><path fill="#ea8b7f" d="M167.355,187.185l2.645-1.7,2.645,1.7v-48.7a17.249,17.249,0,0,0-5.29,0Z"/><path fill="#404a66" d="M108.66,281.928v47.088h8V283.8c4.71.9,10.175,1.657,16.512,2.286q.977.1,1.945.1a19.178,19.178,0,0,0,3.971-.431v43.268h8V282.008a18.785,18.785,0,0,0,3.851-4.112,35.429,35.429,0,0,0,5.194-11.817h3.735v62.937h8V266.079h16a35.446,35.446,0,0,0,5.194,11.817,18.89,18.89,0,0,0,9.117,7.058l.018.007c.1.036.191.078.289.112.041.016.076.04.118.054.1.034.2.053.3.085.015,0,.028.012.043.016l.03,0a19.277,19.277,0,0,0,7.854.849c6.337-.629,11.8-1.385,16.512-2.286v45.22h8V281.928c22.567-5.788,37.962-19.173,46.908-29.4a34.111,34.111,0,0,0,5.575-35.825c-13.782-31.917-32.845-61.541-33.867-63.121-15.994-26.546-40.552-29.059-47.453-29.22l-13.675-13.193v-8.767A59,59,0,0,0,198.1,92.22a35.583,35.583,0,0,0,3.133-5.248,35.45,35.45,0,0,0,11.337-7.712,16.668,16.668,0,0,0,4.863-11.788v-.793A16.62,16.62,0,0,0,205.5,50.67l.047-1.587a39.184,39.184,0,0,0-3.354-17.4c-.109-.239-.22-.476-.334-.713a35.38,35.38,0,0,0-63.712,0c-.114.237-.226.475-.336.716a39.188,39.188,0,0,0-3.354,17.4l.047,1.588a16.619,16.619,0,0,0-11.938,16.008v.793a16.666,16.666,0,0,0,4.864,11.788,35.428,35.428,0,0,0,11.337,7.712,35.561,35.561,0,0,0,3.14,5.259,58.945,58.945,0,0,0,9.267,10.171v8.772L137.5,124.367c-6.9.161-31.459,2.674-47.453,29.22-1.022,1.58-20.086,31.2-33.867,63.121a34.111,34.111,0,0,0,5.575,35.825C70.7,262.755,86.1,276.14,108.66,281.928Zm50.512-174.6a18.437,18.437,0,0,0,5.743.926h10.17a18.6,18.6,0,0,0,5.743-.9v4.3L170,127.717l-10.828-16.066Zm31.564,36.553a4,4,0,0,0,5.538-1.153l6.768-10.327a44.872,44.872,0,0,1,8.454,1.3,319.358,319.358,0,0,0-15.808,35.6l-6.86-4.592V152.442c0-.127-.006-.255-.018-.382-1.076-11.2-8.044-15.814-13.941-17.254l10.612-15.745,10.253,9.891-6.151,9.386A4,4,0,0,0,190.736,143.876Zm28.954-7.357c.629.279,1.249.576,1.864.881.428.212.856.427,1.287.658q.94.5,1.859,1.044c.456.269.913.555,1.371.846.337.215.67.437,1,.66q1.047.7,2.095,1.486c.344.258.689.516,1.027.784.231.182.462.374.693.563A295.013,295.013,0,0,0,216.116,180l-13.437-6.57a309.979,309.979,0,0,1,16.488-37.14C219.341,136.367,219.515,136.441,219.69,136.519Zm-36.982,121.56H157.292a576.85,576.85,0,0,0,2.241-61.113L170,190.239l10.467,6.727A576.85,576.85,0,0,0,182.708,258.079ZM174,183.3V142.85c2.785.953,6.158,3.428,6.828,9.793v14.193a4,4,0,0,0,1.775,3.324l12.9,8.636v18.326Zm-8,0-21.5,13.822V178.8l12.9-8.636a4,4,0,0,0,1.775-3.324V152.643c.666-6.33,4.011-8.819,6.828-9.783Zm-14.408,18.77a557.745,557.745,0,0,1-2.617,58.876,28.59,28.59,0,0,1-4.632,12.425,10.937,10.937,0,0,1-1.1,1.356c-1.7-15.615-1.338-38.429,1.077-67.983Zm39.433,58.876a557.745,557.745,0,0,1-2.617-58.876l7.273,4.674c2.693,32.738,3.137,55.2,1.336,68.235a10.934,10.934,0,0,1-1.36-1.608A28.6,28.6,0,0,1,191.025,260.946Zm52.11-103.178c.025.041.05.082.076.123.193.3,19.44,29.965,33.268,61.989a26.072,26.072,0,0,1-4.251,27.384c-8.218,9.39-22.35,21.688-43,26.949l-.113.031c-5.714,1.635-13.262,2.9-23.075,3.877a11.585,11.585,0,0,1-1.416.046c2.3-13.788,1.929-37.523-1.118-73.882V182.969l16.421,7.745a16.01,16.01,0,0,0,6.788,1.521,7.915,7.915,0,0,1,5.784,2.512c5.121,5.508,14.4,16.345,19,27.028a4,4,0,0,0,7.347-3.167c-5.08-11.786-15.019-23.421-20.492-29.308a15.94,15.94,0,0,0-11.643-5.065,7.951,7.951,0,0,1-3.331-.738,298.322,298.322,0,0,1,13.561-34.217A57.823,57.823,0,0,1,243.135,157.768Zm-33.7-91.089v.793a8.62,8.62,0,0,1-2.491,6.1c-.672.664-1.473,1.393-2.362,2.122.135-1.1.237-2.2.27-3.318l.391-13.152A8.666,8.666,0,0,1,209.436,66.679Zm-76.38,6.9a8.621,8.621,0,0,1-2.492-6.1v-.793a8.668,8.668,0,0,1,4.192-7.452l.391,13.152c.033,1.116.135,2.22.27,3.317C134.528,74.967,133.727,74.239,133.056,73.575Zm10.087-1.433L142.6,53.881a3.857,3.857,0,0,0-.012-.387l-.138-4.648a31.165,31.165,0,0,1,2.631-13.83c.087-.189.175-.377.267-.566a27.379,27.379,0,0,1,49.3,0q.137.282.268.57a31.164,31.164,0,0,1,2.631,13.829l-.144,4.85v.012l-.547,18.434a27.5,27.5,0,0,1-5.232,15.383A48.3,48.3,0,0,1,181,98.414a10.132,10.132,0,0,1-5.91,1.835h-10.17a10.482,10.482,0,0,1-6.174-2.028,48.544,48.544,0,0,1-10.359-10.686A27.509,27.509,0,0,1,143.143,72.142ZM63.521,219.879c13.817-32,33.075-61.692,33.268-61.989.026-.04.051-.081.076-.122,13.481-22.425,33.747-25.11,40.086-25.383l6.776,10.338a4,4,0,1,0,6.691-4.385l-6.151-9.386,10.252-9.891,10.615,15.75c-5.9,1.441-12.868,6.048-13.944,17.249-.012.127-.018.254-.018.382V164.7l-12.655,8.47-21.855,10.309a7.96,7.96,0,0,1-3.376.756,15.945,15.945,0,0,0-11.643,5.064c-5.472,5.887-15.411,17.522-20.492,29.309a4,4,0,1,0,7.347,3.167c4.6-10.684,13.883-21.52,19-27.028a7.915,7.915,0,0,1,5.784-2.512,16.018,16.018,0,0,0,6.789-1.521l16.42-7.745v21.316c-2.723,32.514-3.024,57.324-.9,73.868a11.583,11.583,0,0,1-1.633-.032c-9.814-.974-17.361-2.242-23.075-3.877l-.114-.031c-20.651-5.261-34.782-17.559-43-26.949A26.073,26.073,0,0,1,63.521,219.879Z"/><path fill="#404a66" d="M160.489,85.379a3.508,3.508,0,0,0,4.433,2.186,20.045,20.045,0,0,1,10.92.044A3.5,3.5,0,0,0,177.83,80.9a26.872,26.872,0,0,0-15.185.049A3.493,3.493,0,0,0,160.489,85.379Z"/><path fill="#404a66" d="M156.841,68.746a18.2,18.2,0,0,1,4.514.661,3.5,3.5,0,0,0,1.943-6.725,25.008,25.008,0,0,0-6.319-.935,3.538,3.538,0,0,0-3.568,3.43A3.5,3.5,0,0,0,156.841,68.746Z"/><path fill="#404a66" d="M178.433,69.415a3.489,3.489,0,0,0,.812-.1,18.344,18.344,0,0,1,4.541-.444,3.5,3.5,0,1,0,.2-7,25.071,25.071,0,0,0-6.356.631,3.5,3.5,0,0,0,.806,6.906Z"/></svg>