<svg xmlns="http://www.w3.org/2000/svg" xmlns:xlink="http://www.w3.org/1999/xlink" viewBox="0 0 340 340" width="500px" height="500px"><defs><linearGradient id="RHsf57IC1Z8S-40dZ1_SPa" x1="301.965" x2="301.965" y1="198.402" y2="340.194" gradientUnits="userSpaceOnUse"><stop offset="0" stop-color="#ef9584"/><stop offset="1" stop-color="#bc6853"/></linearGradient><linearGradient id="RHsf57IC1Z8S-40dZ1_SPh" x1="186.464" x2="186.464" y1="197.696" y2="340.714" xlink:href="#RHsf57IC1Z8S-40dZ1_SPa"/><linearGradient id="RHsf57IC1Z8S-40dZ1_SPi" x1="288.492" x2="288.492" y1="197.696" y2="340.714" xlink:href="#RHsf57IC1Z8S-40dZ1_SPa"/><linearGradient id="RHsf57IC1Z8S-40dZ1_SPf" x1="236.324" x2="236.324" y1="105.587" y2="366.374" gradientUnits="userSpaceOnUse"><stop offset="0" stop-color="#f7b999"/><stop offset="1" stop-color="#f29e7c"/></linearGradient><linearGradient id="RHsf57IC1Z8S-40dZ1_SPd" x1="105.462" x2="105.462" y1="287.851" y2="325.899" gradientUnits="userSpaceOnUse"><stop offset="0" stop-color="#7f819b"/><stop offset="1" stop-color="#5b5d6e"/></linearGradient><linearGradient id="RHsf57IC1Z8S-40dZ1_SPb" x1="85.581" x2="121.379" y1="109.664" y2="236.151" gradientUnits="userSpaceOnUse"><stop offset="0" stop-color="#b1c5f4"/><stop offset="1" stop-color="#8396c7"/></linearGradient><linearGradient id="RHsf57IC1Z8S-40dZ1_SPc" x1="95.88" x2="150.185" y1="114.691" y2="277.607" gradientUnits="userSpaceOnUse"><stop offset="0" stop-color="#7981ac"/><stop offset="1" stop-color="#586086"/></linearGradient><linearGradient id="RHsf57IC1Z8S-40dZ1_SPe" x1="90.282" x2="90.282" y1="67.305" y2="104.028" gradientUnits="userSpaceOnUse"><stop offset="0" stop-color="#f7d9cd"/><stop offset="1" stop-color="#f49289"/></linearGradient><linearGradient id="RHsf57IC1Z8S-40dZ1_SPj" x1="84.864" x2="84.864" y1="10.011" y2="46.685" xlink:href="#RHsf57IC1Z8S-40dZ1_SPb"/><linearGradient id="RHsf57IC1Z8S-40dZ1_SPk" x1="65.555" x2="118.114" y1="34.943" y2="59.918" xlink:href="#RHsf57IC1Z8S-40dZ1_SPc"/><linearGradient id="RHsf57IC1Z8S-40dZ1_SPl" x1="282.287" x2="217.057" y1="230.311" y2="200.574" xlink:href="#RHsf57IC1Z8S-40dZ1_SPa"/><linearGradient id="RHsf57IC1Z8S-40dZ1_SPm" x1="237.372" x2="237.372" y1="247.674" y2="337.342" xlink:href="#RHsf57IC1Z8S-40dZ1_SPa"/><linearGradient id="RHsf57IC1Z8S-40dZ1_SPn" x1="126.601" x2="135.116" y1="191.138" y2="239.389" xlink:href="#RHsf57IC1Z8S-40dZ1_SPd"/><linearGradient id="RHsf57IC1Z8S-40dZ1_SPo" x1="71.794" x2="71.794" y1="204.455" y2="243.248" xlink:href="#RHsf57IC1Z8S-40dZ1_SPd"/><linearGradient id="RHsf57IC1Z8S-40dZ1_SPp" x1="115.026" x2="124.014" y1="132.909" y2="177.376" xlink:href="#RHsf57IC1Z8S-40dZ1_SPd"/><linearGradient id="RHsf57IC1Z8S-40dZ1_SPq" x1="64.522" x2="73.51" y1="143.117" y2="187.584" xlink:href="#RHsf57IC1Z8S-40dZ1_SPd"/><linearGradient id="RHsf57IC1Z8S-40dZ1_SPr" x1="42.326" x2="67.64" y1="181.409" y2="211.654" xlink:href="#RHsf57IC1Z8S-40dZ1_SPe"/><linearGradient id="RHsf57IC1Z8S-40dZ1_SPs" x1="53.387" x2="53.387" y1="267.522" y2="325.197" xlink:href="#RHsf57IC1Z8S-40dZ1_SPd"/><linearGradient id="RHsf57IC1Z8S-40dZ1_SPt" x1="234.562" x2="234.562" y1="89.737" y2="368.754" xlink:href="#RHsf57IC1Z8S-40dZ1_SPf"/><linearGradient id="RHsf57IC1Z8S-40dZ1_SPu" x1="233.608" x2="233.608" y1="126.855" y2="231.087" xlink:href="#RHsf57IC1Z8S-40dZ1_SPa"/><linearGradient id="RHsf57IC1Z8S-40dZ1_SPg" x1="238.122" x2="227.621" y1="131.872" y2="104.281" gradientUnits="userSpaceOnUse"><stop offset="0" stop-color="#f49d87"/><stop offset="1" stop-color="#d37f6a"/></linearGradient><linearGradient id="RHsf57IC1Z8S-40dZ1_SPv" x1="52.717" x2="52.717" y1="267.522" y2="325.197" xlink:href="#RHsf57IC1Z8S-40dZ1_SPd"/><linearGradient id="RHsf57IC1Z8S-40dZ1_SPw" x1="245.808" x2="235.307" y1="128.947" y2="101.356" xlink:href="#RHsf57IC1Z8S-40dZ1_SPg"/><linearGradient id="RHsf57IC1Z8S-40dZ1_SPx" x1="230.075" x2="238.243" y1="85.905" y2="115.686" xlink:href="#RHsf57IC1Z8S-40dZ1_SPe"/></defs><path fill="#34363a" d="M54.807,65.7h8.426a0,0,0,0,1,0,0V90.912a0,0,0,0,1,0,0H54.807a9.842,9.842,0,0,1-9.842-9.842V75.547A9.842,9.842,0,0,1,54.807,65.7Z"/><path fill="#34363a" d="M127.172,65.7H135.6a0,0,0,0,1,0,0V90.912a0,0,0,0,1,0,0h-8.426a9.842,9.842,0,0,1-9.842-9.842V75.547A9.842,9.842,0,0,1,127.172,65.7Z" transform="rotate(180 126.464 78.309)"/><path fill="#34363a" d="M151.812,124.341s11.936,15.778,28.3,26.794a11.151,11.151,0,0,0,12.206.091l12.154-7.876,1.225,43.286a55.477,55.477,0,0,1-14.18,7.75c-4.723,1.747-10.992.418-15.711-1.337-9.811-3.648-28.867-11.51-34.866-19.5C140.937,173.544,137.884,146.391,151.812,124.341Z"/><path fill="url(#RHsf57IC1Z8S-40dZ1_SPa)" d="M293.685,181.21c4.372,11.239,16.842,52.28-20.583,80.654l3.083,18.154s71.447-16.814,50.945-78.561a1.528,1.528,0,0,0-2.481-.658l-6.419,5.88s-1.784-20.223-22.6-27.449A1.526,1.526,0,0,0,293.685,181.21Z"/><path fill="url(#RHsf57IC1Z8S-40dZ1_SPh)" d="M200.224,285.839s-4.407-19.272-19.262-20.4c0,0-16.16-3.265-7.835,33.463l3.428,19.1a10.282,10.282,0,0,0-4.91,7.455,5.475,5.475,0,0,0,5.453,6.221h25.085Z"/><path fill="url(#RHsf57IC1Z8S-40dZ1_SPi)" d="M273.594,285.839s4.772-19.272,20.854-20.4c0,0,17.5-3.265,8.484,33.463L299.22,318a10.406,10.406,0,0,1,5.317,7.455c.532,3.286-2.307,6.221-5.9,6.221h-27.16Z"/><path fill="url(#RHsf57IC1Z8S-40dZ1_SPf)" d="M277.04,318.916l4.58-75.688c.786-15-1.2-25.839-3.184-32.608l-84.7,1.694c-1.808,6.827-3.435,17.106-2.712,30.914l4.58,75.688s-7.1,4.865-4.755,13.408h18.725c19.091-.932,34.179-1.388,55.591,0H281.8C284.141,323.781,277.04,318.916,277.04,318.916Z"/><path fill="#34363a" d="M37.186,124.341s-21.968,26.817-26.817,80.451c0,0-3.08,21.509.457,37.246,1.94,8.629,9.454,15.108,18.3,14.932a17.561,17.561,0,0,0,8.064-2.1L60.535,184.76S52.048,148.573,37.186,124.341Z"/><path fill="url(#RHsf57IC1Z8S-40dZ1_SPd)" d="M108.2,283.129H99.7a9.222,9.222,0,0,0-9.222,9.222v25.072a16.756,16.756,0,0,0,2.9,8.436,13.918,13.918,0,0,0,11.484,5.814h0a14.246,14.246,0,0,0,13.383-9.363l2.2-6.04Z"/><path fill="#34363a" d="M72.347,268.43l4.734-4.016a14.565,14.565,0,0,1,9.421-3.457h0a14.551,14.551,0,0,1,13.686,9.579c3.6,9.915,9.161,26.442,14.241,44.451a22.9,22.9,0,0,0,22.034,16.686h0a22.867,22.867,0,0,0,22.894-22.681c.11-18.494-1.846-45.922-11.588-73.151L88.8,220.771H65.651S65.065,253.844,72.347,268.43Z"/><polygon fill="#34363a" points="68.152 108.742 79.466 101.671 106.337 100.61 112.824 109.979 97.144 162.095 86.537 163.28 68.152 108.742"/><path fill="url(#RHsf57IC1Z8S-40dZ1_SPb)" d="M121.513,110.485l-21.223,17.7A231.809,231.809,0,0,0,93.9,156.9a223.7,223.7,0,0,0-11.229-31.043l0,0c-3.188-7.22-6.192-13.192-8.242-17.086a7.988,7.988,0,0,0-8.421-4.17c-1.335.235-2.619.511-3.879.805l-.01-.01A66.276,66.276,0,0,0,35.7,118.016a8.986,8.986,0,0,0-2.3,11.273c22.018,41.119,30.9,109.374,30.9,109.374,15.055-2,24.648-13.472,28.7-19.46v0c0,22.763,38.765,16.831,38.765,16.831l13.444-120.458Z"/><path fill="url(#RHsf57IC1Z8S-40dZ1_SPc)" d="M150.3,113.425A75.765,75.765,0,0,0,133.18,105.7l-.006,0c-13.505-4.115-22.716-2.369-22.716-2.369-4.276,7.361-7.611,16.229-10.167,24.861a40.669,40.669,0,0,0,24.851-10.928,5.328,5.328,0,0,1,5.147-1.26l.56.161a5.307,5.307,0,0,1,3.818,5.527l-3.5,43.174-67.932,3.973.542,21.1H78.232a11.552,11.552,0,0,0,11.548-11.3l4.546.2V215.91l-10.381.175s11.277,36.19,47.22,36.19c8.216,0,14.647-5.852,18.253-9.67a7.933,7.933,0,0,0,1.756-7.981c-13.341-39.928-1.531-92.537,3.316-110.7A9.422,9.422,0,0,0,150.3,113.425Zm-22.287,101.34-29.6.886V178.545l8.017-.088.082,1.939a10.073,10.073,0,0,0,10.153,9.645l11.974-.1Z"/><path fill="#34363a" d="M120.489,71.488H60.075S54,110.693,90.282,112.7C126.568,110.693,120.489,71.488,120.489,71.488Z"/><path fill="url(#RHsf57IC1Z8S-40dZ1_SPe)" d="M119.528,58.613H61.035l-.5,15.866s5.855,18.1,29.747,18.1,29.746-18.1,29.746-18.1Z"/><path fill="#f49289" d="M119.529,58.613H61.035l-.5,15.866a56.553,56.553,0,0,0,5.914,9.049A21.644,21.644,0,0,1,70.1,74.211,9.825,9.825,0,0,1,77.887,70.4l29.136-.252a7.23,7.23,0,0,1,6.258,3.482c.9,1.534,1.593,5.283,1.317,9.393a37.507,37.507,0,0,0,5.43-8.541Z"/><path fill="url(#RHsf57IC1Z8S-40dZ1_SPj)" d="M109.832,14.057a42.577,42.577,0,0,0-19.55-5.73s-38.009,0-38.2,43.423l63-7.48C120.877,34.46,115.859,24.276,109.832,14.057Z"/><path fill="url(#RHsf57IC1Z8S-40dZ1_SPk)" d="M129.543,56.69a12.58,12.58,0,0,1-1.062-4.94c-.094-21.317-9.3-32.165-18.651-37.69-6.6,12.38-28.365,12.681-28.365,12.681l-28.444,14.2a62.54,62.54,0,0,0-.938,10.808,12.615,12.615,0,0,1-1.062,4.94c-.209.483-.448,1-.718,1.525a8.391,8.391,0,0,0,2.515,10.534l7.717,5.73s1.33-6.8,5.918-9.9a8.643,8.643,0,0,1,4.88-1.415h37.9a8.643,8.643,0,0,1,4.88,1.415c4.588,3.107,5.918,9.9,5.918,9.9l7.718-5.73a8.392,8.392,0,0,0,2.514-10.534C129.99,57.688,129.751,57.173,129.543,56.69Z"/><path fill="url(#RHsf57IC1Z8S-40dZ1_SPl)" d="M264.942,201.461l-25.986,6.926L201.1,201.461h-3.564a45.585,45.585,0,0,0-3.961,10.848c5.446,5.6,18.482,15.234,43.8,15.234,22.549,0,35.067-9.773,41.235-16.974a42.322,42.322,0,0,0-3.5-9.108Z"/><path fill="#34363a" d="M131.4,32.564a13.677,13.677,0,0,0-1.331-2.75A6.936,6.936,0,0,0,124.2,26.6H100.84c-7.312,0-10.558,6.988-10.558,6.988S87.035,26.6,79.723,26.6H56.366a6.936,6.936,0,0,0-5.872,3.214,13.677,13.677,0,0,0-1.33,2.75,6.889,6.889,0,0,0,3.3,8.286L68.11,49.323a12.985,12.985,0,0,0,8.954,1.312c4.141-.907,9.754-3.05,13.218-8.11,3.463,5.06,9.076,7.2,13.217,8.11a12.985,12.985,0,0,0,8.954-1.312L128.1,40.85A6.891,6.891,0,0,0,131.4,32.564Z"/><path fill="url(#RHsf57IC1Z8S-40dZ1_SPm)" d="M216.91,284.859V324.34a7.333,7.333,0,0,1-7.333,7.333h55.591a7.333,7.333,0,0,1-7.333-7.333V284.859Z"/><rect width="34.121" height="14.356" x="82.864" y="208.387" fill="#34363a"/><path fill="url(#RHsf57IC1Z8S-40dZ1_SPn)" d="M142.3,232.937H123.227a10.4,10.4,0,0,1-10.4-10.4v-2.752a3.4,3.4,0,0,0,0-4.132v-6.016a10.4,10.4,0,0,1,10.4-10.4h18.012s9.082,3.1,8.812,17.695S142.3,232.937,142.3,232.937Z"/><path fill="url(#RHsf57IC1Z8S-40dZ1_SPo)" d="M76.887,199.232H55.193v51.182H76.887a15,15,0,0,0,2-.133s8.881-1.825,9.464-21.181c.755-25.052-8.7-29.611-8.7-29.611A14.983,14.983,0,0,0,76.887,199.232Z"/><path fill="#34363a" d="M91.763,214.108A14.873,14.873,0,0,0,79.651,199.5c1.846,1.913,3.917,5.424,4.046,11.647v10.6a5.016,5.016,0,0,1-4.895,5.015l-23.609.571v7.239L82.864,238.7s.68,6.7-3.978,11.563a14.774,14.774,0,0,0,3.54-.915l.038-.029a14.869,14.869,0,0,0,9.3-13.781Z"/><path fill="#34363a" d="M73.918,156.708s23.3-4.262,44.94,0v14.244s-24.551-5.221-44.94.8Z"/><path fill="url(#RHsf57IC1Z8S-40dZ1_SPp)" d="M123.3,181.591h-4.275a8.565,8.565,0,0,1-8.565-8.565v-6.675a11,11,0,0,0,0-7.117v-8.071a8.565,8.565,0,0,1,8.565-8.565H123.9s9.313-.982,8.633,20.682C131.926,182.675,123.3,181.591,123.3,181.591Z"/><path fill="url(#RHsf57IC1Z8S-40dZ1_SPq)" d="M74.181,183.355l-5.227.4a8.2,8.2,0,0,1-8.8-7.56l-.433-5.728c1.349-1.983.932-4.436-.542-7.169l-.734-9.707a8.2,8.2,0,0,1,7.56-8.8l5.227-.395q.321-.024.639-.024s7.515,3.165,7.5,24.073C79.359,181.763,74.181,183.355,74.181,183.355Z"/><path fill="#34363a" d="M72.347,268.43H33.377l-2.944-38.5a22.132,22.132,0,0,1,22.1-23.248h0a22.133,22.133,0,0,1,22.119,22.877Z"/><path fill="url(#RHsf57IC1Z8S-40dZ1_SPr)" d="M34.759,192.271A15.784,15.784,0,0,1,50.1,180.187H56.92A15.779,15.779,0,0,1,72.7,195.965v4.091a13.419,13.419,0,0,1-.972,5.028s-8.877,7.883-24.138,4.052S34.759,192.271,34.759,192.271Z"/><path fill="url(#RHsf57IC1Z8S-40dZ1_SPs)" d="M30.04,269.121a6.234,6.234,0,0,1,8.221-6.469,42.559,42.559,0,0,0,14.275,2.271,45.654,45.654,0,0,0,15.791-2.662,6.225,6.225,0,0,1,8.415,6.248l-1.57,21.6c-13.983,10.042-28.224,14.953-42.835,12.5C31.793,292.641,31.03,280.505,30.04,269.121Z"/><path fill="url(#RHsf57IC1Z8S-40dZ1_SPt)" d="M273.79,194.113c4.452-33.592-7.6-71.908-7.6-71.908a88.779,88.779,0,0,0,6.4-50.454A2.319,2.319,0,0,0,268.7,70.48l-15.56,14.846-8.715,16.6-21.633,1.032-3.876-13.225L199.5,73.841a2.316,2.316,0,0,0-3.709,1.18c-1.791,6.716-4.015,23.463,7.677,48.234,0,0-12.51,24.476-6.736,64.1l2.012,14.1,40.213,6.926Z"/><path fill="url(#RHsf57IC1Z8S-40dZ1_SPu)" d="M221.775,164.479v14.413a11.833,11.833,0,0,0,11.833,11.833h0a11.832,11.832,0,0,0,11.832-11.833v-9.637Z"/><path fill="#34363a" d="M196.731,187.359s8.792,14.1,39.669,14.1,38.243-17.169,38.243-17.169l1.947,12.429a8.124,8.124,0,0,1-2.064,6.765c-4.252,4.614-14.688,12.079-37.717,12.079-21.178,0-33.275-5.114-39.281-8.842a8.086,8.086,0,0,1-3.542-8.934Z"/><path fill="#34363a" d="M246.626,279.668l.794-76.053a6.1,6.1,0,0,0-5.955-6.236h-7.42a6.1,6.1,0,0,0-5.955,6.236l.794,76.053H216.91v15.348h40.925V279.668Z"/><path fill="#f7817f" d="M221.775,164.479v4.472a11.835,11.835,0,0,0,11.835,11.834h0a11.834,11.834,0,0,0,11.83-11.53Q233.827,162.205,221.775,164.479Z"/><rect width="46.474" height="14.851" x="210.481" y="112.873" fill="url(#RHsf57IC1Z8S-40dZ1_SPg)" rx="7.426"/><circle cx="222.793" cy="120.298" r="3.876" fill="#34363a"/><circle cx="244.426" cy="120.298" r="3.876" fill="#34363a"/><path fill="#f7f7f7" d="M55.682,33.283l.042-.078a4.307,4.307,0,0,1,3.8-2.18h8.229a1.189,1.189,0,0,1,.841,2.031L63.06,38.591a3.116,3.116,0,0,1-3.6.583L57.3,38.092A3.568,3.568,0,0,1,55.682,33.283Z"/><path fill="#f7f7f7" d="M97.811,33.053a6.8,6.8,0,0,0-1.756,6.285,1.32,1.32,0,0,0,2.059.842l9.6-6.762a1.317,1.317,0,0,0-.759-2.393h-3.967A7.242,7.242,0,0,0,97.811,33.053Z"/><path fill="#34363a" d="M123.3,181.591h2.262a8.565,8.565,0,0,0,8.565-8.565V151.163a8.565,8.565,0,0,0-8.565-8.565H123.9a6.557,6.557,0,0,1,5.576,6.637l-.129,8.739a3.487,3.487,0,0,1-3.517,3.437c-4.364-.039-10.387-.142-12.4-.406a3.926,3.926,0,0,1-2.977-1.771v7.117l18.693,4.927-.038,2.557S129.386,180.322,123.3,181.591Z"/><path fill="#34363a" d="M81.741,174.558l-1.709-22.6a8.2,8.2,0,0,0-8.157-7.576c1.109,1.048,2.4,3.12,2.793,7.22l.9,10.091a3.086,3.086,0,0,1-2.817,3.354c-2.678.224-6.05.443-8.98.443a5.126,5.126,0,0,1-4.592-2.193l.515,6.823.027.346,16.864,2.59.179,1.993s.576,5.305-2.48,8.3A8.2,8.2,0,0,0,81.741,174.558Z"/><circle cx="68.531" cy="160.152" r="1.943" fill="#34363a"/><circle cx="120.348" cy="156.266" r="1.943" fill="#34363a"/><path fill="#34363a" d="M143.2,199.232h-1.961c1.646,1.011,4.358,3.519,4.576,9.155v1.821a5.443,5.443,0,0,1-5.443,5.443H112.824v4.132l32.991,4.25a13.878,13.878,0,0,1-3.511,8.9h.9a10.4,10.4,0,0,0,10.4-10.4v-12.9A10.4,10.4,0,0,0,143.2,199.232Z"/><circle cx="132.977" cy="210.33" r="1.943" fill="#34363a"/><path fill="#34363a" d="M75.172,290.109l-42.836,12.5c.679,12.452,1.014,21.529,1.014,21.529H72.7Z"/><path fill="url(#RHsf57IC1Z8S-40dZ1_SPv)" d="M52.717,304.857h0a21.952,21.952,0,0,1,21.952,21.952v1.836a3.029,3.029,0,0,1-3.029,3.029H33.794a3.029,3.029,0,0,1-3.029-3.029v-1.836A21.952,21.952,0,0,1,52.717,304.857Z"/><path fill="url(#RHsf57IC1Z8S-40dZ1_SPw)" d="M253.141,85.326,243.094,95.9H225.249l-7.681-6.93c-1.018,1.135-1.595,1.855-1.595,1.855a27.857,27.857,0,0,0-3.044,10.506c-.794,8.848,5.659,16.469,13.724,16.469h16.641c7.141,0,13.135-6.011,13.723-13.858A36.073,36.073,0,0,0,253.141,85.326Z"/><path fill="url(#RHsf57IC1Z8S-40dZ1_SPx)" d="M216.305,89.67A15.766,15.766,0,0,1,230.124,81.5h3.81a15.77,15.77,0,0,1,15.771,15.771h0a12.472,12.472,0,0,1-.478,3.434s-6,8.234-21.791,5.241S216.305,89.67,216.305,89.67Z"/><path fill="#ce4c4a" d="M233.61,154.587c-4,5.121-11.835,2.739-11.835,2.739v7.153l23.654,4.776c0-.1.015-.2.015-.3V157.326S237.613,159.708,233.61,154.587Z"/><path fill="#34363a" d="M249.178,156.147a3,3,0,0,0-3.787-1.914c-4.731,1.556-7.564.052-8.781-.912V139.11a3,3,0,0,0-6,0v14.376a6.223,6.223,0,0,1-3.419,1.26,8.539,8.539,0,0,1-4.736-.876,3,3,0,1,0-2.7,5.36,14.147,14.147,0,0,0,14-.61,13.888,13.888,0,0,0,7.77,2.29,18.344,18.344,0,0,0,5.74-.976A3,3,0,0,0,249.178,156.147Z"/><path fill="#34363a" d="M238.4,130.832h-9.575a4.678,4.678,0,0,0-3.727,7.528,12.129,12.129,0,0,0,5.195,3.623,9.269,9.269,0,0,0,6.64,0,12.133,12.133,0,0,0,5.194-3.623A4.678,4.678,0,0,0,238.4,130.832Z"/><path fill="#e57f7b" d="M44.13,212.273H65.187c3.01,0,5.707-2.225,6.778-5.591l.7-2.2a27.48,27.48,0,0,1-7.857,1.141H51.939c-8.161,0-12.956-3.94-15.752-9.013,0,0,.173,3.541.4,7.258C36.868,208.6,40.161,212.273,44.13,212.273Z"/><path fill="#e57f7b" d="M249.705,97.686c-2.3,3.724-10.1,4.1-10.1,4.1l-7.572-.093c-18.322,0-14.057-14.325-14.023-14.507-1.244,2.255-3.653,5.383-3.653,10.093a12.49,12.49,0,0,0,12.49,12.49h10.373A13.152,13.152,0,0,0,249.705,97.686Z"/><path fill="#34363a" d="M61.071,94.412H54.807A13.358,13.358,0,0,1,41.465,81.07V75.547a13.347,13.347,0,0,1,6.942-11.709,3.5,3.5,0,1,1,3.361,6.14,6.351,6.351,0,0,0-3.3,5.569V81.07a6.349,6.349,0,0,0,6.342,6.342h6.264a3.5,3.5,0,0,1,0,7Z"/><path fill="#34363a" d="M125.756,94.412h-6.107a3.5,3.5,0,0,1,0-7h6.107A6.349,6.349,0,0,0,132.1,81.07V75.547a6.348,6.348,0,0,0-3.3-5.569,3.5,3.5,0,1,1,3.362-6.14A13.346,13.346,0,0,1,139.1,75.547V81.07A13.357,13.357,0,0,1,125.756,94.412Z"/><path fill="#34363a" d="M183.235,197.89a24.829,24.829,0,0,1-8.652-1.56c-7.441-2.768-21.229-8.351-29.971-14.658a3.5,3.5,0,0,1,4.1-5.676c8.074,5.824,21.205,11.129,28.314,13.772a17.617,17.617,0,0,0,12.252.045,38.454,38.454,0,0,0,3.955-1.726,3.5,3.5,0,0,1,3.148,6.252,45.71,45.71,0,0,1-4.674,2.039A24.387,24.387,0,0,1,183.235,197.89Z"/><path fill="#34363a" d="M186.276,156.481a14.556,14.556,0,0,1-8.122-2.442c-12.075-8.131-21.745-18.685-26.435-24.252a3.5,3.5,0,1,1,5.354-4.51c4.454,5.287,13.623,15.3,24.991,22.955a7.664,7.664,0,0,0,8.348.057l3.252-2.108a3.5,3.5,0,0,1,3.807,5.875l-3.252,2.107A14.624,14.624,0,0,1,186.276,156.481Z"/><path fill="#34363a" d="M302.672,272.055a3.5,3.5,0,0,1-1.862-6.467c23.261-14.571,31.288-34.776,23.911-60.108l-4.126,3.78a3.5,3.5,0,0,1-5.851-2.273,30.118,30.118,0,0,0-16.273-22.775,88.006,88.006,0,0,1,3.974,19.635c1.725,20.648-4.686,39.038-18.54,53.183a3.5,3.5,0,0,1-5-4.9c12.51-12.772,18.09-28.742,16.585-47.466a78.282,78.282,0,0,0-6.2-24.876,3.5,3.5,0,0,1,4.03-4.908,37.141,37.141,0,0,1,26.944,25.188l3.73-3.417a3.5,3.5,0,0,1,5.656,1.39c14.069,38.91-5.9,61.434-25.124,73.479A3.488,3.488,0,0,1,302.672,272.055Z"/><path fill="#34363a" d="M190.851,335.173H177.1a9.035,9.035,0,0,1-6.852-3.143,8.859,8.859,0,0,1-2.063-7.1,14.189,14.189,0,0,1,4.541-8.47l-3.028-16.87c-3.891-17.215-3.107-28.769,2.333-34.338a10.931,10.931,0,0,1,9.357-3.3,20.782,20.782,0,0,1,13.323,6.459,3.5,3.5,0,0,1-4.987,4.913,13.784,13.784,0,0,0-9.025-4.4,3.639,3.639,0,0,1-.428-.059,4.028,4.028,0,0,0-3.323,1.376c-1.625,1.75-4.919,7.97-.405,27.883.012.051.022.1.031.155l3.428,19.1a3.5,3.5,0,0,1-1.85,3.734,6.858,6.858,0,0,0-3.044,4.857,1.856,1.856,0,0,0,.444,1.492,2.042,2.042,0,0,0,1.548.711h13.753a3.5,3.5,0,0,1,0,7Z"/><path fill="#34363a" d="M298.633,335.173H281.8a3.5,3.5,0,0,1,0-7h16.837a2.705,2.705,0,0,0,2.052-.887,1.565,1.565,0,0,0,.4-1.274,6.9,6.9,0,0,0-3.4-4.871,3.446,3.446,0,0,1-1.9-3.811l3.712-19.1c.011-.056.023-.111.037-.167,4.584-18.683,1.825-25.258-.228-27.514a5.011,5.011,0,0,0-4.275-1.664,2.37,2.37,0,0,1-.336.04,16.654,16.654,0,0,0-11.76,6.32,3.5,3.5,0,0,1-5.343-4.523c4.506-5.323,10.037-8.271,16.44-8.766a12.109,12.109,0,0,1,10.285,3.7c5.457,5.773,6.142,17.208,2.035,33.99L303.1,316.394a13.984,13.984,0,0,1,4.9,8.5,8.58,8.58,0,0,1-1.976,6.93A9.649,9.649,0,0,1,298.633,335.173Z"/><path fill="#34363a" d="M281.8,335.173H190.851a3.5,3.5,0,0,1-3.375-2.573,15.65,15.65,0,0,1,4.532-15.865l-4.474-73.946c-1.018-19.431,2.542-32.234,4.755-38.139a3.5,3.5,0,0,1,6.555,2.456c-2.021,5.4-5.271,17.153-4.322,35.288l4.579,75.66a3.5,3.5,0,0,1-1.516,3.1,9.168,9.168,0,0,0-3.705,7.021h84.887a9.178,9.178,0,0,0-3.73-7.038,3.556,3.556,0,0,1-1.491-3.081l4.581-75.688c1.145-21.884-3.877-34.585-5.443-37.955a3.5,3.5,0,0,1,6.348-2.951c2.228,4.795,7.282,18.418,6.084,41.3l-4.477,73.974a15.651,15.651,0,0,1,4.532,15.866A3.5,3.5,0,0,1,281.8,335.173Z"/><path fill="#34363a" d="M28.776,260.474c-10.1,0-19.05-7.369-21.365-17.668-3.553-15.81-.77-36.633-.521-38.417,3.566-39.264,16.085-64.432,23.235-75.945a3.5,3.5,0,1,1,5.946,3.693c-6.827,10.994-18.792,35.094-22.217,72.97,0,.06-.012.121-.021.18-.029.209-2.944,21.073.408,35.984,1.62,7.208,7.852,12.33,14.812,12.2a14.868,14.868,0,0,0,2.226-.211,3.5,3.5,0,0,1,1.19,6.9,22.014,22.014,0,0,1-3.278.311C29.053,260.472,28.914,260.474,28.776,260.474Z"/><path fill="#34363a" d="M104.861,335.173a17.385,17.385,0,0,1-14.36-7.32,20.054,20.054,0,0,1-3.524-10.382v-25.12A12.736,12.736,0,0,1,99.7,279.629h4.214a3.5,3.5,0,1,1,0,7H99.7a5.729,5.729,0,0,0-5.722,5.722v25.071h0a13.5,13.5,0,0,0,2.277,6.443,10.39,10.39,0,0,0,8.607,4.308,10.74,10.74,0,0,0,9.845-6.439,3.5,3.5,0,0,1,6.415,2.8A17.741,17.741,0,0,1,104.861,335.173Z"/><path fill="#34363a" d="M136.463,335.173a26.5,26.5,0,0,1-25.4-19.236c-6.082-21.564-12.378-39.289-14.162-44.207a11.066,11.066,0,0,0-17.553-4.647,3.5,3.5,0,1,1-4.528-5.338,18.066,18.066,0,0,1,28.661,7.6c1.805,4.975,8.172,22.9,14.32,44.695a19.393,19.393,0,0,0,38.059-5.065c.095-16.042-1.406-40.362-9.1-65.118a3.5,3.5,0,0,1,6.684-2.078c7.962,25.612,9.515,50.7,9.417,67.238A26.419,26.419,0,0,1,136.463,335.173Z"/><path fill="#34363a" d="M94.33,157.81a3.458,3.458,0,0,1-.588-.05,3.5,3.5,0,0,1-2.867-4.035c1.846-10.9,6.129-31.561,14.074-47.535a3.5,3.5,0,0,1,6.267,3.117c-7.543,15.167-11.658,35.072-13.439,45.587A3.5,3.5,0,0,1,94.33,157.81Z"/><path fill="#34363a" d="M131.9,254.8c-.288,0-.576,0-.867-.016-14.246-.546-38.026-9.4-41.19-30.832a3.5,3.5,0,1,1,6.925-1.023c2.64,17.886,24.405,24.472,34.532,24.86,6.716.258,12.169-3.979,15.568-7.576a4.459,4.459,0,0,0,.984-4.484c-.4-1.192-.784-2.425-1.146-3.663a3.5,3.5,0,0,1,6.718-1.967c.338,1.155.7,2.3,1.068,3.412a11.45,11.45,0,0,1-2.536,11.51C147.7,249.521,140.809,254.8,131.9,254.8Z"/><path fill="#34363a" d="M145.156,202.145a3.5,3.5,0,0,1-3.5-3.367c-1.214-31.846,6.195-63.562,9.437-75.72a6,6,0,0,0-2.64-6.659c-16.208-9.787-29.809-10.169-34.907-9.881a3.5,3.5,0,0,1-.4-6.989c5.745-.329,21.041.08,38.921,10.878a13.03,13.03,0,0,1,5.786,14.455c-3.161,11.851-10.384,42.753-9.206,73.649a3.5,3.5,0,0,1-3.364,3.631Z"/><path fill="#34363a" d="M52.144,182.841a3.5,3.5,0,0,1-3.375-2.58c-5.48-20.091-11.689-36.684-18.454-49.32a12.5,12.5,0,0,1,3.195-15.656A70.281,70.281,0,0,1,65.4,101.151a11.378,11.378,0,0,1,3.406-.08,3.5,3.5,0,0,1-.889,6.944,4.362,4.362,0,0,0-1.3.03,63.253,63.253,0,0,0-28.726,12.7,5.5,5.5,0,0,0-1.4,6.89c7.014,13.1,13.419,30.184,19.036,50.782a3.5,3.5,0,0,1-3.378,4.422Z"/><path fill="#34363a" d="M95.222,210.962a3.5,3.5,0,0,1-3.5-3.5V169.525a3.5,3.5,0,0,1,7,0v37.937A3.5,3.5,0,0,1,95.222,210.962Z"/><path fill="#34363a" d="M93.179,157.811a3.5,3.5,0,0,1-3.361-2.531c-5.432-18.816-13.914-36.2-18.487-44.882a3.5,3.5,0,0,1,6.195-3.261c4.7,8.922,13.413,26.788,19.017,46.2a3.505,3.505,0,0,1-3.364,4.472Z"/><path fill="#34363a" d="M90.282,116.2c-.065,0-.129,0-.193-.006-10.606-.586-18.941-4.2-24.773-10.754C56.1,95.084,55.935,80.19,56.294,74.267a3.5,3.5,0,1,1,6.987.424c-.306,5.049-.211,17.7,7.263,26.092,4.514,5.07,11.154,7.9,19.738,8.409,8.582-.51,15.222-3.338,19.736-8.407,7.473-8.391,7.57-21.04,7.265-26.089a3.5,3.5,0,1,1,6.987-.423c.358,5.923.2,20.815-9.025,31.167-5.832,6.549-14.166,10.166-24.771,10.752Q90.378,116.2,90.282,116.2Z"/><path fill="#34363a" d="M90.282,96.077c-26.137,0-33.01-20.316-33.077-20.521a3.5,3.5,0,0,1,6.655-2.17c.231.682,5.549,15.691,26.422,15.691,20.9,0,26.206-15.054,26.422-15.694a3.5,3.5,0,0,1,6.654,2.173C123.291,75.761,116.418,96.077,90.282,96.077Z"/><path fill="#34363a" d="M58.369,29.741a3.5,3.5,0,0,1-2.99-5.313c11.731-19.379,33.962-19.6,34.9-19.6s22.971.219,34.747,19.346a3.5,3.5,0,0,1-5.961,3.67C109.38,12.107,90.463,11.828,90.273,11.827c-.174,0-19.255.283-28.906,16.226A3.5,3.5,0,0,1,58.369,29.741Z"/><path fill="#34363a" d="M120.027,77.979a3.5,3.5,0,0,1-3.434-2.828c-.3-1.5-1.7-5.818-4.445-7.676a5.126,5.126,0,0,0-2.892-.814H71.317a5.136,5.136,0,0,0-2.9.814c-2.744,1.858-4.141,6.18-4.447,7.688a3.506,3.506,0,0,1-5.519,2.126l-7.718-5.73A11.842,11.842,0,0,1,47.188,56.62c.233-.456.44-.9.62-1.319a9.047,9.047,0,0,0,.774-3.566,67.491,67.491,0,0,1,.837-10.523,3.5,3.5,0,0,1,6.908,1.129,60.536,60.536,0,0,0-.745,9.425,16.028,16.028,0,0,1-1.348,6.313c-.238.548-.509,1.132-.816,1.731A4.865,4.865,0,0,0,54.9,65.939l3.866,2.87a17.209,17.209,0,0,1,5.721-7.131,12.084,12.084,0,0,1,6.817-2.017H109.23a12.212,12.212,0,0,1,6.843,2.018,17.206,17.206,0,0,1,5.72,7.131l3.866-2.871a4.865,4.865,0,0,0,1.486-6.129c-.307-.6-.579-1.185-.816-1.733a16,16,0,0,1-1.348-6.312,60.988,60.988,0,0,0-.665-8.917,3.5,3.5,0,1,1,6.919-1.061,68.077,68.077,0,0,1,.746,9.947,9.048,9.048,0,0,0,.774,3.567c.181.419.387.864.62,1.319a11.842,11.842,0,0,1-3.543,14.939l-7.718,5.73A3.5,3.5,0,0,1,120.027,77.979Z"/><path fill="#34363a" d="M106.2,54.425a16.144,16.144,0,0,1-3.445-.371,26.572,26.572,0,0,1-12.468-6.192,26.589,26.589,0,0,1-12.469,6.192A16.485,16.485,0,0,1,66.443,52.4L50.8,43.928A10.451,10.451,0,0,1,45.863,31.4a17.23,17.23,0,0,1,1.672-3.453A10.379,10.379,0,0,1,56.366,23.1H79.722a14.5,14.5,0,0,1,10.56,4.587A14.5,14.5,0,0,1,100.841,23.1H124.2a10.378,10.378,0,0,1,8.831,4.846A17.2,17.2,0,0,1,134.7,31.4h0a10.45,10.45,0,0,1-4.937,12.53L114.12,52.4A16.652,16.652,0,0,1,106.2,54.425Zm-15.913-15.4a3.5,3.5,0,0,1,2.888,1.523c2.822,4.123,7.582,5.9,11.078,6.668a9.489,9.489,0,0,0,6.538-.97l15.643-8.473A3.4,3.4,0,0,0,128.1,33.73h0a10.159,10.159,0,0,0-.991-2.047A3.412,3.412,0,0,0,124.2,30.1H100.841c-4.928,0-7.3,4.782-7.4,4.986a3.582,3.582,0,0,1-3.185,1.988,3.5,3.5,0,0,1-3.153-2.012c-.087-.18-2.457-4.962-7.385-4.962H56.366a3.414,3.414,0,0,0-2.912,1.582,10.3,10.3,0,0,0-.991,2.048,3.4,3.4,0,0,0,1.672,4.043l15.642,8.473a9.489,9.489,0,0,0,6.538.97c3.5-.766,8.257-2.545,11.078-6.668A3.5,3.5,0,0,1,90.282,39.025Z"/><path fill="#34363a" d="M112.5,226.243H92.062a3.5,3.5,0,0,1,0-7H112.5a3.5,3.5,0,0,1,0,7Z"/><path fill="#34363a" d="M112.151,211.887H90.921a3.5,3.5,0,1,1,0-7h21.23a3.5,3.5,0,1,1,0,7Z"/><path fill="#34363a" d="M143.2,236.437H123.227a13.918,13.918,0,0,1-13.9-13.9v-12.9a13.919,13.919,0,0,1,13.9-13.9H143.2a13.919,13.919,0,0,1,13.9,13.9v12.9A13.918,13.918,0,0,1,143.2,236.437Zm-19.973-33.705a6.911,6.911,0,0,0-6.9,6.9v12.9a6.91,6.91,0,0,0,6.9,6.9H143.2a6.91,6.91,0,0,0,6.9-6.9v-12.9a6.911,6.911,0,0,0-6.9-6.9Z"/><path fill="#34363a" d="M76.888,253.914H74.13a3.5,3.5,0,0,1,0-7h2.758a11.389,11.389,0,0,0,11.375-11.375V214.107a11.389,11.389,0,0,0-11.375-11.375h-3.41a3.5,3.5,0,1,1,0-7h3.41a18.4,18.4,0,0,1,18.375,18.375v21.432A18.4,18.4,0,0,1,76.888,253.914Z"/><path fill="#34363a" d="M80.722,159.265a3.5,3.5,0,0,1-.383-6.979,146.1,146.1,0,0,1,30.041-.356,3.5,3.5,0,1,1-.7,6.965,138.97,138.97,0,0,0-28.561.348A3.727,3.727,0,0,1,80.722,159.265Z"/><path fill="#34363a" d="M81.957,173.444a3.5,3.5,0,0,1-.553-6.956,110.928,110.928,0,0,1,29-.349,3.5,3.5,0,0,1-.776,6.957,103.912,103.912,0,0,0-27.11.3A3.475,3.475,0,0,1,81.957,173.444Z"/><path fill="#34363a" d="M125.559,185.091h-6.537a12.078,12.078,0,0,1-12.065-12.065V151.163A12.078,12.078,0,0,1,119.022,139.1h6.537a12.078,12.078,0,0,1,12.065,12.065v21.863A12.078,12.078,0,0,1,125.559,185.091ZM119.022,146.1a5.071,5.071,0,0,0-5.065,5.065v21.863a5.071,5.071,0,0,0,5.065,5.065h6.537a5.071,5.071,0,0,0,5.065-5.065V151.163a5.071,5.071,0,0,0-5.065-5.065Z"/><path fill="#34363a" d="M68.325,187.274c-.082,0-.163,0-.244,0a3.5,3.5,0,0,1,.07-7l.174,0c.121,0,.242,0,.364-.014l5.229-.395a4.707,4.707,0,0,0,4.333-5.043l-1.709-22.6a4.7,4.7,0,0,0-5.043-4.334l-5.227.4a4.707,4.707,0,0,0-4.333,5.043l1.709,22.6a4.671,4.671,0,0,0,.483,1.753,3.5,3.5,0,1,1-6.257,3.139,11.64,11.64,0,0,1-1.206-4.364l-1.71-22.6A11.716,11.716,0,0,1,65.744,141.3l5.228-.4a11.713,11.713,0,0,1,12.55,10.786l1.71,22.6a11.716,11.716,0,0,1-10.786,12.551l-5.228.4Q68.77,187.275,68.325,187.274Z"/><path fill="#34363a" d="M32.912,265.89a3.5,3.5,0,0,1-3.486-3.233l-2.483-32.463a25.657,25.657,0,0,1,10.229-21.9,3.5,3.5,0,1,1,4.2,5.6,18.628,18.628,0,0,0-7.443,15.859l2.477,32.372a3.5,3.5,0,0,1-3.223,3.757C33.092,265.887,33,265.89,32.912,265.89Z"/><path fill="#34363a" d="M72.74,265.364c-.07,0-.14,0-.211-.006a3.5,3.5,0,0,1-3.286-3.7l1.919-32.309a18.507,18.507,0,0,0-6.586-14.757,3.5,3.5,0,0,1,4.528-5.339,25.508,25.508,0,0,1,9.05,20.421l-1.924,32.4A3.5,3.5,0,0,1,72.74,265.364Z"/><path fill="#34363a" d="M59.258,217H47.764a16.96,16.96,0,0,1-16.94-16.941v-4.091A19.3,19.3,0,0,1,50.1,176.687H56.92A19.3,19.3,0,0,1,76.2,195.965v4.091A16.961,16.961,0,0,1,59.258,217ZM50.1,183.687a12.292,12.292,0,0,0-12.278,12.278v4.091A9.951,9.951,0,0,0,47.764,210H59.258a9.952,9.952,0,0,0,9.941-9.941v-4.091A12.292,12.292,0,0,0,56.92,183.687Z"/><path fill="#34363a" d="M73.168,321.229c-.085,0-.171,0-.257-.009a3.5,3.5,0,0,1-3.237-3.744l3.577-49.221a2.637,2.637,0,0,0-1.051-2.328,2.78,2.78,0,0,0-2.668-.38,49.223,49.223,0,0,1-17,2.876,46.22,46.22,0,0,1-15.443-2.472,2.6,2.6,0,0,0-2.486.414,2.766,2.766,0,0,0-1.08,2.453c1.508,17.35,2.5,36.593,2.952,46.518a3.5,3.5,0,1,1-6.992.321c-.453-9.872-1.436-29.006-2.934-46.233a9.758,9.758,0,0,1,3.77-8.595,9.587,9.587,0,0,1,9.107-1.476,39.251,39.251,0,0,0,13.106,2.07,42.257,42.257,0,0,0,14.586-2.448,9.78,9.78,0,0,1,9.291,1.362,9.633,9.633,0,0,1,3.819,8.425l-3.576,49.221A3.5,3.5,0,0,1,73.168,321.229Z"/><path fill="#34363a" d="M74.668,335.173h-43.9a3.5,3.5,0,0,1-3.5-3.5v-4.865a25.452,25.452,0,1,1,50.9,0v4.865A3.5,3.5,0,0,1,74.668,335.173Zm-40.4-7h36.9v-1.365a18.452,18.452,0,1,0-36.9,0Z"/><path fill="#34363a" d="M274.679,187.009q-.069,0-.138,0a3.5,3.5,0,0,1-3.362-3.633c1.147-29.562-8.234-59.816-8.329-60.119a3.494,3.494,0,0,1,.142-2.473,85.955,85.955,0,0,0,6.483-46.2l-18.44,17.594a3.5,3.5,0,0,1-4.832-5.065l23.081-22.022a3.5,3.5,0,0,1,5.781,1.571c.31,1.085,7.351,26.579-5.153,55.768,1.833,6.218,9.335,33.555,8.262,61.22A3.5,3.5,0,0,1,274.679,187.009Z"/><path fill="#34363a" d="M196.726,190.859a3.5,3.5,0,0,1-3.459-3c-5.1-35.04,3.636-58.439,6.341-64.609-15.05-33-6.25-52.227-5.862-53.041a3.5,3.5,0,0,1,5.376-1.2l19.825,16.223a3.5,3.5,0,1,1-4.433,5.417L198.763,77.761c-1.441,7.106-2.363,22.323,7.869,44a3.5,3.5,0,0,1-.049,3.087c-.116.231-11.912,24.1-6.389,62.006a3.5,3.5,0,0,1-3.468,4Z"/><path fill="#34363a" d="M227.691,218.727c-.09,0-.181,0-.272-.011-16.228-1.245-26.216-5.592-31.737-9.02a11.529,11.529,0,0,1-5.081-12.8l2.745-10.43a3.5,3.5,0,0,1,6.355-.961c.045.068,6.873,10.111,28.748,12.106a3.5,3.5,0,1,1-.636,6.97c-15.343-1.4-24.4-6.435-29.266-10.371l-1.176,4.468a4.564,4.564,0,0,0,2,5.069c4.859,3.016,13.761,6.851,28.58,7.988a3.5,3.5,0,0,1-.263,6.99Z"/><path fill="#34363a" d="M247.693,218.444a3.5,3.5,0,0,1-.416-6.975c14.82-1.793,21.821-7.257,24.674-10.354a4.61,4.61,0,0,0,1.181-3.852l-.682-4.359c-4.487,4.344-12.249,9.381-25.026,11.281a3.5,3.5,0,0,1-1.031-6.924c19.658-2.924,24.836-13.913,25.047-14.379a3.528,3.528,0,0,1,3.666-2.043,3.491,3.491,0,0,1,3,2.911l1.947,12.43a11.569,11.569,0,0,1-2.949,9.678c-4.282,4.648-12.787,10.6-28.982,12.56A3.374,3.374,0,0,1,247.693,218.444Z"/><path fill="#34363a" d="M257.835,298.516H216.91a3.5,3.5,0,0,1-3.5-3.5V279.668a3.5,3.5,0,0,1,3.5-3.5h8.437l-.757-72.516a9.619,9.619,0,0,1,9.455-9.774h7.42a9.61,9.61,0,0,1,9.455,9.737l-.758,72.553h7.673a3.5,3.5,0,0,1,3.5,3.5v15.348A3.5,3.5,0,0,1,257.835,298.516Zm-37.425-7h33.925v-8.348h-7.709a3.5,3.5,0,0,1-3.5-3.537l.794-76.052a2.6,2.6,0,0,0-2.455-2.7h-7.42a2.61,2.61,0,0,0-2.455,2.737l.794,76.016a3.5,3.5,0,0,1-3.5,3.537H220.41Z"/><path fill="#34363a" d="M237.216,113.265H226.843a16.008,16.008,0,0,1-15.99-15.99A19.293,19.293,0,0,1,230.124,78h3.81a19.293,19.293,0,0,1,19.271,19.271A16.007,16.007,0,0,1,237.216,113.265ZM230.124,85a12.285,12.285,0,0,0-12.271,12.271,9,9,0,0,0,8.99,8.99h10.373a9,9,0,0,0,8.989-8.99A12.285,12.285,0,0,0,233.934,85Z"/><path fill="#34363a" d="M233.61,146.1a12.768,12.768,0,0,1-4.575-.849,15.367,15.367,0,0,1-6.681-4.714,8.029,8.029,0,0,1-.93-8.548,8.162,8.162,0,0,1,7.4-4.656H238.4a8.162,8.162,0,0,1,7.4,4.656,8.031,8.031,0,0,1-.931,8.548,15.357,15.357,0,0,1-6.682,4.714A12.754,12.754,0,0,1,233.61,146.1Zm-4.788-11.767a1.194,1.194,0,0,0-1.095.7,1.033,1.033,0,0,0,.11,1.151,8.786,8.786,0,0,0,3.706,2.531,5.758,5.758,0,0,0,4.133,0,8.785,8.785,0,0,0,3.707-2.531,1.035,1.035,0,0,0,.109-1.151,1.194,1.194,0,0,0-1.095-.7Z"/><path fill="#34363a" d="M233.61,184.285a15.352,15.352,0,0,1-15.335-15.334V157.326a3.5,3.5,0,0,1,4.518-3.348c.039.011,5.6,1.592,8.059-1.547a3.5,3.5,0,0,1,5.515,0c2.456,3.139,8.021,1.558,8.076,1.541a3.512,3.512,0,0,1,4.5,3.354v11.625A15.352,15.352,0,0,1,233.61,184.285Zm-8.335-22.925v7.591a8.335,8.335,0,0,0,16.669,0V161.36a14.3,14.3,0,0,1-8.334-2.071A14.324,14.324,0,0,1,225.275,161.36Z"/><path fill="#34363a" d="M233.61,172.252a3.5,3.5,0,0,1-3.5-3.5V143.13a3.5,3.5,0,0,1,7,0v25.622A3.5,3.5,0,0,1,233.61,172.252Z"/><path fill="#34363a" d="M221.774,160.827a3.487,3.487,0,0,1-1.282-.244,10.832,10.832,0,0,1-6.418-7.041,3.5,3.5,0,0,1,6.766-1.792,3.917,3.917,0,0,0,2.218,2.32,3.5,3.5,0,0,1-1.284,6.757Z"/><path fill="#34363a" d="M245.442,160.827a3.5,3.5,0,0,1-.978-6.861,5.066,5.066,0,0,0,3.131-2.946,3.5,3.5,0,1,1,6.65,2.185,12.06,12.06,0,0,1-7.858,7.492A3.511,3.511,0,0,1,245.442,160.827Z"/><circle cx="81.465" cy="76.18" r="3.876" fill="#34363a"/><circle cx="99.098" cy="76.18" r="3.876" fill="#34363a"/><circle cx="222.793" cy="120.298" r="3.876" fill="#34363a"/><circle cx="244.426" cy="120.298" r="3.876" fill="#34363a"/><path fill="#34363a" d="M209.573,335.173a3.5,3.5,0,0,1-.283-6.988,4.8,4.8,0,0,0,3.39-1.344,3.632,3.632,0,0,0,.744-2.191c-.01-.1-.014-.206-.014-.31V295.016a3.5,3.5,0,0,1,7,0v29.222a10.611,10.611,0,0,1-2.376,7.113c-1.3,1.539-3.766,3.449-8.17,3.811C209.766,335.169,209.669,335.173,209.573,335.173Z"/><path fill="#34363a" d="M265.172,335.173c-.1,0-.194,0-.292-.011-8.213-.681-10.792-6.855-10.545-10.941v-29.2a3.5,3.5,0,0,1,7,0V324.34c0,.093,0,.184-.011.276-.045,1.163.426,3.262,4.133,3.569a3.5,3.5,0,0,1-.285,6.988Z"/></svg>