<svg xmlns="http://www.w3.org/2000/svg" xmlns:xlink="http://www.w3.org/1999/xlink" viewBox="0 0 340 340" width="500px" height="500px"><defs><linearGradient id="OrM_XwpFokxR5DPSksm35c" x1="96.833" x2="114.151" y1="267.063" y2="351.828" gradientUnits="userSpaceOnUse"><stop offset="0" stop-color="#d5c699"/><stop offset="1" stop-color="#a39668"/></linearGradient><linearGradient id="OrM_XwpFokxR5DPSksm35a" x1="24.442" x2="146.791" y1="215.083" y2="272.067" gradientUnits="userSpaceOnUse"><stop offset="0" stop-color="#8e6463"/><stop offset="1" stop-color="#7d4d4e"/></linearGradient><linearGradient id="OrM_XwpFokxR5DPSksm35b" x1="76.3" x2="110.595" y1="246.794" y2="286.039" gradientUnits="userSpaceOnUse"><stop offset="0" stop-color="#c49e96"/><stop offset="1" stop-color="#a87e75"/></linearGradient><linearGradient id="OrM_XwpFokxR5DPSksm35f" x1="19.147" x2="141.497" y1="226.45" y2="283.435" xlink:href="#OrM_XwpFokxR5DPSksm35a"/><linearGradient id="OrM_XwpFokxR5DPSksm35g" x1="6.616" x2="81.206" y1="251.901" y2="322.077" xlink:href="#OrM_XwpFokxR5DPSksm35b"/><linearGradient id="OrM_XwpFokxR5DPSksm35h" x1="1.889" x2="124.238" y1="263.506" y2="320.49" xlink:href="#OrM_XwpFokxR5DPSksm35a"/><linearGradient id="OrM_XwpFokxR5DPSksm35i" x1="16.532" x2="91.122" y1="241.361" y2="311.538" xlink:href="#OrM_XwpFokxR5DPSksm35b"/><linearGradient id="OrM_XwpFokxR5DPSksm35j" x1="15.003" x2="137.352" y1="235.348" y2="292.333" xlink:href="#OrM_XwpFokxR5DPSksm35a"/><linearGradient id="OrM_XwpFokxR5DPSksm35k" x1="41.837" x2="77.384" y1="121.581" y2="242.804" xlink:href="#OrM_XwpFokxR5DPSksm35c"/><linearGradient id="OrM_XwpFokxR5DPSksm35d" x1="283.957" x2="94.325" y1="212.259" y2="242.753" gradientUnits="userSpaceOnUse"><stop offset="0" stop-color="#b3b6bd"/><stop offset="1" stop-color="#848685"/></linearGradient><linearGradient id="OrM_XwpFokxR5DPSksm35e" x1="107.358" x2="107.358" y1="66.282" y2="114.947" gradientUnits="userSpaceOnUse"><stop offset="0" stop-color="#f2a399"/><stop offset="1" stop-color="#e58c83"/></linearGradient><linearGradient id="OrM_XwpFokxR5DPSksm35l" x1="75.336" x2="107.236" y1="6.128" y2="100.008" xlink:href="#OrM_XwpFokxR5DPSksm35c"/><linearGradient id="OrM_XwpFokxR5DPSksm35m" x1="67.803" x2="130.918" y1="113.1" y2="160.326" xlink:href="#OrM_XwpFokxR5DPSksm35b"/><linearGradient id="OrM_XwpFokxR5DPSksm35n" x1="279.562" x2="89.93" y1="184.925" y2="215.418" xlink:href="#OrM_XwpFokxR5DPSksm35d"/><linearGradient id="OrM_XwpFokxR5DPSksm35o" x1="225.64" x2="234.532" y1="211.449" y2="239.772" xlink:href="#OrM_XwpFokxR5DPSksm35e"/><linearGradient id="OrM_XwpFokxR5DPSksm35p" x1="243.44" x2="195.794" y1="170.731" y2="145.955" xlink:href="#OrM_XwpFokxR5DPSksm35d"/><linearGradient id="OrM_XwpFokxR5DPSksm35q" x1="137.622" x2="96.354" y1="213.587" y2="234.759" xlink:href="#OrM_XwpFokxR5DPSksm35e"/><linearGradient id="OrM_XwpFokxR5DPSksm35r" x1="3.282" x2="125.632" y1="260.513" y2="317.498" xlink:href="#OrM_XwpFokxR5DPSksm35a"/><linearGradient id="OrM_XwpFokxR5DPSksm35s" x1="158.001" x2="167.017" y1="196.188" y2="289.627" gradientUnits="userSpaceOnUse"><stop offset="0" stop-color="#f7f5a2"/><stop offset="1" stop-color="#f7c172"/></linearGradient><linearGradient id="OrM_XwpFokxR5DPSksm35t" x1="162.791" x2="143.415" y1="237.948" y2="314.075" gradientUnits="userSpaceOnUse"><stop offset="0" stop-color="#f7d17e"/><stop offset="1" stop-color="#f79d4e"/></linearGradient><linearGradient id="OrM_XwpFokxR5DPSksm35u" x1="51.979" x2="119.575" y1="113.72" y2="159.79" xlink:href="#OrM_XwpFokxR5DPSksm35a"/><linearGradient id="OrM_XwpFokxR5DPSksm35v" x1="167.123" x2="157.123" y1="220.664" y2="314.791" gradientUnits="userSpaceOnUse"><stop offset="0" stop-color="#f7aa69"/><stop offset="1" stop-color="#f7732b"/></linearGradient></defs><polygon fill="url(#OrM_XwpFokxR5DPSksm35c)" points="116.82 287.706 69.853 292.778 85.195 330.17 134.937 330.17 134.937 295.796 116.82 287.706"/><path fill="#726248" d="M44.309,330.17H85.2V306.8h20.288s10.89-1.123,13.873-11h15.581V278.1H44.309Z"/><path fill="#726248" d="M245.9,239.624s-10.317,13.02-28.026,14.639-82.935,9.85-82.935,9.85l-17.386-34.461,32.021-19.681,86.59,10.7Z"/><path fill="url(#OrM_XwpFokxR5DPSksm35a)" d="M146.754,286.662H111.682V233.971h15.066c11.049,0,21.047,8.826,21.047,19.875Z"/><path fill="url(#OrM_XwpFokxR5DPSksm35b)" d="M108.965,242.327,76.436,256.349V283.4a14.386,14.386,0,0,0,14.386,14.386h6.136s11.905-.95,14.452-15.006Z"/><path fill="url(#OrM_XwpFokxR5DPSksm35f)" d="M76.436,235.561v20.788a154.8,154.8,0,0,0,22.6-4.928,5.57,5.57,0,0,1,3.1-.047h0A5.529,5.529,0,0,1,106.2,256.7v25.212a16.749,16.749,0,0,1-9.241,15.868h2.71A14.386,14.386,0,0,0,114.054,283.4V235.561Z"/><path fill="url(#OrM_XwpFokxR5DPSksm35g)" d="M51.321,316.2H34.115a18.42,18.42,0,0,1-18.42-18.42V285.415l8.372-18.2,48.4,1.338-.932,29.23C71.533,310.292,51.321,316.2,51.321,316.2Z"/><path fill="url(#OrM_XwpFokxR5DPSksm35h)" d="M76.436,297.783v-29.23L15.7,267.215v18.2l39.46,5.906a7.624,7.624,0,0,1,6.387,8.879c-.954,5.285-3.525,12-10.221,16h6.7A18.419,18.419,0,0,0,76.436,297.783Z"/><path fill="url(#OrM_XwpFokxR5DPSksm35i)" d="M27.116,239.624a14.934,14.934,0,0,0-14.934,14.934v14A12.457,12.457,0,0,0,24.639,281.01h36.15c5.387-3.625,6.326-15.491,6.734-28.343Z"/><path fill="url(#OrM_XwpFokxR5DPSksm35j)" d="M44.7,239.624l-12.947,6.8A72.669,72.669,0,0,0,58.005,255.9a5.235,5.235,0,0,1,4.388,5.171v11.986a19.679,19.679,0,0,1-1.6,7.951h3.19a12.457,12.457,0,0,0,12.457-12.457V239.624Z"/><path fill="#34363a" d="M121.932,152.067s14.686,10.144,23.829,25.856L117.9,180.111l-7.316-24.265Z"/><path fill="url(#OrM_XwpFokxR5DPSksm35k)" d="M41.406,131.247S17.273,163.56,8.436,206.4a28.841,28.841,0,0,0,4.089,21.712,65.11,65.11,0,0,0,13.532,14.752,28.661,28.661,0,0,0,18.027,6.309H60.717A79.75,79.75,0,0,0,82.9,246.03l3.166-.917,35.87-24.083s7.095-37.135-10.756-63.207C111.176,157.823,77.489,124.418,41.406,131.247Z"/><path fill="#726248" d="M128.8,189.383c-2.244-11.844-6.288-24.969-13.547-35.57,0,0-34.357-26.722-68.844-23.262-.933.654-1.458,1.044-1.458,1.044s37.6,11.281,50.3,30.243,13.3,27.545,13.3,27.545Z"/><path fill="#34363a" d="M293.214,227.583a39.852,39.852,0,0,0-11.472,7.573,9.542,9.542,0,0,1-7.094,2.658l-33.793-1.35-8.061-19.286S282.847,219.36,293.214,227.583Z"/><path fill="#34363a" d="M295.275,209.971l-3.231,11.445,35.986,4.574a2.528,2.528,0,0,0,2.817-2.118l1.335-8.55Z"/><polygon fill="url(#OrM_XwpFokxR5DPSksm35d)" points="240.855 202.377 295.275 209.971 293.214 227.583 234.359 222.412 240.855 202.377"/><path fill="url(#OrM_XwpFokxR5DPSksm35e)" d="M128.905,73.27l-.784,29.462c-.109,4.079-2.366,7.564-3.611,11.436,0,0-24.255,4.772-38.7-10.448l7.661-30.637C108.6,66.922,120.538,66.749,128.905,73.27Z"/><path fill="#c66765" d="M124.507,114.175l-.012-.017c-14.1,2.134-22.934-3.208-27.794-7.916A15.909,15.909,0,0,1,91.9,94.8v-2a9.391,9.391,0,0,1,4.671-8.119l16.409-9.546a13.788,13.788,0,0,1,6.931-1.869h9l.313-11.768C99.335,53.135,67.062,72.943,67.062,72.943l9.05,35.86,30.907,12.977C116.173,122.768,121.506,118.473,124.507,114.175Z"/><path fill="#34363a" d="M80.2,81.421l.937,29.492s-22.79-4.1-25-33.872C56.133,77.041,72.677,75.213,80.2,81.421Z"/><path fill="url(#OrM_XwpFokxR5DPSksm35l)" d="M117,15.439c-7.74-4.115-18.259-6.547-32.54-5.269,0,0-30.341,2.342-39.068,30.58,1.032,12.668,5.627,21.392,13.525,26.462q37.368,9.865,63.3-12.252C132.928,39.485,128.168,26.87,117,15.439Z"/><path fill="url(#OrM_XwpFokxR5DPSksm35m)" d="M70.343,101.5c13.424,5.386,43.567,19.117,62.185,40.2a4.124,4.124,0,0,1,.751,4.212,16.283,16.283,0,0,1-3.974,5.844c-7.037,3.423-14.073,6.813-20.854,1.143L49.492,121.923S69.654,101.225,70.343,101.5Z"/><path fill="#726248" d="M138.489,202.774l-4.933-10.47-13.5-5.976s-14.462-.583-18.778.35-18.895-5.6-18.895-5.6l-19.478-2.8-7.931,4.666-5.486,9.914L38.368,205.876a24.715,24.715,0,0,0-9.107,6.064,2.184,2.184,0,0,0,2,3.655c8.592-1.817,19.756.222,19.756.222a26.439,26.439,0,0,0,12.5-1.356,51.059,51.059,0,0,1,8.6-2.3,15.571,15.571,0,0,1,17.944,12.11,23.107,23.107,0,0,1,.423,4.226s.872,9.92-4.42,16.62l11.3-3.273,22.694-13.7-.492-7.258s-.534-1-1.354-2.43l19.975-5.576Z"/><path fill="#34363a" d="M102.811,174.388h0L58.381,168.1a11.073,11.073,0,0,0-11.774,6.641,196.654,196.654,0,0,0-9.379,27.952,6.824,6.824,0,0,0,5.764,8.459l5.589.7a11.988,11.988,0,0,0,7.107-1.266c11.349-6.024,24.051-4.858,31.4-3.36a11.576,11.576,0,0,0,10.9-3.567l5.337-5.89a12.46,12.46,0,0,1,8.565-4.076l.01.022a12.426,12.426,0,0,1,2.427.086l14.831,1.886,2.348-17.23ZM83.252,190.55a5.075,5.075,0,0,1-5,3.263A60.23,60.23,0,0,0,56.114,196.6l3.241-9.284a7.684,7.684,0,0,1,8.209-5.092l11.565,1.447A5.094,5.094,0,0,1,83.252,190.55Z"/><path fill="url(#OrM_XwpFokxR5DPSksm35n)" d="M135.768,171.528l82.3,12.836a10.592,10.592,0,0,1,7.876,5.8,20.555,20.555,0,0,0,2.562,3.958c.878,4.305,5.212,6.954,12.346,8.259l-2.708,26.116-40.661-1.312a46.443,46.443,0,0,1-14.2-2.71l-7.232-2.6A46.435,46.435,0,0,0,164.1,219.29l-23.779-1.924a14.7,14.7,0,0,1-11.254-6.678c-2.577-4.054-4.667-10.593-4.086-21.06l.417-2.583a9.614,9.614,0,0,0,.951-5.888l.51-3.158A7.809,7.809,0,0,1,135.768,171.528Z"/><path fill="#34363a" d="M188.95,226.1a46.462,46.462,0,0,0,8.536,1.079l22.022.71.826-11.714-24.545-1.854Z"/><path fill="#34363a" d="M125.911,202.879s-10.271,14.456-20.473,22.862l18.752,5.917L151.9,218.136l.229-3.625a7.977,7.977,0,0,0-6.65-8.372Z"/><path fill="#34363a" d="M158.663,191.462a32.432,32.432,0,0,1,.141,8.344,7.591,7.591,0,0,1-8.294,6.829l-5.032-.5,2.912,11.88L164.1,219.29a46.473,46.473,0,0,1,5.427.781l.352-2.893L168.91,192.3Z"/><path fill="url(#OrM_XwpFokxR5DPSksm35o)" d="M220.334,216.177l24.084,1.789a10.808,10.808,0,0,1,9.7,8.221s-3.029,11.063-17.907,13.277-27.376-5.491-27.376-5.491a29.728,29.728,0,0,1,.015-8.645A10.773,10.773,0,0,1,220.334,216.177Z"/><path fill="url(#OrM_XwpFokxR5DPSksm35p)" d="M232.025,165.434h0a5.749,5.749,0,0,0-1.354-8.054,85.235,85.235,0,0,0-18.931-10.246,6.592,6.592,0,0,0-8.386,3.783h0a6.6,6.6,0,0,0,4.211,8.744,71.6,71.6,0,0,1,16.661,7.225A5.774,5.774,0,0,0,232.025,165.434Z"/><path fill="#34363a" d="M205.537,188.5l-.211-6.118L153.544,174.3l.275,9.889a7.817,7.817,0,0,0,6.785,7.53l36.093,4.793A7.816,7.816,0,0,0,205.537,188.5Z"/><path fill="url(#OrM_XwpFokxR5DPSksm35q)" d="M104.912,212.877h33.271a8.324,8.324,0,0,1,8.254,7.259l-3.43,5.83c-6.762,1.795-14.311,7.307-22.039,13.657l-18.162-4.876Z"/><rect width="11.152" height="17.712" x="33.795" y="268.465" fill="url(#OrM_XwpFokxR5DPSksm35r)" rx="5.576"/><path fill="url(#OrM_XwpFokxR5DPSksm35s)" d="M169.771,192.937l21.617,2.871a4.562,4.562,0,0,1,3.946,4.067c.184,1.865.373,4.394.46,7.448-.562,2.633-.743,5.063-.005,7-.072,2.464-.223,5.118-.485,7.918-1.108,2.369-1.618,4.711-.861,7-.393,2.565-.886,5.214-1.5,7.919a13.339,13.339,0,0,0-1.83,7c-.78,2.616-1.68,5.263-2.716,7.919a13.28,13.28,0,0,0-3.057,7c-1.289,2.656-2.729,5.3-4.338,7.919-2.4,2.393-4.318,4.751-4.592,7q-2.616,4.047-4.785,7.916a15.335,15.335,0,0,0-1.259,2.325c-13.82,10.076-27.373,12.743-39.97,9.123a130.757,130.757,0,0,1,16.656-30.833c19.2-26.594,19.308-54.749,18.474-65.594A3.754,3.754,0,0,1,169.771,192.937Z"/><path fill="url(#OrM_XwpFokxR5DPSksm35t)" d="M130.4,293.36a102.7,102.7,0,0,0-6.714,31.779,4.862,4.862,0,0,0,4.866,5.031H151.7a5.167,5.167,0,0,0,5.156-4.684c.163-1.788.446-4.053.933-6.734a15.019,15.019,0,0,1,1.549-7c.635-2.444,1.418-5.091,2.383-7.918a13.817,13.817,0,0,1,2.638-7q1.567-3.806,3.577-7.92a13.6,13.6,0,0,1,2.034-4.586Z"/><path fill="#c66765" d="M146.505,221.2h0a8.256,8.256,0,0,0-.076-1.062c-2.935,2.741-7.459,3.816-11.058,4.221a14.5,14.5,0,0,0-9.787,5.514l-3.767,4.825a4.928,4.928,0,0,1-4.97,1.774l-5.864-1.324a6.965,6.965,0,0,1-5.426-6.511l-.645-15.759h-.264a7.288,7.288,0,0,0-7.288,7.287V241.84l14.22,4.031a14.668,14.668,0,0,0,15.58-5.108l5.286-6.8a12.35,12.35,0,0,1,6.4-4.3l1.6-.45A8.322,8.322,0,0,0,146.505,221.2Z"/><path fill="#c66765" d="M254.126,235.091l.282-5.83a10.739,10.739,0,0,0-.295-3.072c-4.706,7.709-14.3,7.782-14.3,7.782H208.844a26.636,26.636,0,0,0,.646,3.1,10.7,10.7,0,0,0,10.116,7.75l23.48.544A10.8,10.8,0,0,0,254.126,235.091Z"/><path fill="url(#OrM_XwpFokxR5DPSksm35u)" d="M107.358,147.261C97.216,140.5,83.986,134.744,78.21,132.369a5.005,5.005,0,0,1-3.094-4.343l-.224-3.878c6.462,2.147,13.407,4.79,21.114,7.664a1.683,1.683,0,0,0,1.506-2.989A169.078,169.078,0,0,0,70.733,115.3a4.849,4.849,0,0,1-2.811-5.926l2.421-7.868c-.684-.274-1.338-.534-1.931-.764a9.8,9.8,0,0,0-11.374,3.2,27.155,27.155,0,0,0-4.1,8.277l-4.8-.076a6.624,6.624,0,0,0-6.729,6.623v12.487c25.409,1.866,54.759,17.694,66.234,24.434a15.215,15.215,0,0,0,12.58,1.357,24.031,24.031,0,0,0,9.082-5.278C118,154.663,107.358,147.261,107.358,147.261Z"/><path fill="#726248" d="M143.866,58.288a17.318,17.318,0,0,0-3.363-9.766,17.587,17.587,0,0,1-3-6.367c-1.664-6.5-6.613-19.311-20.507-26.7a51.112,51.112,0,0,1,6.132,18.176,23.887,23.887,0,0,1-8.485,21.737c-6.255,5.11-16.128,10.151-30.487,9.652-23-.8-34.691-10.8-38.754-24.266a57.766,57.766,0,0,0-2.262,19.661A20.6,20.6,0,0,0,60.9,79.873a158.056,158.056,0,0,0,19.3,1.548,21.1,21.1,0,0,0,8.735-1.8A148.7,148.7,0,0,0,109.98,68.208a16.774,16.774,0,0,1,9.16-2.69h17.895A6.854,6.854,0,0,0,143.866,58.288Z"/><path fill="url(#OrM_XwpFokxR5DPSksm35v)" d="M170.368,284.236l-20.494,4.679h18.064C168.689,287.388,169.512,285.82,170.368,284.236Z"/><path fill="#34363a" d="M292.862,303.715h0a3.959,3.959,0,0,0,3-4.73l-16.449-67.347-7.729,1.731,16.45,67.348A3.96,3.96,0,0,0,292.862,303.715Z"/><path fill="#34363a" d="M250.755,302.65h0a3.959,3.959,0,0,1-3-4.73L263.2,231.638l7.729,1.731-15.443,66.282A3.96,3.96,0,0,1,250.755,302.65Z"/><rect width="27.477" height="6.861" x="258.119" y="277.466" fill="#34363a"/><path fill="#34363a" d="M186.538,261a3.5,3.5,0,0,1-.37-6.98c15.347-1.652,25.907-2.743,31.386-3.244a38.839,38.839,0,0,0,19.676-7.835,3.5,3.5,0,1,1,4.217,5.587,45.827,45.827,0,0,1-23.256,9.219c-5.442.5-15.964,1.585-31.274,3.233A3.731,3.731,0,0,1,186.538,261Z"/><path fill="#34363a" d="M133.263,290.162H114.48a3.5,3.5,0,0,1,0-7h18.783a3.5,3.5,0,0,1,0,7Z"/><path fill="#34363a" d="M76.436,272.053a3.5,3.5,0,0,1-3.5-3.5V248.331a3.5,3.5,0,0,1,7,0v20.222A3.5,3.5,0,0,1,76.436,272.053Z"/><path fill="#34363a" d="M99.668,301.283H90.822A17.907,17.907,0,0,1,72.936,283.4a3.5,3.5,0,0,1,7,0,10.9,10.9,0,0,0,10.886,10.886h8.846A10.9,10.9,0,0,0,110.553,283.4V247.076a3.5,3.5,0,0,1,7,0V283.4A17.906,17.906,0,0,1,99.668,301.283Z"/><path fill="#34363a" d="M58.017,319.7h-23.9A21.944,21.944,0,0,1,12.2,297.783V278.1a3.5,3.5,0,0,1,7,0v19.687A14.936,14.936,0,0,0,34.115,312.7h23.9a14.936,14.936,0,0,0,14.919-14.919v-29.23a3.5,3.5,0,0,1,7,0v29.23A21.944,21.944,0,0,1,58.017,319.7Z"/><path fill="#34363a" d="M63.979,284.51H47.852a3.5,3.5,0,1,1,0-7H63.979a8.967,8.967,0,0,0,8.957-8.957,3.5,3.5,0,0,1,7,0A15.975,15.975,0,0,1,63.979,284.51Z"/><path fill="#34363a" d="M31.133,284.51H24.639A15.975,15.975,0,0,1,8.682,268.553v-14A18.334,18.334,0,0,1,20.368,237.4a3.5,3.5,0,1,1,2.564,6.513,11.376,11.376,0,0,0-7.25,10.645v14a8.967,8.967,0,0,0,8.957,8.957h6.494a3.5,3.5,0,1,1,0,7Z"/><path fill="#34363a" d="M141.829,175.405A3.493,3.493,0,0,1,139,173.962a91.584,91.584,0,0,0-15.822-16.539,3.5,3.5,0,0,1,4.414-5.434,97.144,97.144,0,0,1,17.071,17.858,3.5,3.5,0,0,1-2.829,5.558Z"/><path fill="#34363a" d="M125.777,180.347a3.5,3.5,0,0,1-3.353-2.5,85.1,85.1,0,0,0-7.268-17.559,3.5,3.5,0,1,1,6.095-3.444,92.183,92.183,0,0,1,7.882,19.006,3.5,3.5,0,0,1-3.356,4.5Z"/><path fill="#34363a" d="M60.717,252.677H44.084a32.246,32.246,0,0,1-20.227-7.087A68.632,68.632,0,0,1,9.6,230.042,32.129,32.129,0,0,1,5.008,205.7C13.9,162.585,37.6,130.5,38.6,129.152a3.5,3.5,0,0,1,5.609,4.188c-.237.317-23.781,32.241-32.348,73.771a25.184,25.184,0,0,0,3.584,19.08,61.732,61.732,0,0,0,12.81,13.955,25.225,25.225,0,0,0,15.827,5.531H60.717a76.231,76.231,0,0,0,21.206-3.009l14.463-4.19a3.5,3.5,0,0,1,1.948,6.724L83.87,249.391A83.166,83.166,0,0,1,60.717,252.677Z"/><path fill="#34363a" d="M275.05,241.322c-.18,0-.361,0-.542-.011l-20.227-.808a3.5,3.5,0,1,1,.28-6.994l20.227.808a6.053,6.053,0,0,0,4.5-1.653,43.25,43.25,0,0,1,12.613-8.323,3.5,3.5,0,0,1,2.638,6.483h0a36.606,36.606,0,0,0-10.337,6.825A13.039,13.039,0,0,1,275.05,241.322Z"/><path fill="#34363a" d="M332.182,230.018a3.637,3.637,0,0,1-.441-.027l-37.5-4.768a3.5,3.5,0,0,1,.883-6.944l33.556,4.266v-4.194l-33.909-4.916a3.5,3.5,0,0,1,1-6.928l36.907,5.351a3.5,3.5,0,0,1,3,3.464v11.2a3.5,3.5,0,0,1-3.5,3.5Z"/><path fill="#34363a" d="M293.218,231.083c-.1,0-.206,0-.31-.013l-38.793-3.409a3.5,3.5,0,1,1,.612-6.973l35.406,3.111,1.268-10.835-51.03-7.121a3.5,3.5,0,0,1,.968-6.933l54.42,7.595a3.5,3.5,0,0,1,2.993,3.873l-2.061,17.612A3.5,3.5,0,0,1,293.218,231.083Z"/><path fill="#34363a" d="M110.577,125.4a3.5,3.5,0,0,1-.154-7,13.787,13.787,0,0,0,10.835-5.712,17.315,17.315,0,0,0,3.364-10.054l.967-36.338a3.5,3.5,0,1,1,7,.186l-.967,36.339a24.273,24.273,0,0,1-4.772,14.082,20.766,20.766,0,0,1-16.11,8.49C110.684,125.4,110.63,125.4,110.577,125.4Z"/><path fill="#34363a" d="M64.189,103.324a3.492,3.492,0,0,1-2.756-1.34c-4.648-5.922-7.524-13.37-8.548-22.136a3.5,3.5,0,0,1,6.953-.812c.872,7.466,3.261,13.733,7.1,18.627a3.5,3.5,0,0,1-2.751,5.661Z"/><path fill="#34363a" d="M80.961,108.927a3.5,3.5,0,0,1-3.5-3.389l-.716-22.551a3.5,3.5,0,0,1,7-.223l.716,22.552a3.5,3.5,0,0,1-3.387,3.609C81.036,108.927,81,108.927,80.961,108.927Z"/><path fill="#34363a" d="M80.469,84.923l-.314,0A159.935,159.935,0,0,1,60.42,83.34,24.057,24.057,0,0,1,39.64,60.562C37.505,10.861,83.722,6.717,84.189,6.68,127.6,2.8,138.562,32.188,140.89,41.287a14.017,14.017,0,0,0,2.391,5.105,20.575,20.575,0,0,1,4.08,11.718,10.443,10.443,0,0,1-2.842,7.7,10.227,10.227,0,0,1-7.484,3.212H119.14a13.25,13.25,0,0,0-7.25,2.123A151.331,151.331,0,0,1,90.34,82.831,24.434,24.434,0,0,1,80.469,84.923Zm-19.09-8.516a153.323,153.323,0,0,0,18.866,1.514,17.571,17.571,0,0,0,7.285-1.5,144.489,144.489,0,0,0,20.54-11.145,20.223,20.223,0,0,1,11.07-3.258h17.895a3.291,3.291,0,0,0,2.409-1.034,3.359,3.359,0,0,0,.926-2.516,13.723,13.723,0,0,0-2.644-7.816,20.959,20.959,0,0,1-3.617-7.629c-2.541-9.928-12.433-32.664-49.338-29.366C83.1,13.792,44.793,17.4,46.633,60.262A17.062,17.062,0,0,0,61.379,76.407Z"/><path fill="#34363a" d="M115.449,161.326a18.931,18.931,0,0,1-9.581-2.627c-11.241-6.6-40.05-22.15-64.718-23.962a3.5,3.5,0,0,1-3.244-3.491V118.761a10.123,10.123,0,0,1,10.285-10.123l2.271.036a29.824,29.824,0,0,1,3.784-6.849,13.349,13.349,0,0,1,15.435-4.349h0c13.553,5.273,47.206,20.081,66.958,43.642a3.5,3.5,0,0,1,.806,2.542c-.04.472-1.147,11.6-16.1,16.691A18.267,18.267,0,0,1,115.449,161.326ZM44.906,128.063c25.327,2.925,53.323,18.032,64.507,24.6a11.68,11.68,0,0,0,9.679,1.063c7.823-2.664,10.3-7.238,11.059-9.422-18.857-21.565-50.216-35.326-63.008-40.3h0a6.327,6.327,0,0,0-7.314,2.048,23.8,23.8,0,0,0-3.515,7.083,3.471,3.471,0,0,1-3.434,2.583l-4.8-.076a3.2,3.2,0,0,0-2.241.9,3.1,3.1,0,0,0-.933,2.227Z"/><path fill="#34363a" d="M50.15,215.446a16.119,16.119,0,0,1-2-.126l-5.588-.7a10.325,10.325,0,0,1-8.723-12.793,200.3,200.3,0,0,1,9.55-28.459,14.583,14.583,0,0,1,15.5-8.737l68.019,9.633a3.5,3.5,0,1,1-.981,6.931l-68.03-9.635a7.583,7.583,0,0,0-8.062,4.544A193.047,193.047,0,0,0,40.62,203.55a3.325,3.325,0,0,0,2.806,4.125l5.589.7a8.447,8.447,0,0,0,5.032-.885c12.525-6.647,26.517-5.17,33.742-3.7a8.114,8.114,0,0,0,7.611-2.486l5.336-5.891a15.926,15.926,0,0,1,14.093-5.082l9.79,1.244a3.5,3.5,0,1,1-.883,6.944l-9.846-1.252a8.978,8.978,0,0,0-7.966,2.846l-5.337,5.891a15.158,15.158,0,0,1-14.2,4.646c-6.306-1.285-18.467-2.6-29.062,3.021A15.257,15.257,0,0,1,50.15,215.446Z"/><path fill="#34363a" d="M164.1,222.79c-.095,0-.19,0-.286-.011l-17-1.376a3.5,3.5,0,1,1,.564-6.977l17,1.375a3.5,3.5,0,0,1-.278,6.989Z"/><path fill="#34363a" d="M208.53,231.037c-.038,0-.076,0-.114,0l-11.043-.356q-1.03-.033-2.059-.108a3.5,3.5,0,1,1,.514-6.982q.883.066,1.77.094l11.043.356a3.5,3.5,0,0,1-.111,7Z"/><path fill="#34363a" d="M239.343,220.5c-.121,0-.243-.007-.365-.019a3.5,3.5,0,0,1-3.121-3.843l1.245-12c-8.3-3.666-12.343-8.966-14.3-12.937a7.105,7.105,0,0,0-5.276-3.882l-82.3-12.835a4.323,4.323,0,0,0-4.917,3.57L128.463,190a52.2,52.2,0,0,0,.065,6.875,18.956,18.956,0,0,0,6.107,12.487,3.5,3.5,0,1,1-4.731,5.16,25.942,25.942,0,0,1-8.354-17.086,59.414,59.414,0,0,1-.066-8,3.412,3.412,0,0,1,.039-.363l1.877-11.629a11.334,11.334,0,0,1,12.907-9.37l82.3,12.835a14.109,14.109,0,0,1,10.478,7.709c1.576,3.2,5.1,7.624,12.96,10.471a3.5,3.5,0,0,1,2.289,3.652l-1.517,14.624A3.5,3.5,0,0,1,239.343,220.5Z"/><path fill="#34363a" d="M243.351,248.872c-.116,0-.23,0-.346,0l-23.48-.542A14.269,14.269,0,0,1,206.115,238a32.206,32.206,0,0,1-.73-13.173,14.3,14.3,0,0,1,15.209-12.144h0l24.083,1.788A14.224,14.224,0,0,1,257.9,229.43l-.282,5.831A14.219,14.219,0,0,1,243.351,248.872Zm-23.824-29.225a7.273,7.273,0,0,0-7.213,6.178,25.257,25.257,0,0,0,.551,10.323,7.222,7.222,0,0,0,6.822,5.179l23.48.543a7.293,7.293,0,0,0,7.463-6.947l.282-5.831a7.262,7.262,0,0,0-6.753-7.636l-24.084-1.789C219.892,219.654,219.709,219.647,219.527,219.647Z"/><path fill="#34363a" d="M227.36,171.3a9.348,9.348,0,0,1-5-1.451,68.5,68.5,0,0,0-15.814-6.837,10.1,10.1,0,1,1,6.409-19.158,88.644,88.644,0,0,1,19.741,10.672,9.248,9.248,0,0,1,2.172,12.956h0A9.22,9.22,0,0,1,227.36,171.3Zm4.665-5.863h0Zm-22.527-15.2a3.125,3.125,0,0,0-2.889,1.971,3.1,3.1,0,0,0,1.978,4.108,75.521,75.521,0,0,1,17.508,7.615,2.265,2.265,0,0,0,3.089-.539h0a2.223,2.223,0,0,0,.393-1.677,2.254,2.254,0,0,0-.928-1.475,81.522,81.522,0,0,0-18.122-9.819A2.958,2.958,0,0,0,209.5,150.234Z"/><path fill="#34363a" d="M156.645,333.67H123.736a3.5,3.5,0,0,1-3.492-3.261c-.09-1.311-1.891-32.527,24.668-69.32,23.277-32.246,16.724-67.763,16.655-68.117a3.5,3.5,0,0,1,3.9-4.137L195.35,192.8a3.5,3.5,0,0,1,2.99,2.887c.289,1.713,6.818,42.349-16.772,76.87-22.154,32.421-21.436,57.224-21.426,57.471a3.5,3.5,0,0,1-3.5,3.639Zm-29.4-7h26c.55-8.461,3.858-30.708,22.548-58.059,18.737-27.421,16.939-60.01,15.967-69.223l-22.671-3.011c1.128,11.329,1.636,40.917-18.5,68.808C130.4,293.146,127.574,318,127.241,326.67Z"/><path fill="#34363a" d="M197.733,200.082a11.439,11.439,0,0,1-1.5-.1l-36.093-4.793a11.271,11.271,0,0,1-9.822-10.9l-.276-9.889a3.5,3.5,0,0,1,4.038-3.555l51.782,8.075a3.5,3.5,0,0,1,2.959,3.337l.211,6.118a11.318,11.318,0,0,1-11.3,11.709Zm-40.574-21.675.159,5.685a4.3,4.3,0,0,0,3.746,4.158l36.094,4.793a4.315,4.315,0,0,0,4.881-4.427h0l-.111-3.227Z"/><path fill="#34363a" d="M115.62,249.936a18.291,18.291,0,0,1-5-.7l-14.22-4.031a3.5,3.5,0,0,1-2.545-3.367V220.164a10.8,10.8,0,0,1,10.788-10.787h33.535a11.822,11.822,0,0,1,3.207,23.2l-1.6.45a8.785,8.785,0,0,0-4.582,3.083l-5.287,6.8A18.087,18.087,0,0,1,115.62,249.936Zm-14.76-10.742,11.674,3.31a11.126,11.126,0,0,0,11.863-3.89l5.287-6.8a15.728,15.728,0,0,1,8.209-5.524l1.6-.45a4.823,4.823,0,0,0-1.308-9.464H104.648a3.792,3.792,0,0,0-3.788,3.787Z"/><path fill="#34363a" d="M39.371,295.764a11.133,11.133,0,0,1-11.12-11.121v-8.965a11.12,11.12,0,0,1,22.24,0v8.965A11.133,11.133,0,0,1,39.371,295.764Zm0-24.206a4.124,4.124,0,0,0-4.12,4.12v8.965a4.12,4.12,0,1,0,8.24,0v-8.965A4.124,4.124,0,0,0,39.371,271.558Z"/><path fill="#34363a" d="M117.31,109.5a60.073,60.073,0,0,1-11.666-1.284c-18.2-3.627-27.38-13.972-27.763-14.41A3.5,3.5,0,0,1,83.152,89.2c.143.16,8.194,9.029,23.86,12.151,14.117,2.814,18.51-.395,18.542-.43a3.5,3.5,0,1,1,5.079,4.817C129.9,106.515,126.462,109.5,117.31,109.5Z"/><path fill="#34363a" d="M332.178,217.988a3.5,3.5,0,0,1-3.5-3.485l-.053-12.834a.609.609,0,0,0-1.1-.362l-9.383,12.543a3.5,3.5,0,0,1-5.605-4.193l9.383-12.543a7.609,7.609,0,0,1,13.7,4.525l.053,12.834a3.5,3.5,0,0,1-3.486,3.515Z"/><path fill="#34363a" d="M225.947,193.66a3.5,3.5,0,0,1-1.183-6.794c4.031-1.448,6.54-3.562,7.459-6.285,1.773-5.253-2.319-11.661-2.361-11.725a3.5,3.5,0,0,1,5.856-3.836c.246.374,5.989,9.26,3.152,17.755-1.626,4.872-5.576,8.465-11.74,10.678A3.474,3.474,0,0,1,225.947,193.66Z"/><path fill="#34363a" d="M240.859,205.877a3.677,3.677,0,0,1-.465-.03l-45.966-6.1a3.5,3.5,0,0,1,.922-6.94l45.966,6.1a3.5,3.5,0,0,1-.457,6.97Z"/><path fill="#34363a" d="M158.175,318.752H125.4a3.5,3.5,0,0,1,0-7h32.779a3.5,3.5,0,0,1,0,7Z"/><path fill="#34363a" d="M162.535,303.833H128.987a3.5,3.5,0,0,1,0-7h33.548a3.5,3.5,0,1,1,0,7Z"/><path fill="#34363a" d="M169.358,288.915H134.937a3.5,3.5,0,0,1,0-7h34.421a3.5,3.5,0,0,1,0,7Z"/><path fill="#34363a" d="M178.233,274H143.145a3.5,3.5,0,1,1,0-7h35.088a3.5,3.5,0,0,1,0,7Z"/><path fill="#34363a" d="M186.543,259.078H153.1a3.5,3.5,0,0,1,0-7h33.446a3.5,3.5,0,0,1,0,7Z"/><path fill="#34363a" d="M191.775,244.16H160.227a3.5,3.5,0,0,1,0-7h31.548a3.5,3.5,0,0,1,0,7Z"/><path fill="#34363a" d="M194.6,229.241H164.382a3.5,3.5,0,0,1,0-7H194.6a3.5,3.5,0,0,1,0,7Z"/><path fill="#34363a" d="M195.571,214.323H166.28a3.5,3.5,0,0,1,0-7h29.291a3.5,3.5,0,0,1,0,7Z"/><path fill="#34363a" d="M105.019,279.749H103.3a3.5,3.5,0,1,1,0-7h1.718a5.541,5.541,0,0,0,5.534-5.534,3.5,3.5,0,0,1,7,0A12.549,12.549,0,0,1,105.019,279.749Z"/><path fill="#34363a" d="M92.548,279.749H84.132a11.209,11.209,0,0,1-11.2-11.2,3.5,3.5,0,0,1,7,0,4.2,4.2,0,0,0,4.2,4.2h8.416a3.5,3.5,0,0,1,0,7Z"/><path fill="#34363a" d="M92.548,284.741a3.5,3.5,0,0,1-3.5-3.5V271.4a3.5,3.5,0,0,1,7,0v9.842A3.5,3.5,0,0,1,92.548,284.741Z"/><circle cx="114.238" cy="84.009" r="3.658" fill="#34363a"/><path fill="#34363a" d="M97.357,223.664a3.5,3.5,0,0,1-3.489-3.255c-.029-.373-.719-8.012-7.652-9.8a3.5,3.5,0,0,1,1.747-6.778c11.908,3.07,12.855,15.575,12.89,16.105a3.5,3.5,0,0,1-3.266,3.72C97.51,223.662,97.433,223.664,97.357,223.664Z"/><path fill="#34363a" d="M146.758,267.319a3.7,3.7,0,0,1-.418-.025,3.5,3.5,0,0,1-3.062-3.89c2.586-21.7-11.518-25.2-12.119-25.338a3.5,3.5,0,0,1,1.482-6.842c.21.045,20.952,4.785,17.589,33.008A3.5,3.5,0,0,1,146.758,267.319Z"/><path fill="#34363a" d="M31.754,217.193a3.5,3.5,0,0,1-1.817-6.493c5.794-3.511,12.991-3.065,13.293-3.043a3.5,3.5,0,0,1-.467,6.984c-.106-.008-5.35-.287-9.2,2.045A3.481,3.481,0,0,1,31.754,217.193Z"/><path fill="#34363a" d="M291.982,307.314a7.468,7.468,0,0,1-7.266-5.832L268.282,234.2a3.5,3.5,0,0,1,2.635-4.246l7.729-1.732a3.5,3.5,0,0,1,4.165,2.585l16.449,67.348a7.459,7.459,0,0,1-5.633,8.976A7.554,7.554,0,0,1,291.982,307.314Zm-16.053-71.309,15.6,63.881a.5.5,0,0,0,.218.354.46.46,0,0,0,.635-.143.446.446,0,0,0,.06-.347L276.825,235.8Z"/><path fill="#34363a" d="M251.635,306.249a7.554,7.554,0,0,1-1.645-.183h0a7.469,7.469,0,0,1-5.648-8.91l15.449-66.311a3.5,3.5,0,0,1,4.174-2.622l7.728,1.732a3.5,3.5,0,0,1,2.644,4.209l-15.442,66.282a7.47,7.47,0,0,1-7.259,5.8Zm-.114-7.014a.463.463,0,0,0,.548-.349l14.649-62.873-.9-.2-14.655,62.9a.456.456,0,0,0,.356.521Z"/><rect width="34.477" height="13.861" x="254.619" y="273.966" fill="#34363a" rx="3.5"/><path fill="#34363a" d="M44.309,313.306a3.5,3.5,0,0,0-3.5,3.5V330.17h7V316.806A3.5,3.5,0,0,0,44.309,313.306Z"/></svg>