<svg xmlns="http://www.w3.org/2000/svg"  viewBox="0 0 340 340" width="500px" height="500px"><path fill="#ffd0d3" d="M65.349,213.988S49.814,232.741,39.52,251.463a18.62,18.62,0,0,0,4.836,23.645L55.472,283.8l19.081-21.551-3.816-4.939,18.632-21.326Z"/><path fill="#ffcb8a" d="M74.553,262.252a150.872,150.872,0,0,0-24.376,22.675,3.828,3.828,0,0,0,.382,5.375L72.9,309.828l.729,6.683a13.05,13.05,0,0,0,10.761,11.446l8.122,1.4-.156-47.02A164.142,164.142,0,0,0,74.553,262.252Z"/><path fill="#e08690" d="M65.349,213.988s-3.775,4.558-8.833,11.418l20.5,24.724,12.356-14.143Z"/><path fill="#fcf2f8" d="M140.6,161.446a263.774,263.774,0,0,0-31.914,6.209c-10.388,2.8-38.85,20.966-51.959,44.874l37.633,29.626,119.185-1.614-5.307-46.955a65.407,65.407,0,0,0-21.1-24,42.686,42.686,0,0,0-22.953-7.411Z"/><path fill="#d3bbbb" d="M208.236,193.588a89.5,89.5,0,0,0-7.276,17.478,65.617,65.617,0,0,0-24.741-7.739l3,34.052s1.955,2.031,4.83,4.776l29.5-.6S220.25,216.74,208.236,193.588Z"/><path fill="#ffd0d3" d="M125.6,146.924c-.321,6.4-.655,14.1-.741,19.823a21.123,21.123,0,0,0,2.385,10.316c2.411,4.5,7.2,9.3,16.642,9.3,11.092,0,15.645-6.272,17.473-12.176a22,22,0,0,0-.627-14.337,91.463,91.463,0,0,1-3.438-11.11Z"/><path fill="#93c3fc" d="M125.118,157.6a94.333,94.333,0,0,0-14.926,6.07,9.13,9.13,0,0,0-4.983,8.9c1.149,12.989,1.984,45.35-14.94,66.354l2.245,90.424H199.863L187.976,205.67c-2.141-14.651-4.583-28.432-7.339-39.862a9.02,9.02,0,0,0-5.409-6.253c-4.073-1.634-10.383-3.773-16.02-4.029,0,0,7.547,38.206,5.29,67.3H125.872S128.126,175.4,125.118,157.6Z"/><path fill="#697cb7" d="M195.073,233.921c-.889-.466-7.1-28.25-7.1-28.25a35.7,35.7,0,0,0-8.23-.489,4.591,4.591,0,0,0-4.165,5.94,62.017,62.017,0,0,1,2.274,13.779c-9.855-1.53-17.668,3.155-23.8,8.107a6,6,0,0,0-.145,9.2c2.991,2.615,6.2,6.37,7.077,10.926V306.13s-.4,19.636,16.591,23.225h22.282A760.084,760.084,0,0,0,195.073,233.921Z"/><path fill="#e08690" d="M125.6,146.924c6.455,2.834,17.451,5.671,31.7,1.816a72.621,72.621,0,0,1-2.143-17.457l-28.89,3.492S125.936,140.125,125.6,146.924Z"/><path fill="#ffd0d3" d="M177.862,92.688c-1.557-3.146-4.781-6.776-11.316-6.405L165,65.534c-21.75.351-42.775,6.051-62.549,14.485l3.581,17.122C95.3,98.3,92.4,111.23,100.959,118.727c3.465,3.035,10.083,1.552,10.083,1.552s8.372,24.9,34.131,20.178c17.655-3.236,21.874-20.047,22.875-28.634l0,.025s8.245-2.023,10.606-9.587A12.976,12.976,0,0,0,177.862,92.688Z"/><path fill="#e08690" d="M165,65.534c-21.75.351-42.775,6.051-62.549,14.485l3.581,17.122a279.991,279.991,0,0,1,60-17.769Z"/><path fill="#3e3e54" d="M106.029,97.141s-14.783,3.349-20.084-12.9l21.084-6.7S111.5,89.743,106.029,97.141Z"/><path fill="#3e3e54" d="M166.546,86.283s-13.454-1.507-17.455-19.114a97.358,97.358,0,0,1,22.727-5.126S177.785,76.582,166.546,86.283Z"/><path fill="#ffc0af" d="M83.113,36.934c.554,4.641,1.3,10.4,2.218,16.26l79.205-17.746c-1.313-4.984-2.92-10.366-4.83-15.555A14.129,14.129,0,0,0,146.919,10.7c-11.068-.387-31.085.928-55.4,11.534A14.2,14.2,0,0,0,83.113,36.934Z"/><path fill="#f97dae" d="M85.332,53.194c.961,6.148,2.106,12.4,3.4,17.568L169.03,56.338s-1.466-9.386-4.5-20.889C130.231,32.442,99.2,45.94,85.332,53.194Z"/><path fill="#ffc0af" d="M63.769,92.9c29.909-8.544,84.749-22.962,136.183-29.89,5.284-.711,5.3-8.366.012-9.074C167,49.518,111.011,49.4,59.929,84.707A4.584,4.584,0,0,0,63.769,92.9Z"/><path fill="#e08690" d="M136.812,124.772a24.88,24.88,0,0,1-8.335-1.376,3,3,0,0,1,2.152-5.6c.485.182,11,3.975,19.226-4.733a3,3,0,0,1,4.362,4.12A23.32,23.32,0,0,1,136.812,124.772Z"/><circle cx="126.836" cy="101.825" r="3.899" fill="#e08690"/><circle cx="146.873" cy="97.926" r="3.899" fill="#e08690"/><path fill="#3e3e54" d="M257.012,156.551c-51.474,22.079-53.091,84.2-53.091,84.2l11.5,1.69c3.972-52.19,44.887-77.217,44.887-77.217Z"/><path fill="#e770a2" d="M276.951,173.707A36.641,36.641,0,0,0,267.5,160.4H253.921a36.638,36.638,0,0,0-9.447,13.309c-4.531,10.649,2.158,23.156,12.321,23.156h7.835C274.793,196.863,281.481,184.356,276.951,173.707Z"/><path fill="#e770a2" d="M276.951,135.819a36.641,36.641,0,0,1-9.448,13.309H253.921a36.638,36.638,0,0,1-9.447-13.309c-4.531-10.649,2.158-23.156,12.321-23.156h7.835C274.793,112.663,281.481,125.17,276.951,135.819Z"/><path fill="#ff97bf" d="M241.768,171.11a36.638,36.638,0,0,0,13.309-9.447V148.081a36.626,36.626,0,0,0-13.309-9.447c-10.649-4.531-23.155,2.157-23.155,12.32v7.835C218.613,168.952,231.119,175.641,241.768,171.11Z"/><path fill="#ff97bf" d="M279.656,171.11a36.638,36.638,0,0,1-13.309-9.447V148.081a36.626,36.626,0,0,1,13.309-9.447c10.649-4.531,23.156,2.157,23.156,12.32v7.835C302.812,168.952,290.305,175.641,279.656,171.11Z"/><circle cx="260.712" cy="154.872" r="12.548" fill="#fff"/><path fill="#d3dd96" d="M165.088,237.811s7.827.637,13.436,8.817l9.011,9.774h42.534s11.711-4.545,20.553-22.389a41.928,41.928,0,0,0-13.646-1.47s4.183-10.69,13.789-16.732c0,0-24.17-.62-39.2,19.521,0,0-8.521-15.343-26.8-19.524l2.169,18.284A33.366,33.366,0,0,0,165.088,237.811Z"/><path fill="#8c9d78" d="M236.976,232.543s-8.238,14.089-27.537,14.089H178.518a29.686,29.686,0,0,1,4.232,9.771h49.113s13.479-4.648,20.451-23.86A33.853,33.853,0,0,0,236.976,232.543Z"/><path fill="#ebf6ff" d="M176.588,318.156a28.257,28.257,0,0,1-5.791-17.184V255.594a2.6,2.6,0,0,1,2.6-2.6h47.587L240.2,256.4C241.7,309,221.118,330.464,176.588,318.156Z"/><path fill="#b4cde0" d="M183.44,318.254c-2.159.079-4.44.05-6.848-.1a28.334,28.334,0,0,0,22.588,11.2h18.244a28.383,28.383,0,0,0,28.383-28.383V255.594a2.6,2.6,0,0,0-2.6-2.6H220.982v25.817C220.982,299.866,204.479,317.489,183.44,318.254Z"/><path fill="#ffcb8a" d="M264.205,288.628h-29.69v-3.19a10.084,10.084,0,0,0-9.2-10.177,9.861,9.861,0,0,0-10.517,9.839v4.033h0a19.721,19.721,0,0,0-19.721,19.722v.778a19.721,19.721,0,0,0,19.721,19.722h49.411a8.183,8.183,0,0,0,8.183-8.184V296.812A8.183,8.183,0,0,0,264.205,288.628Z"/><path fill="#3e3e54" d="M42.2,277.865l5.644,4.414q-1.412,1.627-2.818,3.349a3.5,3.5,0,0,0,.41,4.845l24.136,21.092.581,5.325A16.621,16.621,0,0,0,83.8,331.406l8.121,1.4a3.5,3.5,0,0,0,4.092-3.536L93.8,240.1c16.892-22,16.061-54.665,14.9-67.835a5.617,5.617,0,0,1,3.1-5.481,92.5,92.5,0,0,1,10.421-4.516c2.068,19.542.185,59.951.164,60.389a3.5,3.5,0,0,0,3.5,3.666H164.5a3.5,3.5,0,0,0,3.49-3.23c1.822-23.49-2.534-52.273-4.478-63.5a59.955,59.955,0,0,1,10.415,3.2,5.525,5.525,0,0,1,3.31,3.826c2.354,9.764,4.642,21.989,6.8,36.335a3.5,3.5,0,0,0,6.922-1.042c-1.639-10.887-3.355-20.586-5.121-28.954a66.994,66.994,0,0,1,16.6,16.919,3.5,3.5,0,0,0,5.779-3.949,73.961,73.961,0,0,0-19.085-19.23,44.653,44.653,0,0,0-5.575-3.268,12.535,12.535,0,0,0-7.02-7.134,61.554,61.554,0,0,0-14.677-4.058,79.47,79.47,0,0,1-2.874-14.282c8.245-6.712,11.191-17.057,12.236-23.524,3.184-1.327,8.709-4.51,10.777-11.138A16.575,16.575,0,0,0,181,91.136a14.467,14.467,0,0,0-7.728-7.331,23.858,23.858,0,0,0,3.609-13.7c7.862-1.352,15.744-2.58,23.54-3.63a8.079,8.079,0,0,0,.009-16.012,229.271,229.271,0,0,0-29.288-1.994c-.737-3.654-1.807-8.541-3.219-13.906l0-.011c-1.524-5.786-3.183-11.127-4.93-15.873A17.55,17.55,0,0,0,147.041,7.206C134.449,6.771,114.35,8.46,90.117,19.029a17.811,17.811,0,0,0-10.48,18.319c.7,5.833,1.448,11.347,2.236,16.387l0,.016c.764,4.885,1.553,9.244,2.351,13.011A180.594,180.594,0,0,0,57.939,81.828a8.1,8.1,0,0,0,4.483,14.766,8.4,8.4,0,0,0,2.308-.327c5.736-1.639,12.582-3.546,20.258-5.6A20.028,20.028,0,0,0,95.2,99.541a14.469,14.469,0,0,0-2.04,4.088c-1.941,6.149.215,13.108,5.492,17.731,3.018,2.644,7.274,2.926,10.139,2.741a36.651,36.651,0,0,0,13.669,15.817c-.206,3.723-.506,9.423-.743,15.1a99.933,99.933,0,0,0-13.124,5.539,12.744,12.744,0,0,0-5.485,5.42c-12.778,5.6-37.208,22.541-49.448,44.865a3.5,3.5,0,0,0,.9,4.433l3.264,2.569c-5.6,7.271-14.576,19.561-21.377,31.928A22.04,22.04,0,0,0,42.2,277.865Zm119.017-58.538h-31.69c.257-6.389.722-20.044.656-33.566a22.421,22.421,0,0,0,13.7,4.1c6.681,0,12.1-2.113,15.912-6.078A233.6,233.6,0,0,1,161.216,219.327ZM165.49,82.461A17.784,17.784,0,0,1,155.446,74.1q7.17-1.43,14.447-2.753A16.162,16.162,0,0,1,165.49,82.461ZM92.916,25.446C117.159,14.871,137.079,13.86,146.8,14.2a10.578,10.578,0,0,1,9.624,6.9c1.189,3.229,2.334,6.768,3.427,10.542-29.64-1.32-56.155,8.647-71.769,16.246q-.777-5.413-1.49-11.371A10.76,10.76,0,0,1,92.916,25.446Zm-3.726,29.7c14.979-7.54,42.275-18.37,72.579-16.4.922,3.668,1.667,7.025,2.243,9.8-21.606.584-47.275,4.4-73.237,15.313Q89.974,59.915,89.19,55.149ZM62.807,89.536a.961.961,0,0,1-1.265-.567,1,1,0,0,1,.377-1.382c36.33-25.111,75.048-32.228,107.273-32.228A228.778,228.778,0,0,1,199.5,57.405a.954.954,0,0,1,.922,1.06.969.969,0,0,1-.936,1.078C147.332,66.567,91.467,81.349,62.807,89.536Zm29.32-.755q6.23-1.628,13.02-3.328a15.8,15.8,0,0,1-1.219,8.459A13.124,13.124,0,0,1,92.127,88.781Zm22.233,30.383a3.506,3.506,0,0,0-4.083-2.3c-1.531.344-5.419.626-7.012-.769-3.187-2.792-4.533-6.858-3.428-10.358a7.184,7.184,0,0,1,5.5-4.933h0a9.166,9.166,0,0,0,5.991-6.022,27.4,27.4,0,0,0,.684-11.021c11.372-2.772,23.624-5.58,36.288-8.207,6.125,12.739,17.361,14.152,17.861,14.208a3.607,3.607,0,0,0,.389.021c.037,0,.073-.008.11-.009s.058.006.087,0c3.777-.216,6.39,1.246,7.981,4.463a9.5,9.5,0,0,1,.587,6.978c-1.518,4.865-6.605,6.759-7.832,7.15a3.5,3.5,0,0,0-2.907,3.046v0c-.975,8.367-4.874,22.818-20.029,25.6C122.155,141.121,114.665,120.053,114.36,119.164Zm24.589,25.38a38.021,38.021,0,0,0,6.855-.644,30.948,30.948,0,0,0,6.608-1.97,89.026,89.026,0,0,0,3.4,14.462c.209,1.084,1.332,7.06,2.52,15.556-.093.405-.2.811-.318,1.2-2.024,6.535-6.647,9.711-14.13,9.711-6.346,0-10.907-2.507-13.558-7.456q-.151-.282-.289-.567c-.013-.027-.031-.047-.044-.073a146.994,146.994,0,0,0-1.363-17.365c.2-5.039.457-10.294.672-14.328A31.627,31.627,0,0,0,138.949,144.544ZM84.986,324.508a9.591,9.591,0,0,1-7.875-8.376l-.729-6.684a3.5,3.5,0,0,0-1.177-2.255L52.62,287.455a153.9,153.9,0,0,1,21.628-20.6,168.567,168.567,0,0,1,13.593,15.307l1.068,43.019Zm2.574-53.659c-2.811-3.216-6.309-6.986-10.387-10.931l-1.908-2.468L86.9,244.137Zm14.284-96.475c.977,12.748,1.19,40.343-12.235,59.584l-28.332-22.3C71.382,195.01,89.422,180.957,101.844,174.374ZM42.586,253.149a258.612,258.612,0,0,1,20.743-30.971l19.823,15.6L68.1,255.011a3.5,3.5,0,0,0-.134,4.443l1.646,2.129a159.047,159.047,0,0,0-17.05,15.5l-6.051-4.733A15.065,15.065,0,0,1,42.586,253.149Z"/><path fill="#3e3e54" d="M222.911,172.573a21.336,21.336,0,0,0,11.752,3.472,21.814,21.814,0,0,0,5.621-.76,21.63,21.63,0,0,0,2.727,17.388,16.487,16.487,0,0,0,13.784,7.8h7.835a16.486,16.486,0,0,0,13.783-7.8,21.626,21.626,0,0,0,2.728-17.388,21.808,21.808,0,0,0,5.621.76,21.341,21.341,0,0,0,11.751-3.472,16.488,16.488,0,0,0,7.8-13.784v-7.835a16.487,16.487,0,0,0-7.8-13.783,21.674,21.674,0,0,0-20.227-1.758,41.826,41.826,0,0,0-9.5,5.61,15.9,15.9,0,0,0-16.142,0q-1.255-.987-2.6-1.88a36.554,36.554,0,0,1-2.341-4.587,14.6,14.6,0,0,1,1.155-13.625,9.613,9.613,0,0,1,7.945-4.66h7.835c5.146,0,9.524,4.736,10.183,11.015a3.5,3.5,0,1,0,6.962-.73c-1.035-9.854-8.4-17.285-17.145-17.285H256.8a16.488,16.488,0,0,0-13.784,7.8,21.624,21.624,0,0,0-2.732,17.368,21.624,21.624,0,0,0-17.368,2.732,16.486,16.486,0,0,0-7.8,13.783v7.835A16.487,16.487,0,0,0,222.911,172.573Zm49.663,16.239a9.613,9.613,0,0,1-7.944,4.659H256.8a9.613,9.613,0,0,1-7.945-4.66,14.6,14.6,0,0,1-1.156-13.624,36.7,36.7,0,0,1,2.334-4.581q1.353-.9,2.612-1.886a15.908,15.908,0,0,0,16.144,0q1.255.987,2.605,1.881a36.734,36.734,0,0,1,2.341,4.585A14.6,14.6,0,0,1,272.574,188.812Zm8.453-46.958a14.6,14.6,0,0,1,13.625,1.155,9.613,9.613,0,0,1,4.66,7.945v7.835a9.613,9.613,0,0,1-4.66,7.945,14.6,14.6,0,0,1-13.625,1.155,35.29,35.29,0,0,1-7.056-3.99,16,16,0,0,0,0-18.05A35.283,35.283,0,0,1,281.027,141.854Zm-11.266,13.018a9.049,9.049,0,1,1-9.049-9.049A9.059,9.059,0,0,1,269.761,154.872Zm-47.648-3.918a9.614,9.614,0,0,1,4.66-7.945,14.6,14.6,0,0,1,13.625-1.155,35.377,35.377,0,0,1,7.058,3.988,16,16,0,0,0,0,18.057,35.254,35.254,0,0,1-7.055,3.99,14.6,14.6,0,0,1-13.625-1.155,9.613,9.613,0,0,1-4.66-7.945Z"/><path fill="#3e3e54" d="M185.544,212.4a3.5,3.5,0,0,0-4.256,3.824l1.65,13.909a37.938,37.938,0,0,0-19.525,4.608,3.5,3.5,0,0,0,1.39,6.562c.079.007,6.767.654,11.405,8.2H170.8a3.5,3.5,0,0,0-3.5,3.5v47.975a31.919,31.919,0,0,0,31.883,31.884h65.025a11.7,11.7,0,0,0,11.683-11.684V296.812a11.7,11.7,0,0,0-11.683-11.684h-26.19V285.1a13.361,13.361,0,1,0-26.721,0v.8a23.258,23.258,0,0,0-19.721,22.958v.778a23.14,23.14,0,0,0,6.6,16.2A24.91,24.91,0,0,1,174.3,300.971V256.5h68.01v18.743a3.5,3.5,0,0,0,7,0V253a3.5,3.5,0,0,0-2.776-3.423,50.524,50.524,0,0,0,9.073-15.836,3.5,3.5,0,0,0-2.393-4.577,37.618,37.618,0,0,0-9.877-1,31.914,31.914,0,0,1,9.294-9.392,3.5,3.5,0,0,0-1.774-6.461c-1-.026-23.146-.373-39.034,17.2A46.9,46.9,0,0,0,185.544,212.4Zm13.029,96.459a16.239,16.239,0,0,1,16.221-16.222,3.5,3.5,0,0,0,3.5-3.5V285.1a6.361,6.361,0,1,1,12.721,0v3.528a3.5,3.5,0,0,0,3.5,3.5h29.69a4.689,4.689,0,0,1,4.683,4.684v24.359a4.689,4.689,0,0,1-4.683,4.684H214.794a16.239,16.239,0,0,1-16.221-16.222Zm12.76-70.031a3.479,3.479,0,0,0,3.039-1.4,45.377,45.377,0,0,1,25.7-16.642,43.1,43.1,0,0,0-6.358,10.485,3.5,3.5,0,0,0,4.14,4.662,28.311,28.311,0,0,1,9.546-.638,38.721,38.721,0,0,1-10.792,14.2h-52.52a26.35,26.35,0,0,0-9.428-11.6,28.7,28.7,0,0,1,11.463-.4,3.5,3.5,0,0,0,4.282-3.818l-1.539-12.973a41.449,41.449,0,0,1,19.639,16.324A3.5,3.5,0,0,0,211.333,238.824Z"/></svg>