<svg xmlns="http://www.w3.org/2000/svg" xmlns:xlink="http://www.w3.org/1999/xlink" viewBox="0 0 340 340" width="500px" height="500px"><defs><linearGradient id="XWpMDp3vayau-x9C6eEdmf" x1="17.335" x2="37.443" y1="143.709" y2="243.436" gradientUnits="userSpaceOnUse"><stop offset="0" stop-color="#c7c1ce"/><stop offset="1" stop-color="#a39da1"/></linearGradient><linearGradient id="XWpMDp3vayau-x9C6eEdmb" x1=".715" x2="65.826" y1="118.552" y2="277.91" gradientUnits="userSpaceOnUse"><stop offset="0" stop-color="#8f8191"/><stop offset="1" stop-color="#6b5d64"/></linearGradient><linearGradient id="XWpMDp3vayau-x9C6eEdma" x1="201.475" x2="232.311" y1="98.558" y2="133.429" gradientUnits="userSpaceOnUse"><stop offset="0" stop-color="#b3b6bd"/><stop offset="1" stop-color="#848685"/></linearGradient><linearGradient id="XWpMDp3vayau-x9C6eEdmg" x1="288.877" x2="318.448" y1="103.666" y2="127.5" xlink:href="#XWpMDp3vayau-x9C6eEdma"/><linearGradient id="XWpMDp3vayau-x9C6eEdmh" x1="79.062" x2="144.173" y1="86.541" y2="245.899" xlink:href="#XWpMDp3vayau-x9C6eEdmb"/><linearGradient id="XWpMDp3vayau-x9C6eEdmc" x1="259.873" x2="295.229" y1="183.501" y2="144.153" gradientUnits="userSpaceOnUse"><stop offset="0" stop-color="#f7d9cd"/><stop offset="1" stop-color="#f49289"/></linearGradient><linearGradient id="XWpMDp3vayau-x9C6eEdmd" x1="226.205" x2="114.081" y1="167.568" y2="204.808" gradientUnits="userSpaceOnUse"><stop offset="0" stop-color="#6c749f"/><stop offset="1" stop-color="#4b5379"/></linearGradient><linearGradient id="XWpMDp3vayau-x9C6eEdmi" x1="139.593" x2="139.593" y1="96.73" y2="130.724" xlink:href="#XWpMDp3vayau-x9C6eEdmc"/><linearGradient id="XWpMDp3vayau-x9C6eEdme" x1="82.893" x2="115.829" y1="108.939" y2="165.08" gradientUnits="userSpaceOnUse"><stop offset="0" stop-color="#a2b6e5"/><stop offset="1" stop-color="#7487b8"/></linearGradient><linearGradient id="XWpMDp3vayau-x9C6eEdmj" x1="84.904" x2="111.83" y1="109.277" y2="144.647" xlink:href="#XWpMDp3vayau-x9C6eEdmd"/><linearGradient id="XWpMDp3vayau-x9C6eEdmk" x1="85.032" x2="139.591" y1="68.396" y2="112.301" xlink:href="#XWpMDp3vayau-x9C6eEdmd"/><linearGradient id="XWpMDp3vayau-x9C6eEdml" x1="107.211" x2="147.118" y1="27.531" y2="79.303" xlink:href="#XWpMDp3vayau-x9C6eEdme"/><linearGradient id="XWpMDp3vayau-x9C6eEdmm" x1="82.839" x2="82.839" y1="142.26" y2="243.549" xlink:href="#XWpMDp3vayau-x9C6eEdme"/><linearGradient id="XWpMDp3vayau-x9C6eEdmn" x1="282.772" x2="296.719" y1="165.641" y2="165.641" xlink:href="#XWpMDp3vayau-x9C6eEdma"/><linearGradient id="XWpMDp3vayau-x9C6eEdmo" x1="74.04" x2="122.546" y1="171.504" y2="231.757" xlink:href="#XWpMDp3vayau-x9C6eEdmd"/><linearGradient id="XWpMDp3vayau-x9C6eEdmp" x1="85.998" x2="138.509" y1="61.062" y2="86.014" xlink:href="#XWpMDp3vayau-x9C6eEdmd"/><linearGradient id="XWpMDp3vayau-x9C6eEdmq" x1="202.976" x2="227.711" y1="162.55" y2="198.992" xlink:href="#XWpMDp3vayau-x9C6eEdma"/><linearGradient id="XWpMDp3vayau-x9C6eEdmr" x1="263.445" x2="340.172" y1="123.403" y2="147.754" xlink:href="#XWpMDp3vayau-x9C6eEdma"/><linearGradient id="XWpMDp3vayau-x9C6eEdms" x1="215.035" x2="239.771" y1="154.364" y2="190.806" xlink:href="#XWpMDp3vayau-x9C6eEdma"/><linearGradient id="XWpMDp3vayau-x9C6eEdmt" x1="156.216" x2="103.033" y1="123.696" y2="158.761" xlink:href="#XWpMDp3vayau-x9C6eEdma"/><linearGradient id="XWpMDp3vayau-x9C6eEdmu" x1="170.136" x2="245.236" y1="129.742" y2="156.881" xlink:href="#XWpMDp3vayau-x9C6eEdma"/><linearGradient id="XWpMDp3vayau-x9C6eEdmv" x1="73.919" x2="165.356" y1="164.884" y2="210.602" xlink:href="#XWpMDp3vayau-x9C6eEdme"/><linearGradient id="XWpMDp3vayau-x9C6eEdmw" x1="54.965" x2="120.076" y1="96.386" y2="255.744" xlink:href="#XWpMDp3vayau-x9C6eEdmb"/><linearGradient id="XWpMDp3vayau-x9C6eEdmx" x1="36.119" x2="73.397" y1="244.907" y2="292.76" xlink:href="#XWpMDp3vayau-x9C6eEdmf"/><linearGradient id="XWpMDp3vayau-x9C6eEdmy" x1="-1.981" x2="67.213" y1="111.291" y2="280.643" xlink:href="#XWpMDp3vayau-x9C6eEdmb"/><linearGradient id="XWpMDp3vayau-x9C6eEdmz" x1="-1.728" x2="63.383" y1="119.55" y2="278.908" xlink:href="#XWpMDp3vayau-x9C6eEdmb"/><linearGradient id="XWpMDp3vayau-x9C6eEdmA" x1="43.314" x2="90.76" y1="222.099" y2="283.007" xlink:href="#XWpMDp3vayau-x9C6eEdmf"/><linearGradient id="XWpMDp3vayau-x9C6eEdmB" x1="72.116" x2="109.744" y1="240.582" y2="297.25" xlink:href="#XWpMDp3vayau-x9C6eEdmf"/><linearGradient id="XWpMDp3vayau-x9C6eEdmC" x1="45.048" x2="95.449" y1="295.456" y2="326.739" xlink:href="#XWpMDp3vayau-x9C6eEdme"/><linearGradient id="XWpMDp3vayau-x9C6eEdmD" x1="31.197" x2="137.363" y1="287.126" y2="338.174" xlink:href="#XWpMDp3vayau-x9C6eEdmd"/><linearGradient id="XWpMDp3vayau-x9C6eEdmE" x1="27.188" x2="133.354" y1="295.464" y2="346.511" xlink:href="#XWpMDp3vayau-x9C6eEdmd"/><linearGradient id="XWpMDp3vayau-x9C6eEdmF" x1="35.479" x2="141.645" y1="278.22" y2="329.267" xlink:href="#XWpMDp3vayau-x9C6eEdmd"/><linearGradient id="XWpMDp3vayau-x9C6eEdmG" x1="33.024" x2="98.135" y1="105.351" y2="264.709" xlink:href="#XWpMDp3vayau-x9C6eEdmb"/><linearGradient id="XWpMDp3vayau-x9C6eEdmH" x1="86.137" x2="122.77" y1="233.068" y2="288.238" xlink:href="#XWpMDp3vayau-x9C6eEdmf"/><linearGradient id="XWpMDp3vayau-x9C6eEdmI" x1="36.712" x2="101.823" y1="103.844" y2="263.202" xlink:href="#XWpMDp3vayau-x9C6eEdmb"/><linearGradient id="XWpMDp3vayau-x9C6eEdmJ" x1="110.294" x2="82.641" y1="162.973" y2="196.288" xlink:href="#XWpMDp3vayau-x9C6eEdmd"/><linearGradient id="XWpMDp3vayau-x9C6eEdmK" x1="100.223" x2="94.983" y1="163.655" y2="181.782" gradientUnits="userSpaceOnUse"><stop offset="0" stop-color="#f7e69f"/><stop offset="1" stop-color="#f7b26f"/></linearGradient><linearGradient id="XWpMDp3vayau-x9C6eEdmL" x1="84.954" x2="91.284" y1="195.349" y2="184.396" gradientUnits="userSpaceOnUse"><stop offset="0" stop-color="#f4d28d"/><stop offset="1" stop-color="#f49e5d"/></linearGradient></defs><path fill="url(#XWpMDp3vayau-x9C6eEdmf)" d="M43.191,134.383l-1.076-.308A16.723,16.723,0,0,0,21.232,146.3c-4.8,20.317-11.7,56.82-11.4,97.75L28.907,248.4Z"/><path fill="url(#XWpMDp3vayau-x9C6eEdmb)" d="M43.191,134.383c-4.434,11.969-15.963,46.675-20.244,94.161,0,0-2.288,11.655-13.116,15.5q.048,6.416.341,12.961s.917,12.371,22.8,12.97l23.152-131.9Z"/><path fill="#34363a" d="M182.52,95.95h12.585l22.031,27.919H182.172a20.089,20.089,0,0,1,2.207-10.6,8.653,8.653,0,0,0,.2-8.1l-3.3-6.562A1.824,1.824,0,0,1,182.52,95.95Z"/><path fill="url(#XWpMDp3vayau-x9C6eEdma)" d="M195.5,95.95h11.708a7.476,7.476,0,0,1,5.957,2.959l3.487,4.6a10.8,10.8,0,0,0,6.059,3.972l7.2,1.751a3.643,3.643,0,0,1,2.783,3.541v4.669c-12.049,3.244-23.578,3.618-34.383,0a17.23,17.23,0,0,1,1.626-4.177,8.653,8.653,0,0,0,.2-8.1Z"/><path fill="#34363a" d="M198.313,117.443a20.807,20.807,0,0,0-.586,6.426h34.964v-6.426Z"/><path fill="#34363a" d="M285.377,106.8h-13.85a2.541,2.541,0,0,0-2.358,3.486l5.446,13.588h16.24Z"/><path fill="url(#XWpMDp3vayau-x9C6eEdmg)" d="M282.772,106.8h25.349a7.918,7.918,0,0,1,7.918,7.918v2.73c-10,1.978-19.472,2.178-28.226,0Z"/><polygon fill="#34363a" points="287.813 117.443 290.855 123.869 316.039 123.869 316.039 117.443 287.813 117.443"/><polygon fill="#34363a" points="129.247 304.035 40.149 304.035 40.149 273.501 77.745 268.522 129.247 273.501 129.247 304.035"/><path fill="url(#XWpMDp3vayau-x9C6eEdmh)" d="M152.852,229.833H131.833l5.917,51.721h15.1A8.555,8.555,0,0,0,161.407,273V238.388A8.555,8.555,0,0,0,152.852,229.833Z"/><path fill="url(#XWpMDp3vayau-x9C6eEdmc)" d="M263.834,158.233l25.911-9.554,2.4,19.762-29.92,10.953S262.191,166.447,263.834,158.233Z"/><path fill="#e7817c" d="M289.745,163.677l-14.569,6.306a5.732,5.732,0,0,1-7.147-2.239l-4.377-7.058-.294.16a90.637,90.637,0,0,0-.5,26.062l26.886-11.459Z"/><path fill="url(#XWpMDp3vayau-x9C6eEdmd)" d="M140.7,150.46l47.552,19.664,32.17,4.118,43.416-16.009,5.373,34.731s-25.643,15.667-51.5,22.718a36.333,36.333,0,0,1-18.6.089c-10.4-2.669-28.208-7.558-40.047-12.534l-46.794-29Z"/><path fill="#34363a" d="M113.576,13.687h18.176a6.277,6.277,0,0,1,6.277,6.277v17.13a0,0,0,0,1,0,0H103.9a0,0,0,0,1,0,0V23.364A9.677,9.677,0,0,1,113.576,13.687Z"/><path fill="url(#XWpMDp3vayau-x9C6eEdmi)" d="M161.312,99.418c-.536,10.5-3.551,23.038-14.35,26.583H117.873V83.743Z"/><path fill="#e7817c" d="M117.873,83.743v12.43a95.871,95.871,0,0,0,24.219,9.6,16.866,16.866,0,0,0,11.28-1.2,40.091,40.091,0,0,0,7.935-5.159,81.943,81.943,0,0,0-.752-15.675Z"/><path fill="#34363a" d="M126.71,94.88s3.222,27.944-8.837,32.708l-11.34-3.8A32,32,0,0,1,84.7,93.445V88.212l20.893-13.88Z"/><path fill="url(#XWpMDp3vayau-x9C6eEdme)" d="M84.194,109.657l17.727,6.729c3.254,5.884,2.2,12.1-.972,18.488-11.431-.929-20.364-6.532-27.066-16.307l2.563-5.7A6.115,6.115,0,0,1,84.194,109.657Z"/><path fill="url(#XWpMDp3vayau-x9C6eEdmj)" d="M123.706,124.656l-21.785-8.27-.518,7.78a4.492,4.492,0,0,1-6.3,3.808l-21.218-9.407L70.541,126l39.091,33.928Z"/><path fill="#34363a" d="M164.95,68.949V81.5a10.8,10.8,0,0,1-2.432,6.877,34.129,34.129,0,0,1-12.461,9.345,9.429,9.429,0,0,1-6.765.355c-4.878-1.587-14.013-5.228-20.2-11.754V74.783Z"/><path fill="url(#XWpMDp3vayau-x9C6eEdmk)" d="M105.542,96.665l.14,2.347a5.271,5.271,0,0,0,5.261,4.957h10.5a5.27,5.27,0,0,0,5.27-5.271V85.719l-13.685-4.154C107.3,84.255,105.673,89.917,105.542,96.665Z"/><path fill="url(#XWpMDp3vayau-x9C6eEdml)" d="M158.947,68.159,160.555,48.9c-5.855-10.555-17.718-21.751-40.536-21.751,0,0-17.912-.734-31.019,17.862C89,45.014,84.7,80.221,158.947,68.159Z"/><path fill="url(#XWpMDp3vayau-x9C6eEdmm)" d="M100.448,144.321A271.972,271.972,0,0,0,73.8,123.744c-5.457-3.709-13.021-1.048-16.081,4.8-9.175,17.531-26.451,61.484-19.8,135.23l91.328,4.75L125.4,213.188Z"/><path fill="#34363a" d="M105.542,96.665a13.445,13.445,0,0,1,3.095-7.063,10.729,10.729,0,0,1,7.631-3.5l10.442-.386V73.854l-22.47.926Z"/><path fill="#34363a" d="M316.039,123.869h12.109a2.024,2.024,0,0,1,2.024,2.024v7.856a2.024,2.024,0,0,1-2.024,2.024H314.133Z"/><path fill="url(#XWpMDp3vayau-x9C6eEdmn)" d="M294.4,184.861h-9.3a2.325,2.325,0,0,1-2.324-2.325V160.267l13.947-13.846v36.115A2.325,2.325,0,0,1,294.4,184.861Z"/><path fill="url(#XWpMDp3vayau-x9C6eEdmo)" d="M59.756,156.831s-10.594,33.789,27.335,62.29c0,0,9.615,7.126,8.489,18.939s33.667,31.485,33.667,31.485l6.893-.954,1.61-51.5L118.5,182.905,94.489,171.886Z"/><path fill="url(#XWpMDp3vayau-x9C6eEdmp)" d="M159.879,61.357c-12.482,6.16-24.428,6.674-42.006,4.516C97.4,63.36,90.805,50.1,89.006,45.019A60.526,60.526,0,0,0,82.132,58.03l-1.389-.715a2.108,2.108,0,0,0-2.771.775,51.893,51.893,0,0,0-7.037,22.859,11.946,11.946,0,0,0,4.9,9.687c3.309,2.177,5.445,3.311,13.294,5.361a6.9,6.9,0,0,0,7.19-2.456l8.093-10.461a10.455,10.455,0,0,1,8.683-4.045c10.044.391,32.031.479,46.1-5.181Z"/><polygon fill="#34363a" points="296.719 156.144 296.719 146.421 282.772 149.053 282.772 160.267 296.719 156.144"/><polygon fill="#34363a" points="232.691 149.053 297.828 149.053 297.828 137.289 229.84 135.773 232.691 149.053"/><path fill="url(#XWpMDp3vayau-x9C6eEdmq)" d="M203.3,181.881a78.319,78.319,0,0,0,8.406,21.356l23.276-9.921s-5.1-8.2-7.062-21.843C218.847,172.5,210.474,175.5,203.3,181.881Z"/><path fill="url(#XWpMDp3vayau-x9C6eEdmr)" d="M256.073,137.289h8.111a12.151,12.151,0,0,1,6.577,0h8.111a13.743,13.743,0,0,1,6.577,0h8.111a13.518,13.518,0,0,1,6.577,0h15.9v-13.42H294.115a11.931,11.931,0,0,1-6.577,0h-8.111a15.654,15.654,0,0,1-6.577,0h-8.111a12.879,12.879,0,0,1-6.577,0h-8.11Q249.568,130.579,256.073,137.289Z"/><path fill="#34363a" d="M228.428,196.109a63.65,63.65,0,0,1-6.864-17.894,4.565,4.565,0,0,1,2.692-5.191l3.666-1.549v0a73.6,73.6,0,0,1-.693-7.538l-25.8,8.014a85.4,85.4,0,0,0,1.87,9.933l10.686-4.517a73.565,73.565,0,0,0,7.959,21.508Z"/><polygon fill="url(#XWpMDp3vayau-x9C6eEdms)" points="227.23 155.551 227.23 163.934 213.118 168.318 212.065 155.635 227.23 155.551"/><path fill="#34363a" d="M201.431,171.948l11.687-3.63a51.594,51.594,0,0,1,.259-5.506,6.182,6.182,0,0,1,4.915-5.436l8.938-1.825v-6.5l-28.69-1.145Z"/><path fill="url(#XWpMDp3vayau-x9C6eEdmt)" d="M159.239,142.085l-2.221.245a12,12,0,0,0-6.775,3.059l-29.162,26.559-10.3-5.635V134.056a10.187,10.187,0,0,1,10.187-10.187h42.751C163.69,130.9,162.967,137.471,159.239,142.085Z"/><polygon fill="#34363a" points="245.46 123.869 232.691 123.869 229.477 137.289 252.66 137.289 245.46 123.869"/><path fill="#34363a" d="M172.212,140.658l-2.04-16.789h-6.456l-1.8,7.328H133.026a11.454,11.454,0,0,0-10.9,7.943,25.943,25.943,0,0,0-.394,3.924,3.445,3.445,0,0,0,.959,2.571l4.884,5.083a2.224,2.224,0,0,0,3.327-.158c6.015-7.317,15.885-13.629,25.023-13.629h4.583l-1.267,5.154Z"/><polygon fill="url(#XWpMDp3vayau-x9C6eEdmu)" points="170.172 123.869 170.172 158.233 232.691 149.053 232.691 123.869 170.172 123.869"/><rect width="24.955" height="34.224" x="293.782" y="145.17" fill="#34363a" rx="10.125"/><path fill="#34363a" d="M178.232,197.433l16.059-22.178,6.805-2.593a13.339,13.339,0,0,0,8.589-12.576h0a11.692,11.692,0,0,0-9.785-11.439l-12.669-2.094a15.848,15.848,0,0,0-14.155,4.805l-20.653,22.063C159.415,190.077,178.232,197.433,178.232,197.433Z"/><path fill="url(#XWpMDp3vayau-x9C6eEdmv)" d="M63.916,146.541a22.125,22.125,0,0,1,28.238-7.356,53.194,53.194,0,0,1,8.294,5.136C116.147,156,144.023,182,144.023,182l8.4-8.576s17.577,6.59,25.809,24.012a217.391,217.391,0,0,1-21.99,29.457,16.937,16.937,0,0,1-19.7,3.943c-18.809-8.827-56.2-27.765-68.064-43.925C57.076,171.376,57.124,156.742,63.916,146.541Z"/><path fill="url(#XWpMDp3vayau-x9C6eEdmw)" d="M104.872,250.3h33.955a7.106,7.106,0,0,1,7.106,7.106v17.039a7.106,7.106,0,0,1-7.106,7.106H104.872a0,0,0,0,1,0,0V250.3A0,0,0,0,1,104.872,250.3Z"/><polygon fill="#34363a" points="249.497 137.289 256.073 137.289 250.052 123.869 243.475 123.869 249.497 137.289"/><polygon fill="#34363a" points="264.184 137.289 270.761 137.289 264.739 123.869 258.162 123.869 264.184 137.289"/><polygon fill="#34363a" points="278.872 137.289 285.449 137.289 279.427 123.869 272.85 123.869 278.872 137.289"/><polygon fill="#34363a" points="293.56 137.289 300.137 137.289 294.115 123.869 287.538 123.869 293.56 137.289"/><path fill="url(#XWpMDp3vayau-x9C6eEdmx)" d="M30.451,255.314V269.1A12.45,12.45,0,0,0,42.9,281.554H65.749A12.451,12.451,0,0,0,78.2,269.1v-5.929A137.87,137.87,0,0,0,30.451,255.314Z"/><polygon fill="url(#XWpMDp3vayau-x9C6eEdmy)" points="30.451 258.455 78.2 265.867 78.2 239.746 30.451 239.746 30.451 258.455"/><path fill="url(#XWpMDp3vayau-x9C6eEdmz)" d="M44.963,248.4H62.176a0,0,0,0,1,0,0v11.937a5.276,5.276,0,0,1-5.276,5.276H50.239a5.276,5.276,0,0,1-5.276-5.276V248.4A0,0,0,0,1,44.963,248.4Z"/><path fill="url(#XWpMDp3vayau-x9C6eEdmA)" d="M40.19,250.973H68.461a9.739,9.739,0,0,0,9.739-9.739v-9.05a12.5,12.5,0,0,0-12.5-12.5H42.948a12.5,12.5,0,0,0-12.5,12.5v9.05A9.739,9.739,0,0,0,40.19,250.973Z"/><path fill="url(#XWpMDp3vayau-x9C6eEdmB)" d="M110.778,269.545v4.542a16.289,16.289,0,0,1-16.289,16.289h0A16.289,16.289,0,0,1,78.2,274.087V263.174C90.038,261.053,100.944,262.974,110.778,269.545Z"/><path fill="url(#XWpMDp3vayau-x9C6eEdmC)" d="M106.607,300.616H72.276c-6.5,1.556-12.126,2.136-15.3,0H38.193a7.742,7.742,0,0,0-7.742,7.742v7.062l6.441,8.022c33.728.121,67.643.294,73.886-7.285Z"/><path fill="url(#XWpMDp3vayau-x9C6eEdmD)" d="M141.5,308.358a7.742,7.742,0,0,0-7.742-7.742H116.43a24.928,24.928,0,0,1-7.651,1.227v2.222a13.9,13.9,0,0,1-13.9,13.9H36.432a17.975,17.975,0,0,1-5.981-2.543v3.151a7.742,7.742,0,0,0,7.742,7.742h18.78a20.828,20.828,0,0,1,15.3,0h28.851a17.47,17.47,0,0,1,15.3,0h17.323a7.742,7.742,0,0,0,7.742-7.742Z"/><rect width="15.303" height="25.696" x="56.973" y="300.616" fill="url(#XWpMDp3vayau-x9C6eEdmE)"/><rect width="15.303" height="25.696" x="101.127" y="300.616" fill="url(#XWpMDp3vayau-x9C6eEdmF)"/><rect width="21.466" height="16.901" x="294.573" y="131.779" fill="#34363a"/><path fill="#34363a" d="M155.762,51.015l3.763-2.31a5.215,5.215,0,0,1,7.421,2.186,42.613,42.613,0,0,1,3.845,12.057,6.788,6.788,0,0,1-3.769,7.065L159.2,73.855a44.528,44.528,0,0,1-6.661-15.612A7,7,0,0,1,155.762,51.015Z"/><polygon fill="url(#XWpMDp3vayau-x9C6eEdmG)" points="78.2 263.174 110.778 269.545 110.778 248.398 78.2 248.398 78.2 263.174"/><rect width="32.578" height="29.444" x="78.2" y="230.924" fill="url(#XWpMDp3vayau-x9C6eEdmH)" rx="10.879"/><circle cx="94.489" cy="245.253" r="3.658" fill="url(#XWpMDp3vayau-x9C6eEdmI)"/><path fill="url(#XWpMDp3vayau-x9C6eEdmJ)" d="M104.392,166.153l1.453,1.064a3.854,3.854,0,0,1,1.519,3.774l-2.292,13.089-13.688,4.461a4.538,4.538,0,0,1-4.555-1.047l-3.476-3.349a2.436,2.436,0,0,1-.129-3.374l1.543-1.731Z"/><path fill="url(#XWpMDp3vayau-x9C6eEdmK)" d="M90.332,172.5l7.054-8.285a2.755,2.755,0,0,1,3.711-.447l3.3,2.381a2.755,2.755,0,0,1,1.06,2.9l-3.281,13.238C97.147,180.976,93.394,177.365,90.332,172.5Z"/><path fill="url(#XWpMDp3vayau-x9C6eEdmL)" d="M90.332,172.5l-5.565,6.536a2.755,2.755,0,0,0,.468,4.007l3.183,2.333a2.749,2.749,0,0,0,2.444.41l11.309-3.5Z"/><path fill="#f7f7f7" d="M135.089,83.481c2.043-.137,5.191-.36,7.681-.592a1.641,1.641,0,0,1,1.7,2.178l-1.983,5.667a1.637,1.637,0,0,1-2.3.922c-1.921-1.007-4.975-2.955-6.445-5.759A1.648,1.648,0,0,1,135.089,83.481Z"/><path fill="#34363a" d="M30.11,273.325c-.1,0-.191,0-.288-.012-21.834-1.771-23.1-15.464-23.141-16.046-2.155-47.1,6.058-90.242,11.145-111.775A20.224,20.224,0,0,1,43.078,130.71l10.954,3.133a3.5,3.5,0,0,1-1.924,6.731L41.153,137.44A13.224,13.224,0,0,0,24.638,147.1c-5,21.159-13.067,63.522-10.976,109.627.113.761,1.617,8.381,16.727,9.607a3.5,3.5,0,0,1-.279,6.989Z"/><path fill="#34363a" d="M40.6,303.409a3.5,3.5,0,0,1-3.5-3.5V281.555a3.5,3.5,0,0,1,7,0v18.354A3.5,3.5,0,0,1,40.6,303.409Z"/><path fill="#34363a" d="M129.7,303.409a3.5,3.5,0,0,1-3.5-3.5v-17.7a3.5,3.5,0,0,1,7,0v17.7A3.5,3.5,0,0,1,129.7,303.409Z"/><path fill="#34363a" d="M152.852,285.055h-15.1a3.5,3.5,0,0,1,0-7h15.1A5.061,5.061,0,0,0,157.907,273V238.388a5.061,5.061,0,0,0-5.055-5.055,3.5,3.5,0,0,1,0-7,12.069,12.069,0,0,1,12.055,12.055V273A12.069,12.069,0,0,1,152.852,285.055Z"/><path fill="#34363a" d="M268.482,188.013a3.5,3.5,0,0,1-1.374-6.721l13.479-5.745a3.5,3.5,0,0,1,2.745,6.44l-13.479,5.745A3.487,3.487,0,0,1,268.482,188.013Z"/><path fill="#34363a" d="M263.835,161.734a3.5,3.5,0,0,1-1.212-6.784l18.126-6.683a3.5,3.5,0,0,1,2.422,6.567l-18.126,6.683A3.472,3.472,0,0,1,263.835,161.734Z"/><path fill="#34363a" d="M208.286,220.435a40.469,40.469,0,0,1-10.049-1.273c-7.02-1.8-17.422-4.618-27.114-7.79a3.5,3.5,0,1,1,2.178-6.653c9.513,3.114,19.758,5.886,26.677,7.662a32.891,32.891,0,0,0,16.806-.075c20.988-5.723,42.135-17.414,48.6-21.152L261.03,163l-30.9,11.393a3.5,3.5,0,1,1-2.422-6.568l34.915-12.873a3.5,3.5,0,0,1,4.67,2.748l5.373,34.731a3.5,3.5,0,0,1-1.634,3.522c-1.065.651-26.367,16.007-52.406,23.108A39.344,39.344,0,0,1,208.286,220.435Z"/><path fill="#34363a" d="M103.9,33.421a3.5,3.5,0,0,1-3.5-3.5V23.364a13.191,13.191,0,0,1,13.176-13.176h18.177a9.787,9.787,0,0,1,9.776,9.776v8.723a3.5,3.5,0,0,1-7,0V19.964a2.779,2.779,0,0,0-2.776-2.776H113.576a6.183,6.183,0,0,0-6.176,6.176v6.557A3.5,3.5,0,0,1,103.9,33.421Z"/><path fill="#34363a" d="M152.426,126.489a3.5,3.5,0,0,1-2.24-6.191c7.642-6.356,8.042-20.934,7.6-29.058a3.5,3.5,0,0,1,6.989-.38c.627,11.526-.62,26.923-10.114,34.82A3.484,3.484,0,0,1,152.426,126.489Z"/><path fill="#34363a" d="M123.163,126.3a3.5,3.5,0,0,1-3-5.3c4.138-6.913,3.618-20.912,3.069-25.723a3.5,3.5,0,0,1,6.954-.8c.093.8,2.192,19.747-4.017,30.119A3.5,3.5,0,0,1,123.163,126.3Z"/><path fill="#34363a" d="M120.964,127.37a3.493,3.493,0,0,1-1.261-.236L82.932,112.921a2.614,2.614,0,0,0-3.294,1.381l-4.466,9.933a3.5,3.5,0,1,1-6.385-2.87l4.467-9.933a9.625,9.625,0,0,1,12.182-5.047l36.79,14.219a3.5,3.5,0,0,1-1.262,6.766Z"/><path fill="#34363a" d="M146.218,102.039a12.94,12.94,0,0,1-4.009-.638,59.147,59.147,0,0,1-17.234-8.727,3.5,3.5,0,0,1,4.25-5.562,53.139,53.139,0,0,0,15.15,7.633,5.922,5.922,0,0,0,4.254-.222,30.655,30.655,0,0,0,11.189-8.377,7.312,7.312,0,0,0,1.632-4.65V71.779a3.5,3.5,0,0,1,7,0V81.5a14.328,14.328,0,0,1-3.231,9.1,37.694,37.694,0,0,1-13.733,10.315A12.905,12.905,0,0,1,146.218,102.039Z"/><path fill="#34363a" d="M121.44,107.469h-10.5a8.781,8.781,0,0,1-8.755-8.249l-.908-15.269a3.5,3.5,0,0,1,6.987-.416l.909,15.269a1.772,1.772,0,0,0,1.767,1.665h10.5a1.773,1.773,0,0,0,1.77-1.771V79.741a3.5,3.5,0,0,1,7,0V98.7A8.781,8.781,0,0,1,121.44,107.469Z"/><path fill="#34363a" d="M90.884,99.727a10.324,10.324,0,0,1-2.6-.335,56.69,56.69,0,0,1-16.494-6.877,12.732,12.732,0,0,1-5.844-10.533,61.409,61.409,0,0,1,3.578-22.194,9.729,9.729,0,0,1,10.67-6.2C93.519,23.5,118.14,23.59,120.078,23.652c24.556.02,36.905,12.248,42.94,22.508a3.5,3.5,0,1,1-6.033,3.549c-5.114-8.693-15.679-19.057-36.966-19.057-.048,0-.095,0-.143,0-.928-.034-23.18-.389-34.482,28.65A3.5,3.5,0,0,1,80.3,61.013l-.249-.153a2.721,2.721,0,0,0-3.972,1.371A54.379,54.379,0,0,0,72.942,81.89a5.745,5.745,0,0,0,2.648,4.748,49.682,49.682,0,0,0,14.458,5.981,3.364,3.364,0,0,0,3.5-1.22l8.093-10.461a13.961,13.961,0,0,1,11.555-5.4c8.889.349,31.033.565,44.7-4.929a3.5,3.5,0,0,1,2.612,6.5c-14.38,5.782-35.983,5.885-47.581,5.428a6.95,6.95,0,0,0-5.744,2.691L99.09,95.683A10.381,10.381,0,0,1,90.884,99.727Z"/><path fill="#34363a" d="M159.2,77.355a3.5,3.5,0,0,1-2.853-1.47A47.892,47.892,0,0,1,149.1,58.878a10.557,10.557,0,0,1,4.833-10.845l3.763-2.31a8.715,8.715,0,0,1,12.4,3.637,45.624,45.624,0,0,1,4.158,13.063,10.234,10.234,0,0,1-5.687,10.731L160.743,77A3.493,3.493,0,0,1,159.2,77.355Zm3.035-25.919a1.663,1.663,0,0,0-.881.252L157.593,54h0a3.515,3.515,0,0,0-1.612,3.609,38.86,38.86,0,0,0,4.511,11.714l4.987-2.45a3.3,3.3,0,0,0,1.852-3.4A39.458,39.458,0,0,0,163.8,52.421a1.728,1.728,0,0,0-1.562-.985Zm-6.475-.42h0Z"/><path fill="#34363a" d="M36.633,223.773c-.042,0-.084,0-.126,0a3.5,3.5,0,0,1-3.374-3.622c1.725-48.695,14.2-79.313,21.486-93.23A15.27,15.27,0,0,1,72.3,119.356a3.593,3.593,0,0,1,.5.187c.516.238,12.724,5.958,19.633,16.639a3.5,3.5,0,0,1-5.878,3.8c-5.3-8.2-14.817-13.16-16.452-13.97a8.248,8.248,0,0,0-9.279,4.152C53.813,143.556,41.8,173.085,40.128,220.4A3.5,3.5,0,0,1,36.633,223.773Z"/><path fill="#34363a" d="M136.738,253.035h-.112a3.5,3.5,0,0,1-3.388-3.608l.552-17.666a3.5,3.5,0,1,1,7,.219l-.552,17.666A3.5,3.5,0,0,1,136.738,253.035Z"/><path fill="#34363a" d="M274.187,126.3a3.5,3.5,0,0,1-3.25-2.2L264.523,108.1a3.5,3.5,0,0,1,3.248-4.8h17.606a3.5,3.5,0,0,1,0,7H272.945l4.49,11.2a3.5,3.5,0,0,1-3.248,4.8Z"/><path fill="#34363a" d="M330.172,139.273H316.624a3.5,3.5,0,0,1,0-7h10.048v-4.9H316.039a3.5,3.5,0,0,1,0-7h14.133a3.5,3.5,0,0,1,3.5,3.5v11.9A3.5,3.5,0,0,1,330.172,139.273Z"/><path fill="#34363a" d="M289.745,190.408a10.485,10.485,0,0,1-10.473-10.473V150.46a3.5,3.5,0,1,1,7,0v29.475a3.474,3.474,0,0,0,6.947,0v-2.674a3.5,3.5,0,0,1,7,0v2.674A10.486,10.486,0,0,1,289.745,190.408Z"/><path fill="#34363a" d="M295.4,152.553H232.691a3.5,3.5,0,0,1,0-7H295.4a3.5,3.5,0,0,1,0,7Z"/><path fill="#34363a" d="M290.855,127.369H232.691a3.5,3.5,0,0,1,0-7h58.164a3.5,3.5,0,0,1,0,7Z"/><path fill="#34363a" d="M316.039,140.789H233.516a3.5,3.5,0,1,1,0-7h79.023V123.313a3.5,3.5,0,1,1,7,0v13.976A3.5,3.5,0,0,1,316.039,140.789Z"/><path fill="#34363a" d="M182.126,126.489a3.5,3.5,0,0,1-3.5-3.426,23.217,23.217,0,0,1,2.692-11.5,5.157,5.157,0,0,0,.129-4.826l-4.632-9.216a3.5,3.5,0,0,1,3.128-5.071H195.5a3.5,3.5,0,0,1,0,7h-9.879l2.083,4.144a12.15,12.15,0,0,1-.267,11.372,16.423,16.423,0,0,0-1.811,7.949,3.5,3.5,0,0,1-3.425,3.573Z"/><path fill="#34363a" d="M211.706,206.737a3.5,3.5,0,0,1-3-1.694c-7.443-12.349-9.989-27.2-10.592-31.456a3.5,3.5,0,0,1,2.975-3.956,4.461,4.461,0,0,1,.509-.035,3.493,3.493,0,0,1,2.217-2.054l22.376-6.95a3.5,3.5,0,0,1,4.535,3.2c.681,16.856,7.164,27.575,7.23,27.681a3.506,3.506,0,0,1-1.6,5.062l-23.276,9.921A3.5,3.5,0,0,1,211.706,206.737Zm-6.389-32.383c.812,4.863,2.983,15.144,7.895,24.436l16.92-7.212a71.584,71.584,0,0,1-6.087-22.989l-18.153,5.638A3.367,3.367,0,0,1,205.317,174.354Z"/><path fill="#34363a" d="M227.23,167.435a3.5,3.5,0,0,1-3.5-3.5V149.968a3.5,3.5,0,0,1,7,0v13.967A3.5,3.5,0,0,1,227.23,167.435Z"/><path fill="#34363a" d="M110.778,155.242a3.5,3.5,0,0,1-3.5-3.5V134.056a13.7,13.7,0,0,1,13.687-13.687h49.207a3.5,3.5,0,0,1,0,7H120.965a6.7,6.7,0,0,0-6.687,6.687v17.686A3.5,3.5,0,0,1,110.778,155.242Z"/><path fill="#34363a" d="M127.705,169.416a3.5,3.5,0,0,1-2.357-6.088L147.887,142.8a15.411,15.411,0,0,1,8.748-3.95l12.519-1.377a3.5,3.5,0,0,1,.765,6.958L157.4,145.809a8.456,8.456,0,0,0-4.8,2.167L130.061,168.5A3.489,3.489,0,0,1,127.705,169.416Z"/><path fill="#34363a" d="M170.172,155.8a3.5,3.5,0,0,1-3.5-3.5V123.869a3.5,3.5,0,0,1,3.5-3.5h62.519a3.5,3.5,0,0,1,3.5,3.5v25.184a3.5,3.5,0,0,1-3.319,3.5l-27.125,1.408a3.5,3.5,0,0,1-.362-6.991l23.806-1.235V127.369H173.672V152.3A3.5,3.5,0,0,1,170.172,155.8Z"/><path fill="#34363a" d="M197.678,126.3a3.5,3.5,0,0,1-3.5-3.461,23.27,23.27,0,0,1,2.7-11.276,5.154,5.154,0,0,0,.129-4.826l-4.632-9.216A3.5,3.5,0,0,1,195.5,92.45h11.708a11.036,11.036,0,0,1,8.746,4.344l3.488,4.6a7.334,7.334,0,0,0,4.1,2.686l9.98,2.427a3.5,3.5,0,0,1,2.673,3.4v12.356a3.5,3.5,0,0,1-7,0v-9.605l-7.307-1.778a14.349,14.349,0,0,1-8.021-5.259l-3.487-4.6a4,4,0,0,0-3.168-1.573h-6.032l2.083,4.144a12.152,12.152,0,0,1-.267,11.373,16.464,16.464,0,0,0-1.813,7.8,3.5,3.5,0,0,1-3.461,3.538Z"/><path fill="#34363a" d="M308.613,182.894h-4.707a13.64,13.64,0,0,1-13.624-13.624V155.295a13.64,13.64,0,0,1,13.624-13.625h4.707a13.64,13.64,0,0,1,13.624,13.625V169.27A13.64,13.64,0,0,1,308.613,182.894Zm-4.707-34.224a6.632,6.632,0,0,0-6.624,6.625V169.27a6.632,6.632,0,0,0,6.624,6.624h4.707a6.632,6.632,0,0,0,6.624-6.624V155.295a6.632,6.632,0,0,0-6.624-6.625Z"/><path fill="#34363a" d="M316.039,127.369H290.855a3.5,3.5,0,0,1-3.163-2l-8.083-17.075a3.5,3.5,0,0,1,3.163-5h25.349a11.432,11.432,0,0,1,11.418,11.419v9.156A3.5,3.5,0,0,1,316.039,127.369Zm-22.968-7h19.468v-5.656a4.423,4.423,0,0,0-4.418-4.419H288.3Z"/><path fill="#34363a" d="M178.229,200.933a3.5,3.5,0,0,1-2.832-5.553L191.456,173.2a3.5,3.5,0,0,1,1.589-1.218l6.805-2.593a9.881,9.881,0,0,0,6.335-9.277,8.175,8.175,0,0,0-6.856-8.015l-12.669-2.094a12.324,12.324,0,0,0-11.028,3.744l-20.654,22.063a3.5,3.5,0,1,1-5.111-4.784l20.654-22.063A19.312,19.312,0,0,1,187.8,143.1l12.668,2.093a15.164,15.164,0,0,1,12.715,14.865,16.911,16.911,0,0,1-10.843,15.875l-5.829,2.221-15.446,21.331A3.494,3.494,0,0,1,178.229,200.933Z"/><path fill="#34363a" d="M143.738,235.948A20.4,20.4,0,0,1,135.053,234c-20.71-9.718-57.265-28.491-69.4-45.022C54.426,173.681,52.687,157.091,61,144.6a25.714,25.714,0,0,1,32.692-8.56,57,57,0,0,1,8.843,5.471c13.094,9.74,34.128,28.927,41.367,35.6l6.018-6.145a3.5,3.5,0,0,1,3.729-.828c.772.29,19.007,7.3,27.746,25.794a3.5,3.5,0,0,1-.173,3.311,218.52,218.52,0,0,1-22.4,30A20.4,20.4,0,0,1,143.738,235.948ZM82.21,140.374a18.408,18.408,0,0,0-15.381,8.106h0c-6.716,10.087-5.087,23.338,4.469,36.357,11.634,15.851,50.541,35.231,66.729,42.828a13.381,13.381,0,0,0,15.631-3.136,212.894,212.894,0,0,0,20.563-27.285c-6.086-11.409-16.6-17.486-21-19.635l-6.7,6.838a3.5,3.5,0,0,1-4.888.11c-.277-.259-27.914-26-43.276-37.428a49.954,49.954,0,0,0-7.746-4.8A19.064,19.064,0,0,0,82.21,140.374Zm-18.294,6.167h0Z"/><path fill="#34363a" d="M89.537,189.7a3.5,3.5,0,0,1-2.07-.678l-6.69-4.906a3.5,3.5,0,0,1-.6-5.091L96.37,160.013a3.5,3.5,0,0,1,4.715-.568l6.864,4.961a3.5,3.5,0,0,1,1.347,3.678l-3.728,15.044a3.5,3.5,0,0,1-2.361,2.5l-12.634,3.915A3.51,3.51,0,0,1,89.537,189.7Zm-1.586-9,2.234,1.638,9.063-2.809,2.685-10.832-2.328-1.683Z"/><path fill="#34363a" d="M138.828,285.055h-29.7a3.5,3.5,0,0,1,0-7h29.7a3.611,3.611,0,0,0,3.606-3.607V257.409a3.611,3.611,0,0,0-3.606-3.606h-27.27a3.5,3.5,0,1,1,0-7h27.27a10.618,10.618,0,0,1,10.606,10.606v17.039A10.618,10.618,0,0,1,138.828,285.055Z"/><path fill="#34363a" d="M65.749,285.055H42.9A15.97,15.97,0,0,1,26.951,269.1V239.746a3.5,3.5,0,0,1,7,0V269.1a8.962,8.962,0,0,0,8.951,8.952H65.749A8.962,8.962,0,0,0,74.7,269.1a3.5,3.5,0,0,1,7,0A15.97,15.97,0,0,1,65.749,285.055Z"/><path fill="#34363a" d="M56.9,269.115H50.239a8.786,8.786,0,0,1-8.775-8.776V251.3a3.5,3.5,0,0,1,7,0v9.043a1.778,1.778,0,0,0,1.775,1.776H56.9a1.778,1.778,0,0,0,1.775-1.776V251.5a3.5,3.5,0,0,1,7,0v8.838A8.786,8.786,0,0,1,56.9,269.115Z"/><path fill="#34363a" d="M68.461,254.473H40.19a13.254,13.254,0,0,1-13.239-13.24v-9.049a16.015,16.015,0,0,1,16-16H65.7a16.015,16.015,0,0,1,16,16v9.049A13.254,13.254,0,0,1,68.461,254.473ZM42.948,223.186a9.007,9.007,0,0,0-9,9v9.049a6.247,6.247,0,0,0,6.239,6.24H68.461a6.247,6.247,0,0,0,6.239-6.24v-9.049a9.008,9.008,0,0,0-9-9Z"/><path fill="#34363a" d="M94.489,292.785A19.812,19.812,0,0,1,74.7,273V248.4a3.5,3.5,0,0,1,7,0V273a12.789,12.789,0,1,0,25.578,0V248.4a3.5,3.5,0,0,1,7,0V273A19.812,19.812,0,0,1,94.489,292.785Z"/><path fill="#34363a" d="M99.9,262.777H89.079A14.4,14.4,0,0,1,74.7,248.4v-7.685a14.4,14.4,0,0,1,14.379-14.379H99.9a14.4,14.4,0,0,1,14.379,14.379V248.4A14.4,14.4,0,0,1,99.9,262.777Zm-10.82-29.444a7.388,7.388,0,0,0-7.379,7.379V248.4a7.388,7.388,0,0,0,7.379,7.38H99.9a7.389,7.389,0,0,0,7.379-7.38v-7.685a7.388,7.388,0,0,0-7.379-7.379Z"/><path fill="#34363a" d="M133.753,329.813H116.43a3.5,3.5,0,0,1,0-7h17.323A4.247,4.247,0,0,0,138,318.571V308.358a4.247,4.247,0,0,0-4.242-4.242H116.43a3.5,3.5,0,0,1,0-7h17.323A11.255,11.255,0,0,1,145,308.358v10.213A11.255,11.255,0,0,1,133.753,329.813Z"/><path fill="#34363a" d="M101.127,329.813H72.276a3.5,3.5,0,0,1,0-7h28.851a3.5,3.5,0,1,1,0,7Z"/><path fill="#34363a" d="M56.973,329.813H38.193a11.255,11.255,0,0,1-11.242-11.242V308.358a11.255,11.255,0,0,1,11.242-11.242h18.78a3.5,3.5,0,1,1,0,7H38.193a4.247,4.247,0,0,0-4.242,4.242v10.213a4.247,4.247,0,0,0,4.242,4.242h18.78a3.5,3.5,0,1,1,0,7Z"/><path fill="#34363a" d="M101.127,304.116H72.276a3.5,3.5,0,0,1,0-7h28.851a3.5,3.5,0,1,1,0,7Z"/><path fill="#34363a" d="M72.277,329.813h-15.3a3.5,3.5,0,0,1-3.5-3.5v-25.7a3.5,3.5,0,0,1,3.5-3.5h15.3a3.5,3.5,0,0,1,3.5,3.5v25.7A3.5,3.5,0,0,1,72.277,329.813Zm-11.8-7h8.3v-18.7h-8.3Z"/><path fill="#34363a" d="M116.43,329.813h-15.3a3.5,3.5,0,0,1-3.5-3.5v-25.7a3.5,3.5,0,0,1,3.5-3.5h15.3a3.5,3.5,0,0,1,3.5,3.5v25.7A3.5,3.5,0,0,1,116.43,329.813Zm-11.8-7h8.3v-18.7h-8.3Z"/><path fill="#34363a" d="M218.206,139.273h-1.627a3.5,3.5,0,0,1,0-7h1.627a3.5,3.5,0,0,1,0,7Z"/><path fill="#34363a" d="M202.515,139.273H186.067a3.5,3.5,0,0,1,0-7h16.448a3.5,3.5,0,0,1,0,7Z"/><path fill="#34363a" d="M90.873,66.7a3.478,3.478,0,0,1-1.778-.488l-8.744-5.168a3.5,3.5,0,1,1,3.562-6.026l8.744,5.168A3.5,3.5,0,0,1,90.873,66.7Z"/><path fill="#34363a" d="M27.877,139.982a3.5,3.5,0,0,1-3.426-4.233l7.607-35.522a3.5,3.5,0,0,1,6.845,1.466L31.3,137.215A3.5,3.5,0,0,1,27.877,139.982Z"/><path fill="#34363a" d="M163.589,164.438a3.475,3.475,0,0,1-1.486-.334l-19.569-9.194a3.5,3.5,0,0,1,2.977-6.336l19.569,9.195a3.5,3.5,0,0,1-1.491,6.669Z"/><path fill="#34363a" d="M250.3,139.708a3.5,3.5,0,0,1-3.195-2.068l-5.243-11.683a3.5,3.5,0,0,1,6.387-2.866l5.242,11.683a3.5,3.5,0,0,1-3.191,4.934Z"/><path fill="#34363a" d="M264.989,139.708a3.5,3.5,0,0,1-3.195-2.068l-5.243-11.683a3.5,3.5,0,0,1,6.387-2.866l5.242,11.683a3.5,3.5,0,0,1-3.191,4.934Z"/><path fill="#34363a" d="M279.676,139.708a3.5,3.5,0,0,1-3.195-2.068l-5.242-11.683a3.5,3.5,0,0,1,6.387-2.866l5.242,11.683a3.5,3.5,0,0,1-3.192,4.934Z"/></svg>