<svg xmlns="http://www.w3.org/2000/svg" xmlns:xlink="http://www.w3.org/1999/xlink" viewBox="0 0 340 340" width="500px" height="500px"><defs><linearGradient id="R3k-ofZOE0OHrWFneXjrka" x1="103.896" x2="131.461" y1="198.778" y2="232.345" gradientUnits="userSpaceOnUse"><stop offset="0" stop-color="#bcb5a2"/><stop offset="1" stop-color="#8a997a"/></linearGradient><linearGradient id="R3k-ofZOE0OHrWFneXjrkf" x1="233.469" x2="259.97" y1="107.12" y2="175.927" xlink:href="#R3k-ofZOE0OHrWFneXjrka"/><linearGradient id="R3k-ofZOE0OHrWFneXjrkc" x1="230.575" x2="225.004" y1="106.258" y2="243.483" gradientUnits="userSpaceOnUse"><stop offset="0" stop-color="#837c66"/><stop offset="1" stop-color="#5b5e49"/></linearGradient><linearGradient id="R3k-ofZOE0OHrWFneXjrkb" x1="50.735" x2="408.574" y1="215.887" y2="-54.646" gradientUnits="userSpaceOnUse"><stop offset="0" stop-color="#9a9da6"/><stop offset="1" stop-color="#6b6d6e"/></linearGradient><linearGradient id="R3k-ofZOE0OHrWFneXjrkg" x1="161.533" x2="135.548" y1="91.03" y2="159.588" xlink:href="#R3k-ofZOE0OHrWFneXjrkb"/><linearGradient id="R3k-ofZOE0OHrWFneXjrkh" x1="270.543" x2="264.972" y1="107.88" y2="245.106" xlink:href="#R3k-ofZOE0OHrWFneXjrkc"/><linearGradient id="R3k-ofZOE0OHrWFneXjrki" x1="252.941" x2="279.441" y1="99.621" y2="168.428" xlink:href="#R3k-ofZOE0OHrWFneXjrka"/><linearGradient id="R3k-ofZOE0OHrWFneXjrkj" x1="256.351" x2="250.78" y1="107.304" y2="244.529" xlink:href="#R3k-ofZOE0OHrWFneXjrkc"/><linearGradient id="R3k-ofZOE0OHrWFneXjrkk" x1="142.146" x2="168.374" y1="343.263" y2="303.92" xlink:href="#R3k-ofZOE0OHrWFneXjrkc"/><linearGradient id="R3k-ofZOE0OHrWFneXjrkl" x1="69.395" x2="161.407" y1="194.845" y2="303.521" xlink:href="#R3k-ofZOE0OHrWFneXjrka"/><linearGradient id="R3k-ofZOE0OHrWFneXjrkm" x1="152.157" x2="175.228" y1="259.615" y2="291.868" xlink:href="#R3k-ofZOE0OHrWFneXjrkc"/><linearGradient id="R3k-ofZOE0OHrWFneXjrkn" x1="161.372" x2="181.306" y1="258.701" y2="277.427" gradientUnits="userSpaceOnUse"><stop offset="0" stop-color="#ffe695"/><stop offset="1" stop-color="#ffb265"/></linearGradient><linearGradient id="R3k-ofZOE0OHrWFneXjrko" x1="171.271" x2="174.695" y1="118.169" y2="433.163" gradientUnits="userSpaceOnUse"><stop offset="0" stop-color="#ffbf80"/><stop offset="1" stop-color="#ff8842"/></linearGradient><linearGradient id="R3k-ofZOE0OHrWFneXjrke" x1="185.855" x2="193.138" y1="255.479" y2="328.969" gradientUnits="userSpaceOnUse"><stop offset="0" stop-color="#a8a2ad"/><stop offset="1" stop-color="#8c8589"/></linearGradient><linearGradient id="R3k-ofZOE0OHrWFneXjrkp" x1="178.142" x2="270.154" y1="102.772" y2="211.449" xlink:href="#R3k-ofZOE0OHrWFneXjrka"/><linearGradient id="R3k-ofZOE0OHrWFneXjrkq" x1="136.036" x2="228.048" y1="138.422" y2="247.098" xlink:href="#R3k-ofZOE0OHrWFneXjrka"/><linearGradient id="R3k-ofZOE0OHrWFneXjrkr" x1="164.907" x2="263.209" y1="141.035" y2="278.457" xlink:href="#R3k-ofZOE0OHrWFneXjrkc"/><linearGradient id="R3k-ofZOE0OHrWFneXjrks" x1="198.914" x2="288.294" y1="254.522" y2="333.64" gradientUnits="userSpaceOnUse"><stop offset="0" stop-color="#e9e2db"/><stop offset="1" stop-color="#cbc6cb"/></linearGradient><linearGradient id="R3k-ofZOE0OHrWFneXjrkt" x1="154.479" x2="220.726" y1="119.054" y2="211.665" xlink:href="#R3k-ofZOE0OHrWFneXjrkc"/><linearGradient id="R3k-ofZOE0OHrWFneXjrku" x1="105.039" x2="171.286" y1="154.421" y2="247.031" xlink:href="#R3k-ofZOE0OHrWFneXjrkc"/><linearGradient id="R3k-ofZOE0OHrWFneXjrkd" x1="172.962" x2="172.962" y1="147.906" y2="94.02" gradientUnits="userSpaceOnUse"><stop offset="0" stop-color="#ffcac0"/><stop offset="1" stop-color="#e5837c"/></linearGradient><linearGradient id="R3k-ofZOE0OHrWFneXjrkv" x1="133.239" x2="170.362" y1="109.05" y2="36.548" xlink:href="#R3k-ofZOE0OHrWFneXjrkd"/><linearGradient id="R3k-ofZOE0OHrWFneXjrkw" x1="135.734" x2="177.393" y1="11.174" y2="69.497" xlink:href="#R3k-ofZOE0OHrWFneXjrka"/><linearGradient id="R3k-ofZOE0OHrWFneXjrkx" x1="135.424" x2="174.547" y1="115.768" y2="177.714" xlink:href="#R3k-ofZOE0OHrWFneXjrka"/><linearGradient id="R3k-ofZOE0OHrWFneXjrky" x1="162.745" x2="201.868" y1="98.513" y2="160.459" xlink:href="#R3k-ofZOE0OHrWFneXjrka"/><linearGradient id="R3k-ofZOE0OHrWFneXjrkz" x1="212.757" x2="280.157" y1="291.79" y2="291.79" xlink:href="#R3k-ofZOE0OHrWFneXjrke"/><linearGradient id="R3k-ofZOE0OHrWFneXjrkA" x1="130.439" x2="197.362" y1="5.95" y2="91.8" xlink:href="#R3k-ofZOE0OHrWFneXjrkc"/><linearGradient id="R3k-ofZOE0OHrWFneXjrkB" x1="119.697" x2="161.356" y1="22.629" y2="80.952" xlink:href="#R3k-ofZOE0OHrWFneXjrka"/><linearGradient id="R3k-ofZOE0OHrWFneXjrkC" x1="144.157" x2="211.08" y1="-4.744" y2="81.107" xlink:href="#R3k-ofZOE0OHrWFneXjrkc"/><linearGradient id="R3k-ofZOE0OHrWFneXjrkD" x1="289.594" x2="292.196" y1="248.393" y2="274.653" gradientUnits="userSpaceOnUse"><stop offset="0" stop-color="#b5afbc"/><stop offset="1" stop-color="#999298"/></linearGradient><linearGradient id="R3k-ofZOE0OHrWFneXjrkE" x1="296.399" x2="296.399" y1="216.939" y2="294.468" xlink:href="#R3k-ofZOE0OHrWFneXjrkd"/><linearGradient id="R3k-ofZOE0OHrWFneXjrkF" x1="68.561" x2="121.149" y1="175.659" y2="249.175" xlink:href="#R3k-ofZOE0OHrWFneXjrkc"/><linearGradient id="R3k-ofZOE0OHrWFneXjrkG" x1="80.459" x2="80.459" y1="175.296" y2="245.906" xlink:href="#R3k-ofZOE0OHrWFneXjrkd"/></defs><path fill="url(#R3k-ofZOE0OHrWFneXjrka)" d="M137.137,188.608l-20.025,16.216-7.21-6.961a105.771,105.771,0,0,0-18.916,35.843l17.8,17.693,33.421-21.352Z"/><path fill="url(#R3k-ofZOE0OHrWFneXjrkf)" d="M261.314,138.768c-1.335-30.083-21.1-38.094-28.312-40.022a21.985,21.985,0,0,0-2.608-.56s-23.157,5.193-5.268,33.028,36.188,18.228,36.188,18.228Z"/><path fill="url(#R3k-ofZOE0OHrWFneXjrkc)" d="M268.73,211.477l-7.416-10.78V157.6l-10.923-15.09c-2.946-11.638-17.249-22.626-25.612-28.2a5.291,5.291,0,0,1-.405-8.49L233,98.747a22.533,22.533,0,0,0-2.608-.561h-42.12l28.328,158.4,39.92,2.863h0C270.117,239.334,268.73,211.477,268.73,211.477Z"/><path fill="#34363a" d="M19.036,178.769a2.4,2.4,0,0,1-.14-3.761l5.962-5.135a7.66,7.66,0,0,1,11.018,1.065L60,201.073c-5.635,5.6-11.173,10.914-15.4,12.226C44.6,213.3,32.849,188.84,19.036,178.769Z"/><path fill="url(#R3k-ofZOE0OHrWFneXjrkb)" d="M15.834,236.128,51.2,208.059A146.637,146.637,0,0,0,92.723,175.1l32.426-25.735c26.042-17.7,49.957-35.1,64.485-51.181l69.922-55.494a15.931,15.931,0,0,1,7.994,10.995L198.973,109.4C178.317,121.014,150.8,145.4,122.21,171.769l-21.782,17.7C86,197.624,71.877,209.615,57.945,223.981l-31.387,25.5a8.565,8.565,0,0,1-11.59-.728h0A8.563,8.563,0,0,1,15.834,236.128Z"/><path fill="#34363a" d="M259.555,42.692l8,10.995L278.123,45.1l35.164,21.515A8.069,8.069,0,0,0,323.52,65.1l3.294-3.692a2.334,2.334,0,0,0-.31-3.4L270.188,14.28a2.334,2.334,0,0,0-3.1.208l-2.21,2.25a8.069,8.069,0,0,0-1.037,10.01l5.234,8.165Z"/><path fill="#34363a" d="M57.945,223.981l22.716-18.456c-.5-2.157-.957-4-.957-4l-11.839-6.693L51.2,208.059Z"/><path fill="url(#R3k-ofZOE0OHrWFneXjrkg)" d="M122.21,171.769l33.226-27V125.329l-30.287,24.038C122.846,155.357,121.78,163.543,122.21,171.769Z"/><path fill="url(#R3k-ofZOE0OHrWFneXjrkh)" d="M247.965,170.719h39.17V192.26a11.191,11.191,0,0,1-11.191,11.191H258.837S248.125,187.868,247.965,170.719Z"/><path fill="url(#R3k-ofZOE0OHrWFneXjrki)" d="M267.316,177.09h15.493a11.2,11.2,0,0,0,11.2-11.2V155.408a22.3,22.3,0,0,0-22.3-22.3h-7.679C242.956,140.7,251.48,157.729,267.316,177.09Z"/><path fill="url(#R3k-ofZOE0OHrWFneXjrkj)" d="M257.866,149.254a10.293,10.293,0,0,1-.494-9.492,14.361,14.361,0,0,1,6.656-6.656h-6.8a16.24,16.24,0,0,0-16.044,13.565,32.6,32.6,0,0,0-.409,4.98l7.714,25.439h18.831C266.178,165.035,260.769,154.271,257.866,149.254Z"/><path fill="#34363a" d="M117.691,249.877s-8.784,11.9-6.669,35.557c0,0,6.027,6.738,28.634,4.135l6.015-12.038V241.966S126.476,237.189,117.691,249.877Z"/><path fill="#34363a" d="M139.164,231.5H125.105a13.151,13.151,0,0,0-11.78,7.314,67.094,67.094,0,0,1-11.608,16.618,6.546,6.546,0,0,0,1.813,10.359h0a6.548,6.548,0,0,0,7.786-1.4,67.234,67.234,0,0,0,9.493-13.257,9.007,9.007,0,0,1,7.947-4.669h9.107S140.791,238.165,139.164,231.5Z"/><path fill="url(#R3k-ofZOE0OHrWFneXjrkk)" d="M136.87,303.718A143.125,143.125,0,0,0,134.128,335h45.166l8.98-49.56S153.547,284.527,136.87,303.718Z"/><path fill="url(#R3k-ofZOE0OHrWFneXjrkl)" d="M142.205,278.377s-9.905,8.892-19.957,25.112c0,0,10.062,7.205,26.946,11.655a14.032,14.032,0,0,0,13.7-3.816l10-10.4,5.173-23.94Z"/><path fill="url(#R3k-ofZOE0OHrWFneXjrkm)" d="M172.9,300.924l8.782-9.134V274.246l-35.162,4.131,22.658,4.8a4.7,4.7,0,0,1,3.722,4.594Z"/><polygon fill="#34363a" points="160.521 257.487 142.205 257.487 142.205 278.377 162.879 278.377 160.521 257.487"/><polygon fill="url(#R3k-ofZOE0OHrWFneXjrkn)" points="160.521 257.487 160.521 272.043 178.072 276.984 175.132 257.487 160.521 257.487"/><path fill="url(#R3k-ofZOE0OHrWFneXjrko)" d="M174.272,267.094a5.434,5.434,0,0,1-5.412,4.949h-8.339v6.334h24.756v-20.89H175.132Z"/><polygon fill="url(#R3k-ofZOE0OHrWFneXjrke)" points="179.294 258.8 179.294 335.001 194.896 335.001 200.626 258.8 179.294 258.8"/><path fill="url(#R3k-ofZOE0OHrWFneXjrkp)" d="M228.061,185.486s8.82,30.973,48.168,52.181L292.787,217.1s-15.177-8.347-26.761-21.618a52.375,52.375,0,0,1-10.415-18.918c-3.785-12.138-13.735-37.959-31.776-45.962l-5.809,37.828Z"/><path fill="url(#R3k-ofZOE0OHrWFneXjrkq)" d="M135.28,214.114v22.55a19.261,19.261,0,0,0-2.308,9l6.684,8.56,90.238-.3-2.668-18.98c-3.67-10.783-5.579-20.8-1.931-28.417l2.766-21.045L223.835,130.6l-74.29,13.493S132.061,170.24,135.28,214.114Z"/><path fill="url(#R3k-ofZOE0OHrWFneXjrkr)" d="M224.3,214.114l.2-1.543-28.007-50.537s-14.064,60.092,30.732,72.914Z"/><polygon fill="url(#R3k-ofZOE0OHrWFneXjrks)" points="298.019 335.001 194.896 335.001 194.896 248.579 287.135 248.579 298.019 276.294 298.019 335.001"/><path fill="url(#R3k-ofZOE0OHrWFneXjrkt)" d="M178.657,158.359c10.824-5.591,23.651-3.261,23.651-3.261s2.514-10.714,4.566-21.419l-42.581,7.734-1.244,1.708L155.911,156.6,170.9,200.637a170.348,170.348,0,0,1,.359-31.4A13.791,13.791,0,0,1,178.657,158.359Z"/><path fill="url(#R3k-ofZOE0OHrWFneXjrku)" d="M191.161,248.579l-32.093-66.251-3.632-13.287-9.016-1.93-4.215,9.979A177.509,177.509,0,0,0,163.038,241.2a6,6,0,0,1-5.237,8.943h-15.6s-5.7-1.208-9.23-4.476c.092,4.2,2.086,8.907,9.23,11.824h44.131Z"/><path fill="#34363a" d="M140.62,146.266s-12.791,21.17-6.97,59.072a1.827,1.827,0,0,0,3.573.172c2.4-9.395,7.08-24.475,14.434-34.791l.62-24.453Z"/><path fill="#34363a" d="M144.521,146.266s-.464,51.048,33.42,106.879a9.226,9.226,0,0,1,1.353,4.78v.875a8,8,0,0,0,7.995,8h0a8,8,0,0,0,8-8l-.292-9.874a12.244,12.244,0,0,0-1.674-5.837c-6.122-10.424-28.1-50.507-31.172-93.488Z"/><path fill="url(#R3k-ofZOE0OHrWFneXjrkd)" d="M159.068,122.471v-4.745q16.951-9.007,33.653-9.13v.806l-.767,28.8-22.679,16.859-16.072-16.3Z"/><path fill="#d8726f" d="M159.068,117.726c6.5.269,24.353.08,33.653-9.13V75.333l-33.653,8.274Z"/><path fill="#34363a" d="M193.244,71.659s3.663,35.853-34.66,41.2a4.9,4.9,0,0,1-4.808-7.516l21.271-32.794Z"/><path fill="url(#R3k-ofZOE0OHrWFneXjrkv)" d="M148.469,113.528h0a28.393,28.393,0,0,1-28.392-28.392V66.615c26.066-12.249,43.345-1.924,56.784,18.265v.256A28.393,28.393,0,0,1,148.469,113.528Z"/><path fill="#d8726f" d="M120.077,66.615h23.976a12.566,12.566,0,0,1,8.068,2.931l10.714,8.969a25.006,25.006,0,0,0,14.026,6.365V53.687H120.077Z"/><path fill="url(#R3k-ofZOE0OHrWFneXjrkw)" d="M120.266,58.678a6.284,6.284,0,0,1-6.332-6.42C114.228,38.38,119.531,5,159.157,5c0,0,50.936-1.251,47.088,57.82a12.775,12.775,0,0,1-11.188,11.9l-13.7,1.653a18.091,18.091,0,0,1-13.43-3.8l-12.8-10.186a17.856,17.856,0,0,0-11.246-3.88Z"/><path fill="#34363a" d="M158.271,128.6s1.518,6.764,10.206,6.764,17.2-5.365,20.585-9.447l2.1,11.43-21.886,17.716S153.839,148.545,158.271,128.6Z"/><path fill="url(#R3k-ofZOE0OHrWFneXjrkx)" d="M159.068,122.471s-.757,24.164,10.207,32.593a75.181,75.181,0,0,0-29.921-4.98,2.81,2.81,0,0,1-2.736-3.829C139.065,139.912,145.333,127.935,159.068,122.471Z"/><path fill="#34363a" d="M212.841,117.674l7.768,3.979a6.966,6.966,0,0,1,3.221,8.958c-6.292,14.625-18.078,45.944,1.745,67.853a14.247,14.247,0,0,1,3.65,8.278l1.169,13.044a4.507,4.507,0,0,1-6.782,3.9c-14.342-8.452-44.323-35.263-17.658-103.421A4.966,4.966,0,0,1,212.841,117.674Z"/><path fill="url(#R3k-ofZOE0OHrWFneXjrky)" d="M192.721,109.4a42.355,42.355,0,0,1-9.351,24.049,135.726,135.726,0,0,0-14.095,21.613,44.8,44.8,0,0,1,30.3-7.271,3.075,3.075,0,0,0,3.442-2.394c1.1-5.248,2.86-16.955-.022-28.607a7.9,7.9,0,0,0-3.265-4.68A18.227,18.227,0,0,0,192.721,109.4Z"/><path fill="url(#R3k-ofZOE0OHrWFneXjrkz)" d="M256.885,291.8,244.13,281.626a15.932,15.932,0,0,0-21.344-18.8,1.627,1.627,0,0,0-.408,2.779l7.356,5.867a5.618,5.618,0,0,1,1.361,7.384,5.461,5.461,0,0,1-7.987,1.3l-7.539-6.014a1.626,1.626,0,0,0-2.618,1.016A15.931,15.931,0,0,0,236.03,291.78l12.755,10.175a15.932,15.932,0,0,0,21.344,18.8,1.626,1.626,0,0,0,.408-2.778l-7.356-5.867a5.618,5.618,0,0,1-1.361-7.384,5.46,5.46,0,0,1,7.987-1.3l7.539,6.013a1.626,1.626,0,0,0,2.618-1.015A15.931,15.931,0,0,0,256.885,291.8Z"/><circle cx="130.808" cy="77.626" r="3.658" fill="#af5454"/><circle cx="147.165" cy="77.626" r="3.658" fill="#af5454"/><circle cx="279.196" cy="160.254" r="3.658" fill="#34363a"/><path fill="url(#R3k-ofZOE0OHrWFneXjrkA)" d="M120.266,58.678l23.609-.176a17.856,17.856,0,0,1,11.246,3.88l12.8,10.186a18.092,18.092,0,0,0,13.431,3.8l13.7-1.653a12.694,12.694,0,0,0,11.175-11.7C209.64,12.2,172.6,5.874,161.966,5.1h0a51.71,51.71,0,0,1,9.241,7.286,16.889,16.889,0,0,1-6.84,28.1,105.52,105.52,0,0,1-12.413,3.121,1.271,1.271,0,0,0,.2,2.521s-23.345,5.65-38.187,6.849Z"/><path fill="url(#R3k-ofZOE0OHrWFneXjrkB)" d="M108.422,50.606a6.2,6.2,0,0,1,6.2-6.2h55.262c.163,5.493-2.911,10.5-8.491,15.138H114.623a6.2,6.2,0,0,1-6.2-6.2Z"/><path fill="url(#R3k-ofZOE0OHrWFneXjrkC)" d="M214.054,43.688A7.988,7.988,0,0,0,203,38.677c-10.4,4.778-24.883,5.584-30.625,5.71,0,0,.757,12.4-10.982,15.156h8.491c19.266,0,32.238-3.509,39.38-6.216a7.952,7.952,0,0,0,4.789-9.639Z"/><path fill="url(#R3k-ofZOE0OHrWFneXjrkD)" d="M298.019,255.592l-15.22-5.571s-3.328,20.771,15.22,26.273Z"/><path fill="url(#R3k-ofZOE0OHrWFneXjrkE)" d="M276.229,237.667S277.9,224.2,292.787,217.1c0,0,15.417,8.406,21.939,22.321a19.72,19.72,0,0,1-5.34,23.522l-.2.162c-10.4,8.615-26.431,1.391-26.411-12.117q0-.476.019-.963a14,14,0,0,0-5.484-11.575C276.972,238.184,276.611,237.923,276.229,237.667Z"/><polygon fill="url(#R3k-ofZOE0OHrWFneXjrkF)" points="68.972 211.82 90.986 233.706 109.902 197.863 92.971 181.519 68.972 211.82"/><path fill="url(#R3k-ofZOE0OHrWFneXjrkG)" d="M63.55,182.97l11.584-9.181a14.19,14.19,0,0,1,18.944,1.182l4.614,4.7a14.191,14.191,0,0,1-.321,20.2L87.14,210.609a14.2,14.2,0,0,1-20.167-.55,60.287,60.287,0,0,1-6.507-8.222A14.185,14.185,0,0,1,63.55,182.97Z"/></svg>