<svg xmlns="http://www.w3.org/2000/svg"  viewBox="0 0 340 340" width="500px" height="500px"><path fill="#ffcac0" d="M45.138,282.972,39.292,316.1s-3.619,11.7,7.516,15.313H65.223L77.984,285.2Z"/><path fill="#ef837c" d="M43.067,294.705l10.47,2.3a8.652,8.652,0,0,1,6.773,7.816l.583,7.937,8.349,4.1L77.984,285.2l-32.846-2.227Z"/><path fill="#f5eef7" d="M65.223,135.161S47.849,202.987,42.372,245.754a18.542,18.542,0,0,1-5.411,11c-3.631,3.514-7.82,9.5-5.937,17.4a17.452,17.452,0,0,0,1.426,3.878c7.746,4.308,18.309,6.824,30.823,8.1C88.661,227.191,94.74,174.976,65.223,135.161Z"/><path fill="#b1a7c6" d="M87.321,264.386s4.515-55.1-8.255-98.709l-10.88-3.492S86.329,235,59.327,266.958c-9.906,11.724-19.142,13.5-26.869,11.069a18.711,18.711,0,0,0,15.35,10l29.9,2.126Z"/><path fill="#f5eef7" d="M188.45,132.566s10.388,4.884,12.466,27.046a234.55,234.55,0,0,0,5.845,33.5c-.779,3.567-.344,6.491,2.234,8.281a15.282,15.282,0,0,1,13.851,2.77s10.62-5.541,25.856-2.309c.327,23.212-5.322,42.62-29.016,50.547-29.641-2.841-48.643-16.89-48.595-51.007l10.776-66.236Z"/><path fill="#b1a7c6" d="M199.4,216.456c.954-11.533,9.6-15.06,9.6-15.06s-.955-3.126-2.234-8.281a14.982,14.982,0,0,0-9.532,8.281c-2.655,5.418-1.826,11.164-.453,15.379A1.344,1.344,0,0,0,199.4,216.456Z"/><path fill="#b1a7c6" d="M261.86,236.485,254,215.809l-13.237,1.718c-1.562,26.615-19.98,29.058-32.724,27.49A26.19,26.19,0,0,1,187.873,230.8c-15.2-30.262-2.163-78.542-2.163-78.542s-9.939,1.142-23.053,3.908v70.768c9.379,33.68,60.158,31.9,60.158,31.9C253.038,261.682,261.86,236.485,261.86,236.485Z"/><path fill="#ef837c" d="M54.207,309.238a3.5,3.5,0,1,0,1.715,6.786,11.565,11.565,0,0,1,12.1,5.265l2.2-7.983A18.484,18.484,0,0,0,54.207,309.238Z"/><path fill="#d07a76" d="M260.079,271.937V331.41h18.529V262.771C272.319,262.773,266.119,265.212,260.079,271.937Z"/><rect width="18.53" height="84.476" x="260.079" y="141.705" fill="#d07a76"/><path fill="#ffcac0" d="M145.56,99.679H105.374c-19.76,24.25-6.332,65.774-6.332,65.774h52.849S165.319,123.929,145.56,99.679Z"/><path fill="#ef837c" d="M145.56,99.679H105.374a43.137,43.137,0,0,0-6.485,11.063,45.9,45.9,0,0,0,15.567,14.673,4.3,4.3,0,0,0,5.715-1.522l2.854-4.62s18.464,17.122,31.269-1.639A46.093,46.093,0,0,0,145.56,99.679Z"/><path fill="#f5eef7" d="M154.99,117.184s-11.445,27.178-29.523,39.528c-18.079-12.35-29.524-39.528-29.524-39.528-2.695,44.9,18.861,115.2,18.861,115.2h21.325S157.685,162.084,154.99,117.184Z"/><path fill="#7f4242" d="M98.114,188.635a3.5,3.5,0,0,0,4.79,1.247c4.3-2.52,13.527-7.826,22.938-13.208,6.647,3.853,13.966,8.14,21.237,12.485a3.5,3.5,0,0,0,3.591-6.008c-6.038-3.609-12.107-7.176-17.8-10.49,7.369-4.205,14.093-8.024,17.72-10.062a3.5,3.5,0,0,0-3.43-6.1c-4.208,2.365-12.576,7.122-21.3,12.1-13.118-7.574-22.868-13.035-23.021-13.12a3.5,3.5,0,0,0-3.419,6.109c.138.077,8.155,4.567,19.4,11.035-8.145,4.664-15.7,9.011-19.465,11.221A3.5,3.5,0,0,0,98.114,188.635Z"/><path fill="#7f4242" d="M148.874,199.511H101.133a3.5,3.5,0,0,0,0,7h47.741a3.5,3.5,0,0,0,0-7Z"/><path fill="#d07a76" d="M104.673,117.876c.847,25.813,2.924,71.671,7.547,101.1-14.026,5.312-25.322,3.788-33.032-6.72C77.894,196.7,68.6,160.853,60.521,137.712a12.173,12.173,0,0,1,3.5-13.208c6.84-5.95,18.594-15.33,31.684-22.094C99.879,106,102.526,111.609,104.673,117.876Z"/><path fill="#d07a76" d="M146.042,125.045c-.978,26.5-3.076,67.063-7.3,93.933,0,0,8.481,5.629,18.723,3.7s14.49-12.26,14.49-12.26c1.812-16.4,10.714-50.436,18.486-72.706a12.171,12.171,0,0,0-3.495-13.208,181.005,181.005,0,0,0-25.1-18.423Q151.888,110.535,146.042,125.045Z"/><path fill="#7f4242" d="M104.157,98.525c-2.856,1.14-5.683,2.462-8.453,3.893.559,7.711,8.969,15.458,8.969,15.458C104.288,106.125,104.157,98.525,104.157,98.525Z"/><path fill="#7f4242" d="M146.809,98.525s-.186,10.784-.767,26.521h0a32.321,32.321,0,0,0,15.805-18.962A106.967,106.967,0,0,0,146.809,98.525Z"/><path fill="#ef837c" d="M102,65.275H107.5a0,0,0,0,1,0,0V88.112a0,0,0,0,1,0,0H102A11.418,11.418,0,0,1,90.586,76.693v0A11.418,11.418,0,0,1,102,65.275Z"/><path fill="#ef837c" d="M154.854,65.275h5.494a0,0,0,0,1,0,0V88.112a0,0,0,0,1,0,0h-5.494a11.418,11.418,0,0,1-11.418-11.418v0A11.418,11.418,0,0,1,154.854,65.275Z" transform="rotate(180 151.892 76.694)"/><path fill="#ef6655" d="M111.86,13.9s-19.53.331-25.489,20.082,7.614,35.309,21.737,34.426h33.875s22.4-3.641,21.958-25.158S146.286,8.59,130.728,8.6C130.728,8.6,118.591,8.053,111.86,13.9Z"/><path fill="#ffcac0" d="M108.814,36.809S109.8,51.2,129,53.6c0,0,3.528-4.657,1.693-13.548,0,0,2.066,6.2,10.466,9.229a8.573,8.573,0,0,1,5.621,8.252L143.9,89.307H106.8l-2.639-41.632S104.157,40.619,108.814,36.809Z"/><path fill="#ef6655" d="M148.66,101.128s4.057-21.277-23.176-21.213c0,0-21.327-1.558-24.069,13.028,0,0-3.405,16.311,13.447,24.241l5.105-9.371s4.265,3.328,8.991,6.529a10.626,10.626,0,0,0,13.118-.857C144.744,111.029,147.373,107.168,148.66,101.128Z"/><path fill="#b1a7c6" d="M114.8,232.381h21.325s1.561-5.092,3.789-13.4h-28.9C113.243,227.289,114.8,232.381,114.8,232.381Z"/><path fill="#d07a76" d="M80.932,264.386A170.384,170.384,0,0,0,65.223,331.41h92.21l13.658-67.024C154.717,259.685,113.489,258.922,80.932,264.386Z"/><path fill="#7f4242" d="M80.932,264.386l42.691,8.141a10.367,10.367,0,0,1,8.389,11.047l-2.781,33.28a24.311,24.311,0,0,0,2.618,14.556h25.584l13.658-67.024C154.717,259.685,113.489,258.922,80.932,264.386Z"/><circle cx="118.144" cy="66.326" r="3.559" fill="#ef837c"/><circle cx="132.79" cy="66.326" r="3.559" fill="#ef837c"/><path fill="#7f4242" d="M260.079,271.937l18.529-9.166V222.489a20.7,20.7,0,0,0-2.435-.889c-4.592-1.327-10.927-.89-16.094-.127Z"/><path fill="#ef837c" d="M254.548,195.811h-6.285a7.5,7.5,0,0,0-7.5,7.5v14.219a7.5,7.5,0,0,0,7.5,7.5H263.69Z"/><path fill="#ffcac0" d="M279.649,242.145h-16.4a8.7,8.7,0,0,1-8.7-8.705V230.3a11.227,11.227,0,0,0,0-7V213.229q1.361-2.123,0-7V195.811h25.1a8.705,8.705,0,0,1,8.7,8.706V233.44A8.7,8.7,0,0,1,279.649,242.145Z"/><path fill="#ef837c" d="M273.878,206.229h-19.33v7h19.33a3.5,3.5,0,0,0,0-7Z"/><path fill="#ef837c" d="M273.878,223.3h-19.33v7h19.33a3.5,3.5,0,0,0,0-7Z"/><path fill="#7f4242" d="M171.959,210.418s-6.1,8.56-21.479,8.56H138.745c-.786,5-1.645,9.53-2.584,13.4h26.72s8.308-2.245,8.758-17.738c.035-1.224.147-2.648.321-4.224Z"/><path fill="#7f4242" d="M79.183,212.26c.071.852.123,1.658.144,2.383.449,15.493,8.757,17.738,8.757,17.738H114.8c-.938-3.87-1.794-8.407-2.579-13.4H94.585A29.719,29.719,0,0,1,79.183,212.26Z"/><rect width="18.53" height="20.754" x="260.079" y="120.951" fill="#7f4242"/><path fill="#dce2f9" d="M291.1,11.41a61.024,61.024,0,0,1,4.049,22.283V99.162a9.517,9.517,0,0,1-9.517,9.517h0a9.517,9.517,0,0,1-9.517-9.517V33.351s0-20.542-18.339-21.941a61.024,61.024,0,0,1,4.049,22.283V99.162a9.517,9.517,0,0,1-9.516,9.517h0a9.517,9.517,0,0,1-9.517-9.517V33.351s0-20.542-18.339-21.941a61.024,61.024,0,0,1,4.049,22.283v69.6a21.514,21.514,0,0,0,21.514,21.514h37.909a21.514,21.514,0,0,0,21.514-21.514V33.351S309.443,12.809,291.1,11.41Z"/><path fill="#ffb655" d="M80.932,264.386h90.159V240.177a8.4,8.4,0,0,0-7.832-8.373,514.626,514.626,0,0,0-74.6-.1,8.386,8.386,0,0,0-7.723,8.367Z"/><path fill="#ffb655" d="M156.282,248.9l9.8,82.506h29.825s-8.651-50.632-24.816-82.506Z"/><path fill="#f27b31" d="M156.282,248.9c5.252,21.485,13.76,55,14.809,82.506H157.433a13.587,13.587,0,0,1-13.584-13.887l1.515-68.619Z"/><path fill="#f27b31" d="M80.932,252.4h89.105a3.5,3.5,0,0,0,3.5-3.5h0a3.5,3.5,0,0,0-3.5-3.5h-89.1Z"/></svg>