<svg xmlns="http://www.w3.org/2000/svg" xmlns:xlink="http://www.w3.org/1999/xlink" viewBox="0 0 340 340" width="500px" height="500px"><defs><linearGradient id="lT9Eh4XQYMRRNItuVDcF0a" x1="3.923" x2="159.162" y1="70.525" y2="282.718" gradientUnits="userSpaceOnUse"><stop offset="0" stop-color="#b3b6bd"/><stop offset="1" stop-color="#848685"/></linearGradient><linearGradient id="lT9Eh4XQYMRRNItuVDcF0b" x1="127.876" x2="153.722" y1="190.254" y2="241.946" gradientUnits="userSpaceOnUse"><stop offset="0" stop-color="#d5c699"/><stop offset="1" stop-color="#a39668"/></linearGradient><linearGradient id="lT9Eh4XQYMRRNItuVDcF0c" x1="154.976" x2="242.476" y1="266.827" y2="336.161" gradientUnits="userSpaceOnUse"><stop offset="0" stop-color="#a05846"/><stop offset="1" stop-color="#874a38"/></linearGradient><linearGradient id="lT9Eh4XQYMRRNItuVDcF0g" x1="46.112" x2="176.671" y1="41.376" y2="219.835" xlink:href="#lT9Eh4XQYMRRNItuVDcF0a"/><linearGradient id="lT9Eh4XQYMRRNItuVDcF0h" x1="216.427" x2="233.75" y1="279.094" y2="343.227" xlink:href="#lT9Eh4XQYMRRNItuVDcF0b"/><linearGradient id="lT9Eh4XQYMRRNItuVDcF0i" x1="173.868" x2="186.4" y1="163.128" y2="230.946" xlink:href="#lT9Eh4XQYMRRNItuVDcF0b"/><linearGradient id="lT9Eh4XQYMRRNItuVDcF0j" x1="246.42" x2="258.583" y1="134.64" y2="264.379" xlink:href="#lT9Eh4XQYMRRNItuVDcF0b"/><linearGradient id="lT9Eh4XQYMRRNItuVDcF0e" x1="177.982" x2="224.245" y1="108.371" y2="145.211" gradientUnits="userSpaceOnUse"><stop offset="0" stop-color="#de917f"/><stop offset="1" stop-color="#c47664"/></linearGradient><linearGradient id="lT9Eh4XQYMRRNItuVDcF0k" x1="206.342" x2="252.256" y1="111.213" y2="131.384" xlink:href="#lT9Eh4XQYMRRNItuVDcF0c"/><linearGradient id="lT9Eh4XQYMRRNItuVDcF0d" x1="259.614" x2="279.485" y1="-2.054" y2="87.12" gradientUnits="userSpaceOnUse"><stop offset="0" stop-color="#f7f5a2"/><stop offset="1" stop-color="#f7c172"/></linearGradient><linearGradient id="lT9Eh4XQYMRRNItuVDcF0f" x1="190.524" x2="244.494" y1="58.968" y2="132.301" gradientUnits="userSpaceOnUse"><stop offset="0" stop-color="#f7d9cd"/><stop offset="1" stop-color="#f49289"/></linearGradient><linearGradient id="lT9Eh4XQYMRRNItuVDcF0l" x1="195.245" x2="215.084" y1="12.299" y2="101.331" xlink:href="#lT9Eh4XQYMRRNItuVDcF0d"/><linearGradient id="lT9Eh4XQYMRRNItuVDcF0m" x1="229.855" x2="247.807" y1="246.368" y2="294.177" xlink:href="#lT9Eh4XQYMRRNItuVDcF0e"/><linearGradient id="lT9Eh4XQYMRRNItuVDcF0n" x1="173.931" x2="191.47" y1="258.839" y2="305.548" xlink:href="#lT9Eh4XQYMRRNItuVDcF0e"/><linearGradient id="lT9Eh4XQYMRRNItuVDcF0o" x1="90.983" x2="151.294" y1="112.706" y2="177.747" xlink:href="#lT9Eh4XQYMRRNItuVDcF0a"/><linearGradient id="lT9Eh4XQYMRRNItuVDcF0p" x1="94.39" x2="81.113" y1="162.115" y2="198.013" xlink:href="#lT9Eh4XQYMRRNItuVDcF0f"/><linearGradient id="lT9Eh4XQYMRRNItuVDcF0q" x1="191.034" x2="278.534" y1="221.321" y2="290.654" xlink:href="#lT9Eh4XQYMRRNItuVDcF0c"/><linearGradient id="lT9Eh4XQYMRRNItuVDcF0r" x1="231.831" x2="258.862" y1="215.299" y2="287.284" xlink:href="#lT9Eh4XQYMRRNItuVDcF0e"/><linearGradient id="lT9Eh4XQYMRRNItuVDcF0s" x1="112.598" x2="326.374" y1="207.727" y2="377.119" xlink:href="#lT9Eh4XQYMRRNItuVDcF0c"/><linearGradient id="lT9Eh4XQYMRRNItuVDcF0t" x1="202.458" x2="289.958" y1="206.904" y2="276.237" xlink:href="#lT9Eh4XQYMRRNItuVDcF0c"/><linearGradient id="lT9Eh4XQYMRRNItuVDcF0u" x1="251.915" x2="318.514" y1="259.145" y2="261.237" xlink:href="#lT9Eh4XQYMRRNItuVDcF0f"/><linearGradient id="lT9Eh4XQYMRRNItuVDcF0v" x1="180.343" x2="209.356" y1="233.294" y2="310.555" xlink:href="#lT9Eh4XQYMRRNItuVDcF0e"/><linearGradient id="lT9Eh4XQYMRRNItuVDcF0w" x1="173.744" x2="261.244" y1="240.397" y2="309.73" xlink:href="#lT9Eh4XQYMRRNItuVDcF0c"/></defs><path fill="url(#lT9Eh4XQYMRRNItuVDcF0a)" d="M61.576,116.616a61.649,61.649,0,0,1-8.973,3.118,9.36,9.36,0,0,1-4.729,1.069q-1.928.363-3.99.634a5.976,5.976,0,0,1-4.89.472q-1.653.106-3.381.144a2.482,2.482,0,0,0-2.423,2.483v21.47a2.481,2.481,0,0,0,2.283,2.48c6.493.523,25.746,1.155,43.545-7.368C75.035,130.393,69.319,122.089,61.576,116.616Z"/><polygon fill="#f49289" points="101.554 187.33 122.642 204.631 134.779 183.036 116.283 171.872 101.554 187.33"/><path fill="url(#lT9Eh4XQYMRRNItuVDcF0b)" d="M134.686,182.271l-16.324,25.137a3.663,3.663,0,0,0,.767,4.842l43.229,35.295-20.471-69.491Z"/><polygon fill="#34363a" points="138.218 178.65 160.719 250.413 192.417 244.506 186.779 198.42 150.966 163.276 138.218 178.65"/><path fill="url(#lT9Eh4XQYMRRNItuVDcF0c)" d="M180.626,246.949s-32.049-5.256-37.107,22.454c-2.559,14.019.061,23.534,3.274,29.515a15.936,15.936,0,0,0,14.067,8.31h17.626Z"/><path fill="#34363a" d="M124.978,171.08,98.924,196.636a6.236,6.236,0,0,1-8.438.271L82.8,190.281a6.236,6.236,0,0,1-.306-9.162l28.594-28.2Z"/><path fill="#34363a" d="M79.015,141.112A73.864,73.864,0,0,0,95.532,130L78.756,104.372a51.411,51.411,0,0,1-17.183,12.237Z"/><path fill="#34363a" d="M48.868,60.842,37.534,68.975a5.185,5.185,0,0,0-1.2,7.214h0a5.185,5.185,0,0,0,7.155,1.277l13.1-8.964Z"/><path fill="#34363a" d="M113.555,119.855l11.345-9.669a3.423,3.423,0,0,1,4.8.36l15.464,17.8a3.421,3.421,0,0,1-.344,4.831l-10.533,9.114Z"/><path fill="#34363a" d="M63.479,50.353l-29.91-36.7a1.593,1.593,0,0,0-2.244-.226l-5.011,4.1a1.593,1.593,0,0,0-.281,2.168L54.928,59.591Z"/><path fill="url(#lT9Eh4XQYMRRNItuVDcF0g)" d="M94.56,88.487l-3.647-4.475c-2.223-.56-3.443-2.156-3.791-4.652L81.7,72.7a5.4,5.4,0,0,1-3.791-4.651l-5.332-6.542a5.815,5.815,0,0,1-3.791-4.651l-5.3-6.507L49.006,60.739l29.455,43.967C85.43,100.334,91.079,95.11,94.56,88.487Z"/><path fill="#34363a" d="M238.71,109.418h27.429a18.214,18.214,0,0,1,18.117,15.675c.037.272.071.548.105.827a18.1,18.1,0,0,0,7.068,12.36c5.064,3.794,11.178,10.861,11.178,22.869v58.075l-25.9,31.745s-28.206,6.81-38-14.42Z"/><polygon fill="#34363a" points="191.127 152.142 179.39 172.527 185.156 203.618 199.59 212.678 212.96 152.142 191.127 152.142"/><path fill="url(#lT9Eh4XQYMRRNItuVDcF0h)" d="M293.146,331.08s-8.019-18.731-18.159-37.338c0,0-35.607-25.511-62.027-25.511s-40.233,32.225-40.233,32.225c-1.694,8.418-3.4,18.556-4.935,30.624Z"/><path fill="url(#lT9Eh4XQYMRRNItuVDcF0i)" d="M188.764,165.781c-5.675,10-9.582,26.338,7.922,44.22-5.872,9.561-10.94,11.785-15.443,8.854,0,0-34.04-22.754-4.856-62.412C182.073,157.353,186.057,160.666,188.764,165.781Z"/><path fill="#726248" d="M176.393,156.448a60.682,60.682,0,0,0,12.372,9.334,42.791,42.791,0,0,1,7.921-10.14l-12.972-8.03A103.6,103.6,0,0,0,176.393,156.448Z"/><path fill="#726248" d="M183.032,239.239h13.59V210a53.325,53.325,0,0,1-7.2-9.02c.588,5.763.393,16.143-8.246,17.874Z"/><path fill="url(#lT9Eh4XQYMRRNItuVDcF0j)" d="M244,214.945l-5.293,35.468-32.31-3.464-12.659-20.961.892-18.663s.769-18.68,6.706-35.472l54.085-43.919c4.529,2.8,9.927,7.336,15.966,14.651,11.928,14.45,28.364,38.478,38.515,53.695a29.415,29.415,0,0,1,1.436,30.227c-5.435,10.142-13.553,23.47-23.879,35.194l-19.677-20.128s9.949-9.95,14.52-23.629a7.48,7.48,0,0,0-1.593-7.421c-5.581-6.056-14.98-17.875-14.98-17.875Z"/><path fill="#726248" d="M242.508,200.244,220.221,179.36s1.311,19.637,8.919,33.186a9.671,9.671,0,0,1,.767,7.8l-7.089,21.224H208.463V239.2a13.212,13.212,0,0,0-13.211-13.212h-1.511l-1.324,27.672,57.765-.386v-37.24l15.55-23.386-4.293-5.669a4.648,4.648,0,0,0-7.216-.239Z"/><path fill="#726248" d="M240.447,123.809,211.156,154c-4.275,4.788-7.452,11.172-9.814,17.853l.151.06a4.836,4.836,0,0,0,2.623.271c7.553-1.326,43.945-9.47,51.3-44.245C246.1,122.189,240.447,123.809,240.447,123.809Z"/><path fill="#34363a" d="M223.168,134.717s-11.2,28.405.414,54.529c7.872,17.712,19.408,24.123,26.6,26.788,5.343-3.191,9-7.385,10.1-13.1,0,0-38.979-21.77-17-80.861Z"/><path fill="url(#lT9Eh4XQYMRRNItuVDcF0e)" d="M182.443,110.984s-9.137-2.522-13.514,6.058,5.289,12.045,5.289,12.045S165,131.83,171.16,143.13c4.27,7.828,15.008,12.648,22,15.062a20.57,20.57,0,0,0,13.115.1c6.875-2.246,17.814-6.917,26.764-15.767l3.742-29.554Z"/><path fill="#726248" d="M264.828,305.037a16.139,16.139,0,0,0,10.159-7.764c-5.445-11.237-11.5-22.433-17.255-30.307l-74.947-1.544s-5,11.058-10.1,39.615H195.45c7.577,0,13.718-6.907,13.718-15.428v-4.788h27.99v9.71c0,5.8,4.182,10.506,9.341,10.506Z"/><path fill="url(#lT9Eh4XQYMRRNItuVDcF0k)" d="M235.893,106.475c-.138.077-.276.157-.417.241,0,0,4.466-11.658-5.55-16.614L186.78,108.99l-3.381,2.622c5.194,16.322,36.745,15.9,45.594,2.8,1.741,3.226-7,20.562-30.473,21.956a1.387,1.387,0,0,0-.417,2.689c6.414,2.245,17.4,4.381,28.85-1.1a4.112,4.112,0,0,1,5.862,3.012,11.58,11.58,0,0,1,.135,1.6,49,49,0,0,0,14.382-28.064A7.764,7.764,0,0,0,235.893,106.475Z"/><path fill="url(#lT9Eh4XQYMRRNItuVDcF0d)" d="M257.615,45.33V66.862s.142,17.825,15.828,20.82c6.561,1.252,11.076-.189,14.109-2.291A7.493,7.493,0,0,0,288.39,73.8h0a9.936,9.936,0,0,1-3.111-7.222v-31.8s0-20.25-18.11-20.25c-16.684,0-19.656,9.7-19.656,9.7Z"/><path fill="#34363a" d="M235.447,26.009s9.023-8.336,16.967-.784c5.9,5.612,6.986,13.716,7.153,17.509a11.081,11.081,0,0,1-1.054,5.436c-1.445,2.908-4.763,6.257-12.18,3.437Z"/><path fill="url(#lT9Eh4XQYMRRNItuVDcF0f)" d="M172.343,71.285v18.54a27.226,27.226,0,0,0,22.636,26.833s23.333,2.728,29.572-26.556l2.286-46.291S179.748,17.473,172.343,71.285Z"/><path fill="#f49289" d="M226.837,43.811S179.748,15.7,172.343,69.51c0,0,2.242-4.615,10.307-9.474a3.179,3.179,0,0,1,4.229.92c1.945,2.759,2.748,10.029,14.463,15.8,14.072,6.933,18.077,9.847,17.019,18.028-.016.121-.032.242-.049.365-1.359,9.843-8.169,21.464-23.332,21.5a27.335,27.335,0,0,0,4.581.392h0A27.218,27.218,0,0,0,226.778,89.86Z"/><rect width="52.649" height="23.931" x="189.859" y="249.636" fill="#34363a"/><path fill="url(#lT9Eh4XQYMRRNItuVDcF0l)" d="M190.858,46.337s-1.838,14.143,16.249,22.6c21.907,10.243,19.13,26.308,19.13,26.308s27.847-13.154,20.331-46.508-29.361-40.4-56.138-26.777c0,0-23.351-5.609-29.126,22.549-2.448,11.933,5.043,21.867,11.039,26.777C172.343,71.285,177.719,52.61,190.858,46.337Z"/><path fill="url(#lT9Eh4XQYMRRNItuVDcF0m)" d="M230.013,267.149v17.745A9.108,9.108,0,0,0,239.12,294H247.6c8.7-2.509,12.326-9.893,4.218-28.579C243.293,264.947,234.9,264.581,230.013,267.149Z"/><path fill="url(#lT9Eh4XQYMRRNItuVDcF0n)" d="M169.909,266.97v17.924A9.107,9.107,0,0,0,179.016,294h6.13c11.524-3.222,11.83-12.477,7.271-24.35Z"/><path fill="url(#lT9Eh4XQYMRRNItuVDcF0o)" d="M83.716,115.535l6.759-6.071a9.989,9.989,0,0,0,5.22-4.688l7.01-6.3,49.67,60.941a5.286,5.286,0,0,1-.606,7.31l-13.551,11.92A8.284,8.284,0,0,1,126.2,177.5l-43.05-55.665A4.646,4.646,0,0,1,83.716,115.535Z"/><path fill="url(#lT9Eh4XQYMRRNItuVDcF0p)" d="M81.486,161.3,94.77,150.572s6.421.191,10.257,5.167,1.694,13.179,1.694,13.179l-9.382,9A11.923,11.923,0,0,1,79.8,176.828c-.095-.118-.189-.237-.283-.359A11.11,11.11,0,0,1,81.486,161.3Z"/><polygon fill="#34363a" points="78.461 104.706 84.965 114.414 102.705 98.479 94.56 88.487 78.461 104.706"/><path fill="#34363a" d="M126.183,152.916a3.494,3.494,0,0,1-2.656-1.337l-.944-1.2a3.5,3.5,0,1,1,5.506-4.323l.944,1.2a3.5,3.5,0,0,1-2.85,5.66Z"/><path fill="#34363a" d="M95.7,104.776l-5.22,4.688,24.193,30.827a3.5,3.5,0,0,0,5.507-4.322Z"/><path fill="url(#lT9Eh4XQYMRRNItuVDcF0q)" d="M230.013,248.164v18.985l3.442.688a13.382,13.382,0,0,1,7.268,4.128,40.655,40.655,0,0,0,7.9,6.8,6.957,6.957,0,0,1,3.168,5.874v.616s.358,5.631-4.19,8.748h3.357a9.108,9.108,0,0,0,9.107-9.107v-36.73Z"/><path fill="#f49289" d="M102.344,159.664a17.677,17.677,0,0,1,3.887,9.724s8.492-6.724,1.614-15.618L101.3,145.3l-6.526,5.269Z"/><path fill="url(#lT9Eh4XQYMRRNItuVDcF0r)" d="M247.322,260.891a11.923,11.923,0,0,1-15.071-4.835,14.951,14.951,0,0,1-2.238-7.892v-5.92a11.536,11.536,0,0,1,11.536-11.535h6.021s12.088,2.093,7.8,18.927C253.693,256.214,250.489,259.406,247.322,260.891Z"/><path fill="url(#lT9Eh4XQYMRRNItuVDcF0s)" d="M169.909,248.164v23.352l20.527,4.1v7.415s.54,7.328-5.29,10.967h5.709a9.107,9.107,0,0,0,9.106-9.107v-36.73Z"/><path fill="url(#lT9Eh4XQYMRRNItuVDcF0t)" d="M248.53,230.709h-.96c1.937.813,5.012,2.9,5.012,7.947v17.011a14.5,14.5,0,0,1-1.03,6.022,15.012,15.012,0,0,0,8.514-13.525v-5.92A11.536,11.536,0,0,0,248.53,230.709Z"/><path fill="url(#lT9Eh4XQYMRRNItuVDcF0u)" d="M267.785,241.573l-6.109,6.42A16.29,16.29,0,0,0,249.993,249c-5.731,2.71-7.538,10.925-4.6,16.542a26.516,26.516,0,0,0,5.2,6.784,19.182,19.182,0,0,0,25.576.708,100.817,100.817,0,0,0,11.3-11.336S280.191,248.478,267.785,241.573Z"/><circle cx="186.101" cy="83.689" r="3.658" fill="#34363a"/><circle cx="202.742" cy="83.689" r="3.658" fill="#34363a"/><path fill="url(#lT9Eh4XQYMRRNItuVDcF0v)" d="M181.444,230.709h6.982a11.535,11.535,0,0,1,11.535,11.535v5.919a15.026,15.026,0,0,1-15.026,15.026h0a15.026,15.026,0,0,1-15.026-15.026v-5.919a11.535,11.535,0,0,1,11.535-11.535Z"/><circle cx="184.935" cy="249.264" r="3.658" fill="url(#lT9Eh4XQYMRRNItuVDcF0w)"/><path fill="#34363a" d="M120.854,205.9a3.489,3.489,0,0,1-2.193-.773l-14.6-11.752a3.5,3.5,0,0,1,4.389-5.453l14.6,11.752a3.5,3.5,0,0,1-2.2,6.226Z"/><path fill="#34363a" d="M159.222,251.663a3.487,3.487,0,0,1-2.337-.894L114.445,212.7a3.5,3.5,0,0,1-.61-4.493l18.47-28.841a3.5,3.5,0,0,1,5.895,3.776l-16.866,26.334,40.226,36.087a3.5,3.5,0,0,1-2.338,6.105Z"/><path fill="#34363a" d="M159.632,250.451A3.5,3.5,0,0,1,156.293,248l-21.415-68.3a3.5,3.5,0,1,1,6.68-2.094l21.415,68.3a3.505,3.505,0,0,1-3.341,4.549Z"/><path fill="#34363a" d="M164.566,180.121a3.493,3.493,0,0,1-2.452-1l-11-10.8a3.5,3.5,0,1,1,4.9-5l11,10.795a3.5,3.5,0,0,1-2.451,6Z"/><path fill="#34363a" d="M94.551,201.9a9.7,9.7,0,0,1-6.35-2.342l-7.686-6.626a9.737,9.737,0,0,1-.479-14.3,3.5,3.5,0,0,1,4.916,4.984,2.735,2.735,0,0,0,.135,4.019l7.685,6.626a2.752,2.752,0,0,0,3.7-.118l23.269-22.825a3.5,3.5,0,0,1,4.9,5l-23.268,22.825A9.723,9.723,0,0,1,94.551,201.9Z"/><path fill="#34363a" d="M42.587,152.27a78.279,78.279,0,0,1-9.875-.547,3.5,3.5,0,0,1-3.022-3.468V122.069a3.5,3.5,0,0,1,3.5-3.5h.027a65.321,65.321,0,0,0,26.954-5.159,3.5,3.5,0,1,1,2.809,6.411,71.012,71.012,0,0,1-26.29,5.7v19.534c6.934.451,24.641.646,40.816-7.1a3.5,3.5,0,1,1,3.024,6.314C66.577,150.956,51.941,152.27,42.587,152.27Z"/><path fill="#34363a" d="M79.017,144.613a3.5,3.5,0,0,1-2.854-1.471l-17.442-24.5a3.5,3.5,0,0,1,1.446-5.235c9.859-4.322,14.584-9.888,14.63-9.944a3.5,3.5,0,0,1,5.4,4.454c-.2.245-4.485,5.381-13.366,10.048l13.287,18.664a55.909,55.909,0,0,0,8.809-5.865,3.5,3.5,0,0,1,4.426,5.423,63.908,63.908,0,0,1-12.827,8.085A3.491,3.491,0,0,1,79.017,144.613Z"/><path fill="#34363a" d="M40.583,81.858a8.673,8.673,0,0,1-5.09-15.726L46.827,58a3.5,3.5,0,0,1,4.081,5.688L39.574,71.819a1.684,1.684,0,0,0,1.933,2.759l10.9-7.459A3.5,3.5,0,0,1,56.362,72.9l-10.9,7.459A8.612,8.612,0,0,1,40.583,81.858Z"/><path fill="#34363a" d="M137.4,143.1a3.5,3.5,0,0,1-2.291-6.147l6.611-5.721a.992.992,0,0,0,.1-1.4l-14.066-16.187a.993.993,0,0,0-1.391-.1l-5.927,5.05a3.5,3.5,0,1,1-4.541-5.327l5.927-5.051a8.015,8.015,0,0,1,11.216.841L147.1,125.237a7.992,7.992,0,0,1-.8,11.286l-6.611,5.72A3.486,3.486,0,0,1,137.4,143.1Z"/><path fill="#34363a" d="M52.732,60.055a3.5,3.5,0,0,1-2.838-1.447L22.317,20.535a3.5,3.5,0,0,1,.618-4.763l7.409-6.061a3.5,3.5,0,0,1,4.929.5L66.192,48.142a3.5,3.5,0,0,1-5.426,4.422l-28.7-35.215L29.922,19.1,55.563,54.5a3.5,3.5,0,0,1-2.831,5.554Z"/><path fill="#34363a" d="M84.965,117.913a3.485,3.485,0,0,1-2.908-1.551L46.1,62.687a3.5,3.5,0,0,1,.867-4.792L61.438,47.509a3.5,3.5,0,0,1,4.754.633l39.226,48.126a3.5,3.5,0,0,1-.374,4.815L87.3,117.017A3.5,3.5,0,0,1,84.965,117.913ZM53.8,61.606l31.827,47.508L97.884,98.105,62.845,55.116Z"/><path fill="#34363a" d="M169.909,310.728H160.86a19.391,19.391,0,0,1-17.15-10.153c-3.215-5.982-6.454-16.355-3.634-31.8,2.708-14.835,13.182-23.883,29.492-25.481a3.5,3.5,0,0,1,.682,6.967c-13.3,1.3-21.131,7.954-23.288,19.771-2.456,13.453.229,22.234,2.914,27.231a12.4,12.4,0,0,0,10.984,6.466h9.049a3.5,3.5,0,0,1,0,7Z"/><path fill="#34363a" d="M302.607,185.91a3.5,3.5,0,0,1-3.5-3.5V161.149a24.07,24.07,0,0,0-9.777-20.068,21.684,21.684,0,0,1-8.445-14.748c-.031-.261-.063-.518-.1-.772a14.731,14.731,0,0,0-14.648-12.643H247.514a3.5,3.5,0,0,1,0-7h18.625a21.752,21.752,0,0,1,21.586,18.713c.039.285.076.578.111.874a14.646,14.646,0,0,0,5.692,9.973c5.738,4.3,12.579,12.244,12.579,25.671V182.41A3.5,3.5,0,0,1,302.607,185.91Z"/><path fill="#34363a" d="M193.8,210.346a3.489,3.489,0,0,1-2.667-1.232c-20.061-23.586-7.012-44.348-.47-52.18a3.5,3.5,0,1,1,5.372,4.487c-6.713,8.037-15.584,24.331.43,43.158a3.5,3.5,0,0,1-2.665,5.767Z"/><path fill="#34363a" d="M182.317,234.209a3.5,3.5,0,0,1-3.482-3.183l-.935-10.292c-3.807-2.985-14.114-12.319-16.391-27.384-2.053-13.583,2.956-27.929,14.888-42.638a3.5,3.5,0,1,1,5.436,4.41c-10.613,13.083-15.127,25.565-13.415,37.1,2.241,15.1,14.653,23.646,14.778,23.73a3.519,3.519,0,0,1,1.533,2.588l1.078,11.854a3.5,3.5,0,0,1-3.169,3.8C182.53,234.2,182.423,234.209,182.317,234.209Z"/><path fill="#34363a" d="M287.462,265.2a3.5,3.5,0,0,1-2.5-1.054l-19.677-20.128a3.5,3.5,0,0,1,.027-4.921c.092-.092,9.437-9.576,13.676-22.263a3.963,3.963,0,0,0-.847-3.94c-3.677-3.99-8.883-10.315-12.138-14.329l-3.977,5.982a3.5,3.5,0,0,1-5.829-3.876l6.624-9.962a3.5,3.5,0,0,1,5.654-.24c.093.117,9.384,11.79,14.813,17.682a10.96,10.96,0,0,1,2.339,10.9,70.429,70.429,0,0,1-13.032,22.43l14.7,15.036a193.775,193.775,0,0,0,20.966-31.665,25.879,25.879,0,0,0-1.262-26.632c-9.1-13.645-26.185-38.728-38.3-53.409-11.212-13.583-19.8-16.8-23.92-17.515a3.5,3.5,0,1,1,1.191-6.9c6.2,1.07,16.112,5.4,28.128,19.957,11.7,14.172,27.518,37.177,38.728,53.98a32.868,32.868,0,0,1,1.609,33.823c-5.132,9.578-13.52,23.573-24.338,35.854a3.5,3.5,0,0,1-2.535,1.186Z"/><path fill="#34363a" d="M193.518,234.209c-.057,0-.113,0-.17,0a3.5,3.5,0,0,1-3.329-3.663l1.118-23.384c.052-1.263,1.435-31.695,13.53-50.368a3.5,3.5,0,0,1,5.875,3.806c-11.066,17.084-12.4,46.577-12.412,46.873l-1.119,23.407A3.5,3.5,0,0,1,193.518,234.209Z"/><path fill="#34363a" d="M250.181,233.165a3.5,3.5,0,0,1-3.5-3.5V216.856a3.5,3.5,0,0,1,7,0v12.809A3.5,3.5,0,0,1,250.181,233.165Z"/><path fill="#34363a" d="M250.181,219.534a3.5,3.5,0,0,1-1.216-.218c-12.59-4.666-22.206-14.305-28.581-28.649-4.83-10.866-6.536-23.289-5.073-36.921a3.5,3.5,0,0,1,6.96.747c-1.33,12.391.187,23.606,4.51,33.332,5.3,11.928,13.044,20.1,23.027,24.3a17.426,17.426,0,0,0,5.457-5.6,2.542,2.542,0,0,0-.624-3.26c-8.864-6.965-28.474-27.5-19.131-67.651a3.5,3.5,0,0,1,6.818,1.586c-8.432,36.237,8.827,54.423,16.638,60.56a9.578,9.578,0,0,1,2.356,12.275,25.763,25.763,0,0,1-9.346,9A3.5,3.5,0,0,1,250.181,219.534Z"/><path fill="#34363a" d="M199.851,162.805a24,24,0,0,1-7.836-1.306c-8.331-2.877-19.245-8.108-23.928-16.693-2.661-4.879-3.247-9.2-1.743-12.849a10.317,10.317,0,0,1,1.629-2.694,11.59,11.59,0,0,1-2.967-4.224c-.815-2.056-1.337-5.388.805-9.587,4.641-9.1,13.556-8.517,16.178-8.121a3.5,3.5,0,1,1-1.042,6.922,8.054,8.054,0,0,0-8.9,4.379c-1.154,2.262-.687,3.44-.534,3.827.744,1.877,3.255,3.107,3.886,3.333a3.5,3.5,0,0,1-.183,6.649h0a4.389,4.389,0,0,0-2.422,2.235c-.62,1.574-.123,3.918,1.438,6.778,3.8,6.967,14.2,11.4,20.067,13.429a17.176,17.176,0,0,0,10.885.078c12.756-4.167,34.743-15.046,38.681-41.077a4.258,4.258,0,0,0-1.809-4.228,4.148,4.148,0,0,0-4.479-.194c-.1.058-.211.121-.32.186a3.5,3.5,0,0,1-5.084-4.236c.019-.051,2.415-6.73-1.5-10.572a3.5,3.5,0,0,1,4.905-4.993,15.265,15.265,0,0,1,4.306,12.055,11.3,11.3,0,0,1,10.9,13.029c-4.668,30.854-31.925,42.926-43.428,46.685A24.213,24.213,0,0,1,199.851,162.805Z"/><path fill="#34363a" d="M278.158,91.654a28.7,28.7,0,0,1-5.371-.534c-14.639-2.8-18.615-17.071-18.672-24.23V50.528a3.5,3.5,0,0,1,7,0V66.862c.008.572.364,14.973,12.984,17.382,4.662.89,8.519.309,11.46-1.729a3.885,3.885,0,0,0,1.676-2.94,4.015,4.015,0,0,0-1.25-3.235,13.5,13.5,0,0,1-4.206-9.766v-31.8c-.01-1.7-.509-16.75-14.61-16.75-10.013,0-14.09,3.766-15.628,6.01a3.5,3.5,0,1,1-5.774-3.958c2.318-3.38,8.18-9.052,21.4-9.052,17.094,0,21.61,15.535,21.61,23.75v31.8a6.468,6.468,0,0,0,2.015,4.679,10.992,10.992,0,0,1-1.249,17.015A19.541,19.541,0,0,1,278.158,91.654Z"/><path fill="#34363a" d="M251.454,56.17a16.5,16.5,0,0,1-4.542-.681,3.5,3.5,0,0,1,1.932-6.729c4.237,1.217,5.719-.508,6.535-2.147a7.669,7.669,0,0,0,.692-3.725c-.129-2.937-.979-10.288-6.069-15.127-3.962-3.766-8.353-1.992-11.34.159a3.5,3.5,0,0,1-4.091-5.68c7.048-5.077,14.619-4.91,20.254.448,6.688,6.357,8.032,15.192,8.239,19.892a14.438,14.438,0,0,1-1.417,7.147A10.9,10.9,0,0,1,251.454,56.17Z"/><path fill="#34363a" d="M199.56,120.542a30.751,30.751,0,0,1-30.716-30.717V71.285a3.5,3.5,0,0,1,7,0v18.54a23.744,23.744,0,0,0,23.716,23.717c12.533,0,22.324-7.716,23.809-18.765a3.5,3.5,0,0,1,6.937.933C228.341,110.33,215.7,120.542,199.56,120.542Z"/><path fill="#34363a" d="M230.014,277.067H200.526a3.5,3.5,0,0,1,0-7h29.488a3.5,3.5,0,0,1,0,7Z"/><path fill="#34363a" d="M228.994,253.136H200.526a3.5,3.5,0,0,1,0-7h28.468a3.5,3.5,0,0,1,0,7Z"/><path fill="#34363a" d="M226.838,98.744a3.5,3.5,0,0,1-3.469-3.97c.06-.525,1.352-13.738-17.745-22.667-12.306-5.754-16.417-13.992-17.733-19.7-8.417,7.051-12.142,19.7-12.184,19.843a3.5,3.5,0,0,1-5.581,1.74c-7.633-6.25-14.861-17.463-12.251-30.188,2.082-10.149,6.55-17.465,13.281-21.745a28.024,28.024,0,0,1,18.749-3.752c14.5-7.12,27.628-8.3,38.034-3.415,10.827,5.087,18.244,16.215,22.043,33.074,8.034,35.654-21.325,50.285-21.623,50.428A3.488,3.488,0,0,1,226.838,98.744Zm-32.5-51.985c-.059.544-1.065,11.844,14.256,19.007,15.225,7.118,19.912,16.975,21.279,23.411,6.808-5.166,18.281-17.5,13.285-39.671-3.3-14.642-9.42-24.156-18.191-28.278-8.631-4.055-20.023-2.724-32.946,3.851a3.5,3.5,0,0,1-2.4.283c-.064-.014-7.913-1.754-14.769,2.65-5.031,3.231-8.432,9.018-10.111,17.2-1.774,8.651,2.627,15.711,6.192,19.8,2.744-6.476,8.546-17.116,18.426-21.833a3.5,3.5,0,0,1,4.983,3.581Z"/><path fill="#34363a" d="M250.959,297.5H239.12a12.62,12.62,0,0,1-12.606-12.607V248.163a3.5,3.5,0,0,1,7,0v36.731a5.613,5.613,0,0,0,5.606,5.607h11.839a5.613,5.613,0,0,0,5.607-5.607V277.98a3.5,3.5,0,0,1,7,0v6.914A12.621,12.621,0,0,1,250.959,297.5Z"/><path fill="#34363a" d="M244.009,266.655c-.08,0-.161,0-.241-.009a18.57,18.57,0,0,1-17.254-18.483v-5.919a15.052,15.052,0,0,1,15.035-15.035h6.982a15.052,15.052,0,0,1,15.035,15.035v4.706a3.5,3.5,0,0,1-7,0v-4.706a8.044,8.044,0,0,0-8.035-8.035h-6.982a8.043,8.043,0,0,0-8.035,8.035v5.919a11.551,11.551,0,0,0,10.729,11.5,3.5,3.5,0,0,1-.234,6.992Z"/><path fill="#34363a" d="M190.855,297.5H179.016a12.621,12.621,0,0,1-12.607-12.607V248.163a3.5,3.5,0,0,1,7,0v36.731a5.613,5.613,0,0,0,5.607,5.607h11.839a5.613,5.613,0,0,0,5.606-5.607V248.163a3.5,3.5,0,0,1,7,0v36.731A12.62,12.62,0,0,1,190.855,297.5Z"/><path fill="#34363a" d="M184.935,266.69a18.548,18.548,0,0,1-18.526-18.527v-5.919a15.052,15.052,0,0,1,15.035-15.035h6.982a15.052,15.052,0,0,1,15.035,15.035v5.919A18.547,18.547,0,0,1,184.935,266.69Zm-3.491-32.481a8.044,8.044,0,0,0-8.035,8.035v5.919a11.526,11.526,0,1,0,23.052,0v-5.919a8.043,8.043,0,0,0-8.035-8.035Z"/><path fill="#34363a" d="M263.7,281.1a22.317,22.317,0,0,1-15.533-6.251,30.146,30.146,0,0,1-5.872-7.683,16.926,16.926,0,0,1-.9-12.989,13.881,13.881,0,0,1,7.107-8.339,20.377,20.377,0,0,1,12.021-1.706l4.732-4.973a3.5,3.5,0,0,1,4.238-.645c13.134,7.31,20.725,20.923,21.042,21.5a3.5,3.5,0,0,1-.421,3.978,105.055,105.055,0,0,1-11.695,11.728A22.893,22.893,0,0,1,263.7,281.1Zm-6.413-30.251a13.514,13.514,0,0,0-5.793,1.317,6.974,6.974,0,0,0-3.464,4.237,9.937,9.937,0,0,0,.469,7.52,23.194,23.194,0,0,0,4.523,5.884,15.622,15.622,0,0,0,20.9.545,92.667,92.667,0,0,0,9.2-9.025c-2.259-3.448-7.429-10.482-14.744-15.3l-4.167,4.379a3.5,3.5,0,0,1-3.731.877A10.821,10.821,0,0,0,257.282,250.85Z"/><path fill="#34363a" d="M132.736,184.213q-.555,0-1.112-.053a11.831,11.831,0,0,1-8.2-4.52l-43.05-55.665a8.178,8.178,0,0,1,1-11.043h0l18.989-17.057a3.5,3.5,0,0,1,5.052.393l49.67,60.94a8.759,8.759,0,0,1-1.007,12.149L140.53,181.278A11.837,11.837,0,0,1,132.736,184.213ZM86.055,118.139a1.15,1.15,0,0,0-.141,1.553l43.05,55.665a4.783,4.783,0,0,0,6.943.665L149.458,164.1a1.781,1.781,0,0,0,.2-2.47l-47.35-58.094-16.257,14.6Z"/><path fill="#34363a" d="M89.04,184.748c-.332,0-.664-.01-1-.032a15.384,15.384,0,0,1-10.972-5.7l-.321-.408a14.7,14.7,0,0,1,2.537-20.039h0L99.1,142.58a3.5,3.5,0,0,1,4.967.582l6.548,8.467a14.831,14.831,0,0,1-1.469,19.815l-9.383,9A15.524,15.524,0,0,1,89.04,184.748Zm-5.356-20.729a7.574,7.574,0,0,0-1.4,10.31l.245.311a8.253,8.253,0,0,0,5.966,3.091,8.526,8.526,0,0,0,6.419-2.342l9.383-9a7.846,7.846,0,0,0,.777-10.481l-4.362-5.64Z"/><path fill="#34363a" d="M41.073,136.971a63.092,63.092,0,0,1-7.207-.416,3.5,3.5,0,0,1,.8-6.954c18.687,2.141,30.56-5.872,30.677-5.954a3.5,3.5,0,0,1,4.007,5.74C68.849,129.735,58.3,136.971,41.073,136.971Z"/><path fill="#34363a" d="M66.863,69.034A3.5,3.5,0,0,1,64.674,62.8l4.681-3.745a3.5,3.5,0,1,1,4.373,5.465l-4.681,3.746A3.489,3.489,0,0,1,66.863,69.034Z"/><path fill="#34363a" d="M76.558,83.531a3.5,3.5,0,0,1-2.21-6.216l5.543-4.507a3.5,3.5,0,1,1,4.417,5.43l-5.543,4.508A3.485,3.485,0,0,1,76.558,83.531Z"/><path fill="#34363a" d="M265.734,196.148a3.493,3.493,0,0,1-2.719-1.294l-7.128-8.779a3.5,3.5,0,1,1,5.435-4.412l7.128,8.779a3.5,3.5,0,0,1-2.716,5.706Z"/><path fill="#34363a" d="M200.316,141.5a23.165,23.165,0,0,1-4.877-.523,3.5,3.5,0,0,1,1.471-6.844,15.478,15.478,0,0,0,9.525-.913c7.788-3.42,18.584-11.043,25.792-27.935a3.5,3.5,0,0,1,6.439,2.747c-8.107,19-20.471,27.669-29.416,31.6A22.146,22.146,0,0,1,200.316,141.5Z"/><path fill="#34363a" d="M180.624,135.414a3.478,3.478,0,0,1-1.341-.269c-4.135-1.718-6.5-2.863-6.595-2.911a3.5,3.5,0,0,1,3.059-6.3c.023.011,2.3,1.111,6.222,2.742a3.5,3.5,0,0,1-1.345,6.733Z"/><path fill="#34363a" d="M174.971,290.1a3.5,3.5,0,0,0-4.183,2.647c-1.907,8.48-4.753,24.157-6.776,38.332h7.073c1.984-13.72,4.7-28.646,6.533-36.8A3.5,3.5,0,0,0,174.971,290.1Z"/><path fill="#34363a" d="M227.494,321.314a23.373,23.373,0,0,0-9.342-12.979,3.5,3.5,0,1,0-3.937,5.788,16.338,16.338,0,0,1,6.529,9.046l2.122,7.911h7.247Z"/><path fill="#34363a" d="M268.678,276.089a3.5,3.5,0,0,0-5.891,3.782c10.246,15.956,21.639,39.919,26.83,51.209h7.7C292.96,321.449,280.311,294.206,268.678,276.089Z"/></svg>