<svg xmlns="http://www.w3.org/2000/svg"  viewBox="0 0 340 340" width="500px" height="500px"><path fill="#ffcacf" d="M120.655,231.574s5.831,4.386,11.8,10.009a21.922,21.922,0,0,1-.586,32.438,38.4,38.4,0,0,1-13.5,7.718c-7.3,2.343-13.825-5.485-10.02-12.137a13.842,13.842,0,0,1,2.255-2.9l1.146-1.392a8.14,8.14,0,0,0-.415-10.813l-7.164-7.458Z"/><path fill="#e5838b" d="M111.339,254.5a8.1,8.1,0,0,1,1.812,2.964,36.6,36.6,0,0,0,7.5-25.887l-16.48,15.465Z"/><path fill="#d2e8ff" d="M262.687,112.585S62.377,9.117,19.217,92.813c0,0,95.183-41.788,236.215,37.292Z"/><path fill="#96aef4" d="M252.389,114.551S121.783,50.854,56.426,72.214a1.213,1.213,0,0,0,.532,2.354c24.666-3.142,91.87-5,192.1,43.281Z"/><path fill="#96aef4" d="M232.106,117.908c7.628,3.709,15.4,7.752,23.326,12.2l7.255-17.52s-5.327-2.751-14.425-6.992C242.963,109.607,236.717,114.378,232.106,117.908Z"/><path fill="#ffb664" d="M251.762,126.466l13.473-26.715a20,20,0,0,1,15.327-9.7,9.091,9.091,0,0,1,9.26,12.841c-.036.076-.073.152-.112.228l-21.745,28.294s-10.273,25.462-28.081,20.927l-2.891-11.546S247.365,135.749,251.762,126.466Z"/><path fill="#e87b40" d="M289.822,102.891a8.9,8.9,0,0,0,.793-2.716c-7.261-1.734-13.957,1.043-20.814,12.41-5.288,8.764-11.6,8.692-14.981,7.818l-3.058,6.063c-4.4,9.283-14.769,14.328-14.769,14.328l2.891,11.546c17.808,4.535,28.081-20.927,28.081-20.927l21.745-28.294C289.749,103.043,289.786,102.967,289.822,102.891Z"/><path fill="#333353" d="M137.458,215a22.858,22.858,0,0,1,6,15.936c0,10.282-2.5,25.692-2.5,25.692s16.041,18.6,47.913,30.255c11.2-10.274,25.968-22.617,27.3-27.161,0,0-9.133-7.111-9.133-14.993V228.877s0-12.146,6.074-18.306Z"/><path fill="#5b5b81" d="M194.73,211.646,168.109,213.2v18.65a17.555,17.555,0,0,1,0,7.51v15.343a17.782,17.782,0,0,1,0,8.211v14.416a140.863,140.863,0,0,0,20.756,9.546l5.865-5.835V269.479a15.222,15.222,0,0,1,0-5.932V250.09a22.067,22.067,0,0,1,0-8.739V229.594c-.841-1.295-.421-3.737,0-6.179Z"/><polygon fill="#333353" points="168.109 262.918 194.73 269.478 194.73 263.547 174.167 258.479 194.73 250.09 194.73 241.351 175.004 235.417 194.73 229.594 194.73 223.415 168.109 231.854 168.109 239.364 189.755 245.876 168.109 254.707 168.109 262.918"/><path fill="#5b5b81" d="M118.405,295.952s-4.045,16.675-4.045,29.1H249.45a131.29,131.29,0,0,0-4.85-21l-11.795-10.958-98.681-5.4Z"/><path fill="#333353" d="M244.6,304.05l-11.8-10.958-85.525-4.678c19.807,11.142,53.043,24.242,99.761,24.2C246.373,309.851,245.563,306.9,244.6,304.05Z"/><path fill="#bc5e66" d="M130.4,269.282s-9.22,13.6-12,26.67c0,0,74.693,15.718,116.379-12.324,0,0-9.382-14.668-18.623-23.909,0,0-15.076,17.208-32.585,20.277Z"/><path fill="#333353" d="M132.319,78.605s-15.747,2.871-15.544,23.757a13.469,13.469,0,0,0-10.9,4.578s-5.687,6.619-2.78,16.972c1.823,6.49,13.278,16.639,25.743,14.3,20.071-3.772,31.339-13.9,31.339-13.9l3.9-18.643-4.929-17.32Z"/><path fill="#333353" d="M267.11,126.777c1.363-5.4,4.925-10.362,8.516-15.322l40.8,26.742a9.463,9.463,0,0,1,3,12.85h0a9.462,9.462,0,0,1-12.785,3.342l-11.1-6.312-20.372-11.872Z"/><path fill="#f7f2fa" d="M112.447,185.911l5.475,3.011a11.928,11.928,0,0,1,6.117,8.849,23.83,23.83,0,0,0,8.461,15.472,25.521,25.521,0,0,0,16.323,5.695h47.23a26.052,26.052,0,0,0,20.733-10.149,44.959,44.959,0,0,0,5.655-9.955s8.872,25.418,26.4,39.443a11.723,11.723,0,0,0,11.558,1.768,85.891,85.891,0,0,0,9.025-4.178,41.844,41.844,0,0,1,7.762-3.076c5.847-1.715,17.613-6.993,26.531-22.756l-38.657-50.279a163.205,163.205,0,0,0-11.888,24.432s-5.456-4.883-7.18-11.2,0-17.805-7.754-26.421L176.2,178.444,102.97,138.812s-31.864,31.863-48.855,57.726a17.958,17.958,0,0,0-1.888,16.05,103.834,103.834,0,0,0,9.913,20.045,28.343,28.343,0,0,1,4.3,11.787l.039.306a18.943,18.943,0,0,0,26.225,14.892c9.037-3.885,21.768-11.987,27.949-28.044A215.026,215.026,0,0,0,91.2,209.46S102.4,192.516,112.447,185.911Z"/><path fill="#b29a95" d="M238.236,146.566,176.2,178.444,102.97,138.812s-2.571,2.571-6.636,6.839c1.369,6.972,5.641,13.279,11.87,14.961a4.632,4.632,0,0,1,3.105,2.861c2.806,7.8,9.091,13.238,17.7,15.317a9.97,9.97,0,0,1,5.179,3.337c4.541,5.4,11.281,8.25,19.492,8.25.525,0,1.059-.013,1.588-.037.109,0,.217-.007.325-.007a8.19,8.19,0,0,1,4.183,1.213c5.395,3.226,10.631,4.862,15.563,4.862a20.55,20.55,0,0,0,12.526-4.17,8.372,8.372,0,0,1,5.078-1.759h.114c9.546,0,16.625-4.957,19.421-13.6a1.894,1.894,0,0,1,1.756-1.289c9.276,0,16.305-4.865,19.283-13.34.36-1.025,1.415-1.323,2.46-1.894a19.1,19.1,0,0,0,6.819-6.032A23.065,23.065,0,0,0,238.236,146.566Z"/><path fill="#ffcacf" d="M153.634,106.1l-3.286,10.211c-.822,5.867-3.005,12.709-8.508,16.016,0,0-20.245-14.263-34.969,1.611,0,0,26.457,47.852,73.849,45.091l54.064-39.11s-7.592-17.024-25.307-16.794L172.208,95.285Z"/><path fill="#e5838b" d="M137.475,130.318s1.467,16.447,23.1,21.046l.137,2.123a5.7,5.7,0,0,0,5.833,5.337h0a5.7,5.7,0,0,0,5.545-6.143l-.076-.98s18.939-4.17,24.933-18.852l-7.905.486-12.51,9.157-12.684,2.259-11.12-1.812-11.774-13.565Z"/><path fill="#e5838b" d="M180.226,101.274l-8.018-5.989L150.686,106.1a49.284,49.284,0,0,1-.342,10.211c4.59.334,20.2.376,28.826-13.273C179.553,102.428,179.9,101.845,180.226,101.274Z"/><path fill="#e5838b" d="M210.164,141.149c7.817-2.74,11.537-8.666,13.3-14.059a25.008,25.008,0,0,0-13.987-3.968L172.208,95.285l-11.635,5.845a36.18,36.18,0,0,1,2.923,15.047s-.666,21.6,23.5,21.036C187,137.213,194,146.816,210.164,141.149Z"/><path fill="#ffcacf" d="M125.4,65.535s-2.391,39.771,21.644,43.783c6.941,1.159,14.185.378,17.555-2.235l8.142-14.046V61.064Z"/><path fill="#e5838b" d="M153.282,87.032s8.868,8.512,11.318,20.051c9.139-5.192,8.142-14.046,8.142-14.046V61.064l-27.425,2.441C144.787,70.821,145.956,79.291,153.282,87.032Z"/><path fill="#b23241" d="M166.474,155.881a3,3,0,0,1-2.993-2.827l-.364-6.337a3,3,0,1,1,5.99-.344l.364,6.336a3,3,0,0,1-2.822,3.168C166.59,155.88,166.532,155.881,166.474,155.881Z"/><path fill="#e5838b" d="M173.786,163.622c-.175,6.439-1.067,16.533-4.569,24.877h11.756s-1-13.868-4.829-25.352C175.657,161.684,173.828,162.05,173.786,163.622Z"/><path fill="#e54c5b" d="M166.112,149.545a3.039,3.039,0,0,1-.624-.065c-21.069-4.48-27.739-18.564-28.013-19.162a3,3,0,0,1,5.449-2.511c.243.514,5.749,11.748,23.25,15.681,2.638-.512,15.257-3.46,21.648-13.95a3,3,0,1,1,5.125,3.121c-8.622,14.153-25.687,16.752-26.409,16.856A3.04,3.04,0,0,1,166.112,149.545Z"/><path fill="#b23241" d="M191.945,128.536a3,3,0,0,0-4.123,1,26.611,26.611,0,0,1-6.706,7.321,33.624,33.624,0,0,0,5.881.354,10.256,10.256,0,0,0,1.29,1.36,31.8,31.8,0,0,0,4.66-5.914A3,3,0,0,0,191.945,128.536Z"/><path fill="#333353" d="M146.676,21.574S126.3,17.029,121.019,35.356a15.688,15.688,0,0,0-.341,4.21c.4,7.08,9.647,9.687,13.581,3.788l.1-.155H197.95s-11.1-26.61-33.031-28.222C164.919,14.977,154.153,14.1,146.676,21.574Z"/><path fill="#333353" d="M148.529,65.528a27.541,27.541,0,0,0,9.12,19.277c4.733,4.183,7.8,10.88,9.631,16.175a50.076,50.076,0,0,1,2.379,11c.664,6.158,4.019,19.768,20.725,19.115,0,0,6.568,7.915,18.357,1.347s9.6-15.662,9.6-15.662,7.578-.842,9.431-10.61-7.579-14.82-7.579-14.82,4.91-15.934-15.144-28.934Z"/><path fill="#f7f2fa" d="M104.916,130.4a10.3,10.3,0,0,1,8.784,1.937c3.874,2.982,11.742,10.02,23.542,25.141,13.178,16.886,39.773,17.111,39.773,17.111a58.772,58.772,0,0,0,28.1-18.141c12.466-14.782,20.279-22.468,29.669-21.4,0,0,7.975.834,8.211,9.084,0,0-.472,8.266-7.963,9.286a9.915,9.915,0,0,0-8.12,6.509c-1.479,4.207-4.885,8.659-12.681,8.661a8.894,8.894,0,0,0-8.414,6.134c-1.375,4.247-4.736,8.778-12.828,8.753a15.394,15.394,0,0,0-9.354,3.181c-3.6,2.731-10.134,4.937-20.268-1.122a15.065,15.065,0,0,0-8.419-2.19c-4.353.2-11.012-.507-15.4-5.728a16.894,16.894,0,0,0-8.892-5.634c-4.478-1.082-10.226-3.851-12.756-10.883a11.6,11.6,0,0,0-7.865-7.248c-5.185-1.4-11.49-4.995-11.289-14.2C98.877,133.484,101.914,131.171,104.916,130.4Z"/><path fill="#b29a95" d="M265.058,159.756s-.438,40.28,38.657,50.279C303.715,210.035,309.978,183.593,265.058,159.756Z"/><path fill="#ffcacf" d="M264.819,160.148a76.906,76.906,0,0,0,2.816-7.689,10.216,10.216,0,0,0-1.355-8.632c-1.366-2.04-2.468-5.453-1.222-10.86a31.871,31.871,0,0,1,2.053-6.19,6.939,6.939,0,0,1,10.389-2.736l2.564,1.866a5.642,5.642,0,0,1-1.684,9.974l-.167.046a1.05,1.05,0,0,0-.227,1.918l17.558,10.232-18.658,45.2S265.544,182.03,264.819,160.148Z"/><path fill="#75212c" d="M234.784,283.628s-9.382-14.668-18.622-23.909c0,0-15.077,17.208-32.586,20.277l-20.211-4.072h0L130.4,269.282s-1.4,2.067-3.27,5.355c4.95,4.262,20.237,16.193,45.909,25.561C201.225,300.515,228.068,288.414,234.784,283.628Z"/><path fill="#ffcacf" d="M293.966,107.5l6.437,4.145a12.715,12.715,0,0,1,3.007,17.743h0c-3.366,4.731-9.872,6.234-14.567,2.817L278,124.943a10.234,10.234,0,0,1-2.373-13.488q.129-.206.262-.416A12.72,12.72,0,0,1,293.966,107.5Z"/><path fill="#bc5e66" d="M140.952,256.625s39.011,27.284,93.832,27c0,0,7,10.015,9.816,20.422,0,0-68.07,2.08-114.2-34.768A95.71,95.71,0,0,1,140.952,256.625Z"/><path fill="#ffb664" d="M177.815,294.746a221.5,221.5,0,0,0,22.107,5.551,2.392,2.392,0,0,0,2.829-2.044l2.037-15.527a2.4,2.4,0,0,0-1.937-2.663c-6.454-1.244-12.547-2.76-18.229-4.431a2.391,2.391,0,0,0-2.912,1.418c-1.6,4.1-3.685,9.766-5.435,14.592A2.4,2.4,0,0,0,177.815,294.746Z"/><path fill="#b29a95" d="M94.358,204.978c-5.763-2.626-12.822-4.026-17.634-4.729a.835.835,0,0,0-.468,1.587A131.472,131.472,0,0,1,91.2,209.46S92.4,207.645,94.358,204.978Z"/><path fill="#b29a95" d="M248.834,238.274a11.732,11.732,0,0,0,11.568,1.769,85.733,85.733,0,0,0,9.02-4.176,41.844,41.844,0,0,1,7.762-3.076,42.225,42.225,0,0,0,18.829-12.121c-6.779,3.759-14.6,5.076-19.557,5.525a35.2,35.2,0,0,0-11,2.871l-4.637,2.041a9.745,9.745,0,0,1-10.529-1.725c-9.018-8.323-14.639-18.682-17.48-24.947a28.652,28.652,0,0,1-2.493-9.711,86.8,86.8,0,0,0-1.892-12.987,1.728,1.728,0,0,0-3.409.29,109.771,109.771,0,0,1-2.574,16.807S231.312,224.248,248.834,238.274Z"/><path fill="#b29a95" d="M248.216,178.04c-4.386,11.994-1.727,20.919,1.232,26.252a1.288,1.288,0,0,0,2.393-.831c-1.3-9.005,1.329-19.273,1.329-19.273A29.625,29.625,0,0,1,248.216,178.04Z"/><path fill="#e8808f" d="M143.505,82.173a3,3,0,0,1-.688-5.92l2.749-.65a3,3,0,0,1,1.382,5.839l-2.749.65A3.014,3.014,0,0,1,143.505,82.173Z"/><path fill="#e8808f" d="M133.407,82.173a3.006,3.006,0,0,1-.693-.081l-2.749-.65a3,3,0,1,1,1.382-5.839l2.749.65a3,3,0,0,1-.689,5.92Z"/><path fill="#e54c5b" d="M129.656,43.2H197.95a24.245,24.245,0,0,1,7.1,19.22s-62.507,4.5-79.648,3.116c0,0-1.089-11.14,1.2-20.019A3.136,3.136,0,0,1,129.656,43.2Z"/><path fill="#b23241" d="M205.049,62.419a25.1,25.1,0,0,0-.7-7.974c-4.544.622-9.051,1.148-13.48,1.592a15.882,15.882,0,0,1-15.992-9.1,29.278,29.278,0,0,1-1.423-3.736h-21c-1.288.959-3.62,3.964-5.311,8.473a9.933,9.933,0,0,1-9.406,6.532c-5.71-.084-10.057-.253-12.587-.373a75.29,75.29,0,0,0,.247,7.7c4.307.348,11.48.324,19.8.094h0C163.034,65.8,205.049,62.419,205.049,62.419Z"/><path fill="#333353" d="M152.759,42.841s-5.86,10.757-4.23,22.687l37.917,10.907s-.683-6.262-7.144-14.8c-2.243-2.967-4.47-4.819-5.753-8.955a13.823,13.823,0,0,1-.564-4.348c.027-1.483.175-4.074.353-5.486Z"/><path fill="#e87b40" d="M186.146,292.332l13.492-5.823a1.137,1.137,0,0,1,1.575,1.209l-1.084,7.392a2.417,2.417,0,0,1-2.859,2.017c-4.022-.789-7.79-1.694-11.008-2.662A1.137,1.137,0,0,1,186.146,292.332Z"/><path fill="#e5838b" d="M265.058,159.756h-.071c-.106.251-.168.392-.168.392.725,21.882,12.067,33.126,12.067,33.126l4.45-10.78C269.131,174.79,265.058,159.756,265.058,159.756Z"/><path fill="#e5838b" d="M280.009,147.64a1.863,1.863,0,0,0,3.224,1.663l.627-.734a3.074,3.074,0,0,1,3.98-.6l6.145,3.885,1.559-3.776-17.558-10.232A11.714,11.714,0,0,1,280.009,147.64Z"/></svg>