<svg xmlns="http://www.w3.org/2000/svg"  viewBox="0 0 340 340" width="500px" height="500px"><path d="M60.071,128.983a52.745,52.745,0,0,0,6.651.381c7.034,0,18.12-1.2,25.7-7.808,5.366-4.678,8.087-11.193,8.087-19.366V96.63a3.5,3.5,0,0,0-7,0v5.56c0,6.137-1.856,10.741-5.672,14.077-5.812,5.078-14.89,6.06-20.846,6.086,2.771-6.714,2.959-16.015,2.959-18.391V56.646a21.144,21.144,0,0,1,3.464-11.72c6.293-9.51,14.2-12.716,23.534-9.6-6.424,10.808-8.53,22.281-6.077,33.344a44.378,44.378,0,0,0,18.009,26.765,12.684,12.684,0,0,0,6.362,9.854,11.963,11.963,0,0,0,10.729.657V131.5a16.637,16.637,0,0,0-4.867-.339,27.922,27.922,0,0,0-15.617,6.714c-4.2,1.306-24.379,8.93-24.379,34.693v41.681a3.5,3.5,0,0,0,3.5,3.5h6.974c-.193,7.6.051,24.128,5.163,33.84a11.269,11.269,0,0,0-7.014,10.4v2.764a11.274,11.274,0,0,0,6.278,10.068c-.329,11.773-1.585,32.4-6.168,50.154a3.5,3.5,0,1,0,6.779,1.749c4.529-17.551,5.921-37.662,6.333-49.974a159.575,159.575,0,0,0,17.682,2.371c.14,17.247-.029,46.4-.031,46.708a3.5,3.5,0,0,0,3.479,3.521h.021a3.5,3.5,0,0,0,3.5-3.48c0-.332.194-33.463,0-50.054a3.5,3.5,0,0,0-3.309-3.454c-.144-.008-14.463-.817-24.39-3.5a4.278,4.278,0,0,1-3.174-4.1v-2.764a4.3,4.3,0,0,1,4.328-4.254h.925c.057,0,.111-.015.168-.017,7.162,4.334,23.257,5.347,36.721,5.347,10.1,0,40.822-.73,40.822-.73l2.854,63.672a3.5,3.5,0,0,0,3.494,3.343c.053,0,.106,0,.159,0a3.5,3.5,0,0,0,3.34-3.653l-1.657-36.965a17.633,17.633,0,0,0,10.087,3.175h46.709a17.741,17.741,0,0,0,17.7-16.719l.86-15.043a17.821,17.821,0,0,0,16.96-17.772V230.332a17.844,17.844,0,0,0-14.259-17.457l1.187-20.771a3.5,3.5,0,0,0-3.5-3.7h-11.95a50.455,50.455,0,0,1,.951-6.57,26,26,0,0,1,10.37-15.54c16.431-11.872,19.74-27.246,19.873-27.894a3.5,3.5,0,0,0-6.119-2.941c-5.39,6.477-13.358,11.452-23.683,14.785-.791.256-1.558.553-2.327.847.94-1.622,1.937-3.277,3.01-4.975,23.509-37.2,13.249-60.058,12.8-61.012A3.5,3.5,0,0,0,259.9,86.45c-.321,7.908-13.34,25.267-24.827,40.583-4.681,6.241-9.52,12.693-13.588,18.588a62.1,62.1,0,0,0-6.5,12.169,68.96,68.96,0,0,0-8.056-10.931c-.166-24.973,4.708-42.868,7.629-49.524a57.145,57.145,0,0,0,3.737-13.753,84.429,84.429,0,0,1,2.525,32.241c-.459,3.613-.756,7.9-.881,12.752a3.5,3.5,0,0,0,7,.181c.119-4.615.4-8.669.828-12.05,3.5-27.483-8.166-50.177-8.664-51.13a3.5,3.5,0,0,0-6.6,1.688c0,.167.255,16.756-4.353,27.258-3.79,8.638-7.536,25.619-8.137,45.626a64.335,64.335,0,0,0-16.549-10.394,3.5,3.5,0,0,0-4.145,5.262c12.457,17.856,13.7,41.653,13.434,53.389H179.022a3.5,3.5,0,0,0-3.494,3.7l.374,6.547a3.5,3.5,0,1,0,6.988-.4l-.162-2.847h77.2l-1,17.454a17.842,17.842,0,0,0-14.361,17.473v12.037a17.831,17.831,0,0,0,11.72,16.719l-.9,15.7A10.737,10.737,0,0,1,244.684,284.9H197.975a10.738,10.738,0,0,1-10.711-10.109l-.559-12.459h11.73A21.561,21.561,0,0,0,219.972,240.8v-2.411A18.992,18.992,0,0,0,202,219.423a4.837,4.837,0,0,1-4.4-3.531,12.76,12.76,0,0,0-24.715.533l-.335,1.435-16.907-.786a3.5,3.5,0,0,0-3.642,3.879l.772,7H134.147a3.446,3.446,0,0,1-3.424-3.182l-.757-49.454c0-.085,0-.17-.011-.255-.086-1.069-2.1-23.948-16.375-34.355a19.575,19.575,0,0,1,8.069-2.569,9.824,9.824,0,0,1,9.043,4.558c3.623,5.685,9.7,17.435,9.7,32.244v20.534a14.632,14.632,0,0,0,29.263,0v-20.3A49.8,49.8,0,0,0,168.148,163a91.914,91.914,0,0,0-5.683-16.212,15.878,15.878,0,0,1,6.306,4.968,46.421,46.421,0,0,1,9.1,26.058,3.5,3.5,0,0,0,6.993-.319,53.4,53.4,0,0,0-10.494-29.947,23.2,23.2,0,0,0-16.5-9.045,4.177,4.177,0,0,1-.427-1.635v-12.89a29.7,29.7,0,0,0,27.868-29.6V72.891a39.64,39.64,0,0,0-.523-6.327c4.121-8.632,9.216-25.313-2.152-41.173C169.433,6.988,154.531,10.82,149.7,12.739c-6.233-2.059-30.122-7.814-48.691,16.6-8.377-3.31-22.3-5.1-33.427,11.719a28.123,28.123,0,0,0-4.626,15.584V103.96c-.007,7.7-1.721,17-4.26,18.588a3.5,3.5,0,0,0,1.378,6.435Zm139.674,59.422c.27-11.629-.857-29.595-8.3-46.081,9.947,7.162,23.672,21.35,26.231,46.081Zm24.943,0a75.027,75.027,0,0,0-5.308-21.826,56.917,56.917,0,0,1,7.862-16.982c3.991-5.781,8.788-12.178,13.428-18.364,8.4-11.2,16.511-22.015,21.434-31,0,9.357-2.657,23.783-14.259,42.143-12.914,20.435-16.739,35.953-17.481,46.027Zm19.971,0h-7.268c.506-5.81,2.308-14.793,7.715-26.5a37.979,37.979,0,0,1,10.123-5,69.888,69.888,0,0,0,13.708-6.008,47.825,47.825,0,0,1-10.029,9.723,32.992,32.992,0,0,0-13.115,19.747A57.56,57.56,0,0,0,244.659,188.405Zm6.914,53.964V230.332a10.816,10.816,0,0,1,21.631,0v12.037a10.816,10.816,0,1,1-21.631,0Zm-76.447-17.381a3.487,3.487,0,0,0,3.57-2.7l1-4.271a5.76,5.76,0,0,1,11.156-.24,11.833,11.833,0,0,0,10.77,8.637,11.992,11.992,0,0,1,11.352,11.975V240.8a14.553,14.553,0,0,1-14.537,14.536h-35.61L159.4,224.257Zm-40.979,9.964h19.389l2.274,20.626c-17.523,1-44.012.722-50.479-4.141-5.634-4.237-7.089-21.68-6.751-33.69h24.61l.551,7.534A10.474,10.474,0,0,0,134.147,234.952Zm-11.18-59.438.264,35.233H88.111V172.566c0-20.171,14.62-26.433,18.734-27.8C120.365,151.656,122.8,173.762,122.967,175.514Zm38.394-10.8a42.831,42.831,0,0,1,1.3,10.466v20.3a7.632,7.632,0,0,1-15.263,0V174.939a62.193,62.193,0,0,0-.913-10.5,16.312,16.312,0,0,0,7.494,1.83,10.941,10.941,0,0,0,7.062-2.8C161.153,163.905,161.263,164.325,161.361,164.711Zm-2.858-9.268c-.886,2.089-2.886,3.828-4.528,3.828a9.3,9.3,0,0,1-6.227-2.381c-1.515-1.362-3.008-2.823-4.444-4.339a71.474,71.474,0,0,0-6.709-13.619,17.054,17.054,0,0,0-3.451-3.915,22.218,22.218,0,0,1-.17-2.63v-19.28a27.577,27.577,0,0,0,17.459,10.506v13.253a12.736,12.736,0,0,0,2.1,6.546,3.55,3.55,0,0,0,.232.339c.02.032.035.065.056.1A55.781,55.781,0,0,1,158.5,155.443Zm19.8-61.071a22.689,22.689,0,0,1-22.664,22.663c-18.972,0-22.568-19.752-22.71-20.583a3.5,3.5,0,0,0-3.261-2.923c-.065,0-.129-.006-.194-.006a3.5,3.5,0,0,0-3.368,2.554,4.974,4.974,0,0,1-7.4,3.123,5.583,5.583,0,0,1-2.879-4.895V86.063c0-3.453.7-6.011,1.983-7.2a3.047,3.047,0,0,1,2.011-.821,1.7,1.7,0,0,0,.461.03c5.277,0,6.707,5.058,6.846,5.606a3.5,3.5,0,0,0,4.5,2.528c25.247-8.275,33.3-27.52,35.795-37.141A30.881,30.881,0,0,1,178.3,72.891Zm-74-57.613c18.318-27.716,43.09-17.49,44.124-17.045a3.558,3.558,0,0,0,3.12-.156c.535-.3,13.24-7.035,25.387,9.911,6.577,9.176,6.326,18.838,4.394,26.263a36.9,36.9,0,0,0-13.2-14.814q-.651-.417-1.337-.823a3.5,3.5,0,0,0-5.27,2.686c-.1,1.067-2.735,25.367-29.019,35.675a13.637,13.637,0,0,0-12.062-7.383,9.994,9.994,0,0,0-7.169,2.457c-2.951,2.583-4.446,6.8-4.446,12.533v.395A38.082,38.082,0,0,1,97.708,67.151C95.491,57.154,97.772,46.644,104.305,36.759Z"/><path d="M166.962,95.713a13.193,13.193,0,0,1-13.894.091,3.5,3.5,0,0,0-3.963,5.77,20.666,20.666,0,0,0,10.955,3.2,19.941,19.941,0,0,0,10.563-3.09,3.5,3.5,0,1,0-3.661-5.966Z"/><path d="M165.911,81.82a3.9,3.9,0,1,0,3.9-3.9A3.9,3.9,0,0,0,165.911,81.82Z"/><path d="M156.045,85.719a3.9,3.9,0,1,0-3.9-3.9A3.9,3.9,0,0,0,156.045,85.719Z"/></svg>