<svg xmlns="http://www.w3.org/2000/svg" xmlns:xlink="http://www.w3.org/1999/xlink" viewBox="0 0 340 340" width="500px" height="500px"><defs><linearGradient id="FB7hBHjyX_rxlb6dCsEHAc" x1="95.93" x2="113.247" y1="267.063" y2="351.828" gradientUnits="userSpaceOnUse"><stop offset="0" stop-color="#c6b78c"/><stop offset="1" stop-color="#94875b"/></linearGradient><linearGradient id="FB7hBHjyX_rxlb6dCsEHAa" x1="23.538" x2="145.887" y1="215.083" y2="272.068" gradientUnits="userSpaceOnUse"><stop offset="0" stop-color="#7f5556"/><stop offset="1" stop-color="#6e3e41"/></linearGradient><linearGradient id="FB7hBHjyX_rxlb6dCsEHAb" x1="75.396" x2="109.691" y1="246.794" y2="286.04" gradientUnits="userSpaceOnUse"><stop offset="0" stop-color="#b58f89"/><stop offset="1" stop-color="#996f68"/></linearGradient><linearGradient id="FB7hBHjyX_rxlb6dCsEHAh" x1="18.244" x2="140.593" y1="226.451" y2="283.435" xlink:href="#FB7hBHjyX_rxlb6dCsEHAa"/><linearGradient id="FB7hBHjyX_rxlb6dCsEHAi" x1="5.712" x2="80.302" y1="251.901" y2="322.078" xlink:href="#FB7hBHjyX_rxlb6dCsEHAb"/><linearGradient id="FB7hBHjyX_rxlb6dCsEHAj" x1=".985" x2="123.334" y1="263.506" y2="320.491" xlink:href="#FB7hBHjyX_rxlb6dCsEHAa"/><linearGradient id="FB7hBHjyX_rxlb6dCsEHAk" x1="15.628" x2="90.218" y1="241.362" y2="311.538" xlink:href="#FB7hBHjyX_rxlb6dCsEHAb"/><linearGradient id="FB7hBHjyX_rxlb6dCsEHAl" x1="14.1" x2="136.449" y1="235.348" y2="292.333" xlink:href="#FB7hBHjyX_rxlb6dCsEHAa"/><linearGradient id="FB7hBHjyX_rxlb6dCsEHAm" x1="40.933" x2="76.48" y1="121.582" y2="242.805" xlink:href="#FB7hBHjyX_rxlb6dCsEHAc"/><linearGradient id="FB7hBHjyX_rxlb6dCsEHAd" x1="240.986" x2="297.884" y1="204.642" y2="233.305" gradientUnits="userSpaceOnUse"><stop offset="0" stop-color="#9a9da6"/><stop offset="1" stop-color="#6b6d6e"/></linearGradient><linearGradient id="FB7hBHjyX_rxlb6dCsEHAe" x1="106.454" x2="106.454" y1="66.282" y2="114.948" gradientUnits="userSpaceOnUse"><stop offset="0" stop-color="#e3948c"/><stop offset="1" stop-color="#d67d76"/></linearGradient><linearGradient id="FB7hBHjyX_rxlb6dCsEHAn" x1="74.432" x2="106.333" y1="6.128" y2="100.008" xlink:href="#FB7hBHjyX_rxlb6dCsEHAc"/><linearGradient id="FB7hBHjyX_rxlb6dCsEHAo" x1="66.899" x2="130.014" y1="113.1" y2="160.326" xlink:href="#FB7hBHjyX_rxlb6dCsEHAb"/><linearGradient id="FB7hBHjyX_rxlb6dCsEHAp" x1="142.084" x2="229.782" y1="181.985" y2="228.615" xlink:href="#FB7hBHjyX_rxlb6dCsEHAd"/><linearGradient id="FB7hBHjyX_rxlb6dCsEHAq" x1="224.736" x2="233.628" y1="211.449" y2="239.772" xlink:href="#FB7hBHjyX_rxlb6dCsEHAe"/><linearGradient id="FB7hBHjyX_rxlb6dCsEHAr" x1="200.171" x2="243.806" y1="146.319" y2="176.265" xlink:href="#FB7hBHjyX_rxlb6dCsEHAd"/><linearGradient id="FB7hBHjyX_rxlb6dCsEHAs" x1="136.718" x2="95.45" y1="213.588" y2="234.76" xlink:href="#FB7hBHjyX_rxlb6dCsEHAe"/><linearGradient id="FB7hBHjyX_rxlb6dCsEHAt" x1="2.379" x2="124.728" y1="260.514" y2="317.498" xlink:href="#FB7hBHjyX_rxlb6dCsEHAa"/><linearGradient id="FB7hBHjyX_rxlb6dCsEHAu" x1="157.097" x2="166.113" y1="196.188" y2="289.628" gradientUnits="userSpaceOnUse"><stop offset="0" stop-color="#ffe695"/><stop offset="1" stop-color="#ffb265"/></linearGradient><linearGradient id="FB7hBHjyX_rxlb6dCsEHAv" x1="161.887" x2="142.512" y1="237.949" y2="314.076" gradientUnits="userSpaceOnUse"><stop offset="0" stop-color="#f5c271"/><stop offset="1" stop-color="#f58e41"/></linearGradient><linearGradient id="FB7hBHjyX_rxlb6dCsEHAf" x1="139.641" x2="140.839" y1="203.48" y2="313.648" gradientUnits="userSpaceOnUse"><stop offset="0" stop-color="#f59b5c"/><stop offset="1" stop-color="#f5641e"/></linearGradient><linearGradient id="FB7hBHjyX_rxlb6dCsEHAw" x1="143.748" x2="144.946" y1="203.435" y2="313.603" xlink:href="#FB7hBHjyX_rxlb6dCsEHAf"/><linearGradient id="FB7hBHjyX_rxlb6dCsEHAg" x1="150.104" x2="151.301" y1="203.366" y2="313.534" gradientUnits="userSpaceOnUse"><stop offset="0" stop-color="#ffbf80"/><stop offset="1" stop-color="#ff8842"/></linearGradient><linearGradient id="FB7hBHjyX_rxlb6dCsEHAx" x1="158.671" x2="159.869" y1="203.273" y2="313.441" xlink:href="#FB7hBHjyX_rxlb6dCsEHAg"/><linearGradient id="FB7hBHjyX_rxlb6dCsEHAy" x1="167.437" x2="168.635" y1="203.178" y2="313.346" xlink:href="#FB7hBHjyX_rxlb6dCsEHAg"/><linearGradient id="FB7hBHjyX_rxlb6dCsEHAz" x1="173.9" x2="175.097" y1="203.108" y2="313.276" xlink:href="#FB7hBHjyX_rxlb6dCsEHAg"/><linearGradient id="FB7hBHjyX_rxlb6dCsEHAA" x1="177.784" x2="178.982" y1="203.065" y2="313.233" xlink:href="#FB7hBHjyX_rxlb6dCsEHAg"/><linearGradient id="FB7hBHjyX_rxlb6dCsEHAB" x1="179.532" x2="180.729" y1="203.046" y2="313.214" xlink:href="#FB7hBHjyX_rxlb6dCsEHAg"/><linearGradient id="FB7hBHjyX_rxlb6dCsEHAC" x1="51.076" x2="118.671" y1="113.72" y2="159.791" xlink:href="#FB7hBHjyX_rxlb6dCsEHAa"/><linearGradient id="FB7hBHjyX_rxlb6dCsEHAD" x1="13.538" x2="135.887" y1="236.555" y2="293.539" xlink:href="#FB7hBHjyX_rxlb6dCsEHAa"/><linearGradient id="FB7hBHjyX_rxlb6dCsEHAE" x1="166.22" x2="156.219" y1="220.664" y2="314.792" xlink:href="#FB7hBHjyX_rxlb6dCsEHAf"/></defs><polygon fill="url(#FB7hBHjyX_rxlb6dCsEHAc)" points="115.917 287.706 68.95 292.778 84.292 330.171 134.034 330.171 134.034 295.797 115.917 287.706"/><path fill="#63533b" d="M50.386,330.171H84.292V306.8h20.287s10.89-1.123,13.874-11h15.581V278.1H43.406V323.19A6.981,6.981,0,0,0,50.386,330.171Z"/><rect width="11.758" height="25.572" x="255.267" y="270.742" fill="#34363a" transform="rotate(-68.363 261.145 283.528)"/><path fill="#34363a" d="M221.192,193.82l-.763-5.952c.084-.011,9.441-1.357,11.38-8.557a11.823,11.823,0,0,0-5.18-13.534l2.916-5.244A17.756,17.756,0,0,1,237.6,180.87C234.613,191.976,221.739,193.75,221.192,193.82Z"/><path fill="#34363a" d="M325.187,216.363l1.872-12.7a1.108,1.108,0,0,0-1.874-.95L314.027,213.71l-8.329-.275,15.276-14.994a7.108,7.108,0,0,1,12.021,6.1l-1.716,10.78Z"/><path fill="#63533b" d="M244.994,239.624s-10.317,13.021-28.026,14.64-82.934,9.85-82.934,9.85l-17.387-34.461,32.021-19.681,86.59,10.7Z"/><path fill="url(#FB7hBHjyX_rxlb6dCsEHAa)" d="M145.851,286.663H110.778V233.972h15.066c11.049,0,21.047,8.826,21.047,19.875Z"/><path fill="url(#FB7hBHjyX_rxlb6dCsEHAb)" d="M108.061,242.327,75.533,256.35V283.4a14.385,14.385,0,0,0,14.385,14.385h6.136s11.906-.949,14.453-15.006Z"/><path fill="url(#FB7hBHjyX_rxlb6dCsEHAh)" d="M75.533,235.561V256.35a155,155,0,0,0,22.6-4.929,5.584,5.584,0,0,1,3.1-.047h0a5.529,5.529,0,0,1,4.056,5.33v25.211a16.747,16.747,0,0,1-9.241,15.868h2.71A14.386,14.386,0,0,0,113.15,283.4V235.561Z"/><path fill="url(#FB7hBHjyX_rxlb6dCsEHAi)" d="M50.417,316.2H33.211a18.42,18.42,0,0,1-18.42-18.42V285.415l8.372-18.2,48.4,1.338-.932,29.23C70.629,310.292,50.417,316.2,50.417,316.2Z"/><path fill="url(#FB7hBHjyX_rxlb6dCsEHAj)" d="M75.533,297.783v-29.23l-60.742-1.338v18.2L61.1,292.346s1.624,16.492-10.682,23.857h6.7A18.42,18.42,0,0,0,75.533,297.783Z"/><path fill="url(#FB7hBHjyX_rxlb6dCsEHAk)" d="M26.213,239.624a14.934,14.934,0,0,0-14.934,14.934v14A12.457,12.457,0,0,0,23.736,281.01h36.15c5.386-3.625,6.326-15.491,6.733-28.343Z"/><path fill="url(#FB7hBHjyX_rxlb6dCsEHAl)" d="M43.8,239.624l-12.947,6.8A72.648,72.648,0,0,0,57.1,255.9a5.236,5.236,0,0,1,4.388,5.171v11.986a19.7,19.7,0,0,1-1.6,7.952h3.19a12.458,12.458,0,0,0,12.457-12.458V239.624Z"/><path fill="#63533b" d="M121.029,152.068s14.685,10.143,23.828,25.855l-27.865,2.188-7.316-24.264Z"/><path fill="url(#FB7hBHjyX_rxlb6dCsEHAm)" d="M40.5,131.247S16.37,163.56,7.532,206.4a28.854,28.854,0,0,0,4.089,21.713,65.108,65.108,0,0,0,13.532,14.751,28.665,28.665,0,0,0,18.027,6.309H59.813a79.715,79.715,0,0,0,22.18-3.147l3.166-.917,35.87-24.083s7.095-37.135-10.757-63.207C110.272,157.823,76.586,124.418,40.5,131.247Z"/><path fill="#34363a" d="M268.349,232.862l-31.536,56.214a5.292,5.292,0,0,0,2.216,7.306h0a5.292,5.292,0,0,0,6.983-2.075l27.042-46.937C273.307,240.841,271.7,236.04,268.349,232.862Z"/><path fill="#63533b" d="M127.892,189.384c-2.244-11.844-6.288-24.97-13.546-35.571,0,0-34.358-26.721-68.844-23.262-.934.655-1.459,1.044-1.459,1.044s37.6,11.281,50.3,30.243,13.3,27.546,13.3,27.546Z"/><path fill="#34363a" d="M268.349,232.862l-1.285,67.069a5.292,5.292,0,0,0,5.291,5.392h1.071a5.291,5.291,0,0,0,5.291-5.258l.43-69.054Z"/><path fill="#34363a" d="M292.311,227.584a39.85,39.85,0,0,0-11.473,7.573,9.54,9.54,0,0,1-7.094,2.657l-33.793-1.35-8.061-19.286S281.944,219.361,292.311,227.584Z"/><path fill="#34363a" d="M294.372,209.972l-3.231,11.444,35.985,4.575a2.53,2.53,0,0,0,2.818-2.119l1.335-8.55Z"/><polygon fill="url(#FB7hBHjyX_rxlb6dCsEHAd)" points="239.951 202.377 294.372 209.972 292.311 227.584 233.455 222.412 239.951 202.377"/><path fill="url(#FB7hBHjyX_rxlb6dCsEHAe)" d="M128,73.27l-.784,29.463c-.109,4.079-2.365,7.563-3.611,11.435,0,0-24.255,4.773-38.7-10.448l7.66-30.637C107.7,66.923,119.634,66.75,128,73.27Z"/><polygon fill="#34363a" points="248.034 223.693 248.034 203.505 239.951 202.377 233.455 222.412 248.034 223.693"/><path fill="#b75858" d="M123.6,114.175l-.011-.017c-14.1,2.134-22.934-3.207-27.795-7.915a15.908,15.908,0,0,1-4.8-11.438v-2a9.394,9.394,0,0,1,4.67-8.119l16.409-9.545A13.778,13.778,0,0,1,119,73.27h9l.313-11.767C98.431,53.136,66.158,72.944,66.158,72.944l9.05,35.859,30.908,12.978C115.269,122.768,120.6,118.473,123.6,114.175Z"/><path fill="#34363a" d="M112.076,118.049a59.207,59.207,0,0,1-10.088-1.516C84.1,112.338,72.133,100.314,71.632,99.8A3.5,3.5,0,0,1,76.623,94.9h0c.109.11,11.11,11.1,26.964,14.822,14.23,3.336,20.995-.4,21.061-.437a3.479,3.479,0,0,1,4.791,1.169,3.523,3.523,0,0,1-1.178,4.827C127.565,115.7,122.36,118.64,112.076,118.049Z"/><path fill="#34363a" d="M79.3,81.421l.937,29.492s-22.791-4.1-25-33.871C55.229,77.042,71.774,75.213,79.3,81.421Z"/><path fill="url(#FB7hBHjyX_rxlb6dCsEHAn)" d="M116.1,15.439c-7.739-4.114-18.258-6.546-32.54-5.268,0,0-30.34,2.341-39.068,30.579,1.032,12.668,5.628,21.392,13.525,26.463q37.368,9.864,63.3-12.253C132.024,39.486,127.264,26.87,116.1,15.439Z"/><path fill="url(#FB7hBHjyX_rxlb6dCsEHAo)" d="M69.44,101.5c13.424,5.386,43.566,19.117,62.185,40.2a4.129,4.129,0,0,1,.751,4.212,16.293,16.293,0,0,1-3.975,5.844c-7.037,3.424-14.072,6.813-20.854,1.143L48.589,121.924S68.751,101.225,69.44,101.5Z"/><path fill="#63533b" d="M137.585,202.774l-4.932-10.469-13.5-5.976s-14.463-.583-18.779.35-18.894-5.6-18.894-5.6l-19.479-2.8-7.931,4.665-5.485,9.914L37.465,205.876a24.735,24.735,0,0,0-9.108,6.064,2.184,2.184,0,0,0,2,3.655c8.592-1.817,19.755.222,19.755.222a26.425,26.425,0,0,0,12.5-1.356,51.25,51.25,0,0,1,8.6-2.3,15.572,15.572,0,0,1,17.945,12.11,23.117,23.117,0,0,1,.423,4.226s.872,9.921-4.42,16.62l11.3-3.272,22.693-13.7-.492-7.259s-.533-1-1.353-2.43l19.974-5.576Z"/><path fill="#34363a" d="M57.478,168.1A11.075,11.075,0,0,0,45.7,174.738a196.778,196.778,0,0,0-9.379,27.951,6.826,6.826,0,0,0,5.764,8.46l5.589.7a11.992,11.992,0,0,0,7.108-1.267c11.348-6.023,24.05-4.858,31.4-3.36a11.579,11.579,0,0,0,10.9-3.566l5.337-5.891A12.46,12.46,0,0,1,111,193.688a33.812,33.812,0,0,0-9.094-19.3Zm24.87,22.454a5.076,5.076,0,0,1-5,3.264A60.213,60.213,0,0,0,55.21,196.6l3.241-9.285a7.684,7.684,0,0,1,8.209-5.091l11.565,1.447A5.093,5.093,0,0,1,82.348,190.55Z"/><path fill="#34363a" d="M111,193.71a12.417,12.417,0,0,1,2.426.087l14.831,1.885,2.349-17.229-28.7-4.065Z"/><path fill="url(#FB7hBHjyX_rxlb6dCsEHAp)" d="M134.864,171.529l82.3,12.836a10.589,10.589,0,0,1,7.877,5.795,20.516,20.516,0,0,0,2.561,3.958c.879,4.306,5.213,6.954,12.346,8.259l-2.708,26.116-40.661-1.311a46.437,46.437,0,0,1-14.2-2.711l-7.233-2.6a46.468,46.468,0,0,0-11.954-2.583l-23.778-1.924a14.7,14.7,0,0,1-11.255-6.677c-2.576-4.055-4.667-10.594-4.085-21.061l.417-2.583a9.613,9.613,0,0,0,.95-5.888l.51-3.157A7.808,7.808,0,0,1,134.864,171.529Z"/><path fill="#34363a" d="M188.046,226.1a46.386,46.386,0,0,0,8.536,1.079l22.023.711.826-11.714-24.546-1.855Z"/><path fill="#34363a" d="M125.008,202.879s-10.272,14.457-20.474,22.862l18.752,5.917L151,218.136l.23-3.624a7.978,7.978,0,0,0-6.651-8.373Z"/><path fill="#34363a" d="M157.76,191.463a32.43,32.43,0,0,1,.14,8.344,7.592,7.592,0,0,1-8.294,6.829l-5.032-.5,2.913,11.88,15.706,1.271a46.52,46.52,0,0,1,5.428.781l.351-2.893-.965-24.873Z"/><path fill="url(#FB7hBHjyX_rxlb6dCsEHAq)" d="M219.431,216.178l24.083,1.788a10.809,10.809,0,0,1,9.7,8.222s-3.028,11.062-17.907,13.277-27.375-5.492-27.375-5.492a29.689,29.689,0,0,1,.014-8.645A10.773,10.773,0,0,1,219.431,216.178Z"/><path fill="url(#FB7hBHjyX_rxlb6dCsEHAr)" d="M231.121,165.434h0a5.746,5.746,0,0,0-1.354-8.053,85.171,85.171,0,0,0-18.931-10.246,6.59,6.59,0,0,0-8.385,3.782h0a6.6,6.6,0,0,0,4.21,8.744,71.589,71.589,0,0,1,16.661,7.226A5.773,5.773,0,0,0,231.121,165.434Z"/><path fill="#34363a" d="M204.634,188.5l-.212-6.118L152.64,174.3l.276,9.889a7.816,7.816,0,0,0,6.784,7.53l36.093,4.793A7.816,7.816,0,0,0,204.634,188.5Z"/><path fill="url(#FB7hBHjyX_rxlb6dCsEHAs)" d="M104.008,212.877h33.271a8.324,8.324,0,0,1,8.255,7.259l-3.431,5.83c-6.761,1.8-14.311,7.307-22.039,13.658L101.9,234.747Z"/><rect width="11.152" height="17.712" x="32.891" y="268.466" fill="url(#FB7hBHjyX_rxlb6dCsEHAt)" rx="5.576"/><circle cx="116.647" cy="85.081" r="3.658" fill="#b75858"/><path fill="url(#FB7hBHjyX_rxlb6dCsEHAu)" d="M168.867,192.938l21.618,2.87a4.564,4.564,0,0,1,3.946,4.067c.183,1.865.373,4.4.459,7.448-.561,2.634-.743,5.064,0,7-.071,2.465-.222,5.118-.484,7.918-1.109,2.369-1.618,4.712-.862,7-.393,2.566-.885,5.214-1.5,7.919a13.349,13.349,0,0,0-1.83,7c-.779,2.615-1.679,5.262-2.716,7.919a13.267,13.267,0,0,0-3.056,7c-1.289,2.656-2.73,5.3-4.338,7.92-2.4,2.392-4.319,4.751-4.592,7q-2.617,4.047-4.786,7.916a15.433,15.433,0,0,0-1.259,2.325c-13.819,10.077-27.372,12.744-39.969,9.123a130.713,130.713,0,0,1,16.655-30.833c19.2-26.594,19.308-54.748,18.475-65.593A3.752,3.752,0,0,1,168.867,192.938Z"/><path fill="url(#FB7hBHjyX_rxlb6dCsEHAv)" d="M129.5,293.361a102.746,102.746,0,0,0-6.714,31.778,4.864,4.864,0,0,0,4.866,5.032H150.8a5.168,5.168,0,0,0,5.156-4.685c.163-1.787.446-4.052.933-6.734a15.018,15.018,0,0,1,1.549-7c.634-2.444,1.417-5.092,2.383-7.919a13.807,13.807,0,0,1,2.637-7q1.567-3.805,3.577-7.92a13.6,13.6,0,0,1,2.035-4.587Z"/><path fill="url(#FB7hBHjyX_rxlb6dCsEHAf)" d="M124.337,311.752c-.483,2.562-.824,4.9-1.063,7h33.612c.379-2.088.887-4.435,1.553-7Z"/><path fill="url(#FB7hBHjyX_rxlb6dCsEHAw)" d="M128.263,296.834c-.821,2.433-1.516,4.765-2.114,7h34.672c.76-2.228,1.629-4.562,2.634-7Z"/><path fill="url(#FB7hBHjyX_rxlb6dCsEHAg)" d="M134.446,281.915c-1.176,2.387-2.232,4.721-3.186,7h35.774q1.674-3.405,3.7-7Z"/><path fill="url(#FB7hBHjyX_rxlb6dCsEHAx)" d="M143.066,267q-2.357,3.543-4.36,7h36.806c.729-1.128,1.479-2.264,2.263-3.411.812-1.188,1.583-2.386,2.323-3.589Z"/><path fill="url(#FB7hBHjyX_rxlb6dCsEHAy)" d="M187.491,252.078H152.715c-1.269,2.331-2.657,4.668-4.193,7h35.915Q186.135,255.582,187.491,252.078Z"/><path fill="url(#FB7hBHjyX_rxlb6dCsEHAz)" d="M190.208,244.16c.705-2.364,1.312-4.7,1.832-7H159.3c-.794,2.3-1.7,4.64-2.724,7Z"/><path fill="url(#FB7hBHjyX_rxlb6dCsEHAA)" d="M193.539,229.241c.37-2.413.651-4.753.861-7H163.2c-.411,2.26-.921,4.6-1.533,7Z"/><path fill="url(#FB7hBHjyX_rxlb6dCsEHAB)" d="M164.325,214.323h30.56c.074-2.552.063-4.9,0-7H164.813C164.737,209.483,164.584,211.826,164.325,214.323Z"/><path fill="#b75858" d="M145.6,221.2h0a8.467,8.467,0,0,0-.075-1.062c-2.935,2.741-7.46,3.816-11.058,4.221a14.5,14.5,0,0,0-9.787,5.515l-3.767,4.824a4.928,4.928,0,0,1-4.97,1.775l-5.864-1.324a6.968,6.968,0,0,1-5.427-6.511l-.645-15.76h-.264a7.287,7.287,0,0,0-7.287,7.288v21.676l14.219,4.031a14.67,14.67,0,0,0,15.58-5.109l5.287-6.8a12.342,12.342,0,0,1,6.4-4.3l1.6-.451A8.321,8.321,0,0,0,145.6,221.2Z"/><path fill="#b75858" d="M253.223,235.092l.282-5.83a10.818,10.818,0,0,0-.295-3.073c-4.707,7.709-14.3,7.783-14.3,7.783H207.94a26.717,26.717,0,0,0,.647,3.1,10.7,10.7,0,0,0,10.115,7.75l23.48.543A10.8,10.8,0,0,0,253.223,235.092Z"/><path fill="url(#FB7hBHjyX_rxlb6dCsEHAC)" d="M106.454,147.261C96.312,140.5,83.082,134.744,77.306,132.37a5,5,0,0,1-3.093-4.344l-.225-3.877C80.45,126.3,87.4,128.938,95.1,131.813a1.683,1.683,0,0,0,1.506-2.989A169,169,0,0,0,69.83,115.3a4.85,4.85,0,0,1-2.812-5.926l2.421-7.867c-.683-.275-1.338-.534-1.93-.765a9.8,9.8,0,0,0-11.375,3.2,27.155,27.155,0,0,0-4.1,8.277l-4.8-.076a6.625,6.625,0,0,0-6.73,6.624v12.486c25.409,1.866,54.759,17.695,66.235,24.434a15.211,15.211,0,0,0,12.58,1.358,24.035,24.035,0,0,0,9.082-5.279C117.093,154.663,106.454,147.261,106.454,147.261Z"/><path fill="#63533b" d="M142.962,58.289a17.32,17.32,0,0,0-3.362-9.767,17.558,17.558,0,0,1-3-6.366c-1.664-6.5-6.614-19.311-20.508-26.7A51.1,51.1,0,0,1,122.22,33.63a23.885,23.885,0,0,1-8.485,21.737c-6.255,5.11-16.128,10.15-30.486,9.652-23-.8-34.692-10.806-38.755-24.267a57.768,57.768,0,0,0-2.261,19.661A20.6,20.6,0,0,0,60,79.874a158.033,158.033,0,0,0,19.3,1.547,21.09,21.09,0,0,0,8.735-1.8,148.6,148.6,0,0,0,21.044-11.418,16.786,16.786,0,0,1,9.161-2.69h17.894A6.853,6.853,0,0,0,142.962,58.289Z"/><path fill="#34363a" d="M227.607,194.116,125.442,181.157l-.95,5.888,115.459,15.332A27.685,27.685,0,0,1,227.607,194.116Z"/><path fill="url(#FB7hBHjyX_rxlb6dCsEHAD)" d="M111,270.055H75.533v7.267H86.509v2.849a3.256,3.256,0,1,0,6.511,0v-2.849H111Z"/><path fill="url(#FB7hBHjyX_rxlb6dCsEHAE)" d="M169.464,284.236l-20.494,4.679h18.064C167.785,287.388,168.608,285.821,169.464,284.236Z"/></svg>