<svg xmlns="http://www.w3.org/2000/svg"  viewBox="0 0 340 340" width="500px" height="500px"><path fill="#f5eef7" d="M158.961,64.3s-9.43-16.391,1.123-30.986C169.6,20.161,189.45,12.832,207.743,10.2a4.566,4.566,0,0,1,5.182,5.108l-.972,7.456C222,51.757,187.19,56.23,158.961,64.3Z"/><path fill="#b1a7c6" d="M211.953,22.762a36.317,36.317,0,0,1-1.641,5.405,7,7,0,0,1-7.109,4.374c-8.394-.749-27.834-.516-37.661,15.8L178.934,64.3h44.695C239.122,36.458,211.953,22.762,211.953,22.762Z"/><path fill="#ffcac0" d="M59.428,229.71s-3.818,18.891-1,33.159c0,0,1.68,8.917,16.645,8.823A13.793,13.793,0,0,0,88.77,257.9v-25.38Z"/><path fill="#ef837c" d="M75.19,233.39v24.079s.865,8.366-5.417,13.819a30.191,30.191,0,0,0,5.3.4A13.793,13.793,0,0,0,88.77,257.9v-25.38l-13.574-1.3Z"/><path fill="#342a35" d="M172.922,42.406c-6.661,4.067-13.657,11.2-17.136,23.692a51.843,51.843,0,0,0-1.8,13.909v3.377a29.434,29.434,0,0,1-8.685,20.895c-10.515,10.441-26.37,32.784-22.523,70.313a44.329,44.329,0,0,0,30.5,37.933c10.072,3.167,23.655,4.934,41.918,3.556,0,0,67.6-8.016,58.464-81.881a59.249,59.249,0,0,0-9.667-25.932q-.138-.2-.279-.41a60.491,60.491,0,0,1-10.3-28.022c-1.566-15.473-8.512-37.926-35.157-42.113A37.4,37.4,0,0,0,172.922,42.406Z"/><path fill="#ef837c" d="M260.946,260.576c.338,7.847-.7,13.727,5.358,15.259l5.093-.758a7.75,7.75,0,0,1,8.89,7.767l-.059,4.465a2.853,2.853,0,0,1-2.5,2.794l-13.279,1.664a21.946,21.946,0,0,1-22.639-12.547l-13.087-28.231,13.851-11.976Z"/><path fill="#f5eef7" d="M221.03,136.35s9.652-10.332,20.785-1.905c0,0,36.941,35.551,44.842,79.53,3.653,20.338-2.984,31.9-6.65,41,0,0-16.673,16.3-30.959-2.632s8.228-32.283,8.228-32.283S219.939,148.718,221.03,136.35Z"/><path fill="#b1a7c6" d="M252.59,245.841c-2.634-11.716,3.459-18.32,8.748-21.727a6.877,6.877,0,0,0,1.929-9.782l-6.7-9.4a16.044,16.044,0,0,1-3.076-9.831,33.011,33.011,0,0,0-4.141-16.278,42.464,42.464,0,0,0-9.122-11.541c-12.174-11.1-16.385-21.61-16.385-21.61l-1.6,3.712c5.774,36.163,30.181,66.7,30.181,66.7-24.524,14.825-23.438,31.6-23.438,31.6a42.647,42.647,0,0,0,22.147,16.429,25.376,25.376,0,0,0,27.428-7.32c.488-.575.968-1.191,1.441-1.828C268.873,259.654,255.584,259.163,252.59,245.841Z"/><path fill="#f5eef7" d="M168.333,136.35s-3.714-12.533-27.973-2.887C117.928,142.384,75,158.943,53.244,218.08a15.514,15.514,0,0,0-.947,6.109c6.3,9.235,15.4,13.3,31.866,3.772l28.046-51.32L155.865,156.1l11.753-7.726A24.386,24.386,0,0,0,168.333,136.35Z"/><path fill="#b1a7c6" d="M168.316,140.646s-4.03,10.569-19.83,12.363-48.96,12.67-62.747,58.221c0,0-8.379,23.753-33.421,12.958a15.589,15.589,0,0,0,12.39,14.517c8.2,1.717,18.351,2.419,27.679-.939,0,0,16.578.41,12.922-24.624-1.439-9.849.755-21.2,7.452-28.56,9.3-10.221,24.443-21.621,45.544-21.174,0,0,7.507-6.992,9.808-16.9Z"/><path fill="#ffb655" d="M239.14,259.672c8.765,12.238,24.784,38.622,26.707,70.177H161.928l.677-76.683Z"/><path fill="#f27b31" d="M232.389,267.732a18.633,18.633,0,0,0,6.75-8.06c-3.376-4.713-5.678-7.334-5.678-7.334l-70.856.828L158,266.255a61.5,61.5,0,0,0,26.5,9.71,98.144,98.144,0,0,0,.295,15.478,3.5,3.5,0,1,0,6.965-.7,90.7,90.7,0,0,1-.273-14.153c2.27.1,4.624.128,7.083.051a97.122,97.122,0,0,0,10.475-.9c1.45,5.124,2.668,10.789,2.668,15.35a3.5,3.5,0,0,0,7,0,65.589,65.589,0,0,0-2.749-16.623,57.953,57.953,0,0,0,10.256-3.3c5.02,10.1,10.967,25.689,10.932,42.82a3.5,3.5,0,0,0,3.493,3.506h.007a3.5,3.5,0,0,0,3.5-3.493C244.192,295.209,237.79,278.488,232.389,267.732Z"/><path fill="#ffb655" d="M234.248,167.22c-9.075-13.31-13.218-30.87-13.218-30.87a102.391,102.391,0,0,0-52.7,0A327.436,327.436,0,0,1,153.41,166.6c-8.884,15.476-11.816,34.888,9.075,48.4l13.683,49.966a91.342,91.342,0,0,0,18.513,1.661c35.563,0,38.78-14.288,38.78-14.288a90.839,90.839,0,0,1-5.631-21.9A23.4,23.4,0,0,1,226.878,215C247.735,202.6,243.323,180.53,234.248,167.22Z"/><path fill="#f27b31" d="M227.839,230.435A114.085,114.085,0,0,1,226.878,215c-46.056,9.542-64.393,0-64.393,0,1.739,19.978-5.37,34.929-6.141,37.339,0,0,.572,2.888,4.42,6.067L135.65,329.849h26.278c13.175-3.25,14.241-21.008,14.241-21.008V256.4a16.909,16.909,0,0,1,12.867-16.418Z"/><path fill="#ffcac0" d="M210.09,140.383a33.253,33.253,0,0,1-2.873-13.376v-.367l-25.072-.907v1.274a33.212,33.212,0,0,1-2.867,13.365,47.91,47.91,0,0,0-1.915,5.187,10.018,10.018,0,0,1-1.8,7.456,93.63,93.63,0,0,0-1.413,16.834,41.321,41.321,0,0,0,.247,4.579s5.3,9.974,20.286,9.974a26.087,26.087,0,0,0,20.267-9.792,41.254,41.254,0,0,0,.267-4.761,93.716,93.716,0,0,0-1.417-16.857,9.062,9.062,0,0,1-1.805-7.456A48.066,48.066,0,0,0,210.09,140.383Z"/><path fill="#ef837c" d="M207.217,126.64V116.216H182.145v9.517c1.691,2.211,6.508,4.851,12.536,4.693A26.561,26.561,0,0,0,207.217,126.64Z"/><path fill="#ffcac0" d="M215.125,85.709V99.176a22.176,22.176,0,0,1-22.176,22.176h0a22.163,22.163,0,0,1-22.171-21.687c-.2-9.56.065-20.237,1.67-27.454l12.386,9.557,7.822-9.03C205.506,75.969,213.228,80.246,215.125,85.709Z"/><path fill="#d07a76" d="M93.217,233.39h47.665c12.626,26.229,11.066,89.959-12.529,96.459H114.312a28.573,28.573,0,0,1-28.573-28.573V240.868A7.478,7.478,0,0,1,93.217,233.39Z"/><path fill="#f5eef7" d="M176.166,182.123a27.406,27.406,0,0,0,10.03,13.219,14.731,14.731,0,0,0,16.971,0A27.408,27.408,0,0,0,213.2,182.108l-2.086-3.361a242.517,242.517,0,0,1-32.135.057Z"/><path fill="#f27b31" d="M200.4,163.365l13.4-10.372a64.748,64.748,0,0,0-1.8-7.456l-17.313,13.405-17.309-13.381a64.889,64.889,0,0,0-1.8,7.454l13.393,10.354-14.536,11.254a35.23,35.23,0,0,0,.668,3.9l.017.01a31.214,31.214,0,0,0,1.068,3.584l18.5-14.327,18.514,14.313a31.372,31.372,0,0,0,1.065-3.578l.017-.01a35.578,35.578,0,0,0,.668-3.908Z"/><circle cx="186.395" cy="95.017" r="3.559" fill="#ef837c"/><circle cx="200.181" cy="95.017" r="3.559" fill="#ef837c"/><path fill="#ef837c" d="M207.323,76.462c-12.819-2.44-15.244-11.493-15.244-11.493-.223,8.278-6.712,13.872-6.712,13.872C175.3,74.59,173.956,67.43,173.956,67.43a24.713,24.713,0,0,0-1.5,4.782A19.178,19.178,0,0,0,186.4,84.643s5.75-3.928,7.287-9.733c0,0,3.842,4.183,13.063,5.635a11.089,11.089,0,0,1,8.38,5.661v-.5A9.465,9.465,0,0,0,207.323,76.462Z"/><path fill="#7f4242" d="M156.746,233.39H140.882v9.921a9.014,9.014,0,0,1-9.013,9.014H93.163a2.032,2.032,0,0,0-2.032,2.032v2.935a2.033,2.033,0,0,0,2.032,2.033h47.719v45.918s.714,15.086-12.529,24.606h7.3a28.573,28.573,0,0,0,28.574-28.573V240.868A7.478,7.478,0,0,0,156.746,233.39Z"/></svg>