<svg xmlns="http://www.w3.org/2000/svg"  viewBox="0 0 340 340" width="500px" height="500px"><polygon fill="#fff" points="69.632 79.028 85.375 62.83 129.469 111.468 111.908 121.312 69.632 79.028"/><path fill="#ccd5e5" d="M129.967,109.535,85.61,62.589,69.632,79.027l9.5,9.506,3.744-2.417a8.61,8.61,0,0,1,10.933,1.327l26.664,28.28Z"/><path fill="#62627a" d="M96.645,112.592l22.264-21.417L293.841,297.713a6.187,6.187,0,0,1,1.317,3.333,9.972,9.972,0,0,1-9.584,11.058c-.091,0-.182.006-.273.008-8.666.152-16.531-3.8-20.588-8.211L96.451,118.268A4.078,4.078,0,0,1,96.645,112.592Z"/><path fill="#62627a" d="M95.573,44.9h0a8.2,8.2,0,0,1,.9,11.75l-26.8,30.214a8.375,8.375,0,0,1-12.29.263L49,78.446,84.762,45.205A8.2,8.2,0,0,1,95.573,44.9Z"/><path fill="#62627a" d="M28.286,71.6,52.7,83.637l.378,6.427a19.239,19.239,0,0,0,.507,8.653l.546,9.3c-.525,3.9-.023,8.4.766,13.064l.8,13.559L18.556,160.43a218.411,218.411,0,0,1,.178-48.326,16.2,16.2,0,0,0,1.089-8.07A157.676,157.676,0,0,1,28.286,71.6Z"/><path fill="#8888a5" d="M18.556,160.43S34.375,138.42,55.7,134.637l4.187,5.443a9.955,9.955,0,0,0,7.091,3.853l24.488,1.974L106.6,226.268,32.7,177.5A34.354,34.354,0,0,1,22.093,166.38Z"/><path fill="#8888a5" d="M241.686,148.366s13.761,2.218,31.383,21.858q4.973,5.544,10.479,10.582l19.136,17.471-29.808,27.991-29.461-8.9a94.924,94.924,0,0,1-10.638-3.921l-9.5-4.164Z"/><path fill="#62627a" d="M91.463,145.907l-13.217-1.065-1.3,3.646a56.194,56.194,0,0,0-2.335,28.925l5.763,31.55L106.6,226.268Z"/><path fill="#62627a" d="M253.8,175.446V153.671c-7.415-4.542-12.114-5.3-12.114-5.3l-18.412,60.917,9.5,4.164a94.877,94.877,0,0,0,9.716,3.627l7.152-18.9A64.219,64.219,0,0,0,253.8,175.446Z"/><path fill="#ffc4b6" d="M144.877,125.532l-4.831,12.541c6.313,19.831,17.28,35.187,29.732,49.115l33.91-59.012Z"/><path fill="#ea8b7f" d="M169.778,187.188l33.91-59.012-58.811-2.644-4.831,12.541c.6,1.892,1.259,3.731,1.944,5.544l25.246,5.348a3.686,3.686,0,0,1,2.545,5.23l-10.168,20.71C162.836,179.159,166.244,183.234,169.778,187.188Z"/><path fill="#8888a5" d="M143.5,128.176l-21.337,13.1H94.417a9.019,9.019,0,0,0-8.813,7.045c-1.206,5.407-2.386,13.2-1.539,20.754a23.92,23.92,0,0,0,.448,2.56c1.472,6.58,8.5,36.239,20.076,57.658a34.287,34.287,0,0,1,4.174,17.787,141.34,141.34,0,0,1-2.21,20.539,10.772,10.772,0,0,0,2.339,9.13l11.619,13.639h61.36l4.618-85.777S153.627,164.888,143.5,128.176Z"/><path fill="#62627a" d="M165.583,203.205h19.932c-5.507-6.886-32.922-42.269-42.018-75.231l-21.337,13.1S134.869,174.907,165.583,203.205Z"/><path fill="#8888a5" d="M197.184,130.394s-35.275,45.937-59.323,119.1c0,0-5.072,12.4,2.185,24.7,0,0,6.236,9.178,8.128,16.192H212l8.682-14.756a11.327,11.327,0,0,0,1-9.262l-4.708-14.413a21.8,21.8,0,0,1,1.2-16.471L238.2,195.232a68.849,68.849,0,0,0,6.56-21.269l3.214-23.34a7.469,7.469,0,0,0-7.837-8.474l-4.252.25a18.032,18.032,0,0,1-5.432-.506l-15.3-3.82-11.467-12.541Z"/><path fill="#62627a" d="M153.265,267.654c-.127-.4-.243-.791-.351-1.178a30,30,0,0,1,.144-16c13.784-49.994,62.1-112.407,62.1-112.407l-11.467-12.541-7.14,2.838s-37.366,48.25-61.414,121.414c0,0-4.188,12.614,3.069,24.913,0,0,6,8.678,7.888,15.692h17.766c0-4.623-4.613-11.966-6.954-15.394A28.288,28.288,0,0,1,153.265,267.654Z"/><path fill="#8888a5" d="M211.521,56.085a33.223,33.223,0,0,0-6.488-7.843A163.072,163.072,0,0,0,176.1,27.985a12.767,12.767,0,0,0-12.362,0,163.072,163.072,0,0,0-28.932,20.257,33.534,33.534,0,0,0-6.577,7.992c-12.274,20.79-12.046,44.562-11.445,53.379a10.95,10.95,0,0,0,2.411,6.227c19.191,23.345,50.724,22.224,50.724,22.224s31.533,1.121,50.724-22.224a10.946,10.946,0,0,0,2.411-6.228C223.658,100.773,223.885,76.91,211.521,56.085Z"/><path fill="#ffc4b6" d="M197.807,82.437a71.7,71.7,0,0,0-19.9-15.97,16.626,16.626,0,0,0-16.026.032A71.667,71.667,0,0,0,142.039,82.43a17.164,17.164,0,0,0-3.977,12.348,79.1,79.1,0,0,0,1.785,12.258s4.766,12.478,8.854,17.283a37.457,37.457,0,0,0,17.261,12.633c2.483.165,3.958.112,3.958.112s1.474.053,3.958-.112a37.464,37.464,0,0,0,17.261-12.633c4.148-4.876,8.916-17.554,8.916-17.554a79.423,79.423,0,0,0,1.723-11.992A17.154,17.154,0,0,0,197.807,82.437Z"/><path fill="#ea8b7f" d="M189.942,126.838a27.5,27.5,0,0,0,2.44-2.842c4.391-5,9.438-18,9.438-18a79.091,79.091,0,0,0,1.824-12.3,17.458,17.458,0,0,0-4.37-12.834,75.626,75.626,0,0,0-20.9-16.185,18.1,18.1,0,0,0-16.964.032,75.571,75.571,0,0,0-20.916,16.238,17.4,17.4,0,0,0-4.29,12.818,78.647,78.647,0,0,0,1.884,12.506s5.046,12.793,9.373,17.719a35.176,35.176,0,0,0,6.372,6.4c-.136-.29-7.382-19.688-9.224-34.335a13.687,13.687,0,0,1,2.42-9.827c2.753-3.8,7.363-7.816,15.126-12.162,5.762-3.225,10.582-2.3,16.033,1.428,4.14,2.831,9.177,4.993,13.906,11.318a15.5,15.5,0,0,1,2.58,9.243c-.142,6.87.045,19.823-5.1,30.779Z"/><path fill="#404a66" d="M174.045,137.949c11.9-4.135,18.993-13.953,18.993-13.953,4.329-5,6.85-11.671,8.316-18-5.747-2.254-15.272-4.849-25.667-7.679a21.827,21.827,0,0,0-11.593.037c-10.236,2.857-19.764,5.676-25.551,7.92,1.475,6.242,3.986,12.792,8.251,17.719,0,0,7.091,9.818,18.992,13.953,2.592.169,4.13.115,4.13.115S171.454,138.118,174.045,137.949Z"/><path fill="#62627a" d="M249.474,238.268l9.592-8.123a18.709,18.709,0,0,0,6.4-5.417l12.573-10.647c4.2-2.413,7.689-5.125,9.9-8.382l11.87-10.051,19.656,15.068a11.617,11.617,0,0,1,3.205,14.883,19.058,19.058,0,0,1-3.538,4.451A20.647,20.647,0,0,1,315,232.99l-42.129,23.438Z"/><path fill="#ffc4b6" d="M249.474,238.268l-24.319,20.594a5.8,5.8,0,0,0-.5,8.374l7.975,8.562a15.5,15.5,0,0,0,20.116,2.215l13.155-9.028a15.46,15.46,0,0,0,6.431-9.812l.53-2.745Z"/><path fill="#ea8b7f" d="M28.286,71.6S34.468,52.7,46.237,38.839L64.283,60.547,52.7,83.637Z"/><path fill="#62627a" d="M19.01,19.335l2.276-2.158a10.018,10.018,0,0,1,13.9.107L73.772,55.02,58.743,71.6,19.006,33.869A10.018,10.018,0,0,1,19.01,19.335Z"/><path fill="#ffc4b6" d="M43.479,51.119l19.1,15.53L73.982,55.226a10.5,10.5,0,0,0,.344-13.774A129.88,129.88,0,0,0,62.868,29a12.777,12.777,0,0,0-17.435-.033,37.616,37.616,0,0,0-3.9,4.26A12.819,12.819,0,0,0,43.479,51.119Z"/><path fill="#62627a" d="M120.511,290.389H212v26.353a8.847,8.847,0,0,1-8.847,8.847h-73.8a8.847,8.847,0,0,1-8.847-8.847Z"/><path fill="#ffc4b6" d="M52.626,42.673l-.523.719a8.369,8.369,0,0,0,.978,10.964l1,.96a7.352,7.352,0,0,0-.944.58,9.771,9.771,0,0,0-1.1,14.877L56.786,75.5,68.107,61.925A7.919,7.919,0,0,0,67.671,51.3l-8.932-9.08A4.018,4.018,0,0,0,52.626,42.673Z"/><path fill="#ea8b7f" d="M272.337,259.173l.53-2.745-23.393-18.16-5.436,4.6,10.288,13.482a6.935,6.935,0,0,1-.756,9.255L243,275.569a11.247,11.247,0,0,1-7.042,2.928,15.5,15.5,0,0,0,16.791-.484l13.155-9.028A15.46,15.46,0,0,0,272.337,259.173Z"/><path fill="#404a66" d="M32.5,52.219a122.686,122.686,0,0,0-7.98,18.035c-16.191,41.926-10.19,88.732-9.926,90.706h0c0,.025.011.049.015.073.015.095.045.186.066.28a3.918,3.918,0,0,0,.1.4c.008.024.018.047.027.071.027.076.067.146.1.22a3.963,3.963,0,0,0,.2.416c.01.018.015.037.025.055l3.537,5.95A38.6,38.6,0,0,0,30.5,180.834l67.693,44.679c.928,1.941,1.887,3.844,2.88,5.683a30.3,30.3,0,0,1,3.7,15.709,135.2,135.2,0,0,1-2.135,19.925,14.7,14.7,0,0,0,3.215,12.514l10.664,12.518v24.88a12.862,12.862,0,0,0,12.847,12.847h73.795A12.862,12.862,0,0,0,216,316.742V291.478l8.129-13.817a15.243,15.243,0,0,0,1.5-3.521l4.084,4.385a19.432,19.432,0,0,0,11.726,5.983l20.333,22.1c4.065,4.422,12.5,9.508,23.022,9.508.191,0,.384,0,.575,0l.362-.01a14.162,14.162,0,0,0,10.248-5.011,13.685,13.685,0,0,0,3.15-10.56,9.991,9.991,0,0,0-2.231-5.4l-23.659-27.934a19.416,19.416,0,0,0,3.03-7.263l.177-.914,22.717-12.639h0l17.779-9.891a24.43,24.43,0,0,0,4.924-3.52,23.13,23.13,0,0,0,4.274-5.385,15.633,15.633,0,0,0-4.245-20.04l-19.52-14.963-16.712-15.259c-3.138-2.865-6.309-6.088-9.695-9.854a110.645,110.645,0,0,0-8.08-8.128,66.161,66.161,0,0,0-10.1-7.457l-5.82-3.518A11.451,11.451,0,0,0,239.9,138.156l-4.252.25a14.1,14.1,0,0,1-4.228-.394l-15.232-3.8-.027-.007-.04-.01c-.064-.016-.128-.015-.193-.028a4.042,4.042,0,0,0-.566-.082c-.118-.006-.233.007-.349.011-.141.005-.281,0-.421.023s-.251.055-.376.086-.251.054-.374.1-.231.1-.346.153-.241.1-.356.169-.221.153-.33.232-.2.136-.3.218a4.061,4.061,0,0,0-.372.392c-.049.057-.107.1-.154.162l-.028.037-.012.016c-2.431,3.144-48.984,63.814-62.749,113.74a34.022,34.022,0,0,0-.142,18.127c.12.434.251.873.393,1.322a32.28,32.28,0,0,0,4.147,8.385,54.51,54.51,0,0,1,5.174,9.138h-9.788a75.171,75.171,0,0,0-7.4-13.837c-6.1-10.463-2.682-21.414-2.648-21.519,18.327-55.761,44.416-96.872,55.6-113.027a63.386,63.386,0,0,0,29.2-19.625,14.866,14.866,0,0,0,3.313-8.5c.652-9.57.78-34.17-12.085-55.841a37.169,37.169,0,0,0-7.268-8.788,167.8,167.8,0,0,0-29.652-20.768,16.871,16.871,0,0,0-16.242,0,167.845,167.845,0,0,0-29.652,20.769,37.474,37.474,0,0,0-7.361,8.946c-7.38,12.5-10.448,25.954-11.6,36.93L100.036,103.78,78.83,82.57l9.759-11,12.924,13.678a4,4,0,1,0,5.814-5.494L93.918,65.558,99.467,59.3a12.2,12.2,0,0,0-1.341-17.484,12.227,12.227,0,0,0-16.073.444l-1.97,1.813a14.2,14.2,0,0,0-2.656-5.148A131.742,131.742,0,0,0,65.6,26.08a16.825,16.825,0,0,0-18.667-2.9l-8.956-8.758a13.976,13.976,0,0,0-19.449-.149l-2.273,2.157a14.019,14.019,0,0,0-.01,20.336ZM46.672,66.527a4.005,4.005,0,0,0,4.64-3.237c.463-2.6,2.005-3.63,2.557-3.8.35-.111.832-.214.968-.241a4,4,0,0,0,2.014-6.816l-1-.961a4.382,4.382,0,0,1-.51-5.722.77.77,0,0,1,1.172-.087L66.635,55.949,53.6,73.076a3.853,3.853,0,0,0-.208.339c-.06.1-.132.185-.184.29l-.027.054-.007.014L50.91,78.292l-17.636-8.7a120.523,120.523,0,0,1,7.4-15.628c.1.084.185.175.285.257l4.019,3.268a14.5,14.5,0,0,0-1.539,4.4A4,4,0,0,0,46.672,66.527ZM25.714,94.337c5.645,1.184,16.568,3.884,24.1,8.293l.2,3.447a78.61,78.61,0,0,0-26.314-.788C24.249,101.687,24.913,98.023,25.714,94.337ZM30.507,77.15,48.848,86.2l.42,7.168a108.9,108.9,0,0,0-21.66-6.809C28.461,83.408,29.422,80.265,30.507,77.15Zm-7.881,36.4c5.015-.84,16.307-2.1,27.877.859l.116,1.968c-13.8,2.986-23.283,8.3-29.1,12.586C21.694,124.142,22.038,118.957,22.626,113.548Zm-.9,37c-.177-3.056-.323-6.76-.361-10.962,2.813-2.838,12.17-11.046,29.726-15.13l.412,7.023C38.6,134.909,28.048,143.946,21.728,150.553Zm13.174,23.6a30.545,30.545,0,0,1-9.371-9.821L23.4,160.742C27.54,155.7,39.368,142.76,54.07,139.083l2.643,3.436a13.986,13.986,0,0,0,9.94,5.4l14.7,1.184a67.972,67.972,0,0,0-1.26,20.416,27.794,27.794,0,0,0,.519,2.988A308.2,308.2,0,0,0,92.5,212.173ZM227.55,225.634l12.8,15.116-17.88,15.142-1.691-5.176a17.687,17.687,0,0,1,.982-13.447Zm71.989,11.379a75.146,75.146,0,0,0-14.78-23.383l1.152-.976a134.472,134.472,0,0,1,26.726,17.072Zm-20.9-18.2a66.97,66.97,0,0,1,13.827,22.136l-5.8,3.226a84.25,84.25,0,0,0-18.2-16.748ZM262.1,232.817a78.106,78.106,0,0,1,17.472,15.3l-6.34,3.527-17.409-13.515Zm-35.8,30.314,23.281-19.714,10.769,8.36,8.121,6.305-.064.331a11.4,11.4,0,0,1-4.767,7.274l-13.157,9.028a11.571,11.571,0,0,1-14.923-1.644Zm64.889,38.43a5.588,5.588,0,0,1-1.328,4.365,6.141,6.141,0,0,1-4.44,2.181l-.193,0c-7.628.123-14.319-3.378-17.575-6.919l-16.437-17.866a19.234,19.234,0,0,0,3.8-2.016l12.454-8.547,23.371,27.593A2.74,2.74,0,0,1,291.192,301.561Zm28-77.946c-.148.258-.31.51-.475.761a140.741,140.741,0,0,0-26.145-17.363l7.357-6.23,17.1,13.107A7.607,7.607,0,0,1,319.192,223.615Zm-56.666-58.339a102.471,102.471,0,0,1,7.492,7.538c3.563,3.963,6.916,7.37,10.25,10.413l13.479,12.308-46.857,39.68-.431.365-15.031-17.746.254-.509a99.258,99.258,0,0,0,10.575,3.872l8.907,2.691a4,4,0,0,0,2.315-7.658l-8.908-2.691a91.374,91.374,0,0,1-9.32-3.391l6.531-13.135a72.712,72.712,0,0,0,6.941-22.5l2.385-17.318,2.542,1.536A58.138,58.138,0,0,1,262.526,165.276ZM160.207,272.74a24.274,24.274,0,0,1-3.129-6.3c-.111-.35-.215-.7-.309-1.04a26.022,26.022,0,0,1,.146-13.862c12.027-43.623,51.473-97.786,59.834-108.949l12.735,3.18a22.069,22.069,0,0,0,6.635.618l4.252-.25a3.468,3.468,0,0,1,3.64,3.935L240.8,173.418a64.71,64.71,0,0,1-6.179,20.033L223.106,216.6l0,.007-8.5,17.1a26.009,26.009,0,0,0-1.239,2.946L202,257.593a4,4,0,1,0,7.031,3.816l4.266-7.858,4.593,14.061a7.333,7.333,0,0,1-.65,5.993l-7.521,12.784H167.229C165.941,281.8,162.881,276.655,160.207,272.74ZM208,294.389v22.353a4.853,4.853,0,0,1-4.848,4.847H129.358a4.853,4.853,0,0,1-4.847-4.847v-6.778h72.682a4,4,0,1,0,0-8H124.511v-7.575H208Zm-76.663-45.865c-.194.585-4.668,14.5,3.42,28.206.048.081.1.162.153.239a75.877,75.877,0,0,1,5.4,9.42H122.358l-10.421-12.232a6.747,6.747,0,0,1-1.463-5.746,141.04,141.04,0,0,0,2.285-21.155,38.306,38.306,0,0,0-4.651-19.863c-11.4-21.1-18.4-50.876-19.692-56.631a20.12,20.12,0,0,1-.376-2.132c-.792-7.068.361-14.472,1.468-19.438a4.99,4.99,0,0,1,4.909-3.915H119.47A187.282,187.282,0,0,0,152.4,195.806,461.743,461.743,0,0,0,131.338,248.524ZM166.3,168.636a221.883,221.883,0,0,1-11.658-21.928,4,4,0,1,0-7.28,3.318A238.236,238.236,0,0,0,161.9,176.779q-2.834,5.375-5.735,11.235A182.94,182.94,0,0,1,127.17,142.9l11.9-7.306a77.217,77.217,0,0,0,30.852,6.477c.169,0,.448.009.831.009a73.413,73.413,0,0,0,12.179-1.142C178.327,147.969,172.557,157.308,166.3,168.636ZM140.188,93.424A13.309,13.309,0,0,1,143.4,83.7a71.813,71.813,0,0,1,19.852-15.435l.047-.024a14.085,14.085,0,0,1,13.2-.022,71.769,71.769,0,0,1,19.944,15.488h0a13.29,13.29,0,0,1,3.21,9.715c-.151,2.129-.431,4.8-.932,7.711-5.718-1.928-13.4-4.016-22.061-6.37A25.573,25.573,0,0,0,163.1,94.8h0c-9.9,2.757-16.934,4.87-21.936,6.594A78.325,78.325,0,0,1,140.188,93.424Zm2.92,15.77c6.345-2.223,15.412-4.809,22.138-6.684h0a17.62,17.62,0,0,1,9.391-.009c8.324,2.262,16.272,4.421,21.843,6.316-1.792,5.752-3.84,9.962-6.1,12.539-.073.083-.149.177-.215.266a40.524,40.524,0,0,1-16.812,12.351c-1.686.1-2.807.1-3.162.095h-.125c-.039,0-.079,0-.118,0h-.028l-.129,0-.157,0c-.377.005-1.484,0-3.139-.094a40.511,40.511,0,0,1-16.807-12.344c-.071-.094-.144-.186-.221-.274-.331-.377-.639-.775-.947-1.174A39.606,39.606,0,0,1,143.108,109.194ZM131.675,58.268a29.523,29.523,0,0,1,5.792-7.039,159.6,159.6,0,0,1,28.211-19.746,8.812,8.812,0,0,1,8.484,0,159.558,159.558,0,0,1,28.211,19.745,29.162,29.162,0,0,1,5.709,6.9c11.717,19.737,11.583,42.39,10.982,51.215a6.907,6.907,0,0,1-1.51,3.958A54.854,54.854,0,0,1,193.7,129.732a39.186,39.186,0,0,0,2.792-3.217c.3-.343.587-.707.874-1.081,7.24-9.1,9.594-22.013,10.266-31.446a21.335,21.335,0,0,0-5.2-15.58,79.857,79.857,0,0,0-22.193-17.26c-.5-.267-1.017-.505-1.535-.73l3.892-1.976a4,4,0,0,0-3.621-7.134L159.6,61.148l-.013.009-.053.025A79.911,79.911,0,0,0,137.409,78.4a21.359,21.359,0,0,0-5.2,15.594c.667,9.345,2.982,22.11,10.067,31.194.347.454.7.9,1.074,1.328a39.159,39.159,0,0,0,2.791,3.217A54.862,54.862,0,0,1,122.286,113.3a6.914,6.914,0,0,1-1.511-3.959,102.476,102.476,0,0,1,.241-16.234c0-.015,0-.029,0-.043C121.983,82.8,124.733,70.027,131.675,58.268ZM87.484,48.135a4.209,4.209,0,0,1,5.537-.158,4.2,4.2,0,0,1,.462,6.015l-26.8,30.216a4.3,4.3,0,0,1-1.923,1.26,4,4,0,1,0,2.447,7.617,12.356,12.356,0,0,0,5.461-3.569l.842-.95,20.756,20.76a10.365,10.365,0,0,0-.557,14.61l8.553,9.3a4,4,0,0,0,5.888-5.416l-8.553-9.3a2.389,2.389,0,0,1,.219-3.443c.069-.057.135-.117.2-.178l12.548-12.071c0,2.822.1,5.22.229,7.057a14.855,14.855,0,0,0,3.312,8.495,59.971,59.971,0,0,0,14.746,12.866l-9.823,6.031H94.417a12.976,12.976,0,0,0-9.5,4.089L67.3,139.946a5.964,5.964,0,0,1-4.241-2.305l-3.437-4.468-2.858-48.7,3.432-6.843L71.3,63.025ZM60.132,31.917A123.7,123.7,0,0,1,71.224,43.978a6.247,6.247,0,0,1,.967,6.212L62.214,40.047a8.771,8.771,0,0,0-13.345.992,12.314,12.314,0,0,0-2.346,7.4L46,48.016A8.864,8.864,0,0,1,44.674,35.7a33.759,33.759,0,0,1,3.485-3.808A8.8,8.8,0,0,1,60.132,31.917ZM21.764,22.236l2.273-2.157a6,6,0,0,1,8.35.065l8.206,8.025q-1.13,1.224-2.2,2.58a16.824,16.824,0,0,0-3.418,12.786L21.76,30.968a6.018,6.018,0,0,1,0-8.732Z"/><path fill="#404a66" d="M160.584,83.414l-4.829-1.168a3.5,3.5,0,0,0-1.647,6.8l4.83,1.169a3.5,3.5,0,0,0,1.646-6.8Z"/><path fill="#404a66" d="M179.792,90.317a3.5,3.5,0,0,0,.826-.1l4.829-1.169a3.5,3.5,0,0,0-1.646-6.8l-4.829,1.168a3.5,3.5,0,0,0,.82,6.9Z"/></svg>