<svg xmlns="http://www.w3.org/2000/svg"  viewBox="0 0 340 340" width="500px" height="500px"><polygon fill="#b1a7c6" points="137.423 325.987 210.752 325.812 207.994 285.857 142.529 285.857 137.423 325.987"/><path fill="#b1a7c6" d="M137.423,325.987s17.467-11.1,25.128-35.013l-18.308-8.6S134.36,306.718,137.423,325.987Z"/><path fill="#b1a7c6" d="M210.752,325.812s-18.07-12.22-24.943-38.069l27.559-11.955Z"/><polygon fill="#ffb655" points="171.481 14.013 159.013 22.449 146.544 14.013 146.544 39.943 180.933 36.59 171.481 14.013"/><path fill="#f27b31" d="M146.544,39.943v8.963h49.874V14.013L183.95,22.449l-12.469-8.436V24.838a7.69,7.69,0,0,1-6.146,7.542C160.23,33.422,152.816,35.58,146.544,39.943Z"/><path fill="#342a35" d="M280.931,220.374A21.409,21.409,0,0,1,270.919,202.3c-.068-19.91-11.318-29.161-19.85-33.314a19.871,19.871,0,0,1-10.6-13.581c-3.211-14.319-12.33-21.085-20.088-24.281A19.921,19.921,0,0,1,208,112.714V71.045C208,30.582,132,31.46,132,71.045v41.669a19.921,19.921,0,0,1-12.372,18.412c-7.758,3.2-16.877,9.962-20.088,24.281a19.871,19.871,0,0,1-10.605,13.581c-8.532,4.153-19.782,13.4-19.85,33.314a21.409,21.409,0,0,1-10.012,18.072c-12.555,7.905-36.589,30.238-24.108,67.815,17.506,52.706,92.764,26.177,92.764,26.177V285.857h84.55v28.509s75.258,26.529,92.764-26.177C317.52,250.612,293.487,228.279,280.931,220.374Z"/><path fill="#f5eef7" d="M90.7,238.93c4.426,5.874,11.743,9.461,20.25,12.106,10.285-10.588,15.37-23.109,10.179-39.45L99.17,216.267C96.5,224.283,93.516,232.058,90.7,238.93Z"/><path fill="#f5eef7" d="M250.4,238.93c-4.425,5.874-11.743,9.461-20.25,12.106-8.236-8.957-13.618-20.308-16.777-33.522,11.587-5.2,21.555-6.648,28.556-1.247C244.6,224.283,247.578,232.058,250.4,238.93Z"/><path fill="#b1a7c6" d="M232.5,217.648c4.573.437,7.546-.372,9.429-1.382-1.936-5.8-3.714-11.73-5.152-17.535l-35.566,12.038s14.571,16.134,18.341,43.06c3.65-.839,7.213-1.748,10.594-2.8-5.955-13.274-6.475-21.969-5.585-27.275A7.347,7.347,0,0,1,232.5,217.648Z"/><path fill="#b1a7c6" d="M110.95,251.03c3.382,1.051,6.944,1.96,10.594,2.8,3.77-26.926,18.341-43.06,18.341-43.06L104.32,198.731c-1.439,5.805-3.217,11.732-5.153,17.535,1.806.969,4.614,1.752,8.872,1.43a7.333,7.333,0,0,1,7.934,6.592C116.462,229.563,115.724,238.045,110.95,251.03Z"/><path fill="#ffcac0" d="M203.32,150.834a78.939,78.939,0,0,0-9.062-.622,10.681,10.681,0,0,1-10.489-10.661V132.24l-26.445-3.705v11.016a10.681,10.681,0,0,1-10.489,10.661,78.972,78.972,0,0,0-9.062.622c-13.844,1.943-21.3,17.24-24.816,27.647,15.608,9.333,35.242,14.624,57.589,17.191,21.832-3.553,41.47-8.974,57.5-17.472C224.488,167.8,217.04,152.76,203.32,150.834Z"/><path fill="#f7908e" d="M228.038,178.2c-5.718-.685-17.083-.195-25.869,5.984a7.483,7.483,0,0,1-6.455,1.074c-5.622-1.671-18.041-2.839-25.167,5.731-7.321-8.815-19.942-7.334-25.461-5.642a7.245,7.245,0,0,1-6.077-.823c-10.05-6.54-19.868-6.329-26.051-6.043a76.382,76.382,0,0,0-2.628,9.712c26.971,16.689,97.149,15.162,120.433,0A76.836,76.836,0,0,0,228.038,178.2Z"/><path fill="#655baa" d="M196.851,197.527A57.268,57.268,0,0,1,233.8,180.749a18.611,18.611,0,0,1,15.541,6.616l.134.166c3.83,4.789-1.006,11.775-7.322,11.415l-.253-.017s2.457,13.863-16.381,9.346c0,0-7.371,12.305-23.587-.623Z"/><path fill="#655baa" d="M144.243,197.527A57.272,57.272,0,0,0,107.3,180.749a18.611,18.611,0,0,0-15.541,6.616c-.045.055-.09.11-.134.166-3.83,4.789,1,11.775,7.321,11.415l.254-.017s-2.457,13.863,16.38,9.346c0,0,7.371,12.305,23.588-.623Z"/><path fill="#f5eef7" d="M199.556,242.848a17.072,17.072,0,0,1-.151-16.279,53.642,53.642,0,0,1,4.577-7.081,18.9,18.9,0,0,0,1.294-21.378,16.919,16.919,0,0,0-9.605-7.318,25.073,25.073,0,0,0-25.124,5.9,25.074,25.074,0,0,0-25.125-5.9,16.92,16.92,0,0,0-9.6,7.318,18.9,18.9,0,0,0,1.293,21.378,53.743,53.743,0,0,1,4.578,7.081,17.074,17.074,0,0,1-.152,16.279c-.068.123-.136.248-.205.374,0,0-3.836,25.28,29.167,25.28s29.653-24.56,29.653-24.56Q199.848,243.377,199.556,242.848Z"/><path fill="#b1a7c6" d="M200.149,243.944c-.455,3.079-2.882,10.793-15.683,14.871a69.406,69.406,0,0,0-11.3,4.8,4.632,4.632,0,0,1-4.771,0,69.406,69.406,0,0,0-11.3-4.8c-13.973-4.451-15.586-13.234-15.765-15.592-4.691,8.576-11.951,24.4-13.609,42.634h85.643C211.755,268.115,204.842,252.667,200.149,243.944Z"/><path fill="#f7908e" d="M205.766,290.492c-2.761-10.1-6.967-18.548-13.856-23.944-8.829,4.261-19.317,10.322-26.059,19.763l13.235,26.4C185.8,302.946,195.918,294.307,205.766,290.492Z"/><path fill="#f5eef7" d="M250.4,238.93c2.386,5.817,4.655,10.99,6.524,15.108,3.862,8.51,5.157,21,1.4,29.557-15.18,34.589-47.568,42.217-47.568,42.217-2.25-24.516-7.745-45.2-18.842-59.264,17.236-8.207,27.639-12.719,27.639-12.719Z"/><path fill="#ffcac0" d="M158.762,270.956c14.9,7.188,25.613,19.038,23.558,40.111-.883,9.064-10.97,14.385-18.622,9.448a10.739,10.739,0,0,1-4.936-7.8c-1.987-13.409-16.233-19.065-16.233-19.065Z"/><path fill="#f5eef7" d="M90.7,238.93c-2.385,5.817-4.655,10.99-6.524,15.108-3.862,8.51-5.156,21-1.4,29.557,15.18,34.589,54.65,42.392,54.65,42.392,2.371-22.375,9.853-40.406,21.339-55.031-17.236-8.207-37.218-17.127-37.218-17.127Z"/><path fill="#f7908e" d="M183.769,132.24V113.405H157.324v15.13C162.564,131.961,171.334,135.278,183.769,132.24Z"/><path fill="#ffcac0" d="M158.338,57.284s6.906,13.545,24.49,18.23A9.654,9.654,0,0,1,190,84.839v17.915A20.546,20.546,0,0,1,169.453,123.3h0a20.545,20.545,0,0,1-20.545-20.546V90.292S149.244,67.557,158.338,57.284Z"/><circle cx="162.626" cy="90.292" r="3.559" fill="#ef837c"/><circle cx="177.374" cy="90.292" r="3.559" fill="#ef837c"/><path fill="#ffb655" d="M193.432,146.612a3.5,3.5,0,0,0-4.95,1.075,29.408,29.408,0,0,1-6.047,7.12,18.772,18.772,0,0,1-23.175.73,23.245,23.245,0,0,1-6.95-7.547A3.5,3.5,0,0,0,146,151.012c.218.462,5.3,10.823,20.5,16.012v4.01a3.557,3.557,0,0,0,2.77,3.518,3.5,3.5,0,0,0,4.23-3.426v-3.858a35.557,35.557,0,0,0,20.836-15.737A3.641,3.641,0,0,0,193.432,146.612Z"/></svg>