<svg xmlns="http://www.w3.org/2000/svg" xmlns:xlink="http://www.w3.org/1999/xlink" viewBox="0 0 340 340" width="500px" height="500px"><defs><linearGradient id="zlHNUc1lQinlZ7GdZsoSRb" x1="50.311" x2="92.74" y1="241.477" y2="339.328" gradientUnits="userSpaceOnUse"><stop offset="0" stop-color="#bbd1e8"/><stop offset="1" stop-color="#899bc1"/></linearGradient><linearGradient id="zlHNUc1lQinlZ7GdZsoSRa" x1="10.162" x2="121.198" y1="197.526" y2="367.813" gradientUnits="userSpaceOnUse"><stop offset="0" stop-color="#8193b9"/><stop offset="1" stop-color="#58658e"/></linearGradient><linearGradient id="zlHNUc1lQinlZ7GdZsoSRc" x1="118.955" x2="118.955" y1="109.293" y2="153.292" gradientUnits="userSpaceOnUse"><stop offset="0" stop-color="#f7d9cd"/><stop offset="1" stop-color="#f49289"/></linearGradient><linearGradient id="zlHNUc1lQinlZ7GdZsoSRe" x1="154.283" x2="265.319" y1="103.551" y2="273.839" xlink:href="#zlHNUc1lQinlZ7GdZsoSRa"/><linearGradient id="zlHNUc1lQinlZ7GdZsoSRf" x1="170.668" x2="281.704" y1="92.867" y2="263.155" xlink:href="#zlHNUc1lQinlZ7GdZsoSRa"/><linearGradient id="zlHNUc1lQinlZ7GdZsoSRg" x1="128.775" x2="201.726" y1="130.486" y2="212.191" xlink:href="#zlHNUc1lQinlZ7GdZsoSRb"/><linearGradient id="zlHNUc1lQinlZ7GdZsoSRh" x1="131.233" x2="242.27" y1="118.581" y2="288.868" xlink:href="#zlHNUc1lQinlZ7GdZsoSRa"/><linearGradient id="zlHNUc1lQinlZ7GdZsoSRi" x1="162.659" x2="227" y1="193.576" y2="300.654" xlink:href="#zlHNUc1lQinlZ7GdZsoSRb"/><linearGradient id="zlHNUc1lQinlZ7GdZsoSRj" x1="132.934" x2="243.971" y1="117.472" y2="287.759" xlink:href="#zlHNUc1lQinlZ7GdZsoSRa"/><linearGradient id="zlHNUc1lQinlZ7GdZsoSRk" x1="56.994" x2="98.959" y1="239.44" y2="336.223" xlink:href="#zlHNUc1lQinlZ7GdZsoSRb"/><linearGradient id="zlHNUc1lQinlZ7GdZsoSRl" x1="68.959" x2="117.291" y1="235.678" y2="290.369" gradientUnits="userSpaceOnUse"><stop offset="0" stop-color="#96a8cb"/><stop offset="1" stop-color="#6d7aa0"/></linearGradient><linearGradient id="zlHNUc1lQinlZ7GdZsoSRm" x1="85.649" x2="202.511" y1="292.319" y2="342.79" gradientUnits="userSpaceOnUse"><stop offset="0" stop-color="#b5c1db"/><stop offset="1" stop-color="#99a4b7"/></linearGradient><linearGradient id="zlHNUc1lQinlZ7GdZsoSRn" x1="121.717" x2="189.01" y1="251.287" y2="346.219" gradientUnits="userSpaceOnUse"><stop offset="0" stop-color="#e9f4f7"/><stop offset="1" stop-color="#cbd8ea"/></linearGradient><linearGradient id="zlHNUc1lQinlZ7GdZsoSRo" x1="82.274" x2="163.843" y1="231.96" y2="262.619" gradientUnits="userSpaceOnUse"><stop offset="0" stop-color="#e9f4f7"/><stop offset="1" stop-color="#bfc9d9"/></linearGradient><linearGradient id="zlHNUc1lQinlZ7GdZsoSRp" x1="85.005" x2="132.781" y1="138.87" y2="209.877" xlink:href="#zlHNUc1lQinlZ7GdZsoSRb"/><linearGradient id="zlHNUc1lQinlZ7GdZsoSRq" x1="95.192" x2="206.229" y1="142.082" y2="312.369" xlink:href="#zlHNUc1lQinlZ7GdZsoSRa"/><linearGradient id="zlHNUc1lQinlZ7GdZsoSRr" x1="79.275" x2="131.982" y1="7.3" y2="79.909" xlink:href="#zlHNUc1lQinlZ7GdZsoSRb"/><linearGradient id="zlHNUc1lQinlZ7GdZsoSRs" x1="68.334" x2="140.931" y1="9.311" y2="85.552" xlink:href="#zlHNUc1lQinlZ7GdZsoSRa"/><linearGradient id="zlHNUc1lQinlZ7GdZsoSRt" x1="108.272" x2="108.272" y1="58.855" y2="149.419" xlink:href="#zlHNUc1lQinlZ7GdZsoSRc"/><linearGradient id="zlHNUc1lQinlZ7GdZsoSRu" x1="65.463" x2="129.573" y1="253.665" y2="195.503" xlink:href="#zlHNUc1lQinlZ7GdZsoSRc"/><linearGradient id="zlHNUc1lQinlZ7GdZsoSRv" x1="109.44" x2="216.188" y1="159.038" y2="260.635" xlink:href="#zlHNUc1lQinlZ7GdZsoSRb"/><linearGradient id="zlHNUc1lQinlZ7GdZsoSRd" x1="142.416" x2="142.416" y1="259.039" y2="302.04" gradientUnits="userSpaceOnUse"><stop offset="0" stop-color="#f77294"/><stop offset="1" stop-color="#f65a81"/></linearGradient><linearGradient id="zlHNUc1lQinlZ7GdZsoSRw" x1="191.659" x2="258.287" y1="173.43" y2="284.315" xlink:href="#zlHNUc1lQinlZ7GdZsoSRb"/><linearGradient id="zlHNUc1lQinlZ7GdZsoSRx" x1="157.1" x2="157.1" y1="169.446" y2="194.741" xlink:href="#zlHNUc1lQinlZ7GdZsoSRd"/><linearGradient id="zlHNUc1lQinlZ7GdZsoSRy" x1="13.987" x2="125.023" y1="195.032" y2="365.319" xlink:href="#zlHNUc1lQinlZ7GdZsoSRa"/><linearGradient id="zlHNUc1lQinlZ7GdZsoSRz" x1="159.111" x2="237.514" y1="90.652" y2="265.55" xlink:href="#zlHNUc1lQinlZ7GdZsoSRa"/></defs><path fill="url(#zlHNUc1lQinlZ7GdZsoSRb)" d="M59.172,310.005v7.568A12.424,12.424,0,0,0,71.6,330h28.612V298.306Z"/><polygon fill="url(#zlHNUc1lQinlZ7GdZsoSRa)" points="59.172 310.005 100.208 321.262 100.208 298.306 59.172 298.306 59.172 310.005"/><polygon fill="url(#zlHNUc1lQinlZ7GdZsoSRc)" points="125.136 136.338 109.927 142.328 109.927 114.819 127.983 112.714 125.136 136.338"/><path fill="#e7817c" d="M109.927,114.819a59.408,59.408,0,0,0,9.887.718,5.2,5.2,0,0,1,5.322,5.176v15.625l10.636-4.189V98.486H109.927Z"/><path fill="url(#zlHNUc1lQinlZ7GdZsoSRe)" d="M269.762,243.067l-.775,21.613a15.783,15.783,0,0,1-13.412,15.052,36.349,36.349,0,0,1-14.779-.947l-2.021-50.421,22-4.042Z"/><path fill="url(#zlHNUc1lQinlZ7GdZsoSRf)" d="M222.634,172.5s36.885-5.675,41.627,38.643c1.5,14.02,12.754,18.481,17.4,21.653a9.129,9.129,0,0,1,2.479,12.717h0c-2.771,4.035-7.815,4.317-12.368,2.52-9.008-3.556-25.134-13.494-27.983-33.558H225.822Z"/><path fill="url(#zlHNUc1lQinlZ7GdZsoSRg)" d="M141.806,120.407s2.3-3.085,11.016-5.553a57.372,57.372,0,0,1,66.413,29.022c5.025,9.758,9.009,22.457,10.687,38.972L175.5,273.494Z"/><path fill="url(#zlHNUc1lQinlZ7GdZsoSRh)" d="M148.528,121.958a33.36,33.36,0,0,0-5.961,1.908L175.5,273.494l55.285-11.837V200.668a176.4,176.4,0,0,0-.857-17.752c-37.315,4.615-37.5-17.545-37.5-17.545l-2.016-18.145C183.292,114.666,148.528,121.958,148.528,121.958Z"/><path fill="url(#zlHNUc1lQinlZ7GdZsoSRi)" d="M192.43,300.731h25.486q.824,0,1.636-.051c14.345-4.456,19.287-15.842,20.7-35.589-10.556-9.46-26.573-11.835-47.818-12.88Z"/><path fill="url(#zlHNUc1lQinlZ7GdZsoSRj)" d="M192.332,233.154l.063,21.594a324.067,324.067,0,0,0,31.778,7.145,9.872,9.872,0,0,1,8.119,10.08c-.336,8.958-2.618,22.44-12.642,28.7a25.868,25.868,0,0,0,24.159-25.884l-.109-37.653Z"/><path fill="url(#zlHNUc1lQinlZ7GdZsoSRk)" d="M72.967,253.244C65.042,258.653,57.752,268.98,58.8,288.69c0,0-4.688,2.557-4.521,7.752a5.989,5.989,0,0,0,6.008,5.748H92.274V256.513Z"/><path fill="url(#zlHNUc1lQinlZ7GdZsoSRl)" d="M91.181,247.291a35.743,35.743,0,0,0-18.212,5.955c1.952,3.467,7.066,9.235,19.305,8.411v-5.144Z"/><path fill="url(#zlHNUc1lQinlZ7GdZsoSRm)" d="M91.181,306.238v14.731A9.028,9.028,0,0,0,100.208,330h83.2a9.028,9.028,0,0,0,9.027-9.028V306.238Z"/><path fill="url(#zlHNUc1lQinlZ7GdZsoSRn)" d="M179.09,316.433H104.521a16.564,16.564,0,0,1-16.563-16.564v-38.2l20.366-14.375,75.2-4.862a19.04,19.04,0,0,1,12.128,17.742v39.7A16.564,16.564,0,0,1,179.09,316.433Z"/><path fill="url(#zlHNUc1lQinlZ7GdZsoSRo)" d="M183.519,242.446a18.964,18.964,0,0,0-6.9-1.309H106.992a19.034,19.034,0,0,0-19.034,19.034v1.5a32.072,32.072,0,0,0,4.316-.009s5.031-.2,10.24-6.2a13.382,13.382,0,0,1,10.079-4.706H164.72S177.223,251.773,183.519,242.446Z"/><path fill="url(#zlHNUc1lQinlZ7GdZsoSRp)" d="M117.213,130.167s-32.295,18.954-36.337,62.081l42.547,13,12.349-50.442Z"/><path fill="url(#zlHNUc1lQinlZ7GdZsoSRq)" d="M126.567,132.335c-9.745,13.045-18.281,31.816-20.73,58.524l-24.961,1.389c-.238,2.712-.375,5.512-.376,8.42l60.032,19.66,3.9-83.854Z"/><path fill="#34363a" d="M80.5,200.667h20.241a0,0,0,0,1,0,0v20.958a0,0,0,0,1,0,0H80.5a5.325,5.325,0,0,1-5.325-5.325V205.992A5.325,5.325,0,0,1,80.5,200.667Z"/><path fill="#34363a" d="M145.688,71.118V86.445s3.184,24.9-38.086,23.759l24.345-39.086Z"/><path fill="url(#zlHNUc1lQinlZ7GdZsoSRr)" d="M130.912,13.94a46.092,46.092,0,0,0-19.032-3.931S80.068,8.5,73.055,38.48A147.2,147.2,0,0,1,67.577,57s12.136,30.809,54.255,6.448S130.912,13.94,130.912,13.94Z"/><path fill="url(#zlHNUc1lQinlZ7GdZsoSRs)" d="M150.7,38.481c-3.211-13.726-11.621-20.84-19.8-24.532,3.875,5.625,5.35,12.95,2.527,22.5C123.378,70.469,80.324,60.709,67.577,57c-1.026,2.711-1.983,4.874-2.818,6.573a7.353,7.353,0,0,0,3.421,9.86c6.967,3.494,20.264,7.751,43.7,7.751s36.732-4.257,43.7-7.751A7.352,7.352,0,0,0,159,63.569C156.772,59.037,153.68,51.2,150.7,38.481Z"/><path fill="#34363a" d="M104.427,39.083h6.93a8.511,8.511,0,0,1,8.511,8.511V56.1a0,0,0,0,1,0,0H95.916a0,0,0,0,1,0,0V47.594A8.511,8.511,0,0,1,104.427,39.083Z"/><path fill="url(#zlHNUc1lQinlZ7GdZsoSRt)" d="M107.6,110.2h-2.315A23.678,23.678,0,0,1,81.608,86.525V71.689C82.886,57.721,93.852,54.06,110.674,56.63c14.61-.784,22.729,6.829,24.263,22.962v3.277A27.335,27.335,0,0,1,107.6,110.2Z"/><path fill="#34363a" d="M151.62,122.7l3.522,6.682a59.407,59.407,0,0,0-25.868,15.65,48.156,48.156,0,0,0-13.09,33.275v45.1H97.466V178.512a68.646,68.646,0,0,1,9.749-35.729,65.034,65.034,0,0,1,28.542-25.389A12.117,12.117,0,0,1,151.62,122.7Z"/><path fill="url(#zlHNUc1lQinlZ7GdZsoSRu)" d="M103.89,212.171c-8.913,1.414-22.758,5.954-27.934,20.4a13.494,13.494,0,0,0,.946,11.118s14.654,7.059,23.839-6.911S103.89,212.171,103.89,212.171Z"/><path fill="#e7817c" d="M103.89,212.171,102.875,222.4a23.684,23.684,0,0,1-25.964,21.29,13.7,13.7,0,0,0,21.252,3.473,14.851,14.851,0,0,1,10.109-4.094l3.608-31.519A46.013,46.013,0,0,0,103.89,212.171Z"/><path fill="url(#zlHNUc1lQinlZ7GdZsoSRv)" d="M156.738,127.781h0a23.3,23.3,0,0,0-23.3,23.3v8.552c2.829,13.525,3.4,26.035,0,36.753v5.136l2.337,7.911-12.3-2.27H115.45a7.178,7.178,0,0,0-7.178,7.178v28.724h57.776a13.992,13.992,0,0,0,13.992-13.992V196.388c-1.523-13.346-1.864-25.842,0-36.753v-8.551A23.3,23.3,0,0,0,156.738,127.781Z"/><path fill="#f7f7f7" d="M133.435,196.388a224.2,224.2,0,0,0,46.6,0V159.635a288.234,288.234,0,0,1-46.6,0Z"/><polygon fill="url(#zlHNUc1lQinlZ7GdZsoSRd)" points="160.932 273.911 149.166 273.911 149.166 262.145 135.666 262.145 135.666 273.911 123.9 273.911 123.9 287.411 135.666 287.411 135.666 299.178 149.166 299.178 149.166 287.411 160.932 287.411 160.932 273.911"/><rect width="56.479" height="55.071" x="192.43" y="194.175" fill="url(#zlHNUc1lQinlZ7GdZsoSRw)" rx="16.167"/><polygon fill="url(#zlHNUc1lQinlZ7GdZsoSRx)" points="168.739 174.502 161.819 174.502 161.819 167.582 152.382 167.582 152.382 174.502 145.461 174.502 145.461 183.939 152.382 183.939 152.382 190.859 161.819 190.859 161.819 183.939 168.739 183.939 168.739 174.502"/><circle cx="73.827" cy="286.803" r="3.658" fill="url(#zlHNUc1lQinlZ7GdZsoSRy)"/><circle cx="221.766" cy="230.421" r="3.658" fill="url(#zlHNUc1lQinlZ7GdZsoSRz)"/><path fill="#f49289" d="M120.729,52.139H95.815A14.208,14.208,0,0,0,81.608,66.347v5.342s1.677-12.237,12.479-12.237h21.388A17.849,17.849,0,0,1,130,66.682a29.991,29.991,0,0,1,4.935,12.91V66.347A14.208,14.208,0,0,0,120.729,52.139Z"/><path fill="#34363a" d="M250.593,283.6a40.55,40.55,0,0,1-6.88-.6,3.5,3.5,0,0,1,1.19-6.9,31.8,31.8,0,0,0,10.151.169,12.29,12.29,0,0,0,10.436-11.716l.59-16.491a3.5,3.5,0,1,1,7,.25l-.591,16.492A19.291,19.291,0,0,1,256.1,283.193,37.013,37.013,0,0,1,250.593,283.6Z"/><path fill="#34363a" d="M276.973,252.608a17.732,17.732,0,0,1-6.489-1.315c-4.606-1.818-16.134-7.305-23.695-18.951a3.5,3.5,0,1,1,5.871-3.811c6.461,9.951,16.415,14.679,20.394,16.251,1.355.534,5.951,2.025,8.2-1.246a5.482,5.482,0,0,0,.874-4.134,5.763,5.763,0,0,0-2.442-3.712c-.6-.409-1.37-.87-2.261-1.4-5.677-3.4-15.178-9.083-16.642-22.768-3.141-29.364-21.153-34.949-31.609-35.664a3.5,3.5,0,0,1,.477-6.983c10.18.7,34.269,6.173,38.092,41.9,1.093,10.215,8.135,14.429,13.276,17.506.948.567,1.843,1.1,2.616,1.631a12.715,12.715,0,0,1,5.374,8.2,12.432,12.432,0,0,1-1.985,9.383A11.788,11.788,0,0,1,276.973,252.608Z"/><path fill="#34363a" d="M230.635,196.609a3.5,3.5,0,0,1-3.494-3.361c-.752-18.961-4.458-35.033-11.018-47.769a54.093,54.093,0,0,0-57.78-28.335c-.064.012-.129.022-.193.031-2.8.374-8.093,1.59-10.4,3.254a3.5,3.5,0,0,1-4.1-5.674c4.349-3.142,12.177-4.327,13.477-4.506a61.135,61.135,0,0,1,65.217,32.024c7.03,13.651,11,30.708,11.788,50.7a3.5,3.5,0,0,1-3.359,3.635Q230.706,196.609,230.635,196.609Z"/><path fill="#34363a" d="M217.915,304.231H196.541a3.5,3.5,0,0,1,0-7h21.374a22.4,22.4,0,0,0,22.371-22.37V245.729a3.5,3.5,0,1,1,7,0v29.132A29.4,29.4,0,0,1,217.915,304.231Z"/><path fill="#34363a" d="M192.43,252.593a3.5,3.5,0,0,1-3.5-3.5V233.079a3.5,3.5,0,0,1,7,0v16.014A3.5,3.5,0,0,1,192.43,252.593Z"/><path fill="#34363a" d="M100.208,333.5H71.6a15.942,15.942,0,0,1-15.924-15.924V302.83a3.5,3.5,0,0,1,7,0v14.743A8.934,8.934,0,0,0,71.6,326.5h28.612a3.5,3.5,0,1,1,0,7Z"/><path fill="#34363a" d="M87.958,305.69H60.289a9.436,9.436,0,0,1-9.506-9.135,12.129,12.129,0,0,1,4.474-9.636c-.194-14.413,3.439-25.438,10.81-32.791a31.759,31.759,0,0,1,21.938-9.067l3.172,0h0a3.5,3.5,0,0,1,0,7l-3.223,0c-.041,0-.092,0-.138,0a25.052,25.052,0,0,0-16.889,7.1c-6.2,6.246-9.11,16.139-8.635,29.4a3.5,3.5,0,0,1-1.822,3.2c-.08.047-2.793,1.648-2.7,4.567a2.5,2.5,0,0,0,2.51,2.36H87.958a3.5,3.5,0,1,1,0,7Z"/><path fill="#34363a" d="M183.4,333.5H100.208a12.542,12.542,0,0,1-12.527-12.528V310.714a3.5,3.5,0,0,1,7,0v10.255a5.534,5.534,0,0,0,5.527,5.528h83.2a5.534,5.534,0,0,0,5.527-5.528V310.4a3.5,3.5,0,0,1,7,0v10.571A12.542,12.542,0,0,1,183.4,333.5Z"/><path fill="#34363a" d="M179.09,319.933H104.521a20.086,20.086,0,0,1-20.063-20.064v-39.7a22.559,22.559,0,0,1,22.534-22.534H176.62a22.559,22.559,0,0,1,22.533,22.534v39.7A20.086,20.086,0,0,1,179.09,319.933Zm-72.1-75.3a15.552,15.552,0,0,0-15.534,15.534v39.7a13.079,13.079,0,0,0,13.063,13.064H179.09a13.079,13.079,0,0,0,13.063-13.064v-39.7a15.551,15.551,0,0,0-15.533-15.534Z"/><path fill="#34363a" d="M109.927,138.3a3.5,3.5,0,0,1-3.5-3.5v-24a3.5,3.5,0,0,1,7,0v24A3.5,3.5,0,0,1,109.927,138.3Z"/><path fill="#34363a" d="M135.772,119.746a3.5,3.5,0,0,1-3.5-3.5v-11.59a3.5,3.5,0,0,1,7,0v11.59A3.5,3.5,0,0,1,135.772,119.746Z"/><path fill="#34363a" d="M80.5,203.462h-.026A3.5,3.5,0,0,1,77,199.937c.369-50.564,37.964-70.749,39.564-71.583a3.5,3.5,0,0,1,3.241,6.2c-1.472.775-35.468,19.213-35.805,65.43A3.5,3.5,0,0,1,80.5,203.462Z"/><path fill="#34363a" d="M81.957,225.126H80.5a8.835,8.835,0,0,1-8.825-8.825V205.992a8.835,8.835,0,0,1,8.825-8.824H97.054a3.5,3.5,0,0,1,0,7H80.5a1.827,1.827,0,0,0-1.825,1.824V216.3a1.827,1.827,0,0,0,1.825,1.825h1.457a3.5,3.5,0,0,1,0,7Z"/><path fill="#34363a" d="M107.6,113.7a3.5,3.5,0,0,1,0-7c14.07,0,24.457-3.136,30.038-9.067A15.733,15.733,0,0,0,142.2,86.692c0-.071-.009-.176-.009-.247V78.026a3.5,3.5,0,0,1,7,0v8.326a22.888,22.888,0,0,1-6.287,15.905C135.889,109.853,124.012,113.7,107.6,113.7Z"/><path fill="#34363a" d="M135.768,82.96a3.5,3.5,0,0,1-.559-6.955,67.606,67.606,0,0,0,19.2-5.7,3.874,3.874,0,0,0,1.849-5.187c-2.192-4.46-5.457-12.562-8.563-25.835-6.249-26.709-34.077-25.828-35.258-25.772-.106,0-.218,0-.324,0-1.173-.048-29-.937-35.25,25.773C73.761,52.549,70.5,60.652,68.3,65.113A3.873,3.873,0,0,0,70.152,70.3a57.548,57.548,0,0,0,11.817,4.2,3.5,3.5,0,0,1-1.692,6.793,64.524,64.524,0,0,1-13.262-4.734,10.811,10.811,0,0,1-4.994-14.534c2.032-4.133,5.075-11.711,8.029-24.341C77.368,6.409,109.672,6.45,112.283,6.508c2.613-.058,34.915-.1,42.233,31.175,2.954,12.631,6,20.209,8.028,24.342a10.809,10.809,0,0,1-4.993,14.533,74.47,74.47,0,0,1-21.215,6.355A3.548,3.548,0,0,1,135.768,82.96Z"/><path fill="#34363a" d="M95.916,55.173a3.5,3.5,0,0,1-3.5-3.5V47.594a12.024,12.024,0,0,1,12.011-12.011h6.93a12.024,12.024,0,0,1,12.011,12.011v3.895a3.5,3.5,0,1,1-7,0V47.594a5.017,5.017,0,0,0-5.011-5.011h-6.93a5.017,5.017,0,0,0-5.011,5.011v4.079A3.5,3.5,0,0,1,95.916,55.173Z"/><path fill="#34363a" d="M107.6,113.7h-2.314A27.209,27.209,0,0,1,78.108,86.525V66.347A17.727,17.727,0,0,1,95.815,48.639h24.914a17.727,17.727,0,0,1,17.707,17.708V82.869A30.869,30.869,0,0,1,107.6,113.7ZM95.815,55.639A10.719,10.719,0,0,0,85.108,66.347V86.525A20.2,20.2,0,0,0,105.287,106.7H107.6a23.862,23.862,0,0,0,23.835-23.835V66.347a10.719,10.719,0,0,0-10.707-10.708Z"/><path fill="#34363a" d="M100.741,215.671a3.5,3.5,0,0,1-3.5-3.5V178.512c0-14.346,3.262-26.98,9.7-37.549,5.3-8.714,11.783-17.83,27.318-25.1,7.35-3.437,14.453-1.828,20,4.53a3.517,3.517,0,0,1,.46.669l2.457,4.663a3.5,3.5,0,0,1-6.192,3.264l-2.259-4.285c-3.431-3.768-7.1-4.561-11.5-2.5-13.78,6.444-19.36,14.271-24.305,22.4-5.756,9.456-8.675,20.865-8.675,33.909v33.659A3.5,3.5,0,0,1,100.741,215.671Z"/><path fill="#34363a" d="M116.184,210.047a3.5,3.5,0,0,1-3.5-3.5V178.306a51.385,51.385,0,0,1,14.057-35.691,59.513,59.513,0,0,1,8.241-7.164,3.5,3.5,0,1,1,4.1,5.676,52.569,52.569,0,0,0-7.272,6.319,44.416,44.416,0,0,0-12.123,30.86v28.241A3.5,3.5,0,0,1,116.184,210.047Z"/><path fill="#34363a" d="M81.452,252.064a3.487,3.487,0,0,1-1.9-.564q-.437-.284-.86-.6A17.221,17.221,0,0,1,72.661,231.4c6.851-19.124,27.008-22.612,35.357-23.224a3.5,3.5,0,0,1,.512,6.982c-6.983.512-23.815,3.349-29.28,18.6a10.178,10.178,0,0,0,3.6,11.518q.254.186.514.355a3.5,3.5,0,0,1-1.909,6.436Z"/><path fill="#34363a" d="M174.24,243.922a3.5,3.5,0,0,1-2.054-6.337,10.529,10.529,0,0,0,4.354-8.51V196.388a3.5,3.5,0,0,1,7,0v32.687a17.552,17.552,0,0,1-7.252,14.183A3.486,3.486,0,0,1,174.24,243.922Z"/><path fill="#34363a" d="M108.272,244.586a3.5,3.5,0,0,1-3.5-3.5V214.343a10.69,10.69,0,0,1,10.679-10.678h14.484v-7.277a3.5,3.5,0,1,1,7,0v10.777a3.5,3.5,0,0,1-3.5,3.5H115.451a3.682,3.682,0,0,0-3.679,3.678v26.743A3.5,3.5,0,0,1,108.272,244.586Z"/><path fill="#34363a" d="M180.04,163.135a3.5,3.5,0,0,1-3.5-3.5v-8.551a19.8,19.8,0,1,0-39.6,0v8.551a3.5,3.5,0,0,1-7,0v-8.551a26.8,26.8,0,1,1,53.6,0v8.551A3.5,3.5,0,0,1,180.04,163.135Z"/><path fill="#34363a" d="M156.738,201.1a228.2,228.2,0,0,1-23.665-1.228,3.5,3.5,0,0,1-3.138-3.481V159.635a3.5,3.5,0,0,1,3.783-3.489,286.058,286.058,0,0,0,46.04,0,3.5,3.5,0,0,1,3.782,3.489v36.753a3.5,3.5,0,0,1-3.137,3.481A228.228,228.228,0,0,1,156.738,201.1Zm-19.8-7.886a221.8,221.8,0,0,0,39.6,0V163.405a293.742,293.742,0,0,1-39.6,0Z"/><path fill="#34363a" d="M232.742,252.746H208.6a19.69,19.69,0,0,1-19.667-19.667V210.342A19.69,19.69,0,0,1,208.6,190.675h24.145a19.69,19.69,0,0,1,19.667,19.667v22.737A19.69,19.69,0,0,1,232.742,252.746ZM208.6,197.675a12.681,12.681,0,0,0-12.667,12.667v22.737A12.681,12.681,0,0,0,208.6,245.746h24.145a12.681,12.681,0,0,0,12.667-12.667V210.342a12.681,12.681,0,0,0-12.667-12.667Z"/><path fill="#34363a" d="M145.13,219.621a3.48,3.48,0,0,1-2.125-.722l-11.7-8.956a3.5,3.5,0,0,1,4.255-5.557l11.7,8.956a3.5,3.5,0,0,1-2.131,6.279Z"/><circle cx="99.572" cy="77.355" r="3.658" fill="#34363a"/><circle cx="116.212" cy="77.355" r="3.658" fill="#34363a"/><path fill="#34363a" d="M149.166,302.678h-13.5a3.5,3.5,0,0,1-3.5-3.5v-8.267H123.9a3.5,3.5,0,0,1-3.5-3.5v-13.5a3.5,3.5,0,0,1,3.5-3.5h8.266v-8.266a3.5,3.5,0,0,1,3.5-3.5h13.5a3.5,3.5,0,0,1,3.5,3.5v8.266h8.266a3.5,3.5,0,0,1,3.5,3.5v13.5a3.5,3.5,0,0,1-3.5,3.5h-8.266v8.267A3.5,3.5,0,0,1,149.166,302.678Zm-10-7h6.5v-8.267a3.5,3.5,0,0,1,3.5-3.5h8.266v-6.5h-8.266a3.5,3.5,0,0,1-3.5-3.5v-8.266h-6.5v8.266a3.5,3.5,0,0,1-3.5,3.5H127.4v6.5h8.266a3.5,3.5,0,0,1,3.5,3.5Z"/></svg>