<svg xmlns="http://www.w3.org/2000/svg" xmlns:xlink="http://www.w3.org/1999/xlink" viewBox="0 0 340 340" width="500px" height="500px"><defs><linearGradient id="Jizw8O63pM07xkZ-tqsoya" x1="301.988" x2="301.988" y1="198.076" y2="339.868" gradientUnits="userSpaceOnUse"><stop offset="0" stop-color="#e08677"/><stop offset="1" stop-color="#ad5946"/></linearGradient><linearGradient id="Jizw8O63pM07xkZ-tqsoyh" x1="186.487" x2="186.487" y1="197.371" y2="340.388" xlink:href="#Jizw8O63pM07xkZ-tqsoya"/><linearGradient id="Jizw8O63pM07xkZ-tqsoyi" x1="288.516" x2="288.516" y1="197.371" y2="340.388" xlink:href="#Jizw8O63pM07xkZ-tqsoya"/><linearGradient id="Jizw8O63pM07xkZ-tqsoyf" x1="236.347" x2="236.347" y1="105.262" y2="366.048" gradientUnits="userSpaceOnUse"><stop offset="0" stop-color="#f4aa8c"/><stop offset="1" stop-color="#e38f6f"/></linearGradient><linearGradient id="Jizw8O63pM07xkZ-tqsoyd" x1="105.486" x2="105.486" y1="260.181" y2="340.876" gradientUnits="userSpaceOnUse"><stop offset="0" stop-color="#70728e"/><stop offset="1" stop-color="#4c4e61"/></linearGradient><linearGradient id="Jizw8O63pM07xkZ-tqsoyc" x1="88.792" x2="88.792" y1="107.559" y2="232.273" gradientUnits="userSpaceOnUse"><stop offset="0" stop-color="#a2b6e7"/><stop offset="1" stop-color="#7487ba"/></linearGradient><linearGradient id="Jizw8O63pM07xkZ-tqsoyb" x1="74.476" x2="128.781" y1="121.508" y2="284.424" gradientUnits="userSpaceOnUse"><stop offset="0" stop-color="#6a729f"/><stop offset="1" stop-color="#495179"/></linearGradient><linearGradient id="Jizw8O63pM07xkZ-tqsoyj" x1="95.902" x2="150.207" y1="114.366" y2="277.282" xlink:href="#Jizw8O63pM07xkZ-tqsoyb"/><linearGradient id="Jizw8O63pM07xkZ-tqsoye" x1="90.305" x2="90.305" y1="66.979" y2="103.703" gradientUnits="userSpaceOnUse"><stop offset="0" stop-color="#ffcac0"/><stop offset="1" stop-color="#e5837c"/></linearGradient><linearGradient id="Jizw8O63pM07xkZ-tqsoyk" x1="84.887" x2="84.887" y1="9.686" y2="46.36" xlink:href="#Jizw8O63pM07xkZ-tqsoyc"/><linearGradient id="Jizw8O63pM07xkZ-tqsoyl" x1="65.578" x2="118.137" y1="34.617" y2="59.592" xlink:href="#Jizw8O63pM07xkZ-tqsoyb"/><linearGradient id="Jizw8O63pM07xkZ-tqsoym" x1="236.114" x2="236.114" y1="197.371" y2="340.388" xlink:href="#Jizw8O63pM07xkZ-tqsoya"/><linearGradient id="Jizw8O63pM07xkZ-tqsoyn" x1="237.396" x2="237.396" y1="197.371" y2="340.388" xlink:href="#Jizw8O63pM07xkZ-tqsoya"/><linearGradient id="Jizw8O63pM07xkZ-tqsoyo" x1="126.624" x2="135.139" y1="190.812" y2="239.064" xlink:href="#Jizw8O63pM07xkZ-tqsoyd"/><linearGradient id="Jizw8O63pM07xkZ-tqsoyp" x1="65.931" x2="74.446" y1="201.523" y2="249.774" xlink:href="#Jizw8O63pM07xkZ-tqsoyd"/><linearGradient id="Jizw8O63pM07xkZ-tqsoyq" x1="115.049" x2="124.037" y1="132.584" y2="177.051" xlink:href="#Jizw8O63pM07xkZ-tqsoyd"/><linearGradient id="Jizw8O63pM07xkZ-tqsoyr" x1="64.545" x2="73.533" y1="142.792" y2="187.259" xlink:href="#Jizw8O63pM07xkZ-tqsoyd"/><linearGradient id="Jizw8O63pM07xkZ-tqsoys" x1="42.349" x2="67.663" y1="181.083" y2="211.328" xlink:href="#Jizw8O63pM07xkZ-tqsoye"/><linearGradient id="Jizw8O63pM07xkZ-tqsoyt" x1="53.41" x2="53.41" y1="260.637" y2="314.241" xlink:href="#Jizw8O63pM07xkZ-tqsoyd"/><linearGradient id="Jizw8O63pM07xkZ-tqsoyu" x1="234.586" x2="234.586" y1="89.411" y2="368.429" xlink:href="#Jizw8O63pM07xkZ-tqsoyf"/><linearGradient id="Jizw8O63pM07xkZ-tqsoyv" x1="233.631" x2="233.631" y1="126.53" y2="230.762" xlink:href="#Jizw8O63pM07xkZ-tqsoya"/><linearGradient id="Jizw8O63pM07xkZ-tqsoyg" x1="233.741" x2="233.741" y1="132.245" y2="105.288" gradientUnits="userSpaceOnUse"><stop offset="0" stop-color="#e58e7a"/><stop offset="1" stop-color="#c4705d"/></linearGradient><linearGradient id="Jizw8O63pM07xkZ-tqsoyw" x1="52.74" x2="52.74" y1="260.181" y2="340.876" xlink:href="#Jizw8O63pM07xkZ-tqsoyd"/><linearGradient id="Jizw8O63pM07xkZ-tqsoyx" x1="235.008" x2="235.008" y1="132.245" y2="105.288" xlink:href="#Jizw8O63pM07xkZ-tqsoyg"/><linearGradient id="Jizw8O63pM07xkZ-tqsoyy" x1="230.098" x2="238.266" y1="85.58" y2="115.36" xlink:href="#Jizw8O63pM07xkZ-tqsoye"/></defs><path fill="#34363a" d="M54.83,65.379h8.426a0,0,0,0,1,0,0V90.587a0,0,0,0,1,0,0H54.83a9.842,9.842,0,0,1-9.842-9.842V75.222A9.842,9.842,0,0,1,54.83,65.379Z"/><path fill="#34363a" d="M127.2,65.379h8.426a0,0,0,0,1,0,0V90.587a0,0,0,0,1,0,0H127.2a9.842,9.842,0,0,1-9.842-9.842V75.222A9.842,9.842,0,0,1,127.2,65.379Z" transform="rotate(180 126.487 77.983)"/><path fill="#34363a" d="M151.835,124.015s11.936,15.778,28.3,26.8a11.153,11.153,0,0,0,12.207.09l12.153-7.876,1.225,43.287a55.458,55.458,0,0,1-14.18,7.749c-4.723,1.748-10.992.418-15.711-1.337-9.81-3.648-28.867-11.509-34.866-19.505C140.96,173.218,137.907,146.066,151.835,124.015Z"/><path fill="url(#Jizw8O63pM07xkZ-tqsoya)" d="M293.708,180.884c4.372,11.24,16.842,52.281-20.583,80.655l3.084,18.153s71.446-16.814,50.944-78.561a1.528,1.528,0,0,0-2.481-.657l-6.419,5.88s-1.784-20.224-22.6-27.45A1.527,1.527,0,0,0,293.708,180.884Z"/><path fill="url(#Jizw8O63pM07xkZ-tqsoyh)" d="M200.248,285.514s-4.408-19.272-19.262-20.405c0,0-16.161-3.264-7.836,33.464l3.428,19.1a10.282,10.282,0,0,0-4.91,7.455,5.475,5.475,0,0,0,5.453,6.221h25.085Z"/><path fill="url(#Jizw8O63pM07xkZ-tqsoyi)" d="M273.617,285.514s4.772-19.272,20.855-20.405c0,0,17.5-3.264,8.483,33.464l-3.712,19.1a10.406,10.406,0,0,1,5.317,7.455c.533,3.286-2.307,6.221-5.9,6.221H271.5Z"/><path fill="url(#Jizw8O63pM07xkZ-tqsoyf)" d="M277.063,318.59l4.58-75.688c.786-15-1.2-25.838-3.183-32.608l-84.7,1.694c-1.807,6.828-3.435,17.107-2.711,30.914l4.58,75.688s-7.1,4.865-4.756,13.409H209.6c19.092-.932,34.179-1.388,55.591,0h16.628C284.165,323.455,277.063,318.59,277.063,318.59Z"/><path fill="#34363a" d="M37.209,124.015s-21.968,26.817-26.817,80.451c0,0-3.08,21.509.458,37.246,1.939,8.63,9.453,15.109,18.3,14.933a17.568,17.568,0,0,0,8.063-2.1l23.35-70.111S52.071,148.248,37.209,124.015Z"/><path fill="url(#Jizw8O63pM07xkZ-tqsoyd)" d="M108.223,282.8h-8.5a9.222,9.222,0,0,0-9.222,9.222V317.1a16.756,16.756,0,0,0,2.9,8.436,13.919,13.919,0,0,0,11.484,5.815h0a14.248,14.248,0,0,0,13.384-9.364l2.2-6.04Z"/><path fill="#34363a" d="M72.37,268.1l4.734-4.015a14.568,14.568,0,0,1,9.421-3.458h0a14.552,14.552,0,0,1,13.686,9.58c3.6,9.914,9.161,26.441,14.241,44.45a22.9,22.9,0,0,0,22.034,16.687h0a22.867,22.867,0,0,0,22.894-22.681c.111-18.494-1.846-45.923-11.588-73.152L88.824,220.446H65.674S65.088,253.519,72.37,268.1Z"/><polygon fill="#34363a" points="68.175 108.416 79.489 101.345 106.36 100.284 112.847 109.654 97.167 161.769 86.561 162.955 68.175 108.416"/><path fill="url(#Jizw8O63pM07xkZ-tqsoyc)" d="M145.232,115.252l-23.695-5.092-21.224,17.7a231.6,231.6,0,0,0-6.387,28.715A223.837,223.837,0,0,0,82.7,125.53L62.142,105.067a66.289,66.289,0,0,0-26.42,12.623,8.986,8.986,0,0,0-2.3,11.273c22.018,41.119,30.9,109.374,30.9,109.374,15.055-1.995,24.649-13.472,28.7-19.459v0c0,22.762,38.765,16.831,38.765,16.831Z"/><path fill="url(#Jizw8O63pM07xkZ-tqsoyb)" d="M82.7,125.531c-3.188-7.221-6.192-13.194-8.243-17.089a7.988,7.988,0,0,0-8.421-4.169c-1.337.235-2.624.511-3.886.806C62.2,105.29,65.889,119.61,82.7,125.531Z"/><path fill="url(#Jizw8O63pM07xkZ-tqsoyj)" d="M150.32,113.1a75.778,75.778,0,0,0-17.116-7.722l-.007-.006C119.692,101.253,110.481,103,110.481,103c-4.276,7.361-7.611,16.23-10.167,24.862a40.684,40.684,0,0,0,24.852-10.928,5.324,5.324,0,0,1,5.147-1.26l.559.161a5.3,5.3,0,0,1,3.818,5.527l-3.5,43.174-42.817,2.5c-.3-4.69-.819-8.872-1.368-12.341a12.622,12.622,0,0,0-12.5-10.631l-3.248,0,2.084,23.848-10.087.59.542,21.1H78.255a11.552,11.552,0,0,0,10.626-7.016.478.478,0,0,1,.922.178v32.813l-5.835.174s11.277,36.19,47.221,36.19c8.215,0,14.647-5.851,18.252-9.67A7.932,7.932,0,0,0,151.2,234.3c-13.339-39.923-1.534-92.523,3.314-110.695A9.43,9.43,0,0,0,150.32,113.1ZM128.039,214.439l-29.6.887V178.219l8.016-.087.082,1.939a10.074,10.074,0,0,0,10.153,9.645l11.974-.106Z"/><path fill="#34363a" d="M120.512,71.162H60.1s-6.079,39.205,30.207,41.21C126.591,110.367,120.512,71.162,120.512,71.162Z"/><path fill="url(#Jizw8O63pM07xkZ-tqsoye)" d="M119.552,58.288H61.058l-.5,15.865s5.854,18.1,29.746,18.1,29.746-18.1,29.746-18.1Z"/><path fill="#e5837c" d="M119.552,58.288H61.058l-.5,15.865a24.642,24.642,0,0,0,4.4,7.384,20.378,20.378,0,0,1,3.718-8.8,9.823,9.823,0,0,1,7.792-3.814h32.948a7.23,7.23,0,0,1,6.258,3.482,14.867,14.867,0,0,1,1.874,6.584,22.184,22.184,0,0,0,2.5-4.839Z"/><path fill="url(#Jizw8O63pM07xkZ-tqsoyk)" d="M109.855,13.732A42.571,42.571,0,0,0,90.305,8S52.3,8,52.106,51.424l63-7.48C120.9,34.135,115.882,23.951,109.855,13.732Z"/><path fill="url(#Jizw8O63pM07xkZ-tqsoyl)" d="M129.566,56.365a12.581,12.581,0,0,1-1.062-4.941c-.093-21.316-9.3-32.164-18.651-37.689-6.6,12.38-28.365,12.681-28.365,12.681l-28.444,14.2a62.537,62.537,0,0,0-.938,10.807,12.616,12.616,0,0,1-1.062,4.941c-.209.482-.448,1-.718,1.524a8.391,8.391,0,0,0,2.515,10.534l7.718,5.73s1.329-6.8,5.917-9.9a8.651,8.651,0,0,1,4.88-1.416h37.9a8.649,8.649,0,0,1,4.88,1.416c4.588,3.106,5.918,9.9,5.918,9.9l7.718-5.73a8.39,8.39,0,0,0,2.514-10.534C130.013,57.362,129.774,56.847,129.566,56.365Z"/><path fill="url(#Jizw8O63pM07xkZ-tqsoym)" d="M264.966,201.135l-25.987,6.926-37.856-6.926h-3.564a45.639,45.639,0,0,0-3.961,10.849c5.446,5.6,18.483,15.234,43.8,15.234,22.55,0,35.068-9.773,41.235-16.974a42.349,42.349,0,0,0-3.5-9.109Z"/><path fill="#34363a" d="M131.423,32.238a13.73,13.73,0,0,0-1.331-2.75,6.933,6.933,0,0,0-5.872-3.214H100.864c-7.313,0-10.559,6.988-10.559,6.988s-3.246-6.988-10.559-6.988H56.389a6.933,6.933,0,0,0-5.871,3.214,13.73,13.73,0,0,0-1.331,2.75,6.892,6.892,0,0,0,3.3,8.287L68.133,49a12.992,12.992,0,0,0,8.955,1.311c4.14-.907,9.753-3.049,13.217-8.109,3.463,5.06,9.077,7.2,13.217,8.109A12.993,12.993,0,0,0,112.477,49l15.642-8.473A6.892,6.892,0,0,0,131.423,32.238Z"/><path fill="url(#Jizw8O63pM07xkZ-tqsoyn)" d="M257.858,324.015V259.83a1.674,1.674,0,0,0-3.307-.364l-5.279,12.892H225.519l-4.831-14.153a1.9,1.9,0,0,0-3.755.371v65.439a7.333,7.333,0,0,1-7.333,7.333h55.591A7.333,7.333,0,0,1,257.858,324.015Z"/><rect width="34.121" height="14.356" x="82.887" y="208.061" fill="#34363a"/><path fill="url(#Jizw8O63pM07xkZ-tqsoyo)" d="M142.327,232.612H123.25a10.4,10.4,0,0,1-10.4-10.4v-2.751a3.4,3.4,0,0,0,0-4.132V209.31a10.4,10.4,0,0,1,10.4-10.4h18.012s9.082,3.1,8.813,17.694S142.327,232.612,142.327,232.612Z"/><path fill="url(#Jizw8O63pM07xkZ-tqsoyp)" d="M76.911,198.907H55.216v51.182h21.7a15.022,15.022,0,0,0,2-.134s8.88-1.825,9.463-21.181c.755-25.051-8.7-29.611-8.7-29.611A15,15,0,0,0,76.911,198.907Z"/><path fill="#34363a" d="M91.786,213.782a14.873,14.873,0,0,0-12.112-14.609c1.846,1.913,3.917,5.425,4.047,11.648v10.6a5.017,5.017,0,0,1-4.9,5.015L55.216,227v7.239l27.671,4.134s.68,6.7-3.978,11.563a14.763,14.763,0,0,0,3.54-.916c.014-.009.025-.019.039-.029a14.87,14.87,0,0,0,9.3-13.781Z"/><path fill="#34363a" d="M73.941,156.382s23.3-4.261,44.94,0v14.245s-24.551-5.221-44.94.794Z"/><path fill="url(#Jizw8O63pM07xkZ-tqsoyq)" d="M123.32,181.266h-4.274a8.565,8.565,0,0,1-8.565-8.565v-6.675a11.016,11.016,0,0,0,0-7.117v-8.072a8.565,8.565,0,0,1,8.565-8.565h4.879s9.312-.982,8.632,20.683C131.949,182.35,123.32,181.266,123.32,181.266Z"/><path fill="url(#Jizw8O63pM07xkZ-tqsoyr)" d="M74.205,183.029l-5.228.4a8.2,8.2,0,0,1-8.8-7.559l-.433-5.728c1.349-1.984.933-4.436-.542-7.17l-.734-9.707a8.2,8.2,0,0,1,7.56-8.8l5.227-.4q.323-.025.639-.024s7.515,3.165,7.5,24.072C79.383,181.437,74.205,183.029,74.205,183.029Z"/><path fill="#34363a" d="M72.37,268.1H33.4l-2.945-38.5a22.132,22.132,0,0,1,22.1-23.248h0A22.131,22.131,0,0,1,74.679,229.23Z"/><path fill="url(#Jizw8O63pM07xkZ-tqsoys)" d="M34.782,191.946a15.785,15.785,0,0,1,15.343-12.085h6.818A15.779,15.779,0,0,1,72.722,195.64v4.091a13.408,13.408,0,0,1-.972,5.028s-8.877,7.882-24.138,4.052S34.782,191.946,34.782,191.946Z"/><path fill="url(#Jizw8O63pM07xkZ-tqsoyt)" d="M30.063,268.8a6.236,6.236,0,0,1,8.222-6.47A42.526,42.526,0,0,0,52.56,264.6a45.65,45.65,0,0,0,15.79-2.663,6.225,6.225,0,0,1,8.415,6.248l-1.57,21.6c-13.983,10.042-28.224,14.952-42.835,12.5C31.817,292.316,31.053,280.179,30.063,268.8Z"/><path fill="url(#Jizw8O63pM07xkZ-tqsoyu)" d="M273.813,193.787c4.452-33.592-7.6-71.907-7.6-71.907a88.782,88.782,0,0,0,6.4-50.455,2.319,2.319,0,0,0-3.888-1.27L253.164,85l-8.714,16.6-21.634,1.033L218.94,89.405l-19.418-15.89a2.317,2.317,0,0,0-3.709,1.18c-1.791,6.717-4.015,23.463,7.677,48.234,0,0-12.51,24.477-6.736,64.1l2.012,14.1,40.213,6.926Z"/><path fill="url(#Jizw8O63pM07xkZ-tqsoyv)" d="M221.8,164.153v14.414A11.832,11.832,0,0,0,233.631,190.4h0a11.832,11.832,0,0,0,11.832-11.832v-9.638Z"/><path fill="#34363a" d="M196.754,187.034s8.793,14.1,39.669,14.1,38.244-17.169,38.244-17.169l1.946,12.43a8.125,8.125,0,0,1-2.064,6.765c-4.252,4.614-14.688,12.078-37.717,12.078-21.178,0-33.275-5.113-39.281-8.842a8.087,8.087,0,0,1-3.542-8.934Z"/><path fill="#34363a" d="M246.649,279.343l.794-76.053a6.1,6.1,0,0,0-5.955-6.237h-7.42a6.1,6.1,0,0,0-5.955,6.237l.794,76.053H216.933V294.69h40.925V279.343Z"/><path fill="#f27272" d="M221.8,164.153v4.472a11.835,11.835,0,0,0,11.834,11.835h0a11.834,11.834,0,0,0,11.83-11.531Q233.85,161.88,221.8,164.153Z"/><circle cx="81.488" cy="77.191" r="3.876" fill="#af5454"/><rect width="46.474" height="14.851" x="210.504" y="112.547" fill="url(#Jizw8O63pM07xkZ-tqsoyg)" rx="7.426"/><circle cx="99.121" cy="77.191" r="3.876" fill="#af5454"/><circle cx="222.816" cy="119.973" r="3.876" fill="#34363a"/><circle cx="244.45" cy="119.973" r="3.876" fill="#34363a"/><path fill="#fff" d="M55.705,32.958l.042-.078a4.307,4.307,0,0,1,3.8-2.181h8.229a1.19,1.19,0,0,1,.842,2.031l-5.536,5.536a3.113,3.113,0,0,1-3.6.582l-2.16-1.082A3.567,3.567,0,0,1,55.705,32.958Z"/><path fill="#fff" d="M97.834,32.727a6.8,6.8,0,0,0-1.756,6.286,1.32,1.32,0,0,0,2.059.842l9.6-6.763a1.317,1.317,0,0,0-.758-2.393h-3.968A7.246,7.246,0,0,0,97.834,32.727Z"/><path fill="#34363a" d="M123.32,181.266h2.262a8.565,8.565,0,0,0,8.565-8.565V150.837a8.565,8.565,0,0,0-8.565-8.565h-1.657a6.557,6.557,0,0,1,5.575,6.638l-.129,8.738a3.487,3.487,0,0,1-3.517,3.438c-4.364-.04-10.387-.142-12.4-.406a3.928,3.928,0,0,1-2.977-1.771v7.117l18.693,4.927-.038,2.557S129.409,180,123.32,181.266Z"/><path fill="#34363a" d="M81.764,174.233l-1.709-22.605a8.2,8.2,0,0,0-8.157-7.576c1.11,1.049,2.4,3.12,2.794,7.221l.9,10.091a3.086,3.086,0,0,1-2.817,3.354c-2.678.223-6.05.442-8.98.442a5.126,5.126,0,0,1-4.592-2.193l.516,6.823.026.347,16.864,2.59.179,1.992s.576,5.305-2.48,8.3A8.2,8.2,0,0,0,81.764,174.233Z"/><circle cx="68.554" cy="159.826" r="1.943" fill="#34363a"/><circle cx="120.371" cy="155.94" r="1.943" fill="#34363a"/><path fill="#34363a" d="M143.223,198.907h-1.961c1.646,1.01,4.359,3.518,4.576,9.154v1.822a5.443,5.443,0,0,1-5.443,5.443H112.847v4.132l32.991,4.249a13.88,13.88,0,0,1-3.511,8.905h.9a10.4,10.4,0,0,0,10.4-10.4v-12.9A10.4,10.4,0,0,0,143.223,198.907Z"/><circle cx="133" cy="210.004" r="1.943" fill="#34363a"/><path fill="#34363a" d="M75.195,289.784l-42.835,12.5c.678,12.453,1.013,21.53,1.013,21.53H72.722Z"/><path fill="url(#Jizw8O63pM07xkZ-tqsoyw)" d="M52.74,304.531h0a21.952,21.952,0,0,1,21.952,21.952v1.836a3.029,3.029,0,0,1-3.029,3.029H33.817a3.029,3.029,0,0,1-3.029-3.029v-1.836A21.952,21.952,0,0,1,52.74,304.531Z"/><path fill="url(#Jizw8O63pM07xkZ-tqsoyx)" d="M253.164,85l-10.046,9.585H225.272L217.591,88.3C216.573,89.33,216,89.983,216,89.983a23.634,23.634,0,0,0-3.045,9.529,13.717,13.717,0,0,0,13.724,14.937h16.641a13.747,13.747,0,0,0,13.724-12.569A30.149,30.149,0,0,0,253.164,85Z"/><path fill="url(#Jizw8O63pM07xkZ-tqsoyy)" d="M216.328,89.344a15.768,15.768,0,0,1,13.819-8.166h3.811a15.771,15.771,0,0,1,15.771,15.771h0a12.51,12.51,0,0,1-.478,3.434s-6,8.235-21.791,5.241S216.328,89.344,216.328,89.344Z"/><path fill="#bf3d3d" d="M233.633,154.262c-4,5.12-11.834,2.739-11.834,2.739v7.152l9.12,1.842v5.45a2.714,2.714,0,0,0,5.428,0v-4.354l9.1,1.838c0-.1.015-.2.015-.3V157S237.637,159.382,233.633,154.262Z"/><path fill="#34363a" d="M249.2,155.821a3,3,0,0,0-3.786-1.913c-4.732,1.555-7.565.051-8.782-.912V138.785a3,3,0,0,0-6,0v14.376a6.221,6.221,0,0,1-3.419,1.259,8.538,8.538,0,0,1-4.736-.875,3,3,0,1,0-2.7,5.359,14.15,14.15,0,0,0,13.995-.609,13.9,13.9,0,0,0,7.77,2.29,18.358,18.358,0,0,0,5.741-.977A3,3,0,0,0,249.2,155.821Z"/><path fill="#34363a" d="M238.42,130.507h-9.575a4.677,4.677,0,0,0-3.726,7.527,12.109,12.109,0,0,0,5.194,3.623,9.258,9.258,0,0,0,6.64,0,12.109,12.109,0,0,0,5.194-3.623A4.677,4.677,0,0,0,238.42,130.507Z"/><path fill="#e5837c" d="M62.145,206.354H51.233c-12.823,0-15.855-8.567-16.434-14.4a15.751,15.751,0,0,0-.452,3.69v4.091a13.441,13.441,0,0,0,13.441,13.441H59.281a13.438,13.438,0,0,0,12.46-8.417A28.69,28.69,0,0,1,62.145,206.354Z"/><path fill="#e5837c" d="M249.24,100.38c-3.727,2.793-9.615,3.044-9.615,3.044h-7.573c-18.322,0-15.755-13.9-15.72-14.078a15.7,15.7,0,0,0-1.956,7.6,12.49,12.49,0,0,0,12.49,12.49h10.373A12.486,12.486,0,0,0,249.24,100.38Z"/></svg>