<svg xmlns="http://www.w3.org/2000/svg" xmlns:xlink="http://www.w3.org/1999/xlink" viewBox="0 0 340 340" width="500px" height="500px"><defs><linearGradient id="2ETwDlhX3HwFzDQwlcyk1b" x1="50.312" x2="92.74" y1="241.48" y2="339.331" gradientUnits="userSpaceOnUse"><stop offset="0" stop-color="#acc2db"/><stop offset="1" stop-color="#7a8cb4"/></linearGradient><linearGradient id="2ETwDlhX3HwFzDQwlcyk1a" x1="10.163" x2="121.199" y1="197.529" y2="367.817" gradientUnits="userSpaceOnUse"><stop offset="0" stop-color="#7284ac"/><stop offset="1" stop-color="#495681"/></linearGradient><linearGradient id="2ETwDlhX3HwFzDQwlcyk1c" x1="118.956" x2="118.956" y1="109.296" y2="153.295" gradientUnits="userSpaceOnUse"><stop offset="0" stop-color="#ffcac0"/><stop offset="1" stop-color="#e5837c"/></linearGradient><linearGradient id="2ETwDlhX3HwFzDQwlcyk1e" x1="154.284" x2="265.32" y1="103.555" y2="273.842" xlink:href="#2ETwDlhX3HwFzDQwlcyk1a"/><linearGradient id="2ETwDlhX3HwFzDQwlcyk1f" x1="170.668" x2="281.705" y1="92.871" y2="263.158" xlink:href="#2ETwDlhX3HwFzDQwlcyk1a"/><linearGradient id="2ETwDlhX3HwFzDQwlcyk1g" x1="128.776" x2="201.727" y1="130.489" y2="212.194" xlink:href="#2ETwDlhX3HwFzDQwlcyk1b"/><linearGradient id="2ETwDlhX3HwFzDQwlcyk1h" x1="131.234" x2="242.271" y1="118.584" y2="288.872" xlink:href="#2ETwDlhX3HwFzDQwlcyk1a"/><linearGradient id="2ETwDlhX3HwFzDQwlcyk1i" x1="162.66" x2="227.001" y1="193.579" y2="300.657" xlink:href="#2ETwDlhX3HwFzDQwlcyk1b"/><linearGradient id="2ETwDlhX3HwFzDQwlcyk1j" x1="132.935" x2="243.972" y1="117.475" y2="287.762" xlink:href="#2ETwDlhX3HwFzDQwlcyk1a"/><linearGradient id="2ETwDlhX3HwFzDQwlcyk1k" x1="56.994" x2="98.96" y1="239.444" y2="336.227" xlink:href="#2ETwDlhX3HwFzDQwlcyk1b"/><linearGradient id="2ETwDlhX3HwFzDQwlcyk1l" x1="68.96" x2="117.292" y1="235.681" y2="290.372" gradientUnits="userSpaceOnUse"><stop offset="0" stop-color="#8799be"/><stop offset="1" stop-color="#5e6b93"/></linearGradient><linearGradient id="2ETwDlhX3HwFzDQwlcyk1m" x1="85.65" x2="202.512" y1="292.322" y2="342.794" gradientUnits="userSpaceOnUse"><stop offset="0" stop-color="#a6b2ce"/><stop offset="1" stop-color="#8a95aa"/></linearGradient><linearGradient id="2ETwDlhX3HwFzDQwlcyk1n" x1="121.718" x2="189.011" y1="251.291" y2="346.222" gradientUnits="userSpaceOnUse"><stop offset="0" stop-color="#dae5ed"/><stop offset="1" stop-color="#bcc9dd"/></linearGradient><linearGradient id="2ETwDlhX3HwFzDQwlcyk1o" x1="82.275" x2="163.844" y1="231.964" y2="262.622" gradientUnits="userSpaceOnUse"><stop offset="0" stop-color="#dae5ed"/><stop offset="1" stop-color="#b0bacc"/></linearGradient><linearGradient id="2ETwDlhX3HwFzDQwlcyk1p" x1="85.005" x2="132.782" y1="138.873" y2="209.88" xlink:href="#2ETwDlhX3HwFzDQwlcyk1b"/><linearGradient id="2ETwDlhX3HwFzDQwlcyk1q" x1="95.193" x2="206.229" y1="142.085" y2="312.372" xlink:href="#2ETwDlhX3HwFzDQwlcyk1a"/><linearGradient id="2ETwDlhX3HwFzDQwlcyk1r" x1="79.276" x2="131.983" y1="7.303" y2="79.913" xlink:href="#2ETwDlhX3HwFzDQwlcyk1b"/><linearGradient id="2ETwDlhX3HwFzDQwlcyk1s" x1="68.334" x2="140.932" y1="9.314" y2="85.556" xlink:href="#2ETwDlhX3HwFzDQwlcyk1a"/><linearGradient id="2ETwDlhX3HwFzDQwlcyk1t" x1="108.273" x2="108.273" y1="58.858" y2="149.423" xlink:href="#2ETwDlhX3HwFzDQwlcyk1c"/><linearGradient id="2ETwDlhX3HwFzDQwlcyk1u" x1="65.464" x2="129.574" y1="253.668" y2="195.507" xlink:href="#2ETwDlhX3HwFzDQwlcyk1c"/><linearGradient id="2ETwDlhX3HwFzDQwlcyk1v" x1="109.441" x2="216.189" y1="159.042" y2="260.638" xlink:href="#2ETwDlhX3HwFzDQwlcyk1b"/><linearGradient id="2ETwDlhX3HwFzDQwlcyk1d" x1="142.417" x2="142.417" y1="263.172" y2="297.961" gradientUnits="userSpaceOnUse"><stop offset="0" stop-color="#ff6387"/><stop offset="1" stop-color="#e74b74"/></linearGradient><linearGradient id="2ETwDlhX3HwFzDQwlcyk1w" x1="191.66" x2="258.288" y1="173.433" y2="284.319" xlink:href="#2ETwDlhX3HwFzDQwlcyk1b"/><linearGradient id="2ETwDlhX3HwFzDQwlcyk1x" x1="157.101" x2="157.101" y1="169.45" y2="194.745" xlink:href="#2ETwDlhX3HwFzDQwlcyk1d"/><linearGradient id="2ETwDlhX3HwFzDQwlcyk1y" x1="90.934" x2="201.971" y1="144.862" y2="315.149" xlink:href="#2ETwDlhX3HwFzDQwlcyk1a"/><linearGradient id="2ETwDlhX3HwFzDQwlcyk1z" x1="13.988" x2="125.024" y1="195.035" y2="365.323" xlink:href="#2ETwDlhX3HwFzDQwlcyk1a"/><linearGradient id="2ETwDlhX3HwFzDQwlcyk1A" x1="159.112" x2="237.514" y1="90.655" y2="265.554" xlink:href="#2ETwDlhX3HwFzDQwlcyk1a"/></defs><path fill="url(#2ETwDlhX3HwFzDQwlcyk1b)" d="M59.173,310.008v7.568A12.423,12.423,0,0,0,71.6,330h28.612V298.31Z"/><polygon fill="url(#2ETwDlhX3HwFzDQwlcyk1a)" points="59.173 310.008 100.209 321.265 100.209 298.31 59.173 298.31 59.173 310.008"/><polygon fill="url(#2ETwDlhX3HwFzDQwlcyk1c)" points="125.137 136.341 109.927 142.332 109.927 114.823 127.984 112.717 125.137 136.341"/><path fill="#d8726f" d="M109.927,114.823a59.493,59.493,0,0,0,9.888.717,5.2,5.2,0,0,1,5.322,5.176v15.625l10.636-4.189V98.49H109.927Z"/><path fill="url(#2ETwDlhX3HwFzDQwlcyk1e)" d="M269.763,243.07l-.775,21.613a15.784,15.784,0,0,1-13.412,15.052,36.349,36.349,0,0,1-14.779-.947l-2.021-50.421,22-4.042Z"/><path fill="url(#2ETwDlhX3HwFzDQwlcyk1f)" d="M222.635,172.508s36.885-5.676,41.627,38.642c1.5,14.021,12.754,18.481,17.4,21.654a9.129,9.129,0,0,1,2.479,12.716h0c-2.771,4.036-7.815,4.318-12.368,2.52-9.008-3.556-25.134-13.494-27.983-33.557H225.822Z"/><path fill="url(#2ETwDlhX3HwFzDQwlcyk1g)" d="M141.806,120.411s2.3-3.085,11.017-5.554a57.374,57.374,0,0,1,66.413,29.022c5.025,9.758,9.009,22.457,10.687,38.972L175.5,273.5Z"/><path fill="url(#2ETwDlhX3HwFzDQwlcyk1h)" d="M148.529,121.962a33.279,33.279,0,0,0-5.961,1.907L175.5,273.5l55.286-11.837V200.671a176.4,176.4,0,0,0-.857-17.752c-37.315,4.616-37.5-17.545-37.5-17.545l-2.016-18.145C183.293,114.67,148.529,121.962,148.529,121.962Z"/><path fill="url(#2ETwDlhX3HwFzDQwlcyk1i)" d="M192.431,300.735h25.485q.825,0,1.637-.051c14.345-4.456,19.287-15.843,20.695-35.589-10.556-9.46-26.572-11.835-47.817-12.88Z"/><path fill="url(#2ETwDlhX3HwFzDQwlcyk1j)" d="M192.333,233.157l.063,21.6a324.679,324.679,0,0,0,31.778,7.145,9.87,9.87,0,0,1,8.119,10.08c-.337,8.958-2.618,22.439-12.642,28.7A25.869,25.869,0,0,0,243.81,274.79l-.109-37.654Z"/><path fill="url(#2ETwDlhX3HwFzDQwlcyk1k)" d="M72.968,253.247c-7.926,5.41-15.215,15.736-14.165,35.447,0,0-4.688,2.557-4.521,7.752a5.989,5.989,0,0,0,6.008,5.747H92.275V256.516Z"/><path fill="url(#2ETwDlhX3HwFzDQwlcyk1l)" d="M91.182,247.294A35.751,35.751,0,0,0,72.97,253.25c1.952,3.467,7.066,9.234,19.305,8.41v-5.144Z"/><path fill="url(#2ETwDlhX3HwFzDQwlcyk1m)" d="M91.182,306.241v14.732A9.028,9.028,0,0,0,100.209,330h83.2a9.028,9.028,0,0,0,9.027-9.027V306.241Z"/><path fill="url(#2ETwDlhX3HwFzDQwlcyk1n)" d="M179.091,316.436H104.522a16.564,16.564,0,0,1-16.563-16.563v-38.2l20.366-14.376,75.2-4.862a19.041,19.041,0,0,1,12.128,17.742v39.7A16.564,16.564,0,0,1,179.091,316.436Z"/><path fill="url(#2ETwDlhX3HwFzDQwlcyk1o)" d="M183.519,242.45a18.934,18.934,0,0,0-6.9-1.31H106.993a19.034,19.034,0,0,0-19.034,19.034v1.5a32.247,32.247,0,0,0,4.316-.01s5.031-.2,10.24-6.2a13.379,13.379,0,0,1,10.079-4.707h52.127S177.224,251.777,183.519,242.45Z"/><path fill="url(#2ETwDlhX3HwFzDQwlcyk1p)" d="M117.214,130.17s-32.295,18.954-36.337,62.081l42.547,13,12.349-50.442Z"/><path fill="url(#2ETwDlhX3HwFzDQwlcyk1q)" d="M126.568,132.338c-9.745,13.046-18.281,31.817-20.73,58.525l-24.961,1.388c-.238,2.712-.376,5.512-.376,8.42l60.032,19.66,3.9-83.854Z"/><path fill="#34363a" d="M80.5,200.671h20.241a0,0,0,0,1,0,0v20.958a0,0,0,0,1,0,0H80.5a5.325,5.325,0,0,1-5.325-5.325V206A5.325,5.325,0,0,1,80.5,200.671Z"/><path fill="#34363a" d="M145.689,71.121V86.448s3.184,24.9-38.087,23.759l24.346-39.086Z"/><path fill="url(#2ETwDlhX3HwFzDQwlcyk1r)" d="M130.913,13.943a46.084,46.084,0,0,0-19.033-3.93S80.069,8.508,73.056,38.484A147.231,147.231,0,0,1,67.578,57s12.136,30.809,54.255,6.448S130.913,13.943,130.913,13.943Z"/><circle cx="142.568" cy="280.104" r="24.867" fill="#fff"/><path fill="url(#2ETwDlhX3HwFzDQwlcyk1s)" d="M150.705,38.484c-3.211-13.726-11.621-20.84-19.8-24.532,3.875,5.625,5.35,12.95,2.527,22.5C123.379,70.472,80.325,60.713,67.578,57c-1.026,2.711-1.983,4.874-2.818,6.573a7.353,7.353,0,0,0,3.421,9.861c6.967,3.493,20.264,7.75,43.7,7.75s36.733-4.257,43.7-7.75A7.354,7.354,0,0,0,159,63.572C156.773,59.04,153.681,51.205,150.705,38.484Z"/><path fill="#34363a" d="M104.428,39.086h6.93a8.511,8.511,0,0,1,8.511,8.511v8.511a0,0,0,0,1,0,0H95.917a0,0,0,0,1,0,0V47.6A8.511,8.511,0,0,1,104.428,39.086Z"/><path fill="url(#2ETwDlhX3HwFzDQwlcyk1t)" d="M107.6,110.207h-2.315A23.678,23.678,0,0,1,81.609,86.528V71.693c1.278-13.969,12.243-17.63,29.066-15.059,14.61-.785,22.729,6.828,24.262,22.961v3.277A27.335,27.335,0,0,1,107.6,110.207Z"/><path fill="#34363a" d="M151.621,122.7l3.522,6.681a59.4,59.4,0,0,0-25.868,15.651,48.151,48.151,0,0,0-13.091,33.275v45.1H97.467v-44.89a68.651,68.651,0,0,1,9.749-35.729A65.04,65.04,0,0,1,135.758,117.4,12.117,12.117,0,0,1,151.621,122.7Z"/><path fill="url(#2ETwDlhX3HwFzDQwlcyk1u)" d="M103.89,212.174c-8.912,1.414-22.757,5.954-27.934,20.4A13.5,13.5,0,0,0,76.9,243.7s14.654,7.058,23.839-6.912S103.89,212.174,103.89,212.174Z"/><path fill="#d8726f" d="M103.89,212.175,102.875,222.4a23.684,23.684,0,0,1-25.963,21.291,13.7,13.7,0,0,0,21.251,3.473,14.849,14.849,0,0,1,10.11-4.095l3.607-31.518A45.891,45.891,0,0,0,103.89,212.175Z"/><path fill="url(#2ETwDlhX3HwFzDQwlcyk1v)" d="M156.739,127.785h0a23.3,23.3,0,0,0-23.3,23.3v8.551c2.829,13.525,3.4,26.036,0,36.753v5.137l2.337,7.91-12.3-2.27h-8.023a7.178,7.178,0,0,0-7.178,7.178V243.07h57.776a13.991,13.991,0,0,0,13.992-13.992V196.391c-1.523-13.346-1.865-25.842,0-36.753v-8.551A23.3,23.3,0,0,0,156.739,127.785Z"/><path fill="#fff" d="M133.436,196.391a224.067,224.067,0,0,0,46.6,0V159.638a288.234,288.234,0,0,1-46.6,0Z"/><polygon fill="url(#2ETwDlhX3HwFzDQwlcyk1d)" points="157.397 274.543 148.539 274.543 148.539 265.684 136.295 265.684 136.295 274.543 127.436 274.543 127.436 286.787 136.295 286.787 136.295 295.645 148.539 295.645 148.539 286.787 157.397 286.787 157.397 274.543"/><rect width="56.479" height="55.071" x="192.431" y="194.178" fill="url(#2ETwDlhX3HwFzDQwlcyk1w)" rx="16.167"/><polygon fill="url(#2ETwDlhX3HwFzDQwlcyk1x)" points="168.74 174.505 161.82 174.505 161.82 167.585 152.383 167.585 152.383 174.505 145.462 174.505 145.462 183.942 152.383 183.942 152.383 190.863 161.82 190.863 161.82 183.942 168.74 183.942 168.74 174.505"/><path fill="url(#2ETwDlhX3HwFzDQwlcyk1y)" d="M143.524,219.835a1.249,1.249,0,0,0,2.138-1.161,34.3,34.3,0,0,0-12.226-17.146v5.64h-9.962C131.974,208.923,139.527,215.27,143.524,219.835Z"/><circle cx="98.572" cy="76.359" r="3.658" fill="#af5454"/><circle cx="117.213" cy="76.359" r="3.658" fill="#af5454"/><circle cx="73.827" cy="286.806" r="3.658" fill="url(#2ETwDlhX3HwFzDQwlcyk1z)"/><circle cx="221.767" cy="230.425" r="3.658" fill="url(#2ETwDlhX3HwFzDQwlcyk1A)"/><path fill="#e5837c" d="M120.73,52.143H95.816A14.207,14.207,0,0,0,81.609,66.35v5.343s1.677-12.238,12.479-12.238h21.388A17.847,17.847,0,0,1,130,66.686,29.969,29.969,0,0,1,134.937,79.6V66.35A14.207,14.207,0,0,0,120.73,52.143Z"/></svg>