<svg xmlns="http://www.w3.org/2000/svg" xmlns:xlink="http://www.w3.org/1999/xlink" viewBox="0 0 340 340" width="500px" height="500px"><defs><linearGradient id="Np9YXvYEArdIkcJBkKDZ5a" x1="28.521" x2="93.632" y1="107.192" y2="266.55" gradientUnits="userSpaceOnUse"><stop offset="0" stop-color="#807284"/><stop offset="1" stop-color="#5c4e57"/></linearGradient><linearGradient id="Np9YXvYEArdIkcJBkKDZ5f" x1="17.339" x2="37.447" y1="143.709" y2="243.436" gradientUnits="userSpaceOnUse"><stop offset="0" stop-color="#b8b2c1"/><stop offset="1" stop-color="#948e94"/></linearGradient><linearGradient id="Np9YXvYEArdIkcJBkKDZ5g" x1=".719" x2="65.829" y1="118.552" y2="277.91" xlink:href="#Np9YXvYEArdIkcJBkKDZ5a"/><linearGradient id="Np9YXvYEArdIkcJBkKDZ5b" x1="201.479" x2="232.315" y1="98.558" y2="133.429" gradientUnits="userSpaceOnUse"><stop offset="0" stop-color="#9a9da6"/><stop offset="1" stop-color="#6b6d6e"/></linearGradient><linearGradient id="Np9YXvYEArdIkcJBkKDZ5h" x1="288.88" x2="318.452" y1="103.666" y2="127.5" xlink:href="#Np9YXvYEArdIkcJBkKDZ5b"/><linearGradient id="Np9YXvYEArdIkcJBkKDZ5i" x1="79.066" x2="144.177" y1="86.541" y2="245.899" xlink:href="#Np9YXvYEArdIkcJBkKDZ5a"/><linearGradient id="Np9YXvYEArdIkcJBkKDZ5c" x1="259.876" x2="295.232" y1="183.501" y2="144.153" gradientUnits="userSpaceOnUse"><stop offset="0" stop-color="#ffcac0"/><stop offset="1" stop-color="#e5837c"/></linearGradient><linearGradient id="Np9YXvYEArdIkcJBkKDZ5d" x1="226.208" x2="114.085" y1="167.568" y2="204.808" gradientUnits="userSpaceOnUse"><stop offset="0" stop-color="#5d6592"/><stop offset="1" stop-color="#3c446c"/></linearGradient><linearGradient id="Np9YXvYEArdIkcJBkKDZ5j" x1="139.596" x2="139.596" y1="96.73" y2="130.724" xlink:href="#Np9YXvYEArdIkcJBkKDZ5c"/><linearGradient id="Np9YXvYEArdIkcJBkKDZ5e" x1="82.897" x2="115.833" y1="108.939" y2="165.08" gradientUnits="userSpaceOnUse"><stop offset="0" stop-color="#93a7d8"/><stop offset="1" stop-color="#6578ab"/></linearGradient><linearGradient id="Np9YXvYEArdIkcJBkKDZ5k" x1="84.908" x2="111.834" y1="109.277" y2="144.647" xlink:href="#Np9YXvYEArdIkcJBkKDZ5d"/><linearGradient id="Np9YXvYEArdIkcJBkKDZ5l" x1="85.036" x2="139.595" y1="68.396" y2="112.301" xlink:href="#Np9YXvYEArdIkcJBkKDZ5d"/><linearGradient id="Np9YXvYEArdIkcJBkKDZ5m" x1="107.215" x2="147.122" y1="27.531" y2="79.303" xlink:href="#Np9YXvYEArdIkcJBkKDZ5e"/><linearGradient id="Np9YXvYEArdIkcJBkKDZ5n" x1="82.843" x2="82.843" y1="142.26" y2="243.549" xlink:href="#Np9YXvYEArdIkcJBkKDZ5e"/><linearGradient id="Np9YXvYEArdIkcJBkKDZ5o" x1="282.776" x2="296.722" y1="165.641" y2="165.641" xlink:href="#Np9YXvYEArdIkcJBkKDZ5b"/><linearGradient id="Np9YXvYEArdIkcJBkKDZ5p" x1="74.044" x2="122.549" y1="171.504" y2="231.757" xlink:href="#Np9YXvYEArdIkcJBkKDZ5d"/><linearGradient id="Np9YXvYEArdIkcJBkKDZ5q" x1="86.002" x2="138.513" y1="61.062" y2="86.014" xlink:href="#Np9YXvYEArdIkcJBkKDZ5d"/><linearGradient id="Np9YXvYEArdIkcJBkKDZ5r" x1="202.979" x2="227.715" y1="162.55" y2="198.992" xlink:href="#Np9YXvYEArdIkcJBkKDZ5b"/><linearGradient id="Np9YXvYEArdIkcJBkKDZ5s" x1="263.149" x2="337.966" y1="123.308" y2="147.052" xlink:href="#Np9YXvYEArdIkcJBkKDZ5b"/><linearGradient id="Np9YXvYEArdIkcJBkKDZ5t" x1="215.039" x2="239.774" y1="154.364" y2="190.806" xlink:href="#Np9YXvYEArdIkcJBkKDZ5b"/><linearGradient id="Np9YXvYEArdIkcJBkKDZ5u" x1="156.219" x2="103.037" y1="123.696" y2="158.761" xlink:href="#Np9YXvYEArdIkcJBkKDZ5b"/><linearGradient id="Np9YXvYEArdIkcJBkKDZ5v" x1="170.139" x2="245.239" y1="129.742" y2="156.881" xlink:href="#Np9YXvYEArdIkcJBkKDZ5b"/><linearGradient id="Np9YXvYEArdIkcJBkKDZ5w" x1="73.923" x2="165.36" y1="164.884" y2="210.603" xlink:href="#Np9YXvYEArdIkcJBkKDZ5e"/><linearGradient id="Np9YXvYEArdIkcJBkKDZ5x" x1="54.969" x2="120.08" y1="96.386" y2="255.744" xlink:href="#Np9YXvYEArdIkcJBkKDZ5a"/><linearGradient id="Np9YXvYEArdIkcJBkKDZ5y" x1="36.123" x2="73.4" y1="244.907" y2="292.76" xlink:href="#Np9YXvYEArdIkcJBkKDZ5f"/><linearGradient id="Np9YXvYEArdIkcJBkKDZ5z" x1="1.5" x2="66.611" y1="118.233" y2="277.591" xlink:href="#Np9YXvYEArdIkcJBkKDZ5a"/><linearGradient id="Np9YXvYEArdIkcJBkKDZ5A" x1="-1.724" x2="63.387" y1="119.55" y2="278.908" xlink:href="#Np9YXvYEArdIkcJBkKDZ5a"/><linearGradient id="Np9YXvYEArdIkcJBkKDZ5B" x1="43.317" x2="90.764" y1="222.099" y2="283.007" xlink:href="#Np9YXvYEArdIkcJBkKDZ5f"/><linearGradient id="Np9YXvYEArdIkcJBkKDZ5C" x1="72.12" x2="109.748" y1="240.582" y2="297.25" xlink:href="#Np9YXvYEArdIkcJBkKDZ5f"/><linearGradient id="Np9YXvYEArdIkcJBkKDZ5D" x1="45.052" x2="95.453" y1="295.456" y2="326.739" xlink:href="#Np9YXvYEArdIkcJBkKDZ5e"/><linearGradient id="Np9YXvYEArdIkcJBkKDZ5E" x1="31.2" x2="137.366" y1="287.127" y2="338.174" xlink:href="#Np9YXvYEArdIkcJBkKDZ5d"/><linearGradient id="Np9YXvYEArdIkcJBkKDZ5F" x1="27.191" x2="133.357" y1="295.464" y2="346.511" xlink:href="#Np9YXvYEArdIkcJBkKDZ5d"/><linearGradient id="Np9YXvYEArdIkcJBkKDZ5G" x1="35.483" x2="141.649" y1="278.22" y2="329.267" xlink:href="#Np9YXvYEArdIkcJBkKDZ5d"/><linearGradient id="Np9YXvYEArdIkcJBkKDZ5H" x1="33.028" x2="98.138" y1="105.351" y2="264.709" xlink:href="#Np9YXvYEArdIkcJBkKDZ5a"/><linearGradient id="Np9YXvYEArdIkcJBkKDZ5I" x1="86.14" x2="122.774" y1="233.068" y2="288.238" xlink:href="#Np9YXvYEArdIkcJBkKDZ5f"/><linearGradient id="Np9YXvYEArdIkcJBkKDZ5J" x1="36.716" x2="101.826" y1="103.844" y2="263.202" xlink:href="#Np9YXvYEArdIkcJBkKDZ5a"/><linearGradient id="Np9YXvYEArdIkcJBkKDZ5K" x1="110.298" x2="82.644" y1="162.973" y2="196.288" xlink:href="#Np9YXvYEArdIkcJBkKDZ5d"/><linearGradient id="Np9YXvYEArdIkcJBkKDZ5L" x1="100.227" x2="94.987" y1="163.655" y2="181.782" gradientUnits="userSpaceOnUse"><stop offset="0" stop-color="#e8d792"/><stop offset="1" stop-color="#e8a362"/></linearGradient><linearGradient id="Np9YXvYEArdIkcJBkKDZ5M" x1="84.957" x2="91.288" y1="195.349" y2="184.396" gradientUnits="userSpaceOnUse"><stop offset="0" stop-color="#e5c380"/><stop offset="1" stop-color="#e58f50"/></linearGradient><linearGradient id="Np9YXvYEArdIkcJBkKDZ5N" x1="221.671" x2="109.548" y1="153.907" y2="191.147" xlink:href="#Np9YXvYEArdIkcJBkKDZ5d"/></defs><path fill="url(#Np9YXvYEArdIkcJBkKDZ5a)" d="M26.766,149.262,39.3,103.625a3.467,3.467,0,0,1,4.105-2.464h0a3.466,3.466,0,0,1,2.609,4.183L35.174,150.925Z"/><path fill="url(#Np9YXvYEArdIkcJBkKDZ5f)" d="M43.2,134.383l-1.077-.308A16.723,16.723,0,0,0,21.236,146.3c-4.8,20.317-11.7,56.82-11.4,97.75L28.911,248.4Z"/><path fill="url(#Np9YXvYEArdIkcJBkKDZ5g)" d="M43.2,134.383c-4.434,11.969-15.963,46.676-20.245,94.161,0,0-2.287,11.655-13.115,15.5q.046,6.416.34,12.961s.917,12.371,22.8,12.97l23.152-131.9Z"/><path fill="#34363a" d="M182.523,95.95h12.585l22.032,27.919H182.176a20.094,20.094,0,0,1,2.206-10.6,8.656,8.656,0,0,0,.2-8.1l-3.3-6.562A1.824,1.824,0,0,1,182.523,95.95Z"/><path fill="url(#Np9YXvYEArdIkcJBkKDZ5b)" d="M195.5,95.95h11.709a7.474,7.474,0,0,1,5.956,2.959l3.488,4.6a10.8,10.8,0,0,0,6.058,3.972l7.2,1.751a3.644,3.644,0,0,1,2.783,3.541v4.669c-12.05,3.244-23.578,3.618-34.383,0a17.185,17.185,0,0,1,1.625-4.177,8.656,8.656,0,0,0,.2-8.1Z"/><path fill="#34363a" d="M198.317,117.443a20.807,20.807,0,0,0-.586,6.426H232.7v-6.426Z"/><path fill="#34363a" d="M285.381,106.8h-13.85a2.541,2.541,0,0,0-2.359,3.486l5.446,13.588h16.241Z"/><path fill="url(#Np9YXvYEArdIkcJBkKDZ5h)" d="M282.776,106.8h25.349a7.918,7.918,0,0,1,7.918,7.918v2.73c-10,1.978-19.472,2.178-28.226,0Z"/><polygon fill="#34363a" points="287.817 117.443 290.859 123.869 316.043 123.869 316.043 117.443 287.817 117.443"/><polygon fill="#34363a" points="129.25 304.036 40.152 304.036 40.152 273.501 77.748 268.522 129.25 273.501 129.25 304.036"/><path fill="url(#Np9YXvYEArdIkcJBkKDZ5i)" d="M152.856,229.833h-21.02l5.917,51.722h15.1A8.555,8.555,0,0,0,161.411,273V238.388A8.555,8.555,0,0,0,152.856,229.833Z"/><path fill="url(#Np9YXvYEArdIkcJBkKDZ5c)" d="M263.838,158.233l25.911-9.554,2.4,19.762-29.919,10.953S262.194,166.448,263.838,158.233Z"/><path fill="#d8726f" d="M289.749,163.677l-14.569,6.306a5.732,5.732,0,0,1-7.147-2.239l-4.377-7.058-.294.16a90.637,90.637,0,0,0-.5,26.062l26.886-11.459Z"/><path fill="url(#Np9YXvYEArdIkcJBkKDZ5d)" d="M140.7,150.46l47.551,19.664,32.17,4.118,43.417-16.009,5.373,34.731s-25.643,15.667-51.5,22.718a36.333,36.333,0,0,1-18.6.089c-10.4-2.669-28.208-7.558-40.048-12.534l-46.794-29Z"/><path fill="#34363a" d="M113.58,13.687h18.176a6.277,6.277,0,0,1,6.277,6.277v17.13a0,0,0,0,1,0,0H103.9a0,0,0,0,1,0,0V23.364a9.677,9.677,0,0,1,9.677-9.677Z"/><path fill="url(#Np9YXvYEArdIkcJBkKDZ5j)" d="M161.316,99.418c-.536,10.5-3.551,23.038-14.351,26.583H117.877V83.743Z"/><path fill="#d8726f" d="M117.877,83.743v12.43a95.856,95.856,0,0,0,24.219,9.6,16.866,16.866,0,0,0,11.28-1.2,40.12,40.12,0,0,0,7.935-5.159,81.952,81.952,0,0,0-.752-15.675Z"/><path fill="#34363a" d="M126.714,94.88s3.222,27.944-8.837,32.708l-11.34-3.8A32,32,0,0,1,84.7,93.446V88.212l20.893-13.88Z"/><path fill="url(#Np9YXvYEArdIkcJBkKDZ5e)" d="M84.2,109.657l17.727,6.729c3.254,5.884,2.2,12.1-.971,18.488-11.431-.929-20.364-6.532-27.066-16.307l2.562-5.7A6.115,6.115,0,0,1,84.2,109.657Z"/><path fill="url(#Np9YXvYEArdIkcJBkKDZ5k)" d="M123.709,124.656l-21.785-8.27-.517,7.78a4.492,4.492,0,0,1-6.3,3.808l-21.217-9.407L70.544,126l39.092,33.927Z"/><path fill="#34363a" d="M164.954,68.949V81.5a10.8,10.8,0,0,1-2.432,6.877,34.149,34.149,0,0,1-12.461,9.346,9.429,9.429,0,0,1-6.765.354c-4.879-1.587-14.013-5.228-20.2-11.754V74.783Z"/><path fill="url(#Np9YXvYEArdIkcJBkKDZ5l)" d="M105.546,96.665l.14,2.347a5.27,5.27,0,0,0,5.26,4.957h10.5a5.271,5.271,0,0,0,5.27-5.27V85.719l-13.685-4.154C107.3,84.255,105.676,89.917,105.546,96.665Z"/><path fill="url(#Np9YXvYEArdIkcJBkKDZ5m)" d="M158.951,68.159,160.559,48.9c-5.855-10.555-17.718-21.751-40.536-21.751,0,0-17.912-.734-31.02,17.862C89,45.014,84.7,80.221,158.951,68.159Z"/><path fill="url(#Np9YXvYEArdIkcJBkKDZ5n)" d="M100.452,144.321A271.828,271.828,0,0,0,73.8,123.745c-5.457-3.71-13.02-1.049-16.08,4.8-9.175,17.531-26.451,61.484-19.8,135.231l91.328,4.749-3.843-55.334Z"/><path fill="#34363a" d="M105.546,96.665A13.453,13.453,0,0,1,108.64,89.6a10.726,10.726,0,0,1,7.632-3.5l10.442-.387V73.854l-22.471.926Z"/><path fill="#34363a" d="M316.043,123.869h12.108a2.024,2.024,0,0,1,2.024,2.024v7.856a2.024,2.024,0,0,1-2.024,2.024H314.137Z"/><path fill="url(#Np9YXvYEArdIkcJBkKDZ5o)" d="M294.4,184.861h-9.3a2.324,2.324,0,0,1-2.324-2.325V160.267l13.946-13.846v36.115A2.324,2.324,0,0,1,294.4,184.861Z"/><path fill="url(#Np9YXvYEArdIkcJBkKDZ5p)" d="M59.76,156.831S49.166,190.62,87.094,219.122c0,0,9.615,7.125,8.49,18.938s33.667,31.485,33.667,31.485l6.893-.954,1.609-51.5L118.5,182.905,94.493,171.887Z"/><path fill="url(#Np9YXvYEArdIkcJBkKDZ5q)" d="M159.883,61.357c-12.483,6.16-24.429,6.674-42.006,4.516C97.407,63.36,90.808,50.1,89.01,45.019A60.526,60.526,0,0,0,82.136,58.03l-1.389-.715a2.108,2.108,0,0,0-2.771.775,51.89,51.89,0,0,0-7.038,22.859,11.949,11.949,0,0,0,4.9,9.687c3.31,2.177,5.446,3.311,13.3,5.361a6.9,6.9,0,0,0,7.19-2.456l8.093-10.461a10.453,10.453,0,0,1,8.683-4.045c10.044.391,32.031.479,46.1-5.18Z"/><polygon fill="#34363a" points="296.722 156.144 296.722 146.421 282.776 149.053 282.776 160.267 296.722 156.144"/><polygon fill="#34363a" points="232.695 149.053 297.832 149.053 297.832 137.289 229.843 135.773 232.695 149.053"/><path fill="url(#Np9YXvYEArdIkcJBkKDZ5r)" d="M203.3,181.881a78.314,78.314,0,0,0,8.405,21.356l23.276-9.921s-5.1-8.2-7.061-21.843C218.85,172.5,210.477,175.5,203.3,181.881Z"/><path fill="url(#Np9YXvYEArdIkcJBkKDZ5s)" d="M256.077,137.289h8.111a12.147,12.147,0,0,1,6.576,0h8.112a13.739,13.739,0,0,1,6.576,0h8.112a13.514,13.514,0,0,1,6.576,0l15.9-5.51v-7.91H294.119a11.931,11.931,0,0,1-6.577,0h-8.111a15.638,15.638,0,0,1-6.577,0h-8.111a12.879,12.879,0,0,1-6.577,0h-8.111Q249.57,130.579,256.077,137.289Z"/><path fill="#34363a" d="M228.431,196.109a63.65,63.65,0,0,1-6.864-17.894,4.566,4.566,0,0,1,2.693-5.191l3.666-1.549v0a74.169,74.169,0,0,1-.693-7.537l-25.8,8.013a85.134,85.134,0,0,0,1.87,9.933l10.686-4.517a73.56,73.56,0,0,0,7.958,21.508Z"/><polygon fill="url(#Np9YXvYEArdIkcJBkKDZ5t)" points="227.233 155.551 227.233 163.935 213.121 168.318 212.069 155.635 227.233 155.551"/><path fill="#34363a" d="M201.435,171.948l11.686-3.63a51.833,51.833,0,0,1,.26-5.506,6.18,6.18,0,0,1,4.915-5.436l8.937-1.825v-6.5l-28.689-1.145Z"/><path fill="url(#Np9YXvYEArdIkcJBkKDZ5u)" d="M159.243,142.086l-2.222.244a12.01,12.01,0,0,0-6.774,3.059l-29.163,26.559-10.3-5.635V134.056a10.186,10.186,0,0,1,10.186-10.187H163.72C163.694,130.9,162.971,137.471,159.243,142.086Z"/><polygon fill="#34363a" points="245.463 123.869 232.695 123.869 229.48 137.289 252.663 137.289 245.463 123.869"/><path fill="#34363a" d="M172.215,140.659l-2.04-16.79H163.72l-1.8,7.328H133.03a11.454,11.454,0,0,0-10.9,7.943,25.788,25.788,0,0,0-.395,3.924,3.446,3.446,0,0,0,.96,2.571l4.884,5.083a2.224,2.224,0,0,0,3.327-.158c6.015-7.317,15.885-13.629,25.023-13.629h4.582l-1.266,5.155Z"/><polygon fill="url(#Np9YXvYEArdIkcJBkKDZ5v)" points="170.175 123.869 170.175 158.233 232.695 149.053 232.695 123.869 170.175 123.869"/><rect width="24.955" height="34.224" x="293.786" y="145.17" fill="#34363a" rx="10.125"/><path fill="#34363a" d="M178.236,197.433,194.3,175.255l6.8-2.593a13.339,13.339,0,0,0,8.59-12.575h0a11.692,11.692,0,0,0-9.786-11.44l-12.668-2.094a15.848,15.848,0,0,0-14.155,4.805l-20.654,22.063C159.418,190.078,178.236,197.433,178.236,197.433Z"/><path fill="url(#Np9YXvYEArdIkcJBkKDZ5w)" d="M63.92,146.541a22.124,22.124,0,0,1,28.237-7.356,53.152,53.152,0,0,1,8.3,5.136C116.151,156,144.026,182,144.026,182l8.4-8.576s17.577,6.59,25.81,24.012a217.447,217.447,0,0,1-21.991,29.457,16.935,16.935,0,0,1-19.7,3.943c-18.809-8.827-56.2-27.764-68.064-43.925C57.079,171.376,57.128,156.742,63.92,146.541Z"/><path fill="url(#Np9YXvYEArdIkcJBkKDZ5x)" d="M104.876,250.3h33.955a7.106,7.106,0,0,1,7.106,7.106v17.039a7.106,7.106,0,0,1-7.106,7.106H104.876a0,0,0,0,1,0,0V250.3A0,0,0,0,1,104.876,250.3Z"/><polygon fill="#34363a" points="249.5 137.289 256.077 137.289 250.055 123.869 243.478 123.869 249.5 137.289"/><polygon fill="#34363a" points="264.188 137.289 270.764 137.289 264.743 123.869 258.166 123.869 264.188 137.289"/><polygon fill="#34363a" points="278.876 137.289 285.452 137.289 279.431 123.869 272.854 123.869 278.876 137.289"/><polygon fill="#34363a" points="293.564 137.289 300.14 137.289 294.119 123.869 287.542 123.869 293.564 137.289"/><path fill="url(#Np9YXvYEArdIkcJBkKDZ5y)" d="M30.455,255.314V269.1a12.451,12.451,0,0,0,12.451,12.452H65.752A12.451,12.451,0,0,0,78.2,269.1v-5.929A137.861,137.861,0,0,0,30.455,255.314Z"/><polygon fill="url(#Np9YXvYEArdIkcJBkKDZ5z)" points="30.455 255.314 78.203 263.174 78.203 239.746 30.455 239.746 30.455 255.314"/><path fill="url(#Np9YXvYEArdIkcJBkKDZ5A)" d="M44.967,248.4H62.18a0,0,0,0,1,0,0v11.937a5.276,5.276,0,0,1-5.276,5.276H50.243a5.276,5.276,0,0,1-5.276-5.276V248.4A0,0,0,0,1,44.967,248.4Z"/><path fill="url(#Np9YXvYEArdIkcJBkKDZ5B)" d="M40.194,250.973h28.27a9.739,9.739,0,0,0,9.739-9.739v-9.05a12.5,12.5,0,0,0-12.5-12.5H42.952a12.5,12.5,0,0,0-12.5,12.5v9.05A9.739,9.739,0,0,0,40.194,250.973Z"/><path fill="url(#Np9YXvYEArdIkcJBkKDZ5C)" d="M110.782,269.545v4.542a16.289,16.289,0,0,1-16.289,16.289h0A16.289,16.289,0,0,1,78.2,274.087V263.174C90.042,261.053,100.948,262.975,110.782,269.545Z"/><path fill="url(#Np9YXvYEArdIkcJBkKDZ5D)" d="M106.611,300.616H72.28c-6.5,1.556-12.127,2.136-15.3,0H38.2a7.742,7.742,0,0,0-7.741,7.742v7.062l6.441,8.022c33.728.121,67.642.294,73.886-7.285Z"/><path fill="url(#Np9YXvYEArdIkcJBkKDZ5E)" d="M141.5,308.358a7.742,7.742,0,0,0-7.742-7.742H116.434a24.934,24.934,0,0,1-7.652,1.227v2.222a13.9,13.9,0,0,1-13.9,13.9H36.435a17.975,17.975,0,0,1-5.98-2.543v3.151a7.742,7.742,0,0,0,7.741,7.742H56.977a20.828,20.828,0,0,1,15.3,0h28.851a17.47,17.47,0,0,1,15.3,0h17.323a7.743,7.743,0,0,0,7.742-7.742Z"/><rect width="15.303" height="25.696" x="56.977" y="300.616" fill="url(#Np9YXvYEArdIkcJBkKDZ5F)"/><rect width="15.303" height="25.696" x="101.131" y="300.616" fill="url(#Np9YXvYEArdIkcJBkKDZ5G)"/><path fill="#34363a" d="M218.21,139.273h-1.627a3.5,3.5,0,0,1,0-7h1.627a3.5,3.5,0,0,1,0,7Z"/><path fill="#34363a" d="M202.519,139.273H186.071a3.5,3.5,0,0,1,0-7h16.448a3.5,3.5,0,0,1,0,7Z"/><rect width="21.466" height="16.901" x="294.576" y="131.779" fill="#34363a"/><path fill="#34363a" d="M155.765,51.016l3.763-2.311a5.215,5.215,0,0,1,7.422,2.186A42.645,42.645,0,0,1,170.8,62.948a6.789,6.789,0,0,1-3.769,7.065L159.2,73.855a44.528,44.528,0,0,1-6.661-15.612A6.994,6.994,0,0,1,155.765,51.016Z"/><polygon fill="url(#Np9YXvYEArdIkcJBkKDZ5H)" points="78.203 263.174 110.782 269.545 110.782 248.398 78.203 248.398 78.203 263.174"/><rect width="32.578" height="29.444" x="78.203" y="230.924" fill="url(#Np9YXvYEArdIkcJBkKDZ5I)" rx="10.879"/><circle cx="94.493" cy="245.253" r="3.658" fill="url(#Np9YXvYEArdIkcJBkKDZ5J)"/><path fill="url(#Np9YXvYEArdIkcJBkKDZ5K)" d="M104.4,166.153l1.454,1.064a3.854,3.854,0,0,1,1.519,3.774l-2.292,13.089-13.688,4.461a4.54,4.54,0,0,1-4.556-1.047l-3.476-3.349a2.436,2.436,0,0,1-.128-3.374l1.542-1.731Z"/><path fill="url(#Np9YXvYEArdIkcJBkKDZ5L)" d="M90.336,172.5l7.054-8.285a2.754,2.754,0,0,1,3.71-.447l3.3,2.381a2.753,2.753,0,0,1,1.06,2.9l-3.281,13.238C97.15,180.976,93.4,177.365,90.336,172.5Z"/><path fill="url(#Np9YXvYEArdIkcJBkKDZ5M)" d="M90.336,172.5,84.77,179.04a2.755,2.755,0,0,0,.469,4.007l3.182,2.334a2.754,2.754,0,0,0,2.445.409l11.308-3.5Z"/><path fill="url(#Np9YXvYEArdIkcJBkKDZ5N)" d="M144.026,182l-5.329,6.024a1.305,1.305,0,0,1-2.27-1.05l1.726-12.072Z"/><path fill="#fff" d="M135.092,83.481c2.044-.137,5.192-.36,7.682-.592a1.641,1.641,0,0,1,1.7,2.178l-1.983,5.667a1.637,1.637,0,0,1-2.3.922c-1.922-1.007-4.975-2.955-6.445-5.759A1.648,1.648,0,0,1,135.092,83.481Z"/></svg>