<svg xmlns="http://www.w3.org/2000/svg"  viewBox="0 0 340 340" width="500px" height="500px"><rect width="82.371" height="109.223" x="128.814" y="107.553" fill="#ffd7cd"/><rect width="39.994" height="51.818" x="95.021" y="237.456" fill="#3c3c4f"/><path fill="#f79089" d="M211.186,176.405H128.814v1.885l2.507,1.023S144.794,198.785,170,198.785s38.679-19.472,38.679-19.472l2.507-1.023Z"/><path fill="#ffc362" d="M192.029,148.218a30.1,30.1,0,0,1-3.932,9.005,21.427,21.427,0,0,1-36.194,0,30.1,30.1,0,0,1-3.932-9.005l-19.313,12.543c5.7,13.848,14.75,21.11,22.933,24.913a11.361,11.361,0,0,1,5.846,2.233A44.931,44.931,0,0,0,167,189.729a5.934,5.934,0,0,1,6,0,44.465,44.465,0,0,0,9.561-1.847,5.761,5.761,0,0,1,5.844-2.258c8.129-3.816,17.138-11.075,22.937-24.861Z"/><path fill="#fa883e" d="M202.5,155.019l-10.472-6.8a30.1,30.1,0,0,1-3.932,9.005,21.427,21.427,0,0,1-36.194,0,30.1,30.1,0,0,1-3.932-9.005l-10.472,6.8c7.834,22.379,32.428,20.549,32.428,20.549S194.605,175.6,202.5,155.019Z"/><rect width="39.994" height="51.818" x="204.986" y="237.456" fill="#3c3c4f" transform="rotate(180 224.982 263.365)"/><path fill="#fdfbff" d="M170,233.048c-13.026-28.376-31.649-51.134-53.269-70.883-9.829,12.94-43.226,62.176-21.09,107.924l17.6-28.771A49.619,49.619,0,0,0,125.7,256.509c3.816,15.413,1.236,39-1.031,54.973h90.67c-2.267-15.976-4.306-38.859-.49-54.272,7.756-6.4,11.913-15.892,11.913-15.892l17.6,28.771c22.136-45.748-11.261-94.984-21.09-107.924C201.649,181.914,183.026,204.672,170,233.048Z"/><path fill="#b9b4d3" d="M214.173,302.31c-1.617-14.51-2.272-32.5.672-45.1,0,0-9.919,6.133-25.229,4.869a34.889,34.889,0,0,1-10.448-2.528,24.107,24.107,0,0,0-18.348,0,34.962,34.962,0,0,1-10.467,2.533c-15.31,1.264-24.657-5.57-24.657-5.57,3.137,12.67,1.951,30.853.17,45.8Z"/><path fill="#b9b4d3" d="M118.362,202.011c8.025-11.31,9.712-18.858,9.86-22.9L120.2,161.462l-3.465.7c-9.829,12.94-43.226,62.176-21.09,107.924l17.6-28.771C108.963,231.163,107.774,216.932,118.362,202.011Z"/><path fill="#d9d4ff" d="M211.548,46.225s-1.891,13.432,9.072,26.383c14.6,17.246,28.889,57.537,25.447,104.79l-34.519-26.383L194.782,49.431Z"/><path fill="#d9d4ff" d="M128.452,46.225s1.891,13.432-9.072,26.383c-14.6,17.246-28.889,57.537-25.447,104.79l34.519-26.383L145.218,49.431Z"/><path fill="#f79089" d="M211.186,107.553H131.822l.5,1.944c-.071-.425,21.055,44.184,62.465,25.774,6.376-2.835,11.794-5.545,16.4-8.1Z"/><path fill="#fff" d="M207.18,158.9c-12.4,28.871-37.193,52.82-37.18,52.8.013.016-24.782-23.933-37.18-52.8l-16.089,3.264c8.862,18.087,26.637,48.979,53.269,70.883,26.632-21.9,44.407-52.8,53.269-70.883Z"/><path fill="#dad5e8" d="M128.183,179.775a4.682,4.682,0,0,1,4.2-4.291,31.789,31.789,0,0,0,7.9-1.963l0,0c-1.351-2.3-2.658-4.66-3.9-7.072-.055-.107-.107-.214-.162-.321-.5-.983-1.3-2.608-1.768-3.607-.033-.068-.065-.137-.1-.2-.529-1.129-1.047-2.264-1.539-3.41l-16.089,3.264c2.8,5.719,6.5,12.719,11.08,20.31A22.643,22.643,0,0,0,128.183,179.775Z"/><path fill="#b9b4d3" d="M221.639,202.011c-8.025-11.31-9.712-18.858-9.861-22.9l8.026-17.646,3.466.7c9.829,12.94,43.226,62.176,21.09,107.924l-17.6-28.771C231.037,231.163,232.226,216.932,221.639,202.011Z"/><path fill="#dad5e8" d="M211.818,179.775a4.683,4.683,0,0,0-4.2-4.291,31.789,31.789,0,0,1-7.9-1.963l0,0c1.351-2.3,2.659-4.66,3.9-7.072l.161-.321c.5-.983,1.3-2.608,1.769-3.607l.1-.2c.529-1.129,1.046-2.264,1.538-3.41l16.09,3.264c-2.8,5.719-6.5,12.719-11.08,20.31A22.643,22.643,0,0,1,211.818,179.775Z"/><path fill="#ff9d9b" d="M169.429,324.651s-25.5,0-41.1-6.34l11.613-27.959s18.659,6.307,35.171,1.514Z"/><path fill="#ffd7cd" d="M200.054,290.352l-7.692,1.322a8.485,8.485,0,0,1-7.44-2.363h0a8.49,8.49,0,0,0-6.582-2.466l-6.257.429a5.938,5.938,0,0,0-5.485,6.677l.55,4.306h0a12.555,12.555,0,0,0-10.629,14.723l.26,1.4a12.552,12.552,0,0,0,12.651,10.266c11.3-.276,28.28-1.411,41.913-10.722Z"/><path fill="#fdfbff" d="M99.32,263.365s15.38,20.022,40.626,26.987l-8.415,39.6h-26.4S94.387,292.673,99.32,263.365Z"/><path fill="#6d68b7" d="M122.455,155.511s4.6,14.143-8.84,31.114c-9.823,12.408-17.567,33.133-17.566,52.362a46.256,46.256,0,0,0,8.472,26.335c7.516,10.818,18.913,34.825.609,64.632H43.256s-9.087-43.34,12.108-76.367c6.129-3.839,9.46-11.427,10.417-22.194,1.706-15.182,10.323-46.229,49.6-78.71Z"/><path fill="#fdfbff" d="M240.68,263.365s-15.38,20.022-40.626,26.987l8.415,39.6h26.4S245.613,292.673,240.68,263.365Z"/><path fill="#6d68b7" d="M217.545,155.511s-4.6,14.143,8.84,31.114c9.823,12.408,17.567,33.133,17.566,52.362a46.256,46.256,0,0,1-8.472,26.335c-7.516,10.818-18.913,34.825-.609,64.632h61.874s9.087-43.34-12.108-76.367c-5.012-4.518-9.4-11.331-10.417-22.194-1.706-15.182-10.323-46.229-49.6-78.71Z"/><path fill="#3c3c4f" d="M222.728,128.842a23.049,23.049,0,0,1-6.537-16.184V100.736c0-8.9-3.029-14.436-5.842-17.657a19.911,19.911,0,0,1-5.035-12.309l-1.046-27.5C198.87,14.337,170,16.1,170,16.1s-29.772-1.76-34.268,27.17l-1.046,27.5a19.911,19.911,0,0,1-5.035,12.309c-2.813,3.221-5.842,8.756-5.842,17.657v11.922a23.049,23.049,0,0,1-6.537,16.184c-5.894,5.991-12.543,16.411-4.8,28.581,12.684,19.938,43.2,6.451,43.2-14.074v-56.3h28.658v56.3c0,20.525,30.516,34.012,43.2,14.074C235.271,145.253,228.622,134.833,222.728,128.842Z"/><path fill="#ffd7cd" d="M188.072,72.772a25.664,25.664,0,0,1-5.492-7.227,34.325,34.325,0,0,0-25.145-.03,25.648,25.648,0,0,1-5.507,7.257,12.186,12.186,0,0,0-3.957,8.957v25.349c.964,10.461,9.635,15.312,15.805,17.456a18.972,18.972,0,0,0,12.448,0c6.17-2.144,14.841-7,15.805-17.456V81.729A12.186,12.186,0,0,0,188.072,72.772Z"/><path fill="#f79089" d="M170,68.283c4.828,0,9.581-.1,14.2-.28a44.1,44.1,0,0,1-3-16.425H158.8a44.123,44.123,0,0,1-2.985,16.382C160.1,68.162,164.8,68.283,170,68.283Z"/><path fill="#ffc362" d="M170,10.8a3.006,3.006,0,0,0-2,.762,27.621,27.621,0,0,0-3.858,4.208,9.406,9.406,0,0,0-1.835,5.608c-.017,11.783-3.944,19.921-16.391,19.921-9.324,0-13.693-3.872-15.706-7.028a2.13,2.13,0,0,0-3.813.457,31.791,31.791,0,0,0-.954,13.324,8.227,8.227,0,0,0,6.39,7.029c8.265,1.865,23.215,2.8,38.164,2.8C171.755,44.811,171.28,28.407,170,10.8Z"/><path fill="#ff9d9b" d="M154.429,303.41l20.731-3.05a3.063,3.063,0,0,0,2.569-3.571h0a3.061,3.061,0,0,0-3.259-2.511l-15.038,1.2Z"/><path fill="#fa883e" d="M213.6,34.727a2.13,2.13,0,0,0-3.811-.462c-2.011,3.157-6.38,7.032-15.708,7.032-12.445,0-16.372-8.136-16.391-19.916a9.411,9.411,0,0,0-1.832-5.61A27.708,27.708,0,0,0,172,11.56a3.006,3.006,0,0,0-2-.762V33.79a2.847,2.847,0,0,1-2.089,2.774,8.3,8.3,0,0,0,0,16.055A2.847,2.847,0,0,1,170,55.393v2.484c14.952,0,29.9-.933,38.169-2.8a8.224,8.224,0,0,0,6.385-7.023A31.809,31.809,0,0,0,213.6,34.727Z"/><circle cx="170" cy="44.591" r="3.559" fill="#fff"/><circle cx="261.292" cy="281.909" r="3.559" fill="#3c3c4f"/><circle cx="78.708" cy="281.909" r="3.559" fill="#3c3c4f"/><path fill="#3c3c4f" d="M43.256,333.454H296.744a3.5,3.5,0,0,0,3.425-2.782c.421-2.006,10-49.514-15.976-83.833a32.373,32.373,0,0,1-6.5-15.827c-1.384-12.233-6.975-33.937-27.836-58.507,2.159-46.064-12.236-85.224-26.57-102.158A35.139,35.139,0,0,1,215.5,54.4c4.546-5.256,3.491-19.52-1.165-26.1a3.5,3.5,0,0,0-6.354,1.407,8.66,8.66,0,0,1-2.7,4.579c-6.089-14.9-19.012-19.565-26.947-21.011-7.5-8.941-9.137-8.989-16.643-.042-8.159,1.413-21.324,6.024-27.14,20.909a8.57,8.57,0,0,1-2.533-4.387,3.516,3.516,0,0,0-6.36-1.454c-4.65,6.554-5.714,20.843-1.169,26.094a35.062,35.062,0,0,1-7.785,15.952c-14.36,16.964-28.722,56.1-26.566,102.153C69.27,197.064,63.667,218.863,62.3,231a32.371,32.371,0,0,1-6.5,15.837c-25.976,34.319-16.4,81.827-15.976,83.833A3.5,3.5,0,0,0,43.256,333.454Zm67.86-7c8.583-16.616,8.65-31.312,5.631-42.973a81.121,81.121,0,0,0,19.106,9.293l-7.157,33.68ZM99.549,238.987c0-17.318,6.755-37.487,16.81-50.19a53.222,53.222,0,0,0,5.8-9.025c9.951,17.237,25.194,39.181,45.618,55.979a3.5,3.5,0,0,0,4.446,0c20.444-16.815,35.692-38.788,45.618-55.98a53.128,53.128,0,0,0,5.8,9.026c12.072,15.768,21.36,43.819,14.341,64.16l-7.408-12.109c1-3.575,2.718-12.117-1.13-19.448a3.5,3.5,0,0,0-6.2,3.254c3.409,6.712.323,15.147.189,15.564a32.589,32.589,0,0,1-7.164,11.217c-8.318,8.595-6.8,19.784-6.987,31.807a67.362,67.362,0,0,1-10.024,3.695l-7.493,1.288a5,5,0,0,1-4.372-1.389,11.976,11.976,0,0,0-9.295-3.482c-5.983.379-12.053-.051-14.519,6.767a71.472,71.472,0,0,1-22.516-3.085,68.518,68.518,0,0,1-10.352-3.794c-.181-12.022,1.332-23.214-6.986-31.807a32.238,32.238,0,0,1-7.206-11.336c-.032-.088-3.211-8.9.224-15.445a3.5,3.5,0,0,0-6.2-3.253c-3.848,7.33-2.129,15.872-1.122,19.448l-7.407,12.108A41.159,41.159,0,0,1,99.549,238.987ZM119.767,131.3c9.02-9.226,7.462-18.816,7.541-30.56,0-7.979,2.708-12.754,4.979-15.355,6.853-7.393,5.911-16.508,6.321-25.625,4.882.617,10.676,1.056,16.859,1.322-2.987,9.284-11.128,10.609-11,20.651.023.411-.034,25.267.015,25.669a21.482,21.482,0,0,0,7.685,14.637v21.314c0,9.69-8.167,17.137-16.234,19.486-8.387,2.44-16.056-.284-20.513-7.291C110.34,147.552,111.8,139.394,119.767,131.3Zm81.625-71.54c.411,9.168-.528,18.227,6.321,25.625,2.271,2.6,4.978,7.376,4.978,15.355.079,11.766-1.474,21.334,7.543,30.56,7.965,8.1,9.426,16.256,4.342,24.249-4.457,7.005-12.125,9.732-20.513,7.29-8.067-2.349-16.234-9.8-16.234-19.486V122.035a21.482,21.482,0,0,0,7.685-14.636c.059-.487-.012-25.215.015-25.671.132-10.058-8.019-11.363-11.015-20.649C190.705,60.813,196.505,60.373,201.392,59.756ZM125.666,170.325a25.478,25.478,0,0,0,8.805,0c9.445,17.154,19.234,29.107,29.591,40.311,4.115,4.311,4.21,4.571,5.939,4.57,1.607.027,1.815-.205,5.951-4.586,10.357-11.2,20.142-23.157,29.577-40.295a25.453,25.453,0,0,0,8.805,0c.077.322.17.641.255.962-9.11,16.614-24.059,39.58-44.589,57.191-20.5-17.59-35.444-40.515-44.589-57.194C125.5,170.963,125.59,170.645,125.666,170.325Zm36.962-42.485a23.5,23.5,0,0,0,18.2-1.4v16.907a25.069,25.069,0,0,0,3.687,12.917c-6.9,9.822-22.138,9.82-29.032,0a25.069,25.069,0,0,0,3.687-12.917V126.442C160.27,126.949,161.417,127.419,162.628,127.84Zm3.872,42.586v15.737a42.358,42.358,0,0,1-11.273-2.742,102.381,102.381,0,0,1,6.884-14.019A24.937,24.937,0,0,0,166.5,170.426Zm12.306-1.355a104.867,104.867,0,0,1,6.909,13.918,42.009,42.009,0,0,1-12.215,3.172V170.426A24.821,24.821,0,0,0,178.806,169.071Zm-9.43,24.257a44.071,44.071,0,0,0,13.925-2.015c-5.52,7.065-10.488,12.477-13.3,15.409-2.809-2.927-7.765-8.327-13.275-15.376A45.934,45.934,0,0,0,169.376,193.328Zm22.481-13.846a113.52,113.52,0,0,0-6.911-13.786,24.937,24.937,0,0,0,4.032-3.8,30.833,30.833,0,0,0,9.681,6.411C196.51,172.21,194.206,175.952,191.857,179.482ZM151.022,161.9a24.911,24.911,0,0,0,4.815,4.36,109.421,109.421,0,0,0-6.9,14.016c-.15-.093-.3-.182-.45-.277-2.468-3.681-4.892-7.6-7.145-11.688A30.847,30.847,0,0,0,151.022,161.9ZM177.29,61.306A28.479,28.479,0,0,0,185.7,75.344a8.729,8.729,0,0,1,2.83,6.385v25.18c-.955,10.8-14.963,17.542-23.6,14.319-5.684-1.975-12.613-6.06-13.454-14.319V81.729a8.729,8.729,0,0,1,2.83-6.385,28.5,28.5,0,0,0,8.405-14.038C167.531,61.408,172.465,61.408,177.29,61.306ZM232.6,263.325a66.288,66.288,0,0,0-4.777,8.034,85.062,85.062,0,0,1-11.6,8.256c.4-8.653-.929-17.006,5.009-23.24a38.721,38.721,0,0,0,5.907-7.728l7.266,11.878Q233.561,261.947,232.6,263.325ZM112.861,248.647a38.721,38.721,0,0,0,5.907,7.728c5.938,6.24,4.611,14.578,5.011,23.241a84.959,84.959,0,0,1-11.6-8.256c-2.12-4.347-4.321-7.19-6.579-10.835Zm24.225,72,5.5-25.906a79.446,79.446,0,0,0,17.644,2.4c-8.322,4.981-9.56,17.14-3.965,24.586A128.661,128.661,0,0,1,137.086,320.648Zm32.258.5c-11.331.288-13.178-17.778-1.794-19.413l8.841-.559a3.5,3.5,0,0,0-.442-6.986l-5.746.363-.134-1.05a2.451,2.451,0,0,1,2.253-2.742l6.258-.428a4.97,4.97,0,0,1,3.866,1.449c4.3,4.343,9.426,3.771,14.884,2.585l4.112,19.349C190.822,319.438,178.239,320.935,169.344,321.152Zm34.8-28.379a81.1,81.1,0,0,0,19.106-9.292c-3.019,11.661-2.952,26.357,5.631,42.973H211.3Zm89.643,33.681H236.856c-15.64-26.972-5.853-48.555,1.5-59.135a49.557,49.557,0,0,0,9.1-28.332c0-18.775-7.362-40.69-18.322-54.534A40.313,40.313,0,0,1,221,168.076a24.164,24.164,0,0,0,8.127-6.856c39.424,37.144,49.88,71.1,36.532,108.2a3.5,3.5,0,1,0,6.453,2.709,79.478,79.478,0,0,0,5.514-22.46C298.828,276.025,295.636,316.064,293.79,326.454Zm-50.719-161.46q-4.738-4.932-10.356-9.955c4-9.559,1.43-19.582-7.491-28.652a19.421,19.421,0,0,1-5.533-13.729V100.736c0-10.149-3.647-16.456-6.706-19.959a16.506,16.506,0,0,1-4.173-10.14l-.458-12.023c.3-.062.607-.12.9-.208a42.393,42.393,0,0,0,8.692,16.463C230.689,89.92,243.461,124,243.071,164.994ZM198.964,37.33c-9.468,1.33-17.717.893-17.783-16.179A26.609,26.609,0,0,1,198.964,37.33ZM158.823,21.065c-.012,17.152-8.414,17.674-17.978,16.223C144.414,27.568,151.836,23.081,158.823,21.065ZM129.051,38.474c3.181,3.41,8.505,6.323,16.868,6.323,13.178,0,19.87-7.882,19.892-23.426-.043-2.93,2.3-5.027,4.189-6.9,1.886,1.873,4.233,3.971,4.189,6.9C174.211,36.915,180.9,44.8,194.081,44.8c8.363,0,13.687-2.913,16.868-6.323.418,4.552,1.774,11.865-3.587,13.2-16.063,3.611-58.66,3.611-74.723,0C127.256,50.325,128.647,43.035,129.051,38.474Zm-7,36.4a42.372,42.372,0,0,0,8.7-16.463c.294.088.6.146.9.208l-.458,12.023a16.506,16.506,0,0,1-4.173,10.14c-3.059,3.5-6.706,9.81-6.706,19.959v11.922a19.421,19.421,0,0,1-5.533,13.729c-8.921,9.07-11.489,19.092-7.491,28.651q-5.628,5.02-10.36,9.963C96.531,124.007,109.286,89.95,122.051,74.869Zm-60.663,176.2c.347-.458.665-.93.99-1.4a79.493,79.493,0,0,0,5.515,22.466,3.5,3.5,0,1,0,6.454-2.709c-13.322-37.1-2.971-70.96,36.527-108.2A24.169,24.169,0,0,0,119,168.077a40.3,40.3,0,0,1-8.128,16.376c-10.96,13.844-18.323,35.759-18.322,54.534a49.557,49.557,0,0,0,9.1,28.332c7.351,10.58,17.138,32.163,1.5,59.135H46.21C44.636,315.994,40.779,278.293,61.388,251.064Z"/><path fill="#3c3c4f" d="M164.4,87.275c-2.795-.829-6.769-1.3-7.245,2.652a3.5,3.5,0,0,0,3.246,3.737c1.195.027,1.976.427,3.022.472A3.505,3.505,0,0,0,164.4,87.275Z"/><path fill="#3c3c4f" d="M176.573,94.136c1.046-.045,1.827-.445,3.022-.472a3.5,3.5,0,0,0-.491-6.983c-3.127.144-6.765,1.1-5.891,4.932A3.5,3.5,0,0,0,176.573,94.136Z"/></svg>