<svg xmlns="http://www.w3.org/2000/svg"  viewBox="0 0 340 340" width="500px" height="500px"><path fill="#ffd29a" d="M214.014,131.459c16.136-1.251,37.727-7.145,54.656-27.019L276.955,121c-17.662,40.228-47.1,50.167-86.065,35.626Z"/><path fill="#e88e5a" d="M282.293,82.71a92.317,92.317,0,0,1-13.633,21.721c.589,8.278.034,28.947-17.75,42.855A46.626,46.626,0,0,1,220.3,157a61.011,61.011,0,0,1-20.969-4.518c7.756-5.509,12.254-14.417,14.683-21.018a85.478,85.478,0,0,1-23.123-1.143c-10.9,31.854,12.33,42.592,12.33,42.592a111.274,111.274,0,0,0,30.267-2.3l.015.005c44.808-10.047,56.783-47.224,56.783-47.224V82.71Z"/><path fill="#ffd29a" d="M71.084,235.943c-4.376,13.647-9.074,30.913-11.268,47.59a27.653,27.653,0,0,0,12.8,27.086c8.145,5.1,24.259,10.538,41.256,13.441l4.035-31.242s-10.887-1.47-19.15-6.078c-3.81-2.124-5.166-7.02-4.441-11.321.541-3.206,1.37-7.374,2.612-12.056l5.611-40.224Z"/><path fill="#e88e5a" d="M80.608,209.617s-4.555,10.83-9.524,26.326c7.212.139,18.939-.523,26.6-5.5,0,0-.944,17.284-12.6,29.973a2.04,2.04,0,0,0,1.4,3.433,58.488,58.488,0,0,0,10.455-.481c2.552-9.626,6.838-21.42,13.942-31.522C105.717,217.9,95,211.319,80.608,209.617Z"/><path fill="#ffd29a" d="M138.666,271.788c.831,9.471,1.486,20.955,1.486,33.627h88.254a255.76,255.76,0,0,0-9.445-81.315l-46.2-11.965Z"/><path fill="#6d68b7" d="M158.9,328.674h69.51V305.415H160.312C156.6,311.208,156.7,319.3,158.9,328.674Z"/><path fill="#e88e5a" d="M197.574,176.789c-26.728,19.033-52.328,41.406-62.327,68.167,0,0,4.9,34.613,4.9,60.459h20.16c-.436-13.93-1.116-26.577-1.718-36.1a17.645,17.645,0,0,1,4.933-13.455,55.747,55.747,0,0,0,14.947-28.393s20.287,4.5,40.483-3.362C214.309,208.185,207.507,191.787,197.574,176.789Z"/><path fill="#6d68b7" d="M95.439,160.426a43.247,43.247,0,0,0-7.466,5.519,36.819,36.819,0,0,0-11.137,21.492c-1.3,8.236-5.448,21.457-18.625,28.051a2.03,2.03,0,0,0-.2,3.5c4.921,3.224,16.663,8.26,37.146,2.451a66.732,66.732,0,0,1-10.686,30.575,2.042,2.042,0,0,0,1.546,3.193c7.754.47,26.548-.735,38.7-21.1a49.939,49.939,0,0,1,2.482,28.963,2.035,2.035,0,0,0,2.79,2.31c10.068-4.343,36.845-19.2,39.07-55.041,0,0,32.585,18.879,62.745-6.571a2.041,2.041,0,0,0-.463-3.408,48.5,48.5,0,0,1-23.008-22.2s15.445-6.512,22.779-25.267a2.033,2.033,0,0,0-2.037-2.752c-6.391.414-21.5.433-34.889-6.825,0,0,11.65-12.2,11.761-28.654a2.046,2.046,0,0,0-2.969-1.853,62.62,62.62,0,0,1-31.174,6.436,39.058,39.058,0,0,0-18.2,3.663C143.357,147.572,125.47,162.07,95.439,160.426Z"/><path fill="#4d5284" d="M132.645,154.928s-19.757-4.7-37.206,5.5c3.886,3.712,19.8,16.674,41.535,3.936,18.739-10.984,18.136-31.666,16.626-41.45C140.726,128.837,130.97,141.169,132.645,154.928Z"/><path fill="#e88e5a" d="M118.6,169.826c7.446,11.021,20.463,23.559,42.045,26.643,0,0,.726-24.454-11.008-45A73.019,73.019,0,0,0,118.6,169.826Z"/><path fill="#f79089" d="M80.546,123.51l-5.933,6.149a13.4,13.4,0,0,0-.79,17.958h0a13.4,13.4,0,0,0,16.75,3.219l7.828-4.277Z"/><path fill="#f79089" d="M120.747,95.779l7.994-3.019a13.4,13.4,0,0,1,16.808,6.372h0a13.4,13.4,0,0,1-3.664,16.658l-7.022,5.5Z"/><path fill="#e88e5a" d="M136.961,136.08l-27.119,15.658a66.7,66.7,0,0,0,8.757,18.088,36.613,36.613,0,0,0,18.375-5.463,33.188,33.188,0,0,0,12.658-12.9A56.06,56.06,0,0,0,136.961,136.08Z"/><path fill="#ffd7cd" d="M83.232,134.638a165.241,165.241,0,0,0,15.882,17.908,25.4,25.4,0,0,0,32.561,2.18h0a25.341,25.341,0,0,0,9.318-27.88,103.581,103.581,0,0,0-10.955-24.595C112.179,108.289,96.532,118.988,83.232,134.638Z"/><path fill="#d88783" d="M317.394,196.666c-2.146-4.407-4.169-8.876-5.9-13.461-7.065-18.692-12.237-35.722-13.625-46.3-.649-4.943.989-11.343.989-16.329V48.635l3.837-28.586a7.651,7.651,0,0,0-7.584-8.669h-14.4a7.651,7.651,0,0,0-7.582,8.676l3.827,28.31v72.206c0,4.986.649,13.921,0,18.865-1.388,10.581-5.571,25.076-12.636,43.768-1.733,4.585-3.756,9.054-5.9,13.461-4.521,9.285-18.09,40.908-11.848,74.807,2.657,14.428,9.687,23.255,17.212,28.655a41.56,41.56,0,0,0,48.248,0c7.524-5.4,14.555-14.227,17.211-28.655C335.484,237.574,321.915,205.951,317.394,196.666Z"/><rect width="21.393" height="124.829" x="277.463" y="84.788" fill="#874f4f"/><circle cx="287.906" cy="227.848" r="23.768" fill="#3c3c4f"/><circle cx="106.283" cy="132.841" r="3.559" fill="#3c3c4f"/><circle cx="120.747" cy="123.901" r="3.559" fill="#3c3c4f"/><path fill="#f79089" d="M83.233,134.638l46.8-32.382a67.434,67.434,0,0,0-6.963-9.269L75.741,124.245S78.589,128.631,83.233,134.638Z"/><path fill="#3c3c4f" d="M117.065,99.422l7.822-5.394a5.81,5.81,0,0,0,2.285-6.451,52.2,52.2,0,0,1-1.767-8.129,14.658,14.658,0,0,1,24.13-13.087,47.7,47.7,0,0,1,8.373,9.438l6.217-3.865s-2.289-17.045-12.2-29.2c-16.156-19.815-48.467-9.192-50.452,16.3C100.661,69.431,104.122,82.88,117.065,99.422Z"/><path fill="#3c3c4f" d="M90.821,117.52l-14.56,10.041a9.583,9.583,0,0,1-10.036.464c-6.651-3.616-18.921-7.283-27.995,7.441-8.055,13.071-5.465,31.794-5.465,31.794l-7.757,1.946S10.722,136.682,23.64,113.43c0,0,17.478-34.2,56.384-14.134Z"/><path fill="#6d68b7" d="M79.359,107.868c-6.8-6.4-14.966-15.4-19.541-25.167-8.824-18.84-12.163-28.857-33.15-9.3L18.8,66.007S22.97,31.056,61.487,34.288C78.354,35.7,92.131,51.651,101.75,67.409,112.668,88.486,101.806,106.263,79.359,107.868Z"/><circle cx="18.798" cy="73.156" r="9.555" fill="#ffd29a"/><circle cx="163.211" cy="78.98" r="9.555" fill="#ffd29a"/><circle cx="29.741" cy="173.917" r="9.555" fill="#ffd29a"/><path fill="#4d5284" d="M79.361,107.866a127.627,127.627,0,0,0,11.46,9.654l26.244-18.1A185.154,185.154,0,0,0,101.748,67.41C101.8,67.55,112.649,96.024,79.361,107.866Z"/><rect width="36.583" height="13.266" x="269.614" y="267.839" fill="#874f4f" rx="4.939"/><path fill="#f79089" d="M267.717,48.243H259.1a7.074,7.074,0,0,0-6.916,7.223v16.61A7.074,7.074,0,0,0,259.1,79.3h9.059Z"/><path fill="#ffd7cd" d="M296.47,90.851H279.341a10.927,10.927,0,0,1-10.927-10.927V79.3a9.865,9.865,0,0,0,0-7V65.18a9.86,9.86,0,0,0,0-7V48.243H296.47A10.928,10.928,0,0,1,307.4,59.171V79.924A10.928,10.928,0,0,1,296.47,90.851Z"/><path fill="#4d5284" d="M140.152,324.691a3.984,3.984,0,0,0,3.984,3.983H158.9a17.068,17.068,0,0,0,1.756-7.025l-.34-16.234h-20.16Z"/><path fill="#ffd7cd" d="M117.911,292.818l20.031,2.43a12.253,12.253,0,0,1,10.6,10.085l2.12,12.31a8.9,8.9,0,0,1-9.686,11.031s-15.961-1.7-27.1-4.614C113.876,324.06,109.842,307.768,117.911,292.818Z"/><path fill="#3c3c4f" d="M255.271,195.011c-54.14,122.926,61.849,148.619,77.413,76.972,6.42-45.93-9.238-67.777-17.917-90.139-13.01-36.21-12.766-55.916-12.411-88.761A14.439,14.439,0,0,0,310.9,79.924V59.171a14.432,14.432,0,0,0-8.2-12.993l.863-6.431h3.606a3.5,3.5,0,0,0,0-7H304.5l.671-5h4.457a3.5,3.5,0,0,0,0-7h-3.518a11.232,11.232,0,0,0-11-12.995h-14.4a11.231,11.231,0,0,0-11,13h-3.018a3.5,3.5,0,0,0,0,7h3.964l.676,5h-2.18a3.5,3.5,0,0,0,0,7h3.126l.675,5H258.843a10.427,10.427,0,0,0-10.415,10.416v15.9a10.427,10.427,0,0,0,10.415,10.415H265A14.444,14.444,0,0,0,272.873,92.8c-19,29.992-47.846,35.378-65.843,35.435,1.314-3.111,6.332-24.22-3.165-19.936-22.908,13.96-38.206.181-59.915,16.294q-.765-2.412-1.6-4.723c15.658-10.377,7.008-33.887-11.462-31.31-.489-3.2-1.737-6.4-2.014-9.574a11,11,0,0,1,5.663-11.333c6.386-3.357,11.973-.475,16.968,5.582-4.348,8.386,2.224,18.969,11.705,18.8,15.3-.389,17.927-21.408,3.388-25.648-1.535-6.536-4.938-17.252-11.964-25.869-16.945-21.4-52.4-11.153-56.311,15.449C71.611,16.394,25.656,26.69,16.488,60.318,1,63.522,2.87,85.744,18.8,86.21A13.062,13.062,0,0,0,31.838,73.455c6.078-5.268,10.541-7.656,13.27-7.095,5,.6,10.242,16.588,14.438,23.231C33.992,87.955,21.5,110.04,20.577,111.736c-10.488,18.888-4.37,42.991-.731,53.69-7.255,8.224-1.172,21.639,9.9,21.546,13.617-.165,17.957-18.118,6.171-24.553-1.224-14.46,6.668-43.278,28.642-31.319a13.383,13.383,0,0,0,4.011,1.412C62.233,148.651,79.9,162.4,94.349,152.761c.939.938,1.873,1.9,2.863,2.786-34.959,16.94-13.479,45.145-43.225,57.983A3.5,3.5,0,0,0,51.838,216c-1.179,3.144,5.945,8.934,18.505,11.085-5.176,15.051-11.354,35.9-14,56-2.778,31.285,28.065,38.574,56.791,44.406a219.875,219.875,0,0,0,25.9,4.494,15.149,15.149,0,0,0,4.457.2h84.909a3.5,3.5,0,0,0,3.5-3.5V305.543c.227-3.2,2.888-45.58-11.979-90.076a62.851,62.851,0,0,0,16.751-11.346,3.5,3.5,0,0,0-1.323-5.9A44.79,44.79,0,0,1,213.1,179.6a47.575,47.575,0,0,0,4.782-3.274c19.717-1.271,36.584-7.315,50.3-17.982A170.479,170.479,0,0,1,255.271,195.011Zm25.184-100.66h3.951V200.812a27.178,27.178,0,0,0-3.951.811Zm3.951,153.441a20.074,20.074,0,0,1-3.951-1.113V209.017a20.143,20.143,0,0,1,3.951-1.113Zm7-39.888a20.114,20.114,0,0,1,3.95,1.113v37.662a20.114,20.114,0,0,1-3.95,1.113Zm-17.951,34.131c-7.69-7.479-7.688-20.9,0-28.374Zm10.951,12.849v9.455h-3.951V254.073A27.178,27.178,0,0,0,284.406,254.884Zm-9.853,16.455h26.7a1.44,1.44,0,0,1,1.439,1.439v3.387a1.44,1.44,0,0,1-1.439,1.439h-26.7a1.441,1.441,0,0,1-1.439-1.439v-3.387A1.441,1.441,0,0,1,274.553,271.339Zm20.8-7h-3.95v-9.455a27.138,27.138,0,0,0,3.95-.811Zm7-50.677c7.69,7.478,7.688,20.9,0,28.372Zm-10.95-12.85V94.351h3.95V201.623A27.138,27.138,0,0,0,291.406,200.812ZM276.6,19.464a4.169,4.169,0,0,1,4.115-4.707h14.4a4.151,4.151,0,0,1,4.115,4.7l-3.393,25.283H280.013Zm-21.168,51.6v-15.9a3.419,3.419,0,0,1,3.415-3.416h6.071V74.478h-6.071A3.419,3.419,0,0,1,255.428,71.063ZM271.914,79.3h15.992a3.5,3.5,0,0,0,0-7H271.914V65.18h15.992a3.5,3.5,0,0,0,0-7H271.914V51.743H296.47a7.437,7.437,0,0,1,7.428,7.428V79.924a7.437,7.437,0,0,1-7.428,7.427H279.341A7.49,7.49,0,0,1,271.914,79.3Zm-170.379,70.72a171.267,171.267,0,0,1-19.189-22.4l41.279-28.467c5.709,7.5,10.535,17.367,14.023,28.724C144.011,149.377,117.881,165.453,101.535,150.019Zm32.2,7.533a28.875,28.875,0,0,0,8.826-10.472c11.788,15.676,14.069,36.5,14.492,45.2-20.939-4.446-32.578-18.634-38.526-29.228A28.807,28.807,0,0,0,133.739,157.552Zm8.695-56.825a9.918,9.918,0,0,1-2.772,12.359,88.274,88.274,0,0,0-9.63-17.072A9.868,9.868,0,0,1,142.434,100.727ZM169.266,78.98c-.255,8-11.856,8-12.11,0C157.411,70.979,169.012,70.981,169.266,78.98ZM105.1,66.048c-3.963-33.061,43.479-46.958,54.31.445a12.989,12.989,0,0,0-3.213,1.494c-6.312-7.718-15.875-11.456-25.017-6.475a17.853,17.853,0,0,0-9.247,18.4,55.447,55.447,0,0,0,1.886,8.68,2.3,2.3,0,0,1-.921,2.557l-4.124,2.845A187.763,187.763,0,0,0,105.1,66.122C105.1,66.1,105.1,66.073,105.1,66.048ZM18.8,79.21c-8-.254-8-11.856,0-12.109C26.8,67.356,26.8,78.957,18.8,79.21ZM46.515,59.5c-4.678-.964-9.833,1.033-16.761,6.579a13.113,13.113,0,0,0-6.169-5.06C26.636,51.546,35.6,35.627,61.2,37.776c27.729,2.327,47.279,48.946,51.642,60.31L90.921,113.2c-5.48-4.291-21.084-17.357-27.934-31.982C58.384,71.245,53.905,60.614,46.515,59.5ZM29.741,179.972c-8-.255-8-11.856,0-12.109C37.742,168.117,37.74,179.719,29.741,179.972Zm5.51-46.342c-5.487,8.9-6.468,19.9-6.377,27.277a12.963,12.963,0,0,0-2.972.534c-3.338-10.435-7.856-30.866.851-46.411.5-.959,12.374-23.248,38.215-17.616a128.794,128.794,0,0,0,19.923,19.944L74.274,124.68a6.071,6.071,0,0,1-6.377.27C54.9,117.885,43,121.05,35.251,133.63ZM88.9,147.764c-10,5.224-19.586-7.27-11.867-15.561A194.917,194.917,0,0,0,89.383,147.5ZM63.286,283.99c2.674-20.327,9.1-41.547,14.284-56.387a63.807,63.807,0,0,0,13.456-1.523,63.407,63.407,0,0,1-11.333,26.611,3.525,3.525,0,0,0,2.084,5.54,43.048,43.048,0,0,0,12.958.049c-7.032,24.124-6.864,31.4,18.09,37.152a51.644,51.644,0,0,0-3.176,24.274C86.3,313.937,61.4,309.376,63.286,283.99Zm60.423-14.684c2.613,2.282,4.983.357,10.974-2.244.819,8.077,1.385,16.27,1.689,24.47l-18.008-2.184c-.374-.053-10.44-1.5-17.9-5.664-2.505-1.4-3.152-4.962-2.693-7.684a129.493,129.493,0,0,1,4.883-19.522,43.6,43.6,0,0,0,20.873-14.521,45.856,45.856,0,0,1-.676,23.835A3.5,3.5,0,0,0,123.709,269.306Zm23.5,48.931a5.524,5.524,0,0,1-4.179,6.937c-4.06-.02-14.3-1.4-26.129-3.97-.646-4.268-1.511-14.629,3.038-24.614l17.577,2.133a8.7,8.7,0,0,1,7.573,7.2Zm77.693,6.937H153.2c2.526-4.418.148-11.53-.485-16.259h72.195Zm.166-23.259H151.227a15.591,15.591,0,0,0-7.783-8.637c-.32-10.047-1.029-20.109-2.11-29.969,14.739-10.042,26.649-22.057,30.727-47.668,11.243,4.735,26.777,7.036,41.324,2.34C225.632,254.869,225.455,291.1,225.072,301.915ZM205.192,179.71a51.681,51.681,0,0,0,22.59,22.819c-27.306,21.368-55.723,5.5-56.972,4.785a3.5,3.5,0,0,0-5.247,2.811c-1.955,31.479-23.624,45.737-34.414,50.921a53.153,53.153,0,0,0-3.253-28.394,3.5,3.5,0,0,0-6.187-.335c-10.091,16.908-24.957,19.478-32.959,19.5a69.744,69.744,0,0,0,9.9-30.209,3.5,3.5,0,0,0-4.451-3.534c-16.679,4.729-26.9,1.921-32.1-.722,28.066-18.057,7.329-43.852,42.03-57.117A28.809,28.809,0,0,0,110.3,162.4c5.993,12.565,20.945,33.805,50.344,37.569a3.523,3.523,0,0,0,3.5-3.4c.042-1.439.789-35.059-18.979-57.361a28.718,28.718,0,0,0,.373-6.864c7.108-6.412,17.006-10.08,26.083-9.609a66.381,66.381,0,0,0,30.716-5.732c-1.12,13.628-10.58,23.782-10.684,23.892a3.522,3.522,0,0,0,.864,5.493c12.756,6.916,26.78,7.62,34.431,7.364a43.634,43.634,0,0,1-19.976,21.178A3.523,3.523,0,0,0,205.192,179.71Zm20.831-11.279a52.505,52.505,0,0,0,9.5-17.517,3.524,3.524,0,0,0-3.836-4.531c-.177.026-16.638,2.3-32-4.288a54.817,54.817,0,0,0,4.317-6.9c20.017.269,47.48-3.761,69.448-31.089.151,14.361.241,28.458-2.854,42.831C258.821,158.589,243.852,165.787,226.023,168.431Zm41.57,15.888c2.345-6.2,4.269-12.362,5.862-18.267V204.74c-17,10.455-16.992,35.768,0,46.216v13.463a8.445,8.445,0,0,0-7.341,8.359v3.387a8.449,8.449,0,0,0,8.439,8.439h26.7a8.449,8.449,0,0,0,8.439-8.439v-3.387a8.446,8.446,0,0,0-7.341-8.359V250.956c17-10.455,16.992-35.768,0-46.216V166.053a169.478,169.478,0,0,0,11.891,32.022c7.3,11.857,27.521,77.366-4.259,99.087a37.852,37.852,0,0,1-44.166,0c-31.782-21.735-11.554-87.242-4.257-99.087C264.092,192.883,266.008,188.512,267.593,184.319Z"/></svg>