<svg xmlns="http://www.w3.org/2000/svg"  viewBox="0 0 340 340" width="500px" height="500px"><path fill="#874f4f" d="M74.168,167.758s-24.2,63.229-28.384,160H86.21s26.225-42.972,26.225-103.506C112.435,224.252,94.825,183.71,74.168,167.758Z"/><path fill="#3c3c4f" d="M238.038,327.758H213.533L200.808,289.3l46.313,2.445S249.628,315.41,238.038,327.758Z"/><path fill="#d88783" d="M84.9,191.992l1.739,3.927a93.308,93.308,0,0,0,7.443,13.746c6.291,9.508,9.8,25.718,4.762,39.08-5.81,15.41,9.094,24.8,9.094,24.8v6.249C86.21,296.43,86.21,327.758,86.21,327.758H213.533c-.5-24.564-10.61-41.12-10.61-41.12l36.146,9.14c2.51,18.457-1.031,31.98-1.031,31.98,10.853,0,18.478-2.97,23.765-6.671a27.534,27.534,0,0,0,11.578-21.733,139.784,139.784,0,0,0-2.361-29.069l-23.9-67.156c-6.159-12.117-12.215-22.226-16.668-29.22Z"/><path fill="#874f4f" d="M258.671,228.566l-23.452,15.692-9.385,30.083,11.654,11.4,33.521-15.454A219.22,219.22,0,0,0,258.671,228.566Z"/><path fill="#874f4f" d="M74.168,167.758s-1.079,2.821-2.815,8.164c4.627,8.54,14.515,25.329,54.874,29.894v25.271a6.8,6.8,0,0,0,6.8,6.8h32.483a6.8,6.8,0,0,0,6.8-6.8V205.816c42.6-5.714,54.832-24.431,58.149-31.906-4.27-6.707-7.068-10.553-7.068-10.553Z"/><path fill="#b9b4d3" d="M247.226,182.344l18.068-.734,27.952,56.823L276.8,247.145S245.074,209.232,247.226,182.344Z"/><path fill="#d88783" d="M225.376,153.8a41.4,41.4,0,0,0-3.879-4.476l-14.384-9.1a38.48,38.48,0,0,0,3.926-1.57A18.378,18.378,0,0,0,215.9,108.8c-8.892-8.546-20.457-13.531-31.389-16.427h-68.2c-10.932,2.9-22.5,7.881-31.389,16.427a18.378,18.378,0,0,0,4.856,29.853,38.48,38.48,0,0,0,3.926,1.57L79.366,149.27a41.606,41.606,0,0,0-3.93,4.526,13.277,13.277,0,0,0,2.706,18.667c10.483,7.678,32.057,18,72.264,18s61.781-10.326,72.265-18A13.277,13.277,0,0,0,225.376,153.8Z"/><path fill="#874f4f" d="M187.406,107.212c-12.839-11.06-61.16-11.06-74,0a9.385,9.385,0,0,0,.788,14.737l18.831,13.329h34.763l18.83-13.329A9.384,9.384,0,0,0,187.406,107.212Z"/><path fill="#ffd7cd" d="M133.025,114.1v21.181l2.029,1.436a62.056,62.056,0,0,1,9.147,9.121c2.67,3.316,5.363,7.389,6.205,11.127.843-3.738,3.536-7.811,6.2-11.127a62.1,62.1,0,0,1,9.147-9.121l2.029-1.436v-15.52A87.514,87.514,0,0,0,133.025,114.1Z"/><path fill="#6d68b7" d="M208.776,204.661l38.45-22.317,29.576,64.8-35.318,19.4c-25.33-3.19-48.2-23.04-42.4-50.165A22.8,22.8,0,0,1,208.776,204.661Z"/><path fill="#4d5284" d="M203.08,237.589a40.453,40.453,0,0,1-3.987-21.2c-3.8,10.3,0,21.346,0,21.346,3.939,10.549,4.271,18.45,3.693,23.586a30.918,30.918,0,0,0,2.945,16.905l3.042,6.294,32.708-17.97c-5.971-12.157-17.2-16.4-24.026-17.887A21.343,21.343,0,0,1,203.08,237.589Z"/><path fill="#874f4f" d="M93.49,276.845c0-3.907,3.975-6.715,7.96-5.623,7.663,2.1,21.926,4.491,47.159,4.491,45.018,0,58-13.585,58-13.585l-.934,16.1S184.466,289.3,146.914,289.3c-26.937,0-42.719-4.474-49.488-7a5.875,5.875,0,0,1-3.936-5.45Z"/><path fill="#ffd7cd" d="M225.41,259.953c-6.081-5.139-14.961-5.8-21.314-1-3.332,2.518-6.119,6.557-6.678,13.034a34.607,34.607,0,0,0,6.724,22.849s10.849,8.439,22.922,3.226a17.129,17.129,0,0,0,10.784-16.991A37.951,37.951,0,0,0,225.41,259.953Z"/><path fill="#fff" d="M251.394,222.059,249.78,218.9a2.226,2.226,0,0,0-3-.969l-4.392,2.245a2.225,2.225,0,0,1-2.987-.954l-2.566-4.926a2.227,2.227,0,0,0-3-.947l-3.147,1.64a2.225,2.225,0,0,0-.946,3l2.522,4.843a2.225,2.225,0,0,1-.961,3.01l-16.572,8.471a2.225,2.225,0,0,0-.969,3l1.614,3.159a2.228,2.228,0,0,0,3,.969l16.657-8.515a2.227,2.227,0,0,1,2.987.954l2.545,4.886a2.225,2.225,0,0,0,3,.946l3.147-1.639a2.226,2.226,0,0,0,.946-3l-2.5-4.8a2.226,2.226,0,0,1,.961-3.01l4.308-2.2A2.225,2.225,0,0,0,251.394,222.059Z"/><path fill="#f79089" d="M133.025,100.189V114.1c5.674,4.733,16.893,10.594,34.762,5.661V100.189A119.945,119.945,0,0,0,133.025,100.189Z"/><path fill="#ffd7cd" d="M181.731,32s-6.517-19.762-31.325-19.762S119.082,32,119.082,32c-7.4,10.92,4.415,25.227,4.415,25.227v27.4a24.838,24.838,0,0,0,5.132,15.374,27.3,27.3,0,0,0,43.555,0,24.838,24.838,0,0,0,5.132-15.374v-27.4S189.134,42.917,181.731,32Z"/><path fill="#3c3c4f" d="M181.731,32s3.923,9.211-8.206,15.495A8.477,8.477,0,0,0,168.907,55h0a8.419,8.419,0,0,0,4.058,7.2L190.77,72.991s12.87-9.474,6.563-24.61C191.536,34.468,181.731,32,181.731,32Z"/><path fill="#f79089" d="M177.316,64.841l4.215-.02a9.822,9.822,0,0,1,9.87,9.823h0a9.823,9.823,0,0,1-9.484,9.817l-4.6.159Z"/><path fill="#3c3c4f" d="M119.082,32s-3.923,9.211,8.206,15.495A8.477,8.477,0,0,1,131.906,55h0a8.421,8.421,0,0,1-4.058,7.2L110.042,72.991s-12.869-9.474-6.562-24.61C109.277,34.468,119.082,32,119.082,32Z"/><path fill="#f79089" d="M123.5,64.841l-4.216-.02a9.822,9.822,0,0,0-9.869,9.823h0a9.823,9.823,0,0,0,9.484,9.817l4.6.159Z"/><circle cx="141.773" cy="71.161" r="3.559" fill="#3c3c4f"/><circle cx="159.039" cy="71.161" r="3.559" fill="#3c3c4f"/><path fill="#fff" d="M172.333,175.231H160.3V159.012a3.1,3.1,0,0,0-3.1-3.1H143.617a3.1,3.1,0,0,0-3.1,3.1v16.219H128.48a3.1,3.1,0,0,0-3.1,3.1V191.91a3.1,3.1,0,0,0,3.1,3.1h12.036v31.356a3.1,3.1,0,0,0,3.1,3.1H157.2a3.1,3.1,0,0,0,3.1-3.1V195.011h12.036a3.1,3.1,0,0,0,3.1-3.1V178.332A3.1,3.1,0,0,0,172.333,175.231Z"/><path fill="#f79089" d="M239.089,295.778a56.731,56.731,0,0,0-1.242-14.708,19.805,19.805,0,0,1-12.759,13.67c-10.66,3.932-17.138,2.479-20.941.091a35.189,35.189,0,0,0,17.712,12.938A13.164,13.164,0,0,0,239.089,295.778Z"/><path fill="#3c3c4f" d="M43.256,330.178a3.5,3.5,0,0,0,2.528,1.08H238.038c10.176,0,18.847-2.457,25.772-7.3a31.1,31.1,0,0,0,13.069-24.493c.422-13.834-1.559-29.016-5.878-45.136,4.762-2.7,18.842-10.138,23.883-12.8a3.5,3.5,0,0,0,1.5-4.638l-27.951-56.822a3.526,3.526,0,0,0-3.282-1.952c-.732.151-19.643.424-19.685,1.2l-5.616,3.26c-3.753-6.387-7.042-11.534-9.326-14.986,4.8-11.83-7.158-22.727-15.115-27.4a21.758,21.758,0,0,0,9.325-14.522c3.658-21.02-24.093-33.282-43.449-37.684a13.314,13.314,0,0,0,13.584-13.951c14.989-13.807,5.729-37.385-10.51-44.8-12.082-27.368-55.9-27.268-67.909,0-16.332,7.522-25.459,30.981-10.51,44.8a13.313,13.313,0,0,0,13.584,13.951c-19.328,4.393-47.109,16.657-43.449,37.683A21.751,21.751,0,0,0,85.4,140.191c-8.1,4.792-20.069,15.694-15,27.677C68.258,175.552,42.945,245.263,43.256,330.178Zm46.653-5.92c.656-7.45,3.479-25.2,15.575-37.62,21.291,8.076,66.944,8.224,90.262-.591a40.112,40.112,0,0,0,9.984,16.015,90.865,90.865,0,0,1,4.159,22.2Zm126.99,0a97.308,97.308,0,0,0-2.184-15.7c6.906,3.869,15.256,5.081,21.741-.433a88.474,88.474,0,0,1-1.267,16.129Zm18.673-28.621a9.718,9.718,0,0,1-12.657,8.8c-15.675-5.058-23.049-20.341-22.03-32.151.578-11.95,13.459-16.995,22.246-9.66C234.133,271.925,235.969,285.711,235.572,295.637Zm-41.429-16.429c-9.4,3.154-24.13,6.59-43.736,6.59-20.48.218-47.611-4.649-46.8-8.952a2.327,2.327,0,0,1,3.016-2.263c15.984,5.484,67.676,7.089,87.2-1.4A34.433,34.433,0,0,0,194.143,279.208Zm75.739,20.039c-.456,14.964-13.079,23.9-27.552,24.837a99.842,99.842,0,0,0,.246-28.465,54.863,54.863,0,0,0-3.972-23.5l26.057-14.316C268.5,272.638,270.269,286.575,269.882,299.247Zm-34.577-33.3c-6.329-10.018-17.173-16.927-28.934-12.273a62.7,62.7,0,0,0-3.963-17.077c-.274-.805-6.533-19.836,8.125-28.912l35.111-20.379,26.625,58.332Zm53.3-29.02-10.162,5.384L252.572,185.63l10.588-.43ZM217.83,124.524c-.914,6.13-5.573,10.477-11.339,12.2-7.859.14-19.76-.944-26.782,2.726-2.951,1.38-7.678,3.454-5.268,7.324a3.5,3.5,0,0,0,4.871.878c6.781-5.269,19.11-3.736,27.258-3.928A35.423,35.423,0,0,1,222.576,155.9c10.083,15.87-21.911,25.128-43.642,29.042v-9.706a3.5,3.5,0,0,0-3.5-3.5H163.8V155.91c-.277-4.354-4.558-3.422-7.59-3.5A54.217,54.217,0,0,1,167.88,139.5c.819-.569,19.354-13.708,20.76-14.7a12.878,12.878,0,0,0,5.454-9.962c.125-9.691-7.549-13.467-16.839-16.215a27.572,27.572,0,0,0,1.793-3.966C194.648,98.122,220.657,108.239,217.83,124.524Zm-77.314,66.987H128.88v-12.78h11.636a3.5,3.5,0,0,0,3.5-3.5V159.41H156.8v15.821a3.5,3.5,0,0,0,3.5,3.5h11.637v12.78H160.3a3.5,3.5,0,0,0-3.5,3.5v30.957H144.016V195.011A3.5,3.5,0,0,0,140.516,191.511Zm-10.991-63-13.309-9.419a5.923,5.923,0,0,1-2.5-4.583c-.225-5.9,7.681-8.05,14.379-9.815.474.493.952.964,1.435,1.408Zm7-17.546c9.628,4.428,17.456,4.763,27.763,0v22.5a59.546,59.546,0,0,0-13.881,15.024,59.53,59.53,0,0,0-13.882-15.024Zm34.763-4.861c.483-.444.961-.917,1.434-1.41,6.694,1.763,14.608,3.918,14.38,9.815a5.919,5.919,0,0,1-2.507,4.582l-13.307,9.42ZM181.8,80.963l-.98.034V68.324C189.532,67.769,190.506,80.284,181.8,80.963ZM194.1,49.727a16.347,16.347,0,0,1-1.953,16.828c-3.336-4.542-8.531-5.6-13.863-5.219l-3.508-2.125a4.952,4.952,0,0,1,.358-8.611c6.941-3.6,9.735-8.373,10.5-12.563A28.06,28.06,0,0,1,194.1,49.727ZM150.407,15.735c22.035.2,27.683,16.463,28.083,17.584.254.653,2.224,6.507-6.575,11.066-8.243,4.006-8.652,16.244-.764,20.813l2.665,1.615V84.619c.113,16.386-16.409,23.429-23.587,22.718-6.949.607-23.381-6.46-23.232-22.718V66.813l2.665-1.615c7.889-4.574,7.479-16.8-.764-20.814-8.8-4.558-6.829-10.412-6.6-11.016C122.775,32.235,128.267,15.915,150.407,15.735Zm-43.7,33.992a28.071,28.071,0,0,1,8.466-11.692c.764,4.191,3.558,8.968,10.5,12.564a4.953,4.953,0,0,1,.358,8.612l-3.508,2.125c-5.331-.382-10.53.679-13.863,5.219A16.347,16.347,0,0,1,106.711,49.727Zm6.2,24.917A6.431,6.431,0,0,1,120,68.324V81A6.452,6.452,0,0,1,112.912,74.644ZM78.237,155.9a35.42,35.42,0,0,1,16-12.174c6.658.227,18.733-1.021,24.666,2.118,1.946.659,3.25,2.364,5.246,2.436a3.5,3.5,0,0,0,2.878-1.5c2.407-3.873-2.313-5.942-5.269-7.324-7.079-3.728-19.526-2.569-27.44-2.726-5.767-1.72-10.427-6.067-11.34-12.2-2.82-16.28,23.152-26.391,38.782-29.86a27.687,27.687,0,0,0,1.794,3.966c-5.429,1.519-9.615,3.5-12.435,5.931-6.284,5.128-5.681,15.757,1.049,20.246l20.761,14.7a54.211,54.211,0,0,1,11.673,12.909c-3.038.079-7.311-.854-7.59,3.5v15.821H125.38a3.5,3.5,0,0,0-3.5,3.5v9.706c-21.616-3.321-34.544-10.078-41.669-15.3A9.822,9.822,0,0,1,78.237,155.9Zm-2.806,18.871c8.512,6.412,22.162,13.555,46.449,17.252v2.993a3.5,3.5,0,0,0,3.5,3.5h11.636v30.957a3.5,3.5,0,0,0,3.5,3.5H160.3a3.5,3.5,0,0,0,3.5-3.5V198.511h11.637a3.5,3.5,0,0,0,3.5-3.5v-2.993c25.187-4.031,38.03-10.658,47.388-18.066,2.053,3.174,4.63,7.3,7.476,12.14l-26.864,15.593c-15.625,9.673-14.124,28.556-11.117,37.273a51.264,51.264,0,0,1,3.664,19.464,19.53,19.53,0,0,0-4.111,6.621c-20.632,10.257-69.858,7.936-89.167,2.452-3.654-3.817-7.006-9.774-4.087-17.516,5.7-15.105,1.339-32.488-5.1-42.216-.081-.126-8.141-12.636-10.252-20.551a3.5,3.5,0,0,0-6.763,1.8c2.4,8.988,10.783,22,11.158,22.581,5.681,8.586,9.019,23.679,4.405,35.914-3.782,10.032-.118,17.851,3.768,22.744a9.42,9.42,0,0,0-.224,12.966c-12.872,14.272-15.645,33.271-16.237,41.038H49.449C53.2,247.523,69.663,192.126,75.431,174.766Z"/></svg>