<svg xmlns="http://www.w3.org/2000/svg"  viewBox="0 0 340 340" width="500px" height="500px"><path fill="#56aafe" d="M127.222,47.731s-12-19.145-30.887-22.463v7.147s-13.784-6.637-31.908,1.021S36.6,39.818,36.6,39.818s5.616,21.7,45.31,18.89c0,0,.383,2.807-3.7,6.636,0,0,9.445,10.211,32.93,6.382Z"/><path fill="#406bd0" d="M127.222,47.731a61.65,61.65,0,0,0-11.377-12.719c-.7,1.136-2.571,4.659-4.352,8a8.682,8.682,0,0,1-10.337,4.145c-9.3-2.962-20.78-3.956-31.247-3.757a1.68,1.68,0,0,0-1.575,1.559,1.724,1.724,0,0,0,1.557,1.875l.106.01c2.268.21,24.129,2.907,31.895,10.121a40.514,40.514,0,0,1-3.7,3.172A54.35,54.35,0,0,0,87.472,70.546c5.3,1.769,13.045,2.912,23.669,1.18l2.643-3.944c.661.8,1.025,1.286,1.025,1.286l8.595-9.51s-.978-.845-2.692-2.113Z"/><path fill="#fff" d="M118.093,153.554H232.424s24.273,88.385,15.666,138.7h-130Z"/><path fill="#dae5fc" d="M235.27,164.751l-2.846-11.2H118.093v138.7h19.395c.679-17.438,2.273-37.861,5.332-50.567,1.57-6.519,3.361-16.746,5.046-29.3,19.815,25.475,47.182,52.119,81.77,66.165.094,4.562.109,9.14.031,13.7H248.09C248.751,288.394,239.666,182.914,235.27,164.751Zm-72.634,7.668a69.378,69.378,0,0,0,39.985,12.025s4.816-1.842,11.5-7.308a2.133,2.133,0,0,1,3.448,1.193c2.106,9.987,6.342,31.807,9.213,58.027C208.205,220.838,183.685,198.36,162.636,172.419Z"/><path fill="#ffcacf" d="M159.937,153.554c11.056,44.953,39.568,59.567,39.568,59.567,11.563-15.012,14.386-39.98,14.564-59.567Z"/><path fill="#e5838b" d="M167.569,175.464a68.842,68.842,0,0,0,35.052,8.98,43.591,43.591,0,0,0,9.571-5.774,179.555,179.555,0,0,0,1.877-25.116H159.937A119.506,119.506,0,0,0,167.569,175.464Z"/><path fill="#e54c5b" d="M255.675,144.28s43.756,45.045,63.49,91.493a35.565,35.565,0,0,1-.489,29.134c-5.824,12.3-16.49,29.77-33.941,42.062l-26.567-43.59s10.766-13.079,18.5-23.138c0,0-15.924-23.678-28.562-36.638l-8.153-45.974Z"/><path fill="#a02a39" d="M264.844,203.268a68.825,68.825,0,0,0-7.155-13.929,3.305,3.305,0,0,0-6.038,1.811l-.088,5.527-3.454,6.926c12.638,12.96,28.562,36.638,28.562,36.638-7.737,10.059-18.5,23.138-18.5,23.138l4.973,6.068,26.379-28.7S267.473,210.235,264.844,203.268Z"/><path fill="#ffcacf" d="M261.135,266.249s.315.015.877.074a26.96,26.96,0,0,1,24.037,26.866v18.517a28.7,28.7,0,0,1-1.683,9.923c-2.132,5.789-6.9,12.914-17.437,12.914h-5.794Z"/><path fill="#5b5b81" d="M124.528,282.328s69.873,2.715,124.831,0l-10.833,52.215h-111.3S116.973,316.5,124.528,282.328Z"/><path fill="#333353" d="M179.56,298.962c5.286-.317,10.593-.915,15.871-1.631q3.96-.543,7.893-1.195c2.611-.436,5.231-.91,7.718-1.448a5.774,5.774,0,1,1,2.445,11.287,5.882,5.882,0,0,1-1.02.129h-.054c-2.863.085-5.611.069-8.372.022s-5.5-.142-8.241-.271c-5.483-.266-10.956-.652-16.438-1.331a2.794,2.794,0,0,1,.175-5.561Z"/><path fill="#333353" d="M167.048,304.32h-.042l-2.193-.032a3,3,0,0,1,.047-6h.048l2.179.032a3,3,0,0,1-.039,6Z"/><path fill="#333353" d="M185.555,334.543h20.7V283.477c-7.053.061-14.006.07-20.7.044Z"/><path fill="#333353" d="M122.314,304.033c3.319.131,6.617.2,9.914.238,6.6.059,13.163.016,19.8-.322a3.124,3.124,0,0,0,.025-6.238l-.025,0c-6.393-.375-12.85-1.038-19.258-1.8-3.2-.388-6.4-.809-9.573-1.285l-.737-.116c-.393,3.378-.6,6.541-.675,9.5Z"/><path fill="#333353" d="M217.6,314.136l-.033,0c-9.112.478-18.335.538-27.544.477s-18.439-.294-27.655-.649-18.427-.824-27.606-1.455c-4.291-.3-8.59-.635-12.863-1.028a77.929,77.929,0,0,0,1.265,10.37q5.55.292,11.088.493c9.321.321,18.626.476,27.931.516s18.607-.052,27.916-.3,18.618-.632,27.987-1.446a3.5,3.5,0,0,0-.486-6.982Z"/><path fill="#5b5b81" d="M216.282,332.027l-22.808.458-.919-7.093v-42.9a7.83,7.83,0,0,1,7.83-7.829h8.068a7.829,7.829,0,0,1,7.829,7.829Z"/><path fill="#5b5b81" d="M240.009,331.424l-23.727-.3V282.49a7.829,7.829,0,0,1,7.829-7.829H242.9Z"/><path fill="#e54c5b" d="M88.227,108.9a11.411,11.411,0,0,0,14.133,10.4C137.38,110.616,180.4,92.372,222,84.693a128.692,128.692,0,0,0,36.717-15.916,10.083,10.083,0,0,0-1.305-17.621A144.442,144.442,0,0,1,216.7,22.527,60.008,60.008,0,0,0,193.744,8.191C183.825,4.849,171.16,3.5,158.9,10.482c0,0-25.319,11.508-39.1,40.2a58.267,58.267,0,0,1-14.2,18.369C91.906,81.1,87.266,93.219,88.227,108.9Z"/><path fill="#a02a39" d="M207.009,68.271l-3.461,20.444c6.16-1.525,12.32-2.891,18.448-4.022A126.115,126.115,0,0,0,247.549,75.1C254.019,65.471,207.009,68.271,207.009,68.271Z"/><path fill="#333353" d="M127.955,96.991S102.5,111.4,106.812,153.554l61.974-1.59S162.189,114.38,127.955,96.991Z"/><path fill="#ffcacf" d="M173.809,74.8l33.2-6.531s14.507,29.275,13.26,55.98l-17.706,5.623-51.019-2.752S139.339,93.824,173.809,74.8Z"/><path fill="#333353" d="M137.939,282.756c-5.827-.175-13.411-.428-13.411-.428-7.555,34.176,2.694,52.215,2.694,52.215h13.9C136.345,317.505,137.736,289.019,137.939,282.756Z"/><path fill="#333353" d="M233.115,315.946a9.855,9.855,0,0,1-9.858,9.538h-6.975v9.059h23.727l2.891-59.882H232.778C233.359,288.438,233.533,302.2,233.115,315.946Z"/><path fill="#e54c5b" d="M84.823,148.312a224.211,224.211,0,0,1,53.136-10.365s4.064,38.488-4.806,79.968-5.931,116.628-5.931,116.628h-29.7s-17.282-61.815,0-113.665Z"/><path fill="#333353" d="M118.093,140.287S157.6,234.963,245.227,274.661V242.145s-59.47-35.327-91.986-109.048A298.773,298.773,0,0,0,118.093,140.287Z"/><path fill="#e54c5b" d="M212.534,153.39s32.155,30.575,25.992,181.153h28.4s4.521-92.945-15.131-152.6a39.74,39.74,0,0,1-1.723-16.5,66.834,66.834,0,0,1,5.6-21.161s-21.152-9.2-40.185-8.889Z"/><path fill="#e5838b" d="M207.009,68.271c-14.608.211-33.2,6.531-33.2,6.531-9.481,5.232-15.425,11.544-19.069,17.945,4.21-1.932,8.785-3.844,13.716-5.664a25.232,25.232,0,0,1,17.185-.168c3.044,1.081,6.488,2.441,10.007,4.1,0,0-.7,6.5,7.461,10.007,5.991,2.577,11.79,5.432,15.807,4.343C216.436,86.937,207.009,68.271,207.009,68.271Z"/><path fill="#ffcacf" d="M97.519,264.515l3.067,2.952a20.311,20.311,0,0,1,6.156,16.316l-3.671,44.247a7.1,7.1,0,0,1-7.077,6.513h0a17,17,0,0,1-16.225-11.984c-2.872-9.226-5.433-23.455-2.882-41.54Z"/><path fill="#e54c5b" d="M84.823,148.312s25.821,39.139,12.7,72.566L75.885,241.712l21.634,22.8s-6.659,25.866-28.781,38.459c0,0-31.168-17-48.519-52.294a22.556,22.556,0,0,1,.493-20.649C29.9,213,51.51,177.35,84.823,148.312Z"/><path fill="#fca751" d="M213.554,211.149A97.749,97.749,0,0,0,202.282,199.4a10.529,10.529,0,0,0-12.957-.918c-6.522,4.476-11.6,10.842-14.841,15.664a10.53,10.53,0,0,0,.881,12.905,103.789,103.789,0,0,0,12.319,11.567,10.512,10.512,0,0,0,13.069.029,58.885,58.885,0,0,0,13.558-15.606A10.485,10.485,0,0,0,213.554,211.149Zm-12.081,10.365a43.653,43.653,0,0,1-3.332,3.63,5.019,5.019,0,0,1-6.828.082,31.407,31.407,0,0,1-2.827-2.849,4.952,4.952,0,0,1,.052-6.5c1.032-1.18,2.138-2.326,3.3-3.445a5.016,5.016,0,0,1,6.8-.1,34.454,34.454,0,0,1,2.691,2.639A5.007,5.007,0,0,1,201.473,221.514Z"/><path fill="#fff" d="M193.464,40.225c-2.156-1.433-4.289-2.676-6.334-3.758,2.065-2.324,3.576-3.809,3.609-3.842a3.5,3.5,0,0,0-4.889-5.009c-.176.172-2.458,2.416-5.311,5.755a70,70,0,0,0-7.874-2.75,3.5,3.5,0,0,0-1.871,6.745c1.126.312,2.949.869,5.22,1.733a63.723,63.723,0,0,0-3.543,5.4,3.5,3.5,0,1,0,6.056,3.51,59.955,59.955,0,0,1,4.053-6.015,67.3,67.3,0,0,1,7.008,4.06,3.5,3.5,0,0,0,3.876-5.829Z"/><path fill="#333353" d="M205.367,83.038a214.152,214.152,0,0,0-25.977-9.945c-3.422.975-5.581,1.709-5.581,1.709-1.564.863-3.028,1.756-4.405,2.672A217.087,217.087,0,0,1,202.41,89.383a3.5,3.5,0,0,0,2.957-6.345Z"/><path fill="#e8808f" d="M180.454,96.928a3.482,3.482,0,0,1-.59-.05l-3.1-.526a3.5,3.5,0,1,1,1.172-6.9l3.1.526a3.5,3.5,0,0,1-.582,6.951Z"/><path fill="#a02a39" d="M123.006,198.251a3.5,3.5,0,0,1-.616-.055l-2.37-.42a3.5,3.5,0,0,1,1.224-6.893l2.37.421a3.5,3.5,0,0,1-.608,6.947Z"/><path fill="#a02a39" d="M118.753,224.678a3.587,3.587,0,0,1-.616-.054l-2.37-.421a3.5,3.5,0,0,1,1.223-6.893l2.371.421a3.5,3.5,0,0,1-.608,6.947Z"/><path fill="#a02a39" d="M115.436,252.485a3.616,3.616,0,0,1-.617-.054l-2.369-.421a3.5,3.5,0,0,1,1.224-6.893l2.37.421a3.5,3.5,0,0,1-.608,6.947Z"/><path fill="#333353" d="M205.184,77.33a18.8,18.8,0,0,0-2.511,1.759,9.961,9.961,0,0,0,.819,15.921,30.427,30.427,0,0,0,10.331,4.4,5.2,5.2,0,0,0,6.215-6.179,59.8,59.8,0,0,0-4.215-12.6A7.512,7.512,0,0,0,205.184,77.33Z"/><path fill="#5b5b81" d="M173.809,74.8s-24.363,21-5.023,49.871l51.483-.422s9.305,32.15-16.562,48.249a15.3,15.3,0,0,1-7.99,2.277c-9.689.067-33.074-2.4-43.743-26.465l-7.331-2.817c-8.326-4.1-21.039-13.419-23.2-32.648l6.507-15.856A174.873,174.873,0,0,1,173.809,74.8Z"/><path fill="#333353" d="M173.809,74.8a174.873,174.873,0,0,0-45.854,22.189c-4.575,3.174-7.689,11.3-6.718,19.01,4.865-3.979,19.618-18.039,42.881-27.263A40.939,40.939,0,0,1,173.809,74.8Z"/><path fill="#333353" d="M145.112,134.6a46.008,46.008,0,0,0-.468,10.9,38.9,38.9,0,0,0,7.329,2.82,110.2,110.2,0,0,1-3.314-13.719A1.8,1.8,0,0,0,145.112,134.6Z"/><path fill="#333353" d="M208.453,274.661h-.97c1.422,1.674,3.918,6.23,3.918,17.595V317.79a7.6,7.6,0,0,1-7.6,7.6H192.555v9.151h23.727V282.49A7.829,7.829,0,0,0,208.453,274.661Z"/><path fill="#333353" d="M173.859,124.631l-2.186.641s-7.29,3.313-14.194,3.313c0,0,.408,10.74,12.243,15.053a26.758,26.758,0,0,0,16.629.452c4.065-1.188,8.762-3.49,11.236-7.944,0,0,10.678,8.278,24.217,4.641a54.136,54.136,0,0,0-1.535-16.536Z"/><path fill="#5b5b81" d="M214.559,114.02c-10.677-7.09-18.379,2.446-18.379,2.446s-8.952-8.375-18.541.128-16.827,8.656-16.827,8.656,3.665,13.7,18.872,12.638,17.369-8.9,17.369-8.9,3.23,7.464,18.437,6.4,16.934-15.135,16.934-15.135S225.236,121.109,214.559,114.02Z"/><path fill="#a02a39" d="M278.37,245.211a48.287,48.287,0,0,1,18.115-2.555,1.464,1.464,0,0,0,.767-2.766,25.666,25.666,0,0,0-16.763-2.372Z"/><path fill="#a02a39" d="M100.346,188.946a2.026,2.026,0,0,0-4.026.223c-.076,1.839-.2,3.562-.349,5.135A28.912,28.912,0,0,1,89.494,210L73.66,229.189a5.279,5.279,0,0,1-4.581,1.925,40.779,40.779,0,0,0-12.195.682,1.649,1.649,0,0,0,.192,3.259,36.606,36.606,0,0,1,18.809,6.657l21.634-20.834C101.66,210.333,101.924,199.22,100.346,188.946Z"/><path fill="#fff" d="M177.894,224.939c-1.627-1.868-3.805-5.618-.36-9.95a2.014,2.014,0,0,1,3.075-.033l.126.143a2.06,2.06,0,0,1,.169,2.461,3.785,3.785,0,0,0,.229,4.609,2.054,2.054,0,0,1-.4,2.981l-.168.116A2.021,2.021,0,0,1,177.894,224.939Z"/><path fill="#e87b40" d="M202.282,199.4a10.669,10.669,0,0,0-7.107-2.721l.264,2.607a10.6,10.6,0,0,0,3.917,7.194,73.758,73.758,0,0,1,5.959,5.335,8.64,8.64,0,0,1,.721,11.436,53.23,53.23,0,0,1-7.535,7.864,10.433,10.433,0,0,0-3.645,7.779l-.04,1.993a10.424,10.424,0,0,0,5.937-2.24,58.885,58.885,0,0,0,13.558-15.606,10.485,10.485,0,0,0-.757-11.893A97.749,97.749,0,0,0,202.282,199.4Z"/></svg>