<svg xmlns="http://www.w3.org/2000/svg"  viewBox="0 0 340 340" width="500px" height="500px"><path fill="#ffcac0" d="M71.288,141.842s-64.266,36.431-53.6,107.9l37.889,24.434s-1.88-24.456,11.533-33.928C85.78,227.063,89.155,215.161,95.5,201.905S100.683,144.316,71.288,141.842Z"/><path fill="#ef837c" d="M71.288,141.842a119.442,119.442,0,0,0-24.763,20.294c3.384,4.282,6.822,12.109,6.028,26,0,0-1.042,7.709,2.7,17.865a8.951,8.951,0,0,1-1.7,9.168,72.974,72.974,0,0,0-18.511,45.765l20.53,13.239s-1.88-24.456,11.533-33.928C85.78,227.063,89.155,215.161,95.5,201.905S100.683,144.316,71.288,141.842Z"/><path fill="#7784b2" d="M305.29,27.362a34.572,34.572,0,0,1-28.176,10.725v19.9h9.2a10.4,10.4,0,0,1,10.4,10.4v41.6a10.4,10.4,0,0,1-10.4,10.4h-9.2v18.691c11.835,1.413,20.228,5.569,26.181,10.739C331.378,122.2,328.5,57.08,305.29,27.362Z"/><path fill="#ef837c" d="M231.807,137.579s33.43,22.767,34.006,88.473l-44.957,34.871s-30.259-53.6-19.6-108.935Z"/><path fill="#342a35" d="M261.836,218.71s-19.46,5.438-30.74,21.464c-10.839,15.4-6.261,36.111,7.671,48.783,1.594,1.45,3.348,2.906,5.275,4.344a14.443,14.443,0,0,0,20.641-3.561c3.149-4.792,6.11-11.848,7.524-22.161V218.71Z"/><path fill="#342a35" d="M218.1,309.584c3.555-2.113,5.9-5.323,5.6-10.159-1.108-17.467-21.049-15.387-21.049-15.387l-58.532-.077-58.533.077S65.9,306.97,67.284,329.979H223.956a3.419,3.419,0,0,0,3.366-3.9A24.487,24.487,0,0,0,218.1,309.584Z"/><path fill="#ffcac0" d="M210.868,211.264c16.11-10.808,14.785-31.012,10.419-46.849H73.259c-4.366,15.837-5.691,36.041,10.419,46.849a14.416,14.416,0,0,1-6.94,11.421c-12.614,24-29.5,77.4,70.535,76.734,98.212.65,83.727-50.806,71.23-75.39A33.854,33.854,0,0,1,210.868,211.264Z"/><path fill="#ef837c" d="M212.86,185.81c.525-11.585,5.313-18.25,8.424-21.394a115.927,115.927,0,0,0-8.947-22.574H82.209a115.927,115.927,0,0,0-8.947,22.574c3.111,3.144,7.9,9.809,8.424,21.394a3.893,3.893,0,0,0,4.925,3.584c11.167-3.073,38.683-6.367,57.233,27.576a3.9,3.9,0,0,0,6.858,0c18.55-33.943,46.066-30.649,57.233-27.576A3.892,3.892,0,0,0,212.86,185.81Z"/><path fill="#342a35" d="M20.032,241.348c15.42,3.977,38.348,14.886,41.745,44.707L47.656,323.231s-45.373-6.337-42.929-70.6A12.217,12.217,0,0,1,20.032,241.348Z"/><path fill="#342a35" d="M244.824,129.719s-45.833,1.5-66.656-39.64h-61.79c-20.823,41.136-66.656,39.64-66.656,39.64a17.8,17.8,0,0,0,.27,5.644A12.1,12.1,0,0,0,61,144.7c23.56,1.786,27.462,21.985,28.041,30.745a3.419,3.419,0,0,0,4.041,3.144c30.952-5.914,45.539,11.639,51.2,21.672a3.432,3.432,0,0,0,5.99,0c5.66-10.033,20.247-27.586,51.2-21.672a3.419,3.419,0,0,0,4.041-3.144c.579-8.76,4.481-28.959,28.041-30.745a12.1,12.1,0,0,0,11-9.335A17.8,17.8,0,0,0,244.824,129.719Z"/><path fill="#ffcac0" d="M116.378,114.333s8.807,15.386,30.895,15.386,30.9-15.386,30.9-15.386-4.007-24.254-30.9-24.254S116.378,114.333,116.378,114.333Z"/><path fill="#d07a76" d="M267.651,11.421h9.112a3.541,3.541,0,0,1,3.541,3.541v214.9a0,0,0,0,1,0,0H264.11a0,0,0,0,1,0,0V14.962A3.541,3.541,0,0,1,267.651,11.421Z"/><path fill="#dce2f9" d="M315.7,9.979a48.551,48.551,0,0,1-10.423,17.372c6.365,17.244,24.754,76.306-1.986,122.47,14.364,12.478,14.519,30.861,14.519,30.861C358.51,89.638,315.7,9.979,315.7,9.979Z"/><path fill="#ef837c" d="M109.81,213.849c-15.757,2.586-26.132-2.585-26.132-2.585a99.028,99.028,0,0,0-6.939,11.421c16.265,4.091,27.783.125,34.793-4.229A2.512,2.512,0,0,0,109.81,213.849Z"/><path fill="#ef837c" d="M210.868,211.264c-11.779,4.658-23.557,3.488-30.725,1.958a2.5,2.5,0,0,0-2.2,4.313c5.651,5.1,17.417,10.785,40.555,6.494A101.184,101.184,0,0,0,210.868,211.264Z"/><path fill="#ef837c" d="M150.03,281.447h-5.514a3.5,3.5,0,1,1,0-7h5.514a3.5,3.5,0,0,1,0,7Z"/><path fill="#ef837c" d="M100.443,203.76H96.756a3.5,3.5,0,1,1,0-7h3.687a3.5,3.5,0,0,1,0,7Z"/><path fill="#ef837c" d="M197.79,203.76H194.1a3.5,3.5,0,0,1,0-7h3.687a3.5,3.5,0,0,1,0,7Z"/><path fill="#d07a76" d="M264.11,270.134V329.7H280.3V262.753Q272.207,264,264.11,270.134Z"/><path fill="#ef837c" d="M73.166,276.519l15.268,5.661a12.011,12.011,0,0,1,7.8,12.125l-.611,8.466a12.01,12.01,0,0,1-13.344,11.067l-10-1.143Z"/><path fill="#ffcac0" d="M68.919,274.853a23.576,23.576,0,0,1,13.2,9.4,21.153,21.153,0,0,1,3.173,14.029c-1.323,1.745-1.424,4.81-1.395,8.015a71.457,71.457,0,0,1-2.716,9.153c-1.768,1.828-2.7,4.461-3.348,7.377q-.4.728-.821,1.447a11.487,11.487,0,0,1-10.7,5.709,67.643,67.643,0,0,1-11.683-2.409,17.285,17.285,0,0,1-12.263-19.44,87.544,87.544,0,0,1,8.285-25.512A15.468,15.468,0,0,1,68.919,274.853Z"/><path fill="#ef837c" d="M68.1,296.792h0a4.028,4.028,0,0,0,2.55,5.094l13.24,4.406a80.318,80.318,0,0,0,1.4-8.014l-.009-.013L73.2,294.242A4.027,4.027,0,0,0,68.1,296.792Z"/><path fill="#ef837c" d="M81.181,315.446l-14.307-4.779a4.029,4.029,0,0,0-5.1,2.549h0a4.027,4.027,0,0,0,2.545,5.092l13.507,4.513A57.109,57.109,0,0,0,81.181,315.446Z"/><path fill="#ef837c" d="M147.273,90.079c-26.888,0-30.895,24.254-30.895,24.254s8.385-8.761,30.895-8.761,30.9,8.761,30.9,8.761S174.161,90.079,147.273,90.079Z"/><path fill="#342a35" d="M172.717,35.374c.982-4.823.718-11.466.237-16.748a7.922,7.922,0,0,0-9.76-6.977c-26.25,6.4-40.015,22.364-40.015,22.364h0a39.145,39.145,0,0,0-12.1,28.321V96.679s.294,10.3,5.3,17.654c0,0,8.238-17.36,30.895-17.36s30.9,17.36,30.9,17.36c5-7.356,5.3-17.654,5.3-17.654V62.334A39.132,39.132,0,0,0,172.717,35.374Z"/><path fill="#fff" d="M138.421,77.706a3.511,3.511,0,0,1-.913-.122,32.273,32.273,0,0,0-4.327-.808,3.5,3.5,0,0,1,.727-6.962,38.949,38.949,0,0,1,5.421,1.011,3.5,3.5,0,0,1-.908,6.881Z"/><path fill="#fff" d="M157.716,77.705a3.5,3.5,0,0,1-.908-6.88,39.033,39.033,0,0,1,5.421-1.012,3.5,3.5,0,0,1,.727,6.963h0a32.091,32.091,0,0,0-4.327.808A3.515,3.515,0,0,1,157.716,77.705Z"/><polygon fill="#7f4242" points="264.11 270.134 280.304 262.753 280.304 231.249 264.11 231.249 264.11 270.134"/><path fill="#ef837c" d="M256.426,199.251H249.5a10.192,10.192,0,0,0-10.191,10.192v13.2A10.192,10.192,0,0,0,249.5,232.836h12.831Z"/><path fill="#ffcac0" d="M283.729,248.4H267.347a10.922,10.922,0,0,1-10.921-10.922v-2.2a15.723,15.723,0,0,0,0-8.056V218.71a23.417,23.417,0,0,0,0-8.056v-11.4h27.3a10.922,10.922,0,0,1,10.922,10.921v27.3A10.922,10.922,0,0,1,283.729,248.4Z"/><path fill="#ef837c" d="M256.426,210.654H275.9a4.028,4.028,0,0,1,4.028,4.028v0a4.028,4.028,0,0,1-4.028,4.028H256.426a0,0,0,0,1,0,0v-8.056A0,0,0,0,1,256.426,210.654Z"/><path fill="#ef837c" d="M256.426,227.221H275.9a4.028,4.028,0,0,1,4.028,4.028v0a4.028,4.028,0,0,1-4.028,4.028H256.426a0,0,0,0,1,0,0v-8.056A0,0,0,0,1,256.426,227.221Z"/></svg>