<svg xmlns="http://www.w3.org/2000/svg"  viewBox="0 0 340 340" width="500px" height="500px"><path d="M283.342,332.757h-8.973a3.5,3.5,0,0,1,0-7h8.973a19.8,19.8,0,0,0,19.7-21.806,3.5,3.5,0,0,1,6.964-.71,26.8,26.8,0,0,1-26.66,29.516Z"/><path d="M273.719,309.5a3.5,3.5,0,0,1-.253-6.991l29.207-2.143-1.649-16.17a3.5,3.5,0,0,1,6.964-.71L310,303.241a3.5,3.5,0,0,1-3.225,3.846l-32.8,2.406C273.892,309.5,273.805,309.5,273.719,309.5Z"/><path d="M303.04,273.024a3.5,3.5,0,0,1-3.477-3.147c-2.907-28.593-9.7-96.188-10.031-106.283-.325-10.041-4.195-12.543-4.234-12.567a.9.9,0,0,0,.127.068l3.14-6.256c.766.384,7.5,4.171,7.963,18.528.32,9.877,7.1,77.281,10,105.8a3.5,3.5,0,0,1-3.128,3.836C303.279,273.017,303.159,273.024,303.04,273.024Z"/><path d="M274.365,332.757a3.5,3.5,0,0,1-3.48-3.169l-2.8-29.521a3.5,3.5,0,0,1,6.969-.662l2.8,29.521a3.5,3.5,0,0,1-3.153,3.815C274.588,332.752,274.475,332.757,274.365,332.757Z"/><path d="M125.937,332.758a3.5,3.5,0,0,1-3.436-4.185l4.36-21.861a3.5,3.5,0,0,1,6.865,1.369l-4.36,21.861A3.5,3.5,0,0,1,125.937,332.758Z"/><path d="M276.244,289.337a3.5,3.5,0,0,1-.243-6.992l24.656-1.739c-.2-1.926-.459-4.49-.75-7.345L273.221,275.2a3.5,3.5,0,1,1-.507-6.981l30.077-2.185a3.5,3.5,0,0,1,3.736,3.136c.78,7.673,1.461,14.317,1.461,14.318a3.5,3.5,0,0,1-3.236,3.848l-28.259,1.993C276.41,289.334,276.326,289.337,276.244,289.337Z"/><path d="M99.765,138.459a3.5,3.5,0,0,1-2.981-5.336l8.238-13.371a3.5,3.5,0,0,1,5.96,3.672l-2.954,4.793a3.5,3.5,0,0,1,1.018,6.741c-4.83,1.927-7.9,3.215-7.925,3.227A3.488,3.488,0,0,1,99.765,138.459Z"/><path d="M115.568,112.8a3.5,3.5,0,0,1-2.977-5.336l9.816-15.931L97.248,69.192c-3.838,3.891-7.88,8.26-12.048,13.023a3.5,3.5,0,0,1-5.268-4.609c5.129-5.862,10.081-11.149,14.719-15.715a3.5,3.5,0,0,1,4.78-.123l29.821,26.484a3.5,3.5,0,0,1,.656,4.453l-11.357,18.432A3.5,3.5,0,0,1,115.568,112.8Z"/><path d="M179.536,319.272c-12.043,0-33.545-1.631-54.288-11.4a11.639,11.639,0,0,1-5.892-14.535c.611-1.632,1.275-3.238,1.974-4.773a19.52,19.52,0,0,0,1.74-7.418c.557-14.974,1.439-64.717-9.885-88.542-7.494-.5-34.32-2.478-54.916-6.173a28.981,28.981,0,0,1-20.322-14.512l-5.18-9.341A22.963,22.963,0,0,1,33.825,138.5c8.316-12.328,21.294-30.795,35.9-48.765a3.5,3.5,0,0,1,5.432,4.415c-14.443,17.77-27.292,36.054-35.527,48.264a15.989,15.989,0,0,0-.74,16.77l5.18,9.342a22.008,22.008,0,0,0,15.436,11.016c23.643,4.242,55.793,6.186,56.115,6.206A3.5,3.5,0,0,1,118.5,187.6c12.694,23.932,12.314,73.574,11.561,93.807a26.522,26.522,0,0,1-2.364,10.06c-.633,1.388-1.235,2.843-1.789,4.324a4.6,4.6,0,0,0,2.319,5.749c24.829,11.7,51.622,10.933,58.523,10.5l9.552-15.729a3.5,3.5,0,1,1,5.983,3.633L191.806,317.2a3.5,3.5,0,0,1-2.622,1.664C188.753,318.913,185.184,319.272,179.536,319.272Z"/><path d="M143.54,122.187a3.5,3.5,0,0,1-1.063-6.836c.9-.286,1.884-.59,2.931-.914a127.837,127.837,0,0,0,13.4-4.7,3.5,3.5,0,1,1,2.827,6.4,132.946,132.946,0,0,1-14.157,4.99c-1.024.317-1.989.615-2.869.895A3.49,3.49,0,0,1,143.54,122.187Z"/><path d="M218.906,316.67c-3.62,0-5.884-.177-6.217-.205a3.494,3.494,0,0,1-2.413-1.266l-17.7-21.546c-.037-.043-.071-.088-.105-.133a27.684,27.684,0,0,1-5.431-16.407V203.642a3.5,3.5,0,0,1,7,0v73.471a20.637,20.637,0,0,0,4,12.165l16.671,20.291c6.245.262,31.632.487,52.524-11.52a8.248,8.248,0,0,0,4.013-8.724c-3.358-17.187-10.285-61.6-2.075-102.683a3.5,3.5,0,0,1,6.864,1.372c-7.965,39.861-1.2,83.19,2.082,99.968a15.25,15.25,0,0,1-7.4,16.136C251.494,315.169,229.452,316.669,218.906,316.67Z"/><path d="M248.987,130.708a3.486,3.486,0,0,1-1.675-.429L236.366,124.3a3.5,3.5,0,0,1,3.355-6.144l10.947,5.98a3.5,3.5,0,0,1-1.681,6.572Z"/><path d="M286.992,151.468a3.486,3.486,0,0,1-1.675-.429L281,148.682a3.5,3.5,0,0,1,3.355-6.143l4.315,2.356a3.5,3.5,0,0,1-1.681,6.573Z"/><path d="M209.566,167.951a3.5,3.5,0,0,1-3.418-2.764,120.042,120.042,0,0,0-8.236-23.963h-1.234a143.3,143.3,0,0,0-4.536,22.188,3.5,3.5,0,1,1-6.938-.932c1-7.4,2.785-17.912,5.66-25.937a3.5,3.5,0,0,1,3.295-2.319h5.95a3.5,3.5,0,0,1,3.115,1.9,125.44,125.44,0,0,1,9.768,27.588,3.5,3.5,0,0,1-2.686,4.158A3.539,3.539,0,0,1,209.566,167.951Z"/><path d="M197.964,196.892a3.488,3.488,0,0,1-1.422-.3c-27.368-12.184-39.384-28.853-39.882-29.557a3.5,3.5,0,0,1,.028-4.084,26.942,26.942,0,0,0,4.052-9.244H146.949a3.5,3.5,0,0,1-3.456-4.049c1.8-11.364,5.6-24.08,7.705-30.647a16.345,16.345,0,0,1,7.234-9.084,121.831,121.831,0,0,0,15.844-11.25A3.5,3.5,0,0,1,180,102.031c-7.412,35.446,15.151,67.955,25.2,80.287a3.5,3.5,0,0,1-5.428,4.421c-9.85-12.093-31.009-42.5-27.932-77.28-2.709,1.967-6.066,4.25-9.831,6.484a9.362,9.362,0,0,0-4.139,5.2,236.888,236.888,0,0,0-6.744,25.562h13.81a3.5,3.5,0,0,1,3.485,3.814,38.359,38.359,0,0,1-4.589,14.279c3.8,4.471,15.186,16.325,35.562,25.4a3.5,3.5,0,0,1-1.425,6.7Z"/><path d="M194.11,127.229H192.4a22.481,22.481,0,0,1-20.222-12.8,3.5,3.5,0,1,1,6.325-3,15.451,15.451,0,0,0,13.9,8.794h1.71a15.387,15.387,0,0,0,15.37-15.37,3.5,3.5,0,0,1,7,0A22.4,22.4,0,0,1,194.11,127.229Z"/><path d="M258.87,185.687H227.929a3.5,3.5,0,1,1,0-7H255.37v-8H238.043a3.5,3.5,0,0,1,0-7H258.87a3.5,3.5,0,0,1,3.5,3.5v15A3.5,3.5,0,0,1,258.87,185.687Z"/><path d="M199.233,212.05a9.2,9.2,0,0,1-5.353-1.72l-5.376-3.839a3.5,3.5,0,0,1-.4-5.365c29.939-28.935,21.49-99.858,21.4-100.571a3.5,3.5,0,0,1,5.812-3.037,59.4,59.4,0,0,0,16.237,10.3,13.974,13.974,0,0,1,7.957,8.957,174.581,174.581,0,0,1,5.1,27.028,3.5,3.5,0,0,1-2.814,3.792l-9.006,1.753,8.718,13.206a3.5,3.5,0,0,1,.148,3.611c-14.129,25.766-30.6,39.442-37.025,44.126A9.157,9.157,0,0,1,199.233,212.05Zm-3.374-8.908,2.09,1.492a2.189,2.189,0,0,0,2.564,0c5.893-4.3,20.782-16.661,33.988-40l-10.428-15.8a3.5,3.5,0,0,1,2.253-5.364l10.944-2.13a160.284,160.284,0,0,0-4.473-22.6,7,7,0,0,0-3.979-4.489,67.241,67.241,0,0,1-11.617-6.381C218.549,127.419,219.3,176.722,195.859,203.142Z"/><path d="M275.644,152.205a11.03,11.03,0,0,1-4.8-1.105l-18.7-9.019a11.693,11.693,0,0,1-5.619-15.4h0l.9-2.011A11.755,11.755,0,0,1,263.455,119l18.662,9.444A10.983,10.983,0,0,1,286.9,143.3l-1.544,2.97A10.929,10.929,0,0,1,275.644,152.205Zm-22.735-22.657a4.729,4.729,0,0,0,2.272,6.227l18.7,9.019a3.962,3.962,0,0,0,5.262-1.75l1.544-2.97a3.982,3.982,0,0,0-1.736-5.388l-18.661-9.444a4.752,4.752,0,0,0-6.483,2.3Z"/><path d="M248.925,213.974H234.89a9.223,9.223,0,1,1,0-18.445h14.035a9.223,9.223,0,0,1,0,18.445ZM234.89,202.529a2.223,2.223,0,1,0,0,4.445h14.035a2.223,2.223,0,0,0,0-4.445Z"/><path d="M241.762,242.123a12.877,12.877,0,1,1,12.877-12.876A12.89,12.89,0,0,1,241.762,242.123Zm0-18.753a5.877,5.877,0,1,0,5.877,5.877A5.884,5.884,0,0,0,241.762,223.37Z"/><path d="M157.329,266.616a12.877,12.877,0,1,1,12.877-12.877A12.891,12.891,0,0,1,157.329,266.616Zm0-18.753a5.877,5.877,0,1,0,5.877,5.876A5.883,5.883,0,0,0,157.329,247.863Z"/><path d="M116.3,142.818a10.83,10.83,0,0,1-10.1-6.933l-1.2-3.078a10.886,10.886,0,0,1,6.284-14.144l19.311-7.312a11.648,11.648,0,0,1,15.2,7.283l.674,2.067h0a11.587,11.587,0,0,1-7.16,14.581L120,142.173A10.988,10.988,0,0,1,116.3,142.818Zm18.42-25.225a4.667,4.667,0,0,0-1.65.3l-19.31,7.312a3.884,3.884,0,0,0-2.243,5.048l1.2,3.078a3.87,3.87,0,0,0,4.925,2.244l19.308-6.889a4.623,4.623,0,0,0,2.856-5.819l-.674-2.068a4.662,4.662,0,0,0-4.415-3.211Z"/><path d="M164.934,85.63c-.057,0-.115,0-.173,0-9.012-.439-14.977-5.866-15.956-14.517a3.5,3.5,0,1,1,6.955-.787c.593,5.242,3.736,8.039,9.342,8.313a3.5,3.5,0,0,1-.168,7Z"/><path d="M221.1,85.647a3.5,3.5,0,0,1-.076-7c4.1-.091,9.12-1.666,9.762-8.658.5-5.41-.265-9.348-2.261-11.7-1.548-1.828-3.947-2.838-7.335-3.089a3.5,3.5,0,1,1,.516-6.98c5.284.39,9.375,2.256,12.161,5.545,3.255,3.843,4.564,9.519,3.889,16.868-1.25,13.623-13,14.938-16.578,15.017Z"/><path d="M196.864,108.782h-7.218A26.937,26.937,0,0,1,162.628,82.7l-.715-20.764a3.5,3.5,0,0,1,7-.241l.714,20.761a19.962,19.962,0,0,0,20.022,19.322h7.218a19.963,19.963,0,0,0,20.023-19.326l1.042-30.29a3.5,3.5,0,0,1,3.5-3.38l.123,0a3.5,3.5,0,0,1,3.377,3.619L223.883,82.7A26.94,26.94,0,0,1,196.864,108.782Z"/><path d="M193.932,57.293a144.985,144.985,0,0,1-16.089-.853,3.5,3.5,0,0,1,.778-6.957c19.365,2.169,39.15-.638,46.76-1.944a2.666,2.666,0,0,0,2.192-2.279c2.905-23.832-10.861-27.5-11.449-27.648a3.516,3.516,0,0,1-2.589-4.2,3.478,3.478,0,0,1,4.152-2.62c.2.046,20.537,4.952,16.834,35.317a9.711,9.711,0,0,1-7.956,8.332A198.2,198.2,0,0,1,193.932,57.293Z"/><path d="M165.413,64.58a3.5,3.5,0,0,1-1.462-6.681c8.145-3.741,20.342-12.452,32.2-32.717a36.331,36.331,0,0,1,9.207-9.96,80.272,80.272,0,0,0-16.307-.875c-18.752,1.013-32.243,9.175-40.1,24.259a3.5,3.5,0,1,1-6.208-3.233c8.984-17.251,24.943-26.943,46.149-28.028a88.362,88.362,0,0,1,29.122,3.533,3.5,3.5,0,0,1-.727,6.807c-8.992.937-15.042,10.945-15.1,11.046C189.414,50.556,175.932,60.1,166.872,64.26A3.492,3.492,0,0,1,165.413,64.58Z"/><path d="M126.928,94.369a3.5,3.5,0,0,1-2.325-.883L100.079,71.707a3.5,3.5,0,0,1-.035-5.2l13.063-11.927a21.839,21.839,0,0,1,13.939-5.688l37.762-1.327a3.5,3.5,0,0,1,3.614,3.257l.446,6.446a13.143,13.143,0,0,1-8.012,13.02L141.821,78.3a9.772,9.772,0,0,0-4.226,3.416l-7.8,11.158a3.5,3.5,0,0,1-2.868,1.5ZM107.634,69.054l18.677,16.587,5.546-7.935a16.766,16.766,0,0,1,7.248-5.857l19.035-8.014a6.144,6.144,0,0,0,3.744-6.086l-.212-3.071-34.381,1.208a14.826,14.826,0,0,0-9.464,3.862Z"/><path d="M108,125.088a3.5,3.5,0,0,1-2.64-1.2c-5.208-5.989-19-20.789-34.531-28.838a3.5,3.5,0,0,1-1.105-5.315c3.449-4.244,6.884-8.323,10.21-12.123a3.5,3.5,0,0,1,4.655-.553c6.56,4.64,22.975,16.855,33.7,30.038a3.5,3.5,0,0,1,.264,4.044l-7.569,12.287a3.5,3.5,0,0,1-2.694,1.652C108.192,125.084,108.1,125.088,108,125.088ZM77.808,90.912c12.493,7.361,23.438,18.1,29.671,24.852l3.788-6.149c-8.917-10.343-21.211-19.932-28.148-25Q80.5,87.669,77.808,90.912Z"/><path d="M173.53,207.673h-36.1a3.5,3.5,0,0,1-3.5-3.5V190.957a3.5,3.5,0,0,1,3.5-3.5h36.1a3.5,3.5,0,0,1,3.5,3.5v13.216A3.5,3.5,0,0,1,173.53,207.673Zm-32.6-7h29.1v-6.216h-29.1Z"/><path d="M166.121,233.963H148.538a10.108,10.108,0,0,1,0-20.216h17.583a10.108,10.108,0,1,1,0,20.216Zm-17.583-13.216a3.108,3.108,0,1,0,0,6.216h17.583a3.108,3.108,0,1,0,0-6.216Z"/><path d="M87.774,143.375a3.5,3.5,0,0,1-1.329-6.739l11.991-4.915a3.5,3.5,0,0,1,2.655,6.477L89.1,143.113A3.489,3.489,0,0,1,87.774,143.375Z"/><path d="M157.329,246.828a3.5,3.5,0,0,1-3.5-3.5V231.062a3.5,3.5,0,0,1,7,0v12.266A3.5,3.5,0,0,1,157.329,246.828Z"/><circle cx="184.09" cy="70.268" r="3.607"/><circle cx="202.741" cy="70.268" r="3.607"/></svg>