<svg xmlns="http://www.w3.org/2000/svg"  viewBox="0 0 340 340" width="500px" height="500px"><path fill="#404a66" d="M249.053,39.391s-3.8-18.768,13.84-19.325c0,0,17.825-2.017,30.444,9.662,0,0,12.305-1.638,16.331,4.916,4.268,6.949,1.958,15.3-5.938,19.011Z"/><path fill="#404a66" d="M260.352,153.178s-42.665,55.906-93.274,85.331l20.891,23.245,69.735-62.38Z"/><path fill="#d14253" d="M150.259,242.349l16.662-13.943,44.892,55.578a8.8,8.8,0,0,1-1.075,12.166l-3.64,3.161a8.791,8.791,0,0,1-12.336-.795A713.716,713.716,0,0,1,150.259,242.349Z"/><path fill="#ffc4b6" d="M189.23,250.311l-20.8,17.944a8.435,8.435,0,0,0-.838,11.6l7.327,8.9A8.435,8.435,0,0,0,187,289.74L207.26,272.9Z"/><path fill="#ffc4b6" d="M275.339,35.6q-.6-.135-1.212-.257c-18.264-3.6-36.578,7.118-41.575,25.05q-.613,2.2-1.056,4.649l-1.121,12.146a17.562,17.562,0,0,1-2.8,6.41,8.908,8.908,0,0,0-.11,9.872l7.584,11.935,3.556,10.251a7.987,7.987,0,0,0,10.657,4.739L264.385,114l3.027,30.7,25.563-21.921-.56-25.974s9.745-15.667,6.784-34.973A31.491,31.491,0,0,0,275.339,35.6Z"/><path fill="#829abf" d="M291.232,118.908c-.886.45-1.822.948-2.8,1.5a75.487,75.487,0,0,0-38.058,61.458l-3.528,59.684h60.461l9.3-12.974a19.908,19.908,0,0,0,3.689-12.846L316.948,162.4a19.089,19.089,0,0,0-5.46-12.206l-11.729-11.89V124.148A5.87,5.87,0,0,0,291.232,118.908Z"/><path fill="#4f688e" d="M247.311,233.7l-.464,7.849h41.591c3.406-6.127,5.858-11.083,7.407-14.386a44.747,44.747,0,0,0,3.067-8.871c3.567-15.329,5.955-28.88,7.506-39.185a5.952,5.952,0,0,0-10.486-4.665Z"/><polygon fill="#fff" points="307.308 241.548 307.308 259.073 244.16 259.073 246.847 241.548 307.308 241.548"/><path fill="#ccd5e5" d="M246.847,241.548l-2.687,17.525h33.712c4.213-6.48,7.724-12.411,10.566-17.525Z"/><path fill="#829abf" d="M307.308,259.073H244.16s-9.65,17.816-10.763,46.765l-1.485,26.049h88.426S321.092,269.466,307.308,259.073Z"/><path fill="#ea8b7f" d="M189.23,250.311l-4.657,4.018a119.31,119.31,0,0,0,3.666,15.356,11.792,11.792,0,0,1-3.387,12.27l-8.8,7.936A8.435,8.435,0,0,0,187,289.74L207.26,272.9Z"/><path fill="#4f688e" d="M277.872,259.073H244.16s-9.65,17.816-10.763,46.765l-.421,7.387A301.783,301.783,0,0,0,277.872,259.073Z"/><path fill="#ffc4b6" d="M170.223,266.71l-3.6,3.106a5.678,5.678,0,0,1-8.147-.758l-12.59-15.78a5.678,5.678,0,0,1,.768-7.873l3.606-3.056a9.6,9.6,0,0,1,13.825,1.484l7.487,9.771A9.6,9.6,0,0,1,170.223,266.71Z"/><path fill="#ffc271" d="M172.2,223.985,140.6,250.434a6.324,6.324,0,0,1-8.831-.7l-1.109-1.275a6.325,6.325,0,0,1,.7-8.99l31.5-26.5a6.324,6.324,0,0,1,8.747.582l1.209,1.327A6.325,6.325,0,0,1,172.2,223.985Z"/><path fill="#fff" d="M154.812,219.742S80.592,128.226,28.423,11.887A27.787,27.787,0,0,0,23.459,18.8a33.989,33.989,0,0,0-.194,30.9c12.332,24.979,56.2,110.1,115.813,183.274Z"/><path fill="#ccd5e5" d="M31.065,39.731a35.155,35.155,0,0,0,3.809,11.657c10.844,20.7,63.43,118.12,112.188,174.873l7.75-6.519s-69.349-85.514-121.1-196.3C31.867,26.753,30.057,32.114,31.065,39.731Z"/><path fill="#ef9354" d="M160.2,234.034,172.2,223.985a6.325,6.325,0,0,0,.617-9.108l-1.209-1.327a6.324,6.324,0,0,0-8.747-.582l-13.082,11,5.286-1.173a4.732,4.732,0,0,1,4.553,1.466l1.488,1.665a4.73,4.73,0,0,1,.575,5.511Z"/><path fill="#ccd5e5" d="M148.65,211.874l-24.026,2.744q7.058,9.26,14.454,18.358l15.734-13.234S152.591,217,148.65,211.874Z"/><path fill="#404a66" d="M310.325,63.014c-1.435-5.233-3.291-10.844-8.62-15.407a7.4,7.4,0,0,0-11.075,1.766c-3,4.86-8.67,11.868-19.066,19.037a10.421,10.421,0,0,0-3.943,12.107c.345.956.734,1.982,1.168,3.065a1.188,1.188,0,0,0,2.124.164,14.036,14.036,0,0,1,2.948-3.436,7.41,7.41,0,0,1,11.9,3.69,14.468,14.468,0,0,1,.361,4.579,9.4,9.4,0,0,1-1.01,3.677,13.314,13.314,0,0,1-2.751,3.643,8.012,8.012,0,0,0-2.5,4.4l-.068.37a6.091,6.091,0,0,0,1.049,4.733q.549.752,1.121,1.5a3.869,3.869,0,0,0,4.808,1.111,60.557,60.557,0,0,0,13.351-9.085A35.718,35.718,0,0,0,310.325,63.014Z"/><path fill="#829abf" d="M292.413,139.88a11.367,11.367,0,0,1,17.115,9.832c.008,6.94-1.163,16.814-5.241,30.194l-10.978,33.018a69.469,69.469,0,0,1-12.892,22.89C269.276,249,250.67,274.125,224.852,296.543a1.5,1.5,0,0,1-2.033-.061c-4.533-4.467-23.5-23.923-33.589-46.171,0,0,30.653-24.4,52-43.9a38.967,38.967,0,0,0,8.526-11.224C256.4,181.992,273.617,150.745,292.413,139.88Z"/><path fill="#ea8b7f" d="M171.571,253.6l-3.272-4.27a11.192,11.192,0,0,1-2.629,7.979,98.86,98.86,0,0,1-9.607,8.722l2.412,3.023a5.678,5.678,0,0,0,8.147.758l3.6-3.106A9.6,9.6,0,0,0,171.571,253.6Z"/><path fill="#ffe1dc" d="M262.958,50.706a3,3,0,0,1-.277-5.986l.4-.035a3,3,0,0,1,.452,5.983l-.293.025C263.146,50.7,263.051,50.706,262.958,50.706Z"/><path fill="#ffe1dc" d="M248.284,59.07a3,3,0,0,1-2.441-4.74,19.08,19.08,0,0,1,6.218-5.2,3,3,0,0,1,2.849,5.281,13.7,13.7,0,0,0-4.18,3.4A3,3,0,0,1,248.284,59.07Z"/><path fill="#404a66" d="M133.5,232.441l-4.715,3.966a10.324,10.324,0,0,0-1.145,14.675l1.108,1.276a10.37,10.37,0,0,0,13.113,2.062,9.908,9.908,0,0,0,.9,1.353l12.59,15.78a9.589,9.589,0,0,0,6.344,3.554A12.379,12.379,0,0,0,164.5,282.4l7.327,8.9a12.337,12.337,0,0,0,8.6,4.491q.518.042,1.031.042a12.31,12.31,0,0,0,4.8-.978c1.892,2.2,3.742,4.321,5.519,6.318a12.841,12.841,0,0,0,17.947,1.156,4,4,0,1,0-5.246-6.041,4.811,4.811,0,0,1-6.725-.433c-1.609-1.808-3.281-3.723-4.99-5.707l10.982-9.128a189.857,189.857,0,0,0,17.324,19.331,4,4,0,0,0,5.35.124q1.8-1.548,3.556-3.118c-.267,2.747-.463,5.5-.569,8.252l-1.484,26.048,7.987.455,1.488-26.122a133.116,133.116,0,0,1,1.714-16.823l-.285-.048c9.183-8.906,17.306-17.9,24.27-26.048h42.7c8.158,8.581,10.814,46.217,10.544,68.766l8,.1c.008-.646.174-16-1.362-32.919-2-22-5.823-35.69-11.667-41.715V242.835l8.553-11.93a23.975,23.975,0,0,0,4.43-15.428L320.94,162.15a23.075,23.075,0,0,0-6.605-14.763l-1.223-1.241a15.176,15.176,0,0,0-7.268-9.767,15.784,15.784,0,0,0-2.085-1V124.148a9.811,9.811,0,0,0-4.71-8.419,9.971,9.971,0,0,0-2.247-1.018l-.171-7.918a60.318,60.318,0,0,0,6.182-4.908,39.54,39.54,0,0,0,11.37-39.928h0a47.7,47.7,0,0,0-3.045-8.493,14.891,14.891,0,0,0,4.641-11.846,17.8,17.8,0,0,0-2.7-9.067c-4.289-6.984-14.132-7.213-18.388-6.961-13.107-10.984-30.037-9.714-32.069-9.517-6.117.224-10.809,2.348-13.949,6.313-3.894,4.917-4.133,11.348-3.884,14.985A38.811,38.811,0,0,0,228.7,59.313c-.45,1.611-.833,3.3-1.14,5.021-.02.111-.035.223-.045.335l-1.1,11.93a14.068,14.068,0,0,1-2.112,4.694,12.845,12.845,0,0,0-.212,14.32l5.811,9.145a24.358,24.358,0,0,1,2.45,5.072l2.475,7.132a11.986,11.986,0,0,0,15.992,7.112l10.12-4.278,1.749,17.738a79.05,79.05,0,0,0-11.459,20.829c-9.581,16.72-41.322,50.087-77.816,71.711l-.908-1.124,2.267-1.9a10.322,10.322,0,0,0,1.009-14.868l-1.209-1.329a10.3,10.3,0,0,0-14.279-.949l-4.9,4.121C141.992,196.905,78.063,112.811,32.073,10.25a4,4,0,0,0-6.365-1.3,31.36,31.36,0,0,0-5.785,7.979,38.044,38.044,0,0,0-.245,34.544C31.642,75.706,74.831,159.575,133.5,232.441Zm15.512,18.343a1.67,1.67,0,0,1,.227-2.327l3.607-3.057a5.539,5.539,0,0,1,3.6-1.328,5.75,5.75,0,0,1,.613.033,5.546,5.546,0,0,1,3.846,2.161l7.487,9.771a5.6,5.6,0,0,1-.785,7.643l-1.793,1.546-.008.008-1.8,1.553a1.679,1.679,0,0,1-2.408-.224ZM184.5,286.612l0,0,0,0-.053.044-.08.069a4.436,4.436,0,0,1-6.35-.515l-7.327-8.9a4.433,4.433,0,0,1,.408-6.071l1.746-1.506,0,0,15.062-13a144.162,144.162,0,0,0,11.034,17.873Zm39.489,5.369c-5.933-6.068-20.779-22.223-29.793-40.525,1.519-1.221,3.681-2.966,6.3-5.1,3.688,7.141,11.682,20.993,22.818,31.281a4,4,0,0,0,5.429-5.875c-10.994-10.157-18.914-24.639-21.9-30.6,10.781-8.866,25.377-21.11,37.082-31.806a42.877,42.877,0,0,0,9.4-12.381c6.393-12.681,23.195-43.293,41.088-53.637a7.368,7.368,0,0,1,11.115,6.375c.009,8.184-1.691,17.931-5.053,28.973l-10.92,32.844a65.121,65.121,0,0,1-12.115,21.6c-2.179,2.577-4.577,5.529-7.354,8.946C258.884,255.875,243.725,274.535,223.989,291.981Zm34.565-130.357a3.965,3.965,0,0,0,.28-.761,71.06,71.06,0,0,1,10.855-19.292,4,4,0,0,0,.5-.639,70.3,70.3,0,0,1,20.2-17.04c.874-.491,1.766-.968,2.651-1.417.046-.024.091-.038.136-.057a3.993,3.993,0,0,0,.817-.147,1.911,1.911,0,0,1,.868.276,1.824,1.824,0,0,1,.894,1.6v10.361a15.663,15.663,0,0,0-5.35,1.909c-13.939,8.059-26.875,26.463-35.647,41.285A72.859,72.859,0,0,1,258.554,161.624ZM276.3,247.131l1.286-1.583h25.726v9.525h-33.5C272.141,252.243,274.312,249.572,276.3,247.131Zm40.011-31.152a15.952,15.952,0,0,1-2.948,10.265l-8.1,11.3h-21.1a73.062,73.062,0,0,0,12.988-23.489l10.935-32.891c.011-.032.021-.064.031-.095a131.582,131.582,0,0,0,4.6-20.25,15.076,15.076,0,0,1,.242,1.829ZM297.429,95.968a56.726,56.726,0,0,1-12.356,8.416c-.307-.406-.614-.816-.917-1.231a2.259,2.259,0,0,1-.456-1.63l.017-.086a5.678,5.678,0,0,1,1.678-2.908,17.231,17.231,0,0,0,3.271-4.444,13.5,13.5,0,0,0,1.445-5.245,18.608,18.608,0,0,0-.479-5.84,11.167,11.167,0,0,0-7.448-7.851A11.432,11.432,0,0,0,271.3,77.237c-.092.076-.183.154-.274.233a6.48,6.48,0,0,1,2.807-5.767c11.1-7.652,17.108-15.222,20.2-20.225a3.442,3.442,0,0,1,2.4-1.59,3.245,3.245,0,0,1,2.642.732c4.468,3.81,6.047,8.537,7.394,13.452h0A31.574,31.574,0,0,1,297.429,95.968Zm8.831-59.23a9.772,9.772,0,0,1,1.52,5.106,4.13,4.13,0,0,0,.033.521,6.84,6.84,0,0,1-1.326,4.292,27.528,27.528,0,0,0-2.222-2.124,11.279,11.279,0,0,0-9.075-2.548c-.354.055-.7.135-1.045.222q-1-1.105-2.1-2.117a24.106,24.106,0,0,0,4.2-6.556C299.776,33.479,304.658,34.13,306.26,36.738Zm-51.317-9.386c1.657-2.093,4.3-3.169,8.076-3.288.1,0,.213-.011.314-.022.15-.016,14.4-1.434,25.3,6.953a16.114,16.114,0,0,1-3.086,4.337,34.261,34.261,0,0,0-9.325-3.637q-.651-.148-1.325-.282a40.323,40.323,0,0,0-22.09,1.85A11.378,11.378,0,0,1,254.943,27.352ZM247.7,116.706a3.987,3.987,0,0,1-5.319-2.366l-2.475-7.132c-.026-.076-.059-.15-.086-.226l3.458.444a3.6,3.6,0,0,0,.45.029,3.5,3.5,0,0,0,.441-6.972L236,99.433l-5.154-8.111a4.936,4.936,0,0,1,0-5.429,21.435,21.435,0,0,0,3.472-8.034c.017-.1.031-.2.04-.308l1.106-11.974c.257-1.415.574-2.8.941-4.116,4.367-15.672,20.6-25.425,36.948-22.2.372.074.739.151,1.1.234a26.626,26.626,0,0,1,13.058,7.369c-.094.138-.2.268-.285.411-2.687,4.351-7.978,10.977-17.931,17.841a14.439,14.439,0,0,0-5.435,16.758c.661,1.833,1.413,3.732,2.235,5.645a4,4,0,0,0,3.665,2.422h.01a4,4,0,0,0,3.667-2.4,11.073,11.073,0,0,1,2.986-4.156,3.464,3.464,0,0,1,3.309-.62A3.192,3.192,0,0,1,281.885,85a10.652,10.652,0,0,1,.243,3.319,5.421,5.421,0,0,1-.577,2.11,9.242,9.242,0,0,1-1.753,2.386,13.544,13.544,0,0,0-3.955,7.209,10.266,10.266,0,0,0,1.858,7.857c1.011,1.381,2.049,2.724,3.085,3.991a4,4,0,0,0,4.561,1.19c.137-.053,1.419-.566,3.384-1.557l.09,4.16c-.786.408-1.574.821-2.348,1.256a78.394,78.394,0,0,0-16.554,12.442l-1.265-12.828,2.023-.855a4,4,0,1,0-3.116-7.368l-4.734,2ZM246.665,178.2c-.115,1.138-.215,2.281-.283,3.431l-.757,12.794a34.885,34.885,0,0,1-7.1,9.034c-19.92,18.2-48.365,40.993-51.488,43.488l-8.548-10.583C206.371,219.631,231.569,196.208,246.665,178.2Zm-65.7,73.961-3.98,3.434a13.522,13.522,0,0,0-2.239-4.421l-7.487-9.771a13.5,13.5,0,0,0-4.888-3.971l4-3.344Zm-15.524-36.129a2.317,2.317,0,0,1,3.213.213l1.209,1.329a2.322,2.322,0,0,1-.226,3.346h0l-31.606,26.448a2.335,2.335,0,0,1-3.245-.257l-1.109-1.276a2.324,2.324,0,0,1,.257-3.3l7.719-6.492h0l1.47-1.237ZM26.994,20.671c.186-.353.374-.691.561-1.013C73.8,120.526,136.23,202.534,149.266,219.18l-9.644,8.111C81.522,155.1,38.716,71.963,26.852,47.931A30.024,30.024,0,0,1,26.994,20.671Z"/><path fill="#404a66" d="M245.667,75.1l-3.121,1.118a3.5,3.5,0,1,0,2.359,6.59l3.122-1.118a3.5,3.5,0,0,0-2.36-6.59Z"/></svg>