<svg xmlns="http://www.w3.org/2000/svg"  viewBox="0 0 340 340" width="500px" height="500px"><path fill="#db614d" d="M263.1,224.993,261.813,256.9q-11.592,12.169-23.185,4.155a148.083,148.083,0,0,0-4.454-23.7l7.608-9.66S264.457,212.213,263.1,224.993Z"/><path fill="#db614d" d="M179.636,226.767s-19.467,11.572-25.223,34.327c-.373,1.475-.681,2.837-.934,4.106-6.956,5.67-14.963,6.814-24.194,2.691.685-6.8,1.534-13.872,1.732-19.03l24.623-32.319Z"/><path fill="#bdcdd1" d="M153.085,285.339c-.384-6.634-1.441-10.937.395-20.139-4.889,2.9-12.632,5.191-24.232,3.081-.63,6.311-1.106,12.356-.769,16.381C129.33,294.815,154,301.168,153.085,285.339Z"/><path fill="#bdcdd1" d="M258.673,296.054c2.828-.779,2.858-4.519,2.522-9.723a102.732,102.732,0,0,1-.058-12.629l.676-16.8a23.129,23.129,0,0,1-23.186,4.156c1.237,10.659,1.647,20.636,1.782,26.224a9.284,9.284,0,0,0,5.563,8.414A19.611,19.611,0,0,0,258.673,296.054Z"/><path fill="#ff9578" d="M216,131.582s-5.686,15.433-32.085,16.651c0,0-34.608-.849-58.89-7.716,0,0-33.689-11.672-58.244,15.976,0,0-45.321,18.545-44.915,68.5,1.19,17.094,33.439,36.473,48.247,9.832,1.3-5.481,1.39-11.8,1.687-19.142,0,0,1.357-22.653,23.983-30.9a49.823,49.823,0,0,0,4.2,37.236,30.525,30.525,0,0,1,3.5,19.056,165.116,165.116,0,0,0-1.607,16.465c7.48,10.848,17.164,13.611,29.1,8.107,3.316-11.044,10.457-22.783,24.51-32.94a108.422,108.422,0,0,0,34.522,1.218s-.587,10.531-.809,24.1q12.143,15.012,27.78,7.261c2.82-9.37,8.768-19.615,20.748-27.788C247.658,190.566,249.132,149.359,216,131.582Z"/><path fill="#fff" d="M220.059,110.057s-10.137,4.13-17.055,16.722a1.858,1.858,0,0,0,.709,2.538A21.356,21.356,0,0,0,216,131.582s-11.474,34.129,9.365,50.679a4.6,4.6,0,0,1,1.354,5.55c-4.363,9.336-13.986,35.821,7.982,51.9l0,0c1.025-.8,2.087-1.584,3.217-2.347a20.585,20.585,0,0,1,10.436-3.464c7.49-.391,21.932-2.643,28.968-13.783,0,0,21.525-2.843,28.43-24.369,0,0,17.464-17.057,12.59-42.238,0,0,2.75,2.151,9.538,2.075a1.855,1.855,0,0,0,1.773-1.363c1.187-4.39,3.81-19.415-8.062-40.107l9.163.812C311.848,94.664,248.326,88.418,220.059,110.057Z"/><path fill="#ff9578" d="M313.475,80.32s11.779-12.453,8.419-36.057a11.405,11.405,0,0,0-16-8.74c-8.245,3.769-16.962,12.092-25.317,25.391H266.765s-8.02-16.552-30.7-24.789c-4.826-1.753-10.608,1.6-12.055,6.523-3.255,11.079-.876,27.728,9.291,40.643,0,0-.239,7.365-20.858,17.591a1.589,1.589,0,0,0-.721,2.135,14.006,14.006,0,0,0,8.334,7.04s19.049-4.872,35.1,8.077c0,0,5.928,5.157,17.7,5.157,0,0,9.341-.34,20.406-8.312,0,0,16.8-10.026,28.332-.861a16.74,16.74,0,0,0,7.694,1.086,1.576,1.576,0,0,0,1.359-1.73C330.147,108.514,327.465,91.94,313.475,80.32Z"/><path fill="#fff" d="M110.643,303.928c3.861,2.394,9.287,1.574,14,.828a6.357,6.357,0,0,0,5.284-7.61,64.335,64.335,0,0,1,1.042-31.5c-15.392,3.231-24.592-3.268-29.1-8.108-.544,11.57.042,25.561,3.708,39.445A11.638,11.638,0,0,0,110.643,303.928Z"/><path fill="#fff" d="M215.925,294.451l-.334-2.851a55.924,55.924,0,0,1,1.394-26.308c-12.049,4.592-23.079-3.16-27.789-7.264-.2,12.274-.1,27.03,1,38.732a8.876,8.876,0,0,0,8.825,8.037C211.646,304.785,216.384,302.55,215.925,294.451Z"/><path fill="#404a66" d="M277.939,116.607H267.771a4.6,4.6,0,0,0-4.048,6.764,20.35,20.35,0,0,0,9.132,8.578,20.345,20.345,0,0,0,9.131-8.578A4.594,4.594,0,0,0,277.939,116.607Z"/><path fill="#fff" d="M14.07,265.2c5.838,4.206,16.079,9.173,35.284,0,0,0,14.907-5.845,20.75-30.377-31.361,18.3-48.24-9.83-48.24-9.83s-.4,12.74-4.257,23.9c0,0-1.8,8.232-4.164,11.153C11.922,261.925,12.11,263.789,14.07,265.2Z"/><path fill="#bdcdd1" d="M294.111,167.34c-2.456,4.665-6.954,10.4-14.762,12.6a1.213,1.213,0,0,1-1.478-1.535,60.418,60.418,0,0,0,1.938-7.678,1.211,1.211,0,0,0-2.086-1.037A32.891,32.891,0,0,1,260.576,180a1.214,1.214,0,0,1-1.366-1.66c.66-1.558,1.554-3.8,2.241-6.038a1.211,1.211,0,0,0-1.743-1.423,34.4,34.4,0,0,1-14.963,4.29,1.213,1.213,0,0,1-.572-2.318c5.974-2.627,15.653-7.63,20.927-14.346a1.205,1.205,0,0,1,2.143.568,33.823,33.823,0,0,1-.342,11.043,1.21,1.21,0,0,0,1.927,1.2c3.542-2.747,9.684-8.119,12.87-14.474a1.209,1.209,0,0,1,2.187.09,21.289,21.289,0,0,1,1.632,10.763,1.213,1.213,0,0,0,1.682,1.276,22.409,22.409,0,0,0,5.072-3.129A1.211,1.211,0,0,1,294.111,167.34Z"/><path fill="#404a66" d="M253.558,66.509l-8.909,7.613s-7.346-5.958-6.715-17.979C237.934,56.143,248.536,56.79,253.558,66.509Z"/><path fill="#404a66" d="M292.858,66.916l7.924,5.749s7.159-7.577,6-20.307C306.786,52.358,298.3,54.767,292.858,66.916Z"/><path fill="#404a66" d="M266.744,233.852a30.7,30.7,0,0,0,13.962-11.6,4,4,0,1,0-6.764-4.272c-2.968,4.7-7.576,7.572-12.329,9.324-.1.033-.2.069-.3.111a47.254,47.254,0,0,1-13.166,2.49,24.538,24.538,0,0,0-12.465,4.144c-.059.039-.121.085-.18.125-.01.007-.022.011-.032.018-.09.061-.17.125-.258.186-.62.428-1.255.888-1.9,1.374-.307.229-.617.458-.917.69l-.015.011c-.058.042-.116.086-.173.132-.02.016-.034.036-.054.052a54.031,54.031,0,0,0-18.245,25.45c-8.293,2.258-16.015-2.2-20.669-5.9.157-8.18.434-15.054.607-18.853a39.616,39.616,0,0,0,6.58-1.891,4,4,0,0,0-2.741-7.515,34.066,34.066,0,0,1-8.209,2.036,105.47,105.47,0,0,1-33.089-1.152,4,4,0,0,0-3.243.656c-13.952,10.084-21.511,21.6-25.321,32.684-10.659,1.572-17.609-2.172-21.847-6.17.326-5.683.909-10.6,1.463-14.314a34.32,34.32,0,0,0-3.94-21.553A46.366,46.366,0,0,1,99.024,188.1l2.4-8.272a4,4,0,0,0-7.682-2.232l-2.435,8.379c-.02.07-.038.14-.055.21a54.484,54.484,0,0,0,5.207,37.745,26.385,26.385,0,0,1,3.058,16.561c-2.136,14.352-3.49,35.98,2.2,57.519a15.546,15.546,0,0,0,6.818,9.319,16.527,16.527,0,0,0,8.841,2.184,50.7,50.7,0,0,0,7.9-.805,10.494,10.494,0,0,0,6.982-4.383,10.232,10.232,0,0,0,1.631-7.745,23.241,23.241,0,0,0,9.9,2.338c.446,0,.892-.015,1.33-.046,7.718-.547,12.413-5.949,11.96-13.764-.082-1.424-.195-2.743-.3-4.026-.464-5.432-.831-9.722,1.517-19.006a49.288,49.288,0,0,1,4.781-11.942,4,4,0,0,0-6.985-3.9,57.338,57.338,0,0,0-5.551,13.884c-.215.848-.4,1.652-.578,2.436a29.011,29.011,0,0,1-14.588,2.458c3.216-9.457,9.533-19.3,21.061-28.024a114.369,114.369,0,0,0,29.351,1.415c-.489,11.024-1.434,38.933.428,58.735a12.8,12.8,0,0,0,12.8,11.663h.011c7.015-.007,14.04-.577,17.908-4.675,2.255-2.389,3.233-5.626,2.991-9.9,0-.08-.012-.159-.021-.238l-.334-2.851a4.16,4.16,0,0,0-.08-.457c-.071-.3-6.506-28.993,17.736-47.853.272-.211.528-.4.791-.6.576-.432,1.161-.861,1.771-1.282.124-.085.254-.181.377-.265a16.56,16.56,0,0,1,8.405-2.785,58.859,58.859,0,0,0,10.067-1.389l-.739,18.352a18.909,18.909,0,0,1-15.612,3.1c-.221-1.727-.463-3.464-.73-5.2a4,4,0,0,0-7.906,1.221,275.347,275.347,0,0,1,2.767,33.387,13.256,13.256,0,0,0,8.03,12.013,20.975,20.975,0,0,0,8.07,1.542,27.214,27.214,0,0,0,7.224-1.019c6.235-1.718,5.763-9.011,5.451-13.837a99.616,99.616,0,0,1-.053-12.211ZM125.666,299.789a2.419,2.419,0,0,1-1.642,1.015c-3.843.61-8.627,1.366-11.273-.275a7.687,7.687,0,0,1-3.3-4.562,122.144,122.144,0,0,1-3.734-30.183,32.614,32.614,0,0,0,17.3,4.731c.84,0,1.709-.038,2.593-.1a69.987,69.987,0,0,0,.409,27.555A2.327,2.327,0,0,1,125.666,299.789Zm12.13-26.7a38.128,38.128,0,0,0,10.757-1.467,60.214,60.214,0,0,0,.25,10.136c.1,1.213.211,2.461.289,3.808.2,3.489-1.156,5.081-4.54,5.32-5.147.374-11.809-3.253-12.087-6.562l0-.019a58.242,58.242,0,0,1,.881-11.428C134.9,273.025,136.383,273.093,137.8,273.093Zm73.314,25.538c-2.036,2.156-9.609,2.164-12.1,2.166h0a4.9,4.9,0,0,1-4.834-4.412c-.86-9.149-1.094-20.286-1.053-30.6a32.255,32.255,0,0,0,16.29,4.911q1.136,0,2.3-.107a61.258,61.258,0,0,0-.071,21.651l.3,2.551C212.077,297.606,211.351,298.376,211.11,298.631Zm46.048-6.313A15.139,15.139,0,0,1,247.5,292a5.259,5.259,0,0,1-3.094-4.817c-.113-4.67-.418-12.335-1.218-20.918a27.227,27.227,0,0,0,3.71.261,25.9,25.9,0,0,0,10.613-2.259l-.37,9.2a107.145,107.145,0,0,0,.059,13.121A26.94,26.94,0,0,1,257.158,292.318Z"/><path fill="#404a66" d="M59.845,169.526a4,4,0,1,0-1.532-7.851c-19.653,3.834-40.693,29.107-40.449,63.267-.25,7.352-2.716,27.61-11.111,34.285a4,4,0,0,0-.581,5.7c.376.449,8.866,10.382,24.973,10.38,1.046,0,2.127-.041,3.238-.13A41.285,41.285,0,0,0,67.067,254.01c5.734-10.247,8.951-23.1,9.557-38.116a34.529,34.529,0,0,1,8.189-18.5,4,4,0,0,0-6.014-5.275,42.047,42.047,0,0,0-10.164,23.375,98.556,98.556,0,0,1-2.025,16.7c-23.88,12.928-37.771-4.142-40.733-8.381C26.105,195.213,43.462,172.723,59.845,169.526ZM49.709,245.034a39.447,39.447,0,0,0,13.954-2.694,56.817,56.817,0,0,1-3.578,7.763A33.292,33.292,0,0,1,33.742,267.2a27.3,27.3,0,0,1-18.714-4.992c6.071-7.419,8.752-19.2,9.93-27.5C30.205,239.6,38.541,245.034,49.709,245.034Z"/><path fill="#404a66" d="M230.553,181.026c-8.151-5.055-12.714-13.409-13.564-24.83a4,4,0,1,0-7.978.594c.928,12.476,5.84,22.392,14.267,28.914-3.614,7.563-10.963,26.686-2.671,43.546a4,4,0,0,0,7.179-3.531c-8.478-17.237,3.987-39.061,4.111-39.275A4,4,0,0,0,230.553,181.026Z"/><path fill="#404a66" d="M330.4,118.915a4,4,0,0,0,4.351-4.111c-.027-.877-.833-20.675-16.219-35.334a73.673,73.673,0,0,0,7.357-35.333,13.64,13.64,0,0,0-6.671-11.251,16.083,16.083,0,0,0-14.994-1,55.119,55.119,0,0,0-26.136,25.029h-9.029A60.1,60.1,0,0,0,236.91,32.253c-7.492-2.405-14.343,3.245-16.981,9.783-5.079,12.582-.618,31.457,10.377,43.9a4,4,0,1,0,6-5.3C226.278,69.3,223.877,53.626,227.347,45.03c1.308-3.239,4.331-6.056,7.118-5.16A52.077,52.077,0,0,1,263.2,62.725a4,4,0,0,0,3.567,2.189h13.808a4,4,0,0,0,3.621-2.3A47.414,47.414,0,0,1,307.553,39.16a8,8,0,0,1,7.45.524,5.77,5.77,0,0,1,2.893,4.7c.646,20.526-7.685,33.615-7.763,33.734a4,4,0,0,0,.787,5.275c10.487,8.711,14.051,20.67,15.246,27.111l-4.219-.374a4,4,0,0,0-3.823,5.974c10.012,17.45,9.1,30.257,8.065,35.445a12.7,12.7,0,0,1-5.439-1.243,3.806,3.806,0,0,0-4.478-.385,4.066,4.066,0,0,0-1.855,4.348,42.367,42.367,0,0,1-2.4,24.224,4.038,4.038,0,0,0,.176,3.362,23.355,23.355,0,0,1,1.948,6.307,4,4,0,0,0,3.94,3.344,4.046,4.046,0,0,0,.663-.056,4,4,0,0,0,3.288-4.6,32.844,32.844,0,0,0-1.97-6.992,50.192,50.192,0,0,0,3.045-20.578,31.823,31.823,0,0,0,6.342.257,4,4,0,0,0,3.513-2.527c.271-.688,5.968-15.748-4.469-38.265Z"/><path fill="#404a66" d="M222.466,90.278a81.07,81.07,0,0,1-13.077,7.647,4,4,0,0,0-2.13,4.633,16.865,16.865,0,0,0,4.978,7.555,45.83,45.83,0,0,0-13.626,16.431,4,4,0,0,0,1.017,4.862,20.521,20.521,0,0,0,8.961,3.815c-3.557,3.516-10.213,7.75-22.117,8.831a37.009,37.009,0,0,1-4.88.1c-7.953-.323-35.461-1.82-55.412-7.462-1.253-.379-30.981-9.041-58.137,10.629a12.454,12.454,0,0,1-6.562,2.468,25.956,25.956,0,0,0-8.454,1.837,4,4,0,1,0,3.048,7.4,17.98,17.98,0,0,1,5.852-1.245,20.422,20.422,0,0,0,10.809-3.977c23.866-17.284,50.867-9.527,51.2-9.43,20.861,5.9,49.157,7.445,57.33,7.778a44.638,44.638,0,0,0,5.93-.125c26.119-2.371,32.305-18.374,32.556-19.053.009-.026.011-.053.02-.079a4.152,4.152,0,0,0,.109-.419c.027-.12.06-.238.076-.358s.015-.245.02-.369a3.963,3.963,0,0,0,0-.422c0-.033,0-.065,0-.1-.01-.107-.042-.205-.06-.309s-.035-.226-.065-.336a3.86,3.86,0,0,0-.182-.524c-.022-.051-.039-.1-.063-.153a4.031,4.031,0,0,0-.353-.608l-.007-.01a3.956,3.956,0,0,0-3.616-1.682,18.81,18.81,0,0,1-7.96-.874c6-9.555,13.824-12.934,13.893-12.963a4,4,0,0,0-.244-7.5,10.571,10.571,0,0,1-4.682-3.031,80.443,80.443,0,0,0,10.6-6.537,4,4,0,0,0-4.78-6.416Z"/><path fill="#404a66" d="M306.3,210.461a4.042,4.042,0,0,0,.908.1,4,4,0,0,0,3.893-3.1,36.17,36.17,0,0,0-1.1-20.145,4,4,0,0,0-7.551,2.643,28.173,28.173,0,0,1,.854,15.693A4,4,0,0,0,306.3,210.461Z"/><path fill="#404a66" d="M288.251,225.125a4,4,0,0,0,5.4-1.686,33.2,33.2,0,0,0,3.548-19.455,4,4,0,1,0-7.905,1.233,25.184,25.184,0,0,1-2.728,14.507A4,4,0,0,0,288.251,225.125Z"/><path fill="#404a66" d="M260.4,116.791a8.52,8.52,0,0,0-.2,8.472,24.426,24.426,0,0,0,8.656,9.064v2.2a4,4,0,1,0,8,0v-2.2a24.433,24.433,0,0,0,8.656-9.064,8.6,8.6,0,0,0-7.572-12.656H267.77A8.522,8.522,0,0,0,260.4,116.791Zm18.05,4.106a.548.548,0,0,1,.015.582,16.412,16.412,0,0,1-5.606,5.921,16.386,16.386,0,0,1-5.608-5.922.544.544,0,0,1,.015-.581.551.551,0,0,1,.507-.29h10.169A.552.552,0,0,1,278.447,120.9Z"/><path fill="#404a66" d="M238.179,52.15a4,4,0,0,0-4.239,3.782c-.73,13.9,7.824,21,8.188,21.3a4,4,0,0,0,5.119-.065l8.909-7.613a4,4,0,0,0,.955-4.877C251.116,53.07,238.7,52.182,238.179,52.15Zm6.876,16.363a18.578,18.578,0,0,1-2.845-7.2,15.407,15.407,0,0,1,6.086,4.434Z"/><path fill="#404a66" d="M310.77,52a4,4,0,0,0-5.076-3.486c-.42.119-10.347,3.075-16.486,16.769a4,4,0,0,0,1.3,4.873l7.924,5.75a4,4,0,0,0,5.256-.49C304.032,75.05,312.073,66.359,310.77,52ZM299.856,67.052l-1.892-1.374a25.81,25.81,0,0,1,4.522-5.894A23.68,23.68,0,0,1,299.856,67.052Z"/><path fill="#404a66" d="M253.219,90.282a4,4,0,0,0-2.234,7.682,12.8,12.8,0,0,1,4.694,3.013,4,4,0,0,0,5.657-5.656A20.319,20.319,0,0,0,253.219,90.282Z"/><path fill="#404a66" d="M286.871,90.282a20.312,20.312,0,0,0-8.116,5.039,4,4,0,1,0,5.657,5.656,12.786,12.786,0,0,1,4.69-3.011,4,4,0,0,0-2.231-7.684Z"/><path fill="#404a66" d="M231.417,111.45a4.01,4.01,0,0,0,3.965,4.023c.069,0,6.934.138,11.019,5.057a4,4,0,0,0,6.155-5.111c-6.524-7.856-16.721-7.946-17.151-7.946A3.99,3.99,0,0,0,231.417,111.45Z"/><path fill="#404a66" d="M226.722,129a4,4,0,0,0,5.411,1.65c.067-.036,6.831-3.525,15.2,1.8a4,4,0,1,0,4.293-6.75c-12.258-7.8-22.809-2.346-23.252-2.108A4,4,0,0,0,226.722,129Z"/><path fill="#404a66" d="M308.324,107.473c-.431,0-10.628.09-17.151,7.946a4,4,0,0,0,6.154,5.111c4.062-4.892,10.874-5.055,11.018-5.057a4,4,0,0,0-.021-8Z"/><path fill="#404a66" d="M317.006,129a4,4,0,0,0-1.65-5.41c-.444-.238-11-5.692-23.253,2.108a4,4,0,1,0,4.294,6.75c8.159-5.19,14.876-1.958,15.23-1.781A4,4,0,0,0,317.006,129Z"/></svg>