<svg xmlns="http://www.w3.org/2000/svg"  viewBox="0 0 340 340" width="500px" height="500px"><path d="M61.071,94.412H54.807A13.358,13.358,0,0,1,41.465,81.07V75.547a13.347,13.347,0,0,1,6.942-11.709,3.5,3.5,0,1,1,3.361,6.14,6.351,6.351,0,0,0-3.3,5.569V81.07a6.349,6.349,0,0,0,6.342,6.342h6.264a3.5,3.5,0,0,1,0,7Z"/><path d="M125.756,94.412h-6.107a3.5,3.5,0,0,1,0-7h6.107A6.349,6.349,0,0,0,132.1,81.07V75.547a6.348,6.348,0,0,0-3.3-5.569,3.5,3.5,0,1,1,3.362-6.14A13.346,13.346,0,0,1,139.1,75.547V81.07A13.357,13.357,0,0,1,125.756,94.412Z"/><path d="M183.235,197.89a24.829,24.829,0,0,1-8.652-1.56c-7.441-2.767-21.229-8.351-29.971-14.658a3.5,3.5,0,0,1,4.1-5.676c8.074,5.824,21.205,11.129,28.314,13.772a17.617,17.617,0,0,0,12.252.045,38.454,38.454,0,0,0,3.955-1.726,3.5,3.5,0,0,1,3.148,6.252,45.71,45.71,0,0,1-4.674,2.039A24.387,24.387,0,0,1,183.235,197.89Z"/><path d="M183.617,156.181a3.508,3.508,0,0,1-.833-.1,14.347,14.347,0,0,1-4.63-2.042c-12.075-8.13-21.745-18.684-26.435-24.251a3.5,3.5,0,1,1,5.354-4.51c4.454,5.287,13.623,15.3,24.991,22.955a7.372,7.372,0,0,0,2.38,1.048,3.5,3.5,0,0,1-.827,6.9Z"/><path d="M302.672,272.055a3.5,3.5,0,0,1-1.862-6.467c23.261-14.571,31.288-34.775,23.911-60.108l-4.126,3.78a3.5,3.5,0,0,1-5.851-2.273,30.118,30.118,0,0,0-16.273-22.775,88.006,88.006,0,0,1,3.974,19.635c1.725,20.648-4.686,39.038-18.54,53.183a3.5,3.5,0,0,1-5-4.9c12.51-12.772,18.09-28.742,16.585-47.466a78.282,78.282,0,0,0-6.2-24.876,3.5,3.5,0,0,1,4.03-4.908,37.141,37.141,0,0,1,26.944,25.188l3.73-3.417a3.5,3.5,0,0,1,5.656,1.39c14.069,38.91-5.9,61.434-25.124,73.479A3.488,3.488,0,0,1,302.672,272.055Z"/><path d="M190.851,335.173H177.1a9.035,9.035,0,0,1-6.852-3.143,8.859,8.859,0,0,1-2.063-7.1,14.189,14.189,0,0,1,4.541-8.47l-3.028-16.87c-3.891-17.215-3.107-28.769,2.333-34.338a10.931,10.931,0,0,1,9.357-3.3,20.782,20.782,0,0,1,13.323,6.459,3.5,3.5,0,0,1-4.987,4.913,13.784,13.784,0,0,0-9.025-4.4,3.639,3.639,0,0,1-.428-.059,4.028,4.028,0,0,0-3.323,1.376c-1.625,1.75-4.919,7.97-.405,27.883.012.051.022.1.031.155l3.428,19.1a3.5,3.5,0,0,1-1.85,3.734,6.858,6.858,0,0,0-3.044,4.857,1.856,1.856,0,0,0,.444,1.492,2.042,2.042,0,0,0,1.548.711h13.753a3.5,3.5,0,0,1,0,7Z"/><path d="M298.633,335.173H281.8a3.5,3.5,0,0,1,0-7h16.837a2.705,2.705,0,0,0,2.052-.887,1.565,1.565,0,0,0,.4-1.274,6.9,6.9,0,0,0-3.4-4.871,3.446,3.446,0,0,1-1.9-3.811l3.712-19.1c.011-.056.023-.111.037-.167,4.584-18.683,1.825-25.258-.228-27.514a5.011,5.011,0,0,0-4.275-1.664,2.37,2.37,0,0,1-.336.04,16.654,16.654,0,0,0-11.76,6.32,3.5,3.5,0,0,1-5.343-4.523c4.506-5.323,10.037-8.271,16.44-8.766a12.109,12.109,0,0,1,10.285,3.7c5.457,5.773,6.142,17.208,2.035,33.99L303.1,316.394a13.984,13.984,0,0,1,4.9,8.5,8.58,8.58,0,0,1-1.976,6.93A9.649,9.649,0,0,1,298.633,335.173Z"/><path d="M281.8,335.173H190.851a3.5,3.5,0,0,1-3.375-2.573,15.65,15.65,0,0,1,4.532-15.865l-4.474-73.946c-1.018-19.431,2.542-32.234,4.755-38.139a3.5,3.5,0,0,1,6.555,2.456c-2.021,5.4-5.271,17.153-4.322,35.288l4.579,75.66a3.5,3.5,0,0,1-1.516,3.1,9.168,9.168,0,0,0-3.705,7.021h84.887a9.178,9.178,0,0,0-3.73-7.038,3.556,3.556,0,0,1-1.491-3.081l4.581-75.688c1.145-21.884-3.877-34.585-5.443-37.955a3.5,3.5,0,0,1,6.348-2.951c2.228,4.795,7.282,18.418,6.084,41.3l-4.477,73.974a15.651,15.651,0,0,1,4.532,15.866A3.5,3.5,0,0,1,281.8,335.173Z"/><path d="M28.776,260.474c-10.1,0-19.05-7.369-21.365-17.668-3.553-15.81-.77-36.633-.521-38.417,3.566-39.264,16.085-64.432,23.235-75.945a3.5,3.5,0,1,1,5.946,3.693c-6.827,10.994-18.792,35.094-22.217,72.97,0,.06-.012.121-.021.18-.029.209-2.944,21.073.408,35.984,1.62,7.208,7.852,12.33,14.812,12.2a14.868,14.868,0,0,0,2.226-.211,3.5,3.5,0,0,1,1.19,6.9,22.014,22.014,0,0,1-3.278.311C29.053,260.472,28.914,260.474,28.776,260.474Z"/><path d="M104.861,335.173a17.385,17.385,0,0,1-14.36-7.32,20.054,20.054,0,0,1-3.524-10.382v-25.12A12.736,12.736,0,0,1,99.7,279.629h4.214a3.5,3.5,0,1,1,0,7H99.7a5.729,5.729,0,0,0-5.722,5.722v25.071h0a13.5,13.5,0,0,0,2.277,6.443,10.388,10.388,0,0,0,8.607,4.308,10.74,10.74,0,0,0,9.845-6.439,3.5,3.5,0,0,1,6.415,2.8A17.741,17.741,0,0,1,104.861,335.173Z"/><path d="M136.463,335.173a26.5,26.5,0,0,1-25.4-19.236c-6.082-21.564-12.378-39.289-14.162-44.207a11.066,11.066,0,0,0-17.553-4.647,3.5,3.5,0,1,1-4.528-5.338,18.066,18.066,0,0,1,28.661,7.6c1.805,4.975,8.172,22.9,14.32,44.695a19.393,19.393,0,0,0,38.059-5.065c.095-16.042-1.406-40.362-9.1-65.118a3.5,3.5,0,0,1,6.684-2.078c7.962,25.612,9.515,50.7,9.417,67.238A26.419,26.419,0,0,1,136.463,335.173Z"/><path d="M94.33,157.81a3.458,3.458,0,0,1-.588-.05,3.5,3.5,0,0,1-2.867-4.035c1.846-10.9,6.129-31.561,14.074-47.535a3.5,3.5,0,0,1,6.267,3.117c-7.543,15.167-11.658,35.072-13.439,45.587A3.5,3.5,0,0,1,94.33,157.81Z"/><path d="M131.9,254.8c-.288,0-.576,0-.867-.016-14.246-.546-38.026-9.4-41.19-30.832a3.5,3.5,0,1,1,6.925-1.023c2.64,17.886,24.405,24.472,34.532,24.86,6.716.258,12.169-3.979,15.568-7.576a4.459,4.459,0,0,0,.984-4.484c-.4-1.192-.784-2.425-1.146-3.663a3.5,3.5,0,0,1,6.718-1.967c.338,1.155.7,2.3,1.068,3.412a11.45,11.45,0,0,1-2.536,11.51C147.7,249.521,140.809,254.8,131.9,254.8Z"/><path d="M145.156,202.145a3.5,3.5,0,0,1-3.5-3.367c-1.214-31.846,6.195-63.562,9.437-75.72a6,6,0,0,0-2.64-6.659c-16.208-9.787-29.809-10.169-34.907-9.881a3.5,3.5,0,0,1-.4-6.989c5.745-.329,21.041.08,38.921,10.878a13.03,13.03,0,0,1,5.786,14.455c-3.161,11.851-10.384,42.753-9.206,73.649a3.5,3.5,0,0,1-3.364,3.631Z"/><path d="M52.144,182.841a3.5,3.5,0,0,1-3.375-2.58c-5.48-20.091-11.689-36.684-18.454-49.32a12.5,12.5,0,0,1,3.195-15.656A70.281,70.281,0,0,1,65.4,101.151a11.378,11.378,0,0,1,3.406-.08,3.5,3.5,0,0,1-.889,6.944,4.362,4.362,0,0,0-1.3.03,63.253,63.253,0,0,0-28.726,12.7,5.5,5.5,0,0,0-1.4,6.89c7.014,13.1,13.419,30.184,19.036,50.782a3.5,3.5,0,0,1-3.378,4.422Z"/><path d="M95.222,198.239a3.5,3.5,0,0,1-3.5-3.5V169.525a3.5,3.5,0,0,1,7,0v25.214A3.5,3.5,0,0,1,95.222,198.239Z"/><path d="M93.179,157.811a3.5,3.5,0,0,1-3.361-2.531c-5.432-18.816-13.914-36.2-18.487-44.882a3.5,3.5,0,0,1,6.195-3.261c4.7,8.922,13.413,26.788,19.017,46.2a3.505,3.505,0,0,1-3.364,4.472Z"/><path d="M90.282,116.2c-.065,0-.129,0-.193-.006-10.606-.586-18.941-4.2-24.773-10.754C56.1,95.084,55.935,80.19,56.294,74.267a3.5,3.5,0,1,1,6.987.424c-.306,5.049-.211,17.7,7.263,26.092,4.514,5.07,11.154,7.9,19.738,8.409,8.582-.51,15.222-3.338,19.736-8.407,7.473-8.391,7.57-21.04,7.265-26.089a3.5,3.5,0,1,1,6.987-.423c.358,5.923.2,20.815-9.025,31.167-5.832,6.549-14.166,10.166-24.771,10.752Q90.378,116.2,90.282,116.2Z"/><path d="M90.282,96.077c-26.137,0-33.01-20.316-33.077-20.521a3.5,3.5,0,0,1,6.655-2.17c.231.682,5.549,15.691,26.422,15.691,20.9,0,26.206-15.054,26.422-15.694a3.5,3.5,0,0,1,6.654,2.173C123.291,75.761,116.418,96.077,90.282,96.077Z"/><path d="M58.369,29.741a3.5,3.5,0,0,1-2.99-5.313c11.731-19.379,33.962-19.6,34.9-19.6s22.971.219,34.747,19.346a3.5,3.5,0,0,1-5.961,3.67C109.38,12.107,90.463,11.828,90.273,11.827c-.174,0-19.255.283-28.906,16.226A3.5,3.5,0,0,1,58.369,29.741Z"/><path d="M120.027,77.979a3.5,3.5,0,0,1-3.434-2.828c-.3-1.5-1.7-5.818-4.445-7.676a5.126,5.126,0,0,0-2.892-.814H71.317a5.136,5.136,0,0,0-2.9.814c-2.744,1.858-4.141,6.18-4.447,7.688a3.506,3.506,0,0,1-5.519,2.126l-7.718-5.73A11.842,11.842,0,0,1,47.188,56.62c.233-.456.44-.9.62-1.319a9.047,9.047,0,0,0,.774-3.566,67.491,67.491,0,0,1,.837-10.523,3.5,3.5,0,0,1,6.908,1.129,60.536,60.536,0,0,0-.745,9.425,16.028,16.028,0,0,1-1.348,6.313c-.238.548-.509,1.132-.816,1.731A4.865,4.865,0,0,0,54.9,65.939l3.866,2.87a17.209,17.209,0,0,1,5.721-7.131,12.084,12.084,0,0,1,6.817-2.017H109.23a12.212,12.212,0,0,1,6.843,2.018,17.206,17.206,0,0,1,5.72,7.131l3.866-2.871a4.865,4.865,0,0,0,1.486-6.129c-.307-.6-.579-1.185-.816-1.733a16,16,0,0,1-1.348-6.312,60.988,60.988,0,0,0-.665-8.917,3.5,3.5,0,1,1,6.919-1.061,68.077,68.077,0,0,1,.746,9.947,9.048,9.048,0,0,0,.774,3.567c.181.419.387.864.62,1.319a11.842,11.842,0,0,1-3.543,14.939l-7.718,5.73A3.5,3.5,0,0,1,120.027,77.979Z"/><path d="M106.2,54.425a16.144,16.144,0,0,1-3.445-.371,26.572,26.572,0,0,1-12.468-6.192,26.589,26.589,0,0,1-12.469,6.192A16.485,16.485,0,0,1,66.443,52.4L50.8,43.928A10.451,10.451,0,0,1,45.863,31.4a17.23,17.23,0,0,1,1.672-3.453A10.379,10.379,0,0,1,56.366,23.1H79.722a14.5,14.5,0,0,1,10.56,4.587A14.5,14.5,0,0,1,100.841,23.1H124.2a10.378,10.378,0,0,1,8.831,4.846A17.2,17.2,0,0,1,134.7,31.4h0a10.45,10.45,0,0,1-4.937,12.53L114.12,52.4A16.652,16.652,0,0,1,106.2,54.425Zm-15.913-15.4a3.5,3.5,0,0,1,2.888,1.523c2.822,4.123,7.582,5.9,11.078,6.668a9.489,9.489,0,0,0,6.538-.97l15.643-8.473A3.4,3.4,0,0,0,128.1,33.73h0a10.159,10.159,0,0,0-.991-2.047A3.412,3.412,0,0,0,124.2,30.1H100.841c-4.928,0-7.3,4.782-7.4,4.986a3.582,3.582,0,0,1-3.185,1.988,3.5,3.5,0,0,1-3.153-2.012c-.087-.18-2.457-4.962-7.385-4.962H56.366a3.414,3.414,0,0,0-2.912,1.582,10.3,10.3,0,0,0-.991,2.048,3.4,3.4,0,0,0,1.672,4.043l15.642,8.473a9.489,9.489,0,0,0,6.538.97c3.5-.766,8.257-2.545,11.078-6.668A3.5,3.5,0,0,1,90.282,39.025Z"/><path d="M112.5,226.243H92.062a3.5,3.5,0,0,1,0-7H112.5a3.5,3.5,0,0,1,0,7Z"/><path d="M112.151,211.887H90.921a3.5,3.5,0,1,1,0-7h21.23a3.5,3.5,0,1,1,0,7Z"/><path d="M143.2,236.438H123.227a13.919,13.919,0,0,1-13.9-13.9v-12.9a13.919,13.919,0,0,1,13.9-13.9H143.2a13.919,13.919,0,0,1,13.9,13.9v12.9A13.919,13.919,0,0,1,143.2,236.438Zm-19.973-33.706a6.911,6.911,0,0,0-6.9,6.9v12.9a6.911,6.911,0,0,0,6.9,6.9H143.2a6.911,6.911,0,0,0,6.9-6.9v-12.9a6.911,6.911,0,0,0-6.9-6.9Z"/><path d="M76.888,253.914H74.13a3.5,3.5,0,0,1,0-7h2.758a11.389,11.389,0,0,0,11.375-11.375V214.107a11.389,11.389,0,0,0-11.375-11.375h-3.41a3.5,3.5,0,1,1,0-7h3.41a18.4,18.4,0,0,1,18.375,18.375v21.432A18.4,18.4,0,0,1,76.888,253.914Z"/><path d="M80.722,159.265a3.5,3.5,0,0,1-.383-6.979,146.1,146.1,0,0,1,30.041-.356,3.5,3.5,0,1,1-.7,6.965,138.97,138.97,0,0,0-28.561.348A3.727,3.727,0,0,1,80.722,159.265Z"/><path d="M81.957,173.444a3.5,3.5,0,0,1-.553-6.956,110.928,110.928,0,0,1,29-.349,3.5,3.5,0,0,1-.776,6.957,103.912,103.912,0,0,0-27.11.3A3.475,3.475,0,0,1,81.957,173.444Z"/><path d="M125.559,185.091h-6.537a12.078,12.078,0,0,1-12.065-12.065V151.163A12.078,12.078,0,0,1,119.022,139.1h6.537a12.078,12.078,0,0,1,12.065,12.065v21.863A12.078,12.078,0,0,1,125.559,185.091ZM119.022,146.1a5.071,5.071,0,0,0-5.065,5.065v21.863a5.071,5.071,0,0,0,5.065,5.065h6.537a5.071,5.071,0,0,0,5.065-5.065V151.163a5.071,5.071,0,0,0-5.065-5.065Z"/><path d="M68.325,187.274c-.082,0-.163,0-.244,0a3.5,3.5,0,0,1,.07-7l.174,0c.121,0,.242,0,.364-.014l5.229-.395a4.707,4.707,0,0,0,4.333-5.043l-1.709-22.6a4.7,4.7,0,0,0-5.043-4.334l-5.227.4a4.707,4.707,0,0,0-4.333,5.043l1.709,22.6a4.671,4.671,0,0,0,.483,1.753,3.5,3.5,0,1,1-6.257,3.139,11.64,11.64,0,0,1-1.206-4.364l-1.71-22.6A11.716,11.716,0,0,1,65.744,141.3l5.228-.4a11.713,11.713,0,0,1,12.55,10.786l1.71,22.6a11.716,11.716,0,0,1-10.786,12.551l-5.228.4Q68.77,187.275,68.325,187.274Z"/><path d="M32.912,265.89a3.5,3.5,0,0,1-3.486-3.233l-2.483-32.463a25.657,25.657,0,0,1,10.229-21.9,3.5,3.5,0,1,1,4.2,5.6,18.628,18.628,0,0,0-7.443,15.859l2.477,32.372a3.5,3.5,0,0,1-3.223,3.757C33.092,265.887,33,265.89,32.912,265.89Z"/><path d="M72.74,265.364c-.07,0-.14,0-.211-.006a3.5,3.5,0,0,1-3.286-3.7l1.919-32.309a18.507,18.507,0,0,0-6.586-14.757,3.5,3.5,0,0,1,4.528-5.339,25.508,25.508,0,0,1,9.05,20.421l-1.924,32.4A3.5,3.5,0,0,1,72.74,265.364Z"/><path d="M59.258,217H47.764a16.96,16.96,0,0,1-16.94-16.941v-4.091A19.3,19.3,0,0,1,50.1,176.687H56.92A19.3,19.3,0,0,1,76.2,195.965v4.091A16.961,16.961,0,0,1,59.258,217ZM50.1,183.687a12.292,12.292,0,0,0-12.278,12.278v4.091A9.951,9.951,0,0,0,47.764,210H59.258a9.952,9.952,0,0,0,9.941-9.941v-4.091A12.292,12.292,0,0,0,56.92,183.687Z"/><path d="M73.168,321.229c-.085,0-.171,0-.257-.009a3.5,3.5,0,0,1-3.237-3.744l3.577-49.221a2.637,2.637,0,0,0-1.051-2.328,2.78,2.78,0,0,0-2.668-.38,49.223,49.223,0,0,1-17,2.876,46.22,46.22,0,0,1-15.443-2.472,2.6,2.6,0,0,0-2.486.414,2.766,2.766,0,0,0-1.08,2.453c1.508,17.35,2.5,36.593,2.952,46.518a3.5,3.5,0,1,1-6.992.321c-.453-9.872-1.436-29.006-2.934-46.233a9.758,9.758,0,0,1,3.77-8.595,9.587,9.587,0,0,1,9.107-1.476,39.251,39.251,0,0,0,13.106,2.07,42.257,42.257,0,0,0,14.586-2.448,9.78,9.78,0,0,1,9.291,1.362,9.633,9.633,0,0,1,3.819,8.425l-3.576,49.221A3.5,3.5,0,0,1,73.168,321.229Z"/><path d="M74.668,335.173h-43.9a3.5,3.5,0,0,1-3.5-3.5v-4.865a25.452,25.452,0,1,1,50.9,0v4.865A3.5,3.5,0,0,1,74.668,335.173Zm-40.4-7h36.9v-1.365a18.452,18.452,0,1,0-36.9,0Z"/><path d="M274.679,187.009q-.069,0-.138,0a3.5,3.5,0,0,1-3.362-3.633c1.147-29.562-8.234-59.816-8.329-60.119a3.494,3.494,0,0,1,.142-2.473,85.955,85.955,0,0,0,6.483-46.2l-18.44,17.594a3.5,3.5,0,0,1-4.832-5.065l23.081-22.022a3.5,3.5,0,0,1,5.781,1.571c.31,1.085,7.351,26.579-5.153,55.768,1.833,6.218,9.335,33.555,8.262,61.22A3.5,3.5,0,0,1,274.679,187.009Z"/><path d="M196.726,190.859a3.5,3.5,0,0,1-3.459-3c-5.1-35.04,3.636-58.439,6.341-64.609-15.05-33-6.25-52.227-5.862-53.041a3.5,3.5,0,0,1,5.376-1.2l19.825,16.223a3.5,3.5,0,1,1-4.433,5.417L198.763,77.761c-1.441,7.106-2.363,22.323,7.869,44a3.5,3.5,0,0,1-.049,3.087c-.116.231-11.912,24.1-6.389,62.006a3.5,3.5,0,0,1-3.468,4Z"/><path d="M227.691,218.727c-.09,0-.181,0-.272-.011-16.228-1.245-26.216-5.592-31.737-9.02a11.529,11.529,0,0,1-5.081-12.8l2.745-10.43a3.5,3.5,0,0,1,6.355-.961c.045.068,6.873,10.111,28.748,12.106a3.5,3.5,0,1,1-.636,6.97c-15.343-1.4-24.4-6.435-29.266-10.371l-1.176,4.468a4.564,4.564,0,0,0,2,5.069c4.859,3.016,13.761,6.851,28.58,7.988a3.5,3.5,0,0,1-.263,6.99Z"/><path d="M247.693,218.444a3.5,3.5,0,0,1-.416-6.975c14.82-1.793,21.821-7.257,24.674-10.354a4.61,4.61,0,0,0,1.181-3.852l-.682-4.359c-4.487,4.344-12.249,9.381-25.026,11.281a3.5,3.5,0,0,1-1.031-6.924c19.658-2.924,24.836-13.913,25.047-14.379a3.528,3.528,0,0,1,3.666-2.043,3.491,3.491,0,0,1,3,2.911l1.947,12.43a11.569,11.569,0,0,1-2.949,9.678c-4.282,4.648-12.787,10.6-28.982,12.56A3.374,3.374,0,0,1,247.693,218.444Z"/><path d="M257.835,298.516H216.91a3.5,3.5,0,0,1-3.5-3.5V279.668a3.5,3.5,0,0,1,3.5-3.5h8.437l-.757-72.516a9.619,9.619,0,0,1,9.455-9.774h7.42a9.61,9.61,0,0,1,9.455,9.737l-.758,72.553h7.673a3.5,3.5,0,0,1,3.5,3.5v15.348A3.5,3.5,0,0,1,257.835,298.516Zm-37.425-7h33.925v-8.348h-7.709a3.5,3.5,0,0,1-3.5-3.537l.794-76.052a2.6,2.6,0,0,0-2.455-2.7h-7.42a2.61,2.61,0,0,0-2.455,2.737l.794,76.016a3.5,3.5,0,0,1-3.5,3.537H220.41Z"/><path d="M237.216,113.265H226.843a16.008,16.008,0,0,1-15.99-15.99A19.293,19.293,0,0,1,230.124,78h3.81a19.293,19.293,0,0,1,19.271,19.271A16.007,16.007,0,0,1,237.216,113.265ZM230.124,85a12.285,12.285,0,0,0-12.271,12.271,9,9,0,0,0,8.99,8.99h10.373a9,9,0,0,0,8.989-8.99A12.285,12.285,0,0,0,233.934,85Z"/><path d="M233.61,146.1a12.768,12.768,0,0,1-4.575-.849,15.367,15.367,0,0,1-6.681-4.714,8.029,8.029,0,0,1-.93-8.548,8.162,8.162,0,0,1,7.4-4.656H238.4a8.162,8.162,0,0,1,7.4,4.656,8.031,8.031,0,0,1-.931,8.548,15.357,15.357,0,0,1-6.682,4.714A12.754,12.754,0,0,1,233.61,146.1Zm-4.788-11.767a1.194,1.194,0,0,0-1.095.7,1.033,1.033,0,0,0,.11,1.151,8.786,8.786,0,0,0,3.706,2.531,5.758,5.758,0,0,0,4.133,0,8.785,8.785,0,0,0,3.707-2.531,1.035,1.035,0,0,0,.109-1.151,1.194,1.194,0,0,0-1.095-.7Z"/><path d="M233.61,184.285a15.352,15.352,0,0,1-15.335-15.334V157.326a3.5,3.5,0,0,1,4.518-3.348c.039.011,5.6,1.592,8.059-1.547a3.5,3.5,0,0,1,5.515,0c2.456,3.139,8.021,1.558,8.076,1.541a3.512,3.512,0,0,1,4.5,3.354v11.625A15.352,15.352,0,0,1,233.61,184.285Zm-8.335-22.925v7.591a8.335,8.335,0,0,0,16.669,0V161.36a14.3,14.3,0,0,1-8.334-2.071A14.324,14.324,0,0,1,225.275,161.36Z"/><path d="M22.668,212.588a3.5,3.5,0,0,1-2.9-5.453l12.8-19.031a3.5,3.5,0,0,1,5.809,3.906l-12.8,19.031A3.5,3.5,0,0,1,22.668,212.588Z"/><path d="M233.61,169.207a3.5,3.5,0,0,1-3.5-3.5V143.13a3.5,3.5,0,0,1,7,0v22.577A3.5,3.5,0,0,1,233.61,169.207Z"/><path d="M221.774,160.827a3.487,3.487,0,0,1-1.282-.244,10.832,10.832,0,0,1-6.418-7.041,3.5,3.5,0,0,1,6.766-1.792,3.917,3.917,0,0,0,2.218,2.32,3.5,3.5,0,0,1-1.284,6.757Z"/><path d="M245.442,160.827a3.5,3.5,0,0,1-.978-6.861,5.066,5.066,0,0,0,3.131-2.946,3.5,3.5,0,1,1,6.65,2.185,12.06,12.06,0,0,1-7.858,7.492A3.511,3.511,0,0,1,245.442,160.827Z"/><circle cx="81.465" cy="75.595" r="3.876"/><circle cx="99.098" cy="75.595" r="3.876"/><circle cx="222.793" cy="120.298" r="3.876"/><circle cx="244.426" cy="120.298" r="3.876"/><path d="M209.205,335.173a3.5,3.5,0,0,1,0-7,4.209,4.209,0,0,0,4.2-4.2V295.016a3.5,3.5,0,0,1,7,0v28.952A11.217,11.217,0,0,1,209.205,335.173Z"/><path d="M268.867,335.173H265.54a11.218,11.218,0,0,1-11.205-11.2V295.016a3.5,3.5,0,0,1,7,0v28.952a4.209,4.209,0,0,0,4.205,4.2h3.327a3.5,3.5,0,0,1,0,7Z"/></svg>