<svg xmlns="http://www.w3.org/2000/svg" xmlns:xlink="http://www.w3.org/1999/xlink" viewBox="0 0 340 340" width="500px" height="500px"><defs><linearGradient id="AwAZyMs5yPfGyd6Fy3ye5b" x1="216.921" x2="219.128" y1="280.246" y2="345.569" gradientUnits="userSpaceOnUse"><stop offset="0" stop-color="#f7dfac"/><stop offset="1" stop-color="#f7af87"/></linearGradient><linearGradient id="AwAZyMs5yPfGyd6Fy3ye5c" x1="149.338" x2="237.172" y1="324.537" y2="301.144" gradientUnits="userSpaceOnUse"><stop offset="0" stop-color="#eab583"/><stop offset="1" stop-color="#d18068"/></linearGradient><linearGradient id="AwAZyMs5yPfGyd6Fy3ye5f" x1="79.265" x2="230.998" y1="54.968" y2="101.475" gradientUnits="userSpaceOnUse"><stop offset="0" stop-color="#d5c699"/><stop offset="1" stop-color="#a39668"/></linearGradient><linearGradient id="AwAZyMs5yPfGyd6Fy3ye5a" x1="-238.888" x2="3152.443" y1="-119.031" y2="1613.948" gradientUnits="userSpaceOnUse"><stop offset="0" stop-color="#a59868"/><stop offset="1" stop-color="#736837"/></linearGradient><linearGradient id="AwAZyMs5yPfGyd6Fy3ye5g" x1="88.672" x2="371.935" y1="20.772" y2="165.52" gradientTransform="rotate(-18.401 138.952 46.465)" xlink:href="#AwAZyMs5yPfGyd6Fy3ye5a"/><linearGradient id="AwAZyMs5yPfGyd6Fy3ye5h" x1="239.047" x2="238.566" y1="110.585" y2="236.688" xlink:href="#AwAZyMs5yPfGyd6Fy3ye5b"/><linearGradient id="AwAZyMs5yPfGyd6Fy3ye5i" x1="245.61" x2="246.493" y1="209.48" y2="278.776" xlink:href="#AwAZyMs5yPfGyd6Fy3ye5c"/><linearGradient id="AwAZyMs5yPfGyd6Fy3ye5e" x1="223.4" x2="223.4" y1="81.907" y2="127.269" gradientUnits="userSpaceOnUse"><stop offset="0" stop-color="#f2a399"/><stop offset="1" stop-color="#e58c83"/></linearGradient><linearGradient id="AwAZyMs5yPfGyd6Fy3ye5j" x1="220.458" x2="234.867" y1="139.899" y2="186.583" xlink:href="#AwAZyMs5yPfGyd6Fy3ye5c"/><linearGradient id="AwAZyMs5yPfGyd6Fy3ye5k" x1="208.425" x2="230.451" y1="27.784" y2="67.775" xlink:href="#AwAZyMs5yPfGyd6Fy3ye5b"/><linearGradient id="AwAZyMs5yPfGyd6Fy3ye5l" x1="208.384" x2="239.92" y1="21.729" y2="83.959" gradientUnits="userSpaceOnUse"><stop offset="0" stop-color="#f4bf8d"/><stop offset="1" stop-color="#db8a72"/></linearGradient><linearGradient id="AwAZyMs5yPfGyd6Fy3ye5m" x1="238.119" x2="237.667" y1="111.195" y2="229.374" xlink:href="#AwAZyMs5yPfGyd6Fy3ye5b"/><linearGradient id="AwAZyMs5yPfGyd6Fy3ye5d" x1="226.287" x2="227.987" y1="227.885" y2="264.705" gradientUnits="userSpaceOnUse"><stop offset="0" stop-color="#ef9588"/><stop offset="1" stop-color="#cb745e"/></linearGradient><linearGradient id="AwAZyMs5yPfGyd6Fy3ye5n" x1="223.931" x2="231.604" y1="196.115" y2="267.092" xlink:href="#AwAZyMs5yPfGyd6Fy3ye5d"/><linearGradient id="AwAZyMs5yPfGyd6Fy3ye5o" x1="196.661" x2="199.494" y1="229.337" y2="265.308" xlink:href="#AwAZyMs5yPfGyd6Fy3ye5d"/><linearGradient id="AwAZyMs5yPfGyd6Fy3ye5p" x1="195.81" x2="202.582" y1="203.265" y2="265.906" xlink:href="#AwAZyMs5yPfGyd6Fy3ye5d"/><linearGradient id="AwAZyMs5yPfGyd6Fy3ye5q" x1="170.885" x2="170.885" y1="143.794" y2="200.394" xlink:href="#AwAZyMs5yPfGyd6Fy3ye5e"/><linearGradient id="AwAZyMs5yPfGyd6Fy3ye5r" x1="252.315" x2="253.731" y1="235.512" y2="268.651" xlink:href="#AwAZyMs5yPfGyd6Fy3ye5d"/><linearGradient id="AwAZyMs5yPfGyd6Fy3ye5s" x1="248.338" x2="256.105" y1="192.785" y2="264.631" xlink:href="#AwAZyMs5yPfGyd6Fy3ye5d"/><linearGradient id="AwAZyMs5yPfGyd6Fy3ye5t" x1="201.767" x2="216.176" y1="145.668" y2="192.352" xlink:href="#AwAZyMs5yPfGyd6Fy3ye5c"/><linearGradient id="AwAZyMs5yPfGyd6Fy3ye5u" x1="191.434" x2="203.476" y1="158.357" y2="201.507" xlink:href="#AwAZyMs5yPfGyd6Fy3ye5b"/></defs><path fill="#34363a" d="M280.982,287.465s8.219,10.191,7.253,43.521H256.449S263.269,310.963,280.982,287.465Z"/><path fill="url(#AwAZyMs5yPfGyd6Fy3ye5b)" d="M197.924,297.382a154.59,154.59,0,0,0-30.577,33.6h89.1a116.094,116.094,0,0,0,12.919-16.437l-26.774-20.1C226.974,291.4,211.869,291.191,197.924,297.382Z"/><path fill="url(#AwAZyMs5yPfGyd6Fy3ye5c)" d="M280.982,287.465l-66.675-2.211a194.377,194.377,0,0,0-16.38,12.132c.192-.035,26.339-4.694,47.463,9.227,9.182,6.05,17.5,7.843,23.978,7.936C274.336,306.927,279.238,297.371,280.982,287.465Z"/><path fill="url(#AwAZyMs5yPfGyd6Fy3ye5f)" d="M40.543,46.09l6.82-20.5,61.626,20.5a19.43,19.43,0,0,0,16.1,5.357l62.583,20.819,2.482.043,35.075,11.9-18.595,29.4Z"/><path fill="url(#AwAZyMs5yPfGyd6Fy3ye5a)" d="M251.639,93.164l-2.433,20.765L124.414,72.913a6.169,6.169,0,0,1-3.92-7.83l4.6-13.636-14.512-4.828-8.5,7.444-2.465,10.7L42.8,46.09,39.909,48l-6.8,20.446,173.056,57.571,26.662-4.531,15.6,18.591,47.285,15.73,14.257-42.855Z"/><path fill="#726248" d="M27.18,72.893,12.71,69.514l18.963-57,13.61,5.962a8.676,8.676,0,0,1,4.751,10.685L37.385,67.183A8.675,8.675,0,0,1,27.18,72.893Z"/><path fill="#34363a" d="M294.717,161.9l13.61,5.962,18.963-57-14.47-3.379a8.675,8.675,0,0,0-10.2,5.709l-12.649,38.023A8.676,8.676,0,0,0,294.717,161.9Z"/><path fill="url(#AwAZyMs5yPfGyd6Fy3ye5g)" d="M124.468,37.364h36.987a0,0,0,0,1,0,0v18.2a0,0,0,0,1,0,0h-45a0,0,0,0,1,0,0V45.382A8.018,8.018,0,0,1,124.468,37.364Z" transform="rotate(18.401 138.953 46.465)"/><path fill="#34363a" d="M161.449,30.479h7.373a0,0,0,0,1,0,0V62.638a0,0,0,0,1,0,0H153.849a0,0,0,0,1,0,0V38.08a7.6,7.6,0,0,1,7.6-7.6Z" transform="rotate(18.401 161.334 46.559)"/><path fill="url(#AwAZyMs5yPfGyd6Fy3ye5h)" d="M270.707,131.96s11.484,37.347,11.484,80.8v28.479L279.6,293.767l-13.825,1.413a136.652,136.652,0,0,1-16.476-2.813c-22.293-5.164-38.582-3.962-46.92-2.6a6.553,6.553,0,0,1-6.449-10.186c.049-.069.1-.139.15-.208a17.576,17.576,0,0,0,1.941-5.173l15.744-20.184c1.742-18.932-9.222-50.035-12.144-65.212Z"/><path fill="url(#AwAZyMs5yPfGyd6Fy3ye5i)" d="M295.273,284.224l-13.082-26.785v-4.507H201.585a209.849,209.849,0,0,1-4.542,24.474l64.553.341c6.609.166,15.256,9.718,4.184,17.429a91.333,91.333,0,0,0,24.015-.333A7.44,7.44,0,0,0,295.273,284.224Z"/><path fill="#c66765" d="M144.351,126.071l-11.036,60.163a14.907,14.907,0,0,0,5.6,14.521c7.616,5.841,22.375,14.362,48.756,20.73l13.951-23.141Z"/><path fill="url(#AwAZyMs5yPfGyd6Fy3ye5e)" d="M257.782,85.925C229.775,81.694,192.9,74.3,189.1,78.708v27.567s-2.022,14.944,13.648,20.456q2.737.963,5.329,1.625S240.824,126.071,257.782,85.925Z"/><path fill="#c66765" d="M246.157,81.264c-14.4-5.415-39.2-13.544-57.055-12.975V78.708c4.422.533,18.072,2.927,24.992,12.622A14.366,14.366,0,0,0,225.825,97.2h20.332Z"/><path fill="#34363a" d="M257.782,85.925l-.429-.186H238.5s1.731,34.556-30.42,42.617C243.244,137.373,257.782,115.435,257.782,85.925Z"/><path fill="url(#AwAZyMs5yPfGyd6Fy3ye5j)" d="M263.17,162.822s-11.256,18.5-24.583,27.854a8.492,8.492,0,0,0-3.679,6.934v11.338H206.133v-22.53Z"/><path fill="url(#AwAZyMs5yPfGyd6Fy3ye5k)" d="M187.674,55.307s2.78-34.4,36.834-34.4c0,0,13.187-1.18,24.281,6.617,0,0,8.786,22.489-15.083,34.967S191.5,70.6,191.5,70.6l-1.377-5.508Z"/><path fill="url(#AwAZyMs5yPfGyd6Fy3ye5l)" d="M263.427,64.689V55.307c-1.541-14.469-7.679-22.891-14.64-27.782-3.8,30.2-43.322,34.478-59.317,34.964L191.5,70.6a52.009,52.009,0,0,1,29.36,15.114,11.439,11.439,0,0,0,8.259,3.477h30.329a10.236,10.236,0,0,0,10.237-10.236h0a10.277,10.277,0,0,0-2.225-6.366C263.805,67.965,263.427,64.689,263.427,64.689Z"/><path fill="#34363a" d="M197.73,54.063h65.338a6.614,6.614,0,0,1,6.614,6.614v0a6.614,6.614,0,0,1-6.614,6.614H197.73a0,0,0,0,1,0,0V54.063A0,0,0,0,1,197.73,54.063Z"/><path fill="#34363a" d="M201.817,72.584l-13.07.039a6.154,6.154,0,0,1-5.94-6.181V54.911a5.936,5.936,0,0,1,5.936-5.935H201.8a10.853,10.853,0,0,1,10.853,10.853v1.7A11.017,11.017,0,0,1,201.817,72.584Z"/><path fill="url(#AwAZyMs5yPfGyd6Fy3ye5m)" d="M202.484,154.351l30.508-27.094a26.378,26.378,0,0,1,24.966-5.809,20.063,20.063,0,0,1,12.749,10.512c8.15,16.482-4.347,28.074-4.347,28.074s-18.342,16.993-41.526,27.588C213.55,178.212,205.919,167.2,202.484,154.351Z"/><path fill="#34363a" d="M236.083,208.948H281.05a6.059,6.059,0,0,1,6.059,6.059v16.835a0,0,0,0,1,0,0H236.083a0,0,0,0,1,0,0V208.948A0,0,0,0,1,236.083,208.948Z"/><path fill="url(#AwAZyMs5yPfGyd6Fy3ye5d)" d="M215.834,220.4h24.99V259.45a8.409,8.409,0,0,1-8.409,8.409H221.28a8.409,8.409,0,0,1-8.409-8.409v-23.1Z"/><polygon fill="#985854" points="212.871 242.933 240.824 250.524 240.824 220.395 212.871 220.395 212.871 242.933"/><path fill="url(#AwAZyMs5yPfGyd6Fy3ye5n)" d="M232.111,202.815H221.69a25.363,25.363,0,0,0-8.819,8.427V220.4a13.976,13.976,0,0,0,13.977,13.976h0c7.719,0,12.727-6.257,12.727-13.976C240.515,210.315,237.744,204.8,232.111,202.815Z"/><path fill="#985854" d="M212.871,211.242a31.8,31.8,0,0,0,8.819-8.427h-8.819Z"/><path fill="url(#AwAZyMs5yPfGyd6Fy3ye5o)" d="M187.476,220.4H210.1l1.57,39.055c-2.377,5-6.572,7.226-11.452,8.409h-6.889a8.409,8.409,0,0,1-8.409-8.409V235.341Z"/><polygon fill="#985854" points="184.918 241.127 212.871 248.719 212.871 220.395 184.918 220.395 184.918 241.127"/><path fill="url(#AwAZyMs5yPfGyd6Fy3ye5p)" d="M208.884,205.557l-23.966,4.072V220.4a13.976,13.976,0,0,0,13.976,13.976h0a13.917,13.917,0,0,0,6.755-1.737Z"/><path fill="#985854" d="M213.673,202.815H191.731a6.81,6.81,0,0,0-6.805,6.64,44.581,44.581,0,0,0,13.8,3.75,7.842,7.842,0,0,1,6.927,7.775v36.365s.405,6.925-5.432,10.514h4.246a8.409,8.409,0,0,0,8.409-8.409V211.242Z"/><path fill="url(#AwAZyMs5yPfGyd6Fy3ye5q)" d="M177.607,143.593l10.067,19.723,3.841,37.179s-31.432,7.435-35.657-16.224c-2.027-11.349-4.049-21.492-5.6-28.975C154.64,146.387,169.7,142.192,177.607,143.593Z"/><path fill="url(#AwAZyMs5yPfGyd6Fy3ye5r)" d="M264.809,236.014H245.951l-5.127,13.231v9.017a9.6,9.6,0,0,0,9.6,9.6h6.143c3.433-.779,5.926-2.032,7.3-3.847Z"/><path fill="#985854" d="M295.138,236.014H267.981v22.248a9.6,9.6,0,0,0,9.6,9.6h7.964a9.6,9.6,0,0,0,9.6-9.6Z"/><path fill="#c66765" d="M147.429,142.192s1.139,4.992,2.825,13.1l27.353-11.7-4.9-9.607Z"/><path fill="#34363a" d="M147.429,142.192l23.806-6.256a5.5,5.5,0,0,0,2.7-8.652l-10.39-13.194a8.844,8.844,0,0,1-.991-6.476l1.757-7.6a6.764,6.764,0,0,0-2.545-6.948h0a6.766,6.766,0,0,0-9.3,1.157l-6.046,7.443A152.042,152.042,0,0,0,121.1,99.532a7.606,7.606,0,0,0-7.444,6.736l-.017.146a7.639,7.639,0,0,0,6.329,8.387C129.935,116.533,143.6,122.39,147.429,142.192Z"/><path fill="#f7f7f7" d="M187.156,56.245v5.042a1.2,1.2,0,0,0,1.988.9l7.875-6.871a1.2,1.2,0,0,0-.788-2.1h-6.046A3.029,3.029,0,0,0,187.156,56.245Z"/><path fill="#726248" d="M85.475,35.052H108.3a0,0,0,0,1,0,0V90.46a4.664,4.664,0,0,1-4.664,4.664H85.475a4.664,4.664,0,0,1-4.664-4.664V39.716A4.664,4.664,0,0,1,85.475,35.052Z" transform="rotate(18.401 94.556 65.09)"/><path fill="#985854" d="M276.01,220.395h11.1a8.029,8.029,0,0,1,8.029,8.029v7.59A11.538,11.538,0,0,1,283.6,247.552h-4.081a11.538,11.538,0,0,1-11.538-11.538v-7.59A8.029,8.029,0,0,1,276.01,220.395Z"/><path fill="#985854" d="M259.952,220.4h-1.345a5.26,5.26,0,0,1,3.591,5.44v10.179H240.824v16.918l15.167,4.12a5.216,5.216,0,0,1,3.279,7.494,13.257,13.257,0,0,1-2.706,3.313h1.821a9.6,9.6,0,0,0,9.6-9.6V228.424A8.029,8.029,0,0,0,259.952,220.4Z"/><path fill="#985854" d="M240.824,209.629a6.814,6.814,0,0,0-6.814-6.814h-1.9c1.159,1.125,2.313,3.286,2.313,7.442v47.088s.405,6.925-5.432,10.514h3.423a8.409,8.409,0,0,0,8.409-8.409Z"/><path fill="url(#AwAZyMs5yPfGyd6Fy3ye5s)" d="M258.607,220.4h-9.754a8.029,8.029,0,0,0-8.029,8.029v7.59a11.538,11.538,0,0,0,11.538,11.538s12.447,0,12.447-14.272C264.809,222.033,258.607,220.4,258.607,220.4Z"/><path fill="url(#AwAZyMs5yPfGyd6Fy3ye5t)" d="M213.472,192.093a108.675,108.675,0,0,0,11.359-4.478c-5.482-16.642-18.843-29.973-22.347-33.264l-6.4,5.683Z"/><path fill="url(#AwAZyMs5yPfGyd6Fy3ye5u)" d="M190.224,156.787a20.213,20.213,0,0,1,5.306-.733,5.129,5.129,0,0,1,4.356,2.447c3.66,5.9,13.27,22.465,16.753,39.108a5.726,5.726,0,0,1-3.225,6.315c-3.921,1.85-10.711,3.76-20.054,1.652a5.764,5.764,0,0,1-4.507-5.254L186.5,162.088A5.156,5.156,0,0,1,190.224,156.787Z"/><circle cx="226.577" cy="225.256" r="3.148" fill="#985854"/><circle cx="198.025" cy="225.256" r="3.148" fill="#985854"/><circle cx="254.06" cy="238.485" r="3.148" fill="#985854"/><path fill="#34363a" d="M126.126,102.89a3.5,3.5,0,0,1-1.105-.18l-24.879-8.277a3.5,3.5,0,1,1,2.21-6.641l24.879,8.277a3.5,3.5,0,0,1-1.1,6.821Z"/><path fill="#34363a" d="M196.92,126.442a3.525,3.525,0,0,1-1.1-.18l-33.586-11.173a3.5,3.5,0,0,1,2.209-6.643l33.587,11.173a3.5,3.5,0,0,1-1.105,6.823Z"/><path fill="#34363a" d="M288.689,156.97a3.529,3.529,0,0,1-1.106-.179l-12.943-4.307a3.5,3.5,0,1,1,2.21-6.642l12.943,4.307a3.5,3.5,0,0,1-1.1,6.821Z"/><path fill="#34363a" d="M303.3,114.233a3.5,3.5,0,0,1-1.106-.18L256.677,98.911a3.5,3.5,0,0,1,2.21-6.643L304.4,107.411a3.5,3.5,0,0,1-1.1,6.822Z"/><path fill="#34363a" d="M185.092,74.908a3.5,3.5,0,0,1-1.106-.18l-69.67-23.177a3.5,3.5,0,0,1,2.21-6.642L186.2,68.086a3.5,3.5,0,0,1-1.1,6.822Z"/><path fill="#34363a" d="M87.681,42.5a3.492,3.492,0,0,1-1.105-.18L50.02,30.161a3.5,3.5,0,1,1,2.209-6.642L88.786,35.68A3.5,3.5,0,0,1,87.681,42.5Z"/><path fill="#34363a" d="M73.579,85.409a3.492,3.492,0,0,1-1.1-.18L36.025,73.1a3.5,3.5,0,0,1,2.21-6.641L74.684,78.587a3.5,3.5,0,0,1-1.105,6.822Z"/><path fill="#34363a" d="M29.2,76.628a12.321,12.321,0,0,1-2.813-.327h0L11.915,72.922A3.5,3.5,0,0,1,9.39,68.409l18.962-57a3.5,3.5,0,0,1,4.725-2.1l13.61,5.962a12.118,12.118,0,0,1,6.668,15L40.706,68.288A12.112,12.112,0,0,1,29.2,76.628Zm-1.221-7.143a5.154,5.154,0,0,0,6.088-3.407L46.712,28.056a5.15,5.15,0,0,0-2.834-6.374L33.783,17.259,17.243,66.978Z"/><path fill="#34363a" d="M308.327,171.358a3.5,3.5,0,0,1-1.4-.294l-13.61-5.962a12.118,12.118,0,0,1-6.667-15l12.648-38.023a12.123,12.123,0,0,1,14.322-8.012l14.469,3.378a3.5,3.5,0,0,1,2.525,4.514l-18.962,57a3.5,3.5,0,0,1-3.321,2.4Zm2.5-60.61a5.15,5.15,0,0,0-4.892,3.545l-12.648,38.023a5.151,5.151,0,0,0,2.834,6.374h0l10.095,4.422,16.54-49.719-10.733-2.506A5.281,5.281,0,0,0,310.828,110.748Z"/><path fill="#34363a" d="M95.173,100.2a8.2,8.2,0,0,1-2.585-.421h0L75.354,94.042a8.164,8.164,0,0,1-5.17-10.323L86.2,35.569A8.174,8.174,0,0,1,96.525,30.4l21.661,7.2a3.5,3.5,0,0,1,2.216,4.426l-17.49,52.576a8.18,8.18,0,0,1-7.739,5.59ZM94.8,93.133a1.165,1.165,0,0,0,1.471-.736l16.386-49.254-18.339-6.1a1.163,1.163,0,0,0-1.471.737L76.827,85.929a1.162,1.162,0,0,0,.736,1.471Z"/><path fill="#34363a" d="M154.173,45.438a3.5,3.5,0,0,1-1.106-.18l-26.09-8.68a4.519,4.519,0,0,0-5.712,2.861l-.864,2.593a3.5,3.5,0,0,1-6.641-2.211l.863-2.592a11.53,11.53,0,0,1,14.564-7.293l26.09,8.68a3.5,3.5,0,0,1-1.1,6.822Z"/><path fill="#34363a" d="M163.705,66.657a3.5,3.5,0,0,1-3.322-4.606l8.707-26.17-3.676-1.223a4.1,4.1,0,0,0-5.185,2.6l-7.463,22.431a3.5,3.5,0,1,1-6.641-2.21l7.461-22.431a11.119,11.119,0,0,1,14.038-7.029l7,2.328a3.5,3.5,0,0,1,2.216,4.426l-9.811,29.491A3.5,3.5,0,0,1,163.705,66.657Z"/><path fill="#34363a" d="M282.145,211.535a3.5,3.5,0,0,1-3.5-3.434,307.681,307.681,0,0,0-8.208-63.364,3.5,3.5,0,0,1,6.813-1.6,314.729,314.729,0,0,1,8.394,64.837,3.5,3.5,0,0,1-3.434,3.566Z"/><path fill="#34363a" d="M277.074,299.292a126.774,126.774,0,0,1-28.561-3.515c-22.019-5.1-38-3.791-45.566-2.558a10.053,10.053,0,0,1-9.877-15.651l.183-.256c.05-.072,1.08-1.614,2.558-9.289a3.5,3.5,0,1,1,6.874,1.324c-1.627,8.443-2.936,10.947-3.78,12.1l-.109.151a2.94,2.94,0,0,0-.065,3.3,3.018,3.018,0,0,0,3.089,1.413c8.075-1.318,25.082-2.725,48.273,2.646,18.382,4.258,31.434,3.673,39.145,2.43a3.871,3.871,0,0,0,2.847-2.061,3.929,3.929,0,0,0,.042-3.566l-7.686-15.737a3.5,3.5,0,1,1,6.29-3.073l7.686,15.738a10.939,10.939,0,0,1-8.066,15.611A83.817,83.817,0,0,1,277.074,299.292Z"/><path fill="#34363a" d="M184.405,224.17a3.522,3.522,0,0,1-.875-.111c-24.855-6.4-39.137-14.695-46.742-20.527a18.334,18.334,0,0,1-6.915-17.93l10.063-54.858a3.5,3.5,0,1,1,6.884,1.263l-10.063,54.858a11.365,11.365,0,0,0,4.29,11.112c7.089,5.437,20.516,13.2,44.228,19.3a3.5,3.5,0,0,1-.87,6.891Z"/><path fill="#34363a" d="M220.325,134.869A38.232,38.232,0,0,1,201,129.76c-15.393-8.906-15.449-21.963-15.395-23.554V73.3a3.5,3.5,0,0,1,7,0v32.976c0,.07,0,.14-.007.21-.015.38-.269,10.171,11.907,17.217,6.954,4.023,14.848,5.152,23.46,3.357a3.5,3.5,0,1,1,1.429,6.853A44.445,44.445,0,0,1,220.325,134.869Z"/><path fill="#34363a" d="M244.219,123.751A3.5,3.5,0,0,1,242,117.542c4.1-3.359,11.142-11.41,12.158-27.584a3.5,3.5,0,0,1,6.987.439c-1.184,18.824-9.725,28.481-14.711,32.562A3.487,3.487,0,0,1,244.219,123.751Z"/><path fill="#34363a" d="M259.445,92.687H229.116a15,15,0,0,1-10.783-4.553,48.486,48.486,0,0,0-19.361-12.127,3.5,3.5,0,1,1,2.214-6.641,54.824,54.824,0,0,1,22.195,13.919,7.968,7.968,0,0,0,5.735,2.4h30.329a6.732,6.732,0,0,0,5.266-10.932,28.2,28.2,0,0,1-3.176-4.952,3.5,3.5,0,1,1,6.275-3.1,21.16,21.16,0,0,0,2.393,3.713,13.732,13.732,0,0,1-10.758,22.273Z"/><path fill="#34363a" d="M263.181,56.847a3.5,3.5,0,0,1-3.462-3.013c-4.468-31.8-33.657-29.552-34.9-29.443-.1.01-.208.014-.312.014-20.657,0-28.83,13.477-32.05,24.782a3.5,3.5,0,1,1-6.732-1.917c2.553-8.967,11.429-29.808,38.671-29.865,2.952-.171,37.078-1.379,42.254,35.455a3.5,3.5,0,0,1-2.979,3.953A3.555,3.555,0,0,1,263.181,56.847Z"/><path fill="#34363a" d="M263.068,70.79H211.7a3.5,3.5,0,1,1,0-7h51.371a3.114,3.114,0,1,0,0-6.227H212.027a3.5,3.5,0,0,1,0-7h51.041a10.114,10.114,0,1,1,0,20.227Z"/><path fill="#34363a" d="M201.8,75.878H188.743a9.447,9.447,0,0,1-9.436-9.436V54.911a9.447,9.447,0,0,1,9.436-9.436H201.8a14.37,14.37,0,0,1,14.353,14.354v1.7A14.37,14.37,0,0,1,201.8,75.878Zm-13.057-23.4a2.439,2.439,0,0,0-2.436,2.436V66.442a2.439,2.439,0,0,0,2.436,2.436H201.8a7.361,7.361,0,0,0,7.353-7.353v-1.7a7.361,7.361,0,0,0-7.353-7.354Z"/><path fill="#34363a" d="M216.125,194.684a3.5,3.5,0,0,1-1.182-6.795c26.107-9.374,48.813-30.214,49.039-30.423a20.494,20.494,0,0,0,3.587-23.955,16.629,16.629,0,0,0-10.617-8.711,22.977,22.977,0,0,0-21.635,5.074l-33.439,29.7a3.5,3.5,0,1,1-4.648-5.234l33.438-29.7a30.024,30.024,0,0,1,28.3-6.544,23.375,23.375,0,0,1,14.881,12.314,27.5,27.5,0,0,1-5.1,32.191c-.967.9-23.949,22.01-51.432,31.877A3.5,3.5,0,0,1,216.125,194.684Z"/><path fill="#34363a" d="M288.314,223.9a3.5,3.5,0,0,1-3.5-3.5v-5.172a2.778,2.778,0,0,0-2.774-2.775H241.7a3.5,3.5,0,0,1,0-7H282.04a9.786,9.786,0,0,1,9.774,9.775V220.4A3.5,3.5,0,0,1,288.314,223.9Z"/><path fill="#34363a" d="M232.415,271.359H221.28a11.922,11.922,0,0,1-11.909-11.909,3.5,3.5,0,0,1,7,0,4.914,4.914,0,0,0,4.909,4.909h11.135a4.914,4.914,0,0,0,4.909-4.909V220.4a3.5,3.5,0,0,1,7,0V259.45A11.922,11.922,0,0,1,232.415,271.359Z"/><path fill="#34363a" d="M226.848,237.871A17.5,17.5,0,0,1,209.371,220.4V209.629a10.326,10.326,0,0,1,10.314-10.314H234.01a10.326,10.326,0,0,1,10.314,10.314V220.4A17.5,17.5,0,0,1,226.848,237.871Zm-7.163-31.556a3.318,3.318,0,0,0-3.314,3.314V220.4a10.477,10.477,0,0,0,20.953,0V209.629a3.318,3.318,0,0,0-3.314-3.314Z"/><path fill="#34363a" d="M204.462,271.359H193.327a11.923,11.923,0,0,1-11.91-11.909V220.4a3.5,3.5,0,0,1,7,0V259.45a4.915,4.915,0,0,0,4.91,4.909h11.135a4.914,4.914,0,0,0,4.909-4.909V220.4a3.5,3.5,0,0,1,7,0V259.45A11.922,11.922,0,0,1,204.462,271.359Z"/><path fill="#34363a" d="M198.894,237.871A17.5,17.5,0,0,1,181.417,220.4V209.629a10.338,10.338,0,0,1,6.056-9.395,3.5,3.5,0,0,1,2.892,6.374,3.326,3.326,0,0,0-1.948,3.021V220.4a10.477,10.477,0,0,0,20.954,0V209.629a3.282,3.282,0,0,0-.7-2.04,3.5,3.5,0,1,1,5.512-4.315,10.357,10.357,0,0,1,2.19,6.355V220.4A17.5,17.5,0,0,1,198.894,237.871Z"/><path fill="#34363a" d="M180.731,205.121c-15.614,0-26-7.27-28.318-20.235-4.161-23.3-8.355-41.732-8.4-41.915a3.5,3.5,0,0,1,2.331-4.108l25.274-8.206a3.5,3.5,0,0,1,4.2,1.738l13.79,27.014a3.5,3.5,0,1,1-6.235,3.183l-12.432-24.355-19.407,6.3c1.375,6.262,4.582,21.279,7.767,39.118,2.681,15.009,18.643,15.229,27.921,14.024a3.5,3.5,0,0,1,.9,6.942A57.419,57.419,0,0,1,180.731,205.121Z"/><path fill="#34363a" d="M201.355,210a39.726,39.726,0,0,1-8.765-1.013,9.315,9.315,0,0,1-7.231-8.452l-2.35-38.235a8.687,8.687,0,0,1,6.277-8.888h0a23.678,23.678,0,0,1,6.227-.861,8.742,8.742,0,0,1,7.346,4.1c3.985,6.419,13.638,23.189,17.2,40.238a9.194,9.194,0,0,1-5.156,10.2A31.592,31.592,0,0,1,201.355,210Zm-5.8-50.449h-.007a16.7,16.7,0,0,0-4.387.6h0A1.655,1.655,0,0,0,190,161.873l2.35,38.235a2.281,2.281,0,0,0,1.785,2.054c8.286,1.869,14.247.269,17.789-1.4a2.219,2.219,0,0,0,1.293-2.433c-3.339-15.957-12.512-31.875-16.3-37.978A1.631,1.631,0,0,0,195.555,159.554Zm-5.331-2.767h0Z"/><path fill="#34363a" d="M147.429,145.692a3.5,3.5,0,0,1-3.436-2.834c-2.7-13.959-10.988-22.239-24.624-24.609a11.154,11.154,0,0,1-9.206-12.239l.016-.136a11.126,11.126,0,0,1,10.878-9.841,151.613,151.613,0,0,1,23.927,1.852l4.764-5.864a10.266,10.266,0,0,1,17.97,8.786l-1.757,7.6a5.329,5.329,0,0,0,.5,3.733l10.225,12.983a8.995,8.995,0,0,1-4.415,14.161c-.047.015-.095.028-.142.041l-23.807,6.256A3.493,3.493,0,0,1,147.429,145.692Zm-25.077-42.667q-.6,0-1.208.007a4.109,4.109,0,0,0-4.011,3.64l-.016.136a4.153,4.153,0,0,0,3.45,4.544c10.862,1.888,24.452,8.073,29.457,26.539l20.234-5.317a2,2,0,0,0,.925-3.125l-10.391-13.193a3.422,3.422,0,0,1-.269-.394,12.3,12.3,0,0,1-1.382-9.038l1.757-7.595a3.265,3.265,0,0,0-5.716-2.8l-6.046,7.443a3.5,3.5,0,0,1-3.341,1.237A151.616,151.616,0,0,0,122.352,103.025Z"/><path fill="#34363a" d="M258.384,271.359h-7.963a13.111,13.111,0,0,1-13.1-13.1,3.5,3.5,0,0,1,7,0,6.1,6.1,0,0,0,6.1,6.1h7.963a6.1,6.1,0,0,0,6.1-6.1V236.014a3.5,3.5,0,0,1,7,0v22.248A13.111,13.111,0,0,1,258.384,271.359Z"/><path fill="#34363a" d="M256.443,251.052h-4.081a15.055,15.055,0,0,1-15.038-15.038v-7.59a11.542,11.542,0,0,1,11.53-11.529h11.1a11.542,11.542,0,0,1,11.529,11.529v7.59A15.055,15.055,0,0,1,256.443,251.052ZM248.854,223.9a4.534,4.534,0,0,0-4.53,4.529v7.59a8.047,8.047,0,0,0,8.038,8.038h4.081a8.047,8.047,0,0,0,8.038-8.038v-7.59a4.533,4.533,0,0,0-4.529-4.529Z"/><path fill="#34363a" d="M285.542,271.359h-7.964a13.111,13.111,0,0,1-13.1-13.1,3.5,3.5,0,1,1,7,0,6.1,6.1,0,0,0,6.1,6.1h7.964a6.1,6.1,0,0,0,6.1-6.1V236.014a3.5,3.5,0,0,1,7,0v22.248A13.111,13.111,0,0,1,285.542,271.359Z"/><path fill="#34363a" d="M283.6,251.052h-4.082a15.055,15.055,0,0,1-15.038-15.038v-7.59A11.542,11.542,0,0,1,276.01,216.9h11.1a11.542,11.542,0,0,1,11.529,11.529v7.59A15.054,15.054,0,0,1,283.6,251.052ZM276.01,223.9a4.534,4.534,0,0,0-4.529,4.529v7.59a8.047,8.047,0,0,0,8.038,8.038H283.6a8.046,8.046,0,0,0,8.037-8.038v-7.59a4.534,4.534,0,0,0-4.529-4.529Z"/><circle cx="204.611" cy="93.844" r="3.658" fill="#34363a"/><path fill="#34363a" d="M206.142,286.638c-15.949,11.446-33.741,29.2-44.633,44.348h8.744a209.707,209.707,0,0,1,39.97-38.661,3.5,3.5,0,1,0-4.081-5.687Z"/><path fill="#34363a" d="M279.721,293.225a3.5,3.5,0,0,0-4.473,2.12c-4.9,13.719-16.759,29.034-22.211,35.641h8.993c6.3-8.071,15.439-21.037,19.811-33.288A3.5,3.5,0,0,0,279.721,293.225Z"/><path fill="#34363a" d="M288.04,294.769a3.5,3.5,0,1,0-6.692,2.054c1.681,5.473,3.891,19.352,4.074,34.163h7C292.244,315.328,289.9,300.825,288.04,294.769Z"/></svg>