<svg xmlns="http://www.w3.org/2000/svg"  viewBox="0 0 340 340" width="500px" height="500px"><path fill="#ffb664" d="M65.241,205.34l11.281-5.715s0-17.485-23.116-29.236c0,0-13.87-6.657-9.431-19.6,4.567-13.323,17.753-12.761,17.753-12.761a14.606,14.606,0,0,1,13.324,8.322s3.455-11.21-7.23-17.548a24.115,24.115,0,0,0-14.737-3.313c-6.581.672-15.77,3.277-22.066,13.083a27.7,27.7,0,0,0-3.973,18.346c.909,7.392,4.3,17.7,15.506,23.557a36.673,36.673,0,0,1,5.63,3.538C53.391,188.081,63.173,196.689,65.241,205.34Z"/><path fill="#e87b40" d="M76.522,199.625s-.011-7.857-6.973-16.576c-11.369,3.89-27-2.576-27-2.576a36.673,36.673,0,0,1,5.63,3.538c5.209,4.07,14.991,12.678,17.059,21.329Z"/><path fill="#ffb664" d="M227.323,65.556s8.193,11.731,8.193,33.332c0,0-.456,21.806,4.963,42.626,4.7,18.057,2,30.184,2,30.184H186.728V67.418Z"/><path fill="#e87b40" d="M202.987,119.525l-5.676,26.558h12.737s4.461-10.922,1.15-26.6A4.2,4.2,0,0,0,202.987,119.525Z"/><path fill="#e87b40" d="M61,224.332s-13.045-21.041,4.42-31.539C83.258,182.069,94.9,203.04,94.9,203.04Z"/><path fill="#5b5b81" d="M138.29,171.7s-13.947,47.717-21.979,68.121l-11.794-17.568L73.456,240.723s22.713,40.744,36.036,50.354,26.863-2.184,26.863-2.184S152.456,211.313,138.29,171.7Z"/><path fill="#333353" d="M75.406,245.193l31.527-19.351a7.783,7.783,0,0,0,3.03-9.8,73.5,73.5,0,0,0-6.755-12.192,7.782,7.782,0,0,0-10.275-2.261C85.007,206.2,70.418,214.9,60.29,222.178a7.74,7.74,0,0,0-2.584,9.374A44.745,44.745,0,0,0,65.581,243.8,7.8,7.8,0,0,0,75.406,245.193Z"/><path fill="#333353" d="M120.241,229.093c-1.4,4.017-2.73,7.678-3.93,10.726l4.97,6.561a1.511,1.511,0,0,0,2.676-1.254Z"/><path fill="#333353" d="M137.4,209.062c-4.919,50.984-17.1,77.31-21.346,85.166,10.867,2.872,20.3-5.335,20.3-5.335s8.635-41.612,7.692-79.447c-.069-.28-.138-.563-.206-.841A3.277,3.277,0,0,0,137.4,209.062Z"/><polygon fill="#333353" points="231.794 289.516 151.099 289.516 155.996 330.064 225.649 330.064 231.794 289.516"/><path fill="#e87b40" d="M186.728,67.418V81.177l1.636.042a349.21,349.21,0,0,0,44.526-2.487c-2.4-8.633-5.567-13.176-5.567-13.176Z"/><path fill="#fff" d="M158.536,158.831,189.122,137l20.927,9.077q2.773,1.425,5.9,3.133L231.794,283.4h-82.54S149.307,209.624,158.536,158.831Z"/><path fill="#dae5fc" d="M215.952,149.214q-3.127-1.712-5.9-3.133l-5.924-2.57-1.951,8.845,7.874,3.923s-1.126,55.981,3.928,127.124h17.818Z"/><path fill="#dae5fc" d="M149.254,283.4h15.562c-.357-14.573-.508-32.256.29-45.364l11.115,13.335a8.487,8.487,0,0,0,5.077,2.93h0a8.474,8.474,0,0,1,5.324,3.243c3.994,5.281,13.8,17.319,26.091,25.856h19.081l-.267-2.255L155.748,176.784C149.3,225.351,149.254,283.4,149.254,283.4Z"/><path fill="#dae5fc" d="M210.048,146.083C196.314,139.025,189.122,137,189.122,137l6.766,28.581S204.475,160.373,210.048,146.083Z"/><rect width="80.024" height="18.485" x="149.254" y="278.323" fill="#333353"/><rect width="20.451" height="18.485" x="174.456" y="278.323" fill="#fca751"/><path fill="#ffcacf" d="M189.122,137l-30.586,21.827c-.38,2.091-.742,4.224-1.092,6.385,9.468,21.34,24.911,31.8,24.911,31.8,15.6-17.448,21.584-40.748,23.756-52.912C194.953,138.648,189.122,137,189.122,137Z"/><path fill="#5b5b81" d="M165.773,151.382S152.56,240.256,156,330.064H122.17s4.685-24.717,11.81-53.687c8.06-32.768,4.31-104.679,4.31-104.679S152.824,159.045,165.773,151.382Z"/><path fill="#e5838b" d="M158.536,158.831c-.136.752-.268,1.515-.4,2.277a43.79,43.79,0,0,0,17.462,9.959,58.173,58.173,0,0,0,11.9-9.1,43.573,43.573,0,0,0,8.4,3.616,29.245,29.245,0,0,0,6.553-6.2,134.973,134.973,0,0,0,3.67-15.278C194.953,138.648,189.122,137,189.122,137Z"/><path fill="#333353" d="M142.919,167.822s22.854,70.863,83.524,118.917l-.99-32.014s-43.369-53.494-63.622-104.074Z"/><path fill="#ffcacf" d="M206.153,104.408s-3.462-10.512-9.807-17.761a40.137,40.137,0,0,1-3.915-5.416L177.98,68.886H149.254l.4,48.086,47.009,6.052S206.136,118.152,206.153,104.408Z"/><path fill="#ffb664" d="M181.219,117.849s17.922-.974,24.934-13.441c0,0,9.869,26.762-7.513,49.006a7.094,7.094,0,0,1-10.277.876c-.382-.337-.763-.7-1.137-1.076a52.908,52.908,0,0,1-7.836,7.828,9.373,9.373,0,0,1-10.648.676c-8.4-5.084-23.71-17.911-21.222-42.895l18.116-3.9Z"/><path fill="#e5838b" d="M196.346,86.647a40.137,40.137,0,0,1-3.915-5.416h0a72.022,72.022,0,0,1-5.893-12.344H149.254l.094,11.35,31.152.785a9.712,9.712,0,0,1,7.266,3.551,32.67,32.67,0,0,0,8.866,7.48,26.9,26.9,0,0,1,6.847,5.879A50.263,50.263,0,0,0,196.346,86.647Z"/><path fill="#5b5b81" d="M215.952,149.214s.856,46.2,3.708,73.581,5.989,107.269,5.989,107.269h20.536s4.758-71.334,1.808-107.554a546.3,546.3,0,0,1,1.772-58.1A250.244,250.244,0,0,1,215.952,149.214Z"/><path fill="#5b5b81" d="M249.765,164.405s-7.955,29.726-1.772,58.1c0,0,13.716,13.338,21.608,24.211a7.993,7.993,0,0,1,.051,9.333l-5.678,7.98,17.924,22.7s15.566-10.752,27.368-23.84a15.334,15.334,0,0,0,1.7-18.164A470.763,470.763,0,0,0,249.765,164.405Z"/><path fill="#ffcacf" d="M249.765,273.168l-5.634,6.333a22.21,22.21,0,0,0-5.515,16.881l3.225,33.682h5.335a8.351,8.351,0,0,0,8.309-7.513l1.254-12.427a6.413,6.413,0,0,1,2.234-4.25l6.892-5.843A226.378,226.378,0,0,0,249.765,273.168Z"/><path fill="#fca751" d="M206.267,224.494a86,86,0,0,0-8.3-11.659,9.255,9.255,0,0,0-11.151-2.456c-6.246,3.057-11.473,7.945-14.912,11.724a9.256,9.256,0,0,0-.886,11.336,91.284,91.284,0,0,0,9.234,11.636,9.241,9.241,0,0,0,11.363,1.7A51.778,51.778,0,0,0,205.4,234.935,9.218,9.218,0,0,0,206.267,224.494Zm-11.834,7.469a38.468,38.468,0,0,1-3.362,2.731,4.412,4.412,0,0,1-5.949-.8,27.677,27.677,0,0,1-2.094-2.839,4.355,4.355,0,0,1,.877-5.647q1.573-1.341,3.315-2.573a4.409,4.409,0,0,1,5.925.783,30.594,30.594,0,0,1,2,2.639A4.4,4.4,0,0,1,194.433,231.963Z"/><path fill="#e87b40" d="M183.148,133.16c12.239-2.359,16.691-15.509,17.06-22.053-8.121,6.149-18.989,6.742-18.989,6.742l-15.583-2.922-18.116,3.9a48.685,48.685,0,0,0,.527,13.95c5.438.045,11.959-1.114,15.706-6.121A19.84,19.84,0,0,0,183.148,133.16Z"/><path fill="#ffb664" d="M180.679,109.324c-9.654-5.18-16.125.905-16.125.905s-6.566-7.019-14.979,0-15.595-1.56-15.595-1.56.886,17.6,16.1,17.6c0,0,10.325.059,14.474-6.6,4.149,6.662,14.473,6.6,14.473,6.6,15.215,0,14.68-18.5,14.68-18.5S187.754,113.12,180.679,109.324Z"/><path fill="#e8808f" d="M159.352,93.39a3.506,3.506,0,0,1-.832-.1l-2.829-.689a3.5,3.5,0,0,1,1.657-6.8l2.829.689a3.5,3.5,0,0,1-.825,6.9Z"/><path fill="#e8808f" d="M173.445,93.5a3.5,3.5,0,0,1-1.153-6.806l2.652-.925a3.5,3.5,0,1,1,2.306,6.609l-2.651.925A3.5,3.5,0,0,1,173.445,93.5Z"/><path fill="#69698e" d="M124.875,59.754a7.322,7.322,0,0,0,3.8,9.764c3.394,1.416,8.47,2.592,16,2.659,16.509.146,74.476,2.526,103.768-4.355a7.61,7.61,0,0,0,2.31-13.835A64.745,64.745,0,0,0,233.3,46.459a78.861,78.861,0,0,1-32.116-17.531c-3.6-3.289-7.375-6.944-10.943-10.762a6.965,6.965,0,0,0-10.973.97,176.925,176.925,0,0,0-12.22,22.227,5.558,5.558,0,0,1-9.6.995,176.613,176.613,0,0,1-12-18.876,5.558,5.558,0,0,0-9.776-.086,54.38,54.38,0,0,0-6.656,19.55A58.433,58.433,0,0,1,124.875,59.754Z"/><path fill="#fff" d="M32.085,148.12h0a2.1,2.1,0,0,0,2.633-1.169,20.721,20.721,0,0,1,8.032-9.607,2.515,2.515,0,0,0,.835-3.519h0a2.5,2.5,0,0,0-3.4-.788c-2.607,1.607-6.929,5.222-9.392,12.447A2.1,2.1,0,0,0,32.085,148.12Z"/><circle cx="49.349" cy="131.285" r="2.699" fill="#fff"/><path fill="#333353" d="M263.974,264.034l6.873,8.706,7.944-13.36a17.62,17.62,0,0,0-2.273-21.039l-17.489-18.708A45.178,45.178,0,0,1,247.573,197.4q-.1-.534-.2-1.065a.862.862,0,0,0-1.71.135,113.318,113.318,0,0,0,2.329,26.044s13.716,13.338,21.608,24.211a7.993,7.993,0,0,1,.051,9.333Z"/><path fill="#333353" d="M249.258,264.843c1.728-1.246,3.844-2.655,6.37-4.142a8.429,8.429,0,0,1,10.394,1.415c5.484,5.761,14.745,15.966,20.64,25.039a8.4,8.4,0,0,1-1.193,10.572,101.508,101.508,0,0,1-9.145,7.983,7.5,7.5,0,0,1-11.142-2.249c-4.233-7.58-11.21-19.574-17.534-28.141A7.464,7.464,0,0,1,249.258,264.843Z"/><path fill="#e87b40" d="M182.684,294.428h7.357a1.779,1.779,0,0,0,1.78-1.779v-6.777a1.267,1.267,0,0,0-2.127-.929l-7.87,7.29A1.266,1.266,0,0,0,182.684,294.428Z"/><path fill="#e87b40" d="M206.267,224.494a86,86,0,0,0-8.3-11.659,9.4,9.4,0,0,0-2.585-2.152l-.189.691a10.346,10.346,0,0,0,1.663,8.883c.98,1.328,2.094,2.892,3.178,4.527a7.7,7.7,0,0,1-1.2,9.917,41.725,41.725,0,0,1-6.7,5.114,10.431,10.431,0,0,0-4.779,6.419L186.921,248a9.148,9.148,0,0,0,4.694-1.228A51.778,51.778,0,0,0,205.4,234.935,9.218,9.218,0,0,0,206.267,224.494Z"/><path fill="#fff" d="M174.837,233.668c-1.627-1.867-3.806-5.617-.36-9.95a2.015,2.015,0,0,1,3.075-.033l.126.144a2.058,2.058,0,0,1,.169,2.46,3.785,3.785,0,0,0,.229,4.609,2.055,2.055,0,0,1-.4,2.982L177.5,234A2.02,2.02,0,0,1,174.837,233.668Z"/><path fill="#333353" d="M244.362,23.91c-.166-3.567-1.888-9-3.792-13.124a1.457,1.457,0,0,0-2.7.135c-1.955,5.562-7.7,16.559-23.765,23.6a11.766,11.766,0,0,0,.6-5.535.856.856,0,0,0-1.427-.559,71.815,71.815,0,0,1-15.568,10.618c-7.468,3.864-10.648,7.764-11.866,10.921a9.708,9.708,0,0,1-3.6,4.541,42.347,42.347,0,0,0-6.526,5.353,2.975,2.975,0,0,0,4.194,4.207s4.4-3.421,5.329-4.03l2.539-1.821a11.328,11.328,0,0,1,6.8-2.167c3.13.06,6.315.686,9.355,1.05,14.385,1.725,21.9-1.309,27.856-4.449a1.038,1.038,0,0,0-.129-1.9,10.329,10.329,0,0,1-3.678-2.109C242.023,44.09,244.742,32.073,244.362,23.91Z"/></svg>