<svg xmlns="http://www.w3.org/2000/svg"  viewBox="0 0 340 340" width="500px" height="500px"><path fill="#677487" d="M189.57,122.821l-12.162,4.944-7.859,4.291c-4.08,2.448-8.429,5.128-12.635,7.846A29.889,29.889,0,0,0,145.6,153.4c-3.579,8.486-9.156,22.105-13.39,34.275a31.767,31.767,0,0,1-4.664,8.752c-6.556,8.657-22.4,27.62-39.809,34.172H83.067V331.876H168.94L204.2,142.139Z"/><path fill="#fff" d="M204.2,142.139l-15.176-20.717-19.478,10.634c-.162,14,10.273,27.9,29.1,35.108l3.141-8.819Z"/><path fill="#ffc569" d="M212.234,125.6l-13.59,24.349s-17.136,25.241-28.17,47.536a44.637,44.637,0,0,0-4.594,19.806V331.876H300.954s-.466-86.2-21.456-117.04a52.183,52.183,0,0,1-6.666-13.692c-4.02-12.77-12.642-36.937-24.767-53.527a37.049,37.049,0,0,0-10.85-9.807A166.678,166.678,0,0,0,212.234,125.6Z"/><path fill="#ffc4b6" d="M185.054,103.749V129.6c0,11.591,13.59,20.345,13.59,20.345s8.843-11.444,13.59-20.345V103.749Z"/><polygon fill="#404a66" points="83.546 251.234 105.734 247.891 112.031 331.876 79.585 331.876 83.546 251.234"/><rect width="16.05" height="247.692" x="70.522" y="84.184" fill="#ea9d81"/><polygon fill="#d36f54" points="70.522 254.925 70.522 331.876 86.571 331.876 86.571 84.184 78.609 84.184 78.609 254.925 70.522 254.925"/><rect width="16.05" height="25.877" x="70.522" y="58.307" fill="#e87b31"/><path fill="#ffcb57" d="M78.067,11.876a26.165,26.165,0,1,0,26.165,26.165A26.165,26.165,0,0,0,78.067,11.876Zm0,36.628A10.463,10.463,0,1,1,88.531,38.041,10.463,10.463,0,0,1,78.067,48.5Z"/><path fill="#677487" d="M233.368,202.835a6.973,6.973,0,0,0-5.377-2.4l-6.613-.523a152.523,152.523,0,0,0-24.078,0l-6.544.519a7.055,7.055,0,0,0-5.857,2.938,6.836,6.836,0,0,0-.154,7.519,28.317,28.317,0,0,0,7.435,7.875,29.511,29.511,0,0,0,34.318,0,28.3,28.3,0,0,0,7.434-7.875A6.844,6.844,0,0,0,233.368,202.835Z"/><path fill="#ea8b7f" d="M185.054,103.749v15.333c2.044,2.357,2.653,4.645,10.7,8.51,2.745,1.318,4.574,4.475,2.956,7.053,0,0-2.557,4.2-6.7,9.648,2.5,2.28,6.633,5.657,6.633,5.657L209.405,136a14.245,14.245,0,0,0,2.963-9.1l-.134-4.8V103.749Z"/><path fill="#ea8b7f" d="M177.886,96.7s-10.943-.136-13.953-7.8,0-17.235,0-17.235h13.953Z"/><path fill="#ea8b7f" d="M219.4,96.7s10.943-.136,13.952-7.8,0-17.235,0-17.235H219.4Z"/><path fill="#ffc4b6" d="M172.465,73.2l.966,17.845.218,1.982a21.949,21.949,0,0,0,3.374,9.737c7.258,10.972,21.621,10.972,21.621,10.972s14.363,0,21.621-10.972a21.95,21.95,0,0,0,3.375-9.737l.236-2.143.948-17.684Z"/><path fill="#ea8b7f" d="M173.279,88.236a506.077,506.077,0,0,0,50.694.838l.851-15.875H172.465Z"/><path fill="#efab95" d="M195.159,15.807c-10.639,3.574-43.652,17.135-71.293,54.874a2.12,2.12,0,0,0,1.32,3.349,434.5,434.5,0,0,0,51.574,5.879s14.3.032,21.884.032a436.224,436.224,0,0,0,73.088-6.3c1.547-.279,1.7-1.73.774-3-23.8-32.5-64.729-52.73-64.729-52.73-2.264-.919-4.171-1.607-5.647-2.1A10.928,10.928,0,0,0,195.159,15.807Z"/><path fill="#e87b31" d="M240.336,331.876c.866-21.321,1.724-80.572-13.394-111.317a149.9,149.9,0,0,1-19.6,2.579l1.9,33.068s1.241,50.11-.141,75.67Z"/><path fill="#d36f54" d="M273.422,70.681c-23.813-32.512-51.6-47.072-65.646-52.768,6.483,5.115,26.151,22.1,37.491,40.775a7.052,7.052,0,0,1-3.978,10.436c-10.16,3.022-30.525,7.814-64.529,10.785,6.948.379,14.3.611,21.884.611A435.468,435.468,0,0,0,272.1,74.03,2.12,2.12,0,0,0,273.422,70.681Z"/><path fill="#d36f54" d="M230.149,54.533a2,2,0,0,1-1.886-1.334,20.676,20.676,0,0,0-1.956-4.035,2,2,0,0,1,3.338-2.2,24.769,24.769,0,0,1,2.39,4.906,2,2,0,0,1-1.886,2.667Z"/><path fill="#d36f54" d="M223.4,54.934a2,2,0,0,1-1.814-1.25,19.539,19.539,0,0,0-2.061-3.9,2,2,0,0,1,3.205-2.394,23.1,23.1,0,0,1,2.564,4.794,2,2,0,0,1-1.894,2.75Z"/><path fill="#d36f54" d="M165.4,54.934a2,2,0,0,0,1.814-1.25,19.6,19.6,0,0,1,2.061-3.9,2,2,0,0,0-3.2-2.394,23.042,23.042,0,0,0-2.564,4.794,2,2,0,0,0,1.893,2.75Z"/><path fill="#d36f54" d="M214.757,36.135a2,2,0,0,1-1.774-1.047,21.17,21.17,0,0,0-2.567-3.681,2,2,0,0,1,2.952-2.7,24.777,24.777,0,0,1,3.13,4.471,2,2,0,0,1-1.741,2.955Z"/><path fill="#d36f54" d="M211.292,67.261a2,2,0,0,1-1.978-1.728,19.567,19.567,0,0,0-1.041-4.287,2,2,0,0,1,3.693-1.535,22.95,22.95,0,0,1,1.31,5.277,2,2,0,0,1-1.709,2.254A1.966,1.966,0,0,1,211.292,67.261Z"/><path fill="#d36f54" d="M204.656,68.246a2,2,0,0,1-1.978-1.728,19.519,19.519,0,0,0-1.041-4.287A2,2,0,0,1,205.33,60.7a22.979,22.979,0,0,1,1.311,5.277,2,2,0,0,1-1.985,2.273Z"/><path fill="#d36f54" d="M150.2,67.261a2,2,0,0,0,1.978-1.728,19.5,19.5,0,0,1,1.041-4.287,2,2,0,0,0-3.693-1.535,22.979,22.979,0,0,0-1.311,5.277,2,2,0,0,0,1.985,2.273Z"/><path fill="#d36f54" d="M156.83,68.246a2,2,0,0,0,1.979-1.728,19.45,19.45,0,0,1,1.041-4.287,2,2,0,0,0-3.693-1.535,22.979,22.979,0,0,0-1.311,5.277,2,2,0,0,0,1.984,2.273Z"/><path fill="#ea8b7f" d="M82.634,239.538H98.677a8.354,8.354,0,0,1,8.354,8.353v5.171a7.956,7.956,0,0,1-7.956,7.956H89.264Z"/><path fill="#ffc4b6" d="M70.834,239.538h11.8a11.138,11.138,0,0,1,11.138,11.138V263.67a11.138,11.138,0,0,1-11.138,11.138h-11.8a5.436,5.436,0,0,1-5.436-5.436v-24.4a5.436,5.436,0,0,1,5.436-5.436Z"/><path fill="#ffc4b6" d="M229.585,226.328a6.393,6.393,0,0,0-6.349-3.388,123.766,123.766,0,0,1-23.777-.218c-6.211-.762-11.346,4.624-9.645,10.319q.158.53.362,1.09a8.39,8.39,0,0,0,5.443,5.02c4.744,1.49,14.615,3.574,33.682,4.2,0,0,1.929-.1,4.385-.2A44.234,44.234,0,0,0,229.585,226.328Z"/><path fill="#404a66" d="M265.047,74.918a4.076,4.076,0,0,0-4.576-3.345h0l-.037.005-.032,0H260.4l-.033.006-.032,0A3.994,3.994,0,0,0,261,79.538a3.928,3.928,0,0,0,.549-.038l.07-.01.065-.01A4.069,4.069,0,0,0,265.047,74.918Z"/><path fill="#404a66" d="M124.37,77.946a325.358,325.358,0,0,0,32.26,4.381,24.625,24.625,0,0,0,1.58,8.038c2.516,6.406,8.778,8.835,13.039,9.756a24.032,24.032,0,0,0,2.438,4.849,26.033,26.033,0,0,0,7.367,7.344v8.4c-6.338,3.6-16.666,9.593-26.312,15.827a33.751,33.751,0,0,0-12.828,15.3c-3.838,9.1-9.293,22.471-13.483,34.515a27.745,27.745,0,0,1-4.075,7.651c-4.821,6.365-14.646,18.264-26.289,26.437a4,4,0,1,0,4.6,6.548c12.535-8.8,22.968-21.417,28.071-28.156a35.726,35.726,0,0,0,5.253-9.851c4.12-11.843,9.5-25.045,13.3-34.036a25.806,25.806,0,0,1,9.8-11.689c2.477-1.6,5-3.184,7.491-4.717a45.8,45.8,0,0,0,17.96,25.949c-5.592,9.036-12.337,20.493-17.646,31.219a48.9,48.9,0,0,0-5.009,21.58V331.876h8V217.292a40.85,40.85,0,0,1,4.179-18.032c9.841-19.884,24.81-42.462,27.476-46.441,2.907-2.046,13.454-10.19,14.59-21.283a156.587,156.587,0,0,1,19.026,9.7,32.9,32.9,0,0,1,9.685,8.74c11.759,16.093,20.2,39.718,24.18,52.368a56.163,56.163,0,0,0,7.176,14.741c20.061,29.477,20.757,113.962,20.762,114.812l8-.043c-.02-3.57-.719-87.783-22.149-119.27a48.2,48.2,0,0,1-6.158-12.642c-4.131-13.12-12.917-37.669-25.352-54.686a40.848,40.848,0,0,0-12.017-10.873,167.039,167.039,0,0,0-23.044-11.479V112.314a26.021,26.021,0,0,0,7.367-7.344,24.009,24.009,0,0,0,2.439-4.849c4.246-.919,10.52-3.347,13.038-9.756a24.593,24.593,0,0,0,1.579-8q3.438-.342,6.892-.734a4,4,0,0,0-.913-7.949,422.878,422.878,0,0,1-47.992,2.84c-27.336,0-59.752-3.72-72.642-6.406a4,4,0,1,0-1.632,7.832Zm41.286,9.494a15.989,15.989,0,0,1-.966-4.412q1.925.153,3.865.293l.862,7.82A7.187,7.187,0,0,1,165.656,87.44Zm8.187,46.711c2.589-1.538,5.032-2.963,7.222-4.225.165,9.627,7.672,17.252,12.156,20.953-1.124,1.707-2.641,4.035-4.42,6.824A37.841,37.841,0,0,1,173.843,134.151Zm34.391-4.546c0,6.736-6.193,12.64-9.59,15.372-3.4-2.734-9.59-8.637-9.59-15.372V116.088a34.7,34.7,0,0,0,9.59,1.647,34.69,34.69,0,0,0,9.59-1.647Zm23.4-42.165a7.192,7.192,0,0,1-3.762,3.7l.853-7.743c1.286-.093,2.578-.2,3.869-.308A15.952,15.952,0,0,1,231.633,87.44ZM220.621,83.9l-.957,8.685a18.067,18.067,0,0,1-2.735,7.968c-5.945,8.987-18.176,9.178-18.271,9.179-.122,0-12.354-.192-18.3-9.179a16.63,16.63,0,0,1-2.08-4.617,3.923,3.923,0,0,0-.182-.707,20.577,20.577,0,0,1-.472-2.644l-.963-8.746c7.562.427,15.063.678,21.982.678C205.831,84.52,213.175,84.307,220.621,83.9Z"/><path fill="#404a66" d="M137.113,60.635c26.912-30.25,55.939-40.062,61.535-41.735,6.441,1.915,43.69,14.5,73.461,56.811a4,4,0,0,0,6.543-4.6c-34.241-48.659-77.23-59.794-79.044-60.244a4,4,0,0,0-1.928,0c-1.415.352-35.011,9.01-66.544,44.455a4,4,0,1,0,5.977,5.317Z"/><path fill="#404a66" d="M51.844,34.4a4,4,0,0,0,4.975-2.693A22.168,22.168,0,1,1,95.188,52.119a4,4,0,0,0,6.176,5.085A30.168,30.168,0,1,0,49.151,29.428,4,4,0,0,0,51.844,34.4Z"/><path fill="#404a66" d="M38.649,81.3A9.516,9.516,0,0,0,44.8,83.37c4.769,0,10.6-2.792,16.485-8.1a4,4,0,0,0-5.362-5.937c-6.39,5.771-11.191,6.61-12.232,5.764-1.436-1.167-.719-9.225,7.12-18.869.589-.725,1.18-1.4,1.771-2.046A29.848,29.848,0,0,0,66.522,65.93V236.591a9.437,9.437,0,0,0-5.124,8.383v24.4a9.437,9.437,0,0,0,5.124,8.383v54.122h8V278.807h8.049v53.069h8V276.535A15.134,15.134,0,0,0,97.7,265.018h1.372a11.874,11.874,0,0,0,4.742-.986l4.221,68.092,7.985-.5-4.992-80.517v-3.221a12.368,12.368,0,0,0-12.354-12.353H90.571V84.184a4,4,0,0,0-4-4H74.522V67.98a30.8,30.8,0,0,0,3.546.225,30.18,30.18,0,0,0,7.6-.973c.516.7,1.046,1.394,1.6,2.081,6.422,7.9,15.087,14.1,22.1,14.1a9.52,9.52,0,0,0,6.17-2.11c5.1-4.149,4.691-12.978-1.077-23.044a4,4,0,1,0-6.941,3.977c4.168,7.274,3.985,12.035,2.972,12.859-1.436,1.166-9.176-1.182-17.015-10.826-3.85-4.737-6.6-10.039-7.443-14.171a14.455,14.455,0,1,0-22.409-12.59c-6,1.32-12.984,6.242-19.024,13.672C36.1,61.641,31.325,75.347,38.649,81.3ZM82.634,243.538a7.146,7.146,0,0,1,7.138,7.138V263.67a7.146,7.146,0,0,1-7.138,7.137h-11.8a1.437,1.437,0,0,1-1.436-1.436v-24.4a1.437,1.437,0,0,1,1.436-1.436Zm20.4,4.353v5.171a3.961,3.961,0,0,1-3.956,3.956h-1.3v-6.342a15.042,15.042,0,0,0-1.8-7.138h2.7A4.358,4.358,0,0,1,103.031,247.891Zm-20.46-12.353H74.522V88.184h8.049ZM81.184,59.967a22.426,22.426,0,0,1-3.116.238,22.006,22.006,0,0,1-19.428-11.5,19.463,19.463,0,0,1,6.921-3.435A14.458,14.458,0,0,0,78.068,52.5c.106,0,.21-.014.316-.016A35.063,35.063,0,0,0,81.184,59.967Zm-3.116-28.39A6.464,6.464,0,1,1,71.6,38.041,6.471,6.471,0,0,1,78.068,31.577Z"/><path fill="#404a66" d="M245.935,219.021c2.833.277,6.034.418,9.516.418a4,4,0,1,0,0-8c-3.223,0-6.162-.128-8.736-.38a45.98,45.98,0,0,0-8.413-.036,10.8,10.8,0,0,0-10.311-14.584H190.756a11.024,11.024,0,0,0-9.159,4.68,10.831,10.831,0,0,0-.232,11.915,32.294,32.294,0,0,0,8.1,8.7,12,12,0,0,0-.868.865,12.454,12.454,0,0,0-2.69,11.468q.166.627.379,1.292a11.919,11.919,0,0,0,7.263,7.564,63.623,63.623,0,0,0,11.157,2.663c2.291,38.8.791,85.679.775,86.161l8,.264c.016-.48,1.491-46.531-.7-85.41,5.173.5,11.4.837,18.88.916,1.467,8.606,5.215,35.395,5.215,84.362h8c0-60.53-5.534-87.148-5.962-89.112a89.184,89.184,0,0,0-7.385-22.5l2.491-.531A38.955,38.955,0,0,1,245.935,219.021ZM188.2,205.636a3.085,3.085,0,0,1,2.556-1.2h37.235a3,3,0,0,1,2.306.959,2.855,2.855,0,0,1,.255,3.36,24.382,24.382,0,0,1-6.392,6.767,24.992,24.992,0,0,1-7.225,3.585,95,95,0,0,1-15.284-.027,25.075,25.075,0,0,1-7.134-3.557,24.4,24.4,0,0,1-6.391-6.768A2.837,2.837,0,0,1,188.2,205.636Zm8.034,29.748a3.873,3.873,0,0,1-2.332-2.478c-.1-.3-.184-.6-.259-.883a4.461,4.461,0,0,1,.938-4.116,3.427,3.427,0,0,1,3.142-1.223c.884.123,1.774.222,2.664.311.051,0,.1.011.154.014a113.351,113.351,0,0,0,24.985-.748,81.711,81.711,0,0,1,4.484,13.231C209.851,239.158,200.264,236.82,196.234,235.384Z"/></svg>