<svg xmlns="http://www.w3.org/2000/svg"  viewBox="0 0 340 340" width="500px" height="500px"><path fill="#fdfbff" d="M158.78,64.312s-9.431-16.391,1.122-30.986c9.512-13.154,29.366-20.483,47.66-23.116a4.565,4.565,0,0,1,5.181,5.108l-.972,7.455C221.816,51.768,187.008,56.242,158.78,64.312Z"/><path fill="#b9b4d3" d="M211.771,22.773a36.279,36.279,0,0,1-1.641,5.405,7,7,0,0,1-7.109,4.375c-8.394-.75-27.834-.516-37.66,15.8l13.391,15.958h44.695C238.94,36.47,211.771,22.773,211.771,22.773Z"/><path fill="#ffd7cd" d="M59.247,229.721s-3.819,18.891-1.005,33.16c0,0,1.68,8.916,16.645,8.822a13.792,13.792,0,0,0,13.7-13.789v-25.38Z"/><path fill="#f79089" d="M75.008,233.4V257.48s-.19,8.007-5.417,13.819a30.1,30.1,0,0,0,5.3.4,13.792,13.792,0,0,0,13.7-13.789v-25.38l-13.574-1.3Z"/><path fill="#3c3c4f" d="M172.74,42.417c-6.661,4.067-13.657,11.2-17.135,23.693a51.79,51.79,0,0,0-1.8,13.908V83.4a29.437,29.437,0,0,1-8.686,20.895C134.6,114.731,118.75,137.075,122.6,174.6a44.331,44.331,0,0,0,30.5,37.933c10.072,3.167,23.655,4.934,41.919,3.556,0,0,67.6-8.016,58.463-81.881a59.253,59.253,0,0,0-9.667-25.932q-.138-.2-.279-.41a60.5,60.5,0,0,1-10.3-28.021c-1.566-15.474-8.512-37.926-35.156-42.114A37.41,37.41,0,0,0,172.74,42.417Z"/><path fill="#f79089" d="M260.765,260.587c.337,7.847-.7,13.727,5.358,15.259l5.092-.758a7.75,7.75,0,0,1,8.89,7.767l-.059,4.465a2.854,2.854,0,0,1-2.5,2.8l-13.279,1.663a21.946,21.946,0,0,1-22.639-12.547L228.542,251l13.851-11.976Z"/><path fill="#fdfbff" d="M220.848,136.361s9.652-10.332,20.785-1.905c0,0,36.941,35.552,44.842,79.531,3.653,20.337-2.983,31.9-6.649,41,0,0-16.674,16.3-30.959-2.633s8.227-32.283,8.227-32.283S219.758,148.729,220.848,136.361Z"/><path fill="#b9b4d3" d="M252.408,245.853c-2.634-11.717,3.459-18.321,8.748-21.727a6.878,6.878,0,0,0,1.929-9.783l-6.7-9.4a16.041,16.041,0,0,1-3.075-9.831,33.022,33.022,0,0,0-4.142-16.278,42.442,42.442,0,0,0-9.121-11.541c-12.175-11.1-16.386-21.61-16.386-21.61l-1.6,3.712c5.774,36.164,30.181,66.7,30.181,66.7-24.524,14.825-23.438,31.6-23.438,31.6a42.64,42.64,0,0,0,22.148,16.429,25.373,25.373,0,0,0,27.427-7.32c.488-.574.968-1.19,1.441-1.828C268.691,259.665,255.4,259.174,252.408,245.853Z"/><path fill="#fdfbff" d="M168.151,136.361s-3.714-12.533-27.973-2.886c-22.432,8.92-65.364,25.48-87.115,84.616a15.536,15.536,0,0,0-.948,6.11c6.3,9.234,15.4,13.3,31.867,3.771l28.045-51.32,43.656-20.543,11.753-7.727A24.386,24.386,0,0,0,168.151,136.361Z"/><path fill="#b9b4d3" d="M168.135,140.657s-4.031,10.569-19.83,12.364-48.961,12.669-62.748,58.22c0,0-8.379,23.753-33.421,12.959a15.59,15.59,0,0,0,12.39,14.517c8.2,1.716,18.351,2.418,27.679-.94,0,0,16.578.41,12.922-24.623-1.439-9.85.756-21.2,7.453-28.56,9.3-10.222,24.442-21.622,45.543-21.175,0,0,7.507-6.992,9.808-16.9Z"/><path fill="#ffc362" d="M238.959,259.683c8.764,12.239,24.783,38.622,26.706,70.178H161.746l.678-76.684Z"/><path fill="#ffc362" d="M234.066,167.231c-9.075-13.309-13.218-30.87-13.218-30.87a102.4,102.4,0,0,0-52.7,0,327.3,327.3,0,0,1-14.923,30.25c-8.884,15.476-11.816,34.888,9.075,48.4l13.684,49.967a91.409,91.409,0,0,0,18.513,1.66c35.563,0,38.779-14.288,38.779-14.288a90.889,90.889,0,0,1-5.631-21.9,23.413,23.413,0,0,1-.952-15.438C247.553,202.612,243.141,180.541,234.066,167.231Z"/><path fill="#fa883e" d="M161.746,329.861c13.176-3.251,14.241-21.009,14.241-21.009V236.681l3.524-14.115a160.19,160.19,0,0,0-17.113-.739c-.367,10.518-3.052,20.571-6.236,30.522,0,0,.572,2.889,4.42,6.067l-25.113,71.445Z"/><path fill="#fa883e" d="M162.3,215.01c.753,11.36-1.537,22.107-4.7,32.68l70.05-17.243a114.11,114.11,0,0,1-.961-15.437C180.64,224.552,162.3,215.01,162.3,215.01Z"/><path fill="#ffd7cd" d="M209.908,140.4a33.274,33.274,0,0,1-2.872-13.377v-.367l-25.072-.906v1.273a33.2,33.2,0,0,1-2.868,13.365,47.935,47.935,0,0,0-1.915,5.188,10.017,10.017,0,0,1-1.8,7.455,93.726,93.726,0,0,0-1.413,16.835,41.3,41.3,0,0,0,.247,4.578s5.3,9.974,20.287,9.974a26.086,26.086,0,0,0,20.266-9.792,41.237,41.237,0,0,0,.267-4.76A93.636,93.636,0,0,0,213.616,153a9.062,9.062,0,0,1-1.805-7.456A47.746,47.746,0,0,0,209.908,140.4Z"/><path fill="#f79089" d="M207.036,126.651V116.227H181.964v9.518c1.691,2.21,6.508,4.85,12.536,4.692A26.568,26.568,0,0,0,207.036,126.651Z"/><path fill="#ffd7cd" d="M214.943,85.721V99.187a22.175,22.175,0,0,1-22.176,22.176h0A22.163,22.163,0,0,1,170.6,99.676c-.2-9.56.066-20.237,1.67-27.454l12.387,9.557,7.821-9.03C205.324,75.981,213.046,80.257,214.943,85.721Z"/><path fill="#d88783" d="M93.035,233.4H140.7c12.626,26.228,11.066,89.958-12.529,96.459h-14.04a28.574,28.574,0,0,1-28.574-28.574V240.88A7.478,7.478,0,0,1,93.035,233.4Z"/><path fill="#fdfbff" d="M175.984,182.134a27.414,27.414,0,0,0,10.03,13.22,14.734,14.734,0,0,0,16.971,0,27.41,27.41,0,0,0,10.035-13.235l-2.086-3.36a242.688,242.688,0,0,1-32.135.057Z"/><circle cx="186.213" cy="95.029" r="3.559" fill="#f79089"/><circle cx="200" cy="95.029" r="3.559" fill="#f79089"/><path fill="#f79089" d="M207.142,76.474C194.149,75.257,191.9,64.98,191.9,64.98c-.224,8.279-6.713,13.872-6.713,13.872-10.068-4.251-11.411-11.411-11.411-11.411a24.716,24.716,0,0,0-1.5,4.782c-1.313,6.521,5.782,12.128,13.933,14.745a3.592,3.592,0,0,0,3.625-.853,25.083,25.083,0,0,0,4.669-6.647s1.513,2.592,10.734,4.044c4.58.72,8.379,4.822,9.709,7.209C214.943,90.721,215.033,77.213,207.142,76.474Z"/><path fill="#874f4f" d="M156.564,233.4H140.7v9.921a9.013,9.013,0,0,1-9.013,9.013H99.81a3.5,3.5,0,0,0-3.5,3.5h0a3.5,3.5,0,0,0,3.5,3.5H140.7v45.918s.714,15.086-12.529,24.607h7.3a28.574,28.574,0,0,0,28.573-28.574V240.88A7.478,7.478,0,0,0,156.564,233.4Z"/><path fill="#3c3c4f" d="M150.305,80.018c.512,8.039-1.749,16.12-7.651,21.789a81,81,0,0,0-20.673,35.561c-23.6,11.061-54.6,31.668-72.2,79.515a19.077,19.077,0,0,0,4.783,20.4c-.873,7.34-1.474,17.543.242,26.247.09.479,2.4,11.676,19.85,11.675a17.29,17.29,0,0,0,7.405-1.61v27.693a32.11,32.11,0,0,0,32.074,32.074H265.666a3.5,3.5,0,0,0,3.493-3.713,122.4,122.4,0,0,0-7.339-34.208c1.663.105,16.626-1.957,18.629-2.162a3.5,3.5,0,0,0,3.064-3.426l.092-6.951A11.32,11.32,0,0,0,270.7,271.626l-1.969.294-1.057-4.131c47.419-19.749,12.862-94.685-9.858-120.331.526-38.158-17.691-39.048-21.1-67.963A63.111,63.111,0,0,0,230.4,56.809c5.25-18-6.428-30.722-14.852-35.922l.668-5.117a8.111,8.111,0,0,0-9.153-9.024c-22.471,2.6-66.193,18.743-53.507,54.313A53.883,53.883,0,0,0,150.305,80.018ZM56.347,219.3c21-57.086,62.278-73.492,84.455-82.306,12.616-5.354,21.32-4.126,23.481-.508-1.617,3.695-6.1,13.711-11.416,23.568-19.972,1.38-34.311,12.767-42.877,22.186-6.864,7.548-10.055,19.588-8.326,31.421,1.044,7.149.372,12.722-1.9,16.242-6.938-.068-13.169-.82-16.7,6.418a55.028,55.028,0,0,1-17.819-1.029A12.156,12.156,0,0,1,56.347,219.3Zm121.12-49.438a92.719,92.719,0,0,1,1.052-14.41l10.257,7.929-11.244,8.705C177.491,171.355,177.467,170.614,177.467,169.861Zm6.954,5.744,10.077-7.8,10.082,7.8C197.854,175.881,191.117,175.884,184.421,175.605Zm24.738,6.773c-7.381,16.153-21.951,16.049-29.315.009A247.592,247.592,0,0,0,209.159,182.378Zm-16.392-64.515A18.762,18.762,0,0,1,174.094,99.6a148.157,148.157,0,0,1,.994-23.333,26.182,26.182,0,0,0,8.736,5.806c3.1,1.386,6.321-2.568,9.529-8.611a25.037,25.037,0,0,0,13.133,6.445,6,6,0,0,1,4.957,5.81V99.187A18.7,18.7,0,0,1,192.767,117.863Zm0,7a25.515,25.515,0,0,0,10.769-2.376v4.531c-.286,7.538,2.961,13.508,5.306,20.826l-7.1,5.5a3.517,3.517,0,0,0,2.146,6.268c1.709.246,5.14-3.253,6.589-4.178a89.867,89.867,0,0,1,.991,16.644l-31.316-24.209a46.4,46.4,0,0,1,2.149-6.074,39.45,39.45,0,0,0,3.163-18.006A25.315,25.315,0,0,0,192.767,124.863Zm-16.874,14.11c-2.982,5.348-7.66,27.642-4.322,40.576,3.243,12.773,12.588,21.956,22.929,22,10.34-.051,19.66-9.2,22.92-21.97,3.379-13.694-1.351-35.255-4.645-41.418q2.6.484,5.209,1.1c1.416,5.176,5.624,18.847,13.191,29.943,10.143,15.068,10.112,33.375-6.239,42.781a21.724,21.724,0,0,1-9.92,2.808,3.5,3.5,0,0,0,0,7,26.04,26.04,0,0,0,8.279-1.454A100.7,100.7,0,0,0,229.5,252.3c-5.478,11.228-43.5,14.635-61.959,6.34V240.88a10.92,10.92,0,0,0-2.886-7.392,82.476,82.476,0,0,0,1.276-13.071,25.87,25.87,0,0,0,8.035,1.375,3.5,3.5,0,0,0,0-7,21.562,21.562,0,0,1-9.8-2.746c-19.869-12.877-15.267-30.866-7.9-43.693a322.664,322.664,0,0,0,14.422-29.033c1.846-.46,3.7-.863,5.565-1.215C176.133,138.394,176.02,138.685,175.893,138.973ZM230.2,216.944a33.662,33.662,0,0,0,10.761-11c2.494,3.971,4.675,7.119,6.206,9.232a56.76,56.76,0,0,0-15.965,15.4A108.466,108.466,0,0,1,230.2,216.944Zm-121.614-4.3c-1.86-13.089,2.646-23.415,11.733-30.829a48.373,48.373,0,0,0,38.6,35.87,71.012,71.012,0,0,1-.793,12.337,11.006,11.006,0,0,0-1.561-.124H107.55C109.241,225.316,109.6,219.544,108.59,212.648Zm17.875-35.741a53.616,53.616,0,0,1,22.255-9.318c-7.678,14.891-7.548,28.611.069,39.479A41.063,41.063,0,0,1,126.465,176.907Zm-51.6,91.3c-11.131.21-13.308-5.828-13.19-6-1.314-6.66-1.1-14.46-.511-20.841a57.664,57.664,0,0,0,20.892,2.1v21.719A10.29,10.29,0,0,1,74.866,268.2Zm14.191,33.084V240.88a3.982,3.982,0,0,1,3.978-3.978h63.529a3.982,3.982,0,0,1,3.978,3.978v60.407a25.1,25.1,0,0,1-25.073,25.074H114.131A25.1,25.1,0,0,1,89.057,301.287Zm66.378,25.074a32.023,32.023,0,0,0,12.107-25.074V266.216a63.749,63.749,0,0,0,15.874,3.4,78.216,78.216,0,0,0-2.377,18.34,3.5,3.5,0,0,0,7,0,72.387,72.387,0,0,1,2.5-17.888,120.648,120.648,0,0,0,12.578-.243,36.846,36.846,0,0,1,5.124,14.529,3.5,3.5,0,0,0,6.957-.773,42.879,42.879,0,0,0-4.537-14.615q3.131-.5,5.786-1.17c1.762,2.667,14.152,22.214,14.771,45.071a3.5,3.5,0,0,0,3.5,3.406l.1,0a3.5,3.5,0,0,0,3.405-3.593c-.6-22.264-11.094-41.037-14.892-47.132a27.06,27.06,0,0,0,10.4-7.074c7.3,9.535,25.018,35.643,28.159,67.886Zm107.3-49.646c1.729,5.74,9.132-.4,12.42,2.838,2.046,1.468,1.332,5.034,1.4,7.159C273,287,262.407,288.97,259,288.263a160.6,160.6,0,0,0-11.164-21.538,30.812,30.812,0,0,0,12.918,2.25Zm12.979-22.178c-10.5,11.784-25.67,7.92-36.816-.806-1.177-1.525-2.059-2.6-2.551-3.182a82.29,82.29,0,0,1-2.911-8.959c1.988-5.822,7.18-14.378,20.618-22.5a3.522,3.522,0,0,0,.922-5.181,153.75,153.75,0,0,1-10.747-16.073c2.486-10.221-.3-22.3-7.268-32.575-6.86-10.061-10.838-22.887-12.183-27.729,2.555-2,8.189-5.116,14.576-.412C248.511,143.779,306.207,216.716,275.711,254.537Zm-35.062-144.68a57.327,57.327,0,0,1,9.769,28.788c-3.559-3.987-5.984-6.351-6.358-6.711-9.389-7.589-19.43-3.582-24.224.582-3.02-.721-6.048-1.319-9.047-1.788-.433-2.545-.2-10.354-.253-13.033,9.633-9.069,7.8-19.919,7.907-31.975A13,13,0,0,0,207.8,73.035c-10.323-1.965-12.445-8.718-12.518-8.96a3.507,3.507,0,0,0-6.88.811,16.451,16.451,0,0,1-4,9.711c-6.047-3.3-7.13-7.565-7.2-7.852a3.5,3.5,0,0,0-3.007-2.778c-6.912-1.174-7.265,21.548-7.1,35.781a25.7,25.7,0,0,0,11.368,20.707c-.038,2.515.143,7.785-.245,10.214-2.781.435-5.568.983-8.334,1.648-6.895-8.83-20.093-7.37-39.327,1.27a73.347,73.347,0,0,1,17.028-26.813A32.714,32.714,0,0,0,157.305,83.4c-.773-14.911,4.615-30.548,17.259-37.99a33.922,33.922,0,0,1,22.967-4.213c23.741,3.731,30.624,23.272,32.217,39.008A64.262,64.262,0,0,0,240.649,109.857Zm-77.911-74.48c7.671-10.608,24.594-18.857,45.322-21.7a1.075,1.075,0,0,1,1.213,1.191L208.3,22.32a3.5,3.5,0,0,0,1.9,3.578c.683.344,14.8,7.663,14.513,22.4-16.926-19.882-51.44-19.735-66.183,2.967A23.051,23.051,0,0,1,162.738,35.377Z"/></svg>