<svg xmlns="http://www.w3.org/2000/svg" xmlns:xlink="http://www.w3.org/1999/xlink" viewBox="0 0 340 340" width="500px" height="500px"><defs><linearGradient id="Ork7zAsiLXKifAhqDCCN_d" x1="286.72" x2="286.72" y1="345.206" y2="305.25" gradientUnits="userSpaceOnUse"><stop offset="0" stop-color="#e3948c"/><stop offset="1" stop-color="#d67d76"/></linearGradient><linearGradient id="Ork7zAsiLXKifAhqDCCN_a" x1="277.494" x2="277.494" y1="58.916" y2="342.456" gradientUnits="userSpaceOnUse"><stop offset="0" stop-color="#7a7c98"/><stop offset="1" stop-color="#56586b"/></linearGradient><linearGradient id="Ork7zAsiLXKifAhqDCCN_b" x1="305.751" x2="280.603" y1="258.048" y2="293.175" gradientUnits="userSpaceOnUse"><stop offset="0" stop-color="#e8d792"/><stop offset="1" stop-color="#e8a362"/></linearGradient><linearGradient id="Ork7zAsiLXKifAhqDCCN_c" x1="296.751" x2="275.994" y1="246.398" y2="274.539" gradientUnits="userSpaceOnUse"><stop offset="0" stop-color="#e5c380"/><stop offset="1" stop-color="#e58f50"/></linearGradient><linearGradient id="Ork7zAsiLXKifAhqDCCN_h" x1="122.128" x2="122.128" y1="122.432" y2="323.388" xlink:href="#Ork7zAsiLXKifAhqDCCN_a"/><linearGradient id="Ork7zAsiLXKifAhqDCCN_i" x1="238.757" x2="238.757" y1="64.207" y2="328.157" xlink:href="#Ork7zAsiLXKifAhqDCCN_a"/><linearGradient id="Ork7zAsiLXKifAhqDCCN_j" x1="197.672" x2="197.858" y1="112.645" y2="184.5" gradientUnits="userSpaceOnUse"><stop offset="0" stop-color="#afbdd8"/><stop offset="1" stop-color="#99abc7"/></linearGradient><linearGradient id="Ork7zAsiLXKifAhqDCCN_k" x1="246.266" x2="246.266" y1="164.994" y2="189.343" xlink:href="#Ork7zAsiLXKifAhqDCCN_b"/><linearGradient id="Ork7zAsiLXKifAhqDCCN_l" x1="161.985" x2="176.266" y1="107.015" y2="181.482" xlink:href="#Ork7zAsiLXKifAhqDCCN_a"/><linearGradient id="Ork7zAsiLXKifAhqDCCN_m" x1="263.132" x2="236.388" y1="179.071" y2="173.699" xlink:href="#Ork7zAsiLXKifAhqDCCN_c"/><linearGradient id="Ork7zAsiLXKifAhqDCCN_n" x1="215.72" x2="215.72" y1="121.596" y2="211.664" xlink:href="#Ork7zAsiLXKifAhqDCCN_a"/><linearGradient id="Ork7zAsiLXKifAhqDCCN_f" x1="234.335" x2="249.952" y1="203.168" y2="208.048" gradientUnits="userSpaceOnUse"><stop offset="0" stop-color="#faffff"/><stop offset="1" stop-color="#e4ffff"/></linearGradient><linearGradient id="Ork7zAsiLXKifAhqDCCN_o" x1="241.5" x2="238.254" y1="216.254" y2="237.987" xlink:href="#Ork7zAsiLXKifAhqDCCN_b"/><linearGradient id="Ork7zAsiLXKifAhqDCCN_p" x1="193.443" x2="193.443" y1="58.224" y2="109.684" xlink:href="#Ork7zAsiLXKifAhqDCCN_d"/><linearGradient id="Ork7zAsiLXKifAhqDCCN_q" x1="215.127" x2="199.401" y1="61.042" y2="37.944" xlink:href="#Ork7zAsiLXKifAhqDCCN_a"/><linearGradient id="Ork7zAsiLXKifAhqDCCN_r" x1="183.466" x2="183.466" y1="53.111" y2="261.546" xlink:href="#Ork7zAsiLXKifAhqDCCN_a"/><linearGradient id="Ork7zAsiLXKifAhqDCCN_s" x1="136.051" x2="136.051" y1="48.19" y2="80.644" xlink:href="#Ork7zAsiLXKifAhqDCCN_d"/><linearGradient id="Ork7zAsiLXKifAhqDCCN_t" x1="83.35" x2="94.501" y1="79.546" y2="110.716" xlink:href="#Ork7zAsiLXKifAhqDCCN_b"/><linearGradient id="Ork7zAsiLXKifAhqDCCN_e" x1="154.413" x2="148.123" y1="238.627" y2="252.751" gradientUnits="userSpaceOnUse"><stop offset="0" stop-color="#dbf6ff"/><stop offset="1" stop-color="#c5e2ff"/></linearGradient><linearGradient id="Ork7zAsiLXKifAhqDCCN_u" x1="140.986" x2="157.428" y1="210.144" y2="223.924" xlink:href="#Ork7zAsiLXKifAhqDCCN_b"/><linearGradient id="Ork7zAsiLXKifAhqDCCN_v" x1="255.889" x2="278.937" y1="120.36" y2="144.08" xlink:href="#Ork7zAsiLXKifAhqDCCN_b"/><linearGradient id="Ork7zAsiLXKifAhqDCCN_w" x1="108.674" x2="141.831" y1="120.693" y2="131.009" xlink:href="#Ork7zAsiLXKifAhqDCCN_b"/><linearGradient id="Ork7zAsiLXKifAhqDCCN_x" x1="113.828" x2="106.653" y1="63.793" y2="109.299" xlink:href="#Ork7zAsiLXKifAhqDCCN_c"/><linearGradient id="Ork7zAsiLXKifAhqDCCN_y" x1="112.134" x2="136.852" y1="121.077" y2="131.255" xlink:href="#Ork7zAsiLXKifAhqDCCN_c"/><linearGradient id="Ork7zAsiLXKifAhqDCCN_z" x1="170.387" x2="158.251" y1="206.491" y2="223.716" xlink:href="#Ork7zAsiLXKifAhqDCCN_c"/><linearGradient id="Ork7zAsiLXKifAhqDCCN_A" x1="211.45" x2="218.87" y1="29.047" y2="47.855" xlink:href="#Ork7zAsiLXKifAhqDCCN_e"/><linearGradient id="Ork7zAsiLXKifAhqDCCN_g" x1="219.389" x2="221.517" y1="27.255" y2="44.763" gradientUnits="userSpaceOnUse"><stop offset=".004" stop-color="#bbdaff"/><stop offset="1" stop-color="#91baff"/></linearGradient><linearGradient id="Ork7zAsiLXKifAhqDCCN_B" x1="153.148" x2="131.655" y1="194.484" y2="209.619" xlink:href="#Ork7zAsiLXKifAhqDCCN_f"/><linearGradient id="Ork7zAsiLXKifAhqDCCN_C" x1="154.113" x2="172.764" y1="194.172" y2="209.994" gradientUnits="userSpaceOnUse"><stop offset="0" stop-color="#ff6387"/><stop offset="1" stop-color="#e74b74"/></linearGradient><linearGradient id="Ork7zAsiLXKifAhqDCCN_D" x1="148.541" x2="161.01" y1="261.702" y2="247.909" xlink:href="#Ork7zAsiLXKifAhqDCCN_g"/><linearGradient id="Ork7zAsiLXKifAhqDCCN_E" x1="252.275" x2="240.985" y1="219.296" y2="238.208" xlink:href="#Ork7zAsiLXKifAhqDCCN_c"/><linearGradient id="Ork7zAsiLXKifAhqDCCN_F" x1="233.213" x2="246.356" y1="200.494" y2="209.358" gradientUnits="userSpaceOnUse"><stop offset="0" stop-color="#dbe0e0"/><stop offset="1" stop-color="#c5e0e0"/></linearGradient><linearGradient id="Ork7zAsiLXKifAhqDCCN_G" x1="270.967" x2="266.502" y1="98.638" y2="137.366" xlink:href="#Ork7zAsiLXKifAhqDCCN_c"/></defs><path fill="url(#Ork7zAsiLXKifAhqDCCN_d)" d="M306.511,303.512h0a23.3,23.3,0,0,1-23.178,25.661h-1.868l-14.659-22.747S285.08,297.5,306.511,303.512Z"/><polygon fill="#b75858" points="278.209 303.493 266.806 306.426 266.806 329.173 281.465 329.173 278.209 303.493"/><path fill="url(#Ork7zAsiLXKifAhqDCCN_a)" d="M306.511,303.512,304.5,283.76a31.29,31.29,0,0,1-1.462-14.32c-2.885-28.379-9.691-96.056-10.014-106.043-.41-12.691-6.036-15.513-6.036-15.513-42.6,11.906-43.775,88.806-32.347,130.967l23.834,26.719Z"/><path fill="#34363a" d="M278.209,303.493c4.472-2.425,4.321-9.125,4.321-9.125l-6.145-42.83a517.458,517.458,0,0,1-2.494-51.721c-.013-4.458-6.452-4.978-7.226-.588-5.159,29.218-3.459,67.019.141,107.2l11.666-.856Z"/><path fill="url(#Ork7zAsiLXKifAhqDCCN_b)" d="M303.035,269.44,279.2,271.171c-1.486,4.893-.638,9.624,2.041,14.229l23.254-1.64S303.815,277.114,303.035,269.44Z"/><path fill="url(#Ork7zAsiLXKifAhqDCCN_c)" d="M264.427,272.245c.232,5.2.506,10.013.782,14.286l16.034-1.131L279.2,271.171Z"/><polygon fill="#34363a" points="269.921 282.441 274.36 329.173 125.924 329.173 135.787 279.729 269.921 282.441"/><path fill="url(#Ork7zAsiLXKifAhqDCCN_h)" d="M202.731,292.369,188.805,315.3s-32.063,3.411-61.968-10.634a8.129,8.129,0,0,1-4.214-10.188c.534-1.428,1.172-3,1.919-4.632a22.824,22.824,0,0,0,2.016-8.655c.609-16.38,1.436-68.3-11.155-92.041-30.8-4.6-63.8-8.828-73.188-17.041q-.65-.956-1.217-1.977l-5.18-9.343a19.552,19.552,0,0,1,.9-20.417c7.558-11.206,20.8-30.172,35.717-48.521,6.074-2.478,10.01-6.169,10.126-12.027,4.249-4.856,8.557-9.525,12.84-13.833a2.548,2.548,0,0,1,3.5-.1l28.025,24.888-11.356,18.433c-3.99,2.573-7.1,6.057-7.569,12.286l-8.239,13.372s42.345-17.812,65.167-21.946l45.968,78.719Z"/><path fill="#34363a" d="M154.522,119.991s-7.892,3.212-10.99,13.947c-2.752,9.536-3.392,21.324-3.392,21.324a2.3,2.3,0,0,0,2.416,2.795l11.966-.863-6.343,10.022a3.11,3.11,0,0,0,.315,3.753c5.231,5.773,23.423,23.762,50.794,28.539l3.443-6.922Z"/><path fill="#34363a" d="M122.128,143.134l27.032-9.2s9.952-13.018,11-13.947,2.933-6.585,2.933-6.585l-.039-.115c-15.1,3.068-37.374,11.293-51.078,16.658l-2.523,4.578S112.5,145.525,122.128,143.134Z"/><path fill="#34363a" d="M183.185,205.982V275.2a38.639,38.639,0,0,0,7.311,22.617l4.849,6.717,7.386-12.163,8.158-100.72-3.639-6.231-34.53,4.566S183.185,194.652,183.185,205.982Z"/><path fill="url(#Ork7zAsiLXKifAhqDCCN_i)" d="M190.528,203.559v73.47a24,24,0,0,0,4.74,14.319l17.7,21.546s30.818,2.577,56-11.894a11.746,11.746,0,0,0,5.7-12.43c-4.556-23.311-15.2-94.286,12.313-140.686l-55.518-30.327-9.9,22.983-2.023,29.743Z"/><path fill="#fff" d="M170.155,109.946l45.671-4.748s10.524,54.121-12.671,80.077C203.155,185.275,159.142,151.837,170.155,109.946Z"/><path fill="#34363a" d="M263.374,180.059v5.072a2.7,2.7,0,0,1-2.7,2.695h-28.3l7.015-8.015Z"/><path fill="url(#Ork7zAsiLXKifAhqDCCN_j)" d="M183.625,108.546l-6.429,7.417s6.905,12.661,24.049,14.446a6.585,6.585,0,0,1,5.882,5.979c.669,7.693.609,21.933-6.316,35.718a55.056,55.056,0,0,0-3.384,8.214c3.421,3.2,5.728,4.955,5.728,4.955,23.195-25.956,12.671-80.077,12.671-80.077Z"/><path fill="#34363a" d="M195.746,137.64h2.961a2.227,2.227,0,0,1,2.014,1.266c2.078,4.351,8.742,19.222,10.168,33.805l-8.158,16.442-15.043-17.695s1.59-19.032,5.928-32.261A2.247,2.247,0,0,1,195.746,137.64Z"/><rect width="34.216" height="14.997" x="229.158" y="167.107" fill="url(#Ork7zAsiLXKifAhqDCCN_k)" rx="2.045"/><path fill="#34363a" d="M254.638,206.325a10.364,10.364,0,0,0-5.049-1.983H235.554c-2.335,0-5.506-.021-6.4,1.983,0,0,.8,5.095,1.021,5.709l.011.007a5.718,5.718,0,0,0,5.364,3.746h14.035c3.16,0,5.29-2.025,5.29-5.723Z"/><path fill="url(#Ork7zAsiLXKifAhqDCCN_l)" d="M176.564,101.231A124.043,124.043,0,0,1,160.2,112.855a12.835,12.835,0,0,0-5.675,7.127,232.7,232.7,0,0,0-7.153,27.6,2.149,2.149,0,0,0,2.107,2.542h15.442a34.837,34.837,0,0,1-4.22,12.989,3.171,3.171,0,0,0,.271,3.669c3.418,4.08,12.94,14.186,29.785,23.041,4.166-2.429,6.218-6.332,7.6-10.7C187.381,164.165,169.726,133.933,176.564,101.231Z"/><path fill="#34363a" d="M206.338,188.921a109.1,109.1,0,0,1-7.982-9.8,61.116,61.116,0,0,1-7.428,10.791c3.053,1.6,6.343,3.157,9.883,4.63Z"/><path fill="#b75858" d="M194.1,123.646h-1.71a18.87,18.87,0,0,1-18.87-18.87V93.894h39.45l.5,11.3C213.468,115.619,204.523,123.646,194.1,123.646Z"/><path fill="#34363a" d="M203.845,215.744c16.233-8.394,30.781-23.635,39.036-33.64l7.922-15-11.27-14.048,6.593.832a2.3,2.3,0,0,0,2.577-2.539,208.89,208.89,0,0,0-5.176-27.207l-12.06-6.588-9.9,22.983-2.023,29.743-34.26,37.37,7.253,6.58A10.005,10.005,0,0,0,203.845,215.744Z"/><path fill="url(#Ork7zAsiLXKifAhqDCCN_m)" d="M229.158,169.151v10.908A2.045,2.045,0,0,0,231.2,182.1h11.678c4.357-5.281,7.369-9.6,8.741-11.648a2.085,2.085,0,0,0-.109-2.465l-.71-.883H231.2A2.045,2.045,0,0,0,229.158,169.151Z"/><path fill="url(#Ork7zAsiLXKifAhqDCCN_n)" d="M213.169,101.86c1.149,11.466,5.953,74.065-22.641,101.7l5.377,3.84a5.69,5.69,0,0,0,6.661-.024c6.627-4.831,21.689-17.542,35.087-41.306a3.145,3.145,0,0,0-.121-3.268l-10.548-15.977,12.193-2.373a2.138,2.138,0,0,0,1.719-2.358,166.542,166.542,0,0,0-4.756-24.434,10.468,10.468,0,0,0-5.947-6.7,63.474,63.474,0,0,1-15.844-9.72A.72.72,0,0,0,213.169,101.86Z"/><path fill="#34363a" d="M251.04,222.331l0-.01a11.739,11.739,0,0,0-14.576,18.406l.007,0a11.73,11.73,0,1,0,14.565-18.392Z"/><path fill="url(#Ork7zAsiLXKifAhqDCCN_f)" d="M229.506,208.3a5.716,5.716,0,0,1-.348-1.97h0a5.722,5.722,0,0,1,5.723-5.722h14.035a5.7,5.7,0,0,1,3.74,1.391s4.148,5.852-2.947,8.341A23.232,23.232,0,0,1,229.506,208.3Z"/><path fill="url(#Ork7zAsiLXKifAhqDCCN_o)" d="M236.581,236.016a9.377,9.377,0,1,1,11.6-14.648A29.361,29.361,0,0,1,236.581,236.016Z"/><path fill="#b75858" d="M166.943,82.02s-13.5,1.459-14.712-11.794,4.611-18,12.823-18.6Z"/><path fill="#b75858" d="M219.548,82.02s13.5,1.459,14.712-11.794-4.61-18-12.822-18.6Z"/><path fill="url(#Ork7zAsiLXKifAhqDCCN_p)" d="M196.855,105.2h-7.218a23.536,23.536,0,0,1-23.521-22.7l-.434-12.624C176.112,55.91,221.205,58.4,221.205,58.4l-.83,24.1A23.536,23.536,0,0,1,196.855,105.2Z"/><path fill="#b75858" d="M164.921,47.764l.761,22.108a47.836,47.836,0,0,0,15.621-7.01,8.693,8.693,0,0,1,5.363-1.515c13.461.763,27.967-1.656,34.539-2.952l1.667-10.631Z"/><path fill="url(#Ork7zAsiLXKifAhqDCCN_q)" d="M216.914,14.121S234.4,18.029,231.038,45.6a6.157,6.157,0,0,1-5.074,5.306c-9.7,1.665-33.865,4.929-55.809.769C170.155,51.674,180.044,14.121,216.914,14.121Z"/><path fill="#34363a" d="M202.731,33.911c2.939-13.952,10.047-19.49,10.224-19.626-33.616,2.57-42.8,37.389-42.8,37.389a125.687,125.687,0,0,0,21.62,2.011C197.584,47.2,201.461,39.942,202.731,33.911Z"/><path fill="url(#Ork7zAsiLXKifAhqDCCN_r)" d="M192.365,37.288a123.189,123.189,0,0,0,6.8-10.422s6.828-11.607,17.753-12.745c0,0-42.932-13.635-65.77,14.574,0,0-5.65,13,8.363,22.282S192.365,37.288,192.365,37.288Z"/><path fill="#34363a" d="M164.008,44.035c-11.782-2.584-13.925-8.5-12.864-15.34-5.146,6.475-9.262,15.124-11.612,26.62L153.016,64.3s19.291.451,39.34-27.019C189.836,40.17,182.255,48.036,164.008,44.035Z"/><path fill="#34363a" d="M115.562,109.218l11.356-18.433-10.524-9.346L81.51,135.416a3.665,3.665,0,0,0,4.526,5.356l13.718-5.9,8.239-13.372C108.46,115.275,111.572,111.791,115.562,109.218Z"/><path fill="url(#Ork7zAsiLXKifAhqDCCN_s)" d="M165.162,54.462l-.121-1.755a1.794,1.794,0,0,0-1.852-1.669L127.159,52.3a18.312,18.312,0,0,0-11.7,4.776l-8.518,7.776c5.728,5.82,12.176,10.759,21.737,11.882Z"/><path fill="#b75858" d="M165.367,57.424l-.2-2.962-27.724,8.724a17.993,17.993,0,0,0-6.36,3.545l-3.984,3.438a5.209,5.209,0,0,1-5.418.861L106.94,64.856l-4.546,4.15,24.524,21.779,7.8-11.157a13.294,13.294,0,0,1,5.737-4.637l19.035-8.014A9.645,9.645,0,0,0,165.367,57.424Z"/><path fill="url(#Ork7zAsiLXKifAhqDCCN_t)" d="M82.559,79.829c-3.429,3.919-6.819,7.955-10.128,12.026,9.519,4.932,18.405,12.324,25.122,18.737,5.777-2.072,8-6.38,7.87-12.176A215.189,215.189,0,0,0,82.559,79.829Z"/><path fill="#34363a" d="M153.084,247.665a3,3,0,0,1-3-3V224.239a3,3,0,1,1,6,0v20.426A3,3,0,0,1,153.084,247.665Z"/><path fill="#34363a" d="M165.5,215.557h-5.419l-20.655,4.726v3.254a6.37,6.37,0,0,0,6.37,6.37h18.059a6.371,6.371,0,0,0,6.371-6.37v-3.254A4.726,4.726,0,0,0,165.5,215.557Z"/><circle cx="184.08" cy="70.184" r="3.607" fill="#b75858"/><circle cx="202.731" cy="70.184" r="3.607" fill="#b75858"/><path fill="#34363a" d="M161.846,242.548l0-.009a10.558,10.558,0,0,0-6.654-2.358A10.893,10.893,0,0,0,144.434,251.2a11.1,11.1,0,0,0,4.052,8.617l.006,0a10.559,10.559,0,0,0,6.7,2.408A10.894,10.894,0,0,0,165.959,251.2,11.088,11.088,0,0,0,161.846,242.548Z"/><path fill="url(#Ork7zAsiLXKifAhqDCCN_e)" d="M147.209,257.527a9.377,9.377,0,0,1,11.642-14.7C156.509,249.617,152.827,254.762,147.209,257.527Z"/><path fill="url(#Ork7zAsiLXKifAhqDCCN_u)" d="M161.875,226.891H144.292a6.608,6.608,0,0,1-6.608-6.608h0a6.609,6.609,0,0,1,6.608-6.608h17.583a6.609,6.609,0,0,1,6.609,6.608h0A6.608,6.608,0,0,1,161.875,226.891Z"/><path fill="#34363a" d="M269.166,152.367s7.781,3.716,12.482-6.842l-3.468-2.451-37.214-20.328-.4.333,4.824,17.292Z"/><path fill="url(#Ork7zAsiLXKifAhqDCCN_v)" d="M250.608,126.021a8.253,8.253,0,0,1,11.257-3.985l18.662,9.444a7.483,7.483,0,0,1,4.062,7.469s-3.549,9.947-24.542-1.075C251.008,133.128,250.608,126.021,250.608,126.021Z"/><path fill="url(#Ork7zAsiLXKifAhqDCCN_w)" d="M133.98,114.043a8.179,8.179,0,0,0-2.158.5l-19.31,7.312a7.384,7.384,0,0,0-4.263,9.6l1.2,3.078q.087.224.188.438c4.675,4.375,17.066-.8,29.407-5.922C141.364,120.227,139.377,115.511,133.98,114.043Z"/><path fill="url(#Ork7zAsiLXKifAhqDCCN_x)" d="M107.993,121.5l7.569-12.286a116.39,116.39,0,0,0-10.143-10.8l-7.867,12.172C102.292,115.12,105.954,119.16,107.993,121.5Z"/><path fill="#34363a" d="M67.233,175.937c-11.632.77-19.78-1.441-25.01-3.831A25.6,25.6,0,0,0,58.878,182.9c24.13,4.33,56.525,6.255,56.525,6.255a119.814,119.814,0,0,0-5.486-12.353,6.641,6.641,0,0,0-6.465-3.577C96.921,173.773,83.506,174.86,67.233,175.937Z"/><path fill="url(#Ork7zAsiLXKifAhqDCCN_y)" d="M143.129,121.7l-.675-2.068a8.145,8.145,0,0,0-8.473-5.582c.424.218,2.34,1.366,4.036,5.1l.427,1.328a5.777,5.777,0,0,1-3.333,7.121L116.6,135.1a11.038,11.038,0,0,1-6.949-.137,7.381,7.381,0,0,0,9.166,3.832L138.12,131.9A8.149,8.149,0,0,0,143.129,121.7Z"/><path fill="url(#Ork7zAsiLXKifAhqDCCN_z)" d="M161.875,213.675H157.19l-10.466,13.216h15.151a6.608,6.608,0,1,0,0-13.216Z"/><path fill="url(#Ork7zAsiLXKifAhqDCCN_A)" d="M216.914,27.465a1.714,1.714,0,0,0-.869.237,31.258,31.258,0,0,1-5.557,2.671,1.963,1.963,0,0,0-1.36,1.888v4.882a7.218,7.218,0,0,0,1.438,4.394A10.939,10.939,0,0,0,216.1,45.58a2.931,2.931,0,0,0,.813.116A35.617,35.617,0,0,0,216.914,27.465Z"/><path fill="#34363a" d="M135.036,204.456s-.671,6.441,4.62,6.441h30.09a3.974,3.974,0,0,0,3.974-3.974v-7.6a4.169,4.169,0,0,0-4.169-4.17h-.927Z"/><path fill="url(#Ork7zAsiLXKifAhqDCCN_g)" d="M223.339,30.373a31.246,31.246,0,0,1-5.556-2.671,1.714,1.714,0,0,0-.869-.237V45.7a2.942,2.942,0,0,0,.813-.116,10.937,10.937,0,0,0,5.534-4.043,7.219,7.219,0,0,0,1.439-4.394V32.261A1.962,1.962,0,0,0,223.339,30.373Z"/><path fill="url(#Ork7zAsiLXKifAhqDCCN_B)" d="M153.084,193.673H137.543a2.506,2.506,0,0,0-2.507,2.507v8.2a2.507,2.507,0,0,0,2.507,2.507h15.541A17.2,17.2,0,0,0,153.084,193.673Z"/><path fill="url(#Ork7zAsiLXKifAhqDCCN_C)" d="M168.624,193.673h-15.54v13.216h15.54a2.508,2.508,0,0,0,2.508-2.507v-8.2A2.507,2.507,0,0,0,168.624,193.673Z"/><path fill="url(#Ork7zAsiLXKifAhqDCCN_D)" d="M158.846,242.831l-11.634,14.692a9.37,9.37,0,1,0,11.634-14.692Z"/><path fill="url(#Ork7zAsiLXKifAhqDCCN_E)" d="M248.175,221.375l-11.592,14.638a9.369,9.369,0,0,0,11.592-14.638Z"/><path fill="url(#Ork7zAsiLXKifAhqDCCN_F)" d="M254.638,206.325A5.7,5.7,0,0,0,252.653,202c.349,1.418.827,4.6-1.28,6.476a4.312,4.312,0,0,1-2.881,1.009H235.059a12.74,12.74,0,0,1-5.4-1.117c-.049-.023-.1-.05-.147-.074a5.72,5.72,0,0,0,5.369,3.756h14.035A5.722,5.722,0,0,0,254.638,206.325Z"/><path fill="url(#Ork7zAsiLXKifAhqDCCN_G)" d="M282.243,144.574l1.544-2.97a7.444,7.444,0,0,0,.8-2.656,8.253,8.253,0,0,1-10.323,2.263s-7.7-3.707-16.274-8.051c-5.4-2.734-6.964-5.466-7.387-7.117l-.892,1.988a8.255,8.255,0,0,0,3.945,10.814l18.7,9.018A7.48,7.48,0,0,0,282.243,144.574Z"/></svg>