<svg xmlns="http://www.w3.org/2000/svg" xmlns:xlink="http://www.w3.org/1999/xlink" viewBox="0 0 340 340" width="500px" height="500px"><defs><linearGradient id="U0TLmspeWJaUlFzzgkYHMa" x1="154.49" x2="242.324" y1="342.13" y2="318.738" gradientUnits="userSpaceOnUse"><stop offset="0" stop-color="#dba676"/><stop offset="1" stop-color="#c2715b"/></linearGradient><linearGradient id="U0TLmspeWJaUlFzzgkYHMc" x1="218.729" x2="220.936" y1="278.435" y2="343.758" gradientUnits="userSpaceOnUse"><stop offset="0" stop-color="#fcd09f"/><stop offset="1" stop-color="#eda07a"/></linearGradient><linearGradient id="U0TLmspeWJaUlFzzgkYHMf" x1="149.338" x2="237.172" y1="322.787" y2="299.394" xlink:href="#U0TLmspeWJaUlFzzgkYHMa"/><linearGradient id="U0TLmspeWJaUlFzzgkYHMg" x1="82.536" x2="251.618" y1="40.931" y2="116.378" gradientUnits="userSpaceOnUse"><stop offset="0" stop-color="#c6b78c"/><stop offset="1" stop-color="#94875b"/></linearGradient><linearGradient id="U0TLmspeWJaUlFzzgkYHMb" x1="77.497" x2="360.759" y1="40.893" y2="185.64" gradientUnits="userSpaceOnUse"><stop offset="0" stop-color="#96895b"/><stop offset="1" stop-color="#64592a"/></linearGradient><linearGradient id="U0TLmspeWJaUlFzzgkYHMh" x1="88.672" x2="371.935" y1="19.023" y2="163.77" gradientTransform="rotate(-18.401 138.953 44.717)" xlink:href="#U0TLmspeWJaUlFzzgkYHMb"/><linearGradient id="U0TLmspeWJaUlFzzgkYHMi" x1="239.047" x2="238.566" y1="108.835" y2="234.938" xlink:href="#U0TLmspeWJaUlFzzgkYHMc"/><linearGradient id="U0TLmspeWJaUlFzzgkYHMj" x1="246.121" x2="247.004" y1="207.723" y2="277.019" xlink:href="#U0TLmspeWJaUlFzzgkYHMa"/><linearGradient id="U0TLmspeWJaUlFzzgkYHMe" x1="223.4" x2="223.4" y1="80.157" y2="125.519" gradientUnits="userSpaceOnUse"><stop offset="0" stop-color="#e3948c"/><stop offset="1" stop-color="#d67d76"/></linearGradient><linearGradient id="U0TLmspeWJaUlFzzgkYHMk" x1="216.304" x2="232.731" y1="111.872" y2="187.955" xlink:href="#U0TLmspeWJaUlFzzgkYHMa"/><linearGradient id="U0TLmspeWJaUlFzzgkYHMl" x1="208.425" x2="230.451" y1="26.034" y2="66.025" xlink:href="#U0TLmspeWJaUlFzzgkYHMc"/><linearGradient id="U0TLmspeWJaUlFzzgkYHMm" x1="208.384" x2="239.92" y1="19.979" y2="82.209" gradientUnits="userSpaceOnUse"><stop offset="0" stop-color="#e5b080"/><stop offset="1" stop-color="#cc7b65"/></linearGradient><linearGradient id="U0TLmspeWJaUlFzzgkYHMn" x1="238.119" x2="237.667" y1="109.446" y2="227.624" xlink:href="#U0TLmspeWJaUlFzzgkYHMc"/><linearGradient id="U0TLmspeWJaUlFzzgkYHMd" x1="226.287" x2="227.987" y1="226.135" y2="262.955" gradientUnits="userSpaceOnUse"><stop offset="0" stop-color="#e0867b"/><stop offset="1" stop-color="#bc6551"/></linearGradient><linearGradient id="U0TLmspeWJaUlFzzgkYHMo" x1="223.931" x2="231.604" y1="194.365" y2="265.342" xlink:href="#U0TLmspeWJaUlFzzgkYHMd"/><linearGradient id="U0TLmspeWJaUlFzzgkYHMp" x1="196.661" x2="199.494" y1="227.587" y2="263.558" xlink:href="#U0TLmspeWJaUlFzzgkYHMd"/><linearGradient id="U0TLmspeWJaUlFzzgkYHMq" x1="195.81" x2="202.582" y1="201.515" y2="264.156" xlink:href="#U0TLmspeWJaUlFzzgkYHMd"/><linearGradient id="U0TLmspeWJaUlFzzgkYHMr" x1="170.885" x2="170.885" y1="142.044" y2="198.644" xlink:href="#U0TLmspeWJaUlFzzgkYHMe"/><linearGradient id="U0TLmspeWJaUlFzzgkYHMs" x1="252.315" x2="253.731" y1="233.762" y2="266.901" xlink:href="#U0TLmspeWJaUlFzzgkYHMd"/><linearGradient id="U0TLmspeWJaUlFzzgkYHMt" x1="77.343" x2="360.605" y1="41.194" y2="185.942" xlink:href="#U0TLmspeWJaUlFzzgkYHMb"/><linearGradient id="U0TLmspeWJaUlFzzgkYHMu" x1="248.338" x2="256.105" y1="191.035" y2="262.881" xlink:href="#U0TLmspeWJaUlFzzgkYHMd"/><linearGradient id="U0TLmspeWJaUlFzzgkYHMv" x1="198.299" x2="214.726" y1="115.759" y2="191.842" xlink:href="#U0TLmspeWJaUlFzzgkYHMa"/><linearGradient id="U0TLmspeWJaUlFzzgkYHMw" x1="191.434" x2="203.476" y1="156.607" y2="199.757" xlink:href="#U0TLmspeWJaUlFzzgkYHMc"/></defs><path fill="url(#U0TLmspeWJaUlFzzgkYHMa)" d="M280.982,285.716s8.219,10.191,7.253,43.52H256.449S263.269,309.213,280.982,285.716Z"/><path fill="url(#U0TLmspeWJaUlFzzgkYHMc)" d="M197.924,295.632A157.282,157.282,0,0,0,171.6,323.181a3.79,3.79,0,0,0,3.032,6.055h81.82A116.094,116.094,0,0,0,269.368,312.8l-26.774-20.1C226.974,289.652,211.869,289.441,197.924,295.632Z"/><path fill="url(#U0TLmspeWJaUlFzzgkYHMf)" d="M280.982,285.716,214.307,283.5a194.377,194.377,0,0,0-16.38,12.132c.192-.035,26.339-4.694,47.463,9.227,9.182,6.05,17.5,7.843,23.978,7.936C274.336,305.177,279.238,295.622,280.982,285.716Z"/><polygon fill="#b75858" points="213.787 125.883 217.826 141.072 236.674 124.321 213.787 125.883"/><path fill="url(#U0TLmspeWJaUlFzzgkYHMg)" d="M40.543,44.34l6.82-20.5,61.626,20.5a19.43,19.43,0,0,0,16.1,5.357l62.583,20.82,2.482.042,35.075,11.9-18.595,29.4Z"/><polygon fill="url(#U0TLmspeWJaUlFzzgkYHMb)" points="295.709 154.055 309.966 111.2 251.639 91.415 249.206 112.179 42.802 44.34 39.909 46.248 33.107 66.694 206.163 124.265 232.825 119.734 248.424 138.325 295.709 154.055"/><path fill="#63533b" d="M27.18,71.143,12.71,67.764l18.963-57,13.61,5.962a8.676,8.676,0,0,1,4.751,10.685L37.385,65.433A8.675,8.675,0,0,1,27.18,71.143Z"/><path fill="#34363a" d="M294.717,160.146l13.61,5.962,18.963-57-14.47-3.379a8.675,8.675,0,0,0-10.2,5.709l-12.649,38.023A8.676,8.676,0,0,0,294.717,160.146Z"/><path fill="url(#U0TLmspeWJaUlFzzgkYHMh)" d="M124.468,35.614h36.987a0,0,0,0,1,0,0v18.2a0,0,0,0,1,0,0h-45a0,0,0,0,1,0,0V43.632A8.018,8.018,0,0,1,124.468,35.614Z" transform="rotate(18.401 138.952 44.716)"/><path fill="#34363a" d="M161.449,28.729h7.373a0,0,0,0,1,0,0V60.888a0,0,0,0,1,0,0H153.849a0,0,0,0,1,0,0V36.33A7.6,7.6,0,0,1,161.449,28.729Z" transform="rotate(18.401 161.336 44.81)"/><path fill="url(#U0TLmspeWJaUlFzzgkYHMi)" d="M270.707,130.21s11.484,37.348,11.484,80.8v28.479L279.6,292.017l-13.825,1.413a136.652,136.652,0,0,1-16.476-2.813c-22.293-5.164-38.582-3.962-46.92-2.6a6.553,6.553,0,0,1-6.449-10.186c.049-.069.1-.139.15-.208a17.576,17.576,0,0,0,1.941-5.173l15.744-20.184c1.742-18.931-9.222-50.035-12.144-65.212Z"/><path fill="url(#U0TLmspeWJaUlFzzgkYHMj)" d="M295.273,282.475l-13.082-26.786v-4.506H201.585a168.74,168.74,0,0,1-3.56,21.265h9a6.945,6.945,0,0,0,5.66-2.922l.752-1.059.562.854a6.945,6.945,0,0,0,5.8,3.127h14.462a6.945,6.945,0,0,0,5.352-2.521l1.9-2.3,1.281,1.841a6.944,6.944,0,0,0,5.7,2.978h12.879a6.943,6.943,0,0,0,5.583-2.816l1.48-2s14,20.555-2.656,25.8a91.333,91.333,0,0,0,24.015-.333A7.44,7.44,0,0,0,295.273,282.475Z"/><path fill="#b75858" d="M144.351,124.321l-11.036,60.163a14.907,14.907,0,0,0,5.6,14.521c7.616,5.842,22.375,14.362,48.756,20.73l13.951-23.141Z"/><path fill="url(#U0TLmspeWJaUlFzzgkYHMe)" d="M257.782,84.175c-28.007-4.231-64.883-11.627-68.68-7.217v27.567s-2.022,14.944,13.648,20.457q2.737.962,5.329,1.624S240.824,124.321,257.782,84.175Z"/><path fill="#b75858" d="M246.157,79.514c-14.4-5.415-39.2-13.544-57.055-12.975V76.958c4.422.533,18.072,2.927,24.992,12.622a14.366,14.366,0,0,0,11.731,5.872h20.332Z"/><path fill="#34363a" d="M257.782,84.175l-.429-.186H238.5s1.731,34.556-30.42,42.617C243.244,135.623,257.782,113.685,257.782,84.175Z"/><path fill="url(#U0TLmspeWJaUlFzzgkYHMk)" d="M256.173,156.343l-13.987-2.665-40.561,33.374a143.811,143.811,0,0,1,2.083,24.134h23.758v-14.03a7.527,7.527,0,0,1,3.75-6.527c11.078-6.393,21.7-17,28.314-24.317A6.034,6.034,0,0,0,256.173,156.343Z"/><path fill="url(#U0TLmspeWJaUlFzzgkYHMl)" d="M187.674,53.557s2.78-34.4,36.834-34.4c0,0,13.187-1.181,24.281,6.616,0,0,8.786,22.489-15.083,34.967S191.5,68.846,191.5,68.846l-1.377-5.508Z"/><path fill="url(#U0TLmspeWJaUlFzzgkYHMm)" d="M263.427,62.939V53.557c-1.541-14.469-7.679-22.891-14.64-27.782-3.8,30.2-43.322,34.478-59.317,34.964l2.027,8.107a52.009,52.009,0,0,1,29.36,15.114,11.435,11.435,0,0,0,8.259,3.477h30.329A10.236,10.236,0,0,0,269.682,77.2h0a10.277,10.277,0,0,0-2.225-6.366C263.805,66.215,263.427,62.939,263.427,62.939Z"/><path fill="#34363a" d="M197.73,52.313h65.338a6.614,6.614,0,0,1,6.614,6.614v0a6.614,6.614,0,0,1-6.614,6.614H197.73a0,0,0,0,1,0,0V52.313a0,0,0,0,1,0,0Z"/><path fill="#34363a" d="M201.817,70.834l-13.07.039a6.154,6.154,0,0,1-5.94-6.181V53.161a5.936,5.936,0,0,1,5.936-5.935H201.8a10.853,10.853,0,0,1,10.853,10.853v1.7A11.016,11.016,0,0,1,201.817,70.834Z"/><path fill="url(#U0TLmspeWJaUlFzzgkYHMn)" d="M202.484,152.6l30.508-27.094a26.378,26.378,0,0,1,24.966-5.809,20.066,20.066,0,0,1,12.749,10.512c8.15,16.483-4.347,28.074-4.347,28.074s-18.342,16.994-41.526,27.588C213.55,176.462,205.919,165.451,202.484,152.6Z"/><path fill="#894947" d="M236.083,207.2H281.05a6.059,6.059,0,0,1,6.059,6.059v16.835a0,0,0,0,1,0,0H236.083a0,0,0,0,1,0,0V207.2A0,0,0,0,1,236.083,207.2Z"/><path fill="url(#U0TLmspeWJaUlFzzgkYHMd)" d="M215.834,218.645h24.99V257.7a8.409,8.409,0,0,1-8.409,8.409H221.28a8.409,8.409,0,0,1-8.409-8.409V234.6Z"/><polygon fill="#894947" points="212.871 234.598 240.824 242.19 240.824 218.645 212.871 218.645 212.871 234.598"/><path fill="url(#U0TLmspeWJaUlFzzgkYHMo)" d="M232.111,201.065H221.69a25.363,25.363,0,0,0-8.819,8.427v9.153a13.977,13.977,0,0,0,13.977,13.977h0c7.719,0,12.727-6.258,12.727-13.977C240.515,208.565,237.744,203.053,232.111,201.065Z"/><path fill="#894947" d="M212.871,209.492a31.8,31.8,0,0,0,8.819-8.427h-8.819Z"/><path fill="url(#U0TLmspeWJaUlFzzgkYHMp)" d="M187.476,218.645H210.1l1.57,39.055c-2.377,5-6.572,7.226-11.452,8.409h-6.889a8.408,8.408,0,0,1-8.409-8.409V233.591Z"/><polygon fill="#894947" points="184.918 233.591 212.871 241.183 212.871 218.645 184.918 218.645 184.918 233.591"/><path fill="url(#U0TLmspeWJaUlFzzgkYHMq)" d="M208.884,203.807l-23.966,4.072v10.766a13.977,13.977,0,0,0,13.976,13.977h0a13.918,13.918,0,0,0,6.755-1.738Z"/><path fill="#894947" d="M213.673,201.065H191.731a6.81,6.81,0,0,0-6.805,6.64,44.581,44.581,0,0,0,13.8,3.75,7.842,7.842,0,0,1,6.927,7.775V255.6s.405,6.925-5.432,10.514h4.246a8.409,8.409,0,0,0,8.409-8.409V209.492Z"/><path fill="url(#U0TLmspeWJaUlFzzgkYHMr)" d="M177.607,141.843l10.067,19.723,3.841,37.179s-31.432,7.435-35.657-16.224c-2.027-11.348-4.049-21.492-5.6-28.975C154.64,144.637,169.7,140.442,177.607,141.843Z"/><path fill="url(#U0TLmspeWJaUlFzzgkYHMs)" d="M264.809,234.264H245.951L240.824,247.5v9.018a9.6,9.6,0,0,0,9.6,9.6h6.143c3.433-.779,5.926-2.032,7.3-3.847Z"/><path fill="#894947" d="M295.138,234.264H267.981v22.249a9.6,9.6,0,0,0,9.6,9.6h7.964a9.6,9.6,0,0,0,9.6-9.6Z"/><circle cx="202.978" cy="93.635" r="3.658" fill="#b75858"/><path fill="#b75858" d="M147.429,140.442s1.139,4.992,2.825,13.1l27.353-11.7-4.9-9.607Z"/><path fill="#34363a" d="M147.429,140.442l23.806-6.256a5.5,5.5,0,0,0,2.7-8.652l-10.39-13.193a8.847,8.847,0,0,1-.991-6.477l1.757-7.6a6.763,6.763,0,0,0-2.545-6.947h0a6.765,6.765,0,0,0-9.3,1.156l-6.046,7.444A151.919,151.919,0,0,0,121.1,97.783a7.6,7.6,0,0,0-7.444,6.735l-.017.146a7.639,7.639,0,0,0,6.329,8.387C129.935,114.783,143.6,120.64,147.429,140.442Z"/><path fill="#fff" d="M187.156,54.5v5.042a1.2,1.2,0,0,0,1.988.9l7.875-6.871a1.2,1.2,0,0,0-.788-2.1h-6.046A3.029,3.029,0,0,0,187.156,54.5Z"/><polygon fill="url(#U0TLmspeWJaUlFzzgkYHMt)" points="116.778 74.36 125.091 49.697 110.579 44.869 102.077 52.313 98.487 67.895 116.778 74.36"/><path fill="#63533b" d="M85.475,33.3H108.3a0,0,0,0,1,0,0V88.71a4.664,4.664,0,0,1-4.664,4.664H85.475a4.664,4.664,0,0,1-4.664-4.664V37.966A4.664,4.664,0,0,1,85.475,33.3Z" transform="rotate(18.401 94.557 63.337)"/><path fill="#894947" d="M276.01,218.645h11.1a8.029,8.029,0,0,1,8.029,8.029v7.59A11.538,11.538,0,0,1,283.6,245.8h-4.081a11.538,11.538,0,0,1-11.538-11.538v-7.59A8.029,8.029,0,0,1,276.01,218.645Z"/><path fill="#894947" d="M259.952,218.645h-1.345a5.26,5.26,0,0,1,3.591,5.44v10.179H240.824V247.5l17.962,4.878a4.535,4.535,0,0,1,3.312,5.009c-.419,2.91-1.732,6.659-5.534,8.727h1.821a9.6,9.6,0,0,0,9.6-9.6V226.674A8.029,8.029,0,0,0,259.952,218.645Z"/><path fill="#894947" d="M240.824,207.879a6.814,6.814,0,0,0-6.814-6.814h-1.9c1.159,1.125,2.313,3.286,2.313,7.442V255.6s.405,6.925-5.432,10.514h3.423a8.409,8.409,0,0,0,8.409-8.409Z"/><path fill="url(#U0TLmspeWJaUlFzzgkYHMu)" d="M258.607,218.645h-9.754a8.029,8.029,0,0,0-8.029,8.029v7.59A11.538,11.538,0,0,0,252.362,245.8s12.447,0,12.447-14.272C264.809,220.283,258.607,218.645,258.607,218.645Z"/><path fill="url(#U0TLmspeWJaUlFzzgkYHMv)" d="M213.472,190.343a108.454,108.454,0,0,0,11.359-4.478c-5.482-16.642-18.843-29.972-22.347-33.264l-6.4,5.683Z"/><path fill="url(#U0TLmspeWJaUlFzzgkYHMw)" d="M190.224,155.037a20.213,20.213,0,0,1,5.306-.733,5.129,5.129,0,0,1,4.356,2.447c3.66,5.9,13.27,22.465,16.753,39.108a5.725,5.725,0,0,1-3.225,6.315c-3.921,1.85-10.711,3.76-20.054,1.652a5.764,5.764,0,0,1-4.507-5.254L186.5,160.338A5.157,5.157,0,0,1,190.224,155.037Z"/><circle cx="226.577" cy="223.507" r="3.148" fill="#894947"/><circle cx="198.025" cy="223.507" r="3.148" fill="#894947"/><circle cx="254.06" cy="236.735" r="3.148" fill="#894947"/></svg>