<svg xmlns="http://www.w3.org/2000/svg"  viewBox="0 0 340 340" width="500px" height="500px"><path fill="#342a35" d="M130.5,150.467c-.62-2.655,10.238,57.483-84.085,177.2h54.112c52.05-15,103.246-16.237,153.356,0h16.6c17.064-64.687,5.666-124.987-22.855-182.647Z"/><path fill="#dce2f9" d="M66.7,183.672c4.291,11.977,10.363,27.746,15.471,36.522l-6.239,27.474s-23.6,0-31.7-38.083C40.324,191.21,66.7,183.672,66.7,183.672Z"/><path fill="#7784b2" d="M75.929,247.668C62.486,241.659,54,221.53,50.53,211.574a10.493,10.493,0,0,1,1.743-10.062L66.7,183.672c-3.257-9.093-5.489-16-5.489-16l-31.667,16.1c9.445,53.6,28.928,76.768,28.928,76.768L72,264.977l3.93-17.309Z"/><path fill="#dce2f9" d="M64.085,116.85l10.53,23.368C167.249,106.537,253.48,69,331.058,26.244l-19.272-7.2a9.592,9.592,0,0,0-6.964.1Z"/><path fill="#7784b2" d="M85.633,164.669,317.852,49.949a9.6,9.6,0,0,0,4.476-4.612l8.73-19.093L74.615,140.218Z"/><path fill="#7784b2" d="M215.578,55.365,64.085,116.85l10.53,23.368q71-25.816,136.677-54.843Z"/><path fill="#ffb655" d="M42.671,100.977l36.136,83.591A3.5,3.5,0,0,0,83.6,186.3l18.21-9.223-37.9-85.5a3.5,3.5,0,0,0-4.621-1.78l-14.832,6.6A3.5,3.5,0,0,0,42.671,100.977Z"/><path fill="#7784b2" d="M110.264,179.083A130.8,130.8,0,0,0,87.2,224.47l-2.2,45.051s29.465-11.742,42.825-38.828v-51.61Z"/><path fill="#f27b31" d="M95.652,163.041,80.593,144.43a6.868,6.868,0,0,0-8.057-1.986l-10.011,4.317,16.282,37.664a3.5,3.5,0,0,0,4.793,1.733l18.21-9.223Z"/><path fill="#dce2f9" d="M158.15,123.978s-9.673,6.886-28.141,11c-10.184,2.267-20.38,5.757-27.527,13.358-3.287,3.5-7.373,7.683-9.844,12.876a17.235,17.235,0,0,0-1.628,7c11.733,10.852,26.6,12.247,45.8.55Z"/><path fill="#7784b2" d="M138.011,147.594s-18.893,23.113-47,20.615c-.22,8.769,5.593,17.986,14,20.794,4.078,1.363,9.284,1.866,15.917.787a216.129,216.129,0,0,0,25.617-34.747Z"/><path fill="#342a35" d="M142.349,327.668h46.7V292.891h-46.7S140.2,319.865,142.349,327.668Z"/><path fill="#dce2f9" d="M150.623,303.572a20.015,20.015,0,0,1,30.357.244c2.3,1.059,3.345,3.7,4.1,6.71a50.042,50.042,0,0,1,3.967,17.142h19.135c2.222-1.611,4.586-1.45,7.054,0h21.577c2.584-21.485-4.4-38.239-22.953-49.277-18.112-2.27-55.018-5.321-88.575,1.657,0,0-9.691,6.828-17.036,21.035a9.007,9.007,0,0,1-3.067,6.792,73.688,73.688,0,0,0-4.658,19.793h41.825a49.952,49.952,0,0,1,4.026-17.271C145.932,307.844,147.932,305.656,150.623,303.572Z"/><path fill="#dce2f9" d="M124.073,167.217c-6.042,12.031-12.34,29.5-11.686,49.229a7.387,7.387,0,0,1,.528,7.022,84.125,84.125,0,0,0,12.37,34.813,536.6,536.6,0,0,0,86.905.958s41.155-54.658,12.973-88.064C202.913,144.8,124.073,167.217,124.073,167.217Z"/><path fill="#dce2f9" d="M253.345,215.963a152.842,152.842,0,0,1,11.118,31.167c6.419,5.912,7.758,22.212,3.656,29.719,1.124,15.486,2.494,37.436,2.36,50.819h23.065s11.686-57.186,6.077-99.842a97,97,0,0,0-2.232-11.133c-.633-2.505-13.06-30.457-13.06-30.457Z"/><path fill="#7784b2" d="M295.388,209.432l-19.912-41.764-45.47,12.8s12.615,13.251,23.334,35.5l11.6-4.893.108.313a13.691,13.691,0,0,0,13.212,9.28c5.839-.133,13.167-1.007,19.124-3.972C296.782,214.183,296.12,211.754,295.388,209.432Z"/><path fill="#7784b2" d="M302.5,256.065c-8.432-.079-27.84-.272-36.321-.467.19,1.109.38,2.218.545,3.344,0,0,.644,7.494,1.4,17.907a119.506,119.506,0,0,0,12.339,1.384,10.842,10.842,0,0,1,8,4.288c2.957,3.891,8.035,9.433,14.254,11.608C303.1,282.686,303.182,269.4,302.5,256.065Z"/><path fill="#dce2f9" d="M270.361,201.554c.376,1.212.763,2.478,1.154,3.78a8.947,8.947,0,0,0,8.637,6.412,51.792,51.792,0,0,0,15.236-2.314s-1.649-6.135-3.492-13.259C284.683,194.4,277.509,196.682,270.361,201.554Z"/><path fill="#7784b2" d="M299.621,227.826c-5.087,18.3-27.483,18.807-35.159,19.305.655,3.024,1.792,8.638,2.257,11.811a13.2,13.2,0,0,1,1.636,2.366c9.373,2.1,22.518,4.764,34.554,6.243A288.367,288.367,0,0,0,299.621,227.826Z"/><path fill="#7784b2" d="M288.391,182.169l-22.068,7.061s1.838,5.247,4.037,12.324a84.281,84.281,0,0,0,21.536-5.381C290.671,191.437,289.36,186.266,288.391,182.169Z"/><path fill="#7784b2" d="M245.255,172.67V150.249c-30.015-13.525-68.053-11.325-110.745,0a104.532,104.532,0,0,0-10.437,16.969c2.122,5.023,7.385,12.646,20.3,16.454,20.235,5.968,57-10.66,57-10.66s4.568,13.154,19.157,22.364a19.352,19.352,0,0,1,9.061,17.755,34.718,34.718,0,0,1-6.11,17.649c-5.643,7.951-9.021,19.7-10.895,28.432q6.262-.407,12.584-.931s2.621-9.319,11.065-23.3S251.37,203.537,245.255,172.67Z"/><path fill="#dce2f9" d="M256.769,185.464a56,56,0,0,1,4.45,5.46,9.2,9.2,0,0,0,8.268,3.895,68.418,68.418,0,0,0,21.493-5.451,3.6,3.6,0,0,0,2.117-3.823,74.863,74.863,0,0,1-.827-14.882,29.608,29.608,0,0,0-1.324-10.08C270.977,161.6,259.334,169.685,256.769,185.464Z"/><path fill="#dce2f9" d="M151.17,93.594v13.894c1.861,3.794,1.151,7.616-1.608,11.461a40.257,40.257,0,0,1-4.021,9.345,90.851,90.851,0,0,1-5.989,8.9,11.265,11.265,0,0,1-4.483,5.393c-1.6,1.766-3.326,3.521-5.192,5.227a8.909,8.909,0,0,0-.629,12.687,34.366,34.366,0,0,0,25.73,10.814c13.833,0,30.262-5.1,43.753-14.556l24.743-33.464a54.129,54.129,0,0,1-13.024-8.079,11.012,11.012,0,0,1-5.234-5A39.191,39.191,0,0,1,194.67,85.309Z"/><path fill="#7784b2" d="M185.852,121.818a3.5,3.5,0,0,0,3.018-5.266,59.878,59.878,0,0,1-7.692-23.022,3.5,3.5,0,0,0-6.982.5,65.868,65.868,0,0,0,8.631,26.057A3.5,3.5,0,0,0,185.852,121.818Z"/><path fill="#7784b2" d="M212.615,137.98a3.544,3.544,0,0,0-.7-.123c-3.556-.27-9.361-5.42-12.562-8.456a68.993,68.993,0,0,0,11.1-14.191,50.849,50.849,0,0,1-5.232-5c-9.129,17.551-35.326,35.73-50.35,34.168-6.68-.7-12.135-4.439-15.329-7.195-1.362,1.784-2.848,3.593-4.478,5.395,3.962,3.4,10.638,7.88,19.079,8.762a23.822,23.822,0,0,0,2.474.125c11.195,0,25.752-7.215,37.586-17.31,4.409,4.2,9.274,8.285,13.89,9.936Z"/><path fill="#7784b2" d="M165.289,104.638a55.36,55.36,0,0,0,24.937-17.219L151.17,93.594l-.336,14.035a61.006,61.006,0,0,1-1.273,11.319,25.852,25.852,0,0,0,9.367-9.29A11.6,11.6,0,0,1,165.289,104.638Z"/><path fill="#7784b2" d="M280.685,146.342s-25.078-.875-33.271,30.441a82.618,82.618,0,0,1,9.641,9c2.731-6.036,9.458-15.218,25.91-21.115a32.589,32.589,0,0,0,7.973-4.084C289.1,154.478,285.5,148.691,280.685,146.342Z"/><path fill="#dce2f9" d="M134.51,28.2s8.706-15.84,33.976-15.84c0,0,29.992-2.132,35.018,34.269,0,0,1.008,13.356-5.915,23.565a14.354,14.354,0,0,0-2.529,7.32l-.39,7.8a134.367,134.367,0,0,1-30.852,10.82Z"/><path fill="#7784b2" d="M169.033,75.08a35.822,35.822,0,0,0,6.433-6.046,21.407,21.407,0,0,0,4.853-12.483l.512-8.635c-28.641-.443-43.7-20.073-43.7-20.073s-.793.822-2.122,2.229L152.939,97.8a94.221,94.221,0,0,0,10.879-1.674C163.625,89,164.23,78.558,169.033,75.08Z"/><path fill="#dce2f9" d="M135.52,25.3c4.413,7.337,16.564,24.251,36.364,27.528v4.948a13.418,13.418,0,0,1-4.425,9.969c-4.17,3.761-9.9,11.649-10.733,26.945-.248,4.543-4.566,11.09-8.732,12.917l-21.314,9.473a3.908,3.908,0,0,1-5.191-2.045c-2.305-5.44-6.351-16.1-7.254-25.787-.152-1.629-.268-3.471-.355-5.453,2.466-5.687,2.642-11.011-.2-15.855.035-3.964.115-7.806.2-11.112A39.066,39.066,0,0,1,121.723,34.3a72.718,72.718,0,0,1,8.789-9.709A3.261,3.261,0,0,1,135.52,25.3Z"/><path fill="#7784b2" d="M217.967,136.389l-7.272-8.078s-12.2,8.466-11.969,28.439A65.933,65.933,0,0,0,217.967,136.389Z"/><path fill="#342a35" d="M139.235,59.543l-25.55,8.4c-.048,5.41-.013,11.043.2,15.855l21.716-11.3a5.907,5.907,0,0,0,3.17-4.9Z"/><path fill="#dce2f9" d="M226.24,118.694a8.675,8.675,0,0,0-11.207,2.5c-6.127,8.557-14.118,24.627-4.969,42.221,3.679,7.076,9.53,13.351,16.1,18.737a13.946,13.946,0,0,0,8.843,3.172h9.1a6.4,6.4,0,0,0,5.549-3.237c4.168-7.291,15.686-24.549,32.478-26.944a8,8,0,0,0,5.762-11.815c-4.117-7.467-12.2-15.746-27.9-16.53C242.767,125.936,232.089,121.871,226.24,118.694Z"/><path fill="#7784b2" d="M316.689,269.008s.812,30.149-4.671,58.66H293.544s4.666-36.784,1.01-58.66Z"/><path fill="#7784b2" d="M225.163,280.048s-4.211-.768-11.3-1.657c3.149,2.85,21.379,20.552,22.953,49.277H253.88S250.024,295.186,225.163,280.048Z"/><rect width="26.298" height="21.768" x="125.285" y="258.281" fill="#342a35"/><path fill="#dce2f9" d="M52.784,177.806l-15.154,8.92a9.012,9.012,0,0,1-11.991-2.6,37.775,37.775,0,0,1-2.106-3.445l17.905-25.659Z"/><path fill="#7784b2" d="M23.494,180.6l24.857-11.7-6.913-13.885-23.1,9.829A50.009,50.009,0,0,0,23.494,180.6Z"/><path fill="#7784b2" d="M66.017,154.033l2.56,6.026a8.953,8.953,0,0,1-4.014,11.4c-3.308,1.771-7.219,3.883-10.555,5.689a12.728,12.728,0,0,1-16.128-3.362A24.332,24.332,0,0,1,32.9,162.007S51.069,154.81,66.017,154.033Z"/><path fill="#dce2f9" d="M14.594,140.369l28.17-13.843a10.09,10.09,0,0,1,13.737,5.11l9.516,22.4L52.093,159.7a7.578,7.578,0,0,0-6.51,2.651l-9.237,3.76c-2.561-.54-4.707.418-6.5,2.647l-2.98,1.213c-7.749,3.255-11.628-.567-13.933-5.81a52.8,52.8,0,0,1-3.875-13.286A10.061,10.061,0,0,1,14.594,140.369Z"/><path fill="#7784b2" d="M207.738,226.216a50.959,50.959,0,0,1,4.783-12.063c6.051-10.594,7.906-22.306,8.4-30.266a3.5,3.5,0,0,0-6.987-.43c-.444,7.218-2.1,17.8-7.487,27.224a58.456,58.456,0,0,0-5.648,14.4,91.214,91.214,0,0,1-34.652-14.2c-11.048-7.667-16.6-15.69-18.009-17.914a79.536,79.536,0,0,1,.262-15.609,3.5,3.5,0,1,0-6.954-.8,86.623,86.623,0,0,0-.307,16.912c-1.685,3.642-9.946,19.308-28.741,22.978q.115,3.465.535,7.02c17.858-3.137,27.778-15.414,32.191-22.676A78.16,78.16,0,0,0,161.8,216.38c11.916,8.358,32.154,17.9,62.447,17.9.759,0,1.536-.017,2.308-.029,1.013-2.267,1.99-4.635,2.9-7.077A129.1,129.1,0,0,1,207.738,226.216Z"/><path fill="#7784b2" d="M201.924,238.39a3.511,3.511,0,0,0-3.748,3.235c-.627,8.545-.147,19.565-.126,20.031A3.5,3.5,0,0,0,201.544,265l.158,0a3.5,3.5,0,0,0,3.341-3.652c0-.11-.483-11.079.115-19.207A3.5,3.5,0,0,0,201.924,238.39Z"/><path fill="#7784b2" d="M148.152,216.525a3.5,3.5,0,0,0-7-.152c-.139,6.354.884,32.766,8.411,45.9a3.5,3.5,0,0,0,6.074-3.479C148.981,247.177,148.03,222.108,148.152,216.525Z"/><path fill="#7784b2" d="M108.256,301.087a70.6,70.6,0,0,0-3.065,6.792c5.417.409,23.093,1.7,41.187,2.519a31.431,31.431,0,0,1,3.329-5.683c.3-.4.6-.773.921-1.14C133.549,302.873,116.059,301.66,108.256,301.087Z"/><path fill="#7784b2" d="M215.236,327.668a77.873,77.873,0,0,0-.185-17.82c9.177-.425,17.809-.969,25.247-1.6a3.5,3.5,0,1,0-.595-6.975c-16.126,1.376-37.929,2.318-58.725,2.547.244.291.482.589.712.9a31.7,31.7,0,0,1,3.49,6.046c7.645-.118,15.363-.326,22.843-.615a71.255,71.255,0,0,1,.159,17.522Z"/><path fill="#7784b2" d="M194.376,276.946a86.529,86.529,0,0,1,10.261,19.711,3.5,3.5,0,1,0,6.585-2.375,94.149,94.149,0,0,0-8.29-17.079c-2.753-.255-5.707-.495-8.823-.7A3.481,3.481,0,0,0,194.376,276.946Z"/><path fill="#7784b2" d="M36.346,166.112l-4.89-15.255a3.5,3.5,0,1,0-6.666,2.136l5.053,15.766Z"/><path fill="#7784b2" d="M47.579,144.969a3.5,3.5,0,1,0-6.693,2.05l4.7,15.333,6.51-2.651Z"/><circle cx="239.037" cy="170.595" r="3.559" fill="#7784b2"/><circle cx="160.038" cy="60.353" r="3.559" fill="#7784b2"/><rect width="60.877" height="21.768" x="164.287" y="258.281" fill="#342a35"/><rect width="26.47" height="21.768" x="144.7" y="258.281" fill="#ffb655" rx="6.883"/><path fill="#f27b31" d="M162.733,261.5h0a2.32,2.32,0,0,0-2.09,1.313l-5.784,12.013a1.4,1.4,0,0,0,1.261,2h5.845A5.231,5.231,0,0,0,167.2,271.6v-5.635A4.464,4.464,0,0,0,162.733,261.5Z"/><path fill="#342a35" d="M263.815,256.743l.181,7.23a3.681,3.681,0,0,0,2.878,3.506c13.067,2.855,26.67.83,26.67.83V252.065c-7.168,1.349-20.17,1.3-26.365,1.254A3.337,3.337,0,0,0,263.815,256.743Z"/><path fill="#dce2f9" d="M299.623,227.821a41.5,41.5,0,0,1-4.433,15.235c-5.3,12.028-1.62,22.341,3.932,30.889,12.671,8.575,17.916,1.689,20.6-10.534C319.72,263.411,319.082,235.794,299.623,227.821Z"/><path fill="#7784b2" d="M315.9,278.974a29.28,29.28,0,0,0,3.8-14.861s.013-.248.018-.7c-1.738,7.255-5.458,11.9-12.9,8.247-13.857-6.805-14.2-23.194-11.634-28.6a25.422,25.422,0,0,1-3.144,4.575,12.4,12.4,0,0,0-3.138,8.14V261.3a24.233,24.233,0,0,0,5.584,15.6,38.217,38.217,0,0,0,5.177,5.1,10.911,10.911,0,0,0,16.235-3.018Z"/><path fill="#342a35" d="M87.912,267.169c3.231-13.733,2.362-38.952,1.9-48.3a3.653,3.653,0,0,0-3.8-3.469l-2.338.092a3.658,3.658,0,0,0-3.489,3.226c-3.844,32.789-11.96,47.266-11.96,47.266Z"/><path fill="#7784b2" d="M63.739,256.823a97.471,97.471,0,0,0,16.427,2.491c10.838,6.818,3.026,20.735-9.977,21.1a29.425,29.425,0,0,1-14.949-7.831A9.472,9.472,0,0,1,55.3,258.87q.27-.241.567-.473A9.26,9.26,0,0,1,63.739,256.823Z"/><path fill="#7784b2" d="M80.167,259.311c1.392,5.045,2.162,14.893-9.978,21.1a42.638,42.638,0,0,0,18.113-.366c19.949-4.669,17.206-23.328,17.206-23.328A70.624,70.624,0,0,1,80.167,259.311Z"/></svg>