<svg xmlns="http://www.w3.org/2000/svg"  viewBox="0 0 340 340" width="500px" height="500px"><path d="M46.118,331.238a3.5,3.5,0,0,0,3.648-3.345c3.4-78.623,20.289-135.5,26.15-153.143,6.963,5.271,17.756,11.284,36.541,15.466a3.5,3.5,0,1,0,1.481-6.842c-16.264-3.684-36.317-11.544-37.08-20.126-2.11-9.626,16.587-19.755,17.868-19.543,8.323.234,20.981-1.44,27.919,3.928,3.8,2.559,7.736-3.053,3.992-5.75a26.931,26.931,0,0,0-4.39-2.452c-7.082-3.729-19.524-2.569-27.44-2.726-11.356-2.931-15.587-17.187-6.978-25.4,6.623-6.365,15.542-11.282,26.512-14.616a3.5,3.5,0,1,0-2.035-6.7c-17.019,5.6-38.8,16.177-35.744,35.658a21.755,21.755,0,0,0,9.325,14.524c-8.106,4.8-20.067,15.687-15,27.677C67.4,177.611,46.6,239.059,42.772,327.59A3.5,3.5,0,0,0,46.118,331.238Z"/><path d="M184.961,93.053a3.572,3.572,0,0,0,2.589,3.67c10.922,3.334,19.8,8.24,26.4,14.583,8.607,8.209,4.376,22.473-6.978,25.4-7.863.141-19.757-.945-26.782,2.726a27.047,27.047,0,0,0-4.389,2.452c-3.738,2.694.181,8.31,3.992,5.75,6.816-5.278,19.081-3.732,27.258-3.928,1.292-.224,19.994,9.953,17.87,19.543-.727,8.546-20.815,16.453-37.081,20.126a3.5,3.5,0,1,0,1.481,6.842c19.65-4.549,29.7-10.05,37.482-16.281,2.053,3.175,4.63,7.3,7.476,12.14l-26.864,15.594c-15.625,9.672-14.124,28.556-11.117,37.272a51.268,51.268,0,0,1,3.664,19.465,19.51,19.51,0,0,0-4.111,6.621c-19.542,10.153-70.855,7.924-89.167,2.452-3.653-3.817-7.006-9.774-4.087-17.516,5.678-15.06,1.364-32.385-5.061-42.16a3.558,3.558,0,0,0-4.293-1.4,3.5,3.5,0,0,0-1.6,5.178c5.682,8.586,9.019,23.678,4.405,35.913-3.782,10.033-.118,17.852,3.768,22.744a9.421,9.421,0,0,0-.224,12.967c-16.192,17.953-16.4,43.4-16.4,44.537a3.5,3.5,0,0,0,7,0c0-.256.247-25.17,15.781-41.121,20.344,8.024,67.887,8.162,90.256-.593a40.106,40.106,0,0,0,9.983,16.014,90.7,90.7,0,0,1,4.3,25.768,3.5,3.5,0,0,0,4.3,3.335,3.569,3.569,0,0,0,2.692-3.574,97.252,97.252,0,0,0-2.315-19.028c6.644,3.85,15.54,5.03,21.741-.434a80.38,80.38,0,0,1-1.8,18.743,3.511,3.511,0,0,0,1.61,3.907,3.631,3.631,0,0,0,1.876.479c10.134-.016,18.77-2.473,25.672-7.3a31.106,31.106,0,0,0,13.069-24.494,147.926,147.926,0,0,0-3.388-34.767c-1.023-4.467-7.718-3.094-6.85,1.442a141.037,141.037,0,0,1,3.242,33.111c-.438,14.9-13.113,23.947-27.553,24.838a99.807,99.807,0,0,0,.246-28.465,54.86,54.86,0,0,0-3.972-23.5c11.45-6.3,45.218-24.932,56.281-30.6a3.5,3.5,0,0,0,1.5-4.638L268.92,180.049a3.526,3.526,0,0,0-3.282-1.952l-17.788.614a3.192,3.192,0,0,0-1.467.415l-6.045,3.435c-3.754-6.386-7.043-11.533-9.327-14.986,4.782-11.9-7.123-22.669-15.115-27.4a21.756,21.756,0,0,0,9.325-14.521C228.28,106.17,206.5,95.6,189.47,89.99A3.506,3.506,0,0,0,184.961,93.053ZM150.892,285.782c-24.6,0-38.944-4.233-45.3-6.756a2.393,2.393,0,0,1-.555-4.084,2.31,2.31,0,0,1,2.075-.376c14.937,5.457,68.776,7.01,87.2-1.4a34.338,34.338,0,0,0,.323,6.022C185.231,282.346,170.5,285.782,150.892,285.782Zm81.049,17.372a9.636,9.636,0,0,1-8.541,1.268c-18.133-4.98-29.686-31.735-16.73-42.694,5.037-3.769,12.119-3.2,16.946.882,11,9.3,12.838,23.084,12.441,33.011A9.577,9.577,0,0,1,231.941,303.154Zm3.849-37.22c-6.123-9.905-17.424-16.984-28.934-12.273a62.7,62.7,0,0,0-3.963-17.077c-.274-.806-6.533-19.836,8.125-28.912l35.111-20.379,26.625,58.332Zm53.3-29.02L278.93,242.3l-25.873-56.683,10.588-.43Z"/><path d="M106.427,74.017A13.422,13.422,0,0,0,120.7,87.992a28.609,28.609,0,0,0,3.346,10.62c-5.429,1.52-9.615,3.5-12.435,5.932-6.283,5.129-5.681,15.755,1.049,20.246,1.027.727,20.438,14.467,20.761,14.694a54.213,54.213,0,0,1,11.673,12.91H141a3.5,3.5,0,0,0-3.5,3.5v15.82H125.865a3.5,3.5,0,0,0-3.5,3.5v19.78a3.5,3.5,0,0,0,3.5,3.5H137.5v30.958a3.5,3.5,0,0,0,3.5,3.5h19.781a3.5,3.5,0,0,0,3.5-3.5V198.494h11.637a3.5,3.5,0,0,0,3.5-3.5v-19.78a3.5,3.5,0,0,0-3.5-3.5H164.282v-15.82a3.5,3.5,0,0,0-3.5-3.5h-4.09a54.221,54.221,0,0,1,11.673-12.91c.735-.5,19.362-13.717,20.76-14.7,6.729-4.486,7.335-15.117,1.051-20.245-2.819-2.429-7.007-4.411-12.436-5.931a28.614,28.614,0,0,0,3.346-10.621,13.422,13.422,0,0,0,14.27-13.975c3.761-3.7,11.364-13.388,5.692-27-4.951-11.884-12.722-16.34-16.2-17.8-11.9-27.325-56.086-27.225-67.91,0-3.479,1.463-11.25,5.918-16.2,17.8C95.063,60.629,102.666,70.314,106.427,74.017Zm6.97.61a6.43,6.43,0,0,1,7.085-6.319V80.98A6.451,6.451,0,0,1,113.4,74.627Zm.8,39.866c-.094-6.044,7.566-7.96,14.379-9.814.474.493.952.964,1.435,1.408V128.5l-13.308-9.42A5.923,5.923,0,0,1,114.2,114.493Zm46.586,64.221h11.637v12.78H160.782a3.5,3.5,0,0,0-3.5,3.5v30.958H144.5V194.994a3.5,3.5,0,0,0-3.5-3.5H129.365v-12.78H141a3.5,3.5,0,0,0,3.5-3.5v-15.82h12.781v15.82A3.5,3.5,0,0,0,160.782,178.714Zm3.44-44.873a61,61,0,0,0-13.33,14.634,59.53,59.53,0,0,0-13.882-15.024v-22.5c9.512,4.423,17.584,4.747,27.763,0v22.5Zm23.365-19.347a5.919,5.919,0,0,1-2.507,4.582l-13.307,9.42V106.089c.483-.444.961-.918,1.434-1.411C180.017,106.534,187.681,108.445,187.587,114.494Zm-5.306-33.548-.98.034V68.308C189.969,67.67,190.972,80.348,182.281,80.946ZM194.587,49.71a16.346,16.346,0,0,1-1.953,16.828c-3.428-4.591-8.441-5.573-13.863-5.218L175.263,59.2a4.952,4.952,0,0,1,.358-8.611c6.941-3.6,9.735-8.373,10.5-12.563A28.048,28.048,0,0,1,194.587,49.71ZM150.892,15.719c22.035.2,27.683,16.462,28.083,17.583.254.654,2.224,6.508-6.575,11.066-8.243,4-8.652,16.245-.764,20.814L174.3,66.8V84.6c.211,16.266-16.529,23.5-23.587,22.717-6.822.688-23.485-6.586-23.232-22.717V66.8l2.665-1.615c7.889-4.575,7.479-16.8-.764-20.814-8.8-4.558-6.829-10.412-6.6-11.016C123.22,32.179,128.779,15.962,150.892,15.719ZM107.2,49.71a28.066,28.066,0,0,1,8.466-11.691c.764,4.19,3.558,8.967,10.5,12.564a4.953,4.953,0,0,1,.358,8.612l-3.508,2.125c-5.421-.356-10.438.63-13.863,5.218A16.346,16.346,0,0,1,107.2,49.71Z"/><path d="M237.777,223.236l-2.649-5.611a3.5,3.5,0,1,0-6.33,2.988l2.743,5.811-16.813,8.594c-4.067,2.167-.929,8.263,3.186,6.233L249.2,225.26c4.052-2.156.954-8.259-3.186-6.234Z"/><path d="M142.258,74.7c4.679-.08,4.678-7.039,0-7.118C137.58,67.666,137.581,74.625,142.258,74.7Z"/><path d="M159.525,74.7c4.678-.08,4.677-7.039,0-7.118C154.847,67.666,154.847,74.625,159.525,74.7Z"/><path d="M241.144,234.576c-4.678.08-4.677,7.038,0,7.117C245.822,241.614,245.821,234.655,241.144,234.576Z"/></svg>