<svg xmlns="http://www.w3.org/2000/svg" xmlns:xlink="http://www.w3.org/1999/xlink" viewBox="0 0 340 340" width="500px" height="500px"><defs><linearGradient id="2jAXluMPHIHAhATdX4Oe2a" x1="243.096" x2="256.644" y1="163.151" y2="282.941" gradientUnits="userSpaceOnUse"><stop offset="0" stop-color="#f7aa8b"/><stop offset="1" stop-color="#d88961"/></linearGradient><linearGradient id="2jAXluMPHIHAhATdX4Oe2b" x1="224.508" x2="224.508" y1="140.402" y2="297.111" gradientUnits="userSpaceOnUse"><stop offset="0" stop-color="#aa6563"/><stop offset="1" stop-color="#9d5c5a"/></linearGradient><linearGradient id="2jAXluMPHIHAhATdX4Oe2g" x1="93.232" x2="73.082" y1="143.891" y2="281.141" xlink:href="#2jAXluMPHIHAhATdX4Oe2a"/><linearGradient id="2jAXluMPHIHAhATdX4Oe2h" x1="95.932" x2="95.932" y1="140.402" y2="297.111" xlink:href="#2jAXluMPHIHAhATdX4Oe2b"/><linearGradient id="2jAXluMPHIHAhATdX4Oe2d" x1="174.51" x2="174.51" y1="126.44" y2="254.344" gradientUnits="userSpaceOnUse"><stop offset="0" stop-color="#f7dfac"/><stop offset="1" stop-color="#f7af87"/></linearGradient><linearGradient id="2jAXluMPHIHAhATdX4Oe2i" x1="152.118" x2="178.934" y1="207.648" y2="306.952" gradientUnits="userSpaceOnUse"><stop offset="0" stop-color="#e7b280"/><stop offset="1" stop-color="#ce7d65"/></linearGradient><linearGradient id="2jAXluMPHIHAhATdX4Oe2j" x1="175.378" x2="175.378" y1="140.402" y2="297.111" xlink:href="#2jAXluMPHIHAhATdX4Oe2b"/><linearGradient id="2jAXluMPHIHAhATdX4Oe2e" x1="140.469" x2="178.18" y1="100.864" y2="133.546" gradientUnits="userSpaceOnUse"><stop offset="0" stop-color="#f4bf8d"/><stop offset="1" stop-color="#db8a72"/></linearGradient><linearGradient id="2jAXluMPHIHAhATdX4Oe2c" x1="173.244" x2="231.347" y1="172.854" y2="212.351" gradientUnits="userSpaceOnUse"><stop offset="0" stop-color="#b3b6bd"/><stop offset="1" stop-color="#848685"/></linearGradient><linearGradient id="2jAXluMPHIHAhATdX4Oe2f" x1="112.247" x2="78.018" y1="207.263" y2="244.177" gradientUnits="userSpaceOnUse"><stop offset="0" stop-color="#f7d9cd"/><stop offset="1" stop-color="#f49289"/></linearGradient><linearGradient id="2jAXluMPHIHAhATdX4Oe2k" x1="146.655" x2="179.488" y1="279.4" y2="225.637" xlink:href="#2jAXluMPHIHAhATdX4Oe2c"/><linearGradient id="2jAXluMPHIHAhATdX4Oe2l" x1="192.416" x2="286.93" y1="180.463" y2="331.5" xlink:href="#2jAXluMPHIHAhATdX4Oe2c"/><linearGradient id="2jAXluMPHIHAhATdX4Oe2m" x1="162.308" x2="261.154" y1="189.014" y2="346.972" xlink:href="#2jAXluMPHIHAhATdX4Oe2c"/><linearGradient id="2jAXluMPHIHAhATdX4Oe2n" x1="54.586" x2="54.586" y1="140.402" y2="297.111" xlink:href="#2jAXluMPHIHAhATdX4Oe2b"/><linearGradient id="2jAXluMPHIHAhATdX4Oe2o" x1="76.032" x2="77.883" y1="212.624" y2="258.434" xlink:href="#2jAXluMPHIHAhATdX4Oe2d"/><linearGradient id="2jAXluMPHIHAhATdX4Oe2p" x1="80.577" x2="142.564" y1="164.773" y2="207.882" xlink:href="#2jAXluMPHIHAhATdX4Oe2c"/><linearGradient id="2jAXluMPHIHAhATdX4Oe2q" x1="156.287" x2="156.287" y1="273.289" y2="329.311" xlink:href="#2jAXluMPHIHAhATdX4Oe2a"/><linearGradient id="2jAXluMPHIHAhATdX4Oe2r" x1="214.565" x2="214.565" y1="274.514" y2="320.957" xlink:href="#2jAXluMPHIHAhATdX4Oe2a"/><linearGradient id="2jAXluMPHIHAhATdX4Oe2s" x1="155.341" x2="161.906" y1="16.519" y2="76.208" xlink:href="#2jAXluMPHIHAhATdX4Oe2d"/><linearGradient id="2jAXluMPHIHAhATdX4Oe2t" x1="152.596" x2="184.601" y1="42.173" y2="90.637" xlink:href="#2jAXluMPHIHAhATdX4Oe2e"/><linearGradient id="2jAXluMPHIHAhATdX4Oe2u" x1="164.173" x2="164.173" y1="65.413" y2="146.462" xlink:href="#2jAXluMPHIHAhATdX4Oe2f"/><linearGradient id="2jAXluMPHIHAhATdX4Oe2v" x1="118.92" x2="118.92" y1="273.289" y2="329.311" xlink:href="#2jAXluMPHIHAhATdX4Oe2a"/><linearGradient id="2jAXluMPHIHAhATdX4Oe2w" x1="118.92" x2="118.92" y1="140.402" y2="297.111" xlink:href="#2jAXluMPHIHAhATdX4Oe2b"/><linearGradient id="2jAXluMPHIHAhATdX4Oe2x" x1="218.791" x2="218.791" y1="140.402" y2="297.111" xlink:href="#2jAXluMPHIHAhATdX4Oe2b"/><linearGradient id="2jAXluMPHIHAhATdX4Oe2y" x1="154.239" x2="154.239" y1="140.402" y2="297.111" xlink:href="#2jAXluMPHIHAhATdX4Oe2b"/><linearGradient id="2jAXluMPHIHAhATdX4Oe2z" x1="71.637" x2="95.454" y1="218.736" y2="266.763" xlink:href="#2jAXluMPHIHAhATdX4Oe2e"/></defs><path fill="url(#2jAXluMPHIHAhATdX4Oe2a)" d="M282.021,204.836a234.321,234.321,0,0,0-14.566-19.26c-8.892-3.724-13.135-10.028-15.646-17.293-9.087-9.346-17.917-17.378-25.091-23.543,0,0-5.828,23.656-1.3,42.578a103.811,103.811,0,0,0,13.439,31.811,13.542,13.542,0,0,1,2.325,9.924,189.251,189.251,0,0,1-5.955,26.122c-2.959,9.555-11.243,8.156-18.589,4.545l.276,5.454,42.81,17.193c19.417-14.221,25.448-41.262,27.321-56.689A30.673,30.673,0,0,0,282.021,204.836Z"/><path fill="#34363a" d="M251.809,168.283l-11.551,11.825a1.954,1.954,0,0,0,.059,2.788l2.277,2.144a8.361,8.361,0,0,0,6.013,2.273,183.739,183.739,0,0,0,18.936-1.628C262.392,179.518,257.058,173.681,251.809,168.283Z"/><path fill="url(#2jAXluMPHIHAhATdX4Oe2b)" d="M213.708,201.621l21.939,14.3a13.456,13.456,0,0,1,3.21,3.214c-.3-4.94-2.708-9.476-4.852-12.6a23.041,23.041,0,0,1-3.926-11.524l-3.362-50.271c-9.833-8.451-16.559-13.4-16.559-13.4Z"/><path fill="#34363a" d="M199.723,80.21a45.736,45.736,0,0,0,6.295,22.31,4.133,4.133,0,0,1-1,5.387h0a3.535,3.535,0,0,1-5.186-.916c-2.688-4.375-6.9-12.728-7.03-22.294Z"/><path fill="#34363a" d="M128.539,80.21a45.736,45.736,0,0,1-6.295,22.31,4.133,4.133,0,0,0,1,5.387h0a3.535,3.535,0,0,0,5.186-.916c2.688-4.375,6.9-12.728,7.03-22.294Z"/><path fill="url(#2jAXluMPHIHAhATdX4Oe2g)" d="M132.534,134.11s-19.9-.28-41.765,23.265c-5.776,11.276-16.585,22.287-28.9,33.218-10.19,12.943-20.18,27.515-27.7,42.988a21.659,21.659,0,0,0-.607,17.89c5.6,6.922,13.692,9.266,24.331,6.95l21.789-5.216,4.637-23.513,43.521-1.682Z"/><path fill="url(#2jAXluMPHIHAhATdX4Oe2h)" d="M77.467,209.024l47.94,6.089,4.672-31.867-8.8-10.506-29.61-15.078S71.906,177.834,61.785,190.7c5.7,4.637,7.681,10.686,2.76,13.36a2.643,2.643,0,0,0,1.26,4.964Z"/><path fill="url(#2jAXluMPHIHAhATdX4Oe2d)" d="M122.453,134.974l-.843,27.144s9.2,68.385-2.894,93.114l-1.736,55.852,115.06,1.577L215.38,134.55a14.709,14.709,0,0,0-7.182-11.479c-.425-.25-.89-.511-1.392-.778-5.471-2.919-70.649-6.844-79.572,2.189q-.511.517-1.011,1.075A14.816,14.816,0,0,0,122.453,134.974Z"/><polygon fill="url(#2jAXluMPHIHAhATdX4Oe2i)" points="118.716 255.232 116.98 311.083 232.04 312.661 225.942 247.472 136.559 183.246 118.716 255.232"/><path fill="url(#2jAXluMPHIHAhATdX4Oe2j)" d="M229.585,286.416l2.455-27.144L168.754,206.38,150.409,193.2l-26.632-6.057-2.973.905-2.088,67.186h29.375s2.078,13.14,7.829,22.325a16.424,16.424,0,0,0,13.932,7.67h15.176a3.668,3.668,0,0,0,3.48-4.841c-2.042-6.067-4.595-16.843-1.333-26.482l23.3,17.106a5.629,5.629,0,0,1,2.573,5.538,20.551,20.551,0,0,1-.982,3.9Z"/><path fill="url(#2jAXluMPHIHAhATdX4Oe2e)" d="M164.173,140.564c22.448,0,36.007-10.876,42.631-18.268a59.651,59.651,0,0,0-27.288-6.685H147.353a30.158,30.158,0,0,0-20.116,8.874C132.828,131.656,143.857,140.564,164.173,140.564Z"/><polygon fill="#34363a" points="184.104 187.939 174.51 200.645 187.904 209.024 196.89 196.874 184.104 187.939"/><path fill="url(#2jAXluMPHIHAhATdX4Oe2c)" d="M196.711,199.179l-16.8-11.763a8.436,8.436,0,0,1-1.795-12.121h0a8.436,8.436,0,0,1,11.475-1.7l16.8,11.763a8.438,8.438,0,0,1,2.02,11.823h0A8.437,8.437,0,0,1,196.711,199.179Z"/><polygon fill="url(#2jAXluMPHIHAhATdX4Oe2f)" points="111.601 209.024 92.727 209.024 90.595 231.308 113.555 225.143 111.601 209.024"/><path fill="url(#2jAXluMPHIHAhATdX4Oe2k)" d="M152.005,227.3c-4.868,10.708-9.852,27.6-3.5,43.991a7.642,7.642,0,0,0,7.112,4.909h17.922a2.724,2.724,0,0,0,2.595-3.572c-2.08-6.325-5.272-19.945.655-31.778C170.422,233.6,162,229.319,152.005,227.3Z"/><path fill="#34363a" d="M262.68,277.323l34.573,24.419a3.227,3.227,0,0,0,4.4-.639l4.307-5.465a3.227,3.227,0,0,0-.673-4.634l-32.4-22.884Z"/><polygon fill="#34363a" points="76.456 177.709 97.052 154.604 132.534 181.842 86.137 187.65 76.456 177.709"/><path fill="#34363a" d="M176.8,240.86a29.22,29.22,0,0,1,5.325-7.456L158.211,216.1a74.477,74.477,0,0,0-6.2,11.205l12.759,6.976a54.2,54.2,0,0,0-2.18,5.731l-3.037-.976a2.5,2.5,0,0,0-3.145,1.616h0a2.5,2.5,0,0,0,1.616,3.144l3.314,1.064a53.82,53.82,0,0,0-1.107,7.033l-3.239-.518a2.5,2.5,0,0,0-2.863,2.075h0a2.5,2.5,0,0,0,2.074,2.863l3.831.611a39.439,39.439,0,0,0,.38,6.865l-2.514-.016a2.5,2.5,0,0,0-2.515,2.485h0a2.5,2.5,0,0,0,2.484,2.515l3.668.023A66.039,66.039,0,0,0,163.9,276.2h5.42c-6.4-18.477-2.743-32,.548-39.133Z"/><path fill="url(#2jAXluMPHIHAhATdX4Oe2l)" d="M272.885,268.12,216.3,228.153a30.353,30.353,0,0,0-7.694,19.12l51.938,36.9Z"/><polygon fill="#34363a" points="139.164 194.167 160.751 209.067 168.051 194.154 150.55 181.607 139.164 194.167"/><polygon fill="#34363a" points="208.606 247.273 216.3 228.153 211.789 224.967 199.579 240.86 208.606 247.273"/><path fill="#34363a" d="M148.091,124.483V153.5A10.311,10.311,0,0,0,158.4,163.809h11.539A10.311,10.311,0,0,0,180.254,153.5V124.483Z"/><polygon fill="#e7817c" points="113.555 225.143 90.972 227.371 89.792 239.696 114.813 235.526 113.555 225.143"/><path fill="#e7817c" d="M148.091,105.577h32.162a0,0,0,0,1,0,0v18.906a16.081,16.081,0,0,1-16.081,16.081h0a16.081,16.081,0,0,1-16.081-16.081V105.577a0,0,0,0,1,0,0Z"/><path fill="url(#2jAXluMPHIHAhATdX4Oe2m)" d="M168.044,194.069l43.745,30.9-13.532,18.281a4.953,4.953,0,0,1-6.87,1.078L152.464,216.4Z"/><path fill="url(#2jAXluMPHIHAhATdX4Oe2n)" d="M75.605,249.008l-18.088,5.244c-11.387,2.628-19.117.2-23.95-2.782A21.672,21.672,0,0,0,58.124,264.7a90.976,90.976,0,0,0,11.9-3.337Z"/><path fill="#34363a" d="M111.6,209.024H151.41a6.356,6.356,0,0,1,6.355,6.356v8.562a12.331,12.331,0,0,1-3.871,8.972l-11.685,11.02a11.575,11.575,0,0,1-7.94,3.153H120.03a8.429,8.429,0,0,1-8.429-8.429Z"/><path fill="url(#2jAXluMPHIHAhATdX4Oe2o)" d="M65.864,251.6c-.88-10.6-.542-25.079,5.006-38.236a7.151,7.151,0,0,1,6.6-4.342h7.721C93.237,235.315,86.436,254.171,65.864,251.6Z"/><path fill="url(#2jAXluMPHIHAhATdX4Oe2p)" d="M100.716,146.514a9.212,9.212,0,0,0-12.757,2.1l-18.235,25a11.651,11.651,0,0,0,.714,14.615l3.445,3.868a8.516,8.516,0,0,0,8.635,2.54,96.667,96.667,0,0,1,16.929-3.31c13.736-.961,23.408,3.36,28.356,6.372,2.281,1.388,4.8,1.339,6.434-.773l13.4-17.273Zm12.03,32.774c-5.389-1.05-17.557-1.5-26.154-.753a2.224,2.224,0,0,1-1.9-3.66l9.376-10.946a4.23,4.23,0,0,1,5.764-.741l16.08,11.718C118.13,176.52,115.437,179.813,112.746,179.288Z"/><polygon fill="#34363a" points="193.637 325.35 169.321 325.35 167.36 305.343 199.177 305.343 193.637 325.35"/><path fill="url(#2jAXluMPHIHAhATdX4Oe2q)" d="M169.321,325.35h-22.94l-3.128-17.087,3.128-18.771H159.01A10.31,10.31,0,0,1,169.321,299.8Z"/><path fill="url(#2jAXluMPHIHAhATdX4Oe2r)" d="M215.561,280.449h-7.535a14.389,14.389,0,0,0-14.389,14.389v17.823s33.7,16.591,41.122-9.666C239.985,284.511,215.561,280.449,215.561,280.449Z"/><path fill="#34363a" d="M193.15,231.981a3.478,3.478,0,0,1-2.05-.666l-.933-.675a3.5,3.5,0,1,1,4.1-5.669l.933.675a3.5,3.5,0,0,1-2.055,6.335Z"/><path fill="#34363a" d="M182.883,224.548a3.478,3.478,0,0,1-2.05-.666l-10.994-7.959a3.5,3.5,0,1,1,4.1-5.67l10.994,7.959a3.5,3.5,0,0,1-2.055,6.336Z"/><path fill="url(#2jAXluMPHIHAhATdX4Oe2s)" d="M196.908,29.716C183.091,14.65,164.173,14.65,164.173,14.65s-35.742,0-44.85,39.121c0,0,14.08,19,45.832,10.588S196.908,29.716,196.908,29.716Z"/><path fill="url(#2jAXluMPHIHAhATdX4Oe2t)" d="M203.231,78.645a16.244,16.244,0,0,0,7.38-15.256c-1.638-15.786-7.088-26.454-13.706-33.67-15.5,31.973-61.347,27.545-77.575,24.054a77.547,77.547,0,0,0-1.6,9.616,16.244,16.244,0,0,0,7.38,15.256l12.767,8.274h52.584Z"/><path fill="#34363a" d="M159.441,45.606H168.9a6.065,6.065,0,0,1,6.065,6.065V81.953a0,0,0,0,1,0,0H153.376a0,0,0,0,1,0,0V51.671A6.065,6.065,0,0,1,159.441,45.606Z"/><path fill="url(#2jAXluMPHIHAhATdX4Oe2u)" d="M164.173,114.468h0a28.628,28.628,0,0,1-28.628-28.627v-.579c.333-6.494,3-12.807,6.836-19.029l35.5-2.92c10.461.223,13.884,5.042,14.922,11.418v11.11A28.627,28.627,0,0,1,164.173,114.468Z"/><path fill="#f49289" d="M178.346,59.369H150a14.454,14.454,0,0,0-14.454,14.454V85.262s5.113-17.3,16.719-17.3h28.908s8.387-.48,11.628,6.77v-.908A14.454,14.454,0,0,0,178.346,59.369Z"/><path fill="url(#2jAXluMPHIHAhATdX4Oe2v)" d="M98.683,305.677V284.644a11.927,11.927,0,0,1,11.927-11.927h16.621a11.927,11.927,0,0,1,11.927,11.927v23.894a50.777,50.777,0,0,1-23.062,5.854C103.146,314.392,98.683,305.677,98.683,305.677Z"/><path fill="url(#2jAXluMPHIHAhATdX4Oe2w)" d="M110.6,308.538c-6.285,0-9.87-1.294-11.913-2.861v7.746A11.927,11.927,0,0,0,110.61,325.35h28.548V308.538Z"/><path fill="url(#2jAXluMPHIHAhATdX4Oe2x)" d="M212.844,280.449s-3.113,14.191,8.556,22.378c2.29,1.607,1.906,5.238.217,7.468h0a5.971,5.971,0,0,1-4.759,2.366H193.637V325.35l42.39.191a7.918,7.918,0,0,0,7.918-7.917V280.449Z"/><path fill="#34363a" d="M237.621,262.834l23.366,10.941a11.523,11.523,0,0,1,6.391,12.8l-1.288,6.143a12.962,12.962,0,0,1-14.463,10.156,80.537,80.537,0,0,1-21.714-6.094,16.327,16.327,0,0,1-9.634-14.573,42.668,42.668,0,0,1,1.332-11.978A11.516,11.516,0,0,1,237.621,262.834Z"/><path fill="url(#2jAXluMPHIHAhATdX4Oe2y)" d="M148.229,304.192v-14.7h-9.071V325.35h30.163V312.661H156.7A8.47,8.47,0,0,1,148.229,304.192Z"/><path fill="url(#2jAXluMPHIHAhATdX4Oe2z)" d="M74.5,266.885a92.359,92.359,0,0,0,19.847-3.928,3.564,3.564,0,0,0,2.409-4.266c-6.021-23.862-4.031-49.667-4.031-49.667H85.188C91.023,239.9,68.979,250.3,65.866,251.6c.309,3.715.766,6.959,1.2,9.5A7,7,0,0,0,74.5,266.885Z"/><path fill="#34363a" d="M278.569,261.285a3.5,3.5,0,0,1-3.194-4.929c5.02-11.239,7.23-23.116,8.2-31.1a27.194,27.194,0,0,0-4.457-18.464c-21.164-31.415-52.537-58.012-65.042-67.989a3.5,3.5,0,1,1,4.365-5.471c12.759,10.178,44.777,37.33,66.483,69.549a34.2,34.2,0,0,1,5.6,23.219c-1.028,8.462-3.381,21.076-8.757,33.111A3.5,3.5,0,0,1,278.569,261.285Z"/><path fill="#34363a" d="M53.682,268.661A25.046,25.046,0,0,1,33.863,258.9a25.377,25.377,0,0,1-2.839-26.844C38.8,216.045,49.845,199.478,64.789,181.4a3.5,3.5,0,0,1,5.395,4.461C55.6,203.5,44.85,219.612,37.32,235.111A18.421,18.421,0,0,0,39.388,254.6a17.843,17.843,0,0,0,18.026,6.679c2.709-.561,5.459-1.275,8.174-2.121a3.5,3.5,0,1,1,2.084,6.682c-2.933.915-5.907,1.686-8.839,2.293A25.337,25.337,0,0,1,53.682,268.661Z"/><path fill="#34363a" d="M102.305,150.319a3.5,3.5,0,0,1-2.129-6.28,70.039,70.039,0,0,1,20.868-11.246,3.5,3.5,0,1,1,2.153,6.66A63.116,63.116,0,0,0,104.429,149.6,3.488,3.488,0,0,1,102.305,150.319Z"/><path fill="#34363a" d="M223.273,222.472a3.5,3.5,0,0,1-3.481-3.174l-7.9-84.422a11.237,11.237,0,0,0-5.468-8.787,55.149,55.149,0,0,0-25.247-6.952,3.5,3.5,0,1,1,.217-7,62.51,62.51,0,0,1,28.574,7.912,18.232,18.232,0,0,1,8.9,14.207l7.894,84.387a3.5,3.5,0,0,1-3.159,3.811Q223.436,222.472,223.273,222.472Z"/><path fill="#34363a" d="M118.211,275.025l-.111,0a3.5,3.5,0,0,1-3.389-3.607l.732-23.556a3.5,3.5,0,0,1,7,.218l-.732,23.556A3.5,3.5,0,0,1,118.211,275.025Z"/><path fill="#34363a" d="M120.17,212h-.111a3.5,3.5,0,0,1-3.389-3.608l.428-13.8a3.5,3.5,0,0,1,7,.218l-.429,13.8A3.5,3.5,0,0,1,120.17,212Z"/><path fill="#34363a" d="M121.674,163.628l-.111,0a3.5,3.5,0,0,1-3.39-3.607l.782-25.154a18.323,18.323,0,0,1,4.661-11.643A33.48,33.48,0,0,1,147.4,112.111a3.5,3.5,0,0,1-.05,7c-.017,0-.03,0-.053,0a26.452,26.452,0,0,0-18.471,8.782,11.317,11.317,0,0,0-2.878,7.191l-.782,25.154A3.5,3.5,0,0,1,121.674,163.628Z"/><path fill="#34363a" d="M175.772,202.47a3.5,3.5,0,0,1-2.79-5.609l7.5-9.938a3.5,3.5,0,0,1,5.586,4.218l-7.5,9.938A3.493,3.493,0,0,1,175.772,202.47Z"/><path fill="#34363a" d="M189,211.045a3.5,3.5,0,0,1-2.811-5.581l6.712-9.076a3.5,3.5,0,1,1,5.628,4.162l-6.712,9.076A3.494,3.494,0,0,1,189,211.045Z"/><path fill="#34363a" d="M201.981,204.383a9.1,9.1,0,0,1-5.238-1.649l-19.115-13.386a9.17,9.17,0,0,1-1.951-13.174l2.641-3.362a9.171,9.171,0,0,1,12.471-1.848l18.959,13.278a9.169,9.169,0,0,1,2.2,12.849l-2.486,3.471A9.178,9.178,0,0,1,201.981,204.383Zm-16.45-28.077a2.167,2.167,0,0,0-1.708.829l-2.641,3.363a2.171,2.171,0,0,0,.462,3.117L200.759,197h0a2.176,2.176,0,0,0,3.007-.514l2.486-3.471a2.169,2.169,0,0,0-.519-3.04L186.774,176.7A2.165,2.165,0,0,0,185.531,176.306Z"/><path fill="#34363a" d="M111.6,212.524H92.727a3.5,3.5,0,1,1,0-7H111.6a3.5,3.5,0,0,1,0,7Z"/><path fill="#34363a" d="M94.071,242.483a3.5,3.5,0,0,1-.571-6.953l17.06-2.843a3.5,3.5,0,1,1,1.151,6.9L94.65,242.435A3.562,3.562,0,0,1,94.071,242.483Z"/><path fill="#34363a" d="M177.47,279.7H155.616a11.086,11.086,0,0,1-10.383-7.163c-3.956-10.222-4.286-21.673-.982-34.036a3.5,3.5,0,0,1,6.763,1.808c-2.914,10.9-2.663,20.893.747,29.7a4.132,4.132,0,0,0,3.855,2.69h16.853c-2.547-8.194-5.805-24.962,4.256-38.376a3.5,3.5,0,1,1,5.6,4.2c-11.07,14.759-1.758,36.029-1.663,36.242a3.5,3.5,0,0,1-3.192,4.934Z"/><path fill="#34363a" d="M299.752,307.009a3.49,3.49,0,0,1-2.017-.641l-32.13-22.694a3.5,3.5,0,0,1,4.038-5.718l29.418,20.778,3.97-5.037-32.165-22.718a3.5,3.5,0,1,1,4.038-5.718l35.178,24.846a3.5,3.5,0,0,1,.73,5.026L302.5,305.675A3.493,3.493,0,0,1,299.752,307.009Z"/><path fill="#34363a" d="M266.027,280.864a3.5,3.5,0,0,1-2.808-5.585l4.721-6.367-58.17-41.086a3.5,3.5,0,0,1,4.038-5.718l61.1,43.153a3.5,3.5,0,0,1,.793,4.944l-6.855,9.244A3.5,3.5,0,0,1,266.027,280.864Z"/><path fill="#34363a" d="M228.183,265.811a3.48,3.48,0,0,1-2.048-.665L197.9,244.723a3.5,3.5,0,1,1,4.1-5.672l28.234,20.424a3.5,3.5,0,0,1-2.055,6.336Z"/><path fill="#34363a" d="M168.041,197.57a3.487,3.487,0,0,1-2.016-.642l-20.41-14.416a3.5,3.5,0,0,1,4.038-5.718l20.41,14.416a3.5,3.5,0,0,1-2.022,6.36Z"/><path fill="#34363a" d="M158.32,210.81a3.488,3.488,0,0,1-1.972-.61l-20.505-14.008a3.5,3.5,0,0,1,3.948-5.78L160.3,204.419a3.5,3.5,0,0,1-1.977,6.391Z"/><path fill="#34363a" d="M169.942,167.309H158.4A13.827,13.827,0,0,1,144.591,153.5V124.483a3.5,3.5,0,0,1,7,0V153.5a6.819,6.819,0,0,0,6.812,6.811h11.539a6.819,6.819,0,0,0,6.812-6.811V124.483a3.5,3.5,0,1,1,7,0V153.5A13.827,13.827,0,0,1,169.942,167.309Z"/><path fill="#34363a" d="M164.173,144.064a19.6,19.6,0,0,1-19.582-19.581V111.138a3.5,3.5,0,0,1,7,0v13.345a12.582,12.582,0,0,0,25.163,0V111.312a3.5,3.5,0,1,1,7,0v13.171A19.6,19.6,0,0,1,164.173,144.064Z"/><path fill="#34363a" d="M135.3,88.746a3.484,3.484,0,0,1-1.9-.563l-10.185-6.6a19.639,19.639,0,0,1-8.958-18.554c5.32-51.284,49.474-51.878,49.92-51.878s44.6.594,49.919,51.878a19.636,19.636,0,0,1-8.958,18.554l-9.991,6.475a3.5,3.5,0,1,1-3.806-5.874l9.99-6.475a12.667,12.667,0,0,0,5.8-11.958c-4.657-44.89-41.4-45.592-42.965-45.6-1.545.008-38.292.709-42.948,45.6a12.669,12.669,0,0,0,5.8,11.958l10.186,6.6a3.5,3.5,0,0,1-1.907,6.437Z"/><path fill="#34363a" d="M153.376,62.335a3.5,3.5,0,0,1-3.5-3.5V51.671a9.576,9.576,0,0,1,9.565-9.565H168.9a9.576,9.576,0,0,1,9.565,9.565v7.107a3.5,3.5,0,0,1-7,0V51.671a2.568,2.568,0,0,0-2.565-2.565h-9.463a2.568,2.568,0,0,0-2.565,2.565v7.164A3.5,3.5,0,0,1,153.376,62.335Z"/><path fill="#34363a" d="M164.173,117.968a32.163,32.163,0,0,1-32.128-32.127V73.823A17.974,17.974,0,0,1,150,55.869h28.347A17.974,17.974,0,0,1,196.3,73.823V85.841A32.163,32.163,0,0,1,164.173,117.968ZM150,62.869a10.966,10.966,0,0,0-10.954,10.954V85.841a25.128,25.128,0,0,0,50.255,0V73.823a10.966,10.966,0,0,0-10.954-10.954Z"/><path fill="#34363a" d="M130.537,201.97a8.73,8.73,0,0,1-4.554-1.282c-4.242-2.581-13.3-6.773-26.292-5.87-6.293.441-16.3,3.036-21.074,4.651a3.5,3.5,0,0,1-3.734-.988l-7.058-7.923a15.236,15.236,0,0,1-.929-19.006l18.235-25a12.768,12.768,0,0,1,17.6-2.893l46.918,33.139a3.5,3.5,0,0,1,.751,5l-12.97,16.792A8.7,8.7,0,0,1,130.537,201.97Zm-27.26-14.278a50.785,50.785,0,0,1,26.346,7.017,1.726,1.726,0,0,0,2.271-.4l10.737-13.9L98.7,149.373a5.736,5.736,0,0,0-7.911,1.3l-18.234,25a8.2,8.2,0,0,0,.5,10.225l5.545,6.225c5.419-1.655,14.2-3.842,20.605-4.29Q101.3,187.689,103.277,187.692Z"/><path fill="#34363a" d="M195.35,250.672a3.493,3.493,0,0,1-2.037-.656L156.29,223.454a3.5,3.5,0,0,1,4.081-5.688l34.221,24.552,12.255-16.557-37.947-26.8-9.5,13.619a3.5,3.5,0,1,1-5.741-4l11.516-16.506a3.5,3.5,0,0,1,4.889-.857l43.745,30.9a3.5,3.5,0,0,1,.794,4.941l-16.436,22.2A3.493,3.493,0,0,1,195.35,250.672Z"/><path fill="#34363a" d="M134.269,250.587H120.03A11.942,11.942,0,0,1,108.1,238.658V209.024a3.5,3.5,0,0,1,3.5-3.5H151.41a9.866,9.866,0,0,1,9.855,9.856v8.562A15.9,15.9,0,0,1,156.3,235.46l-11.685,11.02A15.017,15.017,0,0,1,134.269,250.587ZM115.1,212.524v26.134a4.934,4.934,0,0,0,4.929,4.929h14.239a8.042,8.042,0,0,0,5.539-2.2l11.685-11.019a8.868,8.868,0,0,0,2.772-6.426V215.38a2.859,2.859,0,0,0-2.855-2.856Z"/><path fill="#34363a" d="M73.958,270.406a10.46,10.46,0,0,1-10.341-8.721c-1.829-10.65-3.737-31.265,4.028-49.679a10.62,10.62,0,0,1,9.822-6.482h15.26a3.5,3.5,0,0,1,3.49,3.768c-.021.276-2.033,27.838,4.756,51.6a3.5,3.5,0,0,1-2.12,4.232,95.491,95.491,0,0,1-24.08,5.248Q74.362,270.407,73.958,270.406Zm3.509-57.882a3.635,3.635,0,0,0-3.372,2.2C67.022,231.5,68.817,250.6,70.516,260.5a3.492,3.492,0,0,0,3.73,2.895,89.291,89.291,0,0,0,19.128-3.8c-4.808-19-4.661-38.923-4.34-47.067Z"/><path fill="#34363a" d="M245.09,190.889a3.5,3.5,0,0,1-2.4-.951l-6.223-5.857a3.5,3.5,0,0,1-.1-4.995l12.435-12.73a3.5,3.5,0,1,1,5.007,4.892l-9.944,10.179,2.6,2.443a181.813,181.813,0,0,0,20.049-1.574,3.5,3.5,0,1,1,.955,6.934A181.741,181.741,0,0,1,245.09,190.889Z"/><path fill="#34363a" d="M193.637,328.85H169.321a3.5,3.5,0,0,1,0-7h24.316a3.5,3.5,0,1,1,0,7Z"/><path fill="#34363a" d="M193.153,308.843H170.505a3.5,3.5,0,0,1,0-7h22.648a3.5,3.5,0,0,1,0,7Z"/><path fill="#34363a" d="M139.158,328.85H110.61a15.446,15.446,0,0,1-15.428-15.428V284.644a15.445,15.445,0,0,1,15.428-15.427h16.62a15.445,15.445,0,0,1,15.428,15.427V325.35A3.5,3.5,0,0,1,139.158,328.85ZM110.61,276.217a8.437,8.437,0,0,0-8.428,8.427v28.778a8.438,8.438,0,0,0,8.428,8.428h25.048V284.644a8.437,8.437,0,0,0-8.428-8.427Z"/><path fill="#34363a" d="M169.321,328.85H139.158a3.5,3.5,0,0,1,0-7h26.663V299.8a6.818,6.818,0,0,0-6.811-6.811H140.254a3.5,3.5,0,1,1,0-7H159.01A13.827,13.827,0,0,1,172.821,299.8V325.35A3.5,3.5,0,0,1,169.321,328.85Z"/><path fill="#34363a" d="M236.027,328.85h-42.39a3.5,3.5,0,0,1-3.5-3.5v-30.7a17.91,17.91,0,0,1,17.89-17.889h11.258a3.5,3.5,0,1,1,0,7H208.027a10.9,10.9,0,0,0-10.89,10.889v27.2h38.89a4.423,4.423,0,0,0,4.418-4.418V302.223a3.5,3.5,0,0,1,7,0v15.209A11.431,11.431,0,0,1,236.027,328.85Z"/><path fill="#34363a" d="M253.368,306.493a16.532,16.532,0,0,1-2.21-.149,83.509,83.509,0,0,1-22.664-6.364,19.9,19.9,0,0,1-11.714-17.689,45.9,45.9,0,0,1,1.451-12.968,15.014,15.014,0,0,1,20.874-9.658h0l23.366,10.941a14.968,14.968,0,0,1,8.333,16.689l-1.289,6.144A16.535,16.535,0,0,1,253.368,306.493Zm-20.645-41.251a8.063,8.063,0,0,0-3.4.755,7.924,7.924,0,0,0-4.33,5.14,38.884,38.884,0,0,0-1.214,10.988,12.867,12.867,0,0,0,7.553,11.456,76.577,76.577,0,0,0,20.766,5.826A9.516,9.516,0,0,0,262.664,292l1.289-6.144a7.994,7.994,0,0,0-4.451-8.913L236.137,266h0A8.036,8.036,0,0,0,232.723,265.242Z"/><path fill="#34363a" d="M164.173,104.435c-12.49,0-22.48-2.747-29.693-8.163a3.5,3.5,0,1,1,4.2-5.6c5.974,4.485,14.55,6.76,25.49,6.76s19.515-2.275,25.488-6.76a3.5,3.5,0,1,1,4.2,5.6C186.652,101.688,176.662,104.435,164.173,104.435Z"/><path fill="#34363a" d="M256.289,259.9a3.5,3.5,0,0,1-2.778-5.625l4.587-6a.976.976,0,0,0-.74-1.568l-20.955-.765a3.5,3.5,0,0,1,.255-7l20.955.764a7.977,7.977,0,0,1,6.047,12.815l-4.588,6A3.494,3.494,0,0,1,256.289,259.9Z"/><path fill="#34363a" d="M219.282,243.929a3.5,3.5,0,0,1-2.82-5.569l4.638-6.33a3.5,3.5,0,1,1,5.646,4.137l-4.638,6.331A3.5,3.5,0,0,1,219.282,243.929Z"/><path fill="#34363a" d="M232.037,252.816a3.5,3.5,0,0,1-2.82-5.569l4.638-6.33a3.5,3.5,0,0,1,5.646,4.138l-4.638,6.33A3.5,3.5,0,0,1,232.037,252.816Z"/><path fill="#34363a" d="M77.467,212.524H64.145a3.5,3.5,0,1,1,0-7H77.467a3.5,3.5,0,0,1,0,7Z"/><circle cx="156.186" cy="80.21" r="3.511" fill="#34363a"/><circle cx="172.159" cy="80.21" r="3.511" fill="#34363a"/></svg>