<svg xmlns="http://www.w3.org/2000/svg"  viewBox="0 0 340 340" width="500px" height="500px"><path fill="#5b5b81" d="M139.142,14.27c-12.118,10.223-31.588,25.749-49.354,35.951a12.36,12.36,0,0,0-1.256,20.591c8.2,6.114,20.864,12.81,39.622,16.611H174.76s16.145-.943,30.662-9.135a17.384,17.384,0,0,0,8.569-17.665c-1.487-10.23-4.918-25.975-12.717-38.836a12.085,12.085,0,0,0-17.713-3.4l-.225.165a9.981,9.981,0,0,1-11.792,0c-1.982-1.458-4.429-3.246-7.2-5.246A20.487,20.487,0,0,0,139.142,14.27Z"/><path fill="#ffb664" d="M204.862,272.07s-2.585-11.167,9.82-16.179,22.484,12.925,22.484,12.925l8.622,14.076a14.686,14.686,0,0,1-3.981,19.616h0a14.651,14.651,0,0,1-18.933-1.566A74.986,74.986,0,0,1,204.862,272.07Z"/><path fill="#e87b40" d="M241.049,275.156c-12.622,8.9-24.1,8.5-32.563,5.749a77.512,77.512,0,0,0,14.388,20.037,14.686,14.686,0,0,0,22.914-18.05Z"/><path fill="#a3aed3" d="M90.177,144.912s-35.446,37.833-55.443,75.721A16.611,16.611,0,0,0,39.3,241.491l48.6,36.97,11.931-25.656L77.5,224.75c7.335-10.991,18.745-21.157,32.761-30.8C110.263,193.954,105.473,173.514,90.177,144.912Z"/><path fill="#586381" d="M110.263,193.954s-2.945-12.563-11.586-31.771a3.689,3.689,0,0,0-4.26,3.679v8.6a26.969,26.969,0,0,1-8.555,19.7c-7.709,7.214-18.794,18.545-25.252,29.474l34.925,34.592,1.952-.367,2.351-5.055L77.5,224.75C84.837,213.759,96.247,203.593,110.263,193.954Z"/><path fill="#a3aed3" d="M222.346,147s8.408,18.038,16.632,39.126a64.886,64.886,0,0,0,21.532,28.412l33.228,24.869L264.9,258.436l-33.325-21.021a36.674,36.674,0,0,1-12.945-14.045l-16.464-31.533S208.633,167.276,222.346,147Z"/><path fill="#586381" d="M283.083,231.432c-16.762-.021-22.539,10.991-22.539,10.991l-22.556-14.392a41.808,41.808,0,0,1-13.643-14.213l-.261-.45a38.425,38.425,0,0,1-5.214-19.327V169.505a6.91,6.91,0,0,0-5.537-6.792,175.714,175.714,0,0,0-11.168,29.124l16.464,31.533a36.674,36.674,0,0,0,12.945,14.045L264.9,258.436l28.839-19.029Z"/><path fill="#ffcacf" d="M99.838,252.805S79.557,276.4,84.659,292.068c6.364,19.542,23.083,12.676,23.083,12.676l8.386-36.325Z"/><path fill="#e5838b" d="M99.761,252.728s-1.819,2.121-4.226,5.5l2.4,2.718a9.305,9.305,0,0,1,1.694,9.583c-2.649,6.686-6.777,19.13-7.338,32.75,7.117,4.768,15.374,1.389,15.374,1.389l8.386-36.325Z"/><path fill="#333353" d="M268.065,255.279l-37.847,12.439a8.955,8.955,0,0,0-4.957,13.366c.058.088.118.176.179.265a9,9,0,0,0,10.317,3.349l40.822-14.562Z"/><path fill="#38508e" d="M103.783,290.01a290.952,290.952,0,0,0-6,40.556H216.47s-.909-23-6.909-43.667l-55.686-10.444Z"/><path fill="#a3aed3" d="M114.045,257.4a109.028,109.028,0,0,0-13.2,28.067,9.289,9.289,0,0,0,5.443,11.3l11.3,4.558a21.217,21.217,0,0,0,24.134-5.977l12.147-12L151.47,262.2Z"/><path fill="#586381" d="M151.47,262.2l-37.425-4.8s8.453,8.455,28.589,13.376a186.523,186.523,0,0,0,4.45,19.28l6.791-6.71Z"/><path fill="#a3aed3" d="M149.457,264.805l.088,7.186.42,2.582c.861,5.3,3.324,19.15,15.852,29.777a16.535,16.535,0,0,0,10.782,3.9,50.339,50.339,0,0,0,35.161-14.363,11.964,11.964,0,0,0,3.029-11.928,110.78,110.78,0,0,0-10.034-23.527Z"/><path fill="#586381" d="M149.545,271.991c4.273.489,35.562,3.4,55.21-13.555l-56.416,6.135Z"/><path fill="#75212c" d="M114.045,235.61a217.475,217.475,0,0,0,0,21.789s37.618,20.643,90.71,1.037l-.1-21.23Z"/><path fill="#bc5e66" d="M166.761,266.889c7.929,0,13.577,2.1,16.686,7.3a6.839,6.839,0,0,0,11.406.54l.166-.239a13.135,13.135,0,0,0-.353-15.147c-4.139-5.692-12.331-12.8-27.9-14.526l-4.841,3.963Z"/><path fill="#fca751" d="M141.763,242.423l-.774,23.089c6.928,2.932,16.4,3.542,25.772,1.377V242.423Z"/><path fill="#a3aed3" d="M166.65,119.771s33.618,13.8,55.7,27.229l-18.491,73.693a17.9,17.9,0,0,1,3.045,8.42,12.812,12.812,0,0,1-11.229,13.517c-14.892,1.958-58.167,6.176-81.626-7.02,0,0-11.337-5.072,0-18.8l-23.868-71.9S115.334,129.876,166.65,119.771Z"/><path fill="#586381" d="M152.716,122.776a319.958,319.958,0,0,0-40.4,12.138A90.3,90.3,0,0,0,110.263,147s16.3,3.888,25.854-8.167l16.6-.786Z"/><path fill="#586381" d="M151.06,168.069l1.249-11.988s-5.358,5.945-10.012,11.26c-4.933,5.633-4.567,16.615-4.567,16.615.09,22.388,5.488,49.163,7.924,60.129,2.35.226,4.71.4,7.062.518-6.444-23.767-8.072-49.431-8.482-61.32a17.59,17.59,0,0,1,4-11.787Z"/><path fill="#ffcacf" d="M129.077,118.786c2.787,14.936,11.14,31.7,21.983,49.283,0,0,17.9-19.067,21.714-47.064Z"/><path fill="#e5838b" d="M129.077,118.786c2.3,12.31,8.38,25.864,16.517,40.093-2.456-10.821-2.063-17.647-2.063-17.647,13.827,1.163,26.1-4.213,28.5-15.351l.747-4.876Z"/><path fill="#a02a39" d="M122.232,115.63s-13.037,6.4-14.478,24.872c0,0,23.121,6.926,28.637-21.888l.78-4.923Z"/><path fill="#e54c5b" d="M134.365,116.809l-8.013,2.709c-9.471,2.2-24.226,2.072-26.37-18.99,0,0,20.549-1.347,33.686,7.561Z"/><path fill="#a02a39" d="M133.668,108.089a38.216,38.216,0,0,0-9.624-4.568c-1.031,2.134-2.594,7.589,2.308,16a42.125,42.125,0,0,0,8.013-2.708Z"/><path fill="#a02a39" d="M133.051,118.786s3.568,15.539,22.212,15.5c14.119-.029,19.614-8.461,19.614-22.056Z"/><path fill="#e54c5b" d="M133.859,92.973a19.809,19.809,0,0,0-5.288,7.774c-2.921,7.689,1,16.509,8.931,18.7q.445.123.9.217c8.852,1.839,25.929,3.519,36.473-7.431V98.635Z"/><path fill="#ffcacf" d="M128.641,75.4,150.364,51.03s19.027-4.746,33.082,3.946l2.012,6.15c.719,8.149,1.128,22.584-3.377,32.977-2.9,6.685-8.131,11.6-15.958,12.875-5.6.91-15.063.978-22.271-1.573-5.218-1.847-7.93-6.8-9.152-9.87a4.2,4.2,0,0,0-3.365-2.672c-6.387-.75-8.449-5.031-8.755-8.77A7.846,7.846,0,0,1,128.641,75.4Z"/><path fill="#e5838b" d="M185.457,61.126c-.336-3.812-.74-6.253-.74-6.253-14.055-8.692-33.657-4.623-33.657-4.623L139.865,62.806C163.061,53.367,180.088,58.851,185.457,61.126Z"/><path fill="#333353" d="M151.06,50.25s-3.691,22.4-22.419,25.147c0,0-2.643-3.414-.727-11.269a13.134,13.134,0,0,1,6.965-9.2A50.441,50.441,0,0,1,151.06,50.25Z"/><path fill="#e5838b" d="M282.691,238.059,271,244.333a15.358,15.358,0,0,0-7.977,15.992,35.423,35.423,0,0,0,1.281,5.182,11.685,11.685,0,0,0,20.08,3.839c.083-.1.167-.2.25-.308Z"/><path fill="#ffcacf" d="M296.288,239.116a13.5,13.5,0,0,0-14.427-1.789c-5.213,2.484-10.924,7.639-9.9,18.235a51.709,51.709,0,0,0,3.8,15.126c6.1,14.472,27.337,13.246,31.033-2.018q.12-.5.221-1.011v0C307.027,267.561,309.259,249.721,296.288,239.116Z"/><path fill="#586381" d="M157.792,187.946a3,3,0,0,1-.45-5.966l4.084-.625a3,3,0,0,1,.907,5.931l-4.084.624A2.951,2.951,0,0,1,157.792,187.946Z"/><path fill="#586381" d="M159.305,211.035a3,3,0,0,1-.45-5.966l4.084-.624a3,3,0,1,1,.907,5.93l-4.083.625A2.972,2.972,0,0,1,159.305,211.035Z"/><path fill="#586381" d="M162.852,234.122a3,3,0,0,1-.449-5.965l4.083-.625a3,3,0,0,1,.907,5.931l-4.083.624A2.972,2.972,0,0,1,162.852,234.122Z"/><path fill="#e8808f" d="M163.957,75.457a2.987,2.987,0,0,1-.626-.066l-4.424-.938a3,3,0,0,1,1.245-5.869l4.425.938a3,3,0,0,1-.62,5.935Z"/><path fill="#e8808f" d="M176.132,75.971a3,3,0,0,1-.608-5.938l3.384-.7a3,3,0,0,1,1.221,5.874l-3.384.7A3,3,0,0,1,176.132,75.971Z"/><path fill="#e5838b" d="M133.265,85.5c-.641-2.154-2.2-5.309-5.9-6.038a.489.489,0,0,0-.367.886,5.362,5.362,0,0,1,1.555,1.616,2.731,2.731,0,0,1,.06,2.782,2.924,2.924,0,0,0-.353,2.1,2.577,2.577,0,0,0,1.022,1.576c.02.015.041.03.063.044A2.62,2.62,0,0,0,133.265,85.5Z"/><path fill="#e87b40" d="M149.61,261.491l11.072-9.814a1.684,1.684,0,0,1,2.8,1.277l-.073,7.094a4.807,4.807,0,0,1-5.034,4.752l-7.729-.366A1.684,1.684,0,0,1,149.61,261.491Z"/></svg>