<svg xmlns="http://www.w3.org/2000/svg"  viewBox="0 0 340 340" width="500px" height="500px"><path fill="#ffc362" d="M192.03,7.7,178.191,15.57,162.353,7.7V27.666c4.471,5.169,17.962,3.287,32.1.895C195.223,20.007,195.049,12.407,192.03,7.7Z"/><path fill="#fa883e" d="M162.353,27.666V37.793h59.354V7.7L205.868,15.57,192.03,7.7v8.264a8,8,0,0,1-6.695,7.9Z"/><path fill="#3c3c4f" d="M53.706,287.32H68.748a0,0,0,0,1,0,0V332a3.817,3.817,0,0,1-3.817,3.817H57.523A3.817,3.817,0,0,1,53.706,332V287.32A0,0,0,0,1,53.706,287.32Z"/><path fill="#f0fbff" d="M53.706,234.508V44.369a74.047,74.047,0,0,1,4.81-26.256l2.711-7.151,2.711,7.151a74.069,74.069,0,0,1,4.81,26.256V240.392A26.929,26.929,0,0,1,53.706,234.508Z"/><polygon fill="#90a7d1" points="68.748 240.392 53.706 234.508 53.706 258.92 68.748 258.92 68.748 240.392"/><path fill="#ffc362" d="M61.227,254.151c-15.851,0-24.8,4.856-29.8,9.751l1.706,7.412,52.548-1.77c-2.061-6.689-5.37-11.912-11.132-14.255A72.573,72.573,0,0,0,61.227,254.151Z"/><path fill="#fa883e" d="M74.546,255.3a26.364,26.364,0,0,1,2.839,3.467,5.6,5.6,0,0,1-4.648,8.732H41.165s-5.747-.561-9.735-3.6a21.409,21.409,0,0,0-6.075,9.991s-3.519,10.961,1.563,20.5c0,0,.832-19.629,21.781-19.629h51.717S97.676,259.63,74.546,255.3Z"/><path fill="#3c3c4f" d="M272.173,198.357s34.1,62.091,29.674,132.6H253.579l-24.81-80.957V198.357Z"/><path fill="#3c3c4f" d="M125.957,274.276s-9.685,36.987-10.5,56.686H148l6.393-43.413Z"/><path fill="#ffd7cd" d="M274.741,235.332c3.908,7.163,8.536,15.8,11.392,21.644l-25.686,27.715,23.22,24.335s22.957-23.8,35.286-38.032a14.7,14.7,0,0,0,2.36-15.532c-3.8-8.666-10.216-22.933-16.8-35.791C295.111,221.865,285.091,227.644,274.741,235.332Z"/><path fill="#f79089" d="M292.182,198.357,267.657,222.5s3.185,5.683,7.084,12.829c7.47-1,20.315-4.395,29.772-15.66A184.788,184.788,0,0,0,292.182,198.357Z"/><path fill="#ffd7cd" d="M126.91,240.742l-2.733,11a26.059,26.059,0,0,1-17.324,18.572,117.558,117.558,0,0,1-21.983,3.962L68.748,312.059s57.861,5.081,79.594-26.813l13.83-24.274V245.6Z"/><path fill="#fdfbff" d="M150.812,277.6c-5.846,9.841-12.907,26.321-10.786,46.247a8,8,0,0,0,7.97,7.12h88.283C258.864,278.916,229.089,261.99,150.812,277.6Z"/><path fill="#f79089" d="M126.91,240.742c7.429,2.94,21.186,7.609,35.262,8.424V214.683H133.383Z"/><path fill="#b9b4d3" d="M157.818,259.9v7.8a57.09,57.09,0,0,0-10.213,18.6l70.77-.575a16.083,16.083,0,0,1,14.309,8.729l-5.082,6.01c-5.767,5.509-3.615,15.508,1.44,21.676l7.237,8.831h17.3a8,8,0,0,0,8-7.557c.614-11.708-1.632-34.846-24.789-53.7v-7.118Z"/><path fill="#fdfbff" d="M294.714,193.635l-1.411-1.952a8,8,0,0,1-1.486-4c-.745-8.522-6.289-40.531-47.557-50.085l-95.632,6.03s-44.328,18.441-33.879,62.339a16.933,16.933,0,0,1,.853,3.859v4.5a9.18,9.18,0,0,0,4.086,7.643c3.913,2.608,11.152,5.888,23.832,7.294a17.4,17.4,0,0,1,6.544.523s.288,16.657,7.754,25.559v7.386h78.975v-4.8s10.015-8.949,10.956-28.316l-.33-10.167s4.365,3.116,11.992,3.436a6.23,6.23,0,0,1,4.081,1.8l.6.593a6.35,6.35,0,0,0,7.448,1.054c1.186-.636,2.565-1.433,4.065-2.408l5.626-4.153a56.766,56.766,0,0,0,6.574-6.449l4.233-5.58a53.355,53.355,0,0,0,3.4-5.928A7.981,7.981,0,0,0,294.714,193.635Z"/><path fill="#b9b4d3" d="M148.628,143.632a66,66,0,0,0-12.213,7.206c1.733,14.035,28.407,31.234,38.905,37.5a12.3,12.3,0,0,1,5.138,5.795c2.932,7.108,10.455,9.091,10.455,9.091,8.114,0,11.881-3.856,13.629-7.436a13.053,13.053,0,0,1,8.655-7.113c7.7-1.824,20.481-6.616,32.485-19.183,13.582-14.219,10.617-24.5,7.9-29.135a81.325,81.325,0,0,0-9.318-2.752Z"/><path fill="#b9b4d3" d="M195.532,270.9c.011-.064.021-.13.029-.195l1.554-13.345a3.494,3.494,0,0,0-.823-2.687c-2.536-2.948-3.11-11.357-2.876-15.962,0-.061,0-.122,0-.183V180.983a3.5,3.5,0,0,0-7,0v57.461c-.085,1.767-.46,13.139,3.583,19.47L188.619,269.8c-.473,2.733-6.8,40.008-4.318,61.16h7.049C188.653,310.872,195.46,271.322,195.532,270.9Z"/><path fill="#6d68b7" d="M169.412,127.9c-8.589,1.276-17.72,4.525-22.917,12.064,0,0-6.145,7.142,3.654,19.1s38.367,30.727,38.367,30.727,9.7-2.218,27.1-10.229c19.656-9.053,42-29.466,30.371-46.075-4.514-6.449-13.91-8.741-23.716-9.133C203.114,127.933,185.164,129.636,169.412,127.9Z"/><path fill="#4d5284" d="M190.684,139.31l1.06-12.15a52.43,52.43,0,0,1-7.266.124,76.366,76.366,0,0,0-15.065.614A25.8,25.8,0,0,0,190.684,139.31Z"/><path fill="#4d5284" d="M202.414,125.576l-10.433,35.342L191,189.113s5.38-.06,13.1-4.6c.091-6.444,3.294-13.549,3.294-13.549,17.7-15.086,15.977-38.911,14.873-46.61A112.233,112.233,0,0,0,202.414,125.576Z"/><path fill="#ffd7cd" d="M182.552,137.9v10.333a32.371,32.371,0,0,0,.655,6.639c.993,4.741,3.433,12.1,9.31,16.089,0,0,20.059-5.425,21.656-30.173v-9.207Z"/><path fill="#3c3c4f" d="M182.179,254h-25.6a6.473,6.473,0,0,0-6.473,6.473v7.258a6.473,6.473,0,0,0,6.473,6.473h25.6Z"/><path fill="#3c3c4f" d="M240.142,254H199.648v20.2h40.494a6.473,6.473,0,0,0,6.473-6.473v-7.258A6.473,6.473,0,0,0,240.142,254Z"/><rect width="30.29" height="20.203" x="175.768" y="253.998" fill="#ffc362" rx="6.411"/><path fill="#f79089" d="M74.741,274.276h9.875a6.052,6.052,0,0,1,6.052,6.052V293.07a6.051,6.051,0,0,1-6.052,6.052H71.131Z"/><path fill="#ffd7cd" d="M67.806,322.39H54.647a9.529,9.529,0,0,1-9.529-9.529V283.805a9.529,9.529,0,0,1,9.529-9.529H77.336v10.8a16.926,16.926,0,0,0,0,7.436v9.59a22.67,22.67,0,0,0,0,7.436v3.327A9.529,9.529,0,0,1,67.806,322.39Z"/><path fill="#ffd7cd" d="M262.509,282.578l-2.442-.835a15.542,15.542,0,0,0-15.2,2.95h0a6.391,6.391,0,0,0-.857,8.768l1.167,1.5-6.459,6.059a11.478,11.478,0,0,0-.474,16.27l9.578,10.1a11.477,11.477,0,0,0,16.266.39l19.575-18.747S276.156,288.294,262.509,282.578Z"/><path fill="#4d5284" d="M196.045,181.015a3.5,3.5,0,0,1-3.383-2.606,3.632,3.632,0,0,1,2.508-4.29c20.62-6.675,31.271-19.166,35.872-26.22a1.659,1.659,0,0,1,3.019,1.188c-1.2,7.923-7.825,21.627-36.946,31.759A3.234,3.234,0,0,1,196.045,181.015Z"/><path fill="#b9b4d3" d="M235.037,202.97a1.587,1.587,0,0,0-3.115.41c-.184,9.173,2.418,21.146,15.818,26.235a64.642,64.642,0,0,0-.321-10.167C240.118,215.484,236.661,208.8,235.037,202.97Z"/><path fill="#f79089" d="M182.552,137.9c4.736,2.086,23.605,3.129,31.621-6.319V112.434l-31.621,13.74Z"/><path fill="#3c3c4f" d="M133.094,108.126a33.029,33.029,0,0,0,16.61-.741s3.994,16.9,27.783,12.8l33.479-3.565c6.137-2.367,11.408-5.581,14.123-11.3,0,0,3.231,3.662,13.785,4.523a39.338,39.338,0,0,0-1.508-26.708s9.693.43,13.355-7.539c0,0-5.127-.263-9.63-6.335a21.581,21.581,0,0,1-3.863-9.277c-.983-5.8-4.519-19.479-16.507-26.047A26.833,26.833,0,0,0,207.806,30.8H176.885a27.765,27.765,0,0,0-16.873,5.626C152.676,42.031,143.805,52.4,144.1,70,144.593,99.143,133.094,108.126,133.094,108.126Z"/><path fill="#ffd7cd" d="M184.38,56s-18.093,6.247-21.539,24.124V106.4s.646,21.539,24.555,23.909c0,0,23.477,2.369,28.216-17.878V86.372S193.462,81.153,184.38,56Z"/><circle cx="177.528" cy="95.156" r="3.559" fill="#3c3c4f"/><circle cx="193.378" cy="95.156" r="3.559" fill="#3c3c4f"/><path fill="#3c3c4f" d="M59.077,292.508H77.336v-7.436H59.077a3.718,3.718,0,0,0-3.718,3.718h0A3.717,3.717,0,0,0,59.077,292.508Z"/><path fill="#3c3c4f" d="M59.077,309.534H77.336V302.1H59.077a3.718,3.718,0,0,0-3.718,3.718h0A3.717,3.717,0,0,0,59.077,309.534Z"/><path fill="#fa883e" d="M198.1,256.959h-.614a2.947,2.947,0,0,0-2.669,1.7l-4.739,10.175a1.692,1.692,0,0,0,1.533,2.406H198.1a4.069,4.069,0,0,0,4.069-4.069v-6.144A4.069,4.069,0,0,0,198.1,256.959Z"/><path fill="#4d5284" d="M174.6,147.433c.607,8.78,3.313,20.013,12.68,24.266l-2.358,7.211a25.041,25.041,0,0,1-15.648-23.717,48.8,48.8,0,0,1,.6-7.965A2.382,2.382,0,0,1,174.6,147.433Z"/><path fill="#ffc362" d="M183.779,188.142a8.4,8.4,0,0,1-.413-2.61v-9.1a8.408,8.408,0,0,1,7.821-8.387s10.035,2.01,5.75,14.2S183.779,188.142,183.779,188.142Z"/><path fill="#fa883e" d="M190.235,168.172c1.758,1.04,3.186,3.356,3.186,7.517v1.972a6.605,6.605,0,0,1-2.667,5.3l-6.97,5.177a8.4,8.4,0,0,0,8.534,5.78,8.6,8.6,0,0,0,7.861-8.679v-8.807A9.107,9.107,0,0,0,190.235,168.172Z"/><path fill="#3c3c4f" d="M23.321,334.462c22.662-.67,9.942-33.47,7.143-40.656.258-2.81,1.926-13.087,12.515-15.764a12.929,12.929,0,0,0-1.361,5.763v29.056A13.043,13.043,0,0,0,54.647,325.89h13.16a13.041,13.041,0,0,0,12.675-10.064,137.4,137.4,0,0,0,33.853-4.628,161.378,161.378,0,0,0-2.372,19.62,3.5,3.5,0,0,0,3.5,3.644c.771-.108,186.387,0,186.387,0a3.5,3.5,0,0,0,3.493-3.281,222.409,222.409,0,0,0-1.088-38.788c6.083-6.518,12.537-13.555,17.346-19.107a18.3,18.3,0,0,0,2.921-19.229c-5.744-13.114-16.533-36.869-25.539-51.679,1.809-4.458.214-9.194-2.839-12.744-2.969-11.54-4.921-40.765-44.87-53.747-5.182-11.624-15.544-15.011-33.6-15.088v-3.151c0-.045-.012-.086-.013-.131.018-.045.034-.093.052-.139a25.342,25.342,0,0,0,8.477-7.1,33.66,33.66,0,0,0,12.4,3.063,3.5,3.5,0,0,0,3.569-2.279,42.2,42.2,0,0,0-.011-24.942A16.331,16.331,0,0,0,253.9,77.063a3.486,3.486,0,0,0-2.93-4.952c-3.973-.365-9.439-6.186-10.292-12.706-.963-5.683-4.362-19.008-15.472-26.77V7.7a3.525,3.525,0,0,0-5.058-3.135L205.98,11.606,193.76,4.654a3.5,3.5,0,0,0-3.461,0L178.08,11.606,163.911,4.561A3.525,3.525,0,0,0,158.853,7.7V32.969c-8.92,6.51-18.4,17.474-18.251,37.092.449,26.649-9.6,35.252-9.662,35.307a3.524,3.524,0,0,0,1.3,6.153,37.069,37.069,0,0,0,15.351.062c2.111,4.284,7.308,11.215,18.993,12.517.187.211.376.42.572.627-12.188,2.341-23.136,7.972-25.831,18.762-14.155,8.05-45.877,30.707-29.224,66.341-.841,11.254,3.472,15.278,14.108,19.2L120.78,250.9c-2.254,9.47-10.242,15.569-19.456,17.384-3.607-5.395-11.939-14.1-29.076-16.8V44.369a77.305,77.305,0,0,0-5.037-27.5L64.5,9.721a3.5,3.5,0,0,0-6.545,0l-2.711,7.151a77.283,77.283,0,0,0-5.037,27.5V251.493c-28.369,4.876-34.233,26.964-26.468,44.373.5,1.1,6.446,15.616,5.738,25.152.042,3.106-1.613,6.671-6.155,6.444-3.185-.087-2.843-4.891-1.009-6.682,3.024-3.475-2.064-8.049-5.2-4.688C11.111,322.132,13.973,334.65,23.321,334.462Zm57.515-56.686h7.05a2.969,2.969,0,0,1,2.966,2.966v13.613a2.97,2.97,0,0,1-2.966,2.967h-7.05Zm-7,35.085a6.036,6.036,0,0,1-6.029,6.029H54.647a6.035,6.035,0,0,1-6.029-6.029V283.805a6.035,6.035,0,0,1,6.029-6.029H73.836Zm48.041-4.12a71.809,71.809,0,0,0,16.071-8.285c-1.529,7.83-3.074,18.058-.559,27.006h-18.2C119.617,322.424,120.52,316.143,121.877,308.741ZM199.648,257.5a2.914,2.914,0,0,1,2.911,2.911v7.382a2.914,2.914,0,0,1-2.911,2.91H182.179a2.913,2.913,0,0,1-2.91-2.91v-7.382a2.914,2.914,0,0,1,2.91-2.911Zm-13.6-107.2V133.672A33.529,33.529,0,0,0,209.09,128.3c.537-.052,1.057-.091,1.583-.135v12.511c-.979,14.568-8.988,21.636-14.349,24.762a11.6,11.6,0,0,0-5.384-.866C186.845,158.976,186.12,151.17,186.052,150.3Zm-19.711-43.966V80.471c2.3-11.184,11.332-17.27,16.14-19.775a51.449,51.449,0,0,0,29.63,28.255v23.064c-4.17,16.553-23.546,14.891-24.371,14.813C167.551,124.828,166.4,107.487,166.341,106.334Zm25.432,84.1a4.912,4.912,0,0,1-4.908-4.906v-9.1c.2-6.482,9.608-6.486,9.814,0v9.1A4.912,4.912,0,0,1,191.773,190.438Zm4.189,59.841c-1.558-1.382-2.571-7.176-2.541-11.747V197.31a11.973,11.973,0,0,0,10.258-12.485,128.443,128.443,0,0,1,13.15-4.995c9.961-3.213,21.636-10.057,28.928-19,30.4,13.238,16.476,35.616,39.63,49.94a53.321,53.321,0,0,1-6.222,6.168,82.923,82.923,0,0,0-11.867-9.684c-9.629-6.264-12.894-20.235-12.528-21.377a3.5,3.5,0,0,0-7,.278c.019.506.586,12.527,11.247,23.318,4.267,4.131,9.231,6.424,14.463,11.657-2.32,1.264-4.623,3.717-6.939,1.647a10.051,10.051,0,0,0-6.988-3.389c-20.514-1.11-22.82-22.051-22.409-27.621a3.5,3.5,0,0,0-6.986-.452c-.056.866-1.161,20.642,13.923,30.227,1.187,14.455-2.892,24.031-5.914,28.957H196.164C196.1,250.426,196.038,250.346,195.962,250.279ZM261.409,278.5a19.086,19.086,0,0,0-11.284-.439q-1.383-1.7-2.891-3.334a9.939,9.939,0,0,0,2.881-7v-7.258a9.964,9.964,0,0,0-4.734-8.47c3.285-6.084,6.236-14.951,5.922-26.987a30.972,30.972,0,0,0,7.962,1.367,2.724,2.724,0,0,1,1.779.8,10.132,10.132,0,0,0,7.1,3.4c3.905,7.072,9.918,18.092,13.785,25.786Zm-20.891,16.03-4.19,3.931a15.046,15.046,0,0,0-.619,21.231l7.367,7.767H191.563c-2.8-16.488,1.917-42.771,3.284-49.761.274-.012,45.3.024,45.539-.012q1.695,1.714,3.242,3.519A10,10,0,0,0,240.518,294.533Zm-31.4-37.035h31.022a2.977,2.977,0,0,1,2.972,2.973v7.258a2.976,2.976,0,0,1-2.972,2.972H209.121a9.882,9.882,0,0,0,.438-2.91C209.458,265.666,209.879,259.448,209.121,257.5Zm-36.415,13.2H156.582a2.976,2.976,0,0,1-2.973-2.972v-7.258a2.977,2.977,0,0,1,2.973-2.973h16.124a9.894,9.894,0,0,0-.437,2.911C172.37,262.534,171.949,268.752,172.706,270.7Zm-17.763,6.854a9.949,9.949,0,0,0,1.639.146h31.13c-1.66,8.693-5.719,32.87-3.232,49.761H148a4.484,4.484,0,0,1-4.49-3.991C141.339,303.112,149.337,286.443,154.943,277.555Zm143.588,49.907H269.477c10.913-10.507,15.656-14.586,28.414-28.294A214.314,214.314,0,0,1,298.531,327.462ZM316.307,268.7c-24.791,27.858-35.59,38.5-54.636,56.542a8.021,8.021,0,0,1-11.307-.271l-9.577-10.1a8.015,8.015,0,0,1,.33-11.308l6.458-6.059a3.5,3.5,0,0,0,.365-4.706c-1.458-1.646-2.762-3.595-.78-5.463a12.086,12.086,0,0,1,11.774-2.287c2.345.877,4.908,1.955,6.571-.672,5.119-5.522,25.4-27.407,30.1-32.473a3.5,3.5,0,0,0-5.135-4.758L287,250.9c-3.643-7.1-8.52-16.065-12.046-22.465A60.8,60.8,0,0,0,295.055,209.5c8.337,14.5,17.813,35.406,23.052,47.367A11.264,11.264,0,0,1,316.307,268.7ZM288.33,187.991c1.147,9.226,8.441,6.525,1.259,17.091-20.488-11.724-6.875-34.448-39.857-50.189a24.394,24.394,0,0,0,3.036-11.111C283.051,154.923,287.651,180.213,288.33,187.991Zm-45.214-52.5c10.135,15.32-11.522,32.164-28.435,37.679-3.926,1.266-7.605,2.618-11,4.033a12.2,12.2,0,0,0-1.784-7c6.519-4.362,14.887-13.372,15.778-29.408V127.8C230.545,127.608,239.451,130.252,243.116,135.489ZM165.853,13.344l10.781,5.36a3.506,3.506,0,0,0,3.289-.092l12.106-6.89,12.109,6.89a3.5,3.5,0,0,0,3.288.092l10.781-5.36V29.03c-6.788-3.082-33.725-1.282-41.321-1.73a31.841,31.841,0,0,0-11.033,2ZM153.11,106.58a3.521,3.521,0,0,0-4.513-2.515,27.294,27.294,0,0,1-8.786,1.285c15.129-23.545-2.077-47.177,22.325-66.143a24.392,24.392,0,0,1,14.75-4.906h30.921a23.413,23.413,0,0,1,11.232,2.711c10.691,5.857,13.868,18.429,14.737,23.563.9,6.643,5.8,14.074,11.218,16.762a12.8,12.8,0,0,1-7.472,2.307,3.525,3.525,0,0,0-3.385,4.846,37.125,37.125,0,0,1,2.131,21.535c-5.912-.911-8.25-2.767-8.594-3.065a3.407,3.407,0,0,0-5.747.865,14.155,14.155,0,0,1-2.816,3.956V86.371a3.513,3.513,0,0,0-2.686-3.4c-.832-.2-20.465-5.2-28.753-28.154a3.5,3.5,0,0,0-4.435-2.12c-.652,0-21.057,8.014-23.9,27.432V106.4a27.176,27.176,0,0,0,2,9.168A14.69,14.69,0,0,1,153.11,106.58Zm-3.962,35.662c5.675-8.479,17.424-10.957,26.486-11.458a31.138,31.138,0,0,0,3.418,1.35v18.289a38.555,38.555,0,0,0,5.219,16.776c-3.841,3-4.721,7.571-4.406,12.364C164.842,168.266,143.21,153.779,149.148,142.242ZM119.1,214.326v-4.5a12.527,12.527,0,0,0-1.2-5.367c-12.417-26,10.183-44.677,23.941-53.149a25.672,25.672,0,0,0,3.19,6.688c-6.482,4.128-21.985,17.467-17.732,44.972a69.47,69.47,0,0,1,1,11.7,3.5,3.5,0,0,0,7,.011,76.138,76.138,0,0,0-1.115-12.955c-3.748-25.174,10.723-35.651,15.2-38.249,7.821,8.41,22.213,18.906,30.832,24.895a11.939,11.939,0,0,0,6.2,7.773V238.5a38.193,38.193,0,0,0,1.79,12H158.692c-6.92-11.791-6.764-38.566-2-59.741a3.5,3.5,0,1,0-6.725-1.942c-3.423,11.853-3.606,29.445-3.5,37.214C133.479,224.87,118.718,220.936,119.1,214.326Zm-11.186,59.322c20.231-6.745,20.167-25.363,25.017-42.641a90.077,90.077,0,0,0,13.823,2.075c.379,4.3,1.5,12.115,4.76,18.813a9.969,9.969,0,0,0-4.908,8.576c.113,3.983-.8,10.487,2.267,13.58a87.5,87.5,0,0,0-7.057,13.905c-14.279,15.9-42.65,20.73-60.983,20.863v-4.5h7.05a9.978,9.978,0,0,0,9.966-9.967c-.182-2.521.515-14.789-.59-16.959,2.409-.011,5.673.515,6.49-2.519C105.131,274.5,106.52,274.094,107.917,273.648ZM57.206,44.369a70.3,70.3,0,0,1,4.021-23.482,70.3,70.3,0,0,1,4.021,23.482v206.4a72.156,72.156,0,0,0-8.042,0Zm-28.519,230.6c4.223-20.575,50.676-23.831,65.539-4.57H48.473c-10.6,0-17.046,4.735-20.741,10.372A27.353,27.353,0,0,1,28.687,274.966Z"/></svg>