<svg xmlns="http://www.w3.org/2000/svg"  viewBox="0 0 340 340" width="500px" height="500px"><path fill="#d17e83" d="M231.566,167.655s8.8,16.145,34.355,23.586c0,0-21.424,25.345-31.393,54.591,0,0,2.515,16.66,24.783,17.237,10.043.26,14.458-2.88,16.278-6.406A7.772,7.772,0,0,0,271.515,246a21.819,21.819,0,0,1-7.814-5,200.074,200.074,0,0,0,38.462-38.962,18.807,18.807,0,0,0,1.618-19.942c-5.642-10.805-17.479-30.641-36.451-46.966a37.352,37.352,0,0,0-11.136-6.723,21.928,21.928,0,0,0-10.831-1.559C231.47,129.038,231.566,167.655,231.566,167.655Z"/><path fill="#d2e8ff" d="M63.311,252.9s44.307,47.505,107.56-25.332c51.494-59.3,81.571-131.524,81.571-131.524l-15.55-14.214S153.421,223.346,63.311,252.9Z"/><path fill="#96aef4" d="M92.075,239.781c76.117,16.459,107.4-75.032,107.4-75.032L223.559,152.7a574.02,574.02,0,0,0,29.709-58.269L236.892,81.834S170.419,194.521,92.075,239.781Z"/><path fill="#333353" d="M252.944,17.714h21.35a0,0,0,0,1,0,0V77.151A10.448,10.448,0,0,1,263.846,87.6h-.454a10.448,10.448,0,0,1-10.448-10.448V17.714a0,0,0,0,1,0,0Z" transform="rotate(-151.586 263.62 52.656)"/><path fill="#ffb664" d="M211.611,73.646,243.059,90.66l0,.009,26.17,14.158c6.526,3.678,18.1,5.583,23.435-6.128,0,0,2.535-8.087-2.517-12.386a13.562,13.562,0,0,0-7.646-2.759,14.548,14.548,0,0,0-10.075,4.195l-21.5-11.629,0-.009-30.776-16.65Z"/><path fill="#a34f5e" d="M245.092,181.424c2.367-30.9,15.672-41.594,15.672-41.594l-7.5-4.156a23.288,23.288,0,0,0,7.018-5.4,34.393,34.393,0,0,0-4.092-1.868,21.93,21.93,0,0,0-10.831-1.559c-13.893,2.189-13.8,40.806-13.8,40.806S235.336,174.563,245.092,181.424Z"/><path fill="#d17e83" d="M136.83,130.735s-20.621,14.582-24.123,45.091L87.192,151.963,73.82,161.269s4.725,37.453,32.7,60.8a12.943,12.943,0,0,0,15.72.684c9.67-6.785,25.995-20.3,36.035-39.838C158.277,182.919,151.316,152.258,136.83,130.735Z"/><path fill="#5b5b81" d="M161.66,216.852l-7.2,33.048a37.564,37.564,0,0,1-3.265,9.119l-1.666,3.256a37.523,37.523,0,0,0-3.866,12.705l-6.557,55.485H255.865L252.122,291.4a51.274,51.274,0,0,0-4.949-17.575l-.674-1.381s-8.053-37.908-10.774-63.491Z"/><path fill="#333353" d="M237.252,221.027c-.6-4.188-1.122-8.271-1.527-12.078l-74.065,7.9-2.134,9.8S215.213,235.426,237.252,221.027Z"/><path fill="#a34f5e" d="M158.277,182.919s-6.961-30.661-21.447-52.184a56.171,56.171,0,0,0-11.779,12.518,184.064,184.064,0,0,0,12.623,26.215,30.991,30.991,0,0,1,4.311,13.552,176.492,176.492,0,0,1,.26,22.371A100.836,100.836,0,0,0,158.277,182.919Z"/><path fill="#eae1e9" d="M193.37,101.549s-24.927,4.079-49.085,15.044a9.678,9.678,0,0,1-7.4.243l-4.162-1.561a26.477,26.477,0,0,0,0,19.217c3.27,8.789,12.734,25.446,17.287,36.946a31.1,31.1,0,0,1,2.18,11.453v20.733a18.822,18.822,0,0,0,9.469,13.228s12.992,2.5,37.2,2.5c15.193,0,24.627-1.512,29.547-2.637a14.21,14.21,0,0,0,6.875-3.829l4.059-4.065a2.594,2.594,0,0,0,.374-3.193l-2.193-3.563a16.428,16.428,0,0,1-2.379-9.99l1-11.921a93.046,93.046,0,0,1,4.156-20.819c2.083-6.44,5.082-13.911,8.973-19.1l-7.238-3.994s8.236-4.242,11.231-18.218c0,0-15.827-1.3-23.864-4.676A285.724,285.724,0,0,0,193.37,101.549Z"/><path fill="#333353" d="M161.66,216.852l-7.015,10.707a7.466,7.466,0,0,0,1.453,9.822c10.591,8.865,38.882,28.2,90.4,35.059l1.433-13.075a7.232,7.232,0,0,0-5.889-7.913C227.084,248.734,189.859,240,161.66,216.852Z"/><path fill="#ffb664" d="M186.126,250.808l4.427-11.49a6.67,6.67,0,0,1,8.768-3.766l12.186,5.031a6.668,6.668,0,0,1,3.864,8.009L212.116,259.9a7.553,7.553,0,0,1-9.366,5.161,90.038,90.038,0,0,1-12.763-4.685A7.56,7.56,0,0,1,186.126,250.808Z"/><path fill="#d17e83" d="M205.956,100.325V83.745H178.261v16.58a30.32,30.32,0,0,1-10.069,7.359A96.56,96.56,0,0,0,192.109,146.5a87.578,87.578,0,0,0,24.574-37.966C212.037,105.888,208.128,103.183,205.956,100.325Z"/><path fill="#703a45" d="M54.254,168.6l5.934,6.518a7.933,7.933,0,0,0,10.226,1.3c9.494-6.24,27.189-20.979,28.018-44.559a44.653,44.653,0,0,0-11.185-30.69c-9.418-10.85-25.8-29.242-35.292-37.115l-8.062,6.475A10.432,10.432,0,0,0,42.024,84.84L63.42,113.9A24.994,24.994,0,0,1,66.118,139a89.116,89.116,0,0,1-12.169,19.269A7.934,7.934,0,0,0,54.254,168.6Z"/><path fill="#dae5fc" d="M34.531,52.638,69.9,99.255A10.818,10.818,0,0,0,85.352,101.1l1.078-.879s-26.2-34.169-42.613-55.466a2.148,2.148,0,0,0-2.882-.487,29.308,29.308,0,0,0-6.341,5.681A2.163,2.163,0,0,0,34.531,52.638Z"/><path fill="#d17e83" d="M53.34,140.521l10.189-10.695a6.713,6.713,0,0,1,9.363-.348l2.871,2.6a12.643,12.643,0,0,1,2.478,15.757,30.672,30.672,0,0,1-5.541,6.905,12.606,12.606,0,0,1-16.512.423c-.743-.6-1.5-1.239-2.261-1.9A8.826,8.826,0,0,1,53.34,140.521Z"/><path fill="#333353" d="M202.231,330.465V289.976l6.549-2.752a3.5,3.5,0,1,0-2.71-6.453l-7.339,3.083-7.339-3.083a3.5,3.5,0,1,0-2.711,6.453l6.55,2.752v40.489Z"/><path fill="#aa878a" d="M197.175,166.643l3.082-2.523a3,3,0,1,0-3.8-4.643l-4.018,3.289-4.019-3.289a3,3,0,0,0-3.8,4.643l3.083,2.523-3.083,2.523a3,3,0,0,0,3.8,4.643l4.019-3.289,4.018,3.289a3,3,0,0,0,3.8-4.643Z"/><path fill="#aa878a" d="M200.678,186.264a3,3,0,0,0-4.222-.422l-4.018,3.289-4.019-3.289a3,3,0,0,0-3.8,4.644l3.083,2.523-3.083,2.522a3,3,0,0,0,3.8,4.644l4.019-3.289,4.018,3.289a3,3,0,0,0,3.8-4.644l-3.082-2.522,3.082-2.523A3,3,0,0,0,200.678,186.264Z"/><path fill="#a34f5e" d="M105.832,169.4c-.591,9.3,1.655,16.1,4.108,20.609a1.748,1.748,0,0,0,3.256-1.134,44.745,44.745,0,0,1-.489-13.045Z"/><path fill="#a34f5e" d="M282.491,189.751c-6.083,1.512-13.386,2.133-16.57,1.49h0s-2.045,2.421-5.157,6.615c11.819,1.533,19.111-2.215,23.066-5.51A1.5,1.5,0,0,0,282.491,189.751Z"/><path fill="#a34f5e" d="M205.956,83.056H178.261V97.2c3.614,1.966,7.948,3.665,12.149,3.665,4.879,0,10.781-2.289,15.546-4.63Z"/><path fill="#a34f5e" d="M159.756,48.346H155.09a6.927,6.927,0,0,0-6.927,6.927v3.576a14.917,14.917,0,0,0,3.27,9.483,14.636,14.636,0,0,0,12.705,5.46Z"/><path fill="#a34f5e" d="M221.065,48.346h4.665a6.927,6.927,0,0,1,6.928,6.927v3.576a14.917,14.917,0,0,1-3.27,9.483,14.637,14.637,0,0,1-12.705,5.46Z"/><path fill="#d17e83" d="M190.41,9.535c-30.5,0-30.908,28.485-30.908,28.485a226.987,226.987,0,0,0,1.652,26.869,27.8,27.8,0,0,0,5.818,14.053,59.379,59.379,0,0,0,5.408,5.869,26.148,26.148,0,0,0,18.03,7.147h0a26.144,26.144,0,0,0,18.029-7.147,59.149,59.149,0,0,0,5.409-5.869,27.789,27.789,0,0,0,5.817-14.053,226.733,226.733,0,0,0,1.653-26.869S220.915,9.535,190.41,9.535Z"/><path fill="#a34f5e" d="M181.048,56.157a3.539,3.539,0,0,1-.644-.059l-3.617-.673a3.5,3.5,0,0,1,1.28-6.882l3.617.673a3.5,3.5,0,0,1-.636,6.941Z"/><path fill="#a34f5e" d="M199.469,56.157a3.5,3.5,0,0,1-.636-6.941l3.617-.673a3.5,3.5,0,1,1,1.28,6.882l-3.618.673A3.52,3.52,0,0,1,199.469,56.157Z"/><path fill="#e87b40" d="M193.063,254.186l15.027-6.841a1.88,1.88,0,0,1,2.57,2.282l-2.4,7.542a5.364,5.364,0,0,1-6.927,3.419l-8.124-2.923A1.879,1.879,0,0,1,193.063,254.186Z"/><path fill="#e87b40" d="M290.142,86.313a13.562,13.562,0,0,0-7.646-2.759,14.545,14.545,0,0,0-10.075,4.195l-6.23-3.37a42.8,42.8,0,0,1-25.591,4.95l2.459,1.331,0,.009,26.17,14.158c6.526,3.678,18.1,5.583,23.435-6.128C292.659,98.7,295.194,90.612,290.142,86.313Z"/><rect width="4.399" height="14.095" x="48.39" y="54.348" fill="#fff" rx="2.199" transform="rotate(-37.745 50.59 61.396)"/><rect width="4.399" height="7.294" x="58.46" y="70.757" fill="#fff" rx="2.199" transform="rotate(-37.745 60.66 74.404)"/><path fill="#a34f5e" d="M194.878,136.315a4.921,4.921,0,0,1-5.447,0,63.764,63.764,0,0,1-16.575-16.891A95.8,95.8,0,0,0,192.109,146.5a86.93,86.93,0,0,0,20.1-26.8A69.726,69.726,0,0,1,194.878,136.315Z"/></svg>