<svg xmlns="http://www.w3.org/2000/svg"  viewBox="0 0 340 340" width="500px" height="500px"><path fill="#fff" d="M80.289,268.734s-26.358,31.213-38.945,49.125a25.469,25.469,0,0,0-3.972,8.691,17.105,17.105,0,0,0-.523,5.558l64.828-.27,33.507-53.051s46.973,24.931,70.878,53.321h52.631s0-.2,0-.567A29.551,29.551,0,0,0,250.088,311L197.5,257.938l-97.419-1.8Z"/><path fill="#ccd5e5" d="M191.31,286.35l21.843-12.619L197.5,257.938l-97.419-1.8L80.289,268.734s-4.14,4.9-9.915,11.929c5.463,3.212,11.3,6.9,17.009,10.641a20.071,20.071,0,0,1,8.181,22.746l-5.617,18.058h13.219l17.584-26.184h0l13.093-26.745s31.769,19.635,31.927,19.742c13,8.788,27.846,20.332,38.67,33.187h13.723c-5.148-11.823-17.835-24.111-28.023-32.649A8.037,8.037,0,0,1,191.31,286.35Z"/><path fill="#ffc4b6" d="M260.621,120.222l.867-4.449a17.236,17.236,0,0,1,6.6-10.515l7.066-4.772a4.546,4.546,0,0,1,7.091,3.826l-.021,1.611L294,99.09a5.609,5.609,0,0,1,8.277,4.548l.9,13.236A11.559,11.559,0,0,1,298.3,127.1l-39.609,27.915Z"/><polygon fill="#ea8b7f" points="267.084 149.104 260.621 120.222 258.693 155.017 267.084 149.104"/><path fill="#fff" d="M152.408,114.544l18.348,8.664,48.6,25.637,41.266-28.623,2.1,64.541A115.177,115.177,0,0,1,230.6,191.32a35.907,35.907,0,0,1-20.669-4.609l-29.394-14.6-11.158,45.951a409.007,409.007,0,0,1,36.013,38.071,6.145,6.145,0,0,1-2.13,9.493L146.909,291.9l-15.022-25.983-15.545,29.345a273.844,273.844,0,0,0-38-23.036,7.39,7.39,0,0,1-2.508-11.268l28.931-36-3.411-110.114,37.8-5.67Z"/><path fill="#ccd5e5" d="M104.76,224.959l-18.877,23.49a145.282,145.282,0,0,0,69.147,16.4,5.067,5.067,0,0,0,4.938-5.072V247.39s19.822,1.114,37.3-.711c-8.583-9.688-16.355-17.55-21.5-22.564l-71.291-9.288Z"/><polygon fill="#ccd5e5" points="140.97 109.092 138.351 108.066 101.669 113.693 102.198 132.717 136.722 120.222 140.97 109.092"/><path fill="#404a66" d="M127.635,267.573s12.186,25.777,17.607,50.989a7.341,7.341,0,0,0,4.044,5.081l12.014,5.692a3.173,3.173,0,0,0,4.458-3.564c-3.642-16.08-13.914-58.472-24.774-76.51Z"/><path fill="#404a66" d="M120.206,246.145a712.89,712.89,0,0,0-16.322,80.68,3.217,3.217,0,0,0,4.276,3.474l12.446-4.508a7.386,7.386,0,0,0,4.763-5.722c4.517-26.821,10.644-43.877,16.774-63.153Z"/><path fill="#ccd5e5" d="M143.116,109.933l-4.765-1.867L114.3,111.755c2.147,13.131,10.359,46.673,26.684,60.353l9.638-21.573Z"/><path fill="#ccd5e5" d="M138.351,108.066,114.3,111.755c.615,3.76,1.729,9.2,3.386,15.356l19.036-6.889,4.248-11.13Z"/><path fill="#78839e" d="M146.555,128.535l-3.439-18.6-4.765-1.867L114.3,111.755c.615,3.76,1.729,9.2,3.386,15.356l15.12-5.472,11.6,9.094Z"/><path fill="#ccd5e5" d="M148.5,112.04l-4.886,39.97a328.935,328.935,0,0,1-30.081,49.655l15.04,7.472s26.519-39.549,38.583-72.909a88.79,88.79,0,0,0,3.6-13.02l-18.039-9.515Z"/><path fill="#ffc4b6" d="M134.1,88.433l-2.173,22.823s-1.359,15.215,11.683,40.754A100.291,100.291,0,0,0,152.2,135.6a64.793,64.793,0,0,0,4.724-24.594V97.4Z"/><path fill="#ffc4b6" d="M155.649,205.691a45.049,45.049,0,0,1,9.371-5.169c2.615-1.02,10.128.407,11.4,3.357l2.481,3.06,5.111,1.709c4.41.41,7.669,5.149,7.205,10.475l-1.006,11.517c-.458,5.252-4.225,9.157-8.58,8.883-6.583-.413-16.27-1.169-24.707-2.417l-7.318-2.483Z"/><path fill="#fff" d="M101.254,113.756l-9.992,1.533A18.414,18.414,0,0,0,75.9,130.421c-3.146,18.573-8.322,53.578-8.446,83.485a16.255,16.255,0,0,0,5.63,12.414c10.645,9.163,36.556,27.048,77.54,28.086,0,0-1.449-25.888,6.3-48.715,0,0-34.254-5.415-50.255-14.165l-3.793-59.054Z"/><path fill="#fff" d="M101.349,114.845l-9.929,2.077c-7.85,1.2-13.349,5.98-14.675,13.811-.612,3.612-2.861,12.231-2.861,12.231-2.954,19.453-6.332,46.851-6.432,70.942a16.255,16.255,0,0,0,5.63,12.414c10.645,9.163,36.556,27.048,77.54,28.086,0,0-1.449-25.888,6.3-48.715,0,0-34.254-5.415-50.255-14.165l-3.793-59.054Z"/><path fill="#ccd5e5" d="M102.876,132.472l-1.207-18.779-10.407,1.6A18.415,18.415,0,0,0,75.9,130.421c-.612,3.611-1.3,7.849-2.013,12.543Z"/><path fill="#ea8b7f" d="M156.924,111.007V97.4L134.1,88.433l-2.173,22.823a43.934,43.934,0,0,0,.878,10.383l24.074-8.713C156.9,112.286,156.924,111.647,156.924,111.007Z"/><path fill="#404a66" d="M161.408,18.086s25.061-2.685,32.818,23.57c0,0,10.741,32.222-14.619,32.819l-45.846,6.79a24.353,24.353,0,0,1-25.422-12.971,36.841,36.841,0,0,1-3.319-10.825s-4.012-26.328,19.456-40.6a33.764,33.764,0,0,1,14.7-4.819C145.687,11.51,155,12.064,161.408,18.086Z"/><path fill="#ffc4b6" d="M166.9,31.187s-2.223,29.532-27.31,36.2a23.239,23.239,0,0,0-2.066-4.33,5.986,5.986,0,0,0-10.4.522c-1.387,2.83-2.534,7.146-2.454,13.652,0,0-.318,6.669,7.621,7.939l.748,5.421a10.507,10.507,0,0,0,4.245,7.1c4.388,3.162,13.162,7.8,28.909,10.252a10.253,10.253,0,0,0,11.4-7.183C182.71,83.64,191.148,44.659,166.9,31.187Z"/><path fill="#ccd5e5" d="M262.354,173.615c-10.618,7.459-24.553,10.827-32.687,12.236a19.344,19.344,0,0,1-12.143-1.876l-26.038-13.39a5.089,5.089,0,0,1-2.679-3.6l-1.48-8.01a1.54,1.54,0,0,0-3-.144l-3.8,13.281,28.743,16.1a39.007,39.007,0,0,0,21.535,4.929,104.065,104.065,0,0,0,31.949-7Z"/><path fill="#404a66" d="M159.507,90.169a19.837,19.837,0,0,1,4.924,1.441,3.5,3.5,0,1,0,2.938-6.354,26.82,26.82,0,0,0-6.948-2.027,3.5,3.5,0,0,0-.914,6.94Z"/><path fill="#404a66" d="M209.73,264.6a10.2,10.2,0,0,0,.83-2.324,10.066,10.066,0,0,0-2.095-8.7c-2.418-2.908-4.946-5.86-7.516-8.775a4,4,0,1,0-6,5.291c2.519,2.857,5,5.749,7.366,8.6a2.145,2.145,0,0,1-.746,3.31l-47.344,22.079a4,4,0,1,0,3.381,7.25l46.065-21.482,43.578,43.967a25.389,25.389,0,0,1,7.447,17.729v.567h8v-.6a33.362,33.362,0,0,0-9.766-23.33Z"/><path fill="#404a66" d="M174.939,300.437a4,4,0,0,0-4.674,6.493,141.279,141.279,0,0,1,27.607,25.178H208.1A146.519,146.519,0,0,0,174.939,300.437Z"/><path fill="#404a66" d="M41.261,327.483a21.413,21.413,0,0,1,3.356-7.324c9.3-13.238,25.829-33.375,34.078-43.286a267.272,267.272,0,0,1,29.041,17.232,4,4,0,1,0,4.495-6.618,270.9,270.9,0,0,0-32.138-18.852,3.327,3.327,0,0,1-1.813-2.3,3.385,3.385,0,0,1,.667-2.869l15-18.667c14.022,6.986,32.833,13,56.573,13.607h.1a4,4,0,0,0,3.993-4.222c-.013-.246-1.243-24.345,5.636-45.795a54.276,54.276,0,0,1,9.244-4.06,2.823,2.823,0,0,1,3.374,1.4l.313.6a10.839,10.839,0,0,0,8.267,5.745l2.2.275a4.389,4.389,0,0,1,3.8,4.793l-1.523,14.417a4.348,4.348,0,0,1-4.646,3.9c-5.634-.4-11.071-.9-16.16-1.474a4,4,0,0,0-.9,7.949c5.2.59,10.748,1.1,16.493,1.505q.454.031.9.032a12.315,12.315,0,0,0,12.268-11.07l1.523-14.416a12.43,12.43,0,0,0-10.765-13.573l-2.2-.275a2.837,2.837,0,0,1-2.164-1.5l-.313-.6a10.8,10.8,0,0,0-12.92-5.317,62.5,62.5,0,0,0-10.881,4.795c-2.63-.449-8.748-1.546-15.994-3.183,9.119-14.886,22.887-39.011,30.745-60.738.987-2.731,1.837-5.551,2.572-8.417l38.178,20.14-5.177,3.591a4,4,0,1,0,4.559,6.573l10.587-7.343L256.861,127.7l1.81,55.732a105.745,105.745,0,0,1-28.114,5.716,34.936,34.936,0,0,1-19.325-4.427L185.1,170.079l2.078-9.145a4,4,0,0,0-7.8-1.773l-2.728,12.009-3.611,14.869a4,4,0,0,0,7.775,1.888l2.368-9.754L207.322,191.7a42.954,42.954,0,0,0,21.022,5.518q1.361,0,2.723-.087a107.349,107.349,0,0,0,33.3-7.327,4,4,0,0,0,2.4-3.794l-1.009-31.071,34.856-24.565a15.65,15.65,0,0,0,6.561-13.768l-.9-13.235a9.61,9.61,0,0,0-14.18-7.792l-2.91,1.584a2.63,2.63,0,0,1-2.948-.288,10.613,10.613,0,0,0-13.157-.33l-7.378,5.51a21.2,21.2,0,0,0-8.136,12.954l-.557,2.855-37.934,26.311-58.2-30.7c.027-.8.055-1.6.056-2.4,1.488.3,3.024.576,4.647.829a14.1,14.1,0,0,0,2.178.169,14.315,14.315,0,0,0,13.668-10.157,144.2,144.2,0,0,0,5.126-24.443,17.689,17.689,0,0,0,10.6-7.891c6.635-10.857,1.36-27.7.9-29.111-6.5-21.9-24.939-26.858-35.264-26.48-7.311-5.889-16.946-6.5-23.941-5.914A37.9,37.9,0,0,0,122.4,13.455c-25.454,15.475-21.513,43.434-21.33,44.63a41.038,41.038,0,0,0,3.691,11.992,27.413,27.413,0,0,0,4.986,6.994,22.761,22.761,0,0,0,13.539,7.583,12.065,12.065,0,0,0,5.4,3.72l.381,2.764a14.681,14.681,0,0,0,.535,2.32l-1.15,12.08-14.8,2.269h-.006l-12.589,1.931-10.407,1.6a22.385,22.385,0,0,0-18.7,18.418c-3.121,18.427-8.376,53.861-8.5,84.137a20.244,20.244,0,0,0,7.02,15.462A111.335,111.335,0,0,0,86.794,240.93L72.711,258.454a11.348,11.348,0,0,0-.455,13.65c-8.413,10.115-24.827,30.139-34.185,43.455a29.385,29.385,0,0,0-4.589,10.059,21.317,21.317,0,0,0-.64,6.49h8.007a3.987,3.987,0,0,0-.021-.409A13.219,13.219,0,0,1,41.261,327.483ZM265.414,116.537a13.215,13.215,0,0,1,5.072-8.075l7.377-5.51a2.632,2.632,0,0,1,3.266.083,10.706,10.706,0,0,0,.917.672l-5.75,5.423a4,4,0,0,0-1.255,2.91v9.852a4,4,0,0,0,8,0v-8.126l10.42-9.827,2.454-1.335a1.608,1.608,0,0,1,2.374,1.305l.9,13.235A7.6,7.6,0,0,1,296,123.833l-30.559,21.536-.806-24.825ZM123.526,61.82a32.791,32.791,0,0,0-2.847,13.771,14.443,14.443,0,0,1-4.779-3.629,4.258,4.258,0,0,0-.343-.392,19.42,19.42,0,0,1-3.638-5.06,33.053,33.053,0,0,1-2.944-9.644c-.036-.237-3.369-23.839,17.579-36.575a29.869,29.869,0,0,1,12.952-4.251c5.817-.487,13.867-.02,19.162,4.96a4.024,4.024,0,0,0,3.15,1.065c.888-.088,21.888-1.9,28.573,20.724.012.044.027.088.041.132,1.338,4.013,3.925,15.874-.112,22.481a9.414,9.414,0,0,1-3.151,3.164c.414-16.058-3.426-32.6-18.329-40.876a4,4,0,0,0-5.931,3.2c-.019.253-2.042,24.129-21.121,31.582-.257-.488-.545-1-.864-1.515a9.985,9.985,0,0,0-17.4.866Zm5.647,17.346a4.167,4.167,0,0,0-.231-.439,3.336,3.336,0,0,1-.284-1.305,1.27,1.27,0,0,0,0-.239c-.059-4.893.648-8.988,2.047-11.842a1.915,1.915,0,0,1,1.666-1.06c.03,0,.064,0,.1,0a1.879,1.879,0,0,1,1.644.884,19.6,19.6,0,0,1,1.674,3.491,4,4,0,0,0,4.821,2.6,37.109,37.109,0,0,0,12.942-6.234l4.662,2.69a3.5,3.5,0,1,0,3.5-6.063l-2.768-1.6c6.443-7.219,9.447-15.962,10.822-21.867,6.962,6.513,9.357,16.564,9.5,26.968h-4.709a3.5,3.5,0,0,0,0,7h4.493c-.044.6-.091,1.208-.146,1.81,0,.015,0,.028,0,.042a135.583,135.583,0,0,1-5.155,25.61,6.276,6.276,0,0,1-6.95,4.379c-15.475-2.411-23.675-7.016-27.186-9.545a6.539,6.539,0,0,1-2.622-4.4l-.747-5.42a4,4,0,0,0-3.33-3.4A5.044,5.044,0,0,1,129.173,79.166Zm23.751,29.975v1.866a60.5,60.5,0,0,1-4.425,23.076,97.848,97.848,0,0,1-4.507,9.453c-8.882-19.971-8.089-31.812-8.083-31.9l.9-9.438A61.667,61.667,0,0,0,152.924,109.141ZM75.691,223.288a12.255,12.255,0,0,1-4.239-9.365c.123-29.705,5.309-64.648,8.39-82.834a14.394,14.394,0,0,1,12.027-11.846l10.407-1.6,8.782-1.347c2.245,11.514,6.839,27.693,13.557,40.569a4,4,0,0,0,7.093-3.7c-6.272-12.019-10.592-27.179-12.738-38.08l8.937-1.371c.17,5.548,1.709,19.019,11.236,38.3a306.612,306.612,0,0,1-16.933,29.873,4,4,0,1,0,6.734,4.318,313.476,313.476,0,0,0,18.138-32.2,104.668,104.668,0,0,0,8.819-16.894,66.643,66.643,0,0,0,4.159-15.031l6.143,3.241a84.527,84.527,0,0,1-2.812,9.539c-8.022,22.182-22.517,47.144-31.4,61.478-7.663-1.99-15.586-4.47-21.478-7.337l-2.976-46.325a4,4,0,0,0-7.984.513l2.963,46.125L93,194.9a4,4,0,0,0,4.047,6.9l9.748-5.717c13.363,6.557,35.427,11.043,44.945,12.77-4.781,16.579-5.293,33.566-5.23,41.381a123.717,123.717,0,0,1-51.378-13.814,3.974,3.974,0,0,0-.719-.388A104.847,104.847,0,0,1,75.691,223.288Z"/></svg>