<svg xmlns="http://www.w3.org/2000/svg"  viewBox="0 0 340 340" width="500px" height="500px"><path d="M42.2,277.865l5.644,4.414q-1.412,1.627-2.818,3.349a3.5,3.5,0,0,0,.41,4.845l24.136,21.092.581,5.325A16.621,16.621,0,0,0,83.8,331.406s7.017,1.553,11,.6c1.018-.244,1.236-1.688,1.21-2.735L93.8,240.1c16.892-22,16.061-54.665,14.9-67.835a5.617,5.617,0,0,1,3.1-5.481,92.5,92.5,0,0,1,10.421-4.516c2.068,19.542.185,59.951.164,60.389a3.5,3.5,0,0,0,3.5,3.666H164.5a3.5,3.5,0,0,0,3.49-3.23c1.822-23.49-2.534-52.273-4.478-63.5a59.955,59.955,0,0,1,10.415,3.2,5.525,5.525,0,0,1,3.31,3.826c2.354,9.764,4.642,21.989,6.8,36.335a3.5,3.5,0,0,0,6.922-1.042c-1.639-10.887-3.355-20.586-5.121-28.954a66.994,66.994,0,0,1,16.6,16.919,3.5,3.5,0,0,0,5.779-3.949,73.961,73.961,0,0,0-19.085-19.23,44.653,44.653,0,0,0-5.575-3.268,12.535,12.535,0,0,0-7.02-7.134,61.554,61.554,0,0,0-14.677-4.058,79.47,79.47,0,0,1-2.874-14.282c8.245-6.712,11.191-17.057,12.236-23.524,3.184-1.327,8.709-4.51,10.777-11.138A16.575,16.575,0,0,0,181,91.136a14.467,14.467,0,0,0-7.728-7.331,23.858,23.858,0,0,0,3.609-13.7c7.862-1.352,15.744-2.58,23.54-3.63a8.079,8.079,0,0,0,.009-16.012,229.271,229.271,0,0,0-29.288-1.994c-.737-3.654-1.807-8.541-3.219-13.906l0-.011c-1.524-5.786-3.183-11.127-4.93-15.873A17.55,17.55,0,0,0,147.041,7.206C134.449,6.771,114.35,8.46,90.117,19.029a17.811,17.811,0,0,0-10.48,18.319c.7,5.833,1.448,11.347,2.236,16.387l0,.016c.764,4.885,1.553,9.244,2.351,13.011A180.594,180.594,0,0,0,57.939,81.828a8.1,8.1,0,0,0,4.483,14.766,8.4,8.4,0,0,0,2.308-.327c5.736-1.639,12.582-3.546,20.258-5.6A20.028,20.028,0,0,0,95.2,99.541a14.469,14.469,0,0,0-2.04,4.088c-1.941,6.149.215,13.108,5.492,17.731,3.018,2.644,7.274,2.926,10.139,2.741a36.651,36.651,0,0,0,13.669,15.817c-.206,3.723-.506,9.423-.743,15.1a99.933,99.933,0,0,0-13.124,5.539,12.744,12.744,0,0,0-5.485,5.42c-12.778,5.6-37.208,22.541-49.448,44.865a3.5,3.5,0,0,0,.9,4.433l3.264,2.569c-5.6,7.271-14.576,19.561-21.377,31.928A22.04,22.04,0,0,0,42.2,277.865Zm117.6-94.079a233.6,233.6,0,0,1,1.422,35.541h-31.69c.257-6.389.722-20.044.656-33.566a22.421,22.421,0,0,0,13.7,4.1C150.563,189.864,155.98,187.751,159.794,183.786ZM128.628,157.4c.2-5.039.457-10.294.672-14.328a31.627,31.627,0,0,0,9.649,1.469,38.021,38.021,0,0,0,6.855-.644,30.948,30.948,0,0,0,6.608-1.97,89.026,89.026,0,0,0,3.4,14.462c.209,1.084,1.332,7.06,2.52,15.556-.093.405-.2.811-.318,1.2-2.024,6.535-6.647,9.711-14.13,9.711-6.346,0-10.907-2.507-13.558-7.456q-.151-.282-.289-.567c-.013-.027-.031-.047-.044-.073A146.994,146.994,0,0,0,128.628,157.4ZM164.012,48.552c-21.606.584-47.275,4.4-73.237,15.313q-.8-3.95-1.585-8.716c14.979-7.54,42.275-18.37,72.579-16.4C162.691,42.416,163.436,45.773,164.012,48.552Zm-71.1-23.106C117.159,14.871,137.079,13.86,146.8,14.2a10.578,10.578,0,0,1,9.624,6.9c1.189,3.229,2.334,6.768,3.427,10.542-29.64-1.32-56.155,8.647-71.769,16.246q-.777-5.413-1.49-11.371A10.76,10.76,0,0,1,92.916,25.446ZM62.807,89.536a.961.961,0,0,1-1.265-.567,1,1,0,0,1,.377-1.382c36.33-25.111,75.048-32.228,107.273-32.228A228.778,228.778,0,0,1,199.5,57.405a.954.954,0,0,1,.922,1.06.969.969,0,0,1-.936,1.078C147.332,66.567,91.467,81.349,62.807,89.536ZM169.893,71.345a16.162,16.162,0,0,1-4.4,11.116A17.784,17.784,0,0,1,155.446,74.1Q162.616,72.669,169.893,71.345ZM92.127,88.781q6.23-1.628,13.02-3.328a15.8,15.8,0,0,1-1.219,8.459A13.124,13.124,0,0,1,92.127,88.781Zm22.233,30.383a3.506,3.506,0,0,0-4.083-2.3c-1.531.344-5.419.626-7.012-.769-3.187-2.792-4.533-6.858-3.428-10.358a7.184,7.184,0,0,1,5.5-4.933l.075-.015a6.8,6.8,0,0,0,4.574-3.349c2.379-4.339,2.547-9.423,2.026-13.679,11.372-2.772,23.624-5.58,36.288-8.207,6.125,12.739,17.361,14.152,17.861,14.208a3.607,3.607,0,0,0,.389.021c.037,0,.073-.008.11-.009s.058.006.087,0c3.777-.216,6.39,1.246,7.981,4.463a9.5,9.5,0,0,1,.587,6.978c-1.518,4.865-6.605,6.759-7.832,7.15a3.5,3.5,0,0,0-2.907,3.046v0c-.975,8.367-4.874,22.818-20.029,25.6C122.155,141.121,114.665,120.053,114.36,119.164ZM84.986,324.508a9.591,9.591,0,0,1-7.875-8.376l-.729-6.684a3.5,3.5,0,0,0-1.177-2.255L52.62,287.455a153.9,153.9,0,0,1,21.628-20.6,168.567,168.567,0,0,1,13.593,15.307l1.068,43.019ZM75.265,257.45,86.9,244.137l.664,26.712C84.749,267.633,75.265,257.45,75.265,257.45Zm26.579-83.076c.977,12.748,1.19,40.343-12.235,59.584l-28.332-22.3C71.382,195.01,89.422,180.957,101.844,174.374ZM42.586,253.149a258.612,258.612,0,0,1,20.743-30.971l19.823,15.6L68.1,255.011a3.5,3.5,0,0,0-.134,4.443l1.646,2.129a159.047,159.047,0,0,0-17.05,15.5l-6.051-4.733A15.065,15.065,0,0,1,42.586,253.149Z"/><path d="M222.911,172.573a20.494,20.494,0,0,0,3.682,1.913c-14.017,15.14-20.6,32.5-23.664,46.181a44.713,44.713,0,0,0-17.385-8.271,3.5,3.5,0,0,0-4.256,3.824l1.65,13.909a37.938,37.938,0,0,0-19.525,4.608,3.5,3.5,0,0,0,1.39,6.562c.079.007,6.767.654,11.405,8.2H170.8a3.5,3.5,0,0,0-3.5,3.5v47.975a31.919,31.919,0,0,0,31.883,31.884h65.025a11.7,11.7,0,0,0,11.683-11.684V296.812a11.7,11.7,0,0,0-11.683-11.684h-26.19V285.1a13.361,13.361,0,1,0-26.721,0v.8a23.258,23.258,0,0,0-19.721,22.958v.778a23.14,23.14,0,0,0,6.6,16.2A24.91,24.91,0,0,1,174.3,300.971V256.5h68.01v18.743a3.5,3.5,0,0,0,7,0V253a3.5,3.5,0,0,0-2.776-3.423,50.524,50.524,0,0,0,9.073-15.836,3.5,3.5,0,0,0-2.393-4.577,37.618,37.618,0,0,0-9.877-1,31.914,31.914,0,0,1,9.294-9.392,3.5,3.5,0,0,0-1.774-6.461,55.682,55.682,0,0,0-27.189,7.576,88.294,88.294,0,0,1,17.15-31.628,20.606,20.606,0,0,0,2.2,4.413,16.487,16.487,0,0,0,13.784,7.8h7.835a16.486,16.486,0,0,0,13.783-7.8,21.626,21.626,0,0,0,2.728-17.388,21.808,21.808,0,0,0,5.621.76,21.341,21.341,0,0,0,11.751-3.472,16.488,16.488,0,0,0,7.8-13.784v-7.835a16.487,16.487,0,0,0-7.8-13.783,21.674,21.674,0,0,0-20.227-1.758,41.826,41.826,0,0,0-9.5,5.61,15.9,15.9,0,0,0-16.142,0q-1.255-.987-2.6-1.88a36.554,36.554,0,0,1-2.341-4.587,14.6,14.6,0,0,1,1.155-13.625,9.613,9.613,0,0,1,7.945-4.66h7.835c5.146,0,9.524,4.736,10.183,11.015a3.5,3.5,0,1,0,6.962-.73c-1.035-9.854-8.4-17.285-17.145-17.285H256.8a16.488,16.488,0,0,0-13.784,7.8,21.624,21.624,0,0,0-2.732,17.368,21.624,21.624,0,0,0-17.368,2.732,16.486,16.486,0,0,0-7.8,13.783v7.835A16.487,16.487,0,0,0,222.911,172.573ZM198.573,308.855a16.239,16.239,0,0,1,16.221-16.222,3.5,3.5,0,0,0,3.5-3.5V285.1a6.361,6.361,0,1,1,12.721,0v3.528a3.5,3.5,0,0,0,3.5,3.5h29.69a4.689,4.689,0,0,1,4.683,4.684v24.359a4.689,4.689,0,0,1-4.683,4.684H214.794a16.239,16.239,0,0,1-16.221-16.222Zm41.5-88.072a43.1,43.1,0,0,0-6.358,10.485,3.5,3.5,0,0,0,4.14,4.662,28.311,28.311,0,0,1,9.546-.638,38.721,38.721,0,0,1-10.792,14.2h-52.52a26.35,26.35,0,0,0-9.428-11.6,28.7,28.7,0,0,1,11.463-.4,3.5,3.5,0,0,0,4.282-3.818l-1.539-12.973a41.449,41.449,0,0,1,19.639,16.324,3.5,3.5,0,0,0,5.864.394A45.377,45.377,0,0,1,240.075,220.783Zm-.463-41.552c-12.352,12.581-20.762,28.527-24.994,47.436-.949.9-1.885,1.839-2.8,2.849-.786-1.014-1.744-2.16-2.869-3.369,2.613-14.158,9.249-33.925,25.908-50.112a21.827,21.827,0,0,0,5.425-.75A21.693,21.693,0,0,0,239.612,179.231Zm34.362-33.382a35.283,35.283,0,0,1,7.053-3.995,14.6,14.6,0,0,1,13.625,1.155,9.613,9.613,0,0,1,4.66,7.945v7.835a9.613,9.613,0,0,1-4.66,7.945,14.6,14.6,0,0,1-13.625,1.155,35.29,35.29,0,0,1-7.056-3.99,16,16,0,0,0,0-18.05Zm-13.262-.026a9.049,9.049,0,1,1-9.048,9.049A9.06,9.06,0,0,1,260.712,145.823Zm-10.684,24.783q1.353-.9,2.612-1.886a15.908,15.908,0,0,0,16.144,0q1.255.987,2.605,1.881a36.734,36.734,0,0,1,2.341,4.585,14.6,14.6,0,0,1-1.156,13.626,9.613,9.613,0,0,1-7.944,4.659H256.8a9.613,9.613,0,0,1-7.945-4.66,14.6,14.6,0,0,1-1.156-13.624A36.7,36.7,0,0,1,250.028,170.606Zm-27.915-19.652a9.614,9.614,0,0,1,4.66-7.945,14.6,14.6,0,0,1,13.625-1.155,35.377,35.377,0,0,1,7.058,3.988,16,16,0,0,0,0,18.057,35.254,35.254,0,0,1-7.055,3.99,14.6,14.6,0,0,1-13.625-1.155,9.613,9.613,0,0,1-4.66-7.945Z"/><path d="M154.58,117.526a3.5,3.5,0,1,0-5.089-4.807c-7.987,8.457-18.221,4.782-18.687,4.608a3.5,3.5,0,0,0-2.507,6.535,25.446,25.446,0,0,0,8.519,1.407A23.794,23.794,0,0,0,154.58,117.526Z"/><path d="M130.735,101.825a3.9,3.9,0,1,0-3.9,3.9A3.9,3.9,0,0,0,130.735,101.825Z"/><path d="M146.873,101.825a3.9,3.9,0,1,0-3.9-3.9A3.9,3.9,0,0,0,146.873,101.825Z"/></svg>