<svg xmlns="http://www.w3.org/2000/svg"  viewBox="0 0 340 340" width="500px" height="500px"><path fill="#fff" d="M98.6,222.912s-13.484,35.639-67.986,44.972a14.343,14.343,0,0,0-11.938,12.928s3.771,13.3,11.433,13.63c21.381.91,71-1.845,97.34-54.771l2.057-16.759Z"/><path fill="#bcaed3" d="M87.169,239.711c4.6.151,22.606.621,40.341-.522l2-16.277H98.6S95.7,230.568,87.169,239.711Z"/><path fill="#bcaed3" d="M35.446,285.585a20.079,20.079,0,0,1-11.938-1.377,15.025,15.025,0,0,1-4.816-3.4c-.018.223-.044.444-.052.67,0,.134-.008.269-.011.4A14.172,14.172,0,0,0,32.29,296.2c21.381.91,68.822-3.6,95.161-56.524l2.057-16.759h-8.474C115.835,233.044,90.959,275.6,35.446,285.585Z"/><path fill="#fff" d="M244.892,89.6l25.847-1.713s1.648-14.182,3.548-25.94a9.129,9.129,0,0,0-4.221-9.255l-2.394-1.462a10.94,10.94,0,0,1-5.121-7.816c-.278-1.961-.56-4.452-.764-7.443a7.859,7.859,0,0,1,3.139-6.837,2.581,2.581,0,0,1,3.937,1.215l2.855-17.784c.246-2.82,1.74-4.915,4.537-4.915h0c2.909.474,3.591,1.949,3.975,3.949a29.944,29.944,0,0,1,.4,3.014l1.024,11.643a79.765,79.765,0,0,1,7.98-12.527,8.676,8.676,0,0,1,12.933-.8,31.858,31.858,0,0,1,7.6,11.716,8.969,8.969,0,0,1-1.095,8.267L294.605,53.32a10.032,10.032,0,0,0-1.823,6.416L294.894,94.1a13.325,13.325,0,0,1-7.277,12.741l-38.7,19.42Z"/><path fill="#d8d8d8" d="M265.424,116.636c-.154-14.03-2.674-23.232-5.3-29.029l-15.234,1,4.021,36.216Z"/><path fill="#fff" d="M114.827,198.935l-9.179,2.162c-13.667,2.464-25.539,1.929-33.461,0-16.789-4.086-28.263-21.446-25.216-38.454.1-.563.487-2.287.613-2.819,2.746-11.614,16.4-17.725,27.285-12.837,12.554,5.637,25.3,14.382,35.6,23.256a52.142,52.142,0,0,1,7.385-21.551c-3.863-5.366-20.454-26.7-46.325-36.278a33.849,33.849,0,0,0-40.769,13.848c-5.067,8.345-9.609,20.454-11.752,37.991a74.087,74.087,0,0,0,2.141,29.58c4.284,14.8,14.565,32.872,39.239,34.365,0,0,16.539-.66,35.084-1.07,14.851-.329,30.071-1.434,40.4-3.554C135.869,223.574,122.481,214.3,114.827,198.935Z"/><path fill="#bcaed3" d="M48.717,160.874A18.982,18.982,0,0,1,75.065,148.1c12.554,5.637,25.124,14.987,35.419,23.86a68.86,68.86,0,0,1,2.421-11.556l-.193.106s-17.588-18.546-40.079-24.625A25.8,25.8,0,0,0,40.127,158.3c-.59,6.476.2,14.621,3.291,24.845,5.706,18.86-1.772,27.4-11.9,31.051,6.256,7.449,15.421,13.191,28.869,14,0,0,53.117,1.482,76.345-3.287,0,0-14.583-11.272-22.237-26.632l-9.076,1.523c-14.6,2.632-25.525,1.868-33.625-.393a32.614,32.614,0,0,1-23.684-35.1A31.358,31.358,0,0,1,48.717,160.874Z"/><path fill="#404a66" d="M310.991,251.336a164.981,164.981,0,0,0-48.037-10.231l.547-5.438a6.62,6.62,0,0,0-6.023-7.259h-.01a6.618,6.618,0,0,0-7.131,5.775l-.626,5.009c-8.283-.664-34.224-2.542-46.72-1.118l-1.034,19.9s27.01-.987,45.257,1.224l-.985,7.887,13.955,1.541,1.148-11.409c18.667-.429,36.064,4.633,44.581,7.614a6.607,6.607,0,0,0,8.123-3.357l.516-1.06A6.624,6.624,0,0,0,310.991,251.336Z"/><path fill="#404a66" d="M209.278,227.943s24.221-10.647,41.952-15.4l1.053,3.726a6.619,6.619,0,0,0,8.121,4.582l.629-.172a6.621,6.621,0,0,0,4.579-8.324l-1.856-6.055c15.96-5.972,32-7.458,40.338-7.8a6.609,6.609,0,0,0,6.313-6.116l.089-1.182a6.606,6.606,0,0,0-6.615-7.118,165.333,165.333,0,0,0-44.761,7.084l-2.3-7.519a6.62,6.62,0,0,0-12.7,3.741l1.637,5.789c-8.843,2.731-32.188,10.181-42.852,15.885Z"/><path fill="#ff7398" d="M126.718,243.233s-25.77,26.2-55.851,41.6a50.294,50.294,0,0,0-18.19,15.443,75.7,75.7,0,0,0-13.006,31.475,3.964,3.964,0,0,0,3.932,4.6h86.2l183.525-2.088c2.77,0,3.285-2.128,2.29-4.687-2.944-7.569-6.133-20.4-23.7-32.339l-76.764-45.808Z"/><path fill="#dd476b" d="M292.16,297.235l-75.976-45.808L127.5,242.616a72.033,72.033,0,0,1-11.989,12.812c3.768,3.437,23.272,11.981,35.965,17.574,3.445,1.518,7.792,7.648,7.792,7.648a15.145,15.145,0,0,1-.758,14.02c-5.52,9.271-18.317,25.253-19.364,41.679H316.279a3.9,3.9,0,0,0,3.626-5.31C316.992,323.471,309.551,309.175,292.16,297.235Zm-87.787-6.142c-3.476-6.19-5.762-8.783-10.335-12.308a1.678,1.678,0,0,1,.88-2.994l9.092-.831a2.26,2.26,0,0,1,2.456,2.033l1.268,13.053A1.8,1.8,0,0,1,204.373,291.093Z"/><path fill="#a7bfea" d="M236.615,254.756l14.744,4.915c11.334,4.614,27.312,12.941,40.974,26.864,6.314,6.434,9.365,12.212,11.068,19.772.289,1.281.355,2.894.553,4.62a9.155,9.155,0,0,1-13.419,9.107l-2.436-1.305s-.608.7-1.655,1.775a25.163,25.163,0,0,1-4.108,2.913,12.3,12.3,0,0,1-10.1-.868,27.47,27.47,0,0,1-8.566-7.841,131.825,131.825,0,0,1-7.12-14.858Z"/><path fill="#ff7398" d="M247.644,113.391c13.123-3.369,28.873-9.542,32.119-20.14,4.347-14.2-2.08-26.636-5.489-31.88-.258,1.58-.512,3.2-.757,4.828,1.635,5.595.552,11.492.768,15.727.326,6.39-1.27,11.862-6.993,14.722a64.91,64.91,0,0,1-20.851,5.905Z"/><path fill="#dd476b" d="M263.549,98.308a69,69,0,0,1-17.108,4.245l1.2,10.838a93.866,93.866,0,0,0,17.286-6.083A79.908,79.908,0,0,0,263.549,98.308Z"/><path fill="#a7bfea" d="M124.9,216.9s-6.433,7.848-5.565,23.525a11.731,11.731,0,0,0,6.324,10.27c12.466,6.554,43.9,19.153,89.984,7.759l4.667-33-6-14.317Z"/><path fill="#688abc" d="M214.314,211.136l-46.12,2.844-43.766,2.7s-6.491,8.022-5.623,23.7a12.827,12.827,0,0,0,6.831,10.653c9.114,4.792,28.391,12.622,56.1,12.042l-5.127-18.733a8.842,8.842,0,0,1,6.2-10.855,20.156,20.156,0,0,0,5.47,10.146,25.2,25.2,0,0,0,9.319,6.047l2.712,1.031a5.836,5.836,0,0,1,3.956,5.524,44.825,44.825,0,0,0,.313,4.556c3.594-.634,7.279-1.4,11.073-2.336l4.667-33Z"/><path fill="#fff" d="M156.192,216.68l3.3,10.448a79.73,79.73,0,0,0,4.249,13.441l6.3,19.946a90.108,90.108,0,0,0,3.658,11.572l.852,2.7c1.241,3.924,3.376,5.784,6.779,8.1a66.235,66.235,0,0,1,11.4,9.838s5.926,7.042,4.6,9.488h0A6.365,6.365,0,0,1,189.4,305.1l-7.805-3.085,4.954,19.823c1.287,3.595,1.076,7.04-2.663,7.818h0c-3.06.636-5.3-2.595-6.369-5.532l-5.4-11.051L170.5,323.377a8.843,8.843,0,0,1-11.985,6.856,27.006,27.006,0,0,1-7.318-4.2,11.03,11.03,0,0,1-3.711-10.237,88.416,88.416,0,0,1,7.77-24.96,13.945,13.945,0,0,0-.01-12.4L147.415,262.6a173.575,173.575,0,0,0-9.882-19.981L124.707,216.68Z"/><path fill="#d8d8d8" d="M156.192,216.68H124.707l5.826,11.78a72.118,72.118,0,0,0,31.005,5.135Z"/><path fill="#a7bfea" d="M194.508,219.352a39.815,39.815,0,0,1-2.67,5.849,36.611,36.611,0,0,0-2.416,7.163,12.287,12.287,0,0,0,5.31,8.63,83.033,83.033,0,0,0,10.421,5.929,14.626,14.626,0,0,1,1.862.56,8.247,8.247,0,0,0,11.539-4.616l4.882-15.33s.721-11.205-8.064-18.343Z"/><path fill="#688abc" d="M222.448,218.461l.031-.028a25.255,25.255,0,0,0-7.107-9.33l-20.864,10.158a38.517,38.517,0,0,0-3.649,5.465,12.314,12.314,0,0,0-1.421,7.636,108.778,108.778,0,0,0,17.247-4.911,1.728,1.728,0,0,1,2.271,2.137,95.42,95.42,0,0,0-3.8,17.333c.494.238.992.476,1.509.714a8.681,8.681,0,0,0,11.91-4.818l6.133-16.053A25.6,25.6,0,0,0,222.448,218.461Z"/><path fill="#dd476b" d="M111.111,201.542s-5.826,13.87,8.322,17.754,38.81.05,38.81.05S151.611,198.491,111.111,201.542Z"/><path fill="#dd476b" d="M226.676,84.541h13.713a12.528,12.528,0,0,1,12.01,8.79c2.339,7.636,4.054,20-.686,36.089a16.962,16.962,0,0,1-4.95,7.949,13.438,13.438,0,0,1-11.732,3.44Z"/><path fill="#ff7398" d="M147.333,110.248a138.664,138.664,0,0,0-41.014,41.527,21.857,21.857,0,0,0-3.241,9.513,156.62,156.62,0,0,0,.231,33.832,8.756,8.756,0,0,0,2.108,4.682h0a8.694,8.694,0,0,0,7.4,2.886c9.24-.924,31.275-.973,45.43,16.658,0,0,13.476,8.022,43.96,0,0,0,26.645-9.255,28.277-30.913a11.742,11.742,0,0,0-2.2-7.71l-6.5-9.06a11.546,11.546,0,0,1-2.14-6.005l-.092-1.473a11.538,11.538,0,0,1,3.7-9.207l12.567-11.569a14.006,14.006,0,0,0,4.4-8.486c1.269-9.675,2.989-30.839-3.591-45.16a13.635,13.635,0,0,0-10.854-7.84c-5.565-.637-13.717-.984-20.684,1.05Z"/><path fill="#dd476b" d="M192.734,169.168l-9.875-30.584c1.749,32.08,2.9,61.942,1.948,83.954a101.322,101.322,0,0,0,10.324-1.553Z"/><path fill="#dd476b" d="M218.67,126.612c11.518-11.519,13.555-27.439,11.136-43.559a13.673,13.673,0,0,0-4.031-1.13c-5.565-.637-13.717-.984-20.684,1.05L162.57,103.052h0l-15.237,7.2-.054.032-.089.055-.095.059-.183.113-.084.053c-.277.175-.666.425-1.159.75l-.063.042c-.175.116-.36.239-.559.374l-.013.008c-.734.5-1.614,1.1-2.643,1.842l0,.006c-1.6,1.154-3.525,2.6-5.687,4.343,1.016,7.871,4.379,17.469,14.019,22.714,2.92,5.647,9.987,20.39,9.987,20.39l-.228,35.63s4.628,15.489-2.237,22.687a26.81,26.81,0,0,0,7.686,2.519c1.962-4.8,6.067-10.5,4.219-22.953,0,0,12.711-20.322,6.152-43.753-1.642-5.865,3.753-11.563,9.683-12.953,3.753-.879,7.787-2.031,12.126-3.491q1.264-.425,2.47-.883a7.537,7.537,0,0,1,9.757,4.433,95.226,95.226,0,0,1,4.955,19.963,6.166,6.166,0,0,0,4.432,4.23q-.054-.4-.079-.8l-.092-1.473a11.539,11.539,0,0,1,3.7-9.207l6.226-5.731h0l-6.66-17.372A54.726,54.726,0,0,0,218.67,126.612Z"/><path fill="#fff" d="M143.841,108.671l-7.494,1.03a21.236,21.236,0,0,0-5.633,3.216,17.045,17.045,0,0,0-6.021,16.2,11.931,11.931,0,0,0,4.37,7.515,20.563,20.563,0,0,1,6.652,5.286A78.151,78.151,0,0,1,142.6,149a16.634,16.634,0,0,1,5,6.494A75.2,75.2,0,0,1,152.682,164a19.5,19.5,0,0,1,3.373,7.686,71.392,71.392,0,0,1,4.425,24.97,71.451,71.451,0,0,0,8.15-29.695l.014-8.008a69.94,69.94,0,0,0-1.8-12.414l-2.437-8.062a76.679,76.679,0,0,0-6.989-14.181Z"/><path fill="#bcaed3" d="M166.315,144.487a74.834,74.834,0,0,0-8.9-20.188l-13.671-16.264a24.792,24.792,0,0,0-7.4,1.667C135.959,119.7,138.027,143.491,166.315,144.487Z"/><path fill="#fff" d="M192.734,101.623a37.142,37.142,0,0,1,5.854,5.817,23.172,23.172,0,0,1,4.956,6.735,81.95,81.95,0,0,1,4.121,7.152,43.915,43.915,0,0,1,3.446,7.529c1.011,2.483,1.986,5.161,2.9,8.043a23.35,23.35,0,0,1,2.246,8.033,145.687,145.687,0,0,1,3.293,19.253s13.016-5.507,13.464-23.049l-.461-8.325a62.769,62.769,0,0,0-2.445-10.977l-3.261-8.078a49.666,49.666,0,0,0-7.511-11.143l-6.707-6.122a48.655,48.655,0,0,0-11.7-6.395Z"/><path fill="#bcaed3" d="M200.93,90.1l-8.2,11.527a37.213,37.213,0,0,1,5.853,5.818,23.125,23.125,0,0,1,4.955,6.735,81.95,81.95,0,0,1,4.121,7.152,26.655,26.655,0,0,1,3.446,7.529q.6,1.464,1.174,3.018a39.83,39.83,0,0,0,14.772-17.684,49.86,49.86,0,0,0-7.719-11.575l-6.706-6.124A48.577,48.577,0,0,0,200.93,90.1Z"/><polygon fill="#d8d8d8" points="163.816 124.229 172.495 137.716 183.706 138.584 190.827 127.965 189.615 101.76 163.816 124.229"/><path fill="#404a66" d="M195.156,97.921s.831-.364,2.183-1.115a40.471,40.471,0,0,0,19.434-44.829c-3.331-14.028-12.72-32.449-39.065-32.449,0,0-29.833-.807-41.368,31.273a45.955,45.955,0,0,0-2.068,24.684c1.5,7.34,5.236,15.544,14.039,20.285Z"/><path fill="#fff" d="M189.181,87.165s7.409-3.346,9.8,4.3c0,0,2.629,11.95-12.189,17.686,0,0-.467.958-1.345,2.454l-4.092,6.043c-3.78,4.853-9.334,10.178-16.034,11.218a14.858,14.858,0,0,1-2.692.138c-3.858-.1-13.316-1.182-17.934-8.96a16.143,16.143,0,0,1-1.994-5.883c-.127-.854-.279-1.946-.437-3.248l-.785-8.52a158.23,158.23,0,0,1,.38-25.508A43.577,43.577,0,0,1,144.7,66.743l4.988-8.7a24.908,24.908,0,0,1,20.457-9.838,20.269,20.269,0,0,1,12.32,3.827l5.2,6.083C190.774,63.861,192.182,72.911,189.181,87.165Z"/><path fill="#ff7398" d="M187.664,58.12a18.4,18.4,0,0,0-5.2-6.083,48.622,48.622,0,0,0-4.7,3.946A40.615,40.615,0,0,0,167.1,80.3a2.12,2.12,0,0,0,4.1.947C173.971,73.571,178.925,64.382,187.664,58.12Z"/><path fill="#ff7398" d="M144.706,66.745a126.889,126.889,0,0,1,3.439,12.938,1.83,1.83,0,0,0,3.612-.226,59.768,59.768,0,0,0-2.058-21.4A36.652,36.652,0,0,0,144.706,66.745Z"/><path fill="#ff7398" d="M185.445,111.607a62.229,62.229,0,0,1-12.961-13.222,1.932,1.932,0,0,0-3.4,1.723,33.675,33.675,0,0,0,12.265,17.541A56.446,56.446,0,0,0,185.445,111.607Z"/><path fill="#ff7398" d="M145.32,98.438a39.865,39.865,0,0,1-3.841,3.958c.219,3.387.512,6.261.786,8.52a25.694,25.694,0,0,0,6.557-10.608A2.022,2.022,0,0,0,145.32,98.438Z"/><path fill="#ff7398" d="M293.208,65.955l-.426-6.851c-.006-.094,0-.188,0-.281-2.789,3.392-8.208,11.592-8.543,24.419a47.421,47.421,0,0,0,4.459,21.788,13.125,13.125,0,0,0,5.281-6.273C290.777,91.977,287.869,80.581,293.208,65.955Z"/><path fill="#688abc" d="M172.5,137.716l20.239,31.452-1.907-41.2C185.771,133.934,179.111,136.685,172.5,137.716Z"/><path fill="#688abc" d="M236.615,254.756l19.938,45.094a131.825,131.825,0,0,0,7.12,14.858,35.1,35.1,0,0,0,2.288,2.769,94.22,94.22,0,0,0-11.121-56.326c-1.2-.526-2.367-1.027-3.481-1.48Z"/><path fill="#a7bfea" d="M217.892,259.37s-1.244,28.453,2.422,44.32c0,0,4.487,22.981,22.543,20.519,0,0,16.794-3.708,14.94-26.507a47.516,47.516,0,0,0-3.365-13.844A193.558,193.558,0,0,0,242.089,258.6s-6.052-8.866-9.391-13.145Z"/><path fill="#688abc" d="M279.829,300.069c1.879,6.126,3.994,15.5,2.5,23.342a11.231,11.231,0,0,0,4.234-2.718,10.091,10.091,0,0,0,1.532-1.964s1.29-7.519-6.454-19.5A1.01,1.01,0,0,0,279.829,300.069Z"/><path fill="#688abc" d="M233.028,245.144,217.892,259.37s-.333,7.66-.144,17.243l24.34-18.013A125.78,125.78,0,0,0,233.028,245.144Z"/><path fill="#ff7398" d="M163.743,240.569l-2.2-6.974a28.054,28.054,0,0,1-2.044-6.467c-2.416,4.369-6.928,15.825,1.214,30.688a37.308,37.308,0,0,0,13,14.271l-3.658-11.572C163.465,255.367,163.215,246.061,163.743,240.569Z"/><path fill="#a7bfea" d="M214.83,225.673a75.849,75.849,0,0,0-6.121,30.865,8.308,8.308,0,0,0,6.411,8h0a8.3,8.3,0,0,0,8.454-3.008l10.966-14.2a9.828,9.828,0,0,0,1.9-7.84c-1.007-5.268-3.6-13.7-10.152-17.645A8.072,8.072,0,0,0,214.83,225.673Z"/><path fill="#ff7398" d="M166.812,290.317c-4-21.3-17.636-37.851-29.279-47.7l9.882,19.981c6.736,7.177,11.089,15.516,14.064,22.289a25.338,25.338,0,0,1,1.734,8.818,1.863,1.863,0,0,0,3.7.351c.01-.064.02-.129.029-.195A11.1,11.1,0,0,0,166.812,290.317Z"/><circle cx="102.267" cy="298.161" r="15.277" fill="#dd476b"/><path fill="#404a66" d="M102.267,278.883a19.278,19.278,0,1,0,19.277,19.278A19.3,19.3,0,0,0,102.267,278.883Zm0,30.555a11.278,11.278,0,1,1,11.277-11.277A11.29,11.29,0,0,1,102.267,309.438Z"/><path fill="#404a66" d="M164.457,116.109a4,4,0,0,0,4.492-6.62c-8.423-5.715-16.968-.276-17.328-.042a4,4,0,0,0,4.335,6.724C156.139,116.057,160.478,113.408,164.457,116.109Z"/><path fill="#404a66" d="M165.674,95.118a4,4,0,0,0,1.407-.257l6.685-2.512a4,4,0,1,0-2.814-7.488l-6.686,2.512a4,4,0,0,0,1.408,7.745Z"/><path fill="#404a66" d="M134.864,314a3.9,3.9,0,0,0,.75-.23,4.441,4.441,0,0,0,.69-.361,4.746,4.746,0,0,0,.61-.5,4.027,4.027,0,0,0,1.17-2.829,4.129,4.129,0,0,0-.08-.78,4.033,4.033,0,0,0-.6-1.44,4.043,4.043,0,0,0-.49-.61,4.919,4.919,0,0,0-.61-.5,4.62,4.62,0,0,0-.69-.361,3.973,3.973,0,0,0-.75-.23,4.041,4.041,0,0,0-3.61,1.091,4.847,4.847,0,0,0-.5.61,4.524,4.524,0,0,0-.36.69,3.832,3.832,0,0,0-.23.75,4.129,4.129,0,0,0-.08.78,4,4,0,0,0,4,4A4.129,4.129,0,0,0,134.864,314Z"/><path fill="#404a66" d="M105.594,328.636a4.153,4.153,0,0,0-.5-.609,4,4,0,0,0-5.65,0,3.6,3.6,0,0,0-.5.609,4.047,4.047,0,0,0-.6,1.441,4.129,4.129,0,0,0-.08.78,4,4,0,1,0,8,0,4.114,4.114,0,0,0-.07-.78,4.047,4.047,0,0,0-.6-1.441Z"/><path fill="#404a66" d="M71.594,311.317a4,4,0,1,0-2.82,1.17A4,4,0,0,0,71.594,311.317Z"/><path fill="#404a66" d="M119.894,275.987a4.214,4.214,0,0,0,.5.61,4.348,4.348,0,0,0,.61.5,4.066,4.066,0,0,0,.69.369,3.811,3.811,0,0,0,.75.221,3.387,3.387,0,0,0,.78.08,3.445,3.445,0,0,0,.78-.08,4.022,4.022,0,0,0,.75-.221,4.485,4.485,0,0,0,.69-.369,5.011,5.011,0,0,0,.61-.5,4.145,4.145,0,0,0,.49-.61,4.033,4.033,0,0,0,.6-1.44,4.129,4.129,0,0,0,.08-.78,4.063,4.063,0,0,0-1.17-2.83,4.164,4.164,0,0,0-.61-.491,3.823,3.823,0,0,0-.69-.369,3.959,3.959,0,0,0-2.31-.23,3.832,3.832,0,0,0-.75.23,3.515,3.515,0,0,0-.69.369,3.7,3.7,0,0,0-.61.491,4.02,4.02,0,0,0-1.17,2.83,3.445,3.445,0,0,0,.08.78,3.809,3.809,0,0,0,.22.75A4.579,4.579,0,0,0,119.894,275.987Z"/><path fill="#404a66" d="M312.317,34.938a12.743,12.743,0,0,0,1.594-11.9,35.271,35.271,0,0,0-8.544-13.032A12.759,12.759,0,0,0,286.5,11.166q-.45.561-.88,1.123a9.4,9.4,0,0,0-18.726-.068l-1.036,11.731A11.8,11.8,0,0,0,257.8,35.9c.185,2.674.452,5.238.791,7.618a14.78,14.78,0,0,0,7.019,10.6L268,55.57a4.956,4.956,0,0,1,2.339,5.071c-1.337,8.179-2.561,17.616-3.169,22.5l-16.327,1.069a16.6,16.6,0,0,0-10.454-3.666H233.6a17.665,17.665,0,0,0-7.368-2.592q-3.736-.427-7.237-.5a45.037,45.037,0,0,0,1.671-26.394c-5.439-22.909-20.694-35.525-42.955-35.525h-.035c-2.37,0-33.147.682-45.1,33.92a49.955,49.955,0,0,0-2.223,26.835,35.719,35.719,0,0,0,6.788,15.226,159.845,159.845,0,0,0,1.6,23.246,20.1,20.1,0,0,0,2.51,7.334c4.057,6.832,10.945,9.413,16.177,10.373a67.491,67.491,0,0,1,7.2,25.593,18.314,18.314,0,0,0-9,2.838,78.418,78.418,0,0,0-4.092-6.829,17.154,17.154,0,0,1,6.4-4.614,4,4,0,1,0-3-7.417,24.84,24.84,0,0,0-8.251,5.528,81.513,81.513,0,0,0-7.753-8.162,13.728,13.728,0,0,1,2.842-3.525,4,4,0,1,0-5.269-6.02,21.43,21.43,0,0,0-3.827,4.434c-.4-.281-.691-.479-.834-.573a7.852,7.852,0,0,1-3.217-5.311,13.039,13.039,0,0,1,3.323-11.192,4,4,0,1,0-5.832-5.477,21.1,21.1,0,0,0-5.654,15.67,139.533,139.533,0,0,0-17.531,22.236,25.823,25.823,0,0,0-3.409,8.488c-4.262-3.113-8.419-5.877-12.439-8.25-.451-4.484-.86-16.232,6.474-20.442q3.564,2.772,7.015,5.953A4,4,0,1,0,106,129.512a100.445,100.445,0,0,0-33.089-20.849,38.4,38.4,0,0,0-20.619-1.7c-.084.014-.167.026-.249.045a37.342,37.342,0,0,0-24.708,17.181,80.111,80.111,0,0,0-8.074,18.72c-.012.034-.019.069-.03.1a127.133,127.133,0,0,0-4.2,20.759,81.752,81.752,0,0,0-.261,17.7c0,.01,0,.02,0,.03A73.405,73.405,0,0,0,17.3,194.945c4.657,16.091,15.87,35.614,42.84,37.246l.13,0c.162,0,7.922.214,18.749.214h.97c.039,0,.077.007.116.007s.073-.006.11-.007c10.323-.015,23.172-.225,34.862-.97a52.57,52.57,0,0,0-.27,9.161,16.75,16.75,0,0,0,.939,4.645c-2.64,2.377-5.838,5.158-9.474,8.148a13.2,13.2,0,0,1-6.462-3.739,4,4,0,1,0-5.8,5.513,21.04,21.04,0,0,0,5.086,3.921A213.913,213.913,0,0,1,77.941,273.5a18.5,18.5,0,0,1-6.193-16.209,88.568,88.568,0,0,0,15.2-11.66,4,4,0,1,0-5.538-5.773,80.982,80.982,0,0,1-15.137,11.379c-.07.037-.136.079-.2.12-10.3,6.009-22.382,10.233-36.131,12.587a18.4,18.4,0,0,0-15.3,17.41l-.012.451a18.246,18.246,0,0,0,17.49,18.389q2.41.1,4.825.1c3.51,0,7.018-.176,10.511-.5a104.549,104.549,0,0,0-12.983,36.555h8.091A94.048,94.048,0,0,1,57.44,299.015,46.177,46.177,0,0,1,74.012,284.82c1.785-.923,3.547-1.895,5.3-2.886.055-.027.106-.062.16-.092a228.918,228.918,0,0,0,30.374-21.037c.047-.038.095-.074.14-.114,3.891-3.158,7.325-6.114,10.195-8.675a16.639,16.639,0,0,0,3.6,2.556,103.24,103.24,0,0,0,18.611,7.444l9,18.2a9.987,9.987,0,0,1,.017,8.841,91.694,91.694,0,0,0-8.142,26.121,15.075,15.075,0,0,0,5.107,13.941,29.632,29.632,0,0,0,6.661,4.079c.075.035.15.069.228.1.5.223.992.453,1.515.659a12.857,12.857,0,0,0,16.2-6.177,10.289,10.289,0,0,0,19.042-7.749l-3.959-11.061a10.368,10.368,0,0,0,10.832-17.027c-6.57-6.684-16.354-13.158-19.852-15.387l-3-9.481c.917.018,1.832.042,2.753.042a153.752,153.752,0,0,0,28.76-2.8,12.263,12.263,0,0,0,6.15,3.974c-.075,10.213.283,25.707,2.7,36.24,1.711,8.651,8.795,23.872,23.793,23.87a23.83,23.83,0,0,0,3.2-.222c.108-.015.215-.034.322-.058,6.987-1.543,19.754-9.952,18.064-30.737a51.573,51.573,0,0,0-3.64-15.013,203.393,203.393,0,0,0-8.948-19.257c11.041,4.418,26.824,12.513,40.282,26.228,5.6,5.71,8.413,10.715,10.021,17.85a21.893,21.893,0,0,1,.308,2.467c.052.559.1,1.138.173,1.73a5.154,5.154,0,0,1-7.556,5.125l-1.043-.558c-4.492-12.625-14.243-23.154-14.673-23.613a4,4,0,0,0-5.846,5.461c.092.1,8.711,9.429,12.745,20.184a7.944,7.944,0,0,1-9.432,1.067,18.874,18.874,0,0,1-3.146-2.215,4,4,0,0,0-5.213,6.069,26.97,26.97,0,0,0,4.487,3.147,16.44,16.44,0,0,0,7.964,2.064,15.56,15.56,0,0,0,10.848-4.315,13.158,13.158,0,0,0,18.51-8.657,77.413,77.413,0,0,1,9.616,21.207h8.345c-2.7-10.02-8.339-24.966-19.447-35.208-2.1-6.525-5.444-11.8-10.951-17.408-18.816-19.175-41.793-28.069-52.2-31.338-1.154-1.82-2.362-3.628-3.618-5.408a13.743,13.743,0,0,0,1.008-8.255c-1.29-6.745-4.422-15.746-12.017-20.321a11.589,11.589,0,0,0-1.958-.927,27.53,27.53,0,0,0-3.535-6.141c5.819-5.421,10.871-12.858,11.606-22.609a15.756,15.756,0,0,0-2.935-10.343l-6.5-9.06a7.533,7.533,0,0,1-1.265-2.925,28.611,28.611,0,0,0,12.337-17.824l2.422-2.23a17.95,17.95,0,0,0,1.408-1.473,18.138,18.138,0,0,0,9.476-4.513,20.915,20.915,0,0,0,6.138-9.816c.526-1.786.96-3.52,1.343-5.22l32.5-16.11A17.1,17.1,0,0,0,298.886,92.8l-2.112-33.946a5.845,5.845,0,0,1,1.081-3.758ZM32.46,292.2a10.2,10.2,0,0,1-9.832-10.224l.01-.361a10.371,10.371,0,0,1,8.653-9.786c1.642-.281,3.256-.595,4.855-.926a35.294,35.294,0,0,0,2.831,21.366C36.8,292.309,34.63,292.292,32.46,292.2Zm37.877-14.484a55.051,55.051,0,0,0-16.746,13.253q-2.863.457-5.754.756A27.65,27.65,0,0,1,44.83,268.79a111.258,111.258,0,0,0,18.865-7.1,25.822,25.822,0,0,0,6.957,15.857C70.547,277.6,70.443,277.659,70.337,277.714ZM138.172,74.568A42,42,0,0,1,140.1,52.155c10.021-27.868,34.667-28.63,37.3-28.63.18,0,.229,0,.3,0,23.306,0,31.99,15.973,35.172,29.373a36.618,36.618,0,0,1-10.5,35.335c-.105.065-.2.144-.3.22a10.189,10.189,0,0,0-5.019-5.134,10.064,10.064,0,0,0-2.976-.808c2-13.536.054-23.784-5.8-30.512-6.931-7.963-16.756-7.856-18.233-7.794C148.952,44.269,140.226,63.044,138.172,74.568Zm82.689,43a4,4,0,0,0-5.47-1.44,25.418,25.418,0,0,0-4.282,3.169c-1.24-2.4-2.491-4.572-3.721-6.519a17.434,17.434,0,0,1,9.693-6.692c8.584,9.983,10.962,21.986,11.615,27.95a20.164,20.164,0,0,0-10.882,1.647c-.983-3.094-2.034-5.964-3.126-8.623a19.038,19.038,0,0,1,4.733-4.021A4,4,0,0,0,220.861,117.563ZM202.6,106.03c-.78-.973-1.524-1.845-2.219-2.619a19.022,19.022,0,0,0,2.206-5.143c.868-.588,1.706-1.209,2.521-1.851a43.056,43.056,0,0,1,5.449,3.533A25.923,25.923,0,0,0,202.6,106.03Zm-39.866,18.979c-.608-.016-1.385-.062-2.266-.164l-.045-.006c-3.75-.444-9.388-1.945-12.292-6.834a12.193,12.193,0,0,1-1.477-4.432,150.937,150.937,0,0,1-1.516-20.917l3.531,1.012a4,4,0,0,0,2.2-7.691l-5.551-1.589c.112-2.287.273-4.636.511-7.047.2-1.518,3.669-25.133,24.315-25.133.093,0,.185,0,.276-.01.076,0,7.132-.332,11.821,5.056,4.818,5.536,5.862,15.594,3.022,29.087a4,4,0,0,0,5.56,4.47,4.59,4.59,0,0,1,2.954-.19,2.926,2.926,0,0,1,1.321,1.855,8.81,8.81,0,0,1,.051,2.272A4.012,4.012,0,0,0,195,95.775a10.806,10.806,0,0,1-2.507,4.968c-.076.067-.16.121-.232.2a3.979,3.979,0,0,0-.3.379,18.419,18.419,0,0,1-6.61,4.106,4.01,4.01,0,0,0-2.15,1.974c-2.163,4.409-9.7,16.153-18.491,17.519A11.108,11.108,0,0,1,162.736,125.009ZM188.05,154.5l-15.4-23.941c5.962-3.114,10.643-8.566,13.7-12.944ZM164.738,166.07a69.728,69.728,0,0,1-2.059,13.868,74.32,74.32,0,0,0-3.646-11.732A11.076,11.076,0,0,1,164.738,166.07Zm-57.679-4.388a17.95,17.95,0,0,1,2.643-7.773,129.9,129.9,0,0,1,13.552-17.77,15.422,15.422,0,0,0,4.062,4.169c.032.023.071.049.1.07.291.19,29.061,19.439,29.061,56.281l0,.02c0,.006,0,.011,0,.017a106.911,106.911,0,0,1-.728,14.282c-15.132-13.319-34.858-13.117-43.336-12.27a4.677,4.677,0,0,1-5.139-4.1A152.947,152.947,0,0,1,107.059,161.682Zm-8.475,5.738a154.855,154.855,0,0,0,.757,28.208c.045.349.106.693.178,1.034-2.539.334-5.012.577-7.393.7-.011,0-.021,0-.031,0h-.009a62,62,0,0,1-17.752-1.422c-14.981-3.646-24.654-18.017-22.02-32.719q.131-.732.3-1.426a14.708,14.708,0,0,1,7.838-9.828,15.184,15.184,0,0,1,12.98-.215C81.125,155.208,89.586,160.489,98.584,167.42ZM34.176,128.339a29.084,29.084,0,0,1,13.369-11.6,43.646,43.646,0,0,0,3.463,22.707,4,4,0,0,0,7.342-3.179,34.619,34.619,0,0,1-2.3-21.8,30.446,30.446,0,0,1,14.092,1.7,84.2,84.2,0,0,1,16.517,8.358c-6.4,5.493-7.753,14.516-7.783,20.955-.726-.349-1.454-.705-2.168-1.026a23.159,23.159,0,0,0-19.8.338,22.687,22.687,0,0,0-10.535,10.734,25.755,25.755,0,0,1-19.027-11.707A70.771,70.771,0,0,1,34.176,128.339Zm-11.2,36.4q.724-5.934,1.863-11.293A33.522,33.522,0,0,0,44.21,163.3a35.474,35.474,0,0,0,1.8,16.851,29.808,29.808,0,0,1-23.438-1.175A74.555,74.555,0,0,1,22.976,164.738Zm55.856,59.673c-10.119,0-17.5-.189-18.271-.21-17.879-1.106-29.847-11.7-35.573-31.48-.44-1.52-.8-3.067-1.131-4.625a38.173,38.173,0,0,0,11.9,1.926,37.74,37.74,0,0,0,13.8-2.664A37.426,37.426,0,0,0,60.543,198.53c-1.638,4.812-4.944,9.029-9.9,12.549A4,4,0,1,0,55.28,217.6c6-4.268,10.172-9.425,12.451-15.37a38.138,38.138,0,0,0,4.711,1.483,66.379,66.379,0,0,0,15.686,1.75c.119,0,.243-.009.361-.01A25.567,25.567,0,0,1,78.832,224.411Zm37.993-1.109c-8.685.617-18.2.912-26.9,1.034a33.212,33.212,0,0,0,6.591-19.281c2.481-.229,5.039-.576,7.649-1a12.7,12.7,0,0,0,1.921,1.243,16.637,16.637,0,0,0,1.7,10.183,15.809,15.809,0,0,0,9.238,7.245C116.953,222.916,116.888,223.1,116.825,223.3Zm-2.036-11.68A8.608,8.608,0,0,1,114,206.6c7.558-.649,23.411-.5,35.709,9.738-6.266.594-15.185,1.1-22.792.264-.028,0-.056-.006-.085-.009a41.768,41.768,0,0,1-6.336-1.151C117.676,214.665,115.757,213.381,114.789,211.622ZM127.5,247.491a8.878,8.878,0,0,1-4.7-7.334,39.866,39.866,0,0,1,1.646-14.422L137.383,251.9A89.145,89.145,0,0,1,127.5,247.491Zm65.681,50.057a2.368,2.368,0,0,1-2.59,3.829l-7.805-3.085a4,4,0,0,0-5.236,5.068l6.931,19.363a2.289,2.289,0,0,1-1.689,3.013,2.3,2.3,0,0,1-2.617-1.458L175.6,311.7a4,4,0,0,0-7.71.748l-1.615,10.309a4.836,4.836,0,0,1-5.374,4.053,75.234,75.234,0,0,1,2.913-14.089,4,4,0,0,0-7.656-2.318,87.127,87.127,0,0,0-2.823,12.419,7.061,7.061,0,0,1-2.173-6.4,85.116,85.116,0,0,1,7.4-23.8,18.033,18.033,0,0,0,0-15.962L133,224.991c1.008.027,2.015.045,3.017.045a162.667,162.667,0,0,0,17.993-1.1l17.837,56.431a4,4,0,0,0,1.726,2.206C173.7,282.646,185.928,290.171,193.179,297.548Zm11.531-40.967c0,.039,0,.078.006.118a142.6,142.6,0,0,1-31.236,2.288l-11.858-37.515c.019-.03.034-.062.051-.092.047-.079.094-.157.135-.239.019-.038.044-.072.062-.111.045-.1.076-.205.114-.308s.069-.177.1-.269c.008-.03.022-.056.03-.086l.008-.031.009-.04c1.584-6.036,2.368-13.641,2.35-22.6,2.762-5.167,14.059-29.022,4.659-57.811l19.652,30.539,2.187,47.266a81.012,81.012,0,0,1-15.222,1.2h-.093a4,4,0,0,0-.09,8q.839.018,1.689.019a84.61,84.61,0,0,0,8.655-.47,16.206,16.206,0,0,0,6.58,17.867c1.442.973,2.979,1.935,4.569,2.858a4,4,0,0,0,4.015-6.919c-1.433-.832-2.815-1.7-4.107-2.569a8.382,8.382,0,0,1-2.611-10.927c.32-.579.668-1.157,1.03-1.732a3.965,3.965,0,0,0,.98-.2q3.366-.692,6.851-1.607c.1-.026.2-.057.294-.09a61.03,61.03,0,0,0,13.077-6.8c.358.476.671.945.957,1.406a12.24,12.24,0,0,0-6.386,6.348A79.622,79.622,0,0,0,204.71,256.581Zm29.75-2.61q1.2,1.8,2.339,3.62a4.1,4.1,0,0,0,.227.369,185.051,185.051,0,0,1,13.695,27.389,43.559,43.559,0,0,1,3.089,12.678c1.467,18.041-9.857,21.764-11.688,22.244a14.79,14.79,0,0,1-1.812.114c-12.427,0-15.922-16.721-16.07-17.461-.009-.045-.018-.089-.029-.134-2.346-10.153-2.582-26.186-2.508-35a12.247,12.247,0,0,0,5.037-3.822l.721-.935c3.258,6.555,8.3,18.671,9.193,32.317a.766.766,0,0,1-.539.809.672.672,0,0,1-.863-.174,7.649,7.649,0,0,1-1.036-1.508,4,4,0,0,0-7.131,3.626,15.59,15.59,0,0,0,2.119,3.117,8.6,8.6,0,0,0,6.538,3.023,8.981,8.981,0,0,0,3.41-.682,8.717,8.717,0,0,0,5.486-8.733c-1.173-17.932-8.6-33.039-11.787-38.774Zm-10.231-28.706c5.333,3.212,7.481,10.757,8.286,14.97a5.82,5.82,0,0,1-1.141,4.643l-10.967,14.2a4.3,4.3,0,0,1-7.7-2.587,71.53,71.53,0,0,1,5.787-29.223,4.243,4.243,0,0,1,2.6-2.345,4.061,4.061,0,0,1,1.225-.192A3.647,3.647,0,0,1,224.229,225.265Zm.8-42.21a7.735,7.735,0,0,1,1.457,5.078c-1.36,18.046-23.624,26.7-25.48,27.391-.708.185-1.4.349-2.1.519l-2.178-47.06L194,109.927q.469-.317.91-.641a71.967,71.967,0,0,1,11.458,18.559,4.023,4.023,0,0,0,.191.443,105.589,105.589,0,0,1,4.953,14.228c.012.051.027.1.042.153a139.3,139.3,0,0,1,4.016,21.87l.085,1.368A15.511,15.511,0,0,0,218.535,174Zm-2.351-25.991c-.723-4.893-1.634-9.414-2.675-13.606,2.156-1.089,5.6-2.27,8.935-1.124C228.438,149.638,225.427,154.3,222.683,157.064Zm13.842-24.88c-1.241-9.728-6.139-29.822-25.394-41.523a43.964,43.964,0,0,0,3.834-5.159,66.265,66.265,0,0,1,10.354.4,9.693,9.693,0,0,1,7.675,5.536C238.748,103.954,237.6,122.739,236.525,132.184Zm11.351-3.894a12.982,12.982,0,0,1-3.525,5.837c1.4-11.425,2.486-31.249-3.89-45.583a8.575,8.575,0,0,1,8.113,5.958C250.727,101.528,252.352,113.093,247.876,128.29ZM292.743,16.17a4.759,4.759,0,0,1,7.044-.426l.028.029L290.026,27.4l-3.217-2.462A72.365,72.365,0,0,1,292.743,16.17Zm-1.388,34.264a13.857,13.857,0,0,0-2.565,8.918L290.9,93.3a9.117,9.117,0,0,1-5.062,8.754l-27.4,13.581a61.219,61.219,0,0,0-2.217-23.474c-.03-.1-.068-.186-.1-.281l14.748-.965h4.748a4,4,0,0,0,0-8h-.36c.638-5.056,1.759-13.554,2.973-20.98a12.919,12.919,0,0,0-6.1-13.214l-2.394-1.443a6.81,6.81,0,0,1-3.231-4.887c-.313-2.188-.558-4.556-.729-7.037a3.726,3.726,0,0,1,1.266-3.04l.437,1.354a10.826,10.826,0,0,0,6.809,6.839c3.025,1.034,3.306,2.792,3.412,3.453a4,4,0,0,0,3.945,3.369,4.055,4.055,0,0,0,.636-.05A4,4,0,0,0,285.6,42.7c-.739-4.624-3.837-8.09-8.724-9.76a2.757,2.757,0,0,1-1.783-1.728l-1.448-4.485,1.217-13.8a1.4,1.4,0,0,1,2.788.123V26.03c0,.108.019.212.028.319s.01.185.023.277a4.06,4.06,0,0,0,.12.518c.018.062.028.125.049.185a3.925,3.925,0,0,0,.292.655c.031.056.073.106.107.161a4.06,4.06,0,0,0,.31.437c.055.066.117.127.177.19a4.1,4.1,0,0,0,.366.343c.035.028.061.063.1.091L290.051,37.5a3.988,3.988,0,0,0,6.036-4.87l8.7-10.332a26.92,26.92,0,0,1,1.632,3.542,4.756,4.756,0,0,1-.6,4.438Z"/></svg>