<svg xmlns="http://www.w3.org/2000/svg" xmlns:xlink="http://www.w3.org/1999/xlink" viewBox="0 0 340 340" width="500px" height="500px"><defs><linearGradient id="zmVmECArgznXbHE_muAaha" x1="159.768" x2="173.18" y1="275.171" y2="338.105" gradientUnits="userSpaceOnUse"><stop offset="0" stop-color="#f2f6fc"/><stop offset="1" stop-color="#dce2ea"/></linearGradient><linearGradient id="zmVmECArgznXbHE_muAahb" x1="149.501" x2="202.918" y1="260.406" y2="304.633" gradientUnits="userSpaceOnUse"><stop offset="0" stop-color="#98a6c3"/><stop offset="1" stop-color="#8294b2"/></linearGradient><linearGradient id="zmVmECArgznXbHE_muAahd" x1="155.678" x2="184.548" y1="125.987" y2="315.902" xlink:href="#zmVmECArgznXbHE_muAaha"/><linearGradient id="zmVmECArgznXbHE_muAahe" x1="167.057" x2="210.136" y1="124.553" y2="246.036" xlink:href="#zmVmECArgznXbHE_muAahb"/><linearGradient id="zmVmECArgznXbHE_muAahf" x1="169.463" x2="199.062" y1="119.892" y2="314.61" xlink:href="#zmVmECArgznXbHE_muAaha"/><linearGradient id="zmVmECArgznXbHE_muAahc" x1="170.235" x2="170.235" y1="119.426" y2="148.641" gradientUnits="userSpaceOnUse"><stop offset="0" stop-color="#ffcac0"/><stop offset="1" stop-color="#e5837c"/></linearGradient><linearGradient id="zmVmECArgznXbHE_muAahg" x1="91.605" x2="134.683" y1="151.309" y2="272.79" xlink:href="#zmVmECArgznXbHE_muAahb"/><linearGradient id="zmVmECArgznXbHE_muAahh" x1="186.92" x2="229.999" y1="117.509" y2="238.99" xlink:href="#zmVmECArgznXbHE_muAahb"/><linearGradient id="zmVmECArgznXbHE_muAahi" x1="156.263" x2="188.909" y1="17.132" y2="43.787" xlink:href="#zmVmECArgznXbHE_muAaha"/><linearGradient id="zmVmECArgznXbHE_muAahj" x1="182.761" x2="193.1" y1="12.358" y2="54" xlink:href="#zmVmECArgznXbHE_muAahb"/><linearGradient id="zmVmECArgznXbHE_muAahk" x1="170.235" x2="170.235" y1="62.924" y2="142.693" xlink:href="#zmVmECArgznXbHE_muAahc"/><linearGradient id="zmVmECArgznXbHE_muAahl" x1="143.207" x2="185.952" y1="19.371" y2="57.637" xlink:href="#zmVmECArgznXbHE_muAaha"/><linearGradient id="zmVmECArgznXbHE_muAahm" x1="193.781" x2="204.12" y1="9.622" y2="51.264" xlink:href="#zmVmECArgznXbHE_muAahb"/></defs><path fill="url(#zmVmECArgznXbHE_muAaha)" d="M119.928,282.669c-2.077,10.8-5.161,27.647-7.879,45.723h44.634l2.216-8.74a4.431,4.431,0,0,1,4.294-3.34h14.142a4.431,4.431,0,0,1,4.294,3.34l2.216,8.74h44.634c-2.17-14.432-4.573-28.079-6.511-38.492C187.181,283.434,153.028,280.292,119.928,282.669Z"/><path fill="url(#zmVmECArgznXbHE_muAahb)" d="M221.968,289.9c-2.185-11.741-3.778-19.37-3.778-19.37H122.338s-.96,4.6-2.41,12.139C135.261,286.888,176.283,296.174,221.968,289.9Z"/><path fill="url(#zmVmECArgznXbHE_muAahd)" d="M264.9,215.1c-12.064-50.831-29.549-73.21-38.807-81.986l-112.006-.017c-9.326,8.764-26.948,31.14-39.02,82-2.359,9.94,2.563,19.569,11.061,25.238,7.386,4.928,24.556,8.724,24.556,8.724a59.412,59.412,0,0,1,10.385,1.532s-.927,5.827-2.75,8.138q-.184.234-.368.487c-4.147,5.739-1.07,14.582,5.936,15.605,38.087,5.563,84.425,1.976,92.193,0,6.862-1.746,10.083-9.866,5.936-15.605q-.183-.253-.368-.487c-1.822-2.311-2.75-8.138-2.75-8.138,3.839-1.128,7.433-1.853,10.4-1.534a86.174,86.174,0,0,0,24.546-8.722A22.745,22.745,0,0,0,264.9,215.1Z"/><path fill="url(#zmVmECArgznXbHE_muAahe)" d="M226.092,133.111a33.227,33.227,0,0,0-6.3-4.96H120.42a33.427,33.427,0,0,0-6.334,4.943A288.75,288.75,0,0,1,147.4,150.932l-13.1,12.789c2.411,30.724,23.956,37.127,23.956,37.127s1.917,10.613-4.64,18.516c0,0,14.937-3.666,16.265-18.516h9.73c2.174,8.668,10.937,14.086,14.785,16.091a1,1,0,0,0,1.447-1.014,17.389,17.389,0,0,1,.379-5.63,45.453,45.453,0,0,0,1.05-18.875c17.345-11.853,17.158-34.693,15.938-45.554a8.942,8.942,0,0,1,4.939-9.009C222.052,134.934,224.876,133.652,226.092,133.111Zm-33.863,45.917s-17.809,6.516-27.215-.708c-8.457-6.5-7.334-16.377-6.558-20.038q2.634,1.866,5.229,3.833H176.53a222.8,222.8,0,0,1,19.34-13.062Z"/><path fill="#34363a" d="M157.53,145.523s-14.613,18.87,4.871,36.94l-8.8,8.957s-33-19.17-14.3-58.61C139.3,132.81,150.459,135.922,157.53,145.523Z"/><path fill="#34363a" d="M182.682,145.523s14.613,18.87-4.871,36.94l8.8,8.957s33-19.17,14.3-58.61C200.909,132.81,189.753,135.922,182.682,145.523Z"/><path fill="url(#zmVmECArgznXbHE_muAahf)" d="M220.438,119.6c-15.62-13.36-50.332-3.777-50.332-3.777s-34.338-10.32-50.332,3.777c-2.9,2.554-3.044,7.413.646,8.556,20.977,6.5,49.563,33.964,49.563,33.964s33.895-29.305,49.809-33.964C223.5,127.066,223.374,122.106,220.438,119.6Z"/><path fill="#34363a" d="M152.653,123.412s-.253,33.088,16.188,43.17a2.673,2.673,0,0,0,2.788,0c14.72-9.027,15.968-36.84,16.108-42.445Z"/><path fill="url(#zmVmECArgznXbHE_muAahc)" d="M170.235,141.4h0a17.712,17.712,0,0,1-17.711-17.711V112.559c13.153.178,25.123,3.059,35.421,9.758v1.367A17.711,17.711,0,0,1,170.235,141.4Z"/><path fill="#34363a" d="M163.511,179.028s-22.724,2.692-14.539,31.124a26.782,26.782,0,0,1,1.19,9.305,1.035,1.035,0,0,0,1.494,1.022c4.681-2.373,16.967-10.668,11.424-30.466Z"/><path fill="#34363a" d="M177.076,179.028s22.724,2.692,14.539,31.124a26.744,26.744,0,0,0-1.186,9.369,1,1,0,0,1-1.442.987c-4.638-2.335-17.046-10.617-11.48-30.5Z"/><path fill="#34363a" d="M164.717,177.6a31.006,31.006,0,0,1,11.077-.154,6.668,6.668,0,0,1,5.2,7.4l-.454,4.639a6.422,6.422,0,0,1-6.162,6.039h-8.356a6.328,6.328,0,0,1-6.074-5.4,27.766,27.766,0,0,1-.355-6.316A6.568,6.568,0,0,1,164.717,177.6Z"/><path fill="url(#zmVmECArgznXbHE_muAahg)" d="M115.91,189.369a101.617,101.617,0,0,0-9.527,16.893,7.158,7.158,0,0,0,2.908,8.912l4.137,2.5s1.275,21.366-2.744,31.375c3.243.648,6.7,1.176,10.384,1.537V190.975A2.828,2.828,0,0,0,115.91,189.369Z"/><path fill="url(#zmVmECArgznXbHE_muAahh)" d="M224.066,189.369a2.828,2.828,0,0,0-5.159,1.606l-.01,59.615c3.69-.362,7.149-.89,10.394-1.539-4.018-10.01-2.744-31.373-2.744-31.373l4.138-2.5a7.159,7.159,0,0,0,2.908-8.912A101.617,101.617,0,0,0,224.066,189.369Z"/><polygon fill="#e5837c" points="187.945 94.543 152.524 94.543 152.524 112.559 187.945 122.317 187.945 94.543"/><path fill="url(#zmVmECArgznXbHE_muAahi)" d="M170.293,11.608c-15.4,0-34.525,13.53-34.525,13.53l34.525,4.9c10.287-1.823,15.618-6.5,12.225-16.205A40.158,40.158,0,0,0,170.293,11.608Z"/><path fill="url(#zmVmECArgznXbHE_muAahj)" d="M170.293,30.036l34.525-4.9a96.2,96.2,0,0,0-22.3-11.3c-.3,5.255-3.131,12.017-14.325,15.9Z"/><path fill="#e5837c" d="M138.584,65.931h10.227a0,0,0,0,1,0,0v22.5a0,0,0,0,1,0,0H138.584a8.912,8.912,0,0,1-8.912-8.912V74.843A8.912,8.912,0,0,1,138.584,65.931Z"/><path fill="#e5837c" d="M200.688,65.931h10.227a0,0,0,0,1,0,0v22.5a0,0,0,0,1,0,0H200.688a8.912,8.912,0,0,1-8.912-8.912V74.843A8.912,8.912,0,0,1,200.688,65.931Z" transform="rotate(180 201.345 77.181)"/><path fill="url(#zmVmECArgznXbHE_muAahk)" d="M141.4,48.143h57.676a0,0,0,0,1,0,0V79.368a28.838,28.838,0,0,1-28.838,28.838h0A28.838,28.838,0,0,1,141.4,79.368V48.143A0,0,0,0,1,141.4,48.143Z"/><circle cx="160.973" cy="71.434" r="3.658" fill="#af5454"/><circle cx="179.614" cy="71.434" r="3.658" fill="#af5454"/><rect width="57.676" height="13.092" x="141.397" y="48.143" fill="#e5837c"/><path fill="url(#zmVmECArgznXbHE_muAahl)" d="M126.89,27.114l4.317,18.869a8.6,8.6,0,0,0,8.381,6.68h49.126Q199.9,45.3,193.742,25.138H128.465A1.615,1.615,0,0,0,126.89,27.114Z"/><path fill="url(#zmVmECArgznXbHE_muAahm)" d="M192.511,44.841a16.754,16.754,0,0,1-3.8,7.822H201a8.6,8.6,0,0,0,8.381-6.68L213.7,27.114a1.616,1.616,0,0,0-1.575-1.976h-18.38Z"/></svg>