<svg xmlns="http://www.w3.org/2000/svg"  viewBox="0 0 340 340" width="500px" height="500px"><path d="M22.893,121.336c.52,9.083,2.731,17.579,6.228,23.921,3.531,6.4,8.084,10.079,12.965,10.527a47.832,47.832,0,0,0-2.612,14.133v41.729c-3.036,3.119-10.37,12.412-10.37,29.417v16.15a30.2,30.2,0,0,0,3.519,14.368,23.9,23.9,0,0,0,7.148,8.271c-1.007.776-2.006,1.578-2.986,2.434a3.426,3.426,0,0,0,.735,5.653l33.271,16.447a5.5,5.5,0,0,1,3.08,4.959v2.1a18.563,18.563,0,0,0,18.542,18.542h11.078c.635.034,3.395.167,7.713.167a227.673,227.673,0,0,0,50.478-5.618,338.391,338.391,0,0,0,42.828,5.447c.059,0,.117,0,.175,0a3.426,3.426,0,0,0,3.348-2.706c2.217-10.311.741-24.591.565-26.184-.068-1.593-.826-14.548-7.7-24.55a10.65,10.65,0,0,0-6.188-4.3,192.285,192.285,0,0,1-2.351-27.913l2.368-1.306c3.547,7.4,10.778,21.188,20.512,33.144a31.871,31.871,0,0,0,17.6,11.023,68.783,68.783,0,0,0-.167,12.449,3.427,3.427,0,0,0,3.143,3.074c3.155.246,6.314.354,9.431.354a180.485,180.485,0,0,0,37.55-4.351,14.8,14.8,0,0,0,3.039,2.218,251.783,251.783,0,0,1-3.128,25.014,3.427,3.427,0,0,0,6.745,1.213c1.377-7.663,2.422-15.878,3.12-24.453.1,0,.2.015.3.015h9.672a14.715,14.715,0,0,0,2.113-.169c-.68,8.211-1.686,16.065-3,23.4a3.426,3.426,0,1,0,6.745,1.211,261.316,261.316,0,0,0,3.366-27.693,14.72,14.72,0,0,0,5.527-11.492V269.338a14.708,14.708,0,0,0-5.111-11.138c-.283-6.416-.716-12.909-1.3-19.316a254.164,254.164,0,0,0-4.447-29.091c-.9-4.345-1.679-9-2.3-13.827A15.419,15.419,0,0,1,307.485,184a13.577,13.577,0,0,1,6.848-4.521,3.427,3.427,0,0,0,2.778-3.729l-1.8-17a3.425,3.425,0,0,0-2.052-2.786,23.251,23.251,0,0,1-5.413-3.212,14.078,14.078,0,0,1-5.07-11.792A401.334,401.334,0,0,1,307.4,98.428c.012-.069.023-.139.031-.209,4.626-40.013-7.862-84.04-8.4-85.895a3.428,3.428,0,0,0-3.293-2.479H276.8a3.428,3.428,0,0,0-3.293,4.374c.127.441,12.616,44.513,8.186,83.11-.143.807-.718,4.139-1.441,9.342a34.08,34.08,0,0,0-3.135-4.522,27.732,27.732,0,0,1-6.153-14.517l-.48-4.216a3.427,3.427,0,1,0-6.81.776l.481,4.216a34.579,34.579,0,0,0,7.669,18.1,28,28,0,0,1,6.313,18.384c-2.178,23.067-3.5,56.758,2.624,86.214a247.965,247.965,0,0,1,4.3,27.864c.523,5.692.925,11.467,1.211,17.2a14.836,14.836,0,0,0-5.714,5.07c-16.327.565-34.018-3.672-34.243-3.727-.12-.032-5.16-1.428-12.769-8.26-3.86-3.466-8.559-13.965-12.088-26.914l8.846-6.6a9.656,9.656,0,0,0,1.446-14.157l-31.6-35.562c-.031-.035-.063-.069-.095-.1a32.753,32.753,0,0,0-14.671-8.776,18.969,18.969,0,0,0-13.688-5.85h-2.8a89.1,89.1,0,0,1,.153-11.073,12.5,12.5,0,0,0,7.623-2.813,42.114,42.114,0,0,0,7.532-8.086,29.414,29.414,0,0,0,4.955-12.284c.649-3.988,1.466-9.647,2.114-16.2a13.67,13.67,0,0,1,7.738,8.847c2.133,7.8,3.146,20.228-4.135,35.11A19.462,19.462,0,0,1,192,149.1a3.426,3.426,0,0,0,5.142,4.53,26.292,26.292,0,0,0,3.883-5.819c8.221-16.8,7.034-30.988,4.59-39.929a20.609,20.609,0,0,0-13.758-14.113q.2-2.939.332-6a31.371,31.371,0,0,0,11.561-15.8,35.321,35.321,0,0,0-2.095-27.928,27.884,27.884,0,0,0-22.788-15.089,40.125,40.125,0,0,0-4.425-3.779A42.764,42.764,0,0,0,128.9,21.384a44.736,44.736,0,0,0-12.629,9.5C107.4,30.2,92.1,31.486,83.1,46.161a35.628,35.628,0,0,0-3.085,29.975c3.027,9.084,7.252,27.013,1.538,45.019a7.847,7.847,0,0,0,5.615,9.992,64.785,64.785,0,0,1-6.419,19.677c-.063.115-.107.236-.164.352-10.71-.295-19.745-.719-27-1.266a27.94,27.94,0,0,0,3.477-6.25c2.752-6.7,3.981-15.392,3.461-24.476s-2.731-17.58-6.228-23.922A29.324,29.324,0,0,0,51,90.417a152.659,152.659,0,0,1,21.911-.028,3.427,3.427,0,1,0,.528-6.833A163.647,163.647,0,0,0,39.357,84.74c-5.365.461-9.974,4.744-13,12.12a51.691,51.691,0,0,0-3.425,16.176l0,.02a29.9,29.9,0,0,0-.1,6.233C22.844,119.971,22.854,120.649,22.893,121.336ZM80.2,158.022a8.805,8.805,0,0,0,.584,1.318A8.419,8.419,0,0,0,87.67,163.7q1.352.079,2.656.08a36.492,36.492,0,0,0,6.087-.485,10.8,10.8,0,0,0,7.219-4.85l3.207.027a12.236,12.236,0,0,0-.486,2.833c-.037.735-.078,1.542-.121,2.389-7.6,9.567-21.7,27.58-33.246,43.758a9.678,9.678,0,0,0,1.774,13.121l2.606,2.114c-6.493,8.886-11.939,16.872-16.559,24.332-1.71-10-2.08-22.98,4.5-31.854a3.165,3.165,0,0,0,.674-1.973l.8-40.4a51.874,51.874,0,0,1,2.682-15.132Q74.525,157.864,80.2,158.022Zm33.932-38.295a37.821,37.821,0,0,0,6.352-8.3c.066.069.127.142.194.21a16.883,16.883,0,0,0,11.488,5.117c.087,5.765.19,17.809-.171,30.9a9.912,9.912,0,0,0-4.807-.539h0a61.356,61.356,0,0,0-12.7,3.223,12.507,12.507,0,0,0-2.595,1.31q-2.434-.012-4.987-.03A106.488,106.488,0,0,0,114.135,119.727Zm71.4,122.117a3.291,3.291,0,0,0-.023.357c0,.024-.008.047-.008.071s0,.034,0,.05v0a194.956,194.956,0,0,0,2.349,30.453c-.287.122-.572.254-.852.4a204.042,204.042,0,0,1-33.039,13.655,271.685,271.685,0,0,1-35.545-13.174c-.328-.15-.663-.28-1-.4.631-9.735.544-18.582.506-20.942,1.612-4.866,12.044-36.981,17.517-69.382A79.171,79.171,0,0,0,156.4,199.959c-3.045,4.323-9.83,12.371-20.356,16.336a3.426,3.426,0,1,0,2.415,6.413c16.176-6.092,24.467-19.96,25.7-22.152.962-1.284,4.066-6.069,6.218-16.725a40.879,40.879,0,0,0,.722-5.789C190.111,205.908,185.591,241.458,185.538,241.844Zm-81.745,38.372c-.56,1.8-1.035,3.593-1.44,5.323a85.708,85.708,0,0,0-12.2-17.968L104.4,248.279a12.869,12.869,0,0,0,6.692,5.99c.023,3.684-.016,11.149-.539,19-.3.1-.6.211-.892.341A10.714,10.714,0,0,0,103.793,280.216ZM82.7,227l18.073,14.651-16.834,22.8a85.529,85.529,0,0,0-28.391,6.324C61.742,257.741,70.209,244.114,82.7,227Zm48.956-69.813q-.1,1.7-.247,3.444c-.185,1.992-.426,3.9-.683,5.866-.306,2.347-.62,4.777-.826,7.416-4.3,30.2-14.2,62.831-17.537,73.332a6,6,0,0,1-2.6-5.1c.9-29.544,2.7-66.134,3.438-80.494a5.512,5.512,0,0,1,3.646-4.881,54.627,54.627,0,0,1,11.277-2.869,3.121,3.121,0,0,1,3.532,3.272Zm-28.511,77.565L79.075,215.246a2.815,2.815,0,0,1-.511-3.817c8.89-12.455,19.32-26.022,27.082-35.929C104.874,191.4,103.836,214.143,103.141,234.755Zm60.235-70.1c.789,5.03,1.533,11.6.277,17.817A49.286,49.286,0,0,1,160,194.124a70.718,70.718,0,0,1-23.131-20.5c.581-4.263.957-8.494,1.382-12.606.467-4.511.868-25.762.854-34.177a22.3,22.3,0,0,0,4.043,3.392,72.37,72.37,0,0,0,19.126,8.708A109.016,109.016,0,0,0,163.376,164.657ZM59.935,172.721,59.2,209.693H46.328V169.922a40.95,40.95,0,0,1,2.834-13.5q5.765.516,13.243.909A56.491,56.491,0,0,0,59.935,172.721ZM35.957,257.213v-16.15c0-14.61,6.073-22.219,8.3-24.517H56.588c-5.969,12.937-3.42,29.352-.932,39.169a187.066,187.066,0,0,0-9.591,19.453,3.083,3.083,0,0,0-.116.377,16.034,16.034,0,0,1-7.3-7.231A23.321,23.321,0,0,1,35.957,257.213Zm44.767,54.233v-2.1a12.31,12.31,0,0,0-6.9-11.1L45.4,284.191c15.432-11.1,33.772-12.666,38.878-12.885,8.388,8.866,13.756,20.571,16.07,26.328-.116,1.161-.168,1.917-.183,2.151a120.775,120.775,0,0,0-.4,23.35H92.413A11.7,11.7,0,0,1,80.724,311.446Zm27.625,11.821V307c10.852,6,23.766,10.465,36.556,13.778A234.486,234.486,0,0,1,108.349,323.267Zm93.485-.33c-12.935-.966-64.257-5.849-93.675-23.989-.079-.24-.344-1.027-.806-2.25a84.263,84.263,0,0,1,2.983-14.446,3.81,3.81,0,0,1,2.111-2.381,3.725,3.725,0,0,1,3.11.017c14.231,6.54,44.163,18.291,86.458,24.48A95.3,95.3,0,0,1,201.834,322.937Zm-.513-25.6a354.14,354.14,0,0,1-35.691-7.258,203.155,203.155,0,0,0,24.585-10.842,3.886,3.886,0,0,1,5.033,1.2C199.09,286.02,200.675,292.987,201.321,297.334ZM284.8,127.922l.026-.255c.009-.083.012-.166.019-.248,1.518-17.052,3.559-28.722,3.607-28.991.012-.069.023-.139.031-.209,3.84-33.211-4.111-69.189-7.23-81.521h11.86c2.547,9.853,11.35,47.288,7.52,80.636a411.015,411.015,0,0,0-4.7,43.236,20.947,20.947,0,0,0,7.611,17.518A29.28,29.28,0,0,0,308.7,161.4l1.31,12.35a21.413,21.413,0,0,0-7.743,5.816,22.285,22.285,0,0,0-4.928,17.277c.642,5.006,1.445,9.835,2.387,14.353a247.351,247.351,0,0,1,4.331,28.31c.46,5.085.827,10.225,1.1,15.335a14.727,14.727,0,0,0-2.615-.246H293.05c-.287-5.423-.674-10.875-1.169-16.252a254.773,254.773,0,0,0-4.415-28.631C281.785,182.363,282.817,150.523,284.8,127.922Zm.168,141.416a7.9,7.9,0,0,1,7.895-7.9h9.672a7.9,7.9,0,0,1,7.895,7.9v18.644a7.9,7.9,0,0,1-7.895,7.895h-9.672a7.9,7.9,0,0,1-7.895-7.895Zm-6.792-1.2c-.033.4-.061,19.847-.061,19.847a14.663,14.663,0,0,0,.736,4.578c-8.574,1.778-23.942,4.3-39.509,3.519-.123-5.969.457-20.062,7.676-31.386A154.337,154.337,0,0,0,278.177,268.135Zm-49.214-13.787a53.494,53.494,0,0,0,11.41,8.088,56.877,56.877,0,0,0-6.556,17.952,25.077,25.077,0,0,1-13.268-8.541c-9.856-12.107-17.06-26.258-20.218-32.985a19.181,19.181,0,0,0,1.641-2.043,3.452,3.452,0,0,0,.35-.218l13.245-9.877C218.012,235.114,222.747,248.766,228.963,254.348Zm-2.34-48.214a2.8,2.8,0,0,1-.42,4.112l-20.175,15.043a75.143,75.143,0,0,0-8.771-50.127c-1.069-1.9-2.193-3.781-3.341-5.651.4.36.782.73,1.156,1.115Zm-54.93-47.989a12.08,12.08,0,0,1,9.812,5.02,168.618,168.618,0,0,1,9.78,15.359,68.068,68.068,0,0,1,7.242,49.244c-.082.346-2.989,6.785-5.67,8.447.6-13.679-.647-45.8-22.331-69.987-.121-.909-.248-1.8-.379-2.632-.255-1.629-.507-3.464-.724-5.451Zm10.7-42.21a22.537,22.537,0,0,1-3.775,9.412,35.823,35.823,0,0,1-6.307,6.771,5.657,5.657,0,0,1-4.9,1.105,66,66,0,0,1-20.515-8.726,15.635,15.635,0,0,1-5.9-7.151c-1.412-3.4-2.3-5.554-2.3-5.554-.936-2.039-2.282-1.882-4.584-1.942a10.06,10.06,0,0,1-8.533-3,10.808,10.808,0,0,1-2.979-9.264,13.165,13.165,0,0,1,.991-3.476,5.294,5.294,0,0,1,4.118-3.07,4.64,4.64,0,0,1,4.266,1.614,5.026,5.026,0,0,1,.607.894v0a3.429,3.429,0,0,0,4.319,2.014c27.237-9.413,37.48-30.17,40.953-40.26a37.218,37.218,0,0,1,5.483,9.075,24.3,24.3,0,0,1,2.009,8.61C186.142,89.664,183.835,107.054,182.39,115.935ZM131.988,27.5a36.035,36.035,0,0,1,38.378,3.182,29.118,29.118,0,0,1,4.315,3.806,3.424,3.424,0,0,0,2.406,1.2c8.429.5,14.664,4.4,18.533,11.6a28.443,28.443,0,0,1,1.638,22.492,25.339,25.339,0,0,1-4.909,8.682c-.019-1.935-.065-3.875-.158-5.807a31.12,31.12,0,0,0-2.574-11.028c-2.082-4.761-5.775-11.3-11.553-15.429a3.431,3.431,0,0,0-5.359,2.156c-.223,1.173-5.681,28.158-35.55,39.809a11.525,11.525,0,0,0-10.371-3.917,12.087,12.087,0,0,0-7.321,3.862,28.821,28.821,0,0,1-6.206-10.751A76.158,76.158,0,0,1,111.332,61.1,37.378,37.378,0,0,1,131.988,27.5ZM88.944,49.743c5.63-9.181,14.424-11.87,22.183-12.135a44.267,44.267,0,0,0-6.649,23.508,83.216,83.216,0,0,0,2.1,17.784,35.632,35.632,0,0,0,9.641,15.707c-.155.631-.293,1.275-.4,1.943a17.746,17.746,0,0,0,.543,7.711c-5.85,14.03-17.986,18.76-27.168,20.247a.97.97,0,0,1-.92-.335.948.948,0,0,1-.2-.945c6.3-19.855,1.722-39.384-1.569-49.258A28.8,28.8,0,0,1,88.944,49.743ZM86.773,154.092c3.509-6.465,6-14.415,7.442-23.616a45.888,45.888,0,0,0,12.419-4.992c-1.957,14.63-6.092,24.247-8.584,28.965a3.957,3.957,0,0,1-2.782,2.086,32.1,32.1,0,0,1-7.2.32,1.571,1.571,0,0,1-1.3-.845A1.982,1.982,0,0,1,86.773,154.092ZM32.693,99.463c1.973-4.8,4.73-7.763,7.373-7.914.072,0,.145-.006.218-.006,2.593,0,5.57,2.6,8.009,7.028,3.012,5.463,4.925,12.923,5.387,21s-.588,15.711-2.958,21.482c-2,4.876-4.689,7.761-7.373,7.914-2.623.14-5.718-2.474-8.226-7.022a34.694,34.694,0,0,1-1.561-3.291,10.738,10.738,0,0,0,4.537,1.016,11.134,11.134,0,0,0,3.31-.509,10.849,10.849,0,0,0,7.447-8.127,34.872,34.872,0,0,0,.622-9.421,18.342,18.342,0,0,0-2.3-8.144c-2.12-3.694-5.132-5.845-8.71-6.221a3.427,3.427,0,1,0-.717,6.816c1.318.139,2.49,1.086,3.483,2.816a11.583,11.583,0,0,1,1.4,5.129,28.083,28.083,0,0,1-.475,7.56A4.108,4.108,0,0,1,35.34,131.7c-4.188-3.907-5.4-9.323-5.686-13.124C29.5,111.383,30.557,104.666,32.693,99.463Z"/><path d="M164.587,87.324a3.733,3.733,0,1,0,3.733,3.733A3.733,3.733,0,0,0,164.587,87.324Z"/><path d="M177.686,87.324a3.733,3.733,0,1,0,3.732,3.733A3.733,3.733,0,0,0,177.686,87.324Z"/></svg>