<svg xmlns="http://www.w3.org/2000/svg"  viewBox="0 0 340 340" width="500px" height="500px"><path d="M307.74,213.476A24.291,24.291,0,0,1,304,198.921c2.1-35.011-8.872-52.181-14.649-58.689.225-.988.441-1.99.637-3.02.9-4.181-.509-12.978-11.64-18.148a54.636,54.636,0,0,0-1.432-27.119,10.143,10.143,0,0,0-1.644-3.134v-31c.044-.058.1-.105.138-.167,2.893-4.325,6.134-11.658,5.139-22.03a25.925,25.925,0,0,0-5.832-14.081c-7.335-9.03-19.218-12.452-29.568-8.518q-.651.248-1.307.539a20.874,20.874,0,0,1-13.753,1.352c-7.449-1.977-18.292-2.207-27.649,7.928a34.659,34.659,0,0,0-8.8,19.345,115.032,115.032,0,0,0-.933,14.74A22.736,22.736,0,0,1,184.82,74.2c-6.912,5.986-15.061,16.841-15.723,34.881-7.849,1.187-16.8,5.723-21.42,17.459-12.566,8.815-19.259,23.056-22.719,37.307a3.342,3.342,0,0,0-.737.433,79.358,79.358,0,0,1-18.986,11.171c-19.536-12.4-31.076-33.058-36.328-44.595a41.7,41.7,0,0,0-3.468-8.377,3.427,3.427,0,0,0-5.991.251c-5.166,10.334-18.318,16.75-20.409,17.718a27.365,27.365,0,0,1-14.4-.435,19.658,19.658,0,0,0,2.449-5.557,12.06,12.06,0,0,0-6.108-13.521,67.117,67.117,0,0,1-7.278-4.542,44.874,44.874,0,0,0,.748-22.836c-3.2-15.8,10.412-32.005,16.423-38.244a12.17,12.17,0,0,1,4.892-3.093L41.2,50.406a3.426,3.426,0,0,0,2.34-3.084c.347-7.112,8.037-26.966,16.171-28.169,12.656-1.866,16.679,10.428,17.042,11.632A67.1,67.1,0,0,1,78.064,45.1a3.428,3.428,0,0,0,2.916,3.483l5.458.821a3.427,3.427,0,0,0,1.02-6.777l-2.539-.382a75.619,75.619,0,0,0-1.09-10.934C94.9,22.683,111.523,18.851,119.4,17.446l-.432,2.963a3.425,3.425,0,0,0,1.864,3.562c23.3,11.6,42.444,29.677,54.4,42.8a3.426,3.426,0,0,0,5.065-4.615c-11.968-13.139-30.947-31.1-54.191-43.189l.746-5.116a3.426,3.426,0,0,0-3.772-3.9c-1.091.122-25.1,2.932-41.534,14.52-3.383-6.494-10.67-13.9-22.839-12.1-5.917.876-10.811,6.122-14.474,12.41a23.154,23.154,0,0,0-2-1.2,12.242,12.242,0,0,0-15.37,3.305c-6.659,8.534-6.059,21.108-5.012,28.22C14.483,63.9,4.5,79.252,7.755,95.03c.013.066.031.139.048.2a38.19,38.19,0,0,1-1.23,20.832c-1.106,1.7-3.891,7.1-1.83,16.05,2.166,9.412,10.647,11.877,13.372,12.433,2.379,1.416,10.289,5.247,22.734,2.518a3.434,3.434,0,0,0,.626-.2c.6-.259,12.671-5.559,20.429-15.358.157.452.319.945.483,1.457.009.033.011.067.021.1,1.761,5.545,4.045,15.231,4.927,29.881,0,.044.013.088.018.132.794,13.412.421,30.929-2.5,53.325a47.687,47.687,0,0,0,4.288,26.905c4.758,9.9,12.761,24.18,23.87,36.035a3.426,3.426,0,1,0,5-4.686c-10.513-11.22-18.144-24.856-22.694-34.318a40.848,40.848,0,0,1-3.668-23.048,328.955,328.955,0,0,0,2.9-38.072,126.905,126.905,0,0,0,28.177,34.315,3.428,3.428,0,0,0,3.542.458,93.969,93.969,0,0,0,15.329-8.64,30.2,30.2,0,0,1-2.6,10.509c-11.688,26.02-7.574,55.015-6.694,60.245-4.272,16.575-2.373,33.7-1.347,42.962l.1.938a11.3,11.3,0,0,0,11.251,10.065h20.3a11.334,11.334,0,0,0,11.321-11.322V301.978a12.85,12.85,0,0,0-4.034-9.331,5.935,5.935,0,0,1-1.865-4.7l1.384-22.487c10.675-14.727,12.845-33.958,13.274-40.044a27.067,27.067,0,0,0,7.672-8.132,92.114,92.114,0,0,0,7.019,16.41c3.743,6.861,4.873,14.735,5.1,20.734-2.977,1.87-7.785,6.319-9.565,16.1a23.367,23.367,0,0,0-.336,2.846c-.019.034-.043.062-.06.1A134.617,134.617,0,0,0,159.7,326.513,3.426,3.426,0,0,0,163,330.068l.133,0a3.426,3.426,0,0,0,3.422-3.3,130.988,130.988,0,0,1,8.509-41.965,24.953,24.953,0,0,0,6.8,8.133,3.424,3.424,0,0,0,3.789.137,26.927,26.927,0,0,0,6.327-5.52,46.144,46.144,0,0,0,21.8,15.033,3.42,3.42,0,0,0,2.564-.33,27.425,27.425,0,0,0,8.18-7.661c11.142,15.748,22.042,21.409,22.54,21.662a3.427,3.427,0,0,0,3.685-.375,39.963,39.963,0,0,0,8.01-9.182c3.141,7.71,7.394,15.61,11.022,20.209a8.214,8.214,0,0,0,6.472,3.156,8.41,8.41,0,0,0,1.816-.2,8.269,8.269,0,0,0,6.307-6.2c6.2-26.04-1.647-50.957-10.246-64.381a10.039,10.039,0,0,0-5.305-4.1,384.858,384.858,0,0,0,1.724-44.522c15.682-13.735,15.325-40.046,13.657-54.765a3.619,3.619,0,0,0-.079-.364,68.659,68.659,0,0,0,2.91-7.132c5.176,7.6,11.761,22.835,10.124,50.106a31.105,31.105,0,0,0,4.8,18.638c5.134,8.093,11.8,22.06,14.387,42.645a3.436,3.436,0,0,0,.4,1.221c.121.221,12.073,22.345,12.4,49.051a7.821,7.821,0,0,1-5.7,7.6,52.933,52.933,0,0,1-19.683,1.572c-5.966-.61-7.578-6.562-7.88-11.448-.35-5.678,1.185-9.773,4.566-12.17l0,0c.236-.164,5.725-3.839,14.946-.8a3.426,3.426,0,1,0,2.145-6.508,26.367,26.367,0,0,0-16.344-.465,54.633,54.633,0,0,0-7.939-18.876,53.291,53.291,0,0,0-5.182-6.525,27.359,27.359,0,0,1-6.845-20.2,3.427,3.427,0,0,0-6.838-.461,34.269,34.269,0,0,0,8.612,25.27,46.04,46.04,0,0,1,11.85,24.283c-4.255,3.867-6.258,9.653-5.813,16.875.648,10.494,5.76,17,14.022,17.843a63.129,63.129,0,0,0,6.418.328,58.479,58.479,0,0,0,15.827-2.123A14.687,14.687,0,0,0,336,309.98c-.327-26.306-10.908-47.793-12.934-51.671C320.256,236.808,313.2,222.076,307.74,213.476ZM32.269,31.1a5.4,5.4,0,0,1,6.773-1.456,16.127,16.127,0,0,1,2.089,1.318A60.919,60.919,0,0,0,36.96,44.6L33.6,45.717A18.994,18.994,0,0,0,28.1,48.639C27.837,42.9,28.5,35.931,32.269,31.1ZM11.422,130.579a18,18,0,0,1-.278-7.614,71.019,71.019,0,0,0,6.631,4.027,5.148,5.148,0,0,1,2.679,5.735,13.75,13.75,0,0,1-2.371,4.738A9.573,9.573,0,0,1,11.422,130.579ZM215.636,85.9c-2.473-1.921-2.669-5.6-2.67-5.607,0-.105-.011-.209-.024-.313-.038-.306-.063-.6-.082-.885a5.474,5.474,0,0,1,4.444-5.876,5.628,5.628,0,0,1,6.724,3.285c.04.093.065.159.066.159h0a3.427,3.427,0,0,0,3.926,2.26c6.985-1.414,11.152-7.257,11.431-16.034a17.054,17.054,0,0,1,2.342-8.078c2.567-4.36,7.9-11.674,14.79-11.674,9.316,0,11.467,7.25,11.831,8.865V65.764c-1.259.208-2.407.418-2.487.433a3.426,3.426,0,0,0,.613,6.8c.2,0,1.356-.189,1.874-.278V84.938a10.333,10.333,0,0,0-1.237-.082H259.54a19.812,19.812,0,0,0-18.363,12.5,46.088,46.088,0,0,1-13.583-8.512,7.08,7.08,0,0,0-2.662-1.518h0a7.292,7.292,0,0,0-3.074-.242C219.172,87.419,217.084,87.024,215.636,85.9Zm9.508,9.866a49.149,49.149,0,0,0,17.466,9.261,3.437,3.437,0,0,0,4.285-2.8c.008-.045.039-.236.106-.539a12.859,12.859,0,0,1,12.539-9.98h7.637a3.324,3.324,0,0,1,3.2,2.3,46.008,46.008,0,0,1-.4,29.68,3.267,3.267,0,0,0-.124.331,47.426,47.426,0,0,1-6.77,12.11,55.827,55.827,0,0,0-15.772-10.467c-9.014-3.949-11.615-10.026-13.012-13.29-.132-.31-.254-.593-.367-.844a3.426,3.426,0,0,0-5.4-1.163l-1.725,1.53A19.6,19.6,0,0,1,225.144,95.766ZM189.306,79.379A29.58,29.58,0,0,0,199.552,56.9a108.4,108.4,0,0,1,.879-13.859,27.855,27.855,0,0,1,7.04-15.553c5.652-6.123,12.669-8.126,20.856-5.952a27.747,27.747,0,0,0,18.3-1.714q.48-.215.958-.4c7.581-2.885,16.347-.3,21.813,6.433a19.181,19.181,0,0,1,4.329,10.414A29.431,29.431,0,0,1,273.2,45.6c-2.583-4.593-7.712-9.315-16.614-9.315-9.784,0-16.655,8.185-20.7,15.052A23.9,23.9,0,0,0,232.6,62.672c-.138,4.318-1.372,7.216-3.676,8.654a12.5,12.5,0,0,0-13.215-4.772,12.284,12.284,0,0,0-9.69,12.962q.035.566.1,1.16a15.285,15.285,0,0,0,4.435,9.89c-2.507,4.033-4.962,8.311-7.336,12.787-6.115-2.828-16.156-3.825-25.726,5.638-.494-.068-1.011-.122-1.543-.164C176.66,93.53,183.5,84.406,189.306,79.379Zm-11.853,36.556c1.746,1.133,9.334,6.726,13.636,20.711,4.045,13.142,17.38,23.876,33.185,26.71a3.426,3.426,0,0,0,1.211-6.745c-13.346-2.393-24.536-11.226-27.844-21.98-3.746-12.173-9.755-18.969-13.631-22.305,8.679-7.192,16.222-3.015,18.106-1.75,2.139,2.949,13.34,17.86,24.3,22.438a3.427,3.427,0,0,0,2.641-6.324c-8.153-3.405-17.2-14.6-20.444-18.867,2.6-4.975,5.3-9.7,8.064-14.117a15.6,15.6,0,0,0,1.852.273c-3.6,10.953,1.348,21.026,5.024,25.314a3.426,3.426,0,0,0,4.874.333l1.216-1.076a29.824,29.824,0,0,0,14.922,13.395,47.93,47.93,0,0,1,15.905,11.32,41.014,41.014,0,0,1-4.8,4.79,3.426,3.426,0,0,0,4.421,5.236,49.27,49.27,0,0,0,16.372-27.524h0c7.671,4,6.928,9.4,6.815,10.01-.008.037-.016.073-.022.109-8.269,43.581-44.465,45.273-45.977,45.324-44.922,1.1-56.427-39.105-56.894-40.81-.016-.06-.033-.119-.053-.179-4.269-12.976-15.3-16.072-23.906-15.794C163.238,114.181,174.881,115.5,177.453,115.935Zm-72.023,90.9c-5.324-4.733-22.712-21.444-31.272-44.762-.206-3.312-.482-6.389-.808-9.24,7,10.392,16.764,21.532,29.748,29.357a3.425,3.425,0,0,0,2.852.316,77.638,77.638,0,0,0,17.1-8.882,147.882,147.882,0,0,0-1.569,23.306A86.1,86.1,0,0,1,105.43,206.83ZM277.7,322.081a1.434,1.434,0,0,1-1.116,1.1,1.368,1.368,0,0,1-1.43-.51c-4.253-5.39-9.717-16.423-12.44-25.118a3.424,3.424,0,0,0-3.044-2.394c-.075,0-.152-.008-.226-.008a3.43,3.43,0,0,0-3.107,1.982,47.789,47.789,0,0,1-8.116,11.833c-3.8-2.52-12.551-9.273-20.894-22.488a3.427,3.427,0,0,0-5.969.308,26.977,26.977,0,0,1-7.174,8.725A41.347,41.347,0,0,1,194.8,279.849a3.433,3.433,0,0,0-5.856.235,22.975,22.975,0,0,1-4.843,5.691,15.982,15.982,0,0,1-4.443-14.026c1.231-6.767,4.1-9.85,5.874-11.151a68.588,68.588,0,0,0,41.6,13.8,59.25,59.25,0,0,0,36.5-12.185,3.274,3.274,0,0,1,2.593-.642,3.149,3.149,0,0,1,2.134,1.415C270.1,265.711,285.207,290.544,277.7,322.081ZM265.113,206.265a28.366,28.366,0,0,1-15.68,4.022,3.427,3.427,0,0,0-.734,6.814,19.451,19.451,0,0,0,1.971.084,35.6,35.6,0,0,0,13.077-2.614,372.931,372.931,0,0,1-1.841,40.823,10.17,10.17,0,0,0-2.455,1.38,52.45,52.45,0,0,1-32.328,10.767,62.316,62.316,0,0,1-37.776-12.675c-.19-6.857-1.436-16.181-5.951-24.457a77.488,77.488,0,0,1-8.521-23.431c.073-.261.156-.575.244-.933,7.985,7.868,19.587,12.148,34.559,12.711l.131,0a3.427,3.427,0,0,0,.127-6.851c-14.254-.536-24.879-4.708-31.583-12.4-9.192-10.549-7.956-24.473-7.933-24.708a3.426,3.426,0,0,0-6.816-.71,43.469,43.469,0,0,0,5.448,24.117c0,.107-.007.211,0,.318a20.746,20.746,0,0,1-.945,7.162c-.009.029-.01.058-.018.086s-.026.063-.035.1c-.027.1-2.816,10.474-10.324,14.536-.012.006-.023.015-.035.021a.256.256,0,0,0-.024.011,17,17,0,0,1-7.486,1.8H150.1a3.427,3.427,0,0,0-.016,6.853h.1a23.192,23.192,0,0,0,5.306-.632c-.928,7.712-3.747,22.573-12.171,33.708a3.423,3.423,0,0,0-.687,1.857l-1.446,23.5a12.77,12.77,0,0,0,4.011,10.117,5.975,5.975,0,0,1,1.875,4.337v16.771a4.473,4.473,0,0,1-4.468,4.469h-20.3a4.452,4.452,0,0,1-4.439-3.961l-.1-.945c-.993-8.952-2.84-25.615,1.349-41.17a3.461,3.461,0,0,0,.057-1.532c-.058-.305-5.65-30.841,6.074-56.941a36.74,36.74,0,0,0,3.23-16.61c-.713-15.833.177-54.192,23.478-70.156,3.031-.674,17.362-3.086,21.849,10.385a69.1,69.1,0,0,0,12.666,23.279c8.518,10.35,23.894,22.516,49.121,22.515q.926,0,1.871-.022a55.961,55.961,0,0,0,40.579-22.376C278.442,178.53,276.726,197,265.113,206.265Z"/><path d="M69.593,32.015a8.442,8.442,0,0,0-6.835-4.209,8.335,8.335,0,0,0-7.174,3.335c-2.754,3.691-4.055,8.731-3.868,14.979a3.426,3.426,0,0,0,3.425,3.324H69.586a3.427,3.427,0,0,0,3.425-3.494C73.005,45.61,72.81,37.568,69.593,32.015ZM58.655,42.591a14.389,14.389,0,0,1,2.422-7.352,1.453,1.453,0,0,1,1.284-.591,1.6,1.6,0,0,1,1.3.8,21.371,21.371,0,0,1,2.166,7.141Z"/><path d="M249.081,72.221a16.928,16.928,0,0,1,3.241.645,3.426,3.426,0,0,0,1.855-6.6,22.089,22.089,0,0,0-4.834-.9,3.4,3.4,0,0,0-3.522,3.278A3.441,3.441,0,0,0,249.081,72.221Z"/><path d="M240.628,163.168a3.412,3.412,0,0,0,.759-.086c.255-.058.512-.118.765-.181a3.426,3.426,0,1,0-1.648-6.651c-.21.051-.42.1-.629.148a3.427,3.427,0,0,0,.753,6.77Z"/><path d="M106.988,61.868a3.428,3.428,0,0,0-2.165-1.756l-10.7-2.882a3.427,3.427,0,1,0-1.783,6.617l6.81,1.834a28.7,28.7,0,0,1-9.529,10.812,3.426,3.426,0,0,0,.365,6.141l5.27,2.21c-3.557,6.829-8.553,9.332-12.335,10.2a14.046,14.046,0,0,0-8.311,5.556l-1.6,2.247a3.427,3.427,0,0,0,5.586,3.971l1.6-2.246a7.206,7.206,0,0,1,4.261-2.849c4.841-1.111,13.692-4.855,18.559-17.446a3.426,3.426,0,0,0-1.871-4.395l-3.168-1.329a38.4,38.4,0,0,0,9.156-13.9A3.427,3.427,0,0,0,106.988,61.868Z"/><path d="M39.369,75.461l-2.116,3.544a3.426,3.426,0,1,0,5.883,3.513l2.116-3.544a3.426,3.426,0,1,0-5.883-3.513Z"/><path d="M258.147,195.744l-2.644.338a3.427,3.427,0,1,0,.87,6.8l2.644-.338a3.427,3.427,0,0,0-.87-6.8Z"/><path d="M206.627,196.082l-2.644-.338a3.427,3.427,0,0,0-.87,6.8l2.644.338a3.427,3.427,0,1,0,.87-6.8Z"/><path d="M235.376,220.332a3.426,3.426,0,1,0-6.159,3c.036.074,3.37,7.086.056,13.642-6.863,1.245-10.237-.113-11.409-.793a3.427,3.427,0,0,0-3.437,5.93,18.927,18.927,0,0,0,9.635,2.23,35.118,35.118,0,0,0,5.324-.447,21.855,21.855,0,0,1,.714,10.773,3.427,3.427,0,1,0,6.74,1.242,28.45,28.45,0,0,0-1.512-15.708C240.278,230.622,235.59,220.769,235.376,220.332Z"/><path d="M240.664,240.758a3.424,3.424,0,0,0,4.048,2.664,23.359,23.359,0,0,0,8.947-3.774,3.427,3.427,0,1,0-3.985-5.576,16.582,16.582,0,0,1-6.346,2.638A3.427,3.427,0,0,0,240.664,240.758Z"/></svg>