<svg xmlns="http://www.w3.org/2000/svg"  viewBox="0 0 340 340" width="500px" height="500px"><path d="M323.129,226.536a54.27,54.27,0,0,0-10.139,2.345l-39.254-52.244c.219-.517.45-1.03.665-1.548a13.382,13.382,0,0,0-1.483-12.892,81.9,81.9,0,0,0-19.339-19.3,3.427,3.427,0,0,0-5.146,1.61c-.019.051-.476,1.247-1.353,3.377a103.875,103.875,0,0,1-19.418,1.562V136.174a15.553,15.553,0,0,0,12.349-8.32,94.774,94.774,0,0,0,5.514-13.6,64.573,64.573,0,0,0,2.6-11.614,303.27,303.27,0,0,0,2.034-39.41c18.447-9.607,20.072-28.762,20.091-29.019a3.425,3.425,0,0,0-3.418-3.668h-6.613a28.337,28.337,0,0,0,.6-11.531,3.445,3.445,0,0,0-5.151-2.506c-.072.042-7.355,4.159-22.959,2.678-2.147-.283-33.459-4.1-50.634,11.191a17.035,17.035,0,0,0-5.707,13.56,17.416,17.416,0,0,0,.32,2.51c-4.044,3.894-6.7,9.327-7.856,16.208A33.393,33.393,0,0,0,173.8,86.717a27.142,27.142,0,0,0-.416,4.828c0,10.691,7.841,15.749,13.764,17.511v28.88c-.888-.569-1.715-1.127-2.463-1.66A10.146,10.146,0,0,0,171,138.133l-6.028,7.349c-.282-.253-.565-.507-.827-.746a9.327,9.327,0,0,0-12.914.3l-14.108,14.135a3.426,3.426,0,0,0-.46,4.27c2.024,3.157,4.226,6.215,6.551,9.181A492.241,492.241,0,0,1,121.9,222.731a146.945,146.945,0,0,0-13.289-18.548v-5.506a14.076,14.076,0,0,0-9.458-13.272V135.1a37.443,37.443,0,0,1,2.514-13.214,28.107,28.107,0,0,0,2.416-11.148V90.518c1.1.647,2.213,1.363,3.354,2.176a49.08,49.08,0,0,1,7.932,8.056,111.077,111.077,0,0,1,7.094,9.706c8.664,13.031,19,17.984,24.538,19.8l-39.1,32.027a3.427,3.427,0,1,0,4.342,5.3L157.6,130.435a14.632,14.632,0,0,0,9.974-12.08,3.428,3.428,0,0,0-2.49-3.616C150,110.527,137.3,94.066,136.59,93.129c-14.376-20.833-27.485-28.751-34.245-31.66a10.9,10.9,0,0,0-9.171-5.024H84.34a10.9,10.9,0,0,0-9.172,5.024C68.41,64.377,55.3,72.3,40.924,93.129c-.723.951-13.418,17.4-28.491,21.61a3.428,3.428,0,0,0-2.49,3.616,14.633,14.633,0,0,0,9.975,12.08l45.355,37.148a3.427,3.427,0,0,0,4.343-5.3l-39.1-32.027c5.536-1.815,15.875-6.767,24.538-19.8a111.493,111.493,0,0,1,7.094-9.706A49.061,49.061,0,0,1,70.077,92.7c1.141-.814,2.257-1.528,3.353-2.175v20.216a28.1,28.1,0,0,0,2.417,11.148,37.466,37.466,0,0,1,2.513,13.262v50.259A14.076,14.076,0,0,0,68.9,198.677v19.058a14.073,14.073,0,0,0,9.293,13.211c-.643,15.588-3.076,23.289-4.51,26.527a27.088,27.088,0,0,0-2.3,11.041v10.551a24.985,24.985,0,0,0,6.7,17.165,50.452,50.452,0,0,0,8.828,7.532,3.431,3.431,0,0,0,3.67,0,50.448,50.448,0,0,0,8.827-7.533,24.913,24.913,0,0,0,6.662-15.723c14.152,15.5,30.353,19.957,31.125,20.162a3.427,3.427,0,0,0,4.3-3.1,117.637,117.637,0,0,0-.762-22.471,280.138,280.138,0,0,0,16.415-26.982l.736,27.827c-.6.489-1.2.982-1.807,1.46a12.512,12.512,0,0,0-4.728,9.37,75.129,75.129,0,0,0,1.821,19.478l.474,18.312a3.426,3.426,0,0,0,3.425,3.338H292.731a3.426,3.426,0,0,0,3.336-2.647l.989-4.23A14.787,14.787,0,0,0,288,303.93l-.664-.255,1.539-7.337,31.972-29.957a28.691,28.691,0,0,0,9.215-21.495,48.255,48.255,0,0,0-3.392-16.171A3.433,3.433,0,0,0,323.129,226.536ZM306.3,231.392a76.305,76.305,0,0,0-7.69,3.836,75.334,75.334,0,0,0-12.393,8.881L272.68,231.55a3.427,3.427,0,0,0-4.661,5.024l13.261,12.3a85.9,85.9,0,0,0-19.141,32.842c-.371.639-1.2,2.132-2.247,4.435.436-22.266,1.837-64.819,6.314-92.4a3.385,3.385,0,0,0,.014-.887q2.263-4.487,4.345-9.039Zm-147.29,69.052a69.73,69.73,0,0,1-.809-13.42,5.669,5.669,0,0,1,2.137-4.249c14.273-11.313,28.166-25.624,41.335-42.569a113.556,113.556,0,0,0,14.073,13.061A278.4,278.4,0,0,1,159.014,300.444Zm66.3-99.628a5.085,5.085,0,0,1,1-.1,4.965,4.965,0,0,1,2.965.987A78.842,78.842,0,0,1,245.1,216.867a4.991,4.991,0,0,1,.192,5.675,223.452,223.452,0,0,1-18.287,24.865,4.974,4.974,0,0,1-6.809.642,101.674,101.674,0,0,1-14.989-14.241,4.943,4.943,0,0,1-.115-6.156,292.205,292.205,0,0,0,16.966-24.547A4.856,4.856,0,0,1,225.31,200.816ZM222.6,255.934c.216.012.432.026.648.026a11.831,11.831,0,0,0,8.905-4.03,230.381,230.381,0,0,0,18.905-25.683,11.887,11.887,0,0,0,1.5-9.375q2.416-3.789,4.705-7.652c-3.6,33.429-4.27,76-4.389,88.221H176A295.89,295.89,0,0,0,222.6,255.934Zm10.436,48.36v16.755H214.615V304.294Zm6.853,0h12.954v16.755H239.89Zm27.472-138.085a6.486,6.486,0,0,1,.71,6.25,264.948,264.948,0,0,1-19.462,37.816,89.855,89.855,0,0,0-15.265-14.086,11.828,11.828,0,0,0-1.827-1.095,415.428,415.428,0,0,0,21.642-43.981A77.824,77.824,0,0,1,267.362,166.209ZM186.64,35.49c9.525-8.482,25-10.051,35.142-10.051a85.449,85.449,0,0,1,10.083.543L232,26c10.537,1.011,17.88-.3,22.262-1.615-.169,4.732-1.737,6.868-1.981,7.173a3.287,3.287,0,0,0-.85,3.679,3.466,3.466,0,0,0,3.289,2.159h8.028c-1.954,7.631-9.427,24.351-37.4,24.351-19.928,0-31.59-5.522-37.864-10.153a10.471,10.471,0,0,1-4.266-7.972A10.211,10.211,0,0,1,186.64,35.49ZM175.6,63.788a23.924,23.924,0,0,1,4.1-10.447,17.452,17.452,0,0,0,3.719,3.763,56.268,56.268,0,0,0,19.935,8.976,25.144,25.144,0,0,1-6.934,15.636,13.105,13.105,0,0,0-.737-1.277A11.769,11.769,0,0,0,177.338,78.9,26.282,26.282,0,0,1,175.6,63.788Zm4.635,27.757a15.31,15.31,0,0,1,1.334-6.857,4.792,4.792,0,0,1,4.077-2.615,4.737,4.737,0,0,1,4.3,2.117,8.156,8.156,0,0,1,1.2,3.982,3.434,3.434,0,0,0,3.042,3.192,3.483,3.483,0,0,0,2.459-.687c6.176-4.548,12.567-12.838,13.472-23.222A97.462,97.462,0,0,0,225.351,68.6a59.094,59.094,0,0,0,17.971-2.55c0,4.719-.089,11.326-.486,18.607-1.5.537-3.486,1.358-4.244,1.68a3.427,3.427,0,0,0,2.681,6.308c.3-.127.659-.277,1.05-.437-.261,3.172-.586,6.388-.993,9.56A57.7,57.7,0,0,1,239,112.145a87.835,87.835,0,0,1-5.092,12.584,8.747,8.747,0,0,1-10.11,4.355c-7.849-2.178-19.016-6.161-27.644-12.768A5.614,5.614,0,0,1,194,111.873v-3.144a6.43,6.43,0,0,0-1.6-4.243h0a6.454,6.454,0,0,0-3.111-1.952C186.234,101.679,180.233,99.045,180.233,91.545ZM194,123.219c8.7,6.089,19.063,9.906,26.811,12.138v13.719A77.591,77.591,0,0,1,194,141.771Zm-17.7,19.26a3.273,3.273,0,0,1,4.411-.621c8.332,5.934,24.5,14.462,48.571,14.462a109.363,109.363,0,0,0,14.623-1.007c-2.171,4.905-5.109,11.244-8.79,18.539-25.778,3.95-51.05-12.559-64.935-23.912Zm-20.218,7.4a2.49,2.49,0,0,1,3.445-.081c11.5,10.494,40.539,33.514,71.8,31.373-2.171,4.1-4.543,8.422-7.11,12.889-.084.015-.168.02-.251.036a11.79,11.79,0,0,0-7.784,5.487C213,204.9,209.049,210.64,205.557,215.5c-16.771-9.757-44.7-28.527-61.616-53.457Zm-25.087-52.8c.023.034.047.067.072.1.545.733,12.751,16.948,28.86,23.067a7.51,7.51,0,0,1-4.9,3.831,10.157,10.157,0,0,1-5.709-.275c-4.626-1.483-13.524-5.681-21.143-17.14a117.673,117.673,0,0,0-7.529-10.291,54.483,54.483,0,0,0-9.227-9.257,47.5,47.5,0,0,0-7.331-4.342V70.028C110.649,73.866,120.325,81.609,130.989,97.079ZM80.283,67.355A4.062,4.062,0,0,1,84.34,63.3h8.834a4.061,4.061,0,0,1,4.056,4.057v43.381a21.3,21.3,0,0,1-1.856,8.434A43.917,43.917,0,0,0,92.3,135.146v49.469H85.213V135.2a43.943,43.943,0,0,0-3.072-16.027,21.31,21.31,0,0,1-1.857-8.435ZM66.1,87.114a54.485,54.485,0,0,0-9.226,9.257,117.662,117.662,0,0,0-7.53,10.291C41.725,118.121,32.827,122.319,28.2,123.8a10.169,10.169,0,0,1-5.71.275,7.518,7.518,0,0,1-4.9-3.83C33.7,114.129,45.908,97.912,46.453,97.179l.072-.1C57.189,81.609,66.864,73.866,73.43,70.028V82.771A47.542,47.542,0,0,0,66.1,87.114Zm9.656,130.621V198.677a7.216,7.216,0,0,1,7.208-7.208H94.55a7.216,7.216,0,0,1,7.209,7.208v19.058a7.216,7.216,0,0,1-7.209,7.208H82.963A7.216,7.216,0,0,1,75.755,217.735Zm23.516,61.33a18.154,18.154,0,0,1-4.853,12.479,46.943,46.943,0,0,1-5.661,5.115,46.949,46.949,0,0,1-5.662-5.115,18.158,18.158,0,0,1-4.853-12.479V268.514a20.29,20.29,0,0,1,1.708-8.266c1.965-4.437,4.382-12.938,5.07-28.452h7.474c.687,15.515,3.105,24.016,5.069,28.452a20.274,20.274,0,0,1,1.708,8.266Zm35.584,13.5A67.8,67.8,0,0,1,106.131,269.7l-.006-.007v-1.18a27.087,27.087,0,0,0-2.3-11.04c-1.435-3.239-3.867-10.939-4.51-26.528a14.074,14.074,0,0,0,9.292-13.211v-2.52C119.665,230.1,135.59,257.725,134.855,292.56Zm28.793-58.2V227.6a22.334,22.334,0,0,0-2.363-9.973l-2.313-4.607a3.426,3.426,0,0,0-6.124,3.075l2.312,4.607a15.442,15.442,0,0,1,1.635,6.9v6.023a277.655,277.655,0,0,1-17.722,31.632,135.463,135.463,0,0,0-13.112-35.412,475.492,475.492,0,0,0,22.306-51.129c17.016,19.328,38.869,33.934,53.216,42.335-.672.9-1.3,1.729-1.848,2.455a11.772,11.772,0,0,0-1.9,10.583A258.013,258.013,0,0,1,164.6,270.246ZM160.074,307.8c1.318-.76,3.288-1.932,5.795-3.524.056,0,.108.016.164.016h41.729v16.755H160.416Zm130.308,11.664-.369,1.583H259.7V308.8a3.408,3.408,0,0,0,.473-1.139,85.92,85.92,0,0,1,7-20.826c7.132,1.294,12.677,6.416,14.869,8.727l-2.006,9.563a3.426,3.426,0,0,0,2.123,3.9l3.387,1.3A7.9,7.9,0,0,1,290.382,319.466Zm25.781-58.086-30.249,28.343c-3.056-2.987-8.716-7.565-16.06-9.322,13.534-36.508,42.425-44.883,51.342-46.627a39.7,39.7,0,0,1,2.017,11.269A21.83,21.83,0,0,1,316.163,261.38Z"/><path d="M88.757,52.908a3.427,3.427,0,0,0,3.427-3.427V45.736H106.54a3.427,3.427,0,0,0,2.855-5.322L91.612,13.629a3.427,3.427,0,0,0-5.71,0L68.118,40.414a3.427,3.427,0,0,0,2.855,5.322H85.33v3.745A3.427,3.427,0,0,0,88.757,52.908Zm0-31.188,11.395,17.162H77.361Z"/><path d="M219.193,91.634a25.7,25.7,0,0,1,2.719.984,3.427,3.427,0,1,0,2.794-6.258,32.78,32.78,0,0,0-3.495-1.275,3.426,3.426,0,1,0-2.018,6.549Z"/></svg>