<svg xmlns="http://www.w3.org/2000/svg"  viewBox="0 0 340 340" width="500px" height="500px"><path d="M317.377,139.474c-.4.015-9.577.5-14.047,13.1L261.6,186.82a3.55,3.55,0,0,0-.659,4.89,3.426,3.426,0,0,0,4.863.525l36.129-29.643c-.257,16.111-3,74.052-28.488,101.287a14.491,14.491,0,0,0-3.582-.484c-8.057-9.211-21.711-26.294-29.876-44.658-.011-.024-.027-.044-.038-.067q-.33-.741-.646-1.484c-8.46-19.889-4.864-40.369-2.742-48.792a11.977,11.977,0,0,0,6.28-14.608A50.775,50.775,0,0,0,228.5,132a14.957,14.957,0,0,0-19.571-.468c-1.605,1.315-3.188,2.727-4.732,4.221l-5.411-5.41a12.435,12.435,0,0,0-17.206-.359l-.551.506-2.62-24.54a3.046,3.046,0,0,1,1.412-2.917c4.583-2.833,16.1-11.922,19.125-21.921A49.14,49.14,0,0,0,200.9,62.932c10.026-7.929,11.63-18.281,4.47-29.306-3.332-5.131-7.267-7.663-11.119-8.721,2.328-2.567,6.1-4.9,12.145-4.9.1,0,.209-.006.305-.014a21.382,21.382,0,0,1,14.851,5.3c5.441,5,8.2,13.241,8.2,24.489V86.1c-.024,1.112-.065,12.627,8.206,18.8a13.956,13.956,0,0,1-4.832,3.187,18.533,18.533,0,0,1-15.463-.943,31.746,31.746,0,0,1-12.433-11.564,3.542,3.542,0,0,0-4.619-1.324,3.426,3.426,0,0,0-1.274,4.825,39.046,39.046,0,0,0,15.2,14.159,26.414,26.414,0,0,0,12.05,2.965,24.125,24.125,0,0,0,9.134-1.773c7.724-3.155,10.081-8.771,10.324-9.4a3.426,3.426,0,0,0-1.823-4.374c-7.8-3.412-7.617-14.307-7.615-14.4,0-.036,0-.072,0-.109V49.783c0-13.307-3.536-23.273-10.511-29.622a28.055,28.055,0,0,0-19.832-7.008c-11.933.051-17.657,6.973-20.092,11.377a26.187,26.187,0,0,0-6.2,1.8,49.542,49.542,0,0,0-8.425-4.757c-1.832-.808-3.758-1.547-5.724-2.2a43.126,43.126,0,0,0-26.06-.6,28.113,28.113,0,0,0-13.989,10.33c-5.3,1.559-21.637,8.411-21.069,33.516.218,9.629,3.677,17.589,10.266,23.688.036,2.538.2,4.895.42,6.958l-5.282-4.894a8.017,8.017,0,0,0-10.959.059l-1.4,1.329-8.6-8.227.46-9.9a13.492,13.492,0,0,0-3.093-9.24L76.459,50.28a3.524,3.524,0,0,0-2.4-1.31,3.436,3.436,0,0,0-3.668,2.772L67.844,65l-7.831,1.356-4.986-6.01a3.521,3.521,0,0,0-2.4-1.309,3.434,3.434,0,0,0-3.666,2.771L46,77.242l-15.607,2.7a3.519,3.519,0,0,0-2.341,1.446,3.436,3.436,0,0,0,.622,4.572L42.363,97.458a14.89,14.89,0,0,0,9.572,3.485l.278,0,12.238-.227,10.674,11.015a8.021,8.021,0,0,0-.888,4.879,8.3,8.3,0,0,0,2.517,4.826l24.557,23.919a3.426,3.426,0,0,0,4.7.075,3.554,3.554,0,0,0-.057-5.116L81.372,116.365a1.164,1.164,0,0,1,.011-1.679L103.86,93.415a1.165,1.165,0,0,1,1.59-.008l12.134,11.24a48.414,48.414,0,0,0,20.038,26.5,14.826,14.826,0,0,0,8.048,2.378c.067,0,.135-.008.2-.009l.758,7.153a45.405,45.405,0,0,1-9.255-2.262l-1.826-1.346a12.086,12.086,0,0,0-14.835.391A38.423,38.423,0,0,0,110.237,150.6a25.932,25.932,0,0,0-8,3.7,11.363,11.363,0,0,0-4.755,7.889,11.545,11.545,0,0,0,2.686,8.963q.666.774,1.448,1.646c-6.59,5.287-16.75,13.367-24.753,19.421l-.006,0q-2.686,2.031-4.788,3.563a223.111,223.111,0,0,1-9.27-21.239V153.795a11.86,11.86,0,0,0-3.315-8.189,65.915,65.915,0,0,0-.368-22.675,10.113,10.113,0,0,0-4.92-7.092,9.043,9.043,0,0,0-11.4,2.174,9.183,9.183,0,0,0-1.993,6.977c.245,1.89.384,3.861.451,5.819a29.2,29.2,0,0,0-9.3-5.4,9.078,9.078,0,0,0-10.391,3.267,8.83,8.83,0,0,0,.927,11.332,7.981,7.981,0,0,0,1.959,1.415,21.2,21.2,0,0,1,5.667,4.548,21.428,21.428,0,0,0-7.273,2.461,12.448,12.448,0,0,0-6.217,10.447,34.538,34.538,0,0,0,.523,7.288A9.25,9.25,0,0,0,23.87,173.5a11.212,11.212,0,0,0,3.225.253c.668,4.722,3.114,10.753,9.306,14.006,1.209,7.384,6.071,35.214,13.52,54.123a3.428,3.428,0,0,0,1.848,1.9,6.656,6.656,0,0,0,2.649.013,281.007,281.007,0,0,0,39.673-20.916l.014-.007c3.351-2.148,6.552-4.33,9.515-6.487a3.471,3.471,0,0,0,1.172-4.214,3.429,3.429,0,0,0-5.147-1.368c-1.692,1.231-3.474,2.473-5.312,3.713a58.236,58.236,0,0,0-10.406-19.062c7.7-5.906,16.606-13,22.45-17.688,2.06,2.033,4.454,4.262,7.223,6.648-2.008,5.245-4.061,13.424-3.774,24.612a28.914,28.914,0,0,0,22.131,27.421,90.618,90.618,0,0,1,5.563,24.549,12.349,12.349,0,0,1-1.879,7.6c-3.238,5.156-9.8,18.249-11.953,31.516a3.421,3.421,0,0,0-.534,3.088,26.83,26.83,0,0,0-8.416,6.177c-.64.7-1.281,1.44-1.907,2.2a3.478,3.478,0,0,0-.812,1.886,3.438,3.438,0,0,0,2.448,3.631,282.512,282.512,0,0,0,52.614,9.02c6,.468,12.545.773,19.436.773,24.6,0,53.528-3.887,76.986-18.1a13.832,13.832,0,0,1,3.957-1.676,14.275,14.275,0,0,0,8.367-2.708,70.49,70.49,0,0,0,11.734-10.957,14.486,14.486,0,0,0,3.113-13.133c16.193-19.471,40.613-62.507,30.223-137.878A3.433,3.433,0,0,0,317.377,139.474ZM88.59,98.43,81.113,91.1a3.427,3.427,0,0,0-4.8,4.893l7.3,7.154-3.787,3.584L69.368,95.94l.457-9.84a13.511,13.511,0,0,0,3.589.49l.252,0,10.637-.2,8.458,8.092ZM71.348,71.351a3.426,3.426,0,0,0,2.78-2.73l1.624-8.459,5.488,6.614a6.624,6.624,0,0,1,1.522,4.545l-.384,8.251-8.84.163a6.563,6.563,0,0,1-4.389-1.552l-.431-.362a14.915,14.915,0,0,0-2.226-3.653l-1.434-1.727ZM52.085,94.089a8.043,8.043,0,0,1-5.316-1.88l-8.044-6.752L49.5,83.59a3.424,3.424,0,0,0,2.779-2.73l1.3-6.8,9.275,7.786a8.034,8.034,0,0,1,.2,2.2L62.6,93.894Zm165.467,207.45a3.373,3.373,0,0,0-.023-.584c-1.06-7.5-4.346-18.9-13.985-30.6a16.649,16.649,0,0,1-3.98-11.393c.03-.581.085-1.174.162-1.761,1.84-13.932,4.888-22.184,6.542-25.863.012-.026.016-.054.027-.081a29.025,29.025,0,0,0,4.881-4.827,78.309,78.309,0,0,1,3.739,8.657l.008.026a106.469,106.469,0,0,1,3.627,12.041,3.464,3.464,0,0,0,.1.349c6.035,17.958,19.409,31.562,27.615,38.613a14.7,14.7,0,0,0,.494,4.263A119.336,119.336,0,0,1,217.552,301.539Zm35.014-48.677a33.462,33.462,0,0,0-20.3,7.1c-1.155-1.809-2.253-3.7-3.272-5.659a3.334,3.334,0,0,0,.28-.594c.039-.11,3.844-10.73,13.76-14.819C246.137,243.89,249.4,248.594,252.566,252.862Zm-27.154-6.8c-.068-.194-.148-.382-.214-.577a111.666,111.666,0,0,0-3.138-10.753,58.007,58.007,0,0,1,13.2-9.889c1.326,2.753,2.763,5.459,4.262,8.114A32.23,32.23,0,0,0,225.412,246.058Zm-6.036-18.274a67.146,67.146,0,0,0-4.147-8.156,29.005,29.005,0,0,0,2.306-10.6c.323-12.637-2.364-21.428-4.451-26.284a161.639,161.639,0,0,1,15.585-10.263c-1.952,10.694-3.283,28.447,3.792,46.081A68.561,68.561,0,0,0,219.376,227.784Zm29.407,50.548h0c-.124.182-.231.371-.346.557a100.6,100.6,0,0,1-12.246-13.3c3.17-2.515,11.492-7.878,22.1-5.087.073.02.146.021.219.035,1.4,1.73,2.737,3.347,3.985,4.815A40.607,40.607,0,0,0,248.783,278.332ZM156.824,152.743l-2.194-1.617-2.042-19.275a66.411,66.411,0,0,0,20.219-13.781l1.942,18.194Zm42.8-115.384c4.488,6.91,4.523,12.471-.049,17.519A49.67,49.67,0,0,0,186.159,31.47C190.391,30.539,195.6,31.172,199.621,37.359ZM111.555,62.472c-.535-23.683,16.25-26.878,16.944-27a3.43,3.43,0,0,0,2.445-1.709c1.922-3.434,6.762-7.211,10.789-8.42a36.307,36.307,0,0,1,21.935.539c1.759.582,3.479,1.243,5.112,1.962a42.633,42.633,0,0,1,23.6,51.286,26.728,26.728,0,0,1-5.851,10.69,19.821,19.821,0,0,0-2.623-9.442,11.4,11.4,0,0,0-9.189-5.447,12.137,12.137,0,0,0-10.232,4.614,16.789,16.789,0,0,0-2.4,4.237c-26.611-4.723-30.22-25.864-30.368-26.819a3.427,3.427,0,0,0-5.674-2.042c-6.438,5.761-9.34,13.787-10.467,21.55A26.578,26.578,0,0,1,111.555,62.472Zm11.809,37.29c-.059-.244-5.115-22,3.52-35.347,3.535,8.73,13.034,23.578,37.227,26.6a3.449,3.449,0,0,0,3.813-2.89,10.622,10.622,0,0,1,1.95-4.346,5.268,5.268,0,0,1,4.452-2.007,4.6,4.6,0,0,1,3.744,2.2,14.489,14.489,0,0,1,1.651,7.567c.012.537-.02,4.836-4.017,5.965a6.4,6.4,0,0,0-2.934,1.8h0a6.494,6.494,0,0,0-1.748,4.433v2.7a8.874,8.874,0,0,1-2.512,6.239,59.378,59.378,0,0,1-19.9,13.426,7.912,7.912,0,0,1-7.269-.706A41.511,41.511,0,0,1,123.364,99.762ZM41.128,162.3v-.025a16.487,16.487,0,0,0,2.235.159q.7,0,1.444-.053a3.427,3.427,0,1,0-.488-6.836c-2.329.168-3.98-.25-4.911-1.238a5.218,5.218,0,0,1-1.175-3.03c4.812-2.209,9.363-3.021,13.548-2.394a4.968,4.968,0,0,1,4.167,4.916V174.1a19.224,19.224,0,0,1-15.7,7.921c-4.718-2.086-6.025-6.561-6.373-9.359A10.925,10.925,0,0,0,41.128,162.3Zm2.38,26.373a26.047,26.047,0,0,0,14.76-6.837c1.344,3.346,2.71,6.488,3.975,9.266a3.254,3.254,0,0,0-.18.28c-.05.1-4.938,9.471-15.77,11.907C45.02,197.18,44.076,191.969,43.508,188.669ZM48.1,122.358a2.2,2.2,0,0,1,1.569-.808,2.465,2.465,0,0,1,2.592,1.99,60.992,60.992,0,0,1,.811,18.616c-.093-.016-.182-.04-.276-.054a26.123,26.123,0,0,0-4.927-.246,94.743,94.743,0,0,0-.265-17.747A2.27,2.27,0,0,1,48.1,122.358ZM27.733,135.409a1.82,1.82,0,0,1-.9-1.2,1.9,1.9,0,0,1,.309-1.546,2.194,2.194,0,0,1,2.513-.8,21.57,21.57,0,0,1,11.4,9.252c-.044.661-.091,1.289-.139,1.876a36.481,36.481,0,0,0-3.483,1.19A28.678,28.678,0,0,0,27.733,135.409Zm-1.253,31.5a2.563,2.563,0,0,1-2.61-2.085,27.847,27.847,0,0,1-.395-5.763,5.56,5.56,0,0,1,2.757-4.677,14.78,14.78,0,0,1,5.269-1.7,11.67,11.67,0,0,0,2.773,6.149c0,.063-.018.122-.017.185l.018,3.312a4.094,4.094,0,0,1-3.389,4.063l-1.132.2h0A20.9,20.9,0,0,1,26.48,166.913Zm21.27,43.068A31.389,31.389,0,0,0,65.666,198.3c.863,1.741,1.518,3.006,1.867,3.67-.038,3.57-.834,22.387-13.049,32.454A243.258,243.258,0,0,1,47.75,209.981ZM66.8,230.456c6.7-10.961,7.513-23.712,7.586-27.895,1.188-.845,2.54-1.83,4.079-2.975A50.839,50.839,0,0,1,88.342,218.4C80.662,223.206,73.063,227.3,66.8,230.456Zm38.571-63.773a4.679,4.679,0,0,1-1.085-3.634,4.439,4.439,0,0,1,1.873-3.129,18.977,18.977,0,0,1,5.153-2.5A114.189,114.189,0,0,0,135.6,179.881a3.427,3.427,0,0,0,3.874-5.653,108.584,108.584,0,0,1-22.83-21.119,31.807,31.807,0,0,1,8.409-10.354,5.236,5.236,0,0,1,6.428-.178l20.2,14.892-1.181,1.086a5.3,5.3,0,0,1-6.174.73l-2.47-1.376a3.426,3.426,0,1,0-3.334,5.987l2.47,1.376a12.139,12.139,0,0,0,14.146-1.672l4.242-3.9,26.831-24.667a5.568,5.568,0,0,1,7.723.161l5.576,5.574-33.472,38.164a3.427,3.427,0,0,0,5.153,4.518l35.528-40.508a72.059,72.059,0,0,1,6.547-6.106,8.14,8.14,0,0,1,10.651.27,43.9,43.9,0,0,1,12.412,18.834,5.14,5.14,0,0,1-2.767,6.3c-5.96,2.718-15.876,8.145-29.275,18.569a278.876,278.876,0,0,1-37.372,24.309,10.517,10.517,0,0,1-9.917.058C127.5,189.633,111.989,174.387,105.369,166.683Zm11.308,42.165a59.451,59.451,0,0,1,2.554-19.8,224.15,224.15,0,0,0,34.577,22.184,17.358,17.358,0,0,0,16.367-.091,287.16,287.16,0,0,0,37.253-24.11c1.686,4.457,3.515,11.7,3.256,21.815-.279,10.893-8.454,20.052-18.937,21.3-.545.045-3.216.176-4.186.1a78.655,78.655,0,0,1-15.158-2.57,31.673,31.673,0,0,0-17.445,0,78.658,78.658,0,0,1-15.16,2.57c-.968.072-3.64-.059-4.1-.1A21.934,21.934,0,0,1,116.677,208.848Zm24.767,63.395a19.243,19.243,0,0,0,2.9-11.855,99.2,99.2,0,0,0-4.856-23.271c.292,0,.57-.014.808-.032a85.785,85.785,0,0,0,16.545-2.816,24.823,24.823,0,0,1,13.673,0,85.765,85.765,0,0,0,16.544,2.816,47.934,47.934,0,0,0,5.414-.126,27.511,27.511,0,0,0,4.78-1.008,121.259,121.259,0,0,0-4.323,20.352c-.1.765-.172,1.54-.212,2.3a23.473,23.473,0,0,0,5.535,16.108c8.625,10.466,12.228,24.934,12.827,28.258-18.06,3.554-41.625,4.586-70.195-1.731a27.72,27.72,0,0,0-7.166-.63L168.1,272.4a3.427,3.427,0,1,0-4.347-5.3l-31.333,25.71A91.894,91.894,0,0,1,141.444,272.243ZM121.96,311.965a20.675,20.675,0,0,1,17.447-4.035c57.35,12.68,95.67-3.245,110.656-11.549.044.048.082.1.127.146a69.868,69.868,0,0,0,8.143,7.346C211.636,330.884,141.988,316.843,121.96,311.965Zm160.43-23.021a63.7,63.7,0,0,1-10.57,9.9,7.675,7.675,0,0,1-9.025-.174,62.741,62.741,0,0,1-7.642-6.864,7.69,7.69,0,0,1-.714-9.6h0c2.4-3.506,6.4-8.28,11.817-11.115a7.652,7.652,0,0,1,8.379.923c2.695,2.193,5.15,4.347,7.3,6.4A7.628,7.628,0,0,1,282.39,288.944Zm4.678-15.066c-.135-.14-.259-.287-.4-.422-2.1-2-4.465-4.088-7.036-6.205,27.361-31,29.107-94.044,29.173-106.7a16.479,16.479,0,0,1,.717-4.9c1.423-4.463,3.464-6.8,5.142-8.011C322.92,215.251,302.139,254.807,287.068,273.878Z"/><path d="M246.179,203.9a3.429,3.429,0,0,0,4.823.475l1.36-1.117a3.426,3.426,0,1,0-4.348-5.3l-1.36,1.116A3.428,3.428,0,0,0,246.179,203.9Z"/><path d="M131.458,89.52a8.033,8.033,0,0,1-1.893-.465,3.427,3.427,0,0,0-2.531,6.369,14.9,14.9,0,0,0,3.852.925c.1.008.194.012.29.012a3.426,3.426,0,0,0,.282-6.841Z"/><path d="M149.154,91a3.436,3.436,0,0,0-4.44-1.932,7.968,7.968,0,0,1-1.894.465,3.426,3.426,0,0,0,.281,6.841q.144,0,.288-.012a14.883,14.883,0,0,0,3.854-.924A3.422,3.422,0,0,0,149.154,91Z"/><path d="M153.167,182.834c-.17-.056-.341-.114-.512-.178l-.643-.246a3.427,3.427,0,0,0-2.473,6.392l.711.271q.4.148.8.279a3.426,3.426,0,1,0,2.116-6.518Z"/></svg>