<svg xmlns="http://www.w3.org/2000/svg"  viewBox="0 0 340 340" width="500px" height="500px"><path d="M325.5,193.375c-3.741-22.3-13.553-37.076-14.523-38.494-28.13-46.052-11.869-74.119-11.171-75.279A3.427,3.427,0,0,0,295,74.95c-36.047,23.817-22.689,66.765-15.273,84.124a87.927,87.927,0,0,1,6.5,23.05c1.464,11.217,1.706,20.945-1.875,31.968a61.851,61.851,0,0,1-7.323,15.4,246.139,246.139,0,0,0-7.232-47.521,3.427,3.427,0,0,0-5.55-1.694c-1.19,1.031-2.348,2.087-3.489,3.152-3.587-9.392-9.642-23.521-17.731-36.245a23.409,23.409,0,0,0,10.958-14.03,151.23,151.23,0,0,0,4.545-25.058,3.428,3.428,0,0,0-5.29-3.212c-.221.144-21.894,14.058-51.584,10.938-4.764-10.768-11.933-30.459-12.536-52.447a30.363,30.363,0,0,0,4.121-5.3c.3-.491.586-1.009.877-1.518.056-.089.11-.178.157-.271a73.858,73.858,0,0,0,4.356-9.156,40.607,40.607,0,0,0,2.832-13.7c.29-9.106-.618-20.752-.657-21.244a3.426,3.426,0,0,0-6.514-1.193c-3.588,7.6-10.337,15.859-14.041,20.108a23.956,23.956,0,0,1-4.8,4.416c-17.429,11.442-26.237,21.884-27.5,23.436-6.285,6.175-18.521,17.361-30.829,23.934a3.427,3.427,0,0,0-1.783,2.573l-2.44,18.428-4.943,5.1a3.426,3.426,0,0,0,1.384,5.637,61.119,61.119,0,0,0,17.7,2.539,53.058,53.058,0,0,0,18.761-3.273c-.143,1.981-.359,4.438-.687,7.279-8.111,1.373-28.363,3.9-48.788-.591a3.426,3.426,0,0,0-4.136,3.756,68.487,68.487,0,0,0,6.583,21.235,24.524,24.524,0,0,0,14.3,11.846,3.446,3.446,0,0,0,.522.124l3.763.584a150.683,150.683,0,0,0-15.69,53.819c-7.865.529-30.2,1.919-46.854,1.879a13.824,13.824,0,0,0-7.859-9.739V133.238a142.687,142.687,0,0,0,15.636,16.549,21.085,21.085,0,0,1,6.023,9.47,108.172,108.172,0,0,1,3.87,19.725,24.453,24.453,0,0,0,2.083,7.745c-5.92-3.437-12.7-10.379-15.62-24.4a73.717,73.717,0,0,0-2.264-8.471,3.426,3.426,0,1,0-6.5,2.183,66.5,66.5,0,0,1,2.05,7.686c6.793,32.579,32.5,33.217,32.76,33.22h.035a3.427,3.427,0,0,0,1.784-6.353,15.665,15.665,0,0,1-5.459-5.646,16.892,16.892,0,0,1-2.058-6.691,115.061,115.061,0,0,0-4.127-20.988,27.933,27.933,0,0,0-7.973-12.554c-8.1-7.359-20.169-22.89-20.244-22.98V105.745c0-24.942,9.755-39.322,9.848-39.456a3.427,3.427,0,0,0,.525-2.769c-7.505-31.148-18.634-50.2-19.1-51a3.428,3.428,0,0,0-5.9,0c-.47.8-11.6,19.848-19.1,51a3.452,3.452,0,0,0,.519,2.761c.1.142,9.855,14.522,9.855,39.464v99.813a13.756,13.756,0,0,0-5.624,11.081v21.016a13.756,13.756,0,0,0,5.624,11.081v78.821a3.427,3.427,0,0,0,6.853,0V251.368c.429.041.863.066,1.3.066h8.353v76.123a3.427,3.427,0,0,0,6.854,0V250.22a13.789,13.789,0,0,0,3.62-2.379c11.179,2.651,36.673,8.2,60.834,9.934.084.006.166.009.249.009a3.427,3.427,0,0,0,.242-6.845c-22.124-1.588-45.467-6.459-57.406-9.219a13.728,13.728,0,0,0,.614-4.065v-16.99l.294,0c17.457,0,40.645-1.483,47.6-1.956A65.734,65.734,0,0,0,121.13,236.9l0,.013a17.87,17.87,0,0,0,2.865,12.386c-6.924,9.813-12.151,23.934-14.706,31.692a21.228,21.228,0,0,0,.6,14.924,219.55,219.55,0,0,0-4.187,31.454,3.426,3.426,0,0,0,3.231,3.612c.064,0,.129,0,.193,0a3.426,3.426,0,0,0,3.418-3.236,206.785,206.785,0,0,1,2.717-23.365,54.257,54.257,0,0,0,13.425,12.182,3.43,3.43,0,0,0,3.049.216,63.668,63.668,0,0,0,12.083-6.575v17.352a3.427,3.427,0,0,0,6.854,0V278.266c9.1,9.024,16.124,15.4,16.255,15.523a3.429,3.429,0,0,0,4.546.05c6.483-5.621,12.547-11.414,17.981-16.917v50.635a3.427,3.427,0,0,0,6.853,0V307.514a80.813,80.813,0,0,0,15.706,9.216,3.43,3.43,0,0,0,2.99-.07c.322-.165,7.085-3.734,13.155-13.119a109.283,109.283,0,0,1,1.978,23.85,3.427,3.427,0,0,0,3.257,3.588c.056,0,.112,0,.168,0a3.426,3.426,0,0,0,3.42-3.261c.575-11.893-1.69-24.609-3.692-33.181a3.392,3.392,0,0,0-.525-1.167,25.337,25.337,0,0,0-.743-13.647,227.154,227.154,0,0,0-9.653-23.818,90.584,90.584,0,0,0,12.724.933,72.291,72.291,0,0,0,12.527-1.05,116.7,116.7,0,0,1,4.1,16.118,130.272,130.272,0,0,1,.615,18.433,17.957,17.957,0,0,0,3.816,11.757,77.845,77.845,0,0,1-8.166,2.108,3.426,3.426,0,1,0,1.338,6.721,84.07,84.07,0,0,0,13.066-3.723c.227.112.45.231.683.335a50.2,50.2,0,0,0,17.837,4.051c.06,0,.118,0,.177,0a3.428,3.428,0,0,0,3.324-2.6,66.333,66.333,0,0,0,1.465-15.288A101.375,101.375,0,0,0,299.9,279.837C327.508,246.808,329.06,214.588,325.5,193.375ZM40.086,118.391H30.43v-9.22h9.656Zm-9.656,6.854h9.656v8.44H30.43ZM20.209,63.719A214.081,214.081,0,0,1,35.26,21.64,213.66,213.66,0,0,1,50.307,63.719c-2.5,4.154-9.465,17.554-10.164,38.6h-9.77C29.675,81.273,22.705,67.873,20.209,63.719ZM30.43,140.538h9.656v62.321H31.733c-.44,0-.874.026-1.3.066Zm-5.624,97.117V216.639a6.934,6.934,0,0,1,6.927-6.926h9.58a6.934,6.934,0,0,1,6.927,6.926v21.016a6.934,6.934,0,0,1-6.927,6.926h-9.58A6.934,6.934,0,0,1,24.806,237.655Zm239.7-48.367c2.6,11.593,7.864,39.453,5.073,64.638a32.67,32.67,0,0,0-12.768,8.944c-2.243-9.047-7.006-24.06-16-36.386a7.191,7.191,0,0,1-.248-8.3h0A175.209,175.209,0,0,1,264.505,189.288Zm-13.6-75.331a135.971,135.971,0,0,1-3.532,17.352,16.544,16.544,0,0,1-8.353,10.246L211.354,153.6a3.427,3.427,0,0,0-1.406,1.13l-5.028,6.935c-1.557-16.546-2-31.937-2.121-38.846A93.469,93.469,0,0,0,250.908,113.957ZM197.7,227.192v5.051l-28.823,27.926-29.952-30.748a183.1,183.1,0,0,1,.889-32.554,114.314,114.314,0,0,0,23.8,17.378,3.428,3.428,0,0,0,2.717.17c17.518-6.316,31.012-18.355,34.73-21.894a17.578,17.578,0,0,0,5.436-14.227l-.523-6.4,8.162-11.256v21.731a29.611,29.611,0,0,1-4.89,16.327l-5.525,8.4A36.462,36.462,0,0,0,197.7,227.192Zm1.34-55.956.621,7.616a10.752,10.752,0,0,1-3.33,8.7c-3.371,3.209-15.333,13.892-30.9,19.878a115.1,115.1,0,0,1-25.723-20.34,6.67,6.67,0,0,1-1.6-6.186c.566-2.325,1.284-5.234,2.109-8.5a3.431,3.431,0,0,0,.348-1.37c1.656-6.506,3.695-14.222,5.806-21.517a3.387,3.387,0,0,0,.418-.706l14.287,12.99a106.631,106.631,0,0,0-1.467,34.087,3.428,3.428,0,0,0,3.4,3.038,3.493,3.493,0,0,0,.393-.023,3.427,3.427,0,0,0,3.015-3.793,100.424,100.424,0,0,1,1.461-32.3,127.619,127.619,0,0,0,28.542-24.98C196.855,147.318,197.632,159.3,199.04,171.236Zm-26.81-40.862c-10.539,4.88-18.9,1.408-21.477.065.444-2.757.8-5.328,1.079-7.67a28.53,28.53,0,0,0,5.757.583,24.7,24.7,0,0,0,13.976-4.087Zm-6.967,25.974-16.578-15.072q.436-1.974.815-3.877a30.624,30.624,0,0,0,11.78,2.353,32.073,32.073,0,0,0,11.383-2.136l.769,12.836C170.012,153.126,167.1,155.139,165.263,156.348Zm4.991-58.969.789,13.172c-6.151,7.414-15.167,6.136-18.518,5.331.183-2.271.282-4.091.334-5.356A85.47,85.47,0,0,0,170.254,97.379ZM194.561,23.91c.1,3.059.138,6.341.045,9.29-.027.832-.09,1.658-.176,2.481-4.9,2.013-8,1.4-9.654.621.21-.232.42-.465.634-.711A137.072,137.072,0,0,0,194.561,23.91ZM179.2,41.233c.1-.063.19-.132.285-.2a14.269,14.269,0,0,0,8.883,2.875,19.852,19.852,0,0,0,4.325-.505c-.141.4-.286.8-.442,1.191a68.647,68.647,0,0,1-3.335,7.2c-10.182,2.451-16.675-1.464-19.371-3.672C172.39,45.921,175.6,43.6,179.2,41.233Zm-15.035,11.28a27.018,27.018,0,0,0,18.406,6.933c.256,0,.518-.007.779-.014a22.131,22.131,0,0,1-22.2,5.108,17.338,17.338,0,0,1-6.184-3.224A108.8,108.8,0,0,1,164.166,52.513ZM117.084,109.4l1.516-1.567a3.427,3.427,0,0,0,.936-1.934l2.36-17.829c10.624-5.969,20.839-14.674,28.331-21.806a23.626,23.626,0,0,0,8.689,4.757,27.446,27.446,0,0,0,8.965,1.5,29.333,29.333,0,0,0,14.624-3.979c1.521,21.906,8.782,41.02,13.4,51.225.01,1.183.042,3.734.135,7.268a3.471,3.471,0,0,0-.334.4,98.621,98.621,0,0,1-15.735,17.559l-1.988-33.2a3.41,3.41,0,0,0-.047-.782l-1.261-21.071,1.529-2.088a3.426,3.426,0,0,0-5.528-4.05l-2.226,3.04c-8.859,11.566-22.368,18.5-22.5,18.567-.014.007-.027.017-.041.024s-.018.007-.027.012C136.6,111.45,124.105,110.608,117.084,109.4ZM104.818,142.35a57.849,57.849,0,0,1-4.97-14.115c18.2,3.094,35.5,1.354,44.3.018-.629,4.073-1.465,8.591-2.571,13.375-1.834,5.977-3.673,12.584-5.328,18.812l-2.266-5.087a3.422,3.422,0,0,0-2.6-1.992L114.91,150.8A17.686,17.686,0,0,1,104.818,142.35Zm3.49,71.963a142.883,142.883,0,0,1,16.2-55.084l3.969.617,5.008,11.245c-.793,3.136-1.485,5.942-2.034,8.195a13.507,13.507,0,0,0,2.343,11.4,171.8,171.8,0,0,0-2.018,31.405l-2.642-2.712a3.427,3.427,0,0,0-5.848,1.921l-1.1,7.974A60.933,60.933,0,0,1,108.308,214.313Zm22.469,95.42a49.945,49.945,0,0,1-13.729-14.8,14.35,14.35,0,0,1-1.252-11.8c2.3-6.978,6.844-19.334,12.733-28.32,4.9,5.658,10.223,11.34,15.3,16.55,0,.023-.007.044-.007.067v30.15A54.653,54.653,0,0,1,130.777,309.733Zm38.51-23.09c-6.417-5.957-25.242-23.783-38.944-40.28a10.991,10.991,0,0,1-2.427-8.513l1.2-8.676,36.013,36.969a72.406,72.406,0,0,0-.8,9.878A3.429,3.429,0,0,0,167.7,279.5h.051a3.428,3.428,0,0,0,3.426-3.377,64.774,64.774,0,0,1,.8-9.416l38.029-36.848v9.834a10.972,10.972,0,0,1-2.46,6.92A364.474,364.474,0,0,1,169.287,286.643Zm55.2,9.622A37.793,37.793,0,0,1,213.2,309.716c-8.624-4.134-13.852-8.245-16.886-11.234V269.8c7.341-7.834,12.983-14.5,16.155-18.37a214.928,214.928,0,0,1,13.071,30.509A18.3,18.3,0,0,1,224.483,296.265Zm-5.907-47.942q-1.1-2.088-2.279-4.193a17.786,17.786,0,0,0,.567-4.44V221.765a3.426,3.426,0,0,0-5.811-2.461l-6.44,6.241a29.6,29.6,0,0,1,4.828-14.68l5.525-8.4a36.449,36.449,0,0,0,6.018-20.094V156.886l15.72-6.846c8.91,13.78,15.363,29.561,18.7,38.646a183.7,183.7,0,0,0-16.64,20.06,131.351,131.351,0,0,0-9.959-11.273,3.427,3.427,0,0,0-4.884,4.808,119.986,119.986,0,0,1,10.753,12.4,14.165,14.165,0,0,0,.6,15.84,84.537,84.537,0,0,1,9.99,18.7A79.07,79.07,0,0,1,218.576,248.323Zm59.694,56.186a41.789,41.789,0,0,1-12.421-3.234,11.233,11.233,0,0,1-6.667-10.641,136.712,136.712,0,0,0-.475-17.758l12.945-10.97A75.582,75.582,0,0,1,278.27,304.509Zm16.373-29.067a97.328,97.328,0,0,1-9.286,9.69,80.876,80.876,0,0,0-9.107-29.289,143.2,143.2,0,0,0,.984-15.612c5.9-6.288,10.491-14.364,13.628-24.022,4.212-12.965,3.523-24.47,2.152-34.972a94.755,94.755,0,0,0-6.989-24.855c-5.943-13.912-16.173-45.847,3.248-67.583-3.088,13.756-3.517,37.979,15.9,69.735.034.056.071.114.109.167a97.388,97.388,0,0,1,13.5,36.093C323.516,223.484,315.393,250.617,294.643,275.442Z"/><path d="M150.179,81.705a3.427,3.427,0,0,0-3.648-5.8l-2.21,1.39a3.427,3.427,0,1,0,3.649,5.8Z"/></svg>