<svg xmlns="http://www.w3.org/2000/svg"  viewBox="0 0 340 340" width="500px" height="500px"><path d="M52.083,155.759q1.905.117,3.735.116c13.6,0,24.079-4.625,29.174-8.879,21.227-17.723,40.248-25.036,54.473-27.8a15.3,15.3,0,0,0-3.706,6.4c-.374,1.307-.782,2.771-1.214,4.38a3.488,3.488,0,0,0-.106.656c-13.056,10.108-40.131,33.121-57.018,61.716a64.564,64.564,0,0,0-8.6-.789H68.8a3.425,3.425,0,0,0-3.422,3.27c-1.788,39.107,15.47,66.307,18.955,71.376H68.738a14.737,14.737,0,0,0-14.646,12.613,31.282,31.282,0,0,0,.427,10.73,3.428,3.428,0,0,0,3.325,2.6h18.95a10.468,10.468,0,0,0,1.492,8.231,29.954,29.954,0,0,0,13.22,10.279,15.919,15.919,0,0,0,17.076-3.237,53.892,53.892,0,0,0,4.828-5.289,31.36,31.36,0,0,0,5.258-9.984h9.9v3.146a8.317,8.317,0,0,0,5.033,7.631c-3.079,5.955-6.632,13.424-10.362,22.438a3.427,3.427,0,1,0,6.333,2.621c8.016-19.371,15.281-31.539,18.381-36.368a87.182,87.182,0,0,0,36.869,7.828,114.25,114.25,0,0,0,39.823-7.48,280.073,280.073,0,0,1,5.09,34.945,3.427,3.427,0,0,0,3.415,3.191c.079,0,.159,0,.239-.008a3.428,3.428,0,0,0,3.184-3.654,278.353,278.353,0,0,0-6.094-39.762l-2.01-20.275c20.256-.753,62.366-2.455,87.625-4.453a28.057,28.057,0,0,1-4.5,8.059,12.859,12.859,0,0,1-8.852,4.465c-10.769.883-38.528,3.085-63.648,4.462a3.427,3.427,0,0,0,.185,6.848c.063,0,.127,0,.19,0,25.2-1.382,53.036-3.589,63.833-4.474a19.755,19.755,0,0,0,13.568-6.922,37.453,37.453,0,0,0,7.272-15.667,3.427,3.427,0,0,0-3.679-4.009c-24.316,2.175-71.257,4.07-92.666,4.863l-1.97-19.868V226.4a191.31,191.31,0,0,0,32.562,16.117,63.824,63.824,0,0,0,4.052,10.041,3.427,3.427,0,0,0,4.97,1.278c1.391-.941,33.773-23.4,41.918-73.544a18.04,18.04,0,0,0,6.12-2.273c6.026-3.613,9.921-10.908,11.263-21.1a11.237,11.237,0,0,0-7.73-12.162V125.929a9.059,9.059,0,0,0-15.547-6.319,9.089,9.089,0,0,0-6.482-2.737h-.742a9.067,9.067,0,0,0-9.056,9.056v19.536a12.052,12.052,0,0,0-8.992,11.619,21.062,21.062,0,0,0,2.2,9.56c-3.695,7.089-10.849,19.533-20.178,29.649a20.939,20.939,0,0,0-2.7,3.683c-20.389-9.014-39.433-26.463-49.222-36.357-.218-.22-2.408-3.269-2.408-3.269l1.773-5.554c17.59-9.91,24.932-30.426,26.5-41.209a12.107,12.107,0,0,0-3.713-10.623,116.912,116.912,0,0,0,3.778-16.592,9.431,9.431,0,0,0,8.395-.14,9.2,9.2,0,0,0,4.928-6.962,106.633,106.633,0,0,0-.176-29.008,23.645,23.645,0,0,0-8.14-14.741C201.708,3.671,154.733,10.4,152.751,10.7a3.425,3.425,0,0,0-2.893,3.046c-.691,6.912,2.371,12.423,5.061,15.828A14.491,14.491,0,0,1,158,36.73l.435,3.477A16.142,16.142,0,0,0,163.7,50.25l2.267,2.024.5,17.881a8.713,8.713,0,0,0-2.3.771,8.584,8.584,0,0,0-4.779,7.309,29.05,29.05,0,0,0,.277,5.665,15.469,15.469,0,0,0-2.759,6.32c-7.879-1.171-21.521-2.2-44.289-1.469-.3.011-30.837,1.008-45.6-16.758C59.148,62.519,57.1,49.181,60.932,32.35a3.428,3.428,0,0,0-4.97-3.776c-.73.394-17.985,9.983-28.039,39.1a27.927,27.927,0,0,0,7.428,29.707c8.174,7.513,21.94,15.7,44.03,17.841-13.55,6.574-43.537,19.467-61.922,14.817A3.427,3.427,0,0,0,13.61,135C14.033,135.779,24.28,154.048,52.083,155.759Zm148.869-2.58-2.1,6.589a3.426,3.426,0,0,0,.349,2.844l12.017,19.438a51.9,51.9,0,0,1,7.758,27.3v27.672c-34.128,6.215-59.915-1.073-65.122-2.736L135.33,207.933c-.36-.512-.7-1.044-1-1.578a3.426,3.426,0,0,0-5.958,3.386c.41.722.864,1.439,1.35,2.131l18.439,26.239-1.634,16.574h-9.651a8.314,8.314,0,0,0-8.3,8.3V266.2h-8.928c-.1-.956-.208-1.9-.336-2.83.315-14.664-.489-29.983-1-37.838a28.289,28.289,0,0,0-4.209-13.1c6.057-6.147,16.764-16.3,28.52-24.139.336-.232,33.313-23.559,13.448-55.811a13.22,13.22,0,0,0-13.307-6.125,8.586,8.586,0,0,1,6.305-4.91l13.024-2.3a4.467,4.467,0,0,0,2.651-2.157l2.136-5.575ZM154.693,241.71c9.338,2.623,33.413,7.757,64.667,2.22l.627,6.335c-27.488,11.518-59.656,3-66.239,1.037Zm-51.937-72.229c1.53.528,16.574,6.036,25.544,20.844-3.724,2.979-7.2,6-10.3,8.834-4.983-11.609-15.315-20.341-20.121-23.95Q100.286,172.272,102.756,169.481Zm38.09-35.126a6.52,6.52,0,0,1,5.124-1.2,6.317,6.317,0,0,1,4.262,2.92c4.818,7.822,5.917,14.991,5.041,21.239-6.543-11.485-13.606-17.428-17.937-20.253C138.627,136.046,139.808,135.139,140.846,134.355Zm-9.2,7.3c2.943,1.557,12.65,7.736,20.635,24.783.03.064.068.12.1.182A42.561,42.561,0,0,1,145,177.1c-3.147-14.866-13.957-24.207-14.463-24.636a3.427,3.427,0,0,0-4.444,5.217c.116.1,11.548,10.058,12.795,24.834l0,.022-.125.088c-1.693,1.129-3.364,2.305-5.006,3.509A58.338,58.338,0,0,0,107.7,164.054,269.342,269.342,0,0,1,131.647,141.651ZM93.618,180.594c4.5,3.377,15.221,12.361,18.993,23.653-1.027,1-1.978,1.945-2.847,2.82-7.447-7.4-17.127-11.27-25.211-13.293C87.349,189.219,90.407,184.814,93.618,180.594Zm12.43,32.492a21.2,21.2,0,0,1,5.422,12.893c.432,6.646,1.076,18.709,1.055,31.1-6.141-3.064-15.03-4.231-24.12,2.759a117.437,117.437,0,0,1-16.289-61.226C79.2,199.262,95.885,201.956,106.048,213.086ZM60.884,279.732a7.859,7.859,0,0,1,7.854-6.676H85.457c.047.51.091,1.036.128,1.584a11.859,11.859,0,0,1-2.727,8.458l-1.834,2.189H60.783A24.979,24.979,0,0,1,60.884,279.732Zm52.52,2.59a25.534,25.534,0,0,1-5.361,15.542,47.119,47.119,0,0,1-4.214,4.613,9.055,9.055,0,0,1-9.72,1.834A23.106,23.106,0,0,1,83.874,296.4a3.8,3.8,0,0,1,.2-4.089l4.035-4.818a18.684,18.684,0,0,0,4.311-13.319,69.251,69.251,0,0,0-.994-7.976c9.96-8.6,18.483-3.152,21.218-.92A134.786,134.786,0,0,1,113.4,282.322Zm6.689,2.965c.094-.955.153-1.917.165-2.884.03-2.649.013-5.916-.133-9.347h8.447v12.231Zm16.783,11.451a1.453,1.453,0,0,1-1.451-1.451v-32.3a1.453,1.453,0,0,1,1.451-1.451h8.976L143.441,286c-1.013,1.485-3.353,5.052-6.521,10.738Zm13.532-11.545.655-6.645a83.51,83.51,0,0,0,25.636,3.76,107.349,107.349,0,0,0,38.784-7.5,3.427,3.427,0,0,0-2.469-6.393c-32.183,12.43-56.688,4.77-61.259,3.114l1.307-13.27a129.881,129.881,0,0,0,34.565,4.855,91.91,91.91,0,0,0,33.066-5.732l2.742,27.669C214.692,288.512,181.463,299.777,150.408,285.193Zm145.8-161.467h.742a2.211,2.211,0,0,1,2,1.273l1,2.139v17.937h-5.937V125.929A2.206,2.206,0,0,1,296.21,123.726Zm-6.013,28.2h12.684a5.239,5.239,0,0,1-5.438,6.1h-.015a3.427,3.427,0,0,0-.016,6.853h.022c.712,0,6.133-.146,9.637-4.425,2.539-3.1,3.275-7.354,2.186-12.641a3.414,3.414,0,0,0-2.459-2.6v-18l1.167-2.279a2.2,2.2,0,0,1,4.162,1v21.722a3.427,3.427,0,0,0,3.427,3.427,4.354,4.354,0,0,1,3.316,1.5,4.31,4.31,0,0,1,1.047,3.446c-.739,5.609-2.725,12.957-7.992,16.115-3.816,2.287-9.14,2.171-15.826-.345-.042-.016-.1-.036-.142-.05-.447-.148-10.958-3.765-10.942-14.651A5.186,5.186,0,0,1,290.2,151.928Zm-5.318,20.8a24.455,24.455,0,0,0,8.881,5.5,37.483,37.483,0,0,0,8.606,2.19c-6.448,37.278-27.492,58.324-35.587,65.2-5.535-13.288-5.709-28-5.26-36.014a14,14,0,0,1,3.7-8.674C273.887,191.543,280.724,180.341,284.879,172.732ZM256.3,234.307a174.857,174.857,0,0,1-30.473-16.09v-8.863a58.723,58.723,0,0,0-5.928-25.719c9.983,8.348,22.274,17.117,35.158,22.759a20.413,20.413,0,0,0-.379,2.835A102.843,102.843,0,0,0,256.3,234.307ZM198.124,86.856c-.4-6.892-.365-14.212-.271-19.011l29.91,15.264a122.985,122.985,0,0,1-3.48,16.511A243.348,243.348,0,0,1,198.124,86.856Zm-32.894-47.5L164.8,35.88a21.332,21.332,0,0,0-4.5-10.557,16.492,16.492,0,0,1-3.6-8.156c10.625-.873,48.139-1.845,78.064,23.577a16.8,16.8,0,0,1,5.79,10.471,99.768,99.768,0,0,1,.176,27.1,2.41,2.41,0,0,1-1.307,1.833,2.531,2.531,0,0,1-2.348.013L196.142,59.278l-9-4.591a3.427,3.427,0,0,0-3.115,6.105l7.05,3.6c-.11,3.539-.265,10.827,0,18.449-8.785-5.137-15.468-9.507-17.71-10.995l-.6-21.237a3.423,3.423,0,0,0-1.143-2.46l-3.368-3.008A9.293,9.293,0,0,1,165.23,39.357Zm1,39.236a1.79,1.79,0,0,1,1-1.538,1.809,1.809,0,0,1,.8-.2,1.713,1.713,0,0,1,.966.308c5,3.346,31.122,20.5,54.986,29.7a5.3,5.3,0,0,1,3.358,5.732c-1.343,9.246-7.419,26.566-21.739,35.44L165.354,98.707a8.393,8.393,0,0,1-1.712-7.3,10.629,10.629,0,0,1,.5-1.459l30.48,25.62a3.426,3.426,0,1,0,4.409-5.246l-32.58-27.386A21.971,21.971,0,0,1,166.23,78.593ZM34.4,69.914c5.348-15.489,12.91-24.928,18.279-30.1-1.761,14.911,1.275,27.181,9.067,36.561C78.645,96.712,111.5,95.659,112.861,95.6c23.53-.76,36.917.387,44.22,1.584a15.518,15.518,0,0,0,2.963,5.856l1.838,2.252-2.447,6.388c-14.286-3.393-32.949-3.779-41.241-3.949a133.733,133.733,0,0,0-15.035.594c-34.415,3.141-53.347-6.958-63.171-15.986A21.079,21.079,0,0,1,34.4,69.914Zm-8.278,67.944c26.7,0,63.7-20.3,63.756-20.307a242.679,242.679,0,0,1,38.517-2.66c-13.6,4.091-30.019,12-47.8,26.845-3.693,3.082-13.771,8.062-28.1,7.183-14.1-.867-22.889-6.492-27.8-11.079C25.176,137.852,25.649,137.858,26.123,137.858Z"/><path d="M214,81.421l-3.542-1.837a3.426,3.426,0,1,0-3.155,6.083L210.84,87.5A3.426,3.426,0,1,0,214,81.421Z"/><path d="M206.878,125.87a3.427,3.427,0,1,0,4.411-5.245l-1.086-.913a3.427,3.427,0,0,0-4.411,5.245Z"/></svg>