<svg xmlns="http://www.w3.org/2000/svg"  viewBox="0 0 340 340" width="500px" height="500px"><path d="M52.363,70.743a173.348,173.348,0,0,1,49.384,23.875,61.3,61.3,0,0,0-25.036,6.622,29.257,29.257,0,0,1-23.006,1.5c-4.873-1.768-8.452-4.259-10.638-7.4a3.427,3.427,0,0,0-6.24,1.975,47.578,47.578,0,0,0,7.633,23.851,28.515,28.515,0,0,0,23.8,12.708,29.055,29.055,0,0,0,13.491-3.335,89.221,89.221,0,0,0,10.929-6.764,33.927,33.927,0,0,1,24.3-6.275,59.549,59.549,0,0,1,15.16,3.882c.025.01.052.013.077.023q1.631,1.809,3.239,3.7A27.6,27.6,0,0,0,132,131.221a46.378,46.378,0,0,0-18.346,9.518,9.61,9.61,0,0,0-3.4,8.473,9.729,9.729,0,0,0,5.243,7.607c.332.169.676.346,1.021.524-4.356,8.908-9.1,25.729-9.811,57.077,0,.02,0,.038,0,.058s0,.068,0,.1c.707,29.126-2.86,57.933-3.378,61.93l-8.107,18.112c-7.475-10.753-21.284-17.765-32.907-20.165-2.243-2.864-9.451-13.05-13.447-30.2-3.851-16.53-5.325-42.69,6.986-77.509C57.5,190.786,64.377,236.2,91.7,275.268a3.427,3.427,0,0,0,5.616-3.928c-37.1-53.051-35.087-120.525-35.063-121.2a3.427,3.427,0,0,0-6.559-1.511c-19.671,44.541-18.137,77.7-13.387,97.666,5.217,21.93,15.185,33.127,15.607,33.593a3.431,3.431,0,0,0,1.932,1.073c11.791,2.126,26.53,9.68,31.944,21.37a16.985,16.985,0,0,0,3.446,18.5c7.63,7.623,27.513,7.6,27.516,7.6A3.429,3.429,0,0,0,126.168,325c0-.115.043-10.7,4.235-26.772a3.428,3.428,0,0,0,.619-.56c11.7,5.325,47.156,18.2,109,13.7a98.809,98.809,0,0,1,.671,13.54c0,.028.006.053.006.08s-.008.057-.007.087a3.139,3.139,0,0,0,.036.322c.01.086.013.173.029.256a3.354,3.354,0,0,0,.14.5c.014.039.022.079.038.118a3.418,3.418,0,0,0,3.182,2.184h.046c12.113-.157,19.2-2.365,24.474-7.622a16.926,16.926,0,0,0,3.889-17.326c4.456-9.124,13.555-20.844,31.731-25.6a3.426,3.426,0,0,0,1.843-1.218c.384-.5,9.456-12.434,12.958-34.7,3.189-20.278,2.151-53.452-20.911-96.336a3.427,3.427,0,0,0-6.423,2.014c.076.659,7.18,66.568-24.673,122.013A3.427,3.427,0,0,0,273,273.094c23.358-40.659,26.607-85.589,26.4-109.366,14.975,33.765,15.529,59.958,12.97,76.739-2.656,17.407-9.054,28.12-11.065,31.146A54.77,54.77,0,0,0,269.09,295.6l-8.573-19.154c-.636-3.67-5.388-32.474-3.355-61.706,0-.072,0-.142,0-.214,0-.034.009-.066.008-.1-.5-22.247-3.058-39.67-7.6-51.864.288-.086.576-.176.863-.259a10.994,10.994,0,0,0,5.057-18.042,27.034,27.034,0,0,0-14.148-7.775c-2.25-3.565-9.042-10.469-27.422-8.574-.09.009-.182.023-.271.04-.016,0-.178.031-.46.075a23.282,23.282,0,0,1-8.35-12.27,59.194,59.194,0,0,0,7.221-21.087c.047-.33.686-4.867,1.262-11.014a7.959,7.959,0,0,0,3.223-5.081A71.591,71.591,0,0,0,217.716,61.3a100.984,100.984,0,0,1,17.322-9.828A9.159,9.159,0,0,0,239.91,40c-.058-.16-.116-.318-.179-.481a8.954,8.954,0,0,0-5.312-5.155,9.227,9.227,0,0,0-3.438-.534,19.972,19.972,0,0,1,2.195-5.637,12.091,12.091,0,0,1,8.284-5.954,12.3,12.3,0,0,1,9.926,2.491c16.36,12.957,15.377,50.666,15.365,51.061-.623,22.937,5.207,36.881,10.672,44.841-28.037-9.777-39.521-36.548-44.18-58.578a3.426,3.426,0,1,0-6.7,1.417c4.649,21.988,18.756,59.9,61,66.737a3.427,3.427,0,0,0,2.279-6.34c-.173-.1-17.227-10.522-16.213-47.875.055-1.689,1.1-41.536-17.96-56.635a18.988,18.988,0,0,0-28.4,5.409,26.871,26.871,0,0,0-3.555,11.764,35.633,35.633,0,0,1-13.278,3.3,35.511,35.511,0,0,0-12.457-10.371,39.464,39.464,0,0,0-44.71,6.129c-13.967,12.987-13.3,31.325-11.664,41.1a7.64,7.64,0,0,0,4.482,5.729,7.8,7.8,0,0,0,1.931.565,102.078,102.078,0,0,0,1.878,15.212,49.753,49.753,0,0,0,3.684,12.751,53.931,53.931,0,0,0-13.476,9.016c-31.971-37.171-70.47-51.373-85.812-55.8A26.749,26.749,0,0,1,40.1,54.284C29.533,39.771,27.121,26.114,26.608,19.462c63.024,17.709,98.319,62.879,113.907,88.608a3.426,3.426,0,1,0,5.861-3.551C129.89,77.307,92.061,29.058,23.936,11.65a3.428,3.428,0,0,0-4.265,3.055c-.066.854-1.439,21.187,14.887,43.613A33.643,33.643,0,0,0,52.363,70.743Zm36.3,47.478a82.446,82.446,0,0,1-10.087,6.242,21.852,21.852,0,0,1-28.409-7.1,38.824,38.824,0,0,1-4.992-11.083,36,36,0,0,0,34.615,1.087,53.221,53.221,0,0,1,31.786-5.425c3.648,2.919,7.3,6.075,10.929,9.5q-2.276-.436-4.651-.744A40.73,40.73,0,0,0,88.659,118.221Zm50.79,51.525c-3.1,6.127-7.94,18.373-5.605,31.57a3.382,3.382,0,0,0-.154.718c-.157,1.582-.261,3.027-.33,4.258a42.631,42.631,0,0,0-19.63,2.8c1.112-27.541,5.563-41.717,8.869-48.579C127.545,163.126,133.313,166.256,139.449,169.746Zm4.69,76.318c-2.311,3.66-4.155,7.021-5.442,9.524,1.289-15.943,1.467-30.96,1.445-39.075.739,1.067,1.528,2.129,2.41,3.18a12.323,12.323,0,0,1,2.912,8.224C145.327,233.367,144.413,243.207,144.139,246.064Zm-30.606-14.487c3.5-.145,12.364-.056,19.447,3.893-.1,2.91-.235,5.973-.408,9.137a68.14,68.14,0,0,0-19.659,1.866C113.186,241.779,113.407,236.764,113.533,231.577Zm27.329,35.384q2.722,2.257,5.824,4.439-4.126.815-8.205,1.348C139.354,270.474,140.176,268.514,140.862,266.961Zm-7.595-53.772c.033,2.986.052,8.22-.08,14.774-7.55-3.178-15.643-3.381-19.547-3.25.018-2.688.007-5.4-.04-8.126C117,215.022,124.874,212.023,133.267,213.189Zm-22.043,54.48a31.18,31.18,0,0,1,10.573,4.159,3.427,3.427,0,1,0,3.776-5.719,38.32,38.32,0,0,0-13.7-5.3c.194-2.221.387-4.614.571-7.14a63.2,63.2,0,0,1,19.7-2.228,277.735,277.735,0,0,1-3.221,27.658c-1.016,2.951-2.45,7.35-3.6,11.759a29.259,29.259,0,0,1-15.132-13.975C110.383,275.339,110.774,272.115,111.224,267.669Zm24.66,12.282a134.843,134.843,0,0,0,18.862-3.331c3.851,2.308,7.937,4.532,12.163,6.661a175.629,175.629,0,0,1-33.944,5.664C134.031,285.326,135.169,281.982,135.884,279.951Zm8-19.411c.944-1.922,2.5-4.931,4.547-8.367,9.808,7,42.091,28.157,87.186,38.516a67.4,67.4,0,0,1,3.313,12.319C222.242,298.218,167.817,281.474,143.881,260.54Zm105.926-28.494c.021,2.679.081,5.306.174,7.862a86.265,86.265,0,0,0-18.782,3.243c-.313-5.976-.48-11.557-.562-16.359a30.086,30.086,0,0,1,18.944,5.123C249.654,231.965,249.732,232,249.807,232.046ZM223.483,263.98a150.151,150.151,0,0,1,9.146,18.93,241.73,241.73,0,0,1-25.987-8.131A147.9,147.9,0,0,0,223.483,263.98Zm.246-49.243c-.063,7.126,0,21.89,1.213,38-1.74-3.093-4.151-7.218-6.5-10.718a103.739,103.739,0,0,1-1.2-14.075,12.451,12.451,0,0,1,2.912-8.246A41.474,41.474,0,0,0,223.729,214.737Zm-9.4,33.519c2.212,3.515,4.363,7.321,5.7,9.749a142.6,142.6,0,0,1-21.777,13.452c-4.639-1.932-9-3.909-13.067-5.873A178.889,178.889,0,0,0,214.33,248.256Zm26.977,38.233a160.113,160.113,0,0,0-8.015-18.786c0-.073,0-.144,0-.218-.727-5.777-1.264-11.643-1.66-17.309a81.487,81.487,0,0,1,18.682-3.423c.322,5.373.763,10.3,1.224,14.584A39.065,39.065,0,0,0,239,259.131a3.427,3.427,0,0,0,.074,6.853h.053a31.642,31.642,0,0,1,13.071,3.062c.09.046.185.064.276.1.509,3.785.956,6.534,1.194,7.926-2.638,6.355-5.557,8.839-11.092,12.695C241.974,288.051,241.491,286.908,241.307,286.489Zm8.566-62.389a37.2,37.2,0,0,0-19.306-4.167c-.008-2.814.011-5.117.032-6.743,8.327-1.156,16.137,1.779,19.581,3.353C250.031,219.082,249.934,221.6,249.873,224.1ZM218.619,176c2.252,5.215,7.454,23.225-3.713,39.291-2.661,3.829-4.6,8.11-4.515,12.782a111.437,111.437,0,0,0,1.1,13.737,173.619,173.619,0,0,1-34.156,19.831,219.652,219.652,0,0,1-26.269-16.027c.359-3.821,1.118-12.367,1.248-17.52a19.168,19.168,0,0,0-4.515-12.8c-13.109-15.612-6.351-34.183-2.406-42.109,9.609,5.629,19.739,11.978,28.81,18.512a16.284,16.284,0,0,0,18.725.177A294.9,294.9,0,0,1,218.619,176ZM98.207,304.722l.456-1.019,0,0,8.4-18.778a36.594,36.594,0,0,0,16.441,12.585,136.1,136.1,0,0,0-4.057,24.086c-10.035-.188-15.552-1.79-19.381-5.61A10.113,10.113,0,0,1,98.207,304.722Zm44.731-9.8a186.5,186.5,0,0,0,33.252-7.206,430.473,430.473,0,0,0,46.674,17.62C183.784,306.264,157.285,299.85,142.938,294.926ZM263.8,315.982c-3.452,3.443-8.153,5.076-16.233,5.509a112.61,112.61,0,0,0-1.169-14.243,74.9,74.9,0,0,0-1.784-10.557c5.4-3.718,9.27-6.4,12.422-11.249l8.631,19.28A10.113,10.113,0,0,1,263.8,315.982ZM250.146,209.1a42.638,42.638,0,0,0-19.623-2.8,68.743,68.743,0,0,0-1.122-10.216A53.568,53.568,0,0,0,224.7,172.8a169.573,169.573,0,0,1,18.371-8.078C245.986,172.515,249.221,186.122,250.146,209.1ZM204.128,128.76a76.128,76.128,0,0,1-11.272-.565,31.471,31.471,0,0,0,7.137-5.862A29.907,29.907,0,0,0,204.128,128.76ZM156.384,95.808a94.217,94.217,0,0,1-1.595-14.93c6.085-4.406,10.32-10.622,12.862-15.229,10.849,15.943,29,19.014,38.649,19.449-.356,3.491-.709,6.28-.893,7.664-2.042,2.286-10.025,9.947-25.232,9.947C165.49,102.709,158.346,97.525,156.384,95.808Zm2.273,9.475c4.737,2.229,11.748,4.279,21.518,4.279a43.087,43.087,0,0,0,22.685-6.025c-2.869,8.3-8.877,19.247-20.936,21.56C179.39,124.86,164.827,122.742,158.657,105.283Zm71.5-64.328a2.342,2.342,0,0,1,1.929-.145A2.09,2.09,0,0,1,233.342,42l.107.289a2.34,2.34,0,0,1-1.231,2.935,113.347,113.347,0,0,0-15.583,8.484,39.34,39.34,0,0,0-2.411-7.342A45.413,45.413,0,0,0,230.157,40.955Zm-72.249-.35a32.593,32.593,0,0,1,36.924-5.044c13.663,6.983,18.7,21.046,14.972,41.8a1.2,1.2,0,0,1-1.219.949c-8.429-.069-29.019-2.3-38.118-21.509a3.426,3.426,0,0,0-3.1-1.958c-.049,0-.1,0-.146,0a3.432,3.432,0,0,0-3.066,2.226c-.048.127-4.875,12.807-14.5,19.024a.864.864,0,0,1-.834.053.8.8,0,0,1-.49-.592C146.925,67.138,146.292,51.407,157.908,40.6ZM156.9,116.933c8.766,11.847,19.714,14.22,19.995,14.329,17.416,6.775,35.884,3.8,37.865,3.448,10.032-1.013,15.432.953,18.241,2.871a134.033,134.033,0,0,0-15.6,5.68,3.427,3.427,0,1,0,2.725,6.288,122.251,122.251,0,0,1,19.015-6.526c4.826,1.006,8.644,2.975,11.33,5.882a4.059,4.059,0,0,1,.958,3.914,4.12,4.12,0,0,1-2.888,2.9c-22.884,6.627-47.1,21.96-59.495,30.51a9.412,9.412,0,0,1-10.827-.1c-20.468-14.744-46.122-28.514-59.592-35.41a2.873,2.873,0,0,1-1.556-2.262,2.762,2.762,0,0,1,.975-2.45,38.333,38.333,0,0,1,16.786-8.381c1.267.052,8.251.658,16.131,7.642.051.046.1.09.157.132.76.6,18.806,14.673,36.409,21.333a3.427,3.427,0,0,0,2.425-6.41c-16.061-6.077-33.254-19.27-34.529-20.257a37.416,37.416,0,0,0-15.932-8.606C143.221,124.832,150.906,119.636,156.9,116.933Z"/><path d="M202.593,157.982a3.4,3.4,0,0,0,1.705-.457q1.046-.6,2.157-1.219a3.427,3.427,0,0,0-3.329-5.991q-1.155.642-2.245,1.27a3.427,3.427,0,0,0,1.712,6.4Z"/><path d="M173.474,87.063a26.656,26.656,0,0,0-4-.808,3.427,3.427,0,0,0-.775,6.81,20.171,20.171,0,0,1,2.864.579,3.427,3.427,0,1,0,1.914-6.581Z"/><path d="M188.068,93.781a3.425,3.425,0,0,0,.959-.137,20.043,20.043,0,0,1,2.863-.579,3.427,3.427,0,0,0-.773-6.81,26.633,26.633,0,0,0-4,.808,3.427,3.427,0,0,0,.955,6.718Z"/></svg>