<svg xmlns="http://www.w3.org/2000/svg"  viewBox="0 0 340 340" width="500px" height="500px"><path d="M19.385,245.008c22.341-8.336,36.14-20.875,43.782-29.926a25.435,25.435,0,0,0,3.933-6.351,41.7,41.7,0,0,1-.793,17.077,3.427,3.427,0,0,0,6.63,1.738A50.06,50.06,0,0,0,69.216,192.9c7.208-11,17.288-11.129,17.7-11.129h0a3.405,3.405,0,0,0,3.44-2.92c6.053-40.543,42.291-41.3,43.824-41.307a3.424,3.424,0,0,0,2.3-.9c7.723-7.082,12.392-16.03,15.2-23.771a33.307,33.307,0,0,0,4.193,4.6l3.346,20.183a19.339,19.339,0,0,0,7.049,11.992l2.632,2.095a3.427,3.427,0,1,0,4.268-5.362l-2.633-2.1a12.493,12.493,0,0,1-4.554-7.75l-2.264-13.652a26.561,26.561,0,0,0,4.027,1.68,3.426,3.426,0,0,0,3.992-1.66c.27-.5.52-1.033.749-1.57a57.6,57.6,0,0,0,30.939,15.433c-1.079,2.933-2.074,5.921-2.96,8.924A21.731,21.731,0,0,0,200,156.168a24.566,24.566,0,0,1-7.558,3.939,3.427,3.427,0,1,0,2.166,6.5,33.2,33.2,0,0,0,7.927-3.814,21.657,21.657,0,0,0,2.373,3.282c.6.681,1.218,1.337,1.83,2a467.763,467.763,0,0,1-47.551,49.729c-.046,0-.089-.014-.135-.014H136.342a20.971,20.971,0,0,1-17.4-9.132c-.2-.294-.314-.477-.338-.515a3.39,3.39,0,0,0-.665-.774,57.68,57.68,0,0,0-.85-7.253,3.427,3.427,0,0,0-6.721,1.34c.025.124,2.376,12.355-.982,22.9-18.05,28.375-42.474,36.141-52.166,38.162a13.174,13.174,0,0,1-13.668-5.549A81.246,81.246,0,0,1,39.3,249.91a3.426,3.426,0,0,0-6.044,3.23,88.073,88.073,0,0,0,4.62,7.667,19.979,19.979,0,0,0,16.605,8.859,20.266,20.266,0,0,0,4.144-.429c9.6-2,32.465-9.151,51.161-33.478L111,252.877a11.364,11.364,0,0,0-4.792,8.686l-.262,4.888a12.165,12.165,0,0,0-3.083,1.64,11.632,11.632,0,0,0-4.7,10.848,121.244,121.244,0,0,0-12.818,43.483,3.427,3.427,0,0,0,3.042,3.772,3.568,3.568,0,0,0,.369.02,3.428,3.428,0,0,0,3.4-3.062,117.908,117.908,0,0,1,9.412-35.579,9.058,9.058,0,0,0,10.76,2.382c3.309,6.469,12.481,19.627,34.225,25.653a9.9,9.9,0,0,0,11.954-5.973q.261-.715.464-1.481c5.377,3.428,15.034,7.841,29.726,8.486.157.007.314.01.472.01a10.683,10.683,0,0,0,9.771-6.282q.4-.918.76-1.91a44.325,44.325,0,0,0,19.324.13,39.758,39.758,0,0,0,3.764,7.108,23.3,23.3,0,0,0,19.517,10.517h5.84a17.13,17.13,0,0,0,16.518-12.166c.084-.291.153-.586.226-.881a3.287,3.287,0,0,0,.313-.2c34.071-26.638,34.748-79.309,34.761-81.538a3.427,3.427,0,0,0-2.9-3.4,71.975,71.975,0,0,0-9.649-.847,118.473,118.473,0,0,0-29.8-50.559c.15-.068.3-.127.453-.2a14.458,14.458,0,0,0,7.458-18.4,99.47,99.47,0,0,0,6.306-9.46c20.274,2.242,36.764-4.353,46.615-9.906a148.947,148.947,0,0,0,5.557,15.609c-12.7,13.726-29.645,21.915-50.4,24.349a3.426,3.426,0,1,0,.8,6.806c23.3-2.731,42.208-12.239,56.212-28.259a3.426,3.426,0,0,0,.519-3.717,137.512,137.512,0,0,1-7.3-20.921c0-.008-.006-.014-.008-.021a124.6,124.6,0,0,1-4.49-31.894V62.477a19.946,19.946,0,0,0-21.723-19.851c-14.908,1.309-31,6.192-46.544,14.119a3.429,3.429,0,0,0,.836,6.4c.175.038,17.584,4,22.466,19.238a3.426,3.426,0,0,0,6.526-2.091c-3.691-11.523-12.663-17.76-19.379-20.933a116.817,116.817,0,0,1,36.694-9.907,13.091,13.091,0,0,1,14.271,13.023V83.7L221.1,94.957a18.417,18.417,0,0,0-4.667-7.148V50.648c0-.043,0-.085,0-.127-.015-.367-1.809-36.681-40.447-36.721-2.152-.073-32.4-.651-42.821,25.14a33.6,33.6,0,0,0-2.356,10.933c-.3,5.99.378,14.682,5.111,22.679a10.573,10.573,0,0,0-.483,1.977,21.683,21.683,0,0,0,3.623,15.986,12.273,12.273,0,0,0,5.928,4.739,38.123,38.123,0,0,0,2.159,9.257.17.17,0,0,0-.009.024A66.461,66.461,0,0,1,141,119.859l-68.783,8.928a47.383,47.383,0,0,0,.31-5.873,18.731,18.731,0,0,0-.254-2.725l63.693-7.843a3.427,3.427,0,1,0-.838-6.8l-65.2,8.029a19.03,19.03,0,0,0-3.877-4.7,19.226,19.226,0,0,0-14.971-4.626A91.862,91.862,0,0,0,27.117,111,24.726,24.726,0,0,0,14.3,123.439,89.431,89.431,0,0,0,9.092,138.1a16.464,16.464,0,0,0,3.109,14.6,16.72,16.72,0,0,0,4.735,4.043c-6.718,34.419-2.354,83.261-2.162,85.361a3.428,3.428,0,0,0,4.611,2.9ZM173.62,112.486a3.428,3.428,0,0,0-5.979,1.493c-.111.526-.385,1.632-.772,2.824a27.985,27.985,0,0,1-5.3-3.477,3.5,3.5,0,0,0-.564-.489,27.515,27.515,0,0,1-9.114-17.6,11.332,11.332,0,0,0,7.358-10.674V83.442a24.138,24.138,0,0,1,7.127,13.713,3.426,3.426,0,0,0,6.674.333,10.353,10.353,0,0,1,1.292-2.385,36.769,36.769,0,0,0,5.915,8.343,7.875,7.875,0,0,0,3.389,5.079,7.7,7.7,0,0,0,8.621-.024c5.794-3.856,12.788-4.047,18.255-.5a7.906,7.906,0,0,0,1.463.726c.929,8.937.956,16.436.061,21.942C205.425,130.531,187.129,128.6,173.62,112.486Zm42.1-11.254a.961.961,0,0,1-.457.992.872.872,0,0,1-1.006.028,23.476,23.476,0,0,0-25.783.544.888.888,0,0,1-1.055.006,1.022,1.022,0,0,1-.456-1.092c1.425-7.766,6.382-11.55,15.147-11.55.258,0,.521,0,.786.01.063,0,.124,0,.187,0C207.671,90.021,214,91.031,215.716,101.232Zm-4.188,71.813c1.946,1.892,3.952,3.685,5.991,5.408-34.448,50.6-86.848,83.1-98.9,90.157-1.116-.546-2.163-1.073-3.146-1.567a12.279,12.279,0,0,0-2.65-.964l.223-4.149a4.418,4.418,0,0,1,2.2-3.655C158.339,234.674,197.777,189.706,211.528,173.045Zm29.655,72.689a3.418,3.418,0,0,0,.244,1.156c4.744,11.606,2.778,23.031.685,29.883a23.567,23.567,0,0,0-3.721-.124c.032-.577.053-1.162.053-1.758a19.049,19.049,0,0,0-2.572-9.972,11.457,11.457,0,0,0-9.445-5.548c-.12,0-.237.01-.356.009V233.362A56.349,56.349,0,0,0,241.183,245.734ZM220.9,210.885c-.073.043-.139.095-.208.143-.022.015-.046.024-.068.039-9.341,6.837-20.535,6.733-20.716,6.73a3.465,3.465,0,0,0-3.5,3.343,3.427,3.427,0,0,0,3.342,3.509c.038,0,.136,0,.289,0a45.332,45.332,0,0,0,19.185-4.728v41.646A11.609,11.609,0,0,0,216.5,264.3c-4.265,6.064-15.114,16.431-39.849,16.431-22.518,0-39.853-4.333-50.438-8.685a355.231,355.231,0,0,0,30.112-20.826h8.638a3.481,3.481,0,0,0,3.444-2.713,3.431,3.431,0,0,0-3.354-4.141h-.077q4.353-3.555,8.865-7.48a20.184,20.184,0,0,1-.451,8.637,6.892,6.892,0,0,0-.248,2.479l.014.183a7.439,7.439,0,0,0,.552,2.267c.839,2.037,2.315,6.942-.361,11.729a3.537,3.537,0,0,0,.506,4.309,3.432,3.432,0,0,0,5.357-.754,19.536,19.536,0,0,0,1.9-14.516h5.663a3.481,3.481,0,0,0,3.444-2.713,3.43,3.43,0,0,0-3.354-4.141h-6.21a29.554,29.554,0,0,0-.968-12.689c15-13.683,30.5-30.268,43.515-49.385a21.753,21.753,0,0,0,9.255,2.08c.282,0,.564-.017.846-.028C231.494,204.113,221.332,210.616,220.9,210.885ZM136.342,224.65h14.967a258.65,258.65,0,0,1-33.717,24.375l-1.611-22.773a45.34,45.34,0,0,0,1.752-8.654A27.943,27.943,0,0,0,136.342,224.65Zm62.214,76.4a3.428,3.428,0,0,0-4.471,2.373,27.67,27.67,0,0,1-1.422,4.2A3.819,3.819,0,0,1,189,309.793c-20.957-.92-30.187-10.349-30.262-10.427a3.427,3.427,0,0,0-5.935,2.428,14.962,14.962,0,0,1-.731,5.494A3.015,3.015,0,0,1,148.384,309c-25.055-6.944-30.886-24.1-31.116-24.813a3.428,3.428,0,0,0-4.865-2.008l-2.878,1.514a2.2,2.2,0,0,1-1.684.151,2.148,2.148,0,0,1-1.276-1.051,15.031,15.031,0,0,1-1.586-4.519,4.727,4.727,0,0,1,1.935-4.664,5.17,5.17,0,0,1,5.481-.448c10.763,5.412,32.551,13.605,64.3,14.419,27.8.712,40.384-12.2,45.408-19.341a4.739,4.739,0,0,1,4.082-2.024A4.564,4.564,0,0,1,230,268.453a12.326,12.326,0,0,1,1.59,6.438,22.507,22.507,0,0,1-.242,3.2,23.024,23.024,0,0,0-6.79,4.01q-.507.432-1.014.9h0a21.967,21.967,0,0,0-6.311,18.97A38.185,38.185,0,0,1,198.556,301.047Zm59.522,11.107a10.252,10.252,0,0,1-9.933,7.206h-5.84a16.472,16.472,0,0,1-13.794-7.433c-10.019-15.216-.818-23.455-.445-23.778.046-.038.09-.077.134-.117.267-.247.535-.485.8-.712a16.115,16.115,0,0,1,10.485-3.849,16.782,16.782,0,0,1,3.352.34,17.21,17.21,0,0,1,12.021,9.221C258.533,300.372,259.615,306.805,258.078,312.154Zm7.316-8.411a42.156,42.156,0,0,0-4.407-13.778A24.005,24.005,0,0,0,248.751,278.5c2.219-7.4,4.225-19.335-.09-31.839a62.26,62.26,0,0,1,44.322-12.272C292.342,245.1,288.463,281.873,265.394,303.743Zm14.938-76.357a68.215,68.215,0,0,0-34.723,12.957,48.134,48.134,0,0,1-19.3-18.494,3.4,3.4,0,0,0-.239-.337v-5.939c3.835-3.094,12.926-12.481,14.2-32.587q5.292-1.534,10.46-3.518A111.411,111.411,0,0,1,280.332,227.386Zm-20.969-62.012a7.575,7.575,0,0,1-4.137,4.809,123.711,123.711,0,0,1-18.6,6.731,3.345,3.345,0,0,0-.978.231,14.822,14.822,0,0,1-12.623-3,111.641,111.641,0,0,1-12.959-12.589,14.694,14.694,0,0,1-3.016-13.928c1.01-3.42,2.168-6.816,3.436-10.128.783.033,1.486.045,2.091.045,1.481,0,2.4-.072,2.585-.089a3.426,3.426,0,0,0,3.027-2.593,50.508,50.508,0,0,0,1.27-9.374c18.99,7.874,31.588,22.42,38.955,33.6A7.593,7.593,0,0,1,259.363,165.374Zm15.961-23.384a89.008,89.008,0,0,0,8.923-33.817L312.56,104.5a132.984,132.984,0,0,0,4.031,27.313C308.241,136.785,293.589,143.254,275.324,141.99ZM312.488,97.6l-84.721,11a3.427,3.427,0,0,0,.436,6.825,3.552,3.552,0,0,0,.446-.029l48.68-6.32A83.092,83.092,0,0,1,267,143.2l-.014.02a91.333,91.333,0,0,1-5.34,8.5c-8.51-11.888-22.174-26.05-42.131-33.539q-.139-4.7-.7-10.113c.066-.041.137-.07.2-.114a7.744,7.744,0,0,0,3.542-6.272l89.925-11.073ZM137.649,50.217a26.77,26.77,0,0,1,1.866-8.709c8.751-21.656,35.134-20.9,36.259-20.858.048,0,.095,0,.143,0,31.664,0,33.572,28.258,33.661,30.071V63.238a27.536,27.536,0,0,0-3.659,1.063,3.426,3.426,0,0,0,1.236,6.623,16.186,16.186,0,0,0,2.423-.617V84.066a22.461,22.461,0,0,0-6.609-.749c-12.521-.289-18.291,5.61-20.942,11.365a22.657,22.657,0,0,1-3.146-6.633,3.427,3.427,0,0,0-5.6-1.9,29.019,29.019,0,0,0-2.371,2.3,30.872,30.872,0,0,0-13.424-14.736l-.007,0a15.621,15.621,0,0,0-4.548-5.532,15.459,15.459,0,0,0-3.1-1.818,10.2,10.2,0,0,0-9.148.473c-.011.006-.021.014-.032.021A35.183,35.183,0,0,1,137.649,50.217Zm7.008,36.348a14.763,14.763,0,0,1-2.434-11.106,3.563,3.563,0,0,1,1.8-2.641,3.474,3.474,0,0,1,1.7-.451,3.376,3.376,0,0,1,1.351.283,8.522,8.522,0,0,1,1.721,1.01,9.5,9.5,0,0,1,3.595,7.613v3.291a4.338,4.338,0,0,1-3.509,4.4c-2.415.356-4.029-2.1-4.077-2.171S144.711,86.639,144.657,86.565Zm-8.86,40.879a43.638,43.638,0,0,1-3.064,3.315c-7.415.552-41.419,5.228-48.707,44.426a29.519,29.519,0,0,0-16.394,8.756A284.2,284.2,0,0,0,60.46,150.3a23.4,23.4,0,0,0,10.156-13.4c.1-.342.182-.684.272-1.026Zm-120.076,12.4a82.475,82.475,0,0,1,4.807-13.538,17.882,17.882,0,0,1,9.269-9,85.022,85.022,0,0,1,22.1-6.265,12.368,12.368,0,0,1,9.632,2.977,11.97,11.97,0,0,1,4.142,8.969,42.5,42.5,0,0,1-1.649,12.04,16.547,16.547,0,0,1-9.587,10.687A85.2,85.2,0,0,1,25.586,152.1a9.8,9.8,0,0,1-9.865-12.259ZM25.2,158.962q.317,0,.633-.012a91.527,91.527,0,0,0,28.311-5.761c2.356,8.629,6.73,26.426,8.1,44.022a18.5,18.5,0,0,1-4.315,13.451c-6.62,7.838-18.229,18.5-36.688,26.241-.911-12.943-2.906-50.589,2.264-78.035C24.067,158.924,24.632,158.962,25.2,158.962Z"/><path d="M185.471,70.339a12.542,12.542,0,0,1,3.456.914,3.427,3.427,0,0,0,2.585-6.347,18.671,18.671,0,0,0-5.668-1.41,3.427,3.427,0,0,0-.373,6.843Z"/><path d="M160.7,168.084l2.474.448a3.469,3.469,0,0,0,.614.055,3.427,3.427,0,0,0,.606-6.8l-2.474-.448a12.32,12.32,0,0,1-3.529-1.208,85.106,85.106,0,0,1-14.6-9.62,3.426,3.426,0,0,0-4.485,5.181,90.392,90.392,0,0,0,15.914,10.512A19.168,19.168,0,0,0,160.7,168.084Z"/><path d="M142.675,204.906a3.427,3.427,0,0,0,0,6.854h4.542a3.427,3.427,0,0,0,0-6.854Z"/></svg>