<svg xmlns="http://www.w3.org/2000/svg"  viewBox="0 0 340 340" width="500px" height="500px"><path d="M268.159,118.4a24.591,24.591,0,0,0-.58,2.811,31.657,31.657,0,0,0-8.865,5.18c-8.346,6.942-12.8,18.019-13.234,32.924a41.6,41.6,0,0,0,4.7,20.819c5.465,10.225,19.234,20.132,32.642,21.045q1.39.095,2.773.094a39.531,39.531,0,0,0,31.378-15.3,41.479,41.479,0,0,0,8.118-20.67c1.895-15.54-1.924-27.45-11.351-35.4a38.45,38.45,0,0,0-7.433-4.878c.249-4.907-.86-9.036-3.2-12.248,11.518-9.634,10.565-24.949,8.226-32.166a3.426,3.426,0,0,0-4.463-2.152,41.522,41.522,0,0,0-14.656,9.074A37.883,37.883,0,0,0,275.855,74.5a3.428,3.428,0,0,0-4.287,1.852,32.276,32.276,0,0,0-2.338,20.256,19.375,19.375,0,0,0,5.1,9.128,12.248,12.248,0,0,1,1.659,2.194A17.976,17.976,0,0,0,268.159,118.4Zm50.131,46.075a34.71,34.71,0,0,1-6.74,17.311,32.762,32.762,0,0,1-28.26,12.555c-11.121-.757-23.342-11.239-27.065-17.44-2.979-4.96-4.079-11.112-3.9-17.386.374-12.818,3.979-22.175,10.712-27.809,6.3-5.272,14.037-6.1,18.285-6.1a24.608,24.608,0,0,1,3.166.175l.019,0C310.668,129.616,321.085,141.55,318.29,164.473ZM285.515,119a36.962,36.962,0,0,0-10.412.212,11.66,11.66,0,0,1,12.1-7.193c9.785,1.046,11.958,6.236,12.291,10.18A81.121,81.121,0,0,0,285.515,119Zm20.107-32.558c.8,5.363.839,15.282-7.74,21.737-.014-.007-.029-.014-.042-.022a33.952,33.952,0,0,0-2.234-14.277A31.826,31.826,0,0,1,305.622,86.442Zm-26.336,14.569a12.678,12.678,0,0,1-3.371-5.906,24.432,24.432,0,0,1,.695-12.7c4.957,2.735,14.155,9.646,14.42,23.3-.995-.2-2.018-.383-3.1-.5a18.943,18.943,0,0,0-5.516.226A18.983,18.983,0,0,0,279.286,101.011Z"/><path d="M16.708,186.277a3.427,3.427,0,0,0-6.06,2.149c-.792,63.468,29.7,99.024,40.129,109.292a18.138,18.138,0,0,0,1.146,11.131,30.067,30.067,0,0,0,3.108,5.4,11.109,11.109,0,0,0,7.352,4.474,11.511,11.511,0,0,0,1.751.134,11.211,11.211,0,0,0,4.072-.771l6.174,7.471a9.241,9.241,0,0,0,11.659,2.173l2.822-1.585a9.2,9.2,0,0,0,3.92-11.832l-4.66-10.448,1.044-.772A16.506,16.506,0,0,0,95.624,292.7l5.184-28.761a3.426,3.426,0,0,0-.78-2.85A56.273,56.273,0,0,0,89.1,251.572V226.641L126.081,203.3c6.846-4.321,11.427-12.805,11.139-20.631A37.166,37.166,0,0,0,134.4,169.2c.109.094.222.182.331.278,19.379,17.166,41.009,29.341,52.178,35.071a13.332,13.332,0,0,0,17.338-4.744,70.241,70.241,0,0,0,8.309-21.475c11.719,43.376,13.461,85.694,13.717,97.769H162.178a12.53,12.53,0,0,0-8.467-3.282h-3.294l3.6-17.185a25.414,25.414,0,0,0-3.8-19.362A274.359,274.359,0,0,1,134.7,210.186a3.426,3.426,0,1,0-6.067,3.186,280.9,280.9,0,0,0,15.916,26.738,18.522,18.522,0,0,1,2.765,14.115l-3.9,18.592H136.7a18.363,18.363,0,0,0-15.721,8.881,86.341,86.341,0,0,0-11.007,32.135,16.167,16.167,0,0,0,15.989,18.4h14.383a21.352,21.352,0,0,0,19.942-13.872h15.4a13.61,13.61,0,0,0,13.4-11.385h37.224v21.831a3.427,3.427,0,0,0,6.853,0v-49.27c0-.181,0-5.768-.489-15.029a70.461,70.461,0,0,0,26.522,6.7l-2.514,11.7a3.425,3.425,0,0,0,3.014,4.13c.17.018,1.6.15,3.961.15a75.872,75.872,0,0,0,23.822-3.954c13.734-4.647,32.114-15.674,41.676-41.82a3.426,3.426,0,0,0-.9-3.7l-6.657-6.1a15.108,15.108,0,0,0-17.753-2c-6.848,3.914-20.526,10.48-35.191,10.48-21.387,0-33.831-11.023-40.506-20.269-.01-.015-.024-.026-.035-.04a370.22,370.22,0,0,0-13.2-57.486c.081-1.032.153-2.047.206-3.015a11.834,11.834,0,0,0-7.827-11.714c-6.589-2.349-9.574-4.875-10.775-6.184l2.72.809a3.427,3.427,0,0,0,3.352-.815,64.862,64.862,0,0,0,18.672-36.124,8.858,8.858,0,0,0-2.853-8,92.42,92.42,0,0,0,1.513-13.237c5.279.831,8.866,1.038,9.353,1.063.058,0,.115,0,.173,0a3.424,3.424,0,0,0,3.426-3.4c.108-12.615-1.562-20.6-3.171-25.345l11.176.621a3.46,3.46,0,0,0,3.233-1.847,3.425,3.425,0,0,0-.36-3.706C209.757,8.645,167.706,7.78,165.932,7.764a3.377,3.377,0,0,0-2.007.627C155.84,14.1,150.7,23.068,148.787,26.828L141,28.049a3.427,3.427,0,0,0-2.709,2.269c-6.446,18.708,1.235,33.847,5.157,39.877a10.423,10.423,0,0,0-1.671,2.8c-1.634,4.056-1.023,9.24,1.818,15.407a38.73,38.73,0,0,0,5.505,8.406,28.87,28.87,0,0,0-4.116,15.98,14.383,14.383,0,0,0-8.775,2.4,57.7,57.7,0,0,0-17.732-9.892,37.88,37.88,0,0,0-28.3,1.128c-24.131,10.842-42.688,8.333-51.145,6.1L57.218,95.493a16.8,16.8,0,0,1,15.051-4.085c12.711,2.741,27.213,2.274,28.427,2.229h.422c14.838,0,26.661,3.771,35.143,11.211a3.426,3.426,0,0,0,4.518-5.152c-9.77-8.569-23.109-12.912-39.661-12.912-.209,0-.425,0-.631,0-.142.007-14.642.538-26.772-2.079A23.665,23.665,0,0,0,52.533,90.49l-22.35,20.934a3.427,3.427,0,0,0,.849,5.585c.984.477,23.546,11.025,57.359-2.4-1.007,1.174-2,2.4-2.96,3.7a120.635,120.635,0,0,1-11.463,13.52,110.947,110.947,0,0,1-17.357,14.555,3.426,3.426,0,0,0,.429,5.985,47.4,47.4,0,0,0,18.332,3.589q.957,0,1.944-.04a26.175,26.175,0,0,0,23.351-16.982c.8-2.109,1.737-4.371,2.781-6.72a29.114,29.114,0,0,1,6.216-9.142c6.438-6.257,13.575-7.165,21.24-2.755a21.754,21.754,0,0,0-3.517,8.533,29.886,29.886,0,0,0-27.182,21.942l-.091.342a9.528,9.528,0,0,0,2.329,8.974,9.962,9.962,0,0,0,1.1.988C85,177.521,68.14,200.916,62.838,209.182a24.311,24.311,0,0,0-3.833,14.441l1.154,19.836v0l.3,5.942C41.777,216.531,16.988,186.612,16.708,186.277Zm172.578,96.675H205.93v17.175H189.286Zm-48.942,42.432H125.961a9.139,9.139,0,0,1-6.978-3.17,9.4,9.4,0,0,1-2.221-7.453,79.422,79.422,0,0,1,10.1-29.554,11.478,11.478,0,0,1,9.834-5.537h17.011a5.758,5.758,0,0,1,5.61,7.082h0a236.176,236.176,0,0,0-4.609,25.85A14.522,14.522,0,0,1,140.344,325.384Zm42.089-20.619a6.755,6.755,0,0,1-6.747,6.747h-13.91a228.062,228.062,0,0,1,4.213-23.174,12.576,12.576,0,0,0,.092-5.386h16.352Zm30.35-21.813h13.531v17.175H212.783Zm94.462-47.379a8.275,8.275,0,0,1,9.724,1.1l4.94,4.526c-7.043,17.676-19.27,29.6-36.374,35.466a69.512,69.512,0,0,1-21.284,3.664l7.186-33.442C285.772,246.212,298.708,240.452,307.245,235.573Zm-42.8,11.25-3.782,17.6a62.993,62.993,0,0,1-28.48-7.915c-.5-6.992-1.249-15.27-2.378-24.405C237.47,239.375,248.636,245.838,264.441,246.823Zm-246.8-48.385c10.024,12.879,30.01,39.864,43.389,66.52a3.5,3.5,0,0,0,.229.361l.714,14.149-8.007,11.037c-.1.132-.182.27-.274.405C43.13,279.822,19.777,249.685,17.644,198.438ZM86.523,317.1a2.386,2.386,0,0,1-1.017,3.066l-2.823,1.585a2.394,2.394,0,0,1-3.019-.563l-5.68-6.874,8.5-6.281Zm7.243-52.72-4.887,27.107a9.676,9.676,0,0,1-3.788,6.091L66.78,311.118a4.451,4.451,0,0,1-3.354.828,4.3,4.3,0,0,1-2.85-1.727,23.214,23.214,0,0,1-2.4-4.167,11.624,11.624,0,0,1,1.336-11.523l8.717-12.014a3.424,3.424,0,0,0,.648-2.185l-1.625-32.2C73.776,250.566,85.777,255.889,93.766,264.381ZM144.16,34.491l7.464-1.172a3.434,3.434,0,0,0,2.608-2.007c.046-.108,4.661-10.44,12.725-16.643,6.26.413,38.373,4.03,66.349,35.02l-8.92-.5a3.427,3.427,0,0,0-2.887,5.536c.044.055,4.105,6.033,4.493,23.181-10.1-1.156-38.617-5.978-51.476-24.268a3.428,3.428,0,0,0-4.8-.812c-.722.519-6.093,4.719-8.863,16.656a13.288,13.288,0,0,0-2.124-1.413,13.51,13.51,0,0,0-9.26-1.192C146.485,62.46,139.664,50.068,144.16,34.491Zm5.22,39.494c2.434-.789,4.429-.756,6.085.115,3,1.574,4.124,5.443,4.129,5.461a3.426,3.426,0,0,0,6.722-.6c.8-9.522,3.36-15.062,5.255-17.954,11.1,12.937,28.681,18.966,41.531,21.752-.015.491-.035.973-.058,1.45-1.6.289-2.969.632-3.048.653a3.427,3.427,0,0,0,.836,6.75,3.383,3.383,0,0,0,.841-.106c.165-.041.424-.1.739-.175-.159,1.216-.33,2.348-.508,3.374a50.388,50.388,0,0,0-32.737,5.021,3.778,3.778,0,0,1-4.3-.473c-10.059-8.662-19.709-8.176-20.111-8.148a3.41,3.41,0,0,0-1.2.31,30.056,30.056,0,0,1-3.724-5.875C146.393,78.084,147.9,74.8,149.38,73.985Zm-44.493,44.172a35.911,35.911,0,0,0-7.7,11.273c-1.1,2.465-2.08,4.843-2.926,7.07a19.329,19.329,0,0,1-17.227,12.567,42.466,42.466,0,0,1-10.971-1.013,133.759,133.759,0,0,0,12.761-11.391A127.282,127.282,0,0,0,90.94,122.382a45.4,45.4,0,0,1,13.189-12.391,31.271,31.271,0,0,1,11.514,1.588A26.969,26.969,0,0,0,104.887,118.157Zm1.87,34.661.066-.247a22.957,22.957,0,0,1,23.064-16.885l.167.009c1.722.35,16.285,3.642,23.224,15.816.342.59,8.494,14.541,20.721,20.456a12.745,12.745,0,0,0,5.55,1.263,12.948,12.948,0,0,0,8.094-2.83l.079-.063a3.426,3.426,0,1,0-4.233-5.389l-.106.085a6.059,6.059,0,0,1-6.4.764c-10.306-4.985-17.7-17.588-17.761-17.7-6.851-12.02-19.22-16.795-25.025-18.441a13.8,13.8,0,0,1,4.722-7.982c3.866-3.134,7.3-1.883,8.174-1.477a29.141,29.141,0,0,1,7.082,9.266,3.427,3.427,0,1,0,6.127-3.07,36.746,36.746,0,0,0-8.194-10.921,22.687,22.687,0,0,1,4.436-17.464,25.685,25.685,0,0,1,13.846,6.431,10.585,10.585,0,0,0,12.049,1.3,43.717,43.717,0,0,1,30.411-3.888,2.068,2.068,0,0,1,1.642,2.317,58.192,58.192,0,0,1-15.259,30.881l-4.253-1.265c-1.07-.382-17.031-6.231-22.889-15.855a3.426,3.426,0,1,0-5.853,3.564c5.666,9.307,17.994,15.3,23.645,17.656l-.489,2.023a3.429,3.429,0,0,0,.186,2.164c.287.663,1.585,3.125,5.72,5.949a38.577,38.577,0,0,1-2.421,4.837,3.427,3.427,0,1,0,5.9,3.5,45.475,45.475,0,0,0,2.569-5.04c1.116.491,2.315.978,3.644,1.452a4.94,4.94,0,0,1,3.283,4.881c-.589,10.694-2.776,25.843-9.857,37.283a6.432,6.432,0,0,1-8.382,2.253c-10.881-5.582-31.946-17.435-50.763-34.1a34.266,34.266,0,0,0-22.689-8.8,32.4,32.4,0,0,0-5.088.4q-.748.117-1.518.272a2.774,2.774,0,0,1-3.218-3.405ZM68.606,212.883c7.69-11.988,26.2-36,43.52-50.085.146-.026.3-.056.44-.079a25.641,25.641,0,0,1,6.758-.159,3.475,3.475,0,0,0,.588.295c.4.155,9.867,3.966,10.459,20.065.2,5.417-3.143,11.551-7.948,14.584L83.845,221.855a3.425,3.425,0,0,0-1.6,2.9v22.655a99.308,99.308,0,0,0-15.384-6.7l-1.015-17.451A17.476,17.476,0,0,1,68.606,212.883Z"/><path d="M191.964,87.97a10.263,10.263,0,0,1,2.9,1.281,3.427,3.427,0,0,0,3.717-5.759,16.85,16.85,0,0,0-5.16-2.218,3.427,3.427,0,0,0-1.46,6.7Z"/></svg>