<svg xmlns="http://www.w3.org/2000/svg"  viewBox="0 0 340 340" width="500px" height="500px"><path d="M307.6,164V19.675a3.427,3.427,0,0,0-3.427-3.427H287.76a3.427,3.427,0,0,0-3.427,3.427V71.324H280.04a12.132,12.132,0,0,0-12.119,12.118V202.374c-10.537.938-20.023.523-28.212-1.268-8.407-2.9-15.352-8.96-20.64-18.023a3.449,3.449,0,0,0-.45-.6c-1.082-7.737-1.727-15.316-2.1-21.064a3.479,3.479,0,0,0-.073-.436c1.108-3.107,2.132-6.212,3.045-9.313a23.637,23.637,0,0,0,.744-10.4c-.839-5.357-3.421-12.425-10.835-16.512a90.73,90.73,0,0,0,.651-14.132,8.933,8.933,0,0,0,8.374-10.362c-1.254-7.449-4.417-12.96-9.2-16.309V65.725c7.344-21.3-2.13-35.637-2.591-36.313C194.925,9.548,164.111,9.908,162.87,9.931c-37.51,0-51.406,17.55-51.979,18.3a3.431,3.431,0,0,0-.625,2.837c1.266,5.636,4.863,10.237,7.058,12.624a125.853,125.853,0,0,0-7.755,31.823,56.12,56.12,0,0,1-25.551,40.806c-36.894,23.7-37.142,45.491-36.309,51.751-5.044,7.134-29.193,42.884-23.419,65.564.033.133.074.264.109.4a64.064,64.064,0,0,0-6.067,2.244,3.425,3.425,0,0,0-1.409,5.081c13.244,19.053,33.978,28.492,45.159,32.422a14.112,14.112,0,0,1,9.009,9.882l1.991,7.865a14.117,14.117,0,0,0,13.7,10.663h9.508a14.147,14.147,0,0,0,14.131-14.131V269.23a38.53,38.53,0,0,0-1.04-8.842h44.852c-4.938,7.862-13.8,24.043-20.856,48.29a20.3,20.3,0,0,1-19.4,14.541H46.682A137.445,137.445,0,0,1,62.47,285.266a3.427,3.427,0,1,0-5.829-3.6,139.753,139.753,0,0,0-17.6,44.386,3.426,3.426,0,0,0,3.374,4.024h71.562a27.188,27.188,0,0,0,25.982-19.479c8.247-28.336,19.228-45.49,22.494-50.205h10.5v56.576a13.122,13.122,0,0,0,13.107,13.108h24.286a13.123,13.123,0,0,0,13.108-13.108V266.83a13.287,13.287,0,0,0-6.271-11.268,17.786,17.786,0,0,0,5.583-11.431,201.132,201.132,0,0,0-1.614-46.975,41.869,41.869,0,0,0,14.549,9.772l6.958,45.966a65.237,65.237,0,0,1-12.608,1.88,3.427,3.427,0,0,0,.14,6.851q.072,0,.144,0a70.668,70.668,0,0,0,13.354-1.924l.494,3.268a3.426,3.426,0,0,0,3.221,2.909c.034,0,.226.011.562.011a33.49,33.49,0,0,0,3.7-.237,86.022,86.022,0,0,0-7.248,45.56,11.757,11.757,0,0,0-3.46,8,10.279,10.279,0,0,0,10.263,10.859H289.6a9.237,9.237,0,0,0,8.058-13.748,17.258,17.258,0,0,0-4.805-5.482,74.115,74.115,0,0,1,7.12-49.928h0l6.066-11.506a31.346,31.346,0,0,0,3.607-14.57V231.3a3.427,3.427,0,0,0-6.853,0v3.534a24.477,24.477,0,0,1-2.816,11.374l-3.519,6.675c-4.351-5.506-12.48-14.486-21.683-18.176V201.886l4.279-3.083a3.427,3.427,0,0,0-4.007-5.56l-.272.2V126.728c2.755.482,7.019,2.364,10.226,8.954,4.9,10.067,11.759,13.654,15.745,14.924V164a19.535,19.535,0,0,0-16.09,19.2v20.351a19.518,19.518,0,1,0,39.035,0V183.2A19.535,19.535,0,0,0,307.6,164Zm-93.882,30.6c2.721,13.394,3.635,33.506,2.224,48.908a11.025,11.025,0,0,1-11.064,10.029H116.885a297.163,297.163,0,0,0,33.383-31.816,124.413,124.413,0,0,0,13.9,10.769c-3.2,3.512-6.479,6.936-9.8,10.2a3.426,3.426,0,1,0,4.807,4.884c3.812-3.752,7.577-7.708,11.224-11.765a12.547,12.547,0,0,0,11.944-3.119c9.5-9.089,16.729-20.126,21.123-27.784a12.583,12.583,0,0,0-.815-13.782q4.488-8.023,8.138-16.148C211.468,181.283,212.407,188.146,213.717,194.6ZM178.306,179a6.947,6.947,0,0,1,4.138,2.074l14.041,13.377a5.758,5.758,0,0,1,1.043,7.046c-.059.1-.123.21-.183.313L173.563,182.08C173.724,181.889,175.431,178.889,178.306,179Zm-9.069,8.4,24.5,20.326c-1.022,1.589-2.129,3.239-3.319,4.922l-25.445-19.733C166.386,191.05,167.817,189.194,169.237,187.4Zm-8.358,11.009,25.43,19.722c-1.3,1.63-2.661,3.256-4.1,4.852l-24.673-19.985C158.584,201.543,159.707,200,160.879,198.405Zm9.562,30.024a122.443,122.443,0,0,1-16.154-12.312,5.786,5.786,0,0,1-.737-7.524l0-.007,23.851,19.319A5.765,5.765,0,0,1,170.441,228.429Zm43.02-86.1a16.859,16.859,0,0,1-.547,7.408,184.829,184.829,0,0,1-15.291,36.331l-10.451-9.957h0a12.523,12.523,0,0,0-1.806-1.416,298.432,298.432,0,0,0,15.828-29.2c.041-.089.062-.181.095-.272.011-.011.023-.021.034-.033a31.142,31.142,0,0,0,6.661-13.16A16.152,16.152,0,0,1,213.461,142.328Zm-54.743-36.976c-.319-2.046-.564-3.9-.75-5.66-.231-2.2-.448-4.425-.651-6.643,1.39,1.169,2.826,2.319,4.343,3.43a22.6,22.6,0,0,0,6.308,3.227c-.075.348-.166.682-.231,1.038a8.977,8.977,0,0,0,3.887,9.136,8.723,8.723,0,0,0,9.771-.027c6.829-4.546,14.964-5.11,21.7-1.644.737,15.028-1.725,26.781-6.826,32.348a3.567,3.567,0,0,1-4.812.246,25.065,25.065,0,0,1-6.519-7.859,3.426,3.426,0,0,0-4.834-1.324l-3.14,1.937a3.893,3.893,0,0,1-3.92.11,50.485,50.485,0,0,1-13.292-10.555A98.551,98.551,0,0,0,158.718,105.352Zm52.026-1.908a1.9,1.9,0,0,1-2.136.035c-9.229-5.989-21.4-5.727-31.01.669a1.933,1.933,0,0,1-2.2.009,2.1,2.1,0,0,1-.918-2.177c1.845-10.059,8.236-14.959,19.528-14.959.331,0,.669,0,1.009.013.062,0,.124,0,.187,0,9.414-.28,14.788,4.42,16.463,14.367A2.027,2.027,0,0,1,210.744,103.444ZM195.1,80.18c-12.049-.283-20.647,4.3-24.924,13.028a15.671,15.671,0,0,1-4.468-2.259,69.275,69.275,0,0,1-9.23-8.044c-.487-6.609-.805-12.48-.91-16.306a32.928,32.928,0,0,1,1.718-11.834c8.147-23.214,37.27-21.141,44.39-20.266a31.471,31.471,0,0,1,3.181,10.475,37.151,37.151,0,0,0-3.779-6.358,3.427,3.427,0,0,0-5.485,4.109,32.778,32.778,0,0,1,4.807,9.466,40.009,40.009,0,0,1,1.844,9.547,19.612,19.612,0,0,0-4.051,1.229,3.426,3.426,0,0,0,2.836,6.238,12.093,12.093,0,0,1,1.34-.454V80.917A27.3,27.3,0,0,0,195.1,80.18Zm-107.38,41.9a62.942,62.942,0,0,0,28.654-45.776,117.3,117.3,0,0,1,8.137-32.087,3.426,3.426,0,0,0-.89-3.908,25.431,25.431,0,0,1-6.194-9.106c3.674-3.653,16.936-14.422,45.508-14.423.242-.009,21.366-.265,33.225,10.525-12.912-.285-37.331,2.365-45.34,25.186a39.72,39.72,0,0,0-2.1,14.292c.193,7.049,1.09,20.861,2.433,33.622.2,1.877.458,3.839.794,6,1.993,12.792,5.5,55.215-32.864,64.523-1.779.266-25.593,3.528-47.879-7.969a19.1,19.1,0,0,0-16.64-.409C55.492,154.692,61.08,139.2,87.721,122.084ZM53.888,171.211c.39-.356.786-.7,1.192-1.018a12.159,12.159,0,0,1,12.981-1.141c15.113,7.8,30.546,9.4,40.689,9.4a75.473,75.473,0,0,0,11.565-.779c.078-.013.156-.029.234-.047,27.2-6.528,36.066-27.564,38.471-45.553a59.489,59.489,0,0,0,10.708,7.592,10.752,10.752,0,0,0,10.834-.276l.2-.122a32.5,32.5,0,0,0,6.387,6.867,10.526,10.526,0,0,0,5.044,2.222c-3.235,6.475-7.745,14.839-13.611,24.279-.264,0-.528-.014-.793,0a12.507,12.507,0,0,0-8.957,4.423c-7.292,8.562-16.214,20.96-20.884,27.588a12.679,12.679,0,0,0-1.653,11.248,288.385,288.385,0,0,1-39.546,36.921,38.575,38.575,0,0,0-4.683-7.6l-7.514-9.492a19.1,19.1,0,0,0-9.969-6.541c.171-4.7,1.285-15.107,7.472-22.73a3.427,3.427,0,1,0-5.322-4.318c-7.11,8.76-8.688,19.954-8.976,26.152a147.3,147.3,0,0,0-46.768,3.848C30.988,201.808,51.259,174.88,53.888,171.211Zm49.679,116.844a7.286,7.286,0,0,1-7.278,7.278H86.781a7.269,7.269,0,0,1-7.055-5.492l-1.991-7.865a20.95,20.95,0,0,0-13.38-14.665c-9.668-3.4-26.993-11.193-39.139-26.307,8.26-2.78,28.5-8.167,55.613-5.586a12.178,12.178,0,0,1,8.349,4.56l7.514,9.491a31.968,31.968,0,0,1,6.875,19.761Zm106.591-27.667a6.449,6.449,0,0,1,6.442,6.442v50.134a6.262,6.262,0,0,1-6.255,6.255H186.059a6.261,6.261,0,0,1-6.254-6.255V260.388h30.353Zm40.338-1.5-7.6-50.216a106.043,106.043,0,0,0,25.026.593v27.6a27.09,27.09,0,0,1-2.876,7.586,29.778,29.778,0,0,1-3.166,4.562,71.377,71.377,0,0,0-6.213,8.981A41.26,41.26,0,0,1,250.5,258.886Zm41.153,63.16a2.336,2.336,0,0,1-2.05,1.173H251.225a3.429,3.429,0,0,1-3.422-3.614,5.185,5.185,0,0,1,5.436-5.116h29.654a9.8,9.8,0,0,1,5.459,1.526,10.4,10.4,0,0,1,3.321,3.65A2.355,2.355,0,0,1,291.649,322.046Zm1.3-62.437a81.091,81.091,0,0,0-7.616,48.19,18.369,18.369,0,0,0-2.443-.164H253.239a12.21,12.21,0,0,0-2.252.229c-2.3-29.45,11.7-49.053,16.183-54.5a35,35,0,0,0,6.522-11.649C282.307,245.85,290.114,255.732,292.952,259.609ZM274.774,119.815V83.442a5.271,5.271,0,0,1,5.266-5.265h4.293v45.592A18.044,18.044,0,0,0,274.774,119.815Zm16.388,12.868-.006-.012c.009-.1.031-.2.031-.3V23.1h9.558V143.247C297.991,141.865,294.2,138.925,291.162,132.683Zm25.675,70.865a12.665,12.665,0,1,1-25.329,0V183.2a12.665,12.665,0,1,1,25.329,0Z"/><path d="M185.632,63.054a13.021,13.021,0,0,0-5.609-1.315,3.427,3.427,0,1,0,0,6.853,6.448,6.448,0,0,1,2.4.518,3.427,3.427,0,1,0,3.208-6.056Z"/></svg>