<svg xmlns="http://www.w3.org/2000/svg"  viewBox="0 0 340 340" width="500px" height="500px"><path d="M12.126,325.434a3.426,3.426,0,0,0,3.421,3.281c.049,0,.1,0,.148,0a3.427,3.427,0,0,0,3.278-3.569c-.022-.513-2.019-51.728,11.765-90.96A312.7,312.7,0,0,0,42.5,190.811c7.456,7.494,19.155,13.938,37.424,16.857a102.817,102.817,0,0,1,31.427,11.573c21.636,12.226,35.355,30.179,40.776,53.361a3.426,3.426,0,1,0,6.673-1.56c-7.343-31.4-28.143-48.813-44.3-57.892A107.73,107.73,0,0,0,80.967,200.9c-24.388-3.9-38.9-14.658-43.148-31.988a32.691,32.691,0,0,1,4.547-25.072c11.167-17.592,30.874-23.772,41.9-25.906a19.253,19.253,0,0,0,.317,2.406c-8.459,5.33-13.217,13.639-15.756,19.878a40.38,40.38,0,0,0-2.09,25.091c5.983,24.017,31.338,30.6,33.721,31.165,31.294,9.721,52.505,29.522,63.047,58.855a112.568,112.568,0,0,1,6.524,41.857c-.008.09-.011.18-.011.271v27.836a3.427,3.427,0,1,0,6.853,0V297.579a114.821,114.821,0,0,0-3.634-33.823c.006-.031.018-.059.023-.09a255.065,255.065,0,0,1,5.837-27.558c9.037-33.378,3.243-66.278,1.99-72.534a3.394,3.394,0,0,0-.185-.6c.05-1.042.076-2.116.092-3.2,19.043,25.617,10.364,68.221,5.377,86.388a82.463,82.463,0,0,0-2.926,21.825v57.3a3.427,3.427,0,1,0,6.853,0v-57.3a75.642,75.642,0,0,1,2.681-20.011,182.265,182.265,0,0,0,6.5-41.121,62.313,62.313,0,0,0,31.725,15.385,57.013,57.013,0,0,0-1.807,13.708,3.428,3.428,0,0,0,3.377,3.476h.05a3.428,3.428,0,0,0,3.426-3.377c.136-9.39,2.591-15.238,2.642-15.358.007-.016.009-.032.016-.048s.021-.039.029-.06a11.976,11.976,0,0,1,3.305-4.761,10.609,10.609,0,0,1,8.633-2.428,11.961,11.961,0,0,1,8.332,5.469,19.4,19.4,0,0,1,2.38,5.736c-15.116,25.923-7.413,97.966-7.072,101.068a3.426,3.426,0,0,0,6.812-.748c-.057-.52-3.926-36.669-1.286-66.273H269.5c1.6,17.207,3.123,42.075,1.837,66.467a3.426,3.426,0,0,0,3.242,3.6c.061,0,.122,0,.183,0a3.428,3.428,0,0,0,3.419-3.247c1.291-24.5-.2-49.413-1.8-66.827h4.35a12.624,12.624,0,0,0,6.031,4.962c.114,35.136-.063,61.4-.065,61.662a3.428,3.428,0,0,0,3.4,3.45h.024a3.426,3.426,0,0,0,3.426-3.4c0-.264.177-26.113.068-60.838,0,0,12.466-.029,12.816-.053-.068,26.024-.342,46.462-.817,60.753a3.426,3.426,0,0,0,3.311,3.539l.115,0a3.428,3.428,0,0,0,3.423-3.313c.49-14.755.768-36,.827-63.125a15.482,15.482,0,0,0,7.578-13.293V230.159a15.484,15.484,0,0,0-7.657-13.341c-.21-42.46-.725-83.047-1.017-103.576a49.164,49.164,0,0,1,3.062-17.588,284.882,284.882,0,0,0,12.726-50.472,3.425,3.425,0,0,0-.5-2.334c-9.932-15.564-32-30.366-32.938-30.988a3.428,3.428,0,0,0-4.236.345c-21.238,19.8-25.914,50.865-26.1,52.177a3.426,3.426,0,0,0,.515,2.35C271.364,77,283.172,85.391,288.362,88.773l-1.617,3.868a41.907,41.907,0,0,0-3.146,18.411c1.386,24.568,2.337,59.759,2.828,104.611A12.642,12.642,0,0,0,280,221.827H267.95a26.048,26.048,0,0,0-2.937-6.624,18.811,18.811,0,0,0-13.109-8.591,17.608,17.608,0,0,0-14.117,4,18.231,18.231,0,0,0-4.09,5.053,55.378,55.378,0,0,1-33.873-18.31,3.32,3.32,0,0,0-.4-.375c-.81-17.573-5.634-35.413-18.812-48-.057-.7-.1-1.39-.171-2.108a33.913,33.913,0,0,0-2.537-10.131c-2.418-5.607-5.426-8.112-8.149-9.116a142.416,142.416,0,0,0-2.868-20.74c33.192,4.693,54.427-3.177,66.784-11.2,15.343-9.954,20.756-22.146,20.979-22.661a3.426,3.426,0,0,0-2.722-4.763c-27.173-3.365-57.561-3.147-82.617-1.909a58.155,58.155,0,0,0-23.481-39.893c-11.519-8.625-24.714-12.786-33.755-14.757a18.881,18.881,0,0,0-19.129,7.212c-11.594,15.605-20.683,19.815-26.266,20.6-5.334.748-8.291-1.46-8.372-1.521a3.427,3.427,0,0,0-5.571,3.073,45.861,45.861,0,0,0,1.446,7.152A21.727,21.727,0,0,0,67.459,62.576a22.193,22.193,0,0,0,19.857-1.987c2.88-1.812,5.359-3.2,7.321-4.225L93.644,73.95c-8.253,1.3-15.71,2.679-22.048,4.088-35.722,7.939-50.762,3.456-50.888,3.417a3.427,3.427,0,0,0-3.723,5.421c13.944,17.113,31.086,22.393,46.935,22.393a85.357,85.357,0,0,0,22.091-3.11,29.864,29.864,0,0,0-1.236,4.711c-11.64,2-35.011,8.523-48.2,29.292a39.57,39.57,0,0,0-5.417,30.375,43.446,43.446,0,0,0,5.671,13.252A307,307,0,0,1,24.272,231.91C10.043,272.409,12.034,323.288,12.126,325.434ZM267.16,228.681h11.592v23.107H260.8C262.016,242.54,264.019,234.353,267.16,228.681ZM271.206,64.1c1.051-5.645,6.2-28.953,21.806-44.953,5.637,4.02,20.367,15.111,27.991,26.328-.869,5.411-4.646,27.175-12.184,47.833a56,56,0,0,0-3.476,20.035c.286,20.172.79,59.724,1,101.378-.322-.02-.642-.049-.97-.049H293.271c-.5-44.519-1.447-79.5-2.83-104a35,35,0,0,1,2.628-15.382l2.546-6.092a58.631,58.631,0,0,0,11.934-37.053A18.041,18.041,0,0,0,301.831,39.6l-3.388-3.19a3.428,3.428,0,0,0-3.875-.573c-.97.483-9.576,5.231-12.958,23.157a3.427,3.427,0,0,0,6.735,1.271c1.849-9.8,5.412-14.694,7.544-16.847l1.244,1.172a11.376,11.376,0,0,1,3.567,7.794c.529,14.464-5.767,25.721-8.924,30.417C287.069,79.7,277.1,72.529,271.206,64.1Zm14.4,163.146a5.727,5.727,0,0,1,5.721-5.721h14.052a8.646,8.646,0,0,1,8.637,8.637v18.825a8.646,8.646,0,0,1-8.637,8.637H291.326a5.727,5.727,0,0,1-5.721-5.721Zm-113.119,7.074c-1.39,5.134-2.613,10.356-3.693,15.612-8.383-21.267-26.647-47.729-66.42-60.042q-.128-.04-.258-.069c-.235-.053-23.587-5.551-28.725-26.171A33.588,33.588,0,0,1,75.179,142.8c2.051-5.041,5.773-11.649,12.131-16.042a12.329,12.329,0,0,0,2.061,2.2,12.131,12.131,0,0,0,4.763,2.4A28.922,28.922,0,0,0,90.8,138.69a31.156,31.156,0,0,0,3.086,24.436,48.544,48.544,0,0,0,12.732,14.219,3.43,3.43,0,0,0,3.051.557,17.279,17.279,0,0,0,5.966-3.485,78.255,78.255,0,0,0,41.1,34.527,3.429,3.429,0,0,0,2.865-.247c.677-.387,11.224-6.668,17.26-23.854C177.72,198.116,177.405,216.15,172.486,234.317Zm1.139-86.766c3.586,36.535-11.6,50.888-16.18,54.34-27.572-10.742-37.918-34.862-38.018-35.1a3.428,3.428,0,0,0-3.044-2.115l-.124,0a3.426,3.426,0,0,0-3.064,1.894,9.871,9.871,0,0,1-4,4.08,41.057,41.057,0,0,1-9.386-10.959,24.28,24.28,0,0,1-2.446-19.035,21.8,21.8,0,0,1,3.385-6.852c3.467,6.13,11.083,16.153,23.821,16.153,12.514,0,19.849-6.329,23.8-11.639A11.256,11.256,0,0,1,157.4,133.9h9.069c2.386,0,4.246,3.487,5.143,5.566A27.1,27.1,0,0,1,173.625,147.551Zm-13.1-37.735a42.981,42.981,0,0,0-4.129,1.429,3.427,3.427,0,0,0,2.655,6.319c.016-.007,1.075-.443,2.662-.944q.729,4.97,1.142,10.425H157.4a18.136,18.136,0,0,0-14.536,7.176c-3.012,4.05-8.632,8.877-18.3,8.877-13.151,0-19.536-16.053-19.654-16.356a3.2,3.2,0,0,0-3.908-2.132c-3.226.679-5.665.368-7.247-.925-2.212-1.806-2.676-5.461-2.667-6.759a23.361,23.361,0,0,1,3.54-12.893c1.781-.379,3.573-.714,5.373-1.02a38.61,38.61,0,0,1,5.417,9.749,8.959,8.959,0,0,0,7.929,5.825c.189.011.377.017.565.017a8.876,8.876,0,0,0,7.937-4.81,41.41,41.41,0,0,0,4.234-12.652A142.473,142.473,0,0,1,153.74,104.5c1.983.441,3.918.827,5.828,1.186C159.905,107.029,160.227,108.4,160.52,109.816Zm-52.883-7.881q5.706-.636,11.488-.787a34.674,34.674,0,0,1-3.342,9.464,2.074,2.074,0,0,1-2.022,1.134,2.141,2.141,0,0,1-1.932-1.417A46.263,46.263,0,0,0,107.637,101.935ZM28.874,89.468c8.622.5,22.963-.019,44.209-4.74,10.555-2.346,24.3-4.616,39.747-6.565a3.426,3.426,0,1,0-.858-6.8c-3.915.494-7.725,1.009-11.4,1.54l1.229-21.76.279-2a18.709,18.709,0,0,0-.645-8.043,3.427,3.427,0,1,0-6.55,2.017,11.828,11.828,0,0,1,.408,5.079l-.033.232a99.542,99.542,0,0,0-11.588,6.36A15.393,15.393,0,0,1,69.892,56.17a14.934,14.934,0,0,1-9.124-9.853c-.013-.044-.025-.087-.037-.13a20.924,20.924,0,0,0,6.525.177c10.119-1.251,20.615-9.107,31.2-23.349a12.02,12.02,0,0,1,12.168-4.6c17.426,3.8,46.883,15.12,51.827,48.327-4.388.257-8.579.54-12.5.833a3.427,3.427,0,0,0,.512,6.834c25.719-1.925,62.6-3.4,95.475.079a56.086,56.086,0,0,1-16.35,15.7c-18.353,11.725-44.063,14.362-74.35,7.623a145.21,145.21,0,0,0-70.248,1.533C62.13,105.708,43.305,102.383,28.874,89.468Z"/><path d="M157.321,281.935a3.427,3.427,0,0,0-3.093,3.731q.089.944.161,1.9a3.426,3.426,0,0,0,3.413,3.169c.086,0,.174,0,.261-.01a3.427,3.427,0,0,0,3.16-3.675q-.078-1.02-.171-2.024A3.434,3.434,0,0,0,157.321,281.935Z"/><path d="M144.234,111.874a33.329,33.329,0,0,0-4.949-.882,3.427,3.427,0,1,0-.647,6.823,26.626,26.626,0,0,1,3.769.665,3.427,3.427,0,0,0,1.827-6.606Z"/></svg>