<svg xmlns="http://www.w3.org/2000/svg"  viewBox="0 0 340 340" width="500px" height="500px"><path d="M322.137,189.7a3.428,3.428,0,0,0-3.781,1.13c-66.422,84.371-168.184,92.918-194.283,93.685v-7.283a10.232,10.232,0,0,0-10.221-10.22h-3.4a10.226,10.226,0,0,0-9.249,5.9,115.237,115.237,0,0,1-3.353-11.55,3.466,3.466,0,0,0,.086-.355q.244-1.77.54-3.5c4.249,1.42,14.183,3.983,30.51,3.983a188.773,188.773,0,0,0,24.274-1.673c-.261,3.776-.4,7.832-.345,12.154a3.426,3.426,0,0,0,3.425,3.383h.044a3.426,3.426,0,0,0,3.383-3.469,132.1,132.1,0,0,1,3.551-32.817,11.185,11.185,0,0,0,.306-2.278,14.663,14.663,0,0,0,9.285-3.394l3.262,4.277a4.9,4.9,0,0,1,.912,3.886,27.338,27.338,0,0,1-4.779,10.89,19.978,19.978,0,0,0-3.461,14.76l.257,1.645a3.426,3.426,0,1,0,6.771-1.056l-.256-1.645a13.076,13.076,0,0,1,2.227-9.668,34.2,34.2,0,0,0,5.972-13.639,11.755,11.755,0,0,0-2.194-9.33l-1.377-1.8.94-.282a4.889,4.889,0,0,1,6.151,3.48,246.713,246.713,0,0,1,5.335,27.239,3.427,3.427,0,1,0,6.795-.891,253.786,253.786,0,0,0-5.484-28.022,11.717,11.717,0,0,0-14.144-8.524q.8-1.44,1.427-2.865a181.737,181.737,0,0,1,31.811-16l3.341,10.186c-3.464,1.715-9.914,4.978-17.4,9.106a3.427,3.427,0,1,0,3.309,6c10.979-6.053,19.667-10.205,19.754-10.246a3.427,3.427,0,0,0,1.781-4.161l-5.394-16.448A3.427,3.427,0,0,0,214,198.143a203.094,203.094,0,0,0-29.888,13.948,20.621,20.621,0,0,0-1.6-11.067c-4.031-9.188-8.122-22.692-11.422-34.856A203.259,203.259,0,0,1,192.12,144.2,9.988,9.988,0,0,0,193.9,131.53a89.65,89.65,0,0,0-10.4-13.673,10.923,10.923,0,0,0,6.4-5.359c11.952-22.842,11.751-53.637,11.737-54.937v-.009c-.012-1.1-.755-35.892-34.256-37.527-2.163-.164-28.7-1.6-38.27,23.838-3.706-1.8-8.7-4.3-13.642-6.976a24.279,24.279,0,0,0-8.047-19.642c-9.463-8.731-23.966-8.8-33.019-.157-6.477,6.184-10.458,15.787-11.833,28.544A67.962,67.962,0,0,1,52.556,74.479c-14.149,22.413-13.888,43-11.178,56.316,2.941,14.456,9.227,23.559,9.493,23.939a3.427,3.427,0,0,0,6.213-2.349C54.8,132.174,68.23,119.07,68.359,118.947c.036-.035.072-.07.107-.106,21.77-22.476,33.447-43.3,39.41-56.809a3.427,3.427,0,0,0-6.27-2.767C95.874,72.255,84.623,92.3,63.588,114.027a49.081,49.081,0,0,0-12.815,24.865c-4.675-13.128-8.223-35.724,7.578-60.755A74.85,74.85,0,0,0,69.386,46.366c.822-7.633,3.183-18.049,9.751-24.321,6.444-6.152,16.828-6.048,23.64.237a17.4,17.4,0,0,1,5.712,10.632,74.939,74.939,0,0,1-7.25-4.849,3.428,3.428,0,0,0-4.963.8,15.225,15.225,0,0,0,0,16.02,16.837,16.837,0,0,0,6.858,6.1c4.57,2.272,15.965,8.288,23.927,15.41a29.743,29.743,0,0,0,8.449,14.564,15.566,15.566,0,0,0,1.913,4.729,11.459,11.459,0,0,0,3.657,3.723L137.2,100.8c-1.423-.642-2.314-.98-2.48-1.041a3.427,3.427,0,0,0-4.512,2.363l-2.456,9.6a104.088,104.088,0,0,0-17.52,11.94,50.207,50.207,0,0,1-3.032-4.078,10.134,10.134,0,0,0-8.117-4.545,10.4,10.4,0,0,0-8.548,3.931c-15.669,19.881-27.353,43.349-31.65,52.517a11.876,11.876,0,0,0,.669,11.441,48.672,48.672,0,0,0,8.19,9.828,91.812,91.812,0,0,0-5.567,14.549,61.451,61.451,0,0,0-8.751-2.779,3.427,3.427,0,0,0-4.144,3.376c.261,36.372,17.87,65,21.711,70.817l-.2,2.5a393.749,393.749,0,0,1-43.42-6.436,9.492,9.492,0,0,0-11.3,8.119l-.488,3.857a9.5,9.5,0,0,0,6.444,10.213c12.978,4.253,32.971,7.1,47.692,8.753a14.379,14.379,0,0,0,4.809,7.311c4.929,3.975,13.3,8.487,25.882,8.487l.119,0a10.23,10.23,0,0,0,9.925,7.823h3.4a10.232,10.232,0,0,0,10.221-10.22v-7.753a294.349,294.349,0,0,0,143.141-40.19c33.273-19.535,50.927-38.677,51.662-39.482a3.445,3.445,0,0,0,.589-.892c5.468-12.024,5.03-36.878,5.009-37.93A3.427,3.427,0,0,0,322.137,189.7ZM99.855,250.718a92.018,92.018,0,0,1,5.276-15.925,4.146,4.146,0,0,1,3.787-2.479H152.69a4.062,4.062,0,0,1,3.215,1.563,4.128,4.128,0,0,1,.761,3.553,128.935,128.935,0,0,0-2.746,15.38C121.257,257.286,103.891,252.163,99.855,250.718Zm77.38-38.9a29.291,29.291,0,0,1-8.381,16.039,7.816,7.816,0,0,1-5.412,2.086H161.5c-.07-.1-.129-.2-.2-.292a10.874,10.874,0,0,0-8.607-4.186H113.426a15.342,15.342,0,0,0-3.057-8.46c-.4-.533-.848-1.128-1.321-1.78a3.427,3.427,0,1,0-5.545,4.027c.5.692.973,1.325,1.4,1.892a8.437,8.437,0,0,1,1.677,4.575,11.005,11.005,0,0,0-7.723,6.314,95.871,95.871,0,0,0-4.337,12.061c-.4-2.562-.724-4.91-.981-6.893a23.71,23.71,0,0,0-3.381-9.471,108.887,108.887,0,0,1,11.976-20.837c.259.017.519.033.776.033a12.081,12.081,0,0,0,10.445-6.023l26.349-45.824a10.265,10.265,0,0,0,.738-8.683,10.4,10.4,0,0,0-6.282-6.212,55.369,55.369,0,0,1-19.22-11.528,97.064,97.064,0,0,1,15.693-10.693,132.227,132.227,0,0,1,26.954,22.289c1.429,6.383,9.985,43.784,18.648,63.53A13.719,13.719,0,0,1,177.235,211.814Zm-93.11-71.948c4.381,8.351,16.433,25.727,41.062,26.713l-7.522,13.082c-33.6,2.357-41.135-24.428-41.448-25.607a3.49,3.49,0,0,0-.247-.657C78.4,149.106,81.131,144.524,84.125,139.866Zm103.394-.741a222.337,222.337,0,0,0-18.574,18.905c-2.195-8.541-3.821-15.555-4.5-18.561l5.843-7.4a3.427,3.427,0,0,0,.11-4.1,75.089,75.089,0,0,0-4.807-6.09c.731-1.512,1.625-3.139,2.34-4.4a14.914,14.914,0,0,0,5.089.9h1.331a80.442,80.442,0,0,1,13.733,16.763A3.136,3.136,0,0,1,187.519,139.125Zm-3.688-29.805a4.087,4.087,0,0,1-3.625,2.21h-7.19a8.008,8.008,0,0,1-4.609-1.443A39.1,39.1,0,0,1,157.713,99.1a11.293,11.293,0,0,1-1.607-4.952l-.624-6.949a3.428,3.428,0,0,0-4.417-2.97c-.055.016-5.487,1.631-7.809-2.133-1.872-3.034-1.432-6.466-.731-8.811a4.821,4.821,0,0,1,3.187-3.259,4.542,4.542,0,0,1,4.231.734,10.4,10.4,0,0,1,3.6,5.458,3.427,3.427,0,0,0,3.225,2.468,3.474,3.474,0,0,0,3.316-2.343A95.712,95.712,0,0,1,164.6,64.823a11.339,11.339,0,0,1,10.033-6.442c8.928-.156,15.929.412,20.124,1.606A155.522,155.522,0,0,1,192.8,80.256l-3.766.535a3.427,3.427,0,0,0,.478,6.82c.161,0,1.926-.239,1.926-.239A89.349,89.349,0,0,1,183.831,109.32Zm10.515-56.472q-2.3-.483-5.137-.792a36.474,36.474,0,0,0-6.063-19.795C190.881,38.1,193.477,47.273,194.346,52.848ZM173.3,30.867c3.552,3.781,8.791,10.978,9.04,20.716q-2.758-.094-5.848-.077c-1.782-10.455-8.464-15.1-8.763-15.3a3.427,3.427,0,0,0-3.869,5.656c.2.138,4.461,3.245,5.809,10.412a18.083,18.083,0,0,0-7.407,4.3A33.518,33.518,0,0,0,141.246,36.64c7.5-8.438,18.213-9.541,24.467-9.266A11.069,11.069,0,0,1,173.3,30.867Zm-71.205,10.4a8.02,8.02,0,0,1-1.229-5.054c7.665,5.086,18.8,10.714,26.288,14.317a41.514,41.514,0,0,0-.886,6.423,141.928,141.928,0,0,0-20.081-12.1A10.009,10.009,0,0,1,102.094,41.264Zm32.114,9.186a36.534,36.534,0,0,1,2.959-7.84c3.429.788,16.055,4.743,20.137,20.83a3.532,3.532,0,0,0,.164.474c-.448,1.01-.9,2.076-1.349,3.224a16.888,16.888,0,0,0-1.974-1.8,11.371,11.371,0,0,0-4.153-2.018,18.224,18.224,0,0,0-9.127-11.5,3.426,3.426,0,1,0-2.882,6.217,11.346,11.346,0,0,1,4.965,5.719,11.707,11.707,0,0,0-6.79,7.017C133.446,66.051,131.907,59.439,134.208,50.45Zm13.44,40.941c.453.024.9.031,1.332.02l.3,3.346a18.167,18.167,0,0,0,2.62,7.969,44.592,44.592,0,0,0,10.179,11.179c-.452.79-.978,1.734-1.51,2.733a87.259,87.259,0,0,0-17.2-12.7Zm-11.806,16.358a79.211,79.211,0,0,1,27.445,22.125l-2.756,3.489a137.182,137.182,0,0,0-25.874-20.981ZM95.918,123.215a3.459,3.459,0,0,1,2.743-1.328q.073,0,.147,0a3.349,3.349,0,0,1,2.687,1.494,60.2,60.2,0,0,0,30.358,23.248,3.571,3.571,0,0,1,2.161,2.127,3.384,3.384,0,0,1-.248,2.9l-4.651,8.089C98.683,160.8,88.973,134.33,88.573,133.2v0C90.9,129.822,93.355,126.468,95.918,123.215ZM65.345,179.266a5.117,5.117,0,0,1-.254-4.868c1.42-3.031,3.669-7.665,6.611-13.215,4.215,8.857,15.619,25.492,41.841,25.492l.089,0-6.215,10.81a5.2,5.2,0,0,1-4.934,2.567C93.021,199.252,75.614,195.489,65.345,179.266Zm7.913,17.878a57.478,57.478,0,0,0,21.257,8.691,116.877,116.877,0,0,0-9.26,16.035A66.9,66.9,0,0,0,68.5,210.125,85.618,85.618,0,0,1,73.258,197.144Zm9.106,31.57a16.98,16.98,0,0,1,4.381,9.363c1.095,8.455,3.394,23.121,7.293,35.034-4.954-.813-11.986-1.339-18.15.524-4.477-7.191-18.107-31.355-19.619-61.169C62.331,214.484,73.65,219.249,82.364,228.714Zm-59.98,58.908.487-3.856a2.641,2.641,0,0,1,3.144-2.262,400.764,400.764,0,0,0,44.224,6.55l-.868,10.738c-14.278-1.635-33.1-4.359-45.209-8.329A2.636,2.636,0,0,1,22.384,287.622ZM76.053,301.2l1.694-20.974c6.7-2.109,15.467-.423,19.045.434l1.691,4.729a29.909,29.909,0,0,1,1.752,10.1v19.187c-10.5-.044-17.378-3.721-21.4-6.966A7.567,7.567,0,0,1,76.053,301.2Zm41.167,17.933a3.371,3.371,0,0,1-3.368,3.367h-3.4a3.371,3.371,0,0,1-3.368-3.367V277.233a3.371,3.371,0,0,1,3.368-3.367h3.4a3.371,3.371,0,0,1,3.368,3.367Zm196.226-91.654c-2.7,2.832-20.051,20.432-49.936,37.938A287.5,287.5,0,0,1,124.073,304.52V291.372c25.726-.735,125.005-8.892,193.378-88.647C317.106,210.5,316.131,221.132,313.446,227.474Z"/><path d="M177.157,80.685l-3.13-.635a3.427,3.427,0,0,0-1.363,6.717l3.131.635a3.427,3.427,0,0,0,1.362-6.717Z"/><path d="M112.413,239.171a3.668,3.668,0,1,0,3.668,3.668A3.668,3.668,0,0,0,112.413,239.171Z"/><path d="M142.324,239.756a3.668,3.668,0,1,0,3.668,3.668A3.668,3.668,0,0,0,142.324,239.756Z"/><circle cx="140.739" cy="272.939" r="3.668"/><circle cx="99.41" cy="134.959" r="3.668"/><circle cx="73.225" cy="178.554" r="3.668"/><circle cx="97.697" cy="192.095" r="3.668"/><path d="M120.253,154.044a3.668,3.668,0,1,0-3.668-3.668A3.668,3.668,0,0,0,120.253,154.044Z"/><path d="M85.339,159.958a3.668,3.668,0,1,0-3.668-3.668A3.668,3.668,0,0,0,85.339,159.958Z"/><circle cx="107.737" cy="171.218" r="3.668"/></svg>