<svg xmlns="http://www.w3.org/2000/svg"  viewBox="0 0 340 340" width="500px" height="500px"><path d="M252.005,24.405A40.29,40.29,0,1,0,292.3,64.695,40.336,40.336,0,0,0,252.005,24.405Zm-10.994,8.719V53.7H220.434A33.593,33.593,0,0,1,241.011,33.124ZM220.434,75.689h20.577V96.266A33.588,33.588,0,0,1,220.434,75.689Zm27.43,22.178V72.262a3.426,3.426,0,0,0-3.426-3.426h-25.6a32.358,32.358,0,0,1,0-8.281h25.6a3.426,3.426,0,0,0,3.426-3.427v-25.6A33.341,33.341,0,0,1,283.577,53.7H263V40.55a3.427,3.427,0,1,0-6.853,0V57.128a3.427,3.427,0,0,0,3.427,3.427h25.6a32.479,32.479,0,0,1,0,8.281h-25.6a3.427,3.427,0,0,0-3.427,3.426V97.867A68.11,68.11,0,0,1,247.864,97.867ZM263,96.266V75.689h20.578A33.587,33.587,0,0,1,263,96.266Z"/><path d="M252.005,9.928a54.77,54.77,0,0,0-10.994,108.425v53.531a14.466,14.466,0,0,0-6.245,11.2c-16.525.253-25.47,9.3-29.182,14.323a50.719,50.719,0,0,1-15.913-17.695,3.206,3.206,0,0,0-.221-.337,60.642,60.642,0,0,0,1.026-7.142,22.962,22.962,0,0,0-8.352-19.779c-.528-.431-1.08-.87-1.648-1.314,3.671-3.364,5.735-8.07,6.011-13.844.375-7.889-2.594-15.577-8.826-22.853a25.45,25.45,0,0,1-5.966-13.084c-.842-6.12-1.668-16.793-.822-32.873.052-.907,1.106-22.341-12.643-33.916-7.967-6.708-19.043-8.608-32.932-5.655a28.552,28.552,0,0,0-20.866-2.643C94.077,29.069,85.317,37.9,78.4,52.529c-.043.09-.081.181-.116.274a104.407,104.407,0,0,0-5.62,29.938A38.192,38.192,0,0,1,63.2,107.024C53.875,117.491,43.434,133.531,46.64,150.5a22.7,22.7,0,0,0,9.827,14.824,3.427,3.427,0,1,0,3.788-5.712,15.894,15.894,0,0,1-6.881-10.384C50.685,135,60.015,120.9,68.316,111.583a45.053,45.053,0,0,0,11.2-28.637,99.417,99.417,0,0,1,5.15-27.633c5.985-12.59,13.206-20.126,21.464-22.4a21.97,21.97,0,0,1,16.653,2.468,3.422,3.422,0,0,0,2.711.511c12.3-2.853,21.818-1.542,28.3,3.9,11.128,9.34,10.25,28.121,10.239,28.319-.7,13.353-.408,24.853.875,34.182a32.3,32.3,0,0,0,7.551,16.609c5.058,5.9,7.475,11.983,7.185,18.068-.217,4.548-1.835,7.834-4.914,10.016-7.477-5-17.068-9.835-27.887-11.609a8.97,8.97,0,0,1-5.493-4.527,54.062,54.062,0,0,0,5.8-5.413c.531-.571,1.032-1.165,1.511-1.773.185,1.648.409,3.338.684,5.04a3.426,3.426,0,1,0,6.765-1.092,126.451,126.451,0,0,1-1.387-20.883c0-.157.01-.314.011-.471,0-.082,0-.128,0-.135v-.011c0-.037,0-.075,0-.112V91.5a3.427,3.427,0,0,0-2.005-3.118c-23.581-10.753-25.1-31.041-25.151-31.9a3.428,3.428,0,0,0-4.252-3.127C112.769,56,104.559,63.523,100.214,74.55a32.969,32.969,0,0,0-2.275,12.141v17.366a27.7,27.7,0,0,0,4.372,15.217,36.209,36.209,0,0,0,3.971,5.031s-.055,5.212-3.566,7.634c-1.683,1.161-3.536,2.526-5.483,4.1-30.584,22.681-51.242,62.925-59.745,116.4a350.852,350.852,0,0,0-3.68,74.49,3.427,3.427,0,0,0,3.411,3.147c.094,0,.188,0,.284-.012a3.426,3.426,0,0,0,3.135-3.694,343.614,343.614,0,0,1,3.642-73c5.6-35.135,19.614-82.3,54.475-109.864,4.4,5.1,15.364,15.363,34.143,18.565a11.545,11.545,0,0,0,.467,2.488l2.27,7.385a11.423,11.423,0,0,0,1.827,3.556c-13.891,17.211-40.685,62.916-31.058,151.52a3.426,3.426,0,0,0,3.4,3.057,3.373,3.373,0,0,0,.374-.02,3.428,3.428,0,0,0,3.037-3.777,309.763,309.763,0,0,1-1.538-50.945l15.3,7.994a13.948,13.948,0,0,0,15.44-1.661l15.171-12.67a55.985,55.985,0,0,1,22.2,31.464c5.445,19.331,9.2,27.327,9.355,27.658a3.427,3.427,0,0,0,6.193-2.935c-.036-.078-3.695-7.922-8.951-26.581-6.12-21.73-20.518-32.5-25.676-35.755a233.816,233.816,0,0,1,2.313-32.79,26.676,26.676,0,0,0,3.039-1.534,26.979,26.979,0,0,0,3.77-2.7c6.729,10.179,17.885,26.731,28.328,40.769,0,.034,0,.067.007.1,2.609,14.872,7.085,37.5,13.593,60.878a3.427,3.427,0,0,0,6.6-1.839c-4.764-17.112-8.427-33.827-11.057-47.332,2.918,3.578,5.628,6.676,7.972,9.021,9.654,9.654,19.415,11.616,25.731,11.623v27.607a3.427,3.427,0,1,0,6.853,0v-112.4c.444.041.891.068,1.345.068h5.527c.476,0,.946-.026,1.41-.071v112.4a3.427,3.427,0,1,0,6.853,0V211.71a14.469,14.469,0,0,0,6.217-11.874V183.808A14.466,14.466,0,0,0,263,171.934V118.353A54.77,54.77,0,0,0,252.005,9.928ZM177.793,157.763a16.114,16.114,0,0,1,5.855,13.883c-.987,11.541-4.732,17.784-7.277,20.768a77.3,77.3,0,0,0-19.425-18.807,11.448,11.448,0,0,0,.678-8.427l-2.269-7.386a11.467,11.467,0,0,0-5.9-6.913,51.618,51.618,0,0,0,.371-7.9C161.405,145.865,171.276,152.448,177.793,157.763ZM148,173a4.655,4.655,0,0,1-5.81-3.078l-2.27-7.385a4.649,4.649,0,0,1,8.888-2.732l2.269,7.385A4.654,4.654,0,0,1,148,173Zm-43.2-86.312a26.139,26.139,0,0,1,1.8-9.629c2.188-5.553,6.491-12.483,14.808-15.884,1.636,7.474,7.271,22.882,26.489,32.482v12.27c0,.044,0,.11-.006.2a21.563,21.563,0,0,1-5.747,14.637,39.943,39.943,0,0,1-9.721,7.876,7.452,7.452,0,0,1-6.009.45c-4.57-1.567-13.032-5.414-18.357-13.565a20.865,20.865,0,0,1-3.256-11.468Zm-.583,52.6c.818-.61,1.606-1.174,2.355-1.682a14.982,14.982,0,0,0,5.9-7.989,47.574,47.574,0,0,0,11.723,5.951,14.625,14.625,0,0,0,4.756.8,14.041,14.041,0,0,0,6.684-1.679,15.667,15.667,0,0,0,7.259,6.5,46.806,46.806,0,0,1-.193,8.619,11.266,11.266,0,0,0-8.255,5.584A51.656,51.656,0,0,1,104.209,139.292Zm49.645,123.894L138.028,276.4a7.116,7.116,0,0,1-7.874.848l-17.94-9.372a216.381,216.381,0,0,1,5.919-35.423H151.05a32.058,32.058,0,0,0,4.77-.367A249.576,249.576,0,0,0,153.854,263.186Zm8.713-40.561A22.543,22.543,0,0,1,151.05,225.6h-31c.305-1.022.6-2.053.921-3.062,7.071-22.192,16.387-36.042,22.082-43.053a11.487,11.487,0,0,0,9.112-.842c6.318,4.22,14.465,10.931,20.257,20.225C172.824,202.013,173.9,215.9,162.567,222.625Zm57.559,59.942c-12.543-12.542-37.016-49.064-45.583-62.06,5.261-7.941,5.16-17.272,4.791-21.374a30.569,30.569,0,0,0,7.44-10.993A60.466,60.466,0,0,0,202.3,203.467a44.88,44.88,0,0,0-2.906,17.712,3.426,3.426,0,0,0,3.42,3.272c.052,0,.1,0,.157,0a3.427,3.427,0,0,0,3.268-3.579,37.674,37.674,0,0,1,3.379-17.1l.008-.019.008-.013c.294-.574,7.095-13.435,25.093-13.8v4.09c-4.343,1.752-10.04,6.137-11.122,17.143-.011.111-.017.223-.017.335v37.924a35.192,35.192,0,0,0,3.092,14.728c3.205,7.019,8.133,11.6,14.329,13.385v14.642C235.434,292.216,227.883,290.325,220.126,282.567Zm20.885-12.307c-3.376-1.564-6.092-4.555-8.095-8.943a28.379,28.379,0,0,1-2.472-11.881V211.685c.54-5.18,2.359-8.158,4.438-9.862a14.479,14.479,0,0,0,6.129,9.936Zm8.2-62.8a7.635,7.635,0,0,1-7.627-7.626V183.808a7.635,7.635,0,0,1,7.627-7.627h5.527a7.634,7.634,0,0,1,7.626,7.627v16.028a7.634,7.634,0,0,1-7.626,7.626Zm6.937-38.063c-.464-.045-.934-.071-1.41-.071h-5.527c-.454,0-.9.027-1.345.068V119.29c1.369.1,6.913.1,8.282,0Zm-4.141-56.79a47.914,47.914,0,1,1,47.914-47.914A47.968,47.968,0,0,1,252.005,112.609Z"/><path d="M115.079,100.7a28.261,28.261,0,0,1,4.423.588,3.427,3.427,0,0,0,1.629-6.657,34.819,34.819,0,0,0-5.733-.776,3.426,3.426,0,0,0-.319,6.845Z"/><path d="M134.135,101.386a3.437,3.437,0,0,0,.817-.1,28.215,28.215,0,0,1,4.422-.588,3.426,3.426,0,0,0-.317-6.845,34.819,34.819,0,0,0-5.733.776,3.427,3.427,0,0,0,.811,6.756Z"/></svg>