<svg xmlns="http://www.w3.org/2000/svg"  viewBox="0 0 340 340" width="500px" height="500px"><path d="M319.343,51.973,292.6,15.156a5.409,5.409,0,0,0-4.439-2.23h0a5.411,5.411,0,0,0-4.386,2.335L258.242,52.245a6.328,6.328,0,0,0-1.115,3.321h0a6.324,6.324,0,0,0,.822,3.4l3.136,5.515A19.831,19.831,0,0,0,253.443,75.2a19.611,19.611,0,0,0,5.549,19.642l11.149,10.622c-3.684,12.8,2.5,22.978,6.6,27.979A13.481,13.481,0,0,1,279.791,142v74.762a15.126,15.126,0,0,0-7.449,7.3l-26.614-.955a207.989,207.989,0,0,0-36.356-54.059c11.773-2.8,18.868-10.61,19.972-22.512.01-.106.015-.211.015-.317,0-.428-.078-10.564-6.84-18.091a18.532,18.532,0,0,1-4.655-14.2c.727-8.117-2.164-20.185-20.066-31.583A24.681,24.681,0,0,1,186.4,63.57c-1.54-20.034-9.749-53.642-47.478-53.642-.788.013-18.427.447-28.028,12.482-5.761-1.5-19.952-3.267-34.679,9.651C64.875,42.007,63.287,60.815,63.952,74.84A24.168,24.168,0,0,1,56,94.193,41.532,41.532,0,0,0,41.664,127.9a39.445,39.445,0,0,0,5.65,19.26,14.246,14.246,0,0,0-4.829,7.991A103.8,103.8,0,0,0,40.7,166.984a12.413,12.413,0,0,0-8.178,1.86,12.287,12.287,0,0,0-5.552,8.539A115.516,115.516,0,0,0,25.8,200.777a17.069,17.069,0,0,0,3.467,9.431c-2.411,10.608-14.437,67.383-7.84,116.889a3.426,3.426,0,0,0,3.392,2.974,3.553,3.553,0,0,0,.457-.03,3.427,3.427,0,0,0,2.943-3.85c-3.337-25.045-1.777-52.061.828-73.726a23.164,23.164,0,0,0,3.522,4.623c2.487,2.526,5.769,5.777,9.457,9.221-2.394,31.149,3.429,59.814,3.68,61.029a3.427,3.427,0,0,0,6.711-1.388,245.193,245.193,0,0,1-3.889-53.778,133.366,133.366,0,0,0,13.507,10.493l-1.767,8.459a15.883,15.883,0,0,0,7.422,16.813,137.715,137.715,0,0,0-5.143,17.882,3.424,3.424,0,0,0,3.331,4.252,3.428,3.428,0,0,0,3.349-2.715c5.85-27.547,20.967-49.86,26.6-57.464a121.2,121.2,0,0,0,26.7,16.53,16.985,16.985,0,0,0,17.206-1.818A98.85,98.85,0,0,0,160.6,263.685c29.9,23.833,38.768,63.277,38.857,63.685a3.426,3.426,0,0,0,6.7-1.449c-.387-1.793-9.748-43.624-42.894-68.851V234.643A14.453,14.453,0,0,1,166.053,226c.4-.529.813-1.114,1.236-1.748a276.529,276.529,0,0,0,32.545,25.334,30.641,30.641,0,0,0,16.781,5.022h3.042a145.713,145.713,0,0,1,11.177,71.548,3.429,3.429,0,0,0,3.4,3.913,3.427,3.427,0,0,0,3.405-3.089,152.108,152.108,0,0,0-10.564-72.372H250.3c11.721,39.724,8.232,71.317,8.195,71.634a3.427,3.427,0,0,0,3,3.8,3.464,3.464,0,0,0,.405.024,3.427,3.427,0,0,0,3.4-3.025c.157-1.329,3.607-32.242-7.863-72.436h14.513a15.116,15.116,0,0,0,7.844,8.2V326.45a3.558,3.558,0,0,0,3.243,3.616,3.426,3.426,0,0,0,3.61-3.422V264.138H294.2c.077,0,.152-.01.229-.011V326.45a3.558,3.558,0,0,0,3.243,3.616,3.426,3.426,0,0,0,3.61-3.422V262.361a15.063,15.063,0,0,0,7.97-13.275v-18.6a15.061,15.061,0,0,0-7.97-13.274V128.749a23.61,23.61,0,0,0,7.4-11,15.226,15.226,0,0,0,.5-6.558l9.657-24.439a23.05,23.05,0,0,0,1.658-8.742c-.026-2.444-.112-9.167-4.5-14.227l3.316-4.5a6.194,6.194,0,0,0,1.208-3.652h0A6.187,6.187,0,0,0,319.343,51.973ZM285.724,24.5,288.47,51.3a3.427,3.427,0,0,0,3.4,3.078,3.512,3.512,0,0,0,.354-.018,3.428,3.428,0,0,0,3.06-3.759l-2.4-23.381,19.355,26.648L292.2,60.622l-26.577-7ZM268.433,63.542l-1.4-2.461,21.477,5.657-2.178,15.846Zm26.99,3.225,13.1-4.416-15.062,18.66Zm-57.4,156.064-13.715-.492a12.7,12.7,0,0,1-8.761-3.926c-7.606-7.934-21.038-22.355-30.635-34.875a16.161,16.161,0,0,0,13.255-13.346c.188,0,.384.014.571.014.76,0,1.5-.021,2.239-.051A201.519,201.519,0,0,1,238.018,222.831ZM69.186,146.678a28.889,28.889,0,0,1,1.482-5.295,4.235,4.235,0,0,1,5.8-2.31c2.957,2.334,25.946,19.449,67.211,22.267a17.376,17.376,0,0,0-.611,2.917c-.1.88-.169,1.755-.216,2.626C103.154,166.294,75.931,150.911,69.186,146.678ZM96.526,100.9c.488,4.933,3.818,15.809,8.321,21.542a58.742,58.742,0,0,0,6.808,7.3V136.2c-6.464-.427-12.187-.934-16.968-1.425A85.018,85.018,0,0,1,96.526,100.9Zm82.688,76.286a17.827,17.827,0,0,0,.264-4.237,46.8,46.8,0,0,0-2.368-12.326,17.206,17.206,0,0,0-5.116-7.536,93.939,93.939,0,0,0,12.473-10.864,1.978,1.978,0,0,1,1.862-.574,1.866,1.866,0,0,1,1.405,1.225A65.123,65.123,0,0,1,191.48,168.3a9.254,9.254,0,0,1-8.531,8.585Zm-31.8-22.5c-.36-.017-.714-.04-1.071-.059V144.112c9.224-.048,18.312-.359,27.142-.939a87.507,87.507,0,0,1-8.3,6.312,17.666,17.666,0,0,0-4.562-.638h0A17.666,17.666,0,0,0,147.417,154.686Zm-28.909-19.713c1.263.8,2.546,1.554,3.863,2.224a13.355,13.355,0,0,0,12.96-.5c1.224-.751,2.648-1.7,4.161-2.834V154.1a144.329,144.329,0,0,1-20.984-3.641Zm63.56.664c-11.466,1.016-23.466,1.558-35.722,1.622v-9.5c.747-.8,1.489-1.619,2.211-2.5A38.6,38.6,0,0,0,157,104.593c.176-1.769.319-3.581.442-5.412,15.007,7.574,23.672,19.037,26.957,35.7A8.75,8.75,0,0,0,182.068,135.637Zm-31.886-31.721a31.769,31.769,0,0,1-6.938,17.011,46.2,46.2,0,0,1-11.5,9.935,6.379,6.379,0,0,1-6.268.227,47.166,47.166,0,0,1-15.241-12.88,32.824,32.824,0,0,1-6.749-16.6,124.516,124.516,0,0,1-.63-16.372c0-.045-.01-.086-.011-.131a80.311,80.311,0,0,1,17.03-21.336c1.721,8.063,8.225,21.142,30.883,32.245C150.621,98.7,150.437,101.355,150.182,103.916Zm-38.527,39.151v5.476A122.91,122.91,0,0,1,93.983,141.6C98.931,142.1,104.881,142.627,111.655,143.067Zm38.218,21.994a10.657,10.657,0,0,1,10.641-9.361h.067a10.625,10.625,0,0,1,10.04,7.128,39.969,39.969,0,0,1,2.016,10.52,10.694,10.694,0,0,1-7.729,10.959l-.86.248a10.712,10.712,0,0,1-13.29-7.33A30.98,30.98,0,0,1,149.873,165.061ZM48.511,127.612a34.871,34.871,0,0,1,12.044-28.3A30.99,30.99,0,0,0,70.8,74.516c-.593-12.521.649-29.157,9.936-37.3,15.383-13.5,29.567-7.872,30.146-7.633a3.426,3.426,0,0,0,4.225-1.3c7.095-11.036,23.768-11.5,23.873-11.5,30.54,0,38.929,25.73,40.589,47.314a31.566,31.566,0,0,0,14.551,24.032c11.87,7.557,17.72,16.267,16.922,25.19a25.648,25.648,0,0,0,6.382,19.392c4.621,5.143,5.044,12.336,5.081,13.382-1.417,14.175-13.4,17.34-24.091,17.262a72.776,72.776,0,0,0-4.227-22.792,8.736,8.736,0,0,0-2.486-3.652c-3.319-21.681-14.594-36.552-34.481-45.427-33.541-14.969-31.115-33.339-31-34.075a3.427,3.427,0,0,0-5.49-3.3c-33.1,26-35.436,59.612-33.041,79.886-4.359-.523-7.236-.947-8.307-1.111a11.064,11.064,0,0,0-15.121,6.078,37.142,37.142,0,0,0-1.639,5.556l-4.095-.578a14.231,14.231,0,0,0-4.994.194A32.539,32.539,0,0,1,48.511,127.612ZM66.979,292.525l2.252-10.782a3.427,3.427,0,0,0-1.574-3.629c-10.329-6.278-23.357-18.881-30.2-25.834A16.328,16.328,0,0,1,32.781,240a231.988,231.988,0,0,1,2.656-24.769,17.274,17.274,0,0,0,4.422,1.44,150.593,150.593,0,0,0,19.956,2.246l-5.837,20.639a3.425,3.425,0,0,0,.414,2.786c6.25,9.722,21.423,25,29.474,32.835a170.427,170.427,0,0,0-13.65,26.209A8.994,8.994,0,0,1,66.979,292.525Zm11.737-73.95a72.7,72.7,0,0,0,8.768,9.576,14.1,14.1,0,0,1,4.438,10.47v25.072c-.854,1.084-2.329,3.014-4.191,5.68-7.05-6.9-20.544-20.522-26.729-29.471l5.892-20.833Q72.936,219.056,78.716,218.575Zm81.856,3.313a21.345,21.345,0,0,0-4.164,12.755v23.1A90.773,90.773,0,0,1,135.651,279.1a10.138,10.138,0,0,1-10.264,1.089,112.555,112.555,0,0,1-26.611-16.806V238.621A20.961,20.961,0,0,0,92.1,223.082a64.779,64.779,0,0,1-5.26-5.392,165.682,165.682,0,0,0,57.749-19.536,3.426,3.426,0,0,0-3.329-5.99c-22.207,12.342-57.611,25.443-100.178,17.764a10.263,10.263,0,0,1-5.467-2.866c-.069-.08-.144-.154-.22-.228a10.218,10.218,0,0,1-2.746-6.434,108.643,108.643,0,0,1,1.105-22,5.365,5.365,0,0,1,2.461-3.776,5.564,5.564,0,0,1,4.564-.648l1.812.533c3.434,1.695,34,16.251,70.184,16.251a3.427,3.427,0,1,0,0-6.853c-30.72,0-57.938-11.333-65.373-14.714a97.606,97.606,0,0,1,1.792-12.615,7.509,7.509,0,0,1,8.376-5.848l6.712.948c4.923,3.312,34,21.5,78.8,22.065a36.17,36.17,0,0,0,1.089,5.361,17.582,17.582,0,0,0,16.867,12.74,17.691,17.691,0,0,0,4.918-.7l.729-.21C169.75,206.587,164.268,216.965,160.572,221.888Zm43.008,21.961a271.485,271.485,0,0,1-32.9-25.767c3.148-7.084,5.338-17.278,2.306-30.411a17.433,17.433,0,0,0,3.2-3.364l.689-.056c9.861,13.525,25.307,30.133,33.715,38.905a19.52,19.52,0,0,0,13.464,6.031l46.825,1.681v16.889H216.615A23.806,23.806,0,0,1,203.58,243.849Zm98.82,5.237a8.208,8.208,0,0,1-8.2,8.2h-8.267a8.208,8.208,0,0,1-8.2-8.2v-18.6a8.207,8.207,0,0,1,8.2-8.2H294.2a8.207,8.207,0,0,1,8.2,8.2Zm-8.2-33.652h-7.557V142a20.446,20.446,0,0,0-4.615-12.915c-3.4-4.158-6.861-10.415-6.021-18.029l18.422,17.553v86.84C294.353,215.445,294.278,215.434,294.2,215.434Zm7.927-99.683a16.308,16.308,0,0,1-4.171,6.749L263.719,89.879A12.951,12.951,0,0,1,260.027,77.1a13.088,13.088,0,0,1,5.077-7.1L300,107.132A8.911,8.911,0,0,1,302.128,115.751Zm10.337-31.515-7.279,18.421c-.062-.069-10.961-11.676-10.961-11.676l17.439-21.6c1.655,2.614,1.949,5.911,1.979,8.71A16.218,16.218,0,0,1,312.465,84.236Z"/><path d="M120.514,95.411a33.385,33.385,0,0,0-5.138-.866,3.427,3.427,0,0,0-.589,6.828,26.385,26.385,0,0,1,4.065.686,3.426,3.426,0,1,0,1.662-6.648Z"/><path d="M135.059,102.163a3.425,3.425,0,0,0,.833-.1,26.385,26.385,0,0,1,4.065-.686,3.426,3.426,0,1,0-.589-6.827,33.235,33.235,0,0,0-5.138.865,3.427,3.427,0,0,0,.829,6.752Z"/></svg>