<svg xmlns="http://www.w3.org/2000/svg"  viewBox="0 0 340 340" width="500px" height="500px"><path d="M65.173,322.62a25.146,25.146,0,0,0,18.785,0,78.6,78.6,0,0,0,16.665-9.245,81.656,81.656,0,0,0,29.817,10.863,8.9,8.9,0,0,0,4.6,2.472,52.5,52.5,0,0,0,10,.884,64.609,64.609,0,0,0,13.772-1.436,8.833,8.833,0,0,0,4.81-2.942,51.908,51.908,0,0,0,24.672-14.192,11.714,11.714,0,0,0,1.793-13.6l-1.961-3.669a8.52,8.52,0,0,0-8.824-4.4,168.4,168.4,0,0,1-.835-20.33c.491-.506.965-1,1.405-1.474a17.3,17.3,0,0,0,4.618-10.6c.148-2.241.343-4.535.568-6.827a83.6,83.6,0,0,0,7.753,11.054,75.113,75.113,0,0,0-2.574,12.911,12.032,12.032,0,0,0,6.7,12.2c10.084,4.844,31.228,12.883,60.718,13.116.072.107.135.219.211.325a9.452,9.452,0,0,0,1.622,1.728L257.5,311.2a8.317,8.317,0,0,0,6.419,9.508l5.917,1.3a8.415,8.415,0,0,0,1.806.2,8.333,8.333,0,0,0,8.15-6.735l2.419-12.435a11.207,11.207,0,0,0,7.345-8.179l3.875-17.565,12.831,2.2a3.428,3.428,0,0,0,3.966-2.853l1.461-9.439a9.991,9.991,0,0,0-4.955-10.194l-10.208-5.739c5.913-24.3,23.482-98.781,31.033-155.57.244-1.647,5.931-40.664-.629-69.614a3.426,3.426,0,0,0-5.524-1.884c-.788.651-19.393,16.471-28.9,62.552-.571,2.415-18.165,77.424-24.307,158.5l-11.757,1.214a9.939,9.939,0,0,0-8.677,7.7l-2.542,11.209a3.428,3.428,0,0,0,2.763,4.135l11.513,1.973-3.271,19.055c-27.415-.5-46.938-7.906-56.336-12.421a5.17,5.17,0,0,1-2.854-5.255c2.129-19.023,10.511-29.381,14.841-33.56a73.195,73.195,0,0,0,23.1,19.937,3.427,3.427,0,0,0,3.392-5.956c-9.8-5.579-17.408-12.466-22.646-20.469-6.021-21.71-4.445-45.266-3.263-55.767a46.521,46.521,0,0,1,10.461-1.887A13.436,13.436,0,0,0,235.518,164c3.678-21.986-3.326-36.607-19.216-40.114q-.843-.186-1.691-.327a26.494,26.494,0,0,0-.782-8.741,47.231,47.231,0,0,0-10.118-17.475,24.036,24.036,0,0,1-6.142-20.315c1.587-9.181,2.059-23.1-4.721-37.3-.415-.846-10.375-20.783-29.021-26.059-9.745-2.76-19.927-.995-30.29,5.234A30.517,30.517,0,0,0,110.8,25.171C99.035,34.4,92.99,52.284,92.829,78.316a18,18,0,0,1-6.666,13.9C78.15,98.735,70.255,111.7,73.552,125.88c-9.316,2.76-22.4,10.036-25.825,29.226a27.572,27.572,0,0,0,1.17,12.02,3.426,3.426,0,1,0,6.533-2.067,21.186,21.186,0,0,1-.954-8.762c2.728-15.284,12.657-21.49,21.362-23.95A37.375,37.375,0,0,0,79.967,139c3.288,4.272,10.606,10.2,19.677,10.2a20.929,20.929,0,0,0,3.13-.247,33.774,33.774,0,0,1-2.282,18.452l-.011.025a28.911,28.911,0,0,1-2.87,5.007,10.848,10.848,0,0,1-2.032,2.141c-3.542-2.063-7.341-4.123-11.431-6.155a21.653,21.653,0,0,0-19.165,0C34.394,183.621,19.6,200.353,13.5,208.974A19.352,19.352,0,0,0,9.958,219.81C8.506,292.051,48.088,315.774,65.173,322.62Zm207.258-7.512a1.453,1.453,0,0,1-1.122.207l-5.916-1.3a1.471,1.471,0,0,1-1.134-1.679l1.768-10.5,9.165,1.4-2.125,10.922A1.462,1.462,0,0,1,272.431,315.108Zm14.66-40.884-4.225,19.156a4.34,4.34,0,0,1-4.893,3.352l-12.858-1.971a2.574,2.574,0,0,1-2.146-2.977l3.751-21.85a4.184,4.184,0,0,1,4.041-3.453,50.9,50.9,0,0,1,12.2,1.206A5.485,5.485,0,0,1,287.091,274.224Zm12.1-185.938c.008-.035.016-.069.023-.1,6.21-30.145,16.506-46.647,22.287-53.976,4.177,26.883-.664,60.124-.725,60.534-7.33,55.123-24.162,127.07-30.451,153.038l-6.285-3.534a3.439,3.439,0,0,0-2.031-.421l-6.878.71C281.384,163.574,299.009,89.039,299.189,88.286ZM254.453,255.672a3.09,3.09,0,0,1,2.7-2.393l24.477-2.528,21.75,12.228a3.108,3.108,0,0,1,1.541,3.171l-.929,6L293.774,270.4a12.327,12.327,0,0,0-9.318-9.4,57.427,57.427,0,0,0-13.838-1.369,11.059,11.059,0,0,0-9.155,5.228l-8.753-1.5Zm-117.511-4.608a89.522,89.522,0,0,0,11.145,5.112,16.057,16.057,0,0,0,5.619,1.021,15.335,15.335,0,0,0,8.747-2.706,87.43,87.43,0,0,0,16.793-16.029c-.653,5.166-1.249,10.737-1.6,16.038a10.423,10.423,0,0,1-2.8,6.379A88.833,88.833,0,0,1,154.011,277.5c-.132.074-.27.129-.4.2a68.275,68.275,0,0,1,1.22-12.422,3.427,3.427,0,0,0-6.733-1.277,74.742,74.742,0,0,0-1.339,14.585,10.646,10.646,0,0,1-1.874-.567,121.164,121.164,0,0,1-13.339-6.587A119.161,119.161,0,0,0,136.942,251.064Zm-7.991,26.768a127.517,127.517,0,0,0,13.306,6.511,17.282,17.282,0,0,0,15.084-.857,87.486,87.486,0,0,0,14.266-10.019,163.64,163.64,0,0,0,1.244,17.775,48.2,48.2,0,0,1-12.348,8.5,8.861,8.861,0,0,0-5.785-1.332,161.2,161.2,0,0,1-17.758.907h-.113a8.9,8.9,0,0,0-4.938,1.5A64.535,64.535,0,0,1,118.69,295.5,92.272,92.272,0,0,0,128.951,277.832ZM114.3,300.926a73.855,73.855,0,0,0,13.724,5.9c-.03.188-.062.376-.079.568a66.264,66.264,0,0,0-.174,9.386,74.687,74.687,0,0,1-21.4-7.969A83.189,83.189,0,0,0,114.3,300.926Zm42.975,18.552a56.416,56.416,0,0,1-20.913.508,2.018,2.018,0,0,1-1.642-1.783,59.367,59.367,0,0,1,.049-10.188,2.07,2.07,0,0,1,2.077-1.844h.026a168.505,168.505,0,0,0,18.623-.95,2.065,2.065,0,0,1,2.265,1.747,103.888,103.888,0,0,1,1.082,10.418A2.022,2.022,0,0,1,157.276,319.478Zm23.642-25.343a1.642,1.642,0,0,1,1.158.854l1.963,3.668a4.869,4.869,0,0,1-.729,5.655,44,44,0,0,1-17.727,11.148c-.225-3.3-.573-6.515-1.053-9.561-.022-.141-.058-.277-.087-.416a57.611,57.611,0,0,0,13.272-9.393c.644-.568,1.249-1.1,1.822-1.59A1.629,1.629,0,0,1,180.918,294.135Zm27.749-61.168a52.043,52.043,0,0,0-13.12,18.614,76.27,76.27,0,0,1-9.039-15.785c.416-3.063.838-5.911,1.22-8.361.014-.094.008-.185.015-.278,1.467-2.139,2.825-4.214,4.052-6.16a58.835,58.835,0,0,0,9.09-30.076c.066-3,0-6.116-.2-9.292a13.738,13.738,0,0,0,3.009-1.1c.5-.251,1.033-.509,1.595-.77C204.07,192.714,203.514,213.179,208.667,232.967Zm20.092-70.1a6.619,6.619,0,0,1-6.246,5.443,57.032,57.032,0,0,0-21.907,6.1,6.514,6.514,0,0,1-7.536-1.14c-8.906-9.106-8.807-22.338-8.805-22.462,0-.06,0-.12,0-.18-.224-6.942,3.229-12.572,10.264-16.735a28.141,28.141,0,0,1,14.344-3.964,27.6,27.6,0,0,1,5.954.65C230.238,133.979,230.909,150.015,228.759,162.869Zm-100.971-28.7q-3.714.741-7.148,1.482a41.616,41.616,0,0,0,4.775-12.934q1.167,1.143,2.373,2.2Zm4.332-79.433c1.547,6.882,5.9,19.078,18.057,30.936a26.4,26.4,0,0,0-2.546,1.3,3.427,3.427,0,1,0,3.471,5.909,23.836,23.836,0,0,1,4.886-2.081,46.137,46.137,0,0,1,9.311,7.916c-3.018,14.7-13.152,22.912-19.017,26.52a5.875,5.875,0,0,1-5.753.178,46.221,46.221,0,0,1-14.879-12.662c-.676-5.468-2.46-12.145-5.091-20.9C118.367,84.556,119.094,64.963,132.12,54.732Zm2.521,75.211c.9.546,1.809,1.069,2.734,1.549a12.792,12.792,0,0,0,5.884,1.429,12.639,12.639,0,0,0,6.613-1.854,51.96,51.96,0,0,0,5.732-4.1v15.693a10.482,10.482,0,1,1-20.963,0Zm27.816-9.8a45.831,45.831,0,0,0,7.524-13.007,30.041,30.041,0,0,1,1.65,8.643,43.939,43.939,0,0,0,2.133,12.144,21.124,21.124,0,0,0,5.025,8.269c-5.248-1.1-10.643-2.061-16.332-2.913ZM85.4,134.817c-12.435-16.105-2.108-31.427,5.09-37.279a24.83,24.83,0,0,0,9.2-19.179c.145-23.418,5.417-39.918,15.244-47.717a23.322,23.322,0,0,1,18.515-4.809,3.427,3.427,0,0,0,2.623-.437c9.027-5.7,17.729-7.431,25.863-5.142,15.69,4.418,24.681,22.316,24.753,22.46,5.986,12.54,5.554,24.946,4.136,33.146a30.845,30.845,0,0,0,7.824,26.091,40.341,40.341,0,0,1,8.651,14.921,26.989,26.989,0,0,1,.485,6.153c0,.025-9.587.206-16.738,4.969a44.1,44.1,0,0,0-6.044,4.521,13.976,13.976,0,0,1-4.733-6.77,37.128,37.128,0,0,1-1.783-10.249c-.457-11.011-5.766-21.12-14.2-27.042-24.817-17.422-26.116-38.713-26.159-39.6a.532.532,0,0,0-.006-.056c0-.01,0-.019,0-.029a21.083,21.083,0,0,1,.931-6.891,3.427,3.427,0,0,0-6.523-2.1A27.841,27.841,0,0,0,131.272,47C112.791,58.227,110.789,83.151,114,93.819c3.3,10.975,5.191,18.393,5.1,23.827-.126,7.578-4.939,18.677-11.643,22.486C95.19,147.1,85.787,135.318,85.4,134.817Zm25.443,11.273a20.261,20.261,0,0,0,2.568-1.768c4.464-1.075,9.2-2.117,14.381-3.166v1.5a17.335,17.335,0,1,0,34.669,0V140.21c5.546.848,10.805,1.807,15.929,2.9a24.293,24.293,0,0,0-.975,7.657,43.521,43.521,0,0,0,3.9,17.2c-7.946,9.5-16.5,17.932-22.58,22.223a16.18,16.18,0,0,1-14.2,2.627c-15.145-3.668-31.918-19.713-36.919-24.777a42.056,42.056,0,0,0,1.787-21.19Q110.113,146.5,110.839,146.09Zm-7.655,30.336c.414-.578.827-1.209,1.238-1.867,6.817,6.692,22.948,21.159,38.491,24.923a26.531,26.531,0,0,0,6.259.784,22.9,22.9,0,0,0,13.506-4.474c6.211-4.383,14.371-12.29,22.29-21.538a33.976,33.976,0,0,0,3.2,3.806,13.034,13.034,0,0,0,5.631,3.391c.213,3.193.3,6.323.232,9.32A51.992,51.992,0,0,1,186,217.342c-6.164,9.774-15.648,22.851-26.3,30.678,3.539-17.451,2.405-30.433.695-38.488a3.427,3.427,0,0,0-6.7,1.423c1.685,7.936,2.747,21.13-1.481,39.249a9.346,9.346,0,0,1-1.72-.447,84.24,84.24,0,0,1-12.465-5.947,168.852,168.852,0,0,0,1.151-24,19.365,19.365,0,0,0-3.542-10.835h0c-4.795-6.78-14.977-18.58-33.989-30.7A17.913,17.913,0,0,0,103.184,176.426Zm-35.151-1.867a14.763,14.763,0,0,1,13.065,0c29.244,14.53,43.212,30.278,48.936,38.372a12.369,12.369,0,0,1,1.164,2.05,40.9,40.9,0,0,1-16.74,8.889c-3.142-4.7-12-15.649-31.418-25.7a18.459,18.459,0,0,0-16.949,0c-19.4,10.042-28.252,20.975-31.4,25.685a40.389,40.389,0,0,1-16.728-8.926,12.427,12.427,0,0,1,1.139-1.993C24.821,204.837,38.79,189.089,68.033,174.559ZM16.777,222.776a47.787,47.787,0,0,0,16.036,7.665,100.486,100.486,0,0,0,1.942,22.715,3.427,3.427,0,0,0,6.706-1.416,95.291,95.291,0,0,1-1.75-23.021c1.622-2.669,9.4-14.044,29.531-24.467a11.593,11.593,0,0,1,10.647,0c20.154,10.434,27.925,21.822,29.53,24.465,1.565,43.1-21.04,57.016-30.881,61.008a10.508,10.508,0,0,1-7.946,0,44.85,44.85,0,0,1-15.33-10.473A3.427,3.427,0,0,0,50.323,284a51.786,51.786,0,0,0,17.692,12.072,17.339,17.339,0,0,0,13.1,0c11.02-4.472,36.123-19.758,35.192-65.607a47.437,47.437,0,0,0,16.047-7.615c.283,65.689-35.41,87.179-50.946,93.4a18.5,18.5,0,0,1-3.417,1V306.169a3.427,3.427,0,0,0-6.853,0v11.089a18.5,18.5,0,0,1-3.417-1C52.18,310.031,16.465,288.525,16.777,222.776Z"/><path d="M44.869,271.1a3.427,3.427,0,0,0,1.573-4.583q-.352-.721-.691-1.47a3.427,3.427,0,0,0-6.243,2.828q.381.842.777,1.651a3.425,3.425,0,0,0,4.584,1.574Z"/><path d="M124.89,88.344a3.426,3.426,0,0,0,2.842,3.925,25.33,25.33,0,0,1,4.172,1.107,3.426,3.426,0,1,0,2.405-6.417,32.183,32.183,0,0,0-5.494-1.458A3.425,3.425,0,0,0,124.89,88.344Z"/></svg>