<svg xmlns="http://www.w3.org/2000/svg"  viewBox="0 0 340 340" width="500px" height="500px"><path d="M183.466,174.292a3.426,3.426,0,0,0,3.426,3.427h53.559a32.324,32.324,0,0,0,10.533,1.752H302.2a4.564,4.564,0,0,1,3.582,1.721,11.38,11.38,0,0,0,8.934,4.295H318.5a11.581,11.581,0,0,0,11.568-11.567v-8.414a17.346,17.346,0,0,0-16.594-17.369l-21.191-1.132c-5.09-1.8-45.495-15.676-79.416-15.966a3.427,3.427,0,0,0-3.413,3.97,53.816,53.816,0,0,0,2.189,8.161c-3.251-.162-6.856-.363-10.79-.6h0c-8.537-.522-16.971-1.126-22.544-1.541a25.626,25.626,0,0,1-10.025-2.833,78.638,78.638,0,0,0-20.106-6.943c-.578-.447-1.17-.889-1.769-1.33.027-2.6.073-5.282.144-8.043,1.171.378,2.3.692,3.341.941a13.427,13.427,0,0,0,3.1.363,13.7,13.7,0,0,0,9.269-3.643,28.619,28.619,0,0,0,8.749-15.409c1.919-9.387,3.161-20.108,3.533-23.528,8.318-9.5,9.529-21.165,9.48-27.394a33.213,33.213,0,0,0-1.2-8.461c-2.53-9.277-6.869-15.412-12.9-18.236a18.719,18.719,0,0,0-12.5-1.032c-2.334-2.5-7.023-6.644-13.334-7.916-15-3.021-26.9-.532-35.379,7.4a48.913,48.913,0,0,0-4.373,4.674,53.665,53.665,0,0,0-11.682,37.4,47.008,47.008,0,0,0,5.664,20.462,41.336,41.336,0,0,0-18.665,9.039c-3.98-1.246-12.775-2.992-21.373,2.051A36.878,36.878,0,0,0,42.7,90.16a36.368,36.368,0,0,0-8.1-18.078c7.69-10.165,5.394-22.074,2.42-28.423,2-4.985,6.691-20.157-4.444-31.455a3.425,3.425,0,0,0-3.848-.719c-.267.121-26.5,12.454-16.489,51.408C6.145,76.528,13.78,90.6,16.42,94.8c.039.062.094.106.136.165,1.238,19.973,18.938,22.552,24.262,22.869a22.335,22.335,0,0,0,16.205,7.875q.684.03,1.354.03a23.115,23.115,0,0,0,13.788-4.108,39.613,39.613,0,0,0,7.16.668c5.848,0,13.256-1.426,18.022-7.527a33.671,33.671,0,0,0,4.79,1.015,3.365,3.365,0,0,0,.479.034,3.427,3.427,0,0,0,.469-6.821,23.448,23.448,0,0,1-5.46-1.371l-11.468-7.518a35.633,35.633,0,0,1,16.428-6.4,43.8,43.8,0,0,0,10.168,8.921v21.036c-4.23,2.708-11.184,5.992-21.309,7.386-3.55-.264-18.064.869-34.792,33.052-.005.01-.007.02-.012.03-.751,1.445-1.488,2.914-2.191,4.367C42.9,192.377,39.258,207.657,38.162,215.857a100.034,100.034,0,0,0-20.951-1.241,3.427,3.427,0,0,0-2.8,5C37.825,264.433,72.244,277.307,77,278.9a114.263,114.263,0,0,0,22.519,11.5A19.394,19.394,0,0,0,123,282.058q.346-.613.669-1.27a18.928,18.928,0,0,0,1.907-7.613c3.894.143,7.682.2,11.224.2q1.192,0,2.345-.008c-10.123,8.74-16.241,21.147-19.777,31.144a26.115,26.115,0,0,1-24.523,17.454H44.4a122.652,122.652,0,0,1,24.535-35.2,3.426,3.426,0,0,0-4.835-4.856,130.473,130.473,0,0,0-28.126,42.156,3.428,3.428,0,0,0,3.158,4.756H94.849A32.982,32.982,0,0,0,125.833,306.8,80.5,80.5,0,0,1,134.9,288.48a81.355,81.355,0,0,1,20.281,27.939,20.484,20.484,0,0,0,18.739,12.4h37.628a3.427,3.427,0,0,0,3.15-4.774c-.624-1.461-15.517-35.474-52.44-56.784V256.452a92.764,92.764,0,0,0,31-.4c.083-.016.171-.035.254-.056,1.588-.406,38.651-9.471,53.909,21.954l-6.791,22.373c-6.345-10.429-21.392-27.262-53.255-29.974-2.354-.2-4.654-.426-6.835-.671a3.427,3.427,0,0,0-.763,6.811c2.241.251,4.6.482,7.017.688,41.01,3.492,50.924,32.312,51.323,33.526a3.426,3.426,0,0,0,3.262,2.38h.028a3.429,3.429,0,0,0,3.251-2.432l9.7-31.97a3.435,3.435,0,0,0-.159-2.413,46.459,46.459,0,0,0-20.929-22.6l15.655-16.6a3.426,3.426,0,0,0-1.012-5.441c-30.43-14.573-56.433,4.646-58.227,6.02a146.876,146.876,0,0,1-21.021,12.532c-.095.046-.175.109-.263.162-2.391-.227-4.453-.531-6.149-.84V221.891a14.3,14.3,0,0,1,2.877-8.615,58.463,58.463,0,0,1,6.331-7.205,25.158,25.158,0,0,0,7.6-21.513,80.336,80.336,0,0,0-19.621-42.867,59.719,59.719,0,0,1,5.667,2.575,32.432,32.432,0,0,0,12.69,3.593c4.76.355,11.6.847,18.821,1.309a33.687,33.687,0,0,0,4.466,21.7H186.892A3.426,3.426,0,0,0,183.466,174.292ZM29.382,19c6.2,8.431,2.493,19.178,1.169,22.357-2.258,1.386-7.4,5.11-13.1,13C14.016,32.131,24.629,22.239,29.382,19ZM17.99,81.807c-1.581-5.36-2.1-12.054,1.593-18.23,4.711-7.886,9.275-12.354,12.13-14.647,1.558,4.648,2.917,13.154-3.887,20.558A20.744,20.744,0,0,0,17.99,81.807Zm5.355,11.968c-.333-9.731,2.775-14.683,6.09-17.2a29.638,29.638,0,0,1,6.683,16.1,31.118,31.118,0,0,0,.55,17.653C31.065,108.976,23.73,105.044,23.345,93.775Zm33.971,25.091a15.27,15.27,0,0,1-13.263-8.544A23.417,23.417,0,0,1,42.2,97.137a29.234,29.234,0,0,1,12.972,8.039c.018.022.04.037.058.058s.029.045.047.065L66.1,117.293A18.255,18.255,0,0,1,57.316,118.866Zm33.748-7.339c-5.341,5.238-14.929,3.895-17.947,3.307l-9.989-11.068c7.215-3.408,14.354-.814,15.674-.278ZM193.713,243.191c.036-.025.076-.055.11-.081.921-.709,21.677-16.362,46.736-7.161l-14,14.84a55.587,55.587,0,0,0-10.334-2.463,69.259,69.259,0,0,0-24.288,1,91.522,91.522,0,0,1-9.406,1.155Q188.178,247.127,193.713,243.191ZM54.085,186.045c3.092.476,13.32,2.653,19.377,11.13-1.405,3.461-2.659,6.882-3.762,10.173-6.863-5.3-15.759-7.215-20.58-7.888C50.394,195.528,52.02,191.064,54.085,186.045Zm6.533-14.553q.4-.821.809-1.647c5.867,2.04,14.033,5.937,18.9,12.79-1.358,2.46-2.613,4.972-3.793,7.5-6.543-7.01-15.13-9.62-19.674-10.549C58,177.01,59.25,174.32,60.618,171.492ZM78.449,203.27l10.538,14.271a9.3,9.3,0,0,1,1.805,5.481v10.461l-.881,12.828a62.333,62.333,0,0,0-18.86-18.536A197.737,197.737,0,0,1,78.449,203.27Zm48.268,28.042c-8.884-.062-18.551-.379-29.072-.948v-7.342A16.185,16.185,0,0,0,94.5,213.47L81.474,195.831a118.726,118.726,0,0,1,5.82-11.6c.009-.014.014-.03.022-.044a84.1,84.1,0,0,1,5.58-8.5,38.944,38.944,0,0,0,7.087-15.265,34.365,34.365,0,0,0-2.922-23.374A59.793,59.793,0,0,0,113,131.45c1.011,5.3,6.08,24.027,28,33.353,1.964,4.572,8.708,22.383,1.588,36.9a25.325,25.325,0,0,1-2.962,4.555C136.192,210.586,128.407,221.3,126.717,231.312Zm30.9-116.819a6.777,6.777,0,0,1-6.15,1.656,35.528,35.528,0,0,1-19.3-11.941,67.914,67.914,0,0,1-1.6-16.876,16.646,16.646,0,0,1,8.317-13.884c9.668-5.636,14.734-12.669,17.389-18.5a78.1,78.1,0,0,0,5.2,8.044c1.236,1.745,2.4,3.393,3.339,4.984a23.05,23.05,0,0,1,2.886,9.059c-.8.156-2.6.528-3.8.881a3.427,3.427,0,0,0,.966,6.715c.32,0,1.833-.371,2.354-.49-.6,4.818-1.6,12.13-2.931,18.614A21.812,21.812,0,0,1,157.621,114.493ZM99.5,66.632A46.825,46.825,0,0,1,109.64,33.981a41.955,41.955,0,0,1,3.756-4.017c4.83-4.516,11.237-6.784,19.126-6.784a51.884,51.884,0,0,1,10.219,1.1c6.375,1.284,10.759,7.129,10.8,7.178a3.456,3.456,0,0,0,4.169,1.11,12.326,12.326,0,0,1,9.389.182c4.086,1.951,7.155,6.594,9.119,13.8a26.33,26.33,0,0,1,.955,6.712A37.141,37.141,0,0,1,173.3,70.377a27.874,27.874,0,0,0-2.574-5.876c-1.083-1.842-2.333-3.605-3.655-5.471-3.305-4.663-6.723-9.485-7.93-16.118a3.428,3.428,0,0,0-6.8.563c-.011.586-.488,14.48-16.907,24.053A23.458,23.458,0,0,0,123.722,87.1a73.83,73.83,0,0,0,.861,13.887C116.372,98.062,100.836,89.524,99.5,66.632Zm27.613,42.214a41.712,41.712,0,0,0,12.658,10.2c-.5,16.115-.154,30.192.125,37.654a38.769,38.769,0,0,1-20.292-27.262V106.273A47.274,47.274,0,0,0,127.115,108.846ZM89.735,138a27.254,27.254,0,0,1,3.549,20.969,32.592,32.592,0,0,1-5.863,12.59c-1.133,1.5-2.249,3.113-3.342,4.8-5.622-6.528-13.42-10.429-19.435-12.633C76.615,142.2,86.345,138.582,89.735,138ZM47.147,206.122c4.106.487,14.266,2.273,20.312,8.359-1.053,3.586-1.921,6.89-2.614,9.755A87.025,87.025,0,0,0,44.9,217.159,83.478,83.478,0,0,1,47.147,206.122Zm-23.938,15.3c13.353.374,47.39,4.162,62.943,31.94a66.36,66.36,0,0,0-9.734,17.964C67.66,267.618,42.222,254.537,23.209,221.419Zm94.309,56.356q-.23.468-.476.9a12.452,12.452,0,0,1-15.124,5.307A110.093,110.093,0,0,1,82.6,274.366a56.927,56.927,0,0,1,10.183-18.275,3.5,3.5,0,0,0,.4-.524,16.268,16.268,0,0,1,7.11-6.284,5.931,5.931,0,0,1,8.415,5.117l.146,3.2a3.427,3.427,0,0,0,1.611,2.752l2.276,1.418A12.425,12.425,0,0,1,117.518,277.775Zm7.055-11.5a19.543,19.543,0,0,0-8.208-10.32l-.748-.466-.064-1.4a12.783,12.783,0,0,0-18.139-11.024c-.145.067-.282.145-.425.215l.4-5.852a302.17,302.17,0,0,0,31.185,1.653,217.791,217.791,0,0,0,26.825-1.54V247.8c-9.421,2.475-20.644,3.18-28.5,3.326a3.426,3.426,0,0,0,.063,6.852h.065c7.759-.145,18.695-.82,28.37-3.115V266.02C149.863,266.327,137.747,266.824,124.573,266.277Zm81.419,55.688H173.916a13.632,13.632,0,0,1-12.453-8.278,88.31,88.31,0,0,0-22.369-30.64,41.179,41.179,0,0,1,12.817-10c2.809-.121,4.936-.246,6.115-.322C185.487,288.294,200.534,311.926,205.992,321.965ZM166.718,201.126a65.145,65.145,0,0,0-7.08,8.052,21.109,21.109,0,0,0-4.237,12.713v8.56c-6.624.5-13.831.791-21.688.859,1.871-8.4,8.967-17.876,11.285-20.8a32.079,32.079,0,0,0,3.745-5.794c8.922-18.187.071-39.356-1.784-43.4-.121-2.356-.524-10.965-.581-22.719a73.3,73.3,0,0,1,25.892,46.9A18.29,18.29,0,0,1,166.718,201.126Zm55.4-30.26a63.745,63.745,0,0,1-.534-8.6,66.679,66.679,0,0,0,6.778,7.908c.236.236.482.46.725.688Zm101.094-5.36v8.414a4.72,4.72,0,0,1-4.715,4.714h-3.782a4.557,4.557,0,0,1-3.581-1.722,11.389,11.389,0,0,0-8.935-4.294H293.99c-1.92-6.455-.629-14.564.258-18.645l18.892,1.01A10.513,10.513,0,0,1,323.214,165.506Zm-35.691-12.881c-.949,4.388-2.2,12.547-.589,19.993h-35.95a25.374,25.374,0,0,1-17.786-7.3,64.71,64.71,0,0,1-15.98-27.313C245.414,139.227,277.779,149.371,287.523,152.625Zm-71.834.065c-.008.036-.024.067-.032.1a59.618,59.618,0,0,0-.447,18.073h-5.729a26.936,26.936,0,0,1-6.012-21.278c4.061.239,7.739.431,10.99.577Q215.034,151.4,215.689,152.69Z"/><path d="M151.777,77.805c-1.158-.341-2.549-.627-3.511-.808A3.427,3.427,0,1,0,147,83.734c.661.124,1.91.372,2.84.646a3.424,3.424,0,0,0,4.255-2.321A3.427,3.427,0,0,0,151.777,77.805Z"/></svg>