<svg xmlns="http://www.w3.org/2000/svg"  viewBox="0 0 340 340" width="500px" height="500px"><path d="M298.466,162.8a9.475,9.475,0,0,0-9.4,8.694l-1.517,19.439a7.837,7.837,0,0,0-4.539,6.921,64.668,64.668,0,0,0,1.208,11.918,4.507,4.507,0,0,1-.836,3.668,12.474,12.474,0,0,1-2.355,2.234c-8.469,6.144-18.636,10.357-23.485,12.177-5.454-10.807-14.77-20.054-18.6-23.6a66.859,66.859,0,0,0,2.067-29.774,20.691,20.691,0,0,0,3.6-7.775,17.356,17.356,0,0,0-6.737-33,8.232,8.232,0,0,1,4.734-3.842c.305-.09.625-.17.962-.236.064-.013.121-.04.184-.056.847.373,1.706.736,2.587,1.072a24.48,24.48,0,0,0,8.764,1.589h6.246a12.606,12.606,0,0,0,11.213-6.781,100.9,100.9,0,0,0,8.4-22.587,59.454,59.454,0,0,0,1.627-14.039V61.189a46.69,46.69,0,0,0-6.691-24.46c-5.151-8.4-15.181-18.4-33.738-18.441-1.921-.111-20.981-.894-34.195,11.479a33.966,33.966,0,0,0-9.881,32.43,32.363,32.363,0,0,0,4.433,10.418,13.912,13.912,0,0,0-.908,1.692,16.466,16.466,0,0,0,5.46,19.8c-.526,3.736-1.945,8.229-5.587,10.787-.448.314-.9.6-1.346.895a16.376,16.376,0,0,0-32.506,2.841c0,.268.015.534.028.8-6.035-2.715-15.457-4.39-28.9-.069-2.187.554-28.17,7.247-50.89,18.051a37.356,37.356,0,0,0-15.434,13.654c-4.826,7.55-12.651,20.294-20.33,34.94V13.355a3.426,3.426,0,0,0-3.426-3.427H30.481a3.427,3.427,0,0,0-3.427,3.427V196.173a15.2,15.2,0,0,0-8.345,13.161l-.231,10.142a13.741,13.741,0,0,0,8.576,13.06v94.108a3.427,3.427,0,1,0,6.854,0V233.471c3.866-.28,7.655-.663,11.328-1.144v94.317a3.427,3.427,0,1,0,6.853,0V231.225A25.408,25.408,0,0,0,68,219.536c1.852-3.1,4.185-7.1,6.657-11.336,8.235-14.12,19.365-33.207,25.463-40.819a236.765,236.765,0,0,0,28.437-3.923,228.435,228.435,0,0,0-18.49,38.1c-1.539.413-3.09.808-4.665,1.163a12.882,12.882,0,0,0-9.9,10.856c-.392,2.993-.81,6.046-1.247,9.112H92.337a10.217,10.217,0,0,0-10.211,10.239c0,7.04,1.25,16.811,6.982,24.3A30.263,30.263,0,0,0,93,273.853a127.745,127.745,0,0,0-12.61,18.03,127.788,127.788,0,0,1-12.266,17.129,77.936,77.936,0,0,0-10.764,16.146,3.427,3.427,0,1,0,6.175,2.973,71.168,71.168,0,0,1,9.828-14.7A134.512,134.512,0,0,0,86.29,295.376a124.617,124.617,0,0,1,11.162-16.17c.085.077.174.151.261.227,1.38,3.818,7.3,18.4,22.31,34.653a49.863,49.863,0,0,0,36.525,15.985,3.427,3.427,0,1,0,0-6.853,42.99,42.99,0,0,1-31.49-13.782,110.133,110.133,0,0,1-18.882-27.57c3.379.507,7.972,1.106,13.421,1.588,3.7,4.637,31.034,36.912,83.247,46.56a3.427,3.427,0,0,0,1.245-6.739c-39.825-7.359-64.849-29.036-74.681-39.163,3.149.144,6.458.229,9.888.229,5.089,0,10.438-.19,15.894-.65a128.825,128.825,0,0,0,29.271,19.382c15.991,7.785,32.4,11.724,48.429,11.724a95.116,95.116,0,0,0,23.911-3.029,3.476,3.476,0,0,0,.65-.241,189.287,189.287,0,0,1,17.577,17.315,3.426,3.426,0,0,0,5.258-4.394c-1.031-1.235-25.436-30.061-75.3-58.535,1.992-5.365,5.338-17.97,5-41.56a123.467,123.467,0,0,0,24.875-36.127,63.02,63.02,0,0,1-3.1,16.032,3.432,3.432,0,0,0,1.029,3.68c.141.12,14.16,12.2,19.812,25.523a3.422,3.422,0,0,0,4.2,1.924c.641-.206,15.824-5.151,28.25-14.165a19.328,19.328,0,0,0,3.648-3.459,11.341,11.341,0,0,0,2.26-9.22,56.994,56.994,0,0,1-1.1-10.551.918.918,0,0,1,.912-.918h9.612a1.093,1.093,0,0,1,1.059.711,1.057,1.057,0,0,1-.249,1.228,13.873,13.873,0,0,1-3.392,2.433,3.427,3.427,0,0,0,1.573,6.471h.036a2.922,2.922,0,0,1,1.84.761c.477.615.482,1.964.016,3.7a3.426,3.426,0,0,0,2.421,4.2,3.476,3.476,0,0,0,.891.118,3.43,3.43,0,0,0,3.308-2.54c1.071-4,.661-7.253-1.219-9.678a8.08,8.08,0,0,0-.58-.668,7.991,7.991,0,0,0-5.7-13.591h-5.908l1.42-18.19a2.59,2.59,0,0,1,2.568-2.376h1.964l-.79,13.124a3.429,3.429,0,0,0,3.216,3.626c.07,0,.139.006.208.006a3.427,3.427,0,0,0,3.418-3.22l.815-13.536h4.8a2.579,2.579,0,0,1,2.576,2.575V209.5a17.884,17.884,0,0,1-3.3,10.378c-8.172,11.552-25.937,32.977-53.105,46.664a8.787,8.787,0,0,1-8.551-.385,293.214,293.214,0,0,1-29.276-20.606,3.427,3.427,0,0,0-4.358,5.289,300.2,300.2,0,0,0,30.01,21.134,15.677,15.677,0,0,0,15.259.688c28.494-14.356,47.076-36.753,55.616-48.826a24.7,24.7,0,0,0,4.555-14.336V172.227A9.438,9.438,0,0,0,312.1,162.8Zm-60.185-.7a13.94,13.94,0,1,1-13.94-13.94A13.956,13.956,0,0,1,238.281,162.1Zm9.344-11.059a10.5,10.5,0,0,1-2.862,7.212,20.825,20.825,0,0,0-9.184-13.621,38.954,38.954,0,0,1,.282-4.033,10.685,10.685,0,0,1,1.241-.08A10.534,10.534,0,0,1,247.625,151.038ZM212.639,34.769c11.414-10.688,28.989-9.645,29.161-9.637.08.006.159.009.239.009,12.408,0,21.831,5.1,28.006,15.171a39.844,39.844,0,0,1,5.68,20.877V75.14a27.31,27.31,0,0,0-5.281,2.387,3.425,3.425,0,0,0,1.8,6.341,16.22,16.22,0,0,0,3.478-1.373v6.327a52.593,52.593,0,0,1-1.432,12.417,93.971,93.971,0,0,1-7.812,21.037,5.773,5.773,0,0,1-5.138,3.1H255.1a17.686,17.686,0,0,1-6.322-1.139c-9.107-3.473-16.307-9.437-20.744-13.829a14.325,14.325,0,0,1-4.182-10.134V94.689a3.426,3.426,0,0,0-3.3-3.424,19.492,19.492,0,0,1-8.014-1.809,9.765,9.765,0,0,1-4.642-12.427,14.52,14.52,0,0,1,1.405-2.195c.7-.668,3.7-3.24,7.075-1.444,2.2,1.168,2.954,4.053,3.209,5.668a3.426,3.426,0,0,0,6.769-1.069c-.784-4.966-3.185-8.748-6.759-10.649a12.256,12.256,0,0,0-12.054.355,25.713,25.713,0,0,1-2.787-7.06A27.1,27.1,0,0,1,212.639,34.769ZM205.41,110.5c4.89-3.435,7.107-8.695,8.078-13.4a26.831,26.831,0,0,0,3.508.732v2.443a21.226,21.226,0,0,0,6.214,15,74.582,74.582,0,0,0,12.935,10.267,15.768,15.768,0,0,0-5.06,6.385,30.527,30.527,0,0,0-2.232,9.88A20.7,20.7,0,0,0,204.712,155.3a11.876,11.876,0,1,1,4.547-17.1,3.426,3.426,0,1,0,5.725-3.766,18.688,18.688,0,0,0-13.635-8.336c.016-.309.03-.618.03-.929a17.262,17.262,0,0,0-3.374-10.246A58.961,58.961,0,0,0,205.41,110.5ZM184,114.655a10.534,10.534,0,0,1,10.523,10.522,10.64,10.64,0,0,1-.11,1.485,18.8,18.8,0,0,0-11.477,8.984A10.522,10.522,0,0,1,184,114.655Zm0-15.56a9.543,9.543,0,0,1,9.532,9.532,2.89,2.89,0,0,1-1.117,1.36,17.269,17.269,0,0,0-17.731.548A9.435,9.435,0,0,1,184,99.1ZM45.236,16.781V188.637a3.387,3.387,0,0,0,.122.859q-1.068,2.262-2.1,4.546l-9.346.47V16.781ZM138.325,161c3.423-1.094,13.433-4.581,19.029-9.563a3.427,3.427,0,1,0-4.557-5.119c-5.441,4.843-17.092,8.326-17.536,8.457-15.812,4.5-36.847,5.86-37.058,5.873a3.428,3.428,0,0,0-2.371,1.172c-6.272,7.218-17.819,27.019-27.1,42.929-2.461,4.221-4.786,8.207-6.619,11.272a18.588,18.588,0,0,1-13.051,8.836c-5.18.828-10.677,1.445-16.337,1.835a6.917,6.917,0,0,1-7.4-7.058l.23-10.142a8.324,8.324,0,0,1,7.872-8.092l12.263-.617a3.425,3.425,0,0,0,2.96-2.033c9.8-22.1,22.714-43.315,29.538-53.993A30.526,30.526,0,0,1,90.8,133.6c22.6-10.749,49.46-17.554,49.728-17.622.074-.018.148-.039.219-.062,15.114-4.885,23.838-.9,27.6,1.791a17.319,17.319,0,0,0,12.422,24.532,18.813,18.813,0,0,0-.185,2.493,18.6,18.6,0,0,0,2.549,9.393c-11.85,13.313-34.209,34.3-64.7,44.869A205.689,205.689,0,0,1,138.325,161ZM164.6,282.609c12.459-1.8,25.019-5.252,35.992-11.311a343.4,343.4,0,0,1,50.5,34.763C210.918,314.51,177.02,292.281,164.6,282.609Zm39.623-62.232c-.021.019-.035.043-.055.062s-.046.034-.066.055c-.355.356-36.105,35.561-89.626,31.651a3.427,3.427,0,1,0-.5,6.835c3.062.224,6.056.329,9,.329,39.765,0,68.429-19.308,80.156-28.835-.3,21.8-3.985,31.845-5.131,34.451-34.337,19.48-88.5,10.644-95.846,9.323-7.459-6.53-6.141-17.545-6.129-17.647a3.427,3.427,0,0,0-.793-2.691c-5.163-6.023-6.252-14.735-6.257-20.983a3.366,3.366,0,0,1,.984-2.395,3.327,3.327,0,0,1,2.374-.987s4.988,0,5.04,0c28.326-1.326,56.213-12.48,80.646-32.258a3.426,3.426,0,0,0-4.312-5.326c-22.42,18.148-46.794,28.372-72.506,30.457.377-2.671.744-5.332,1.086-7.943a6,6,0,0,1,4.613-5.062c38.473-8.662,66.483-34.2,80.73-50.051a18.51,18.51,0,0,0,13.765,3.99,147.562,147.562,0,0,1-11.626,13.756,3.426,3.426,0,0,0,4.97,4.718c4.551-4.793,8-8.967,10.326-11.96a20.7,20.7,0,0,0,24.952,12.218A117.185,117.185,0,0,1,204.225,220.377Z"/><path d="M250.2,81.843a29.345,29.345,0,0,1,4.664,1.691,3.427,3.427,0,0,0,2.966-6.178A36,36,0,0,0,251.9,75.2a3.427,3.427,0,0,0-1.692,6.641Z"/><path d="M261.7,48.683a3.733,3.733,0,1,0-3.733-3.733A3.733,3.733,0,0,0,261.7,48.683Z"/><path d="M260.584,57.219a3.733,3.733,0,1,0,3.733-3.733A3.733,3.733,0,0,0,260.584,57.219Z"/></svg>