<svg xmlns="http://www.w3.org/2000/svg"  viewBox="0 0 64 64" width="64px" height="64px"><path fill="#edae65" d="m54.17,44.27l-9.9,9.9c-.39.39-1.02.39-1.41,0l-1.42-1.41c-.39-.39-.39-1.03,0-1.42l1.42-1.41,7.07-7.07,1.41-1.42c.39-.39,1.03-.39,1.42,0l1.41,1.42c.39.39.39,1.02,0,1.41Z"/><path fill="#edae65" d="m28,59c3.51-2.05,7.9-5.27,12-10.31,10.97-13.47,11.9-30.09,12-35.52-3.05-.08-7.25-.57-12-2.29-5.33-1.94-9.36-4.71-12-6.88-2.64,2.16-6.67,4.94-12,6.88-4.75,1.73-8.95,2.21-12,2.29.1,5.43,1.03,22.05,12,35.52,4.1,5.04,8.49,8.26,12,10.31Z"/><path fill="#a26a55" d="m28,54.28c-3.33-2.22-6.31-4.95-8.9-8.12-7.94-9.75-10.31-21.45-10.92-29.31,3.12-.39,6.19-1.13,9.18-2.22,3.74-1.36,7.31-3.24,10.63-5.6,3.32,2.36,6.89,4.24,10.63,5.6,2.99,1.09,6.07,1.83,9.18,2.22-.62,7.85-2.98,19.56-10.92,29.31-2.58,3.17-5.57,5.9-8.9,8.12Z"/><rect width="4" height="11" x="51.11" y="47.61" fill="#a26a55" transform="rotate(-45 53.11 53.111)"/><circle cx="57" cy="57" r="3" fill="#edae65"/><rect width="7.07" height="7.07" x="22.35" y="22.35" fill="#d3dce5"/><polygon fill="#9dabc4" points="49.93 42.86 46.39 46.39 29.42 29.42 29.42 22.35 49.93 42.86"/><polygon fill="#b8c3d5" points="46.39 46.39 42.86 49.93 22.35 29.42 29.42 29.42 46.39 46.39"/></svg>