<svg xmlns="http://www.w3.org/2000/svg"  viewBox="0 0 50 50" width="50px" height="50px"><path d="M 22.984375 1.9863281 A 1.0001 1.0001 0 0 0 22.841797 2 L 6 2 A 1.0001 1.0001 0 0 0 5 3 L 5 18.832031 A 1.0001 1.0001 0 0 0 5 19.158203 L 5 32.832031 A 1.0001 1.0001 0 0 0 5 33.158203 L 5 47 A 1.0001 1.0001 0 0 0 6 48 L 13.832031 48 A 1.0001 1.0001 0 0 0 14.158203 48 L 38 48 A 1.0001 1.0001 0 0 0 39 47 L 39 28.167969 A 1.0001 1.0001 0 0 0 38.707031 27.279297 A 1.0001 1.0001 0 0 0 38.705078 27.277344 A 1.0001 1.0001 0 0 0 38.699219 27.271484 A 1.0001 1.0001 0 0 0 38.691406 27.263672 A 1.0001 1.0001 0 0 0 37.283203 27.289062 A 1.0001 1.0001 0 0 0 37.277344 27.294922 A 1.0001 1.0001 0 0 0 37.263672 27.308594 A 1.0001 1.0001 0 0 0 37 28.158203 L 37 46 L 15 46 L 15 43 A 1.0001 1.0001 0 1 0 13 43 L 13 46 L 7 46 L 7 34 L 13 34 L 13 37 A 1.0001 1.0001 0 1 0 15 37 L 15 34 L 26 34 A 1.0001 1.0001 0 1 0 26 32 L 14.167969 32 A 1.0001 1.0001 0 0 0 13.841797 32 L 7 32 L 7 20 L 19 20 A 1.0001 1.0001 0 1 0 19 18 L 7 18 L 7 4 L 22 4 L 22 14 A 1.0001 1.0001 0 1 0 24 14 L 24 4 L 37 4 L 37 20.832031 A 1.0001 1.0001 0 0 0 37.289062 21.716797 A 1.0001 1.0001 0 0 0 37.294922 21.722656 A 1.0001 1.0001 0 0 0 37.308594 21.736328 A 1.0001 1.0001 0 0 0 38.158203 22 L 44 22 A 1.0001 1.0001 0 1 0 44 20 L 39 20 L 39 3 A 1.0001 1.0001 0 0 0 38 2 L 23.167969 2 A 1.0001 1.0001 0 0 0 22.984375 1.9863281 z M 43.65625 22.595703 C 43.270938 22.648672 42.932812 22.922812 42.820312 23.320312 C 42.680312 23.850312 42.990531 24.400781 43.519531 24.550781 C 43.608531 24.580781 43.699063 24.589844 43.789062 24.589844 C 44.228062 24.589844 44.63 24.289609 44.75 23.849609 C 44.9 23.319609 44.580781 22.769141 44.050781 22.619141 C 43.918281 22.584141 43.784687 22.578047 43.65625 22.595703 z M 42.501953 24.873047 C 42.246953 24.894297 41.998359 25.015469 41.818359 25.230469 C 41.459359 25.650469 41.519453 26.280859 41.939453 26.630859 C 42.130453 26.790859 42.349125 26.870094 42.578125 26.871094 C 42.869125 26.871094 43.149609 26.749531 43.349609 26.519531 C 43.700609 26.089531 43.648516 25.459375 43.228516 25.109375 C 43.018516 24.929375 42.756953 24.851797 42.501953 24.873047 z M 40.496094 26.439453 C 40.365859 26.443453 40.234375 26.471797 40.109375 26.529297 C 39.609375 26.768297 39.390859 27.359375 39.630859 27.859375 C 39.800859 28.229375 40.159062 28.439453 40.539062 28.439453 C 40.679062 28.439453 40.819938 28.410609 40.960938 28.349609 C 41.460938 28.109609 41.669453 27.519531 41.439453 27.019531 C 41.267703 26.644531 40.886797 26.427453 40.496094 26.439453 z"/></svg>