<svg xmlns="http://www.w3.org/2000/svg"  viewBox="0 0 48 48" width="100px" height="100px"><path fill="#3949ab" d="M36.005 40L23.995 38 23.995 18 36.005 18z"/><path fill="#283593" d="M24.005 38L11.995 40 11.995 18 24.005 18z"/><path fill="#9fa8da" d="M41,39l-14,4V31l5.087-2.907C33.27,27.417,34,26.159,34,24.797v-0.001C34,22.699,32.3,21,30.203,21h0c-1.362,0-2.62,0.73-3.296,1.913L24,28V5c2.387,2.109,12.088,4.314,14.962,12.089C41.721,24.556,38,33,38,33L41,39z"/><path fill="#ffb300" d="M26.907,22.913L24,28V3C24,3,27.583,21.73,26.907,22.913z"/><path fill="#c5cae9" d="M7,39l14,4V31l-5.087-2.907C14.73,27.417,14,26.159,14,24.797v-0.001C14,22.699,15.7,21,17.797,21h0c1.362,0,2.62,0.73,3.296,1.913L24,28V5C21.613,7.109,11.912,9.314,9.038,17.089C6.279,24.556,10,33,10,33L7,39z"/><path fill="#ffd54f" d="M21.093,22.913L24,28V3C24,3,20.417,21.73,21.093,22.913z"/><path fill="#7986cb" d="M29 16A1 1 0 1 0 29 18 1 1 0 1 0 29 16zM33 16A1 1 0 1 0 33 18 1 1 0 1 0 33 16zM37 16A1 1 0 1 0 37 18 1 1 0 1 0 37 16z"/><path fill="#9fa8da" d="M11 16A1 1 0 1 0 11 18 1 1 0 1 0 11 16zM15 16A1 1 0 1 0 15 18 1 1 0 1 0 15 16zM19 16A1 1 0 1 0 19 18 1 1 0 1 0 19 16z"/></svg>