<svg xmlns="http://www.w3.org/2000/svg" xmlns:xlink="http://www.w3.org/1999/xlink" viewBox="0 0 340 340" width="500px" height="500px"><defs><linearGradient id="6sSZwC5xM53hgaJz8nfqec" x1="195.165" x2="245.873" y1="250.736" y2="250.736" gradientUnits="userSpaceOnUse"><stop offset="0" stop-color="#ffe1db"/><stop offset="1" stop-color="#feb5a9"/></linearGradient><linearGradient id="6sSZwC5xM53hgaJz8nfqef" x1="300.157" x2="293.362" y1="290.846" y2="4.955" gradientUnits="userSpaceOnUse"><stop offset="0" stop-color="#ff7b72"/><stop offset=".291" stop-color="#f37169"/><stop offset="1" stop-color="#da5b55"/></linearGradient><linearGradient id="6sSZwC5xM53hgaJz8nfqea" x1="89.22" x2="92.356" y1="89.048" y2="247.748" gradientUnits="userSpaceOnUse"><stop offset="0" stop-color="#5d838d"/><stop offset="1" stop-color="#4c6a80"/></linearGradient><linearGradient id="6sSZwC5xM53hgaJz8nfqeb" x1="47.894" x2="46.9" y1="122.716" y2="288.811" gradientUnits="userSpaceOnUse"><stop offset="0" stop-color="#87acbb"/><stop offset="1" stop-color="#5d838d"/></linearGradient><linearGradient id="6sSZwC5xM53hgaJz8nfqeg" x1="54.632" x2="57.768" y1="89.732" y2="248.431" xlink:href="#6sSZwC5xM53hgaJz8nfqea"/><linearGradient id="6sSZwC5xM53hgaJz8nfqeh" x1="96.737" x2="95.743" y1="123.009" y2="289.103" xlink:href="#6sSZwC5xM53hgaJz8nfqeb"/><linearGradient id="6sSZwC5xM53hgaJz8nfqei" x1="177.12" x2="180.256" y1="87.311" y2="246.01" xlink:href="#6sSZwC5xM53hgaJz8nfqea"/><linearGradient id="6sSZwC5xM53hgaJz8nfqej" x1="40.395" x2="43.531" y1="90.013" y2="248.712" xlink:href="#6sSZwC5xM53hgaJz8nfqea"/><linearGradient id="6sSZwC5xM53hgaJz8nfqek" x1="95.868" x2="99.004" y1="88.917" y2="247.616" xlink:href="#6sSZwC5xM53hgaJz8nfqea"/><linearGradient id="6sSZwC5xM53hgaJz8nfqel" x1="45.996" x2="107.54" y1="252.925" y2="252.925" xlink:href="#6sSZwC5xM53hgaJz8nfqec"/><linearGradient id="6sSZwC5xM53hgaJz8nfqee" x1="61.931" x2="105.219" y1="276.574" y2="320.861" gradientUnits="userSpaceOnUse"><stop offset="0" stop-color="#d8887e"/><stop offset="1" stop-color="#9d5848"/></linearGradient><linearGradient id="6sSZwC5xM53hgaJz8nfqem" x1="153.324" x2="151.506" y1="173.882" y2="261.738" gradientUnits="userSpaceOnUse"><stop offset="0" stop-color="#fff7ee"/><stop offset="1" stop-color="#efd3cc"/></linearGradient><linearGradient id="6sSZwC5xM53hgaJz8nfqed" x1="181.638" x2="185.984" y1="154.083" y2="237.425" gradientUnits="userSpaceOnUse"><stop offset="0" stop-color="#6f6f81"/><stop offset="1" stop-color="#555568"/></linearGradient><linearGradient id="6sSZwC5xM53hgaJz8nfqen" x1="133.063" x2="167.711" y1="166.773" y2="166.773" xlink:href="#6sSZwC5xM53hgaJz8nfqec"/><linearGradient id="6sSZwC5xM53hgaJz8nfqeo" x1="102.427" x2="102.865" y1="31.217" y2="106.898" xlink:href="#6sSZwC5xM53hgaJz8nfqed"/><linearGradient id="6sSZwC5xM53hgaJz8nfqep" x1="154.802" x2="155.239" y1="30.914" y2="106.595" xlink:href="#6sSZwC5xM53hgaJz8nfqed"/><linearGradient id="6sSZwC5xM53hgaJz8nfqeq" x1="118.305" x2="122.656" y1="157.271" y2="240.714" xlink:href="#6sSZwC5xM53hgaJz8nfqed"/><linearGradient id="6sSZwC5xM53hgaJz8nfqer" x1="239.227" x2="303.938" y1="280.563" y2="284.302" xlink:href="#6sSZwC5xM53hgaJz8nfqee"/><linearGradient id="6sSZwC5xM53hgaJz8nfqes" x1="118.743" x2="189.004" y1="92.484" y2="92.484" xlink:href="#6sSZwC5xM53hgaJz8nfqec"/><linearGradient id="6sSZwC5xM53hgaJz8nfqet" x1="38.388" x2="37.393" y1="122.659" y2="288.754" xlink:href="#6sSZwC5xM53hgaJz8nfqeb"/><linearGradient id="6sSZwC5xM53hgaJz8nfqeu" x1="49.754" x2="52.891" y1="89.828" y2="248.527" xlink:href="#6sSZwC5xM53hgaJz8nfqea"/><linearGradient id="6sSZwC5xM53hgaJz8nfqev" x1="296.527" x2="299.978" y1="239.02" y2="314.948" xlink:href="#6sSZwC5xM53hgaJz8nfqee"/><linearGradient id="6sSZwC5xM53hgaJz8nfqew" x1="186.704" x2="109.864" y1="281.522" y2="329.402" xlink:href="#6sSZwC5xM53hgaJz8nfqea"/><linearGradient id="6sSZwC5xM53hgaJz8nfqex" x1="120.923" x2="203.169" y1="285.786" y2="325.558" xlink:href="#6sSZwC5xM53hgaJz8nfqeb"/><linearGradient id="6sSZwC5xM53hgaJz8nfqey" x1="-100.423" x2="-99.931" y1="170" y2="170" gradientUnits="userSpaceOnUse"><stop offset="0" stop-color="#444456"/><stop offset="1" stop-color="#363644"/></linearGradient></defs><path fill="url(#6sSZwC5xM53hgaJz8nfqec)" d="M195.165,235.822s8.719,21.263,22.954,38.747a28.441,28.441,0,0,0,20.919,10.584q.564.019,1.141.02l5.694-23.846s-5.687-1.335-14.322-9.089c-6.153-5.526-11.953-22.292-14.964-35.94Z"/><path fill="#e78582" d="M223.729,239.368a140.2,140.2,0,0,1-7.142-23.07l-21.422,19.524s2.038,4.964,5.743,12.06Z"/><path fill="url(#6sSZwC5xM53hgaJz8nfqef)" d="M303.761,210.71c-.964-4.625-1.74-9.368-2.355-14.166a18.956,18.956,0,0,1,4.162-14.7,18.029,18.029,0,0,1,7.13-5.158,2.452,2.452,0,0,0,1.533-2.552L312.78,160.45a2.452,2.452,0,0,0-1.364-1.952,26.1,26.1,0,0,1-5.017-3.149,17.61,17.61,0,0,1-6.383-14.753,402.906,402.906,0,0,1,4.7-43.158c3.482-30.115-3-63.063-6.415-77.513a9.748,9.748,0,0,0-9.493-7.5h-4.717A5.231,5.231,0,0,0,279,18.888c3.338,13.856,10.231,47.69,6.664,78.55,0,0-11.323,63.373-.974,113.184a253.891,253.891,0,0,1,4.381,28.4c1.937,21.082,3.47,55.65-2.41,88.383h19.049c5.83-32.453,4.372-66.71,2.46-87.839A253.966,253.966,0,0,0,303.761,210.71Z"/><polygon fill="url(#6sSZwC5xM53hgaJz8nfqea)" points="64.076 140.945 48.544 229.632 60.517 280.837 107.54 308.24 136.884 302.043 124.066 142.239 64.076 140.945"/><path fill="url(#6sSZwC5xM53hgaJz8nfqeb)" d="M42.413,166.658c-.224,2.009-.226,3.258-.226,3.258v35.178a24.409,24.409,0,0,1,0,8.258s-10.427,8.4-10.427,28.093v16.237a26.821,26.821,0,0,0,3.123,12.8c2.537,4.678,7.026,9.555,14.834,10.352l11.005-17.671s-12.095-31.858,1.228-49.814a25.491,25.491,0,0,1,.128-6.42l.68-34.127a41.514,41.514,0,0,1,.289-4.779A51.64,51.64,0,0,0,42.413,166.658Z"/><path fill="url(#6sSZwC5xM53hgaJz8nfqeg)" d="M42.413,166.658l20.644,1.291a72.42,72.42,0,0,1,6.44-21.21l-17.3-2.256C45.017,151.4,42.988,161.517,42.413,166.658Z"/><path fill="url(#6sSZwC5xM53hgaJz8nfqeh)" d="M39.14,87.688s21.423-3.372,41.859-.2c24.179,3.75,45.766,7.558,73.709,8.5l-2.609,60.37-12.95-1.451s-67.726.9-96.314-2.61Z"/><path fill="url(#6sSZwC5xM53hgaJz8nfqei)" d="M185.1,95.871c-6.93.269-13.452.37-19.649.331.538,14.187-.69,39.407-13.352,60.156l22.776,2.552a22.978,22.978,0,0,0,23.193-12.733c7.6-15.539,6.857-28.681,4.386-37.722A17.264,17.264,0,0,0,185.1,95.871Z"/><path fill="url(#6sSZwC5xM53hgaJz8nfqej)" d="M56.464,119.108c1.02,17.841-5.082,32.7-13.629,33.189-5.167.3-10.044-4.726-13.319-12.685-2.255-8.554-3.793-15.882-4.1-21.1-.377-16.769,5.557-30.353,13.723-30.82C47.688,87.2,55.444,101.266,56.464,119.108Z"/><path fill="url(#6sSZwC5xM53hgaJz8nfqek)" d="M91.262,99.645s3.529,31.482-8,52.719a5.277,5.277,0,0,0,4.133,7.859,35.506,35.506,0,0,0,8.011-.364,7.4,7.4,0,0,0,5.268-3.885c3.427-6.49,10.565-23.3,10.1-50.057Z"/><path fill="url(#6sSZwC5xM53hgaJz8nfqel)" d="M81.555,222.355C64.869,244.931,53.516,263.3,46,283.494l35-13.169,26.541-31.782Z"/><path fill="#e78582" d="M71.98,235.731l26.2,14.024,9.362-11.212L81.555,222.355C78.141,226.975,74.961,231.412,71.98,235.731Z"/><path fill="url(#6sSZwC5xM53hgaJz8nfqee)" d="M85.209,268.37s-25.218-.3-44.94,15.473a1.643,1.643,0,0,0,.29,2.756l31.2,15.422a9.006,9.006,0,0,1,5.014,8.073v2.112a15.2,15.2,0,0,0,15.2,15.2h12.577v-26.63S98.2,281.364,85.209,268.37Z"/><path fill="url(#6sSZwC5xM53hgaJz8nfqem)" d="M113.779,159.265S91.833,186.4,75.238,209.65a6.269,6.269,0,0,0,1.148,8.515l37.393,30.313.379,3.76s.13,5.7-.108,13.264c12.214,8.8,24.548,16.221,37.124,20.912,15.844-7.977,30.9-15.96,38.823-24A175.831,175.831,0,0,1,189,242.7l39.53-29.475a6.264,6.264,0,0,0,.938-9.183L197.7,168.287a29.494,29.494,0,0,0-21.231-9.022Z"/><path fill="#ceb5ae" d="M161.2,198.827s-17.308,25.765-42.457,24.195V216.3s24.713,1.127,38.047-24.934Z"/><path fill="url(#6sSZwC5xM53hgaJz8nfqed)" d="M164.583,154.636h7.088a15.569,15.569,0,0,1,12.667,6.487,174.253,174.253,0,0,1,10.033,15.757,72.138,72.138,0,0,1,7.63,52q-.129.546-.268,1.094a15.738,15.738,0,0,1-7.654,9.931L189,242.7s6.749-49.262-26.165-79.343Z"/><path fill="url(#6sSZwC5xM53hgaJz8nfqen)" d="M135.438,134.718c-.06,6.9-.222,14.777-.583,22.607-.29,6.272-1.343,11.121-1.792,17.127,0,0,8.842,14.728,28.137,24.375,0,0,3.429-4.042,5.765-15.6,1.269-6.283.741-12.8-.252-19.128a116.508,116.508,0,0,1-1.388-15.577Z"/><path fill="url(#6sSZwC5xM53hgaJz8nfqeo)" d="M124.066,35.017S98.029,26.93,85.54,47.3a32.49,32.49,0,0,0-2.77,27.246c3.4,10.208,7.511,28.644,1.561,47.393a4.448,4.448,0,0,0,4.955,5.729c12.395-2.006,35.888-10.76,33.473-48.4Z"/><path fill="url(#6sSZwC5xM53hgaJz8nfqep)" d="M183.075,88.1s12.616-3.09,17.563-17.755A31.982,31.982,0,0,0,198.761,45c-3.386-6.3-9.71-12.773-21.463-13.47a31.832,31.832,0,0,0-4.911-4.362c-26.882-19.9-64.92-.091-64.847,33.358a79.6,79.6,0,0,0,2.019,17.083s6.388,26.626,42.243,24.634Z"/><path fill="#e78582" d="M135.312,112.791s.233,9.356.125,21.927a59.675,59.675,0,0,0,29.893,13.8,79.363,79.363,0,0,1,1.268-16.442Z"/><path fill="url(#6sSZwC5xM53hgaJz8nfqeq)" d="M129.94,150.124a55.868,55.868,0,0,0-14.6,3.342,8.979,8.979,0,0,0-5.918,7.959c-.713,13.943-2.555,51.168-3.459,81.005A9.443,9.443,0,0,0,112.5,251.7l1.659.537S133.068,195.99,134.98,155A4.683,4.683,0,0,0,129.94,150.124Z"/><path fill="url(#6sSZwC5xM53hgaJz8nfqer)" d="M245.873,261.327s23.131,5.633,41.763,3.361v30.145S261.848,301.984,236.4,300C236.4,300,234.14,277.507,245.873,261.327Z"/><path fill="url(#6sSZwC5xM53hgaJz8nfqes)" d="M176.075,48.336s-5.86,31.591-40.508,43.565a7.322,7.322,0,0,0-1.19-1.884c-4-4.761-11.616-3.408-14.2,2.252a16.6,16.6,0,0,0-1.269,4.406c-1.4,9.183,6.213,17.465,15.424,16.268.321-.042.647-.092.979-.152,0,0,.892,2.164,2.314,5.593a19.232,19.232,0,0,0,7.229,8.753,69.738,69.738,0,0,0,21.7,9.238,9.1,9.1,0,0,0,7.923-1.8,39.156,39.156,0,0,0,6.956-7.468,25.974,25.974,0,0,0,4.389-10.907c1.364-8.379,3.84-26.552,3.013-43.9a27.978,27.978,0,0,0-2.305-9.872C184.614,58.03,181.243,52.027,176.075,48.336Z"/><circle cx="164.527" cy="90.633" r="3.753" fill="#e78582"/><circle cx="177.696" cy="90.633" r="3.753" fill="#e78582"/><path fill="url(#6sSZwC5xM53hgaJz8nfqet)" d="M50.629,129.013s4.587-20.6-8.817-24.5c-7.6-2.207-10.324,2.988-11.285,7.573a15.4,15.4,0,0,0,2.192,11.867c.148.217.3.433.467.646a.958.958,0,0,0,1.7-.7,28.41,28.41,0,0,1-.04-7.187,4.714,4.714,0,0,1,8.047-2.525,4.522,4.522,0,0,1,.846,1.185,16.526,16.526,0,0,1,1.619,6.214,31.358,31.358,0,0,1-.556,8.518,7.618,7.618,0,0,1-12.654,3.83c-4.991-4.712-6.409-11.02-6.731-15.427.018.784.044,1.573.09,2.369A58.778,58.778,0,0,0,29.52,139.61a18.514,18.514,0,0,0,6.058,2.855C46.733,145.418,50.629,129.013,50.629,129.013Z"/><polygon fill="url(#6sSZwC5xM53hgaJz8nfqeu)" points="42.187 205.094 42.187 213.352 61.95 213.352 62.078 206.932 42.187 205.094"/><path fill="#c84343" d="M309.835,280.273l-19.043-.6a288.467,288.467,0,0,1-4.127,47.729h19.049A287.784,287.784,0,0,0,309.835,280.273Z"/><rect width="32.49" height="41.509" x="282.111" y="258.49" fill="url(#6sSZwC5xM53hgaJz8nfqev)" rx="11.382"/><path fill="#ceb5ae" d="M192.959,282.1s-1.787-8.332-2.961-19.687c-16.625,9.355-39.611,16.829-39.611,16.829C137.237,275.76,119.8,268.1,114.049,265.5a185.5,185.5,0,0,1-1.625,20.4L154.971,300Z"/><path fill="url(#6sSZwC5xM53hgaJz8nfqew)" d="M188.678,276.778c-11.734,6.224-43.39,20.93-85.484,24a112.078,112.078,0,0,0,0,26.63s65.788,3.745,102.144-25.339c0,0-.415-13.2-7.147-22.991A7.366,7.366,0,0,0,188.678,276.778Z"/><path fill="url(#6sSZwC5xM53hgaJz8nfqex)" d="M116.672,277.349c13.084,6.012,44.326,18.552,88.666,24.715,0,0,1.721,15.011-.5,25.339,0,0-67.337-3.4-101.645-26.63a89.891,89.891,0,0,1,3.5-18.941A7.274,7.274,0,0,1,116.672,277.349Z"/><path fill="url(#6sSZwC5xM53hgaJz8nfqey)" d="M312.907,258.674c-.285-6.451-.719-12.978-1.3-19.42a255.591,255.591,0,0,0-4.472-29.247c-.91-4.368-1.687-9.045-2.31-13.9a15.5,15.5,0,0,1,3.37-12.031,13.654,13.654,0,0,1,6.885-4.545,3.444,3.444,0,0,0,2.792-3.749l-1.813-17.09a3.443,3.443,0,0,0-2.063-2.8,23.423,23.423,0,0,1-5.442-3.229,14.158,14.158,0,0,1-5.1-11.856,403.359,403.359,0,0,1,4.653-42.76c.012-.07.023-.14.031-.21,4.65-40.229-7.905-84.493-8.442-86.358a3.444,3.444,0,0,0-3.31-2.492H277.338a3.446,3.446,0,0,0-3.31,4.4c.127.443,12.683,44.752,8.229,83.557-.143.811-.721,4.16-1.448,9.391a34.369,34.369,0,0,0-3.152-4.545,27.9,27.9,0,0,1-6.186-14.6l-.483-4.239a3.445,3.445,0,0,0-6.846.781l.483,4.239a34.767,34.767,0,0,0,7.711,18.192,28.155,28.155,0,0,1,6.346,18.483c-2.19,23.191-3.514,57.063,2.639,86.677a249.258,249.258,0,0,1,4.323,28.014c.526,5.722.931,11.528,1.218,17.293a14.916,14.916,0,0,0-5.745,5.1c-16.415.569-34.2-3.691-34.427-3.746-.12-.032-5.187-1.436-12.837-8.305-3.881-3.485-8.606-14.04-12.154-27.058l8.894-6.632a9.709,9.709,0,0,0,1.454-14.234L200.278,166c-.031-.035-.063-.07-.095-.1a32.945,32.945,0,0,0-14.75-8.823,19.071,19.071,0,0,0-13.762-5.881h-2.817a89.485,89.485,0,0,1,.154-11.133,12.566,12.566,0,0,0,7.664-2.828,42.345,42.345,0,0,0,7.572-8.129,29.578,29.578,0,0,0,4.982-12.351c.653-4.009,1.474-9.7,2.125-16.282a13.745,13.745,0,0,1,7.78,8.894c2.144,7.845,3.163,20.338-4.157,35.3a19.549,19.549,0,0,1-2.885,4.323,3.446,3.446,0,0,0,5.171,4.555,26.511,26.511,0,0,0,3.9-5.85c8.265-16.893,7.071-31.155,4.614-40.144a20.717,20.717,0,0,0-13.831-14.188q.2-2.955.334-6.033A31.541,31.541,0,0,0,203.9,71.444,35.515,35.515,0,0,0,201.8,43.366a28.032,28.032,0,0,0-22.91-15.17,40.332,40.332,0,0,0-4.449-3.8,43,43,0,0,0-45.791-3.812,44.982,44.982,0,0,0-12.7,9.55c-8.916-.688-24.3.606-33.347,15.36a35.819,35.819,0,0,0-3.1,30.137c3.043,9.133,7.29,27.158,1.546,45.261a7.891,7.891,0,0,0,5.645,10.046,65.126,65.126,0,0,1-6.454,19.782c-.062.115-.107.237-.164.354-10.768-.3-19.851-.723-27.148-1.273a28.108,28.108,0,0,0,3.5-6.283c2.766-6.736,4-15.475,3.479-24.608s-2.746-17.674-6.262-24.05a29.52,29.52,0,0,0-3.316-4.872,153.412,153.412,0,0,1,22.028-.028,3.445,3.445,0,1,0,.531-6.87,164.513,164.513,0,0,0-34.261,1.191c-5.393.463-10.027,4.769-13.072,12.185-2.766,6.735-4,15.474-3.479,24.607s2.746,17.674,6.261,24.05c3.549,6.438,8.128,10.133,13.035,10.583a48.008,48.008,0,0,0-2.626,14.209V211.87c-3.053,3.135-10.426,12.478-10.426,29.575v16.237a30.357,30.357,0,0,0,3.538,14.445,24.021,24.021,0,0,0,7.186,8.315c-1.012.78-2.017,1.587-3,2.447a3.445,3.445,0,0,0,.739,5.684l33.45,16.536a5.527,5.527,0,0,1,3.1,4.985v2.112a18.663,18.663,0,0,0,18.642,18.642H103.1c.638.034,3.413.168,7.755.168a228.95,228.95,0,0,0,50.748-5.648,340.2,340.2,0,0,0,43.059,5.476c.059,0,.117,0,.176,0a3.445,3.445,0,0,0,3.366-2.721c2.228-10.366.744-24.723.568-26.324-.068-1.6-.831-14.627-7.746-24.683a10.7,10.7,0,0,0-6.221-4.321,193.45,193.45,0,0,1-2.364-28.064l2.381-1.313c3.566,7.44,10.835,21.3,20.622,33.322a32.039,32.039,0,0,0,17.692,11.083,69.043,69.043,0,0,0-.168,12.516,3.444,3.444,0,0,0,3.16,3.09c3.172.248,6.347.356,9.482.356a181.423,181.423,0,0,0,37.751-4.374,14.935,14.935,0,0,0,3.056,2.23,253.105,253.105,0,0,1-3.145,25.148,3.419,3.419,0,0,0-.048.61h6.93c1.331-7.532,2.352-15.577,3.036-23.974.1,0,.2.015.3.015h9.725a14.88,14.88,0,0,0,2.124-.17c-.684,8.255-1.695,16.151-3.018,23.52a3.5,3.5,0,0,0-.048.609h6.934a263.831,263.831,0,0,0,3.279-27.233,14.8,14.8,0,0,0,5.556-11.553V269.872A14.787,14.787,0,0,0,312.907,258.674ZM226.9,206.328a2.82,2.82,0,0,1-.423,4.134L206.19,225.586a75.54,75.54,0,0,0-8.817-50.4c-1.075-1.91-2.206-3.8-3.36-5.682C194.411,169.87,226.9,206.328,226.9,206.328Zm-56.556-22.423a41.171,41.171,0,0,0,.726-5.82c15.366,22.513,15.415,50.265,14.841,60.3a83.919,83.919,0,0,0-.023,9.45c.409,7.35,1.194,19.96,2.035,25.5-.289.123-.575.256-.856.405a205.145,205.145,0,0,1-33.217,13.728,273.106,273.106,0,0,1-35.736-13.245,10.777,10.777,0,0,0-1.006-.4c.634-9.787.547-18.682.508-21.055,1.621-4.891,12.109-37.18,17.612-69.755a79.588,79.588,0,0,0,21.068,17.11c-3.051,4.332-9.84,12.387-20.365,16.386a3.533,3.533,0,0,0-2.195,4.222,3.438,3.438,0,0,0,4.522,2.263c16.263-6.125,24.6-20.067,25.835-22.27C165.057,199.429,168.177,194.618,170.341,183.905Zm-57.479-22.3a5.541,5.541,0,0,1,3.666-4.907,54.893,54.893,0,0,1,11.337-2.885,3.138,3.138,0,0,1,3.551,3.29v.016q-.1,1.715-.249,3.463c-.185,2-1.31,10.7-1.516,13.353-4.319,30.364-14.276,63.169-17.632,73.727a6.033,6.033,0,0,1-2.612-5.13C110.306,212.831,112.122,176.044,112.862,161.607Zm-6.322-10.091a107.026,107.026,0,0,0,7.264-32.059,37.964,37.964,0,0,0,6.386-8.343c.066.07.128.143.2.211a16.976,16.976,0,0,0,11.55,5.145c.088,5.8.191,17.9-.172,31.061a9.958,9.958,0,0,0-4.833-.542h0a61.734,61.734,0,0,0-12.768,3.24,12.584,12.584,0,0,0-2.608,1.317Q109.106,151.535,106.54,151.516Zm32.367-24.9a22.432,22.432,0,0,0,4.065,3.411,72.766,72.766,0,0,0,19.228,8.754,109.594,109.594,0,0,0,1.11,25.851c.793,5.057,1.54,11.664.278,17.913a49.558,49.558,0,0,1-3.673,11.712,71.1,71.1,0,0,1-23.256-20.606c.585-4.287,1.058-8.532,1.39-12.674.091-1.018.17-2.061.225-3.151.006-.1.014-.2.02-.294v-.015l0-.029C138.809,146.357,138.921,135.072,138.907,126.612Zm43.518-10.968a22.645,22.645,0,0,1-3.8,9.463,35.993,35.993,0,0,1-6.34,6.807,5.681,5.681,0,0,1-4.927,1.111,66.342,66.342,0,0,1-20.626-8.773,15.714,15.714,0,0,1-5.929-7.189c-1.419-3.421-2.337-5.637-2.337-5.637a4.663,4.663,0,0,0-4.582-1.9,10.111,10.111,0,0,1-8.578-3.02,10.864,10.864,0,0,1-3-9.313,13.211,13.211,0,0,1,1-3.5,5.324,5.324,0,0,1,4.14-3.087,4.671,4.671,0,0,1,4.289,1.623,5.067,5.067,0,0,1,.61.9v0a3.447,3.447,0,0,0,4.342,2.025c27.384-9.464,37.681-30.332,41.173-40.476a37.4,37.4,0,0,1,5.513,9.123,24.446,24.446,0,0,1,2.02,8.656C186.2,89.233,183.879,106.715,182.425,115.644ZM131.753,26.735a36.228,36.228,0,0,1,38.584,3.2,29.532,29.532,0,0,1,4.339,3.826,3.438,3.438,0,0,0,2.418,1.206c8.475.5,14.743,4.427,18.633,11.663a28.6,28.6,0,0,1,1.647,22.613,25.488,25.488,0,0,1-4.936,8.728c-.018-1.946-.065-3.9-.158-5.839a31.323,31.323,0,0,0-2.589-11.087c-2.092-4.786-5.805-11.362-11.614-15.511a3.448,3.448,0,0,0-5.388,2.167c-.225,1.179-5.712,28.31-35.741,40.023a11.59,11.59,0,0,0-10.427-3.938,12.147,12.147,0,0,0-7.36,3.883,29,29,0,0,1-6.24-10.809,76.684,76.684,0,0,1-1.936-16.344A37.58,37.58,0,0,1,131.753,26.735ZM86.038,73.454A28.95,28.95,0,0,1,88.477,49.1c5.661-9.231,14.5-11.934,22.3-12.2A44.5,44.5,0,0,0,104.1,60.53a83.555,83.555,0,0,0,2.114,17.88A35.8,35.8,0,0,0,115.9,94.2c-.156.635-.3,1.282-.4,1.954a17.86,17.86,0,0,0,.545,7.753c-5.88,14.105-18.082,18.861-27.313,20.356a.977.977,0,0,1-.925-.337.953.953,0,0,1-.2-.95C93.949,103.015,89.346,83.381,86.038,73.454Zm.257,80.553c3.528-6.5,6.033-14.493,7.481-23.743a46.121,46.121,0,0,0,12.486-5.02c-1.967,14.709-6.124,24.378-8.629,29.121a3.98,3.98,0,0,1-2.8,2.1,32.2,32.2,0,0,1-7.233.322,1.583,1.583,0,0,1-1.3-.849A1.993,1.993,0,0,1,86.3,154.007ZM64.763,215.33c.04-.056.073-.116.11-.175a3.394,3.394,0,0,0,.193-.356c.032-.068.062-.136.089-.207a3.39,3.39,0,0,0,.129-.416c.015-.059.034-.115.045-.174a3.423,3.423,0,0,0,.065-.582l.809-40.615a52.173,52.173,0,0,1,2.7-15.214q5.082.208,10.79.367a9,9,0,0,0,.587,1.325,8.467,8.467,0,0,0,6.921,4.379q1.359.081,2.669.08a36.671,36.671,0,0,0,6.121-.487,10.863,10.863,0,0,0,7.257-4.876l3.224.027a12.418,12.418,0,0,0-.488,2.849c-.037.738-.079,1.55-.122,2.4-7.637,9.618-21.815,27.727-33.424,43.992a9.729,9.729,0,0,0,1.783,13.192l2.621,2.125c-6.528,8.934-12,16.963-16.649,24.463-1.719-10.056-2.091-23.1,4.528-32.025C64.734,215.381,64.746,215.354,64.763,215.33Zm13.793.159a2.829,2.829,0,0,1-.514-3.838c8.938-12.521,19.424-26.161,27.227-36.121-.776,15.98-1.82,38.85-2.518,59.573Zm21.81,26.55L83.441,264.965A85.988,85.988,0,0,0,54.9,271.323c6.232-13.11,14.744-26.811,27.3-44.013ZM61.8,157.263a56.792,56.792,0,0,0-2.483,15.473l-.741,37.17H45.632V169.922a41.167,41.167,0,0,1,2.849-13.573Q54.277,156.868,61.8,157.263ZM34.367,141.8c-3.028-5.493-4.952-12.992-5.417-21.117s.592-15.8,2.974-21.6c1.984-4.83,4.755-7.805,7.413-7.957.072,0,.146-.006.219-.006,2.607,0,5.6,2.619,8.052,7.066,3.028,5.493,4.951,12.992,5.416,21.117s-.591,15.795-2.974,21.6c-2.013,4.9-4.715,7.8-7.412,7.957C40,149,36.889,146.371,34.367,141.8Zm3.544,127.044a23.446,23.446,0,0,1-2.7-11.16V241.445c0-14.689,6.106-22.339,8.342-24.649h12.4c-6,13.007-3.438,29.51-.937,39.379a188.369,188.369,0,0,0-9.642,19.558,3.321,3.321,0,0,0-.117.38A16.128,16.128,0,0,1,37.911,268.842Zm61.85,31.641a121.282,121.282,0,0,0-.4,23.475H91.965a11.765,11.765,0,0,1-11.752-11.752v-2.112a12.377,12.377,0,0,0-6.932-11.162L44.7,284.8c15.515-11.161,33.954-12.733,39.088-12.954,8.433,8.914,13.829,20.682,16.156,26.47C99.829,299.487,99.775,300.247,99.761,300.483Zm3.645-19.674c-.563,1.809-1.041,3.611-1.447,5.351A86.171,86.171,0,0,0,89.7,268.1l14.319-19.4a12.931,12.931,0,0,0,6.728,6.022c.022,3.7-.016,11.21-.543,19.1-.3.1-.6.212-.9.343A10.77,10.77,0,0,0,103.406,280.809Zm4.581,43.282v-16.36c10.91,6.033,23.893,10.521,36.752,13.852A235.788,235.788,0,0,1,107.987,324.091Zm93.987-.332c-13-.971-64.6-5.881-94.178-24.118-.08-.242-.346-1.033-.811-2.262a84.73,84.73,0,0,1,3-14.524,3.829,3.829,0,0,1,2.122-2.393,3.741,3.741,0,0,1,3.127.017c14.307,6.575,44.4,18.388,86.922,24.611A95.777,95.777,0,0,1,201.974,323.759Zm-6.622-42.735c3.864,5.619,5.457,12.624,6.107,17a355.972,355.972,0,0,1-35.883-7.3,204.152,204.152,0,0,0,24.717-10.9A3.906,3.906,0,0,1,195.352,281.024Zm3.3-52.946q-.123.523-.256,1.049a12.336,12.336,0,0,1-5.444,7.444c.6-13.753-.651-46.044-22.451-70.364-.122-.913-.249-1.805-.381-2.646-.257-1.638-.51-3.482-.728-5.479h2.282a12.144,12.144,0,0,1,9.865,5.046,169.377,169.377,0,0,1,9.833,15.442A68.433,68.433,0,0,1,198.649,228.078Zm35.48,52.9a25.2,25.2,0,0,1-13.339-8.587c-9.91-12.171-17.152-26.4-20.327-33.162a19.164,19.164,0,0,0,1.65-2.054,3.422,3.422,0,0,0,.352-.219l13.316-9.93c2.458,8.435,7.218,22.16,13.468,27.772a53.749,53.749,0,0,0,11.472,8.132A57.183,57.183,0,0,0,234.129,280.981Zm5.556,15.775c-.124-6,.459-20.17,7.717-31.554a155.215,155.215,0,0,0,31.325,3.46c-.032.4-.061.8-.061,1.21v18.745a14.758,14.758,0,0,0,.74,4.6C270.786,295.007,255.336,297.538,239.685,296.756Zm45.7-169.06.026-.257c.008-.083.011-.166.019-.249,1.525-17.143,3.578-28.877,3.626-29.146.012-.07.023-.14.031-.21,3.86-33.39-4.133-69.561-7.269-81.96h11.924c2.561,9.906,11.411,47.542,7.561,81.069a412.874,412.874,0,0,0-4.73,43.468,21.058,21.058,0,0,0,7.652,17.613,29.349,29.349,0,0,0,5.183,3.324l1.317,12.417a21.528,21.528,0,0,0-7.785,5.847,22.409,22.409,0,0,0-4.955,17.37c.646,5.033,1.454,9.888,2.4,14.431a248.438,248.438,0,0,1,4.354,28.462c.463,5.112.832,10.279,1.1,15.417a14.8,14.8,0,0,0-2.629-.248h-9.537c-.289-5.452-.679-10.932-1.175-16.339a256.373,256.373,0,0,0-4.439-28.784C282.355,182.43,283.392,150.418,285.388,127.7Zm25.767,160.921a7.947,7.947,0,0,1-7.937,7.937h-9.725a7.947,7.947,0,0,1-7.937-7.937V269.872a7.947,7.947,0,0,1,7.937-7.938h9.725a7.947,7.947,0,0,1,7.937,7.938Z"/></svg>