<svg xmlns="http://www.w3.org/2000/svg" xmlns:xlink="http://www.w3.org/1999/xlink" viewBox="0 0 340 340" width="500px" height="500px"><defs><linearGradient id="HeC58qRn9XwGiKnPkSDMsa" x1="245.599" x2="200.933" y1="294.67" y2="199.085" gradientUnits="userSpaceOnUse"><stop offset="0" stop-color="#fff7ee"/><stop offset="1" stop-color="#efd3cc"/></linearGradient><linearGradient id="HeC58qRn9XwGiKnPkSDMsb" x1="255.973" x2="304.954" y1="279.44" y2="159.436" gradientUnits="userSpaceOnUse"><stop offset="0" stop-color="#e27b81"/><stop offset="1" stop-color="#a74b4b"/></linearGradient><linearGradient id="HeC58qRn9XwGiKnPkSDMsi" x1="161.357" x2="155.998" y1="155.849" y2="304.586" xlink:href="#HeC58qRn9XwGiKnPkSDMsa"/><linearGradient id="HeC58qRn9XwGiKnPkSDMse" x1="178.473" x2="112.197" y1="195.22" y2="289.162" gradientUnits="userSpaceOnUse"><stop offset="0" stop-color="#6f6f81"/><stop offset="1" stop-color="#555568"/></linearGradient><linearGradient id="HeC58qRn9XwGiKnPkSDMsj" x1="88.557" x2="26.472" y1="182.053" y2="262.898" xlink:href="#HeC58qRn9XwGiKnPkSDMsa"/><linearGradient id="HeC58qRn9XwGiKnPkSDMsk" x1="41.321" x2="92.139" y1="257.472" y2="310.127" xlink:href="#HeC58qRn9XwGiKnPkSDMsb"/><linearGradient id="HeC58qRn9XwGiKnPkSDMsh" x1="179.027" x2="176.048" y1="9.975" y2="313.349" gradientUnits="userSpaceOnUse"><stop offset="0" stop-color="#444456"/><stop offset="1" stop-color="#363644"/></linearGradient><linearGradient id="HeC58qRn9XwGiKnPkSDMsc" x1="136.709" x2="136.709" y1="284.344" y2="326.499" gradientUnits="userSpaceOnUse"><stop offset="0" stop-color="#f771a8"/><stop offset="1" stop-color="#c14778"/></linearGradient><linearGradient id="HeC58qRn9XwGiKnPkSDMsl" x1="155.05" x2="155.05" y1="284.344" y2="326.499" gradientTransform="rotate(-180 155.05 307.216)" xlink:href="#HeC58qRn9XwGiKnPkSDMsc"/><linearGradient id="HeC58qRn9XwGiKnPkSDMsd" x1="194.53" x2="187.651" y1="132.566" y2="321.733" gradientUnits="userSpaceOnUse"><stop offset="0" stop-color="#fb9b8f"/><stop offset="1" stop-color="#cb6861"/></linearGradient><linearGradient id="HeC58qRn9XwGiKnPkSDMsf" x1="153.155" x2="155.496" y1="117.266" y2="160.576" gradientUnits="userSpaceOnUse"><stop offset="0" stop-color="#ffe1db"/><stop offset="1" stop-color="#feb5a9"/></linearGradient><linearGradient id="HeC58qRn9XwGiKnPkSDMsm" x1="112.405" x2="100.94" y1="143.535" y2="335.568" xlink:href="#HeC58qRn9XwGiKnPkSDMsd"/><linearGradient id="HeC58qRn9XwGiKnPkSDMsn" x1="286.719" x2="286.719" y1="146.89" y2="180.755" xlink:href="#HeC58qRn9XwGiKnPkSDMsc"/><linearGradient id="HeC58qRn9XwGiKnPkSDMso" x1="173.377" x2="111.611" y1="62.545" y2="40.058" xlink:href="#HeC58qRn9XwGiKnPkSDMse"/><linearGradient id="HeC58qRn9XwGiKnPkSDMsp" x1="159.745" x2="159.159" y1="66.198" y2="123.554" xlink:href="#HeC58qRn9XwGiKnPkSDMsf"/><linearGradient id="HeC58qRn9XwGiKnPkSDMsq" x1="180.819" x2="180.819" y1="70.435" y2="87.279" xlink:href="#HeC58qRn9XwGiKnPkSDMsg"/><linearGradient id="HeC58qRn9XwGiKnPkSDMsr" x1="166.168" x2="166.168" y1="69.285" y2="87.266" xlink:href="#HeC58qRn9XwGiKnPkSDMsg"/><linearGradient id="HeC58qRn9XwGiKnPkSDMss" x1="191.473" x2="191.473" y1="69.285" y2="87.266" xlink:href="#HeC58qRn9XwGiKnPkSDMsg"/><linearGradient id="HeC58qRn9XwGiKnPkSDMst" x1="165.324" x2="171.886" y1="3.104" y2="281.994" xlink:href="#HeC58qRn9XwGiKnPkSDMsh"/><radialGradient id="HeC58qRn9XwGiKnPkSDMsg" cx="289.349" cy="153.934" r="59.825" gradientUnits="userSpaceOnUse"><stop offset="0" stop-color="#fff"/><stop offset="1" stop-color="#d4e2ff"/></radialGradient></defs><path fill="url(#HeC58qRn9XwGiKnPkSDMsa)" d="M207.04,159.477s19.976,47.062,33.613,87.867l11.205,45.4s-30.96-4.706-43.344-24.756C208.514,267.984,195.288,183.808,207.04,159.477Z"/><path fill="url(#HeC58qRn9XwGiKnPkSDMsb)" d="M240.653,247.344s16.512-8.846,34.793-37.447a40.953,40.953,0,0,1-6.739-7.5,10.013,10.013,0,0,1-1.084-9.56l1.336-3.281s23.589,12.384,46-7.076l2.719,5.03a10.728,10.728,0,0,1-1.431,12.253,32.542,32.542,0,0,1-18.034,10.657s-6.447,57.292-42.956,91.935a3.255,3.255,0,0,1-5.243-1.162C246.333,292.162,238.613,270.014,240.653,247.344Z"/><path fill="url(#HeC58qRn9XwGiKnPkSDMsi)" d="M147.529,127.205l-8.265,2.8-20.448,12.138V307.216h79.44S214.817,158.664,147.529,127.205Z"/><path fill="#d8beac" d="M136.709,186.083c-4.609-30.956-2.593-53.022-2.592-53.023l-15.3,9.083V307.216h25.1C143.743,265.569,140.23,209.734,136.709,186.083Z"/><path fill="#d8beac" d="M189.534,184.3l-70.489,93.284s-.082.15-.229.428v29.2c37.971-34.917,63.769-73.966,72.657-102.651l.5-11.456Q190.856,188.651,189.534,184.3Z"/><path fill="url(#HeC58qRn9XwGiKnPkSDMse)" d="M180.61,166.9s-20.973,55.427-59.922,96.249V292.74S177.249,236.563,189.229,192Z"/><path fill="url(#HeC58qRn9XwGiKnPkSDMsj)" d="M62.816,242.426,99.19,210.911l-3.3-62.331s-58.626,41.107-80.978,96.261a13.235,13.235,0,0,0,5.462,16.337,41.062,41.062,0,0,0,14.466,5.264Z"/><path fill="#d8beac" d="M62.816,242.426,99.19,210.911l-3.3-62.331s-4.987,3.5-12.6,9.814c.1,11.282-1.886,42.835-24.9,68.459a139.2,139.2,0,0,1-41.059,31.8,13.263,13.263,0,0,0,3.042,2.521,41.062,41.062,0,0,0,14.466,5.264Z"/><path fill="url(#HeC58qRn9XwGiKnPkSDMsk)" d="M24.84,271.427c4.855-7.8,17.178-24.049,37.976-29,0,0,27.893,20.348,36.428,43.725l-4.76,39.671H72.232a7.946,7.946,0,0,1-7.867-9.062l.284-2a12.4,12.4,0,0,1,5.339-8.535l5.759-3.887s-22.4-21.221-48.7-26A3.253,3.253,0,0,1,24.84,271.427Z"/><rect width="38.509" height="23.49" x="156.787" y="302.333" fill="url(#HeC58qRn9XwGiKnPkSDMsh)"/><path fill="url(#HeC58qRn9XwGiKnPkSDMsc)" d="M125.889,288.61h13.2a8.445,8.445,0,0,1,8.445,8.445v28.768a0,0,0,0,1,0,0h-21.64a0,0,0,0,1,0,0V288.61A0,0,0,0,1,125.889,288.61Z"/><path fill="url(#HeC58qRn9XwGiKnPkSDMsl)" d="M147.529,288.61h15.043a0,0,0,0,1,0,0V318.3a7.521,7.521,0,0,1-7.521,7.521h0a7.521,7.521,0,0,1-7.521-7.521V288.61A0,0,0,0,1,147.529,288.61Z" transform="rotate(180 155.05 307.216)"/><path fill="url(#HeC58qRn9XwGiKnPkSDMsd)" d="M167.609,150.378s23.864,36.1,23.864,108.938v66.506H215.88s-12.147-133.747,2.973-195.459a2,2,0,0,0-2.377-2.432c-9.045,1.978-35.172,7.118-50.308,4.184Z"/><path fill="url(#HeC58qRn9XwGiKnPkSDMsf)" d="M139.264,96.7v33.3s7.972,14.527,28.345,20.373V114.947L148.3,90.676Z"/><path fill="url(#HeC58qRn9XwGiKnPkSDMsm)" d="M139.264,130.005s-30.15,1.426-51.267-5.662a2.006,2.006,0,0,0-2.636,2.238c2.693,15.307,12.8,81.724,9.123,199.241h35.151s2.06-95.007-1.9-151.483C127.736,174.339,124.4,137.66,139.264,130.005Z"/><path fill="url(#HeC58qRn9XwGiKnPkSDMsg)" d="M294.669,109.99V84h.585a8.212,8.212,0,0,0,8.288-7.5,8.031,8.031,0,0,0-8.012-8.565H278.023a8.214,8.214,0,0,0-8.288,7.5A8.032,8.032,0,0,0,277.748,84h.861V109.99a7.266,7.266,0,0,1-4.894,6.863,39.433,39.433,0,1,0,25.806-.015A7.236,7.236,0,0,1,294.669,109.99Z"/><path fill="url(#HeC58qRn9XwGiKnPkSDMsn)" d="M263.4,146.528a2.654,2.654,0,0,0-3.816,1.989,34.775,34.775,0,0,0-.4,8.572,27.742,27.742,0,1,0,54.281-11.042,7.434,7.434,0,0,0-8.162-5.45,37.913,37.913,0,0,0-11.954,3.9C278.683,151.911,268.284,148.945,263.4,146.528Z"/><circle cx="278.609" cy="136.738" r="3.678" fill="#d85288"/><circle cx="298.347" cy="157.969" r="3.678" fill="#fff"/><circle cx="279.643" cy="163.64" r="3.678" fill="#fff"/><polygon fill="#e78582" points="139.264 96.7 139.264 126.35 167.609 122.033 167.609 114.947 148.299 90.676 139.264 96.7"/><path fill="url(#HeC58qRn9XwGiKnPkSDMso)" d="M189.229,50.177s2.786-29.619-16.657-35.011l-2.412,7.379s-17.314-16.32-46.69-3.264c0,0-19.016,8.515-30.653,6.812,0,0,5.393,13.056,17.881,17.455A47.933,47.933,0,0,0,98.21,56.321L113.394,62s-4.588,6.306-8.7,22.342c0,0,14.806,8.17,30.7,3.912h29.092Z"/><path fill="url(#HeC58qRn9XwGiKnPkSDMsp)" d="M143.442,66.056l.787,15.312a9.174,9.174,0,0,0-3.13-2.175,8.25,8.25,0,0,0-11.322,9.065,14.4,14.4,0,0,0,2.106,5.131s3.087,7.311,14.3,3.9l1.244,4.531a15.421,15.421,0,0,0,5.384,8.128c3.8,2.951,10.58,6.866,22.1,10.015a9.915,9.915,0,0,0,7.9-1.15l.145-.092a13.95,13.95,0,0,0,6.274-11.74v-56.8S179.066,36.55,156.6,45.419A21,21,0,0,0,143.442,66.056Z"/><rect width="16.06" height="8.897" x="278.609" y="83.997" fill="#91a3be"/><path fill="url(#HeC58qRn9XwGiKnPkSDMsq)" d="M187.9,80.387H173.735a2.953,2.953,0,1,1,0-5.905H187.9a2.953,2.953,0,1,1,0,5.905Z"/><ellipse cx="166.168" cy="77.434" fill="url(#HeC58qRn9XwGiKnPkSDMsr)" rx="10.919" ry="12.836"/><ellipse cx="191.473" cy="77.434" fill="url(#HeC58qRn9XwGiKnPkSDMss)" rx="7.895" ry="12.836"/><path fill="url(#HeC58qRn9XwGiKnPkSDMst)" d="M300.647,113.582a3.788,3.788,0,0,1-2.533-3.591V87.1a11.554,11.554,0,0,0,8.867-10.374,11.385,11.385,0,0,0-3.078-8.6,11.52,11.52,0,0,0-8.374-3.628h-17.5A11.643,11.643,0,0,0,266.3,75.21a11.376,11.376,0,0,0,3.078,8.6,11.525,11.525,0,0,0,5.789,3.332v22.846a3.826,3.826,0,0,1-2.578,3.607,42.9,42.9,0,0,0-7.921,77.365l-.232.57a13.387,13.387,0,0,0,1.463,12.852,48.425,48.425,0,0,0,5.085,6.06c-12.031,18.179-23.1,27.619-28.5,31.561-8.913-26.125-20.073-54.174-26.124-69.02-.012-.03-.031-.054-.044-.084,1.253-17.02,3.356-32.59,6.675-44.793a3.445,3.445,0,0,0-4.137-4.251c-.306.074-29.477,7.077-47.8,5.445v-6.874c.951.29,1.924.577,2.944.856a13.5,13.5,0,0,0,3.563.479,13.255,13.255,0,0,0,7.085-2.037l.179-.114a17.3,17.3,0,0,0,7.849-14.633V91.805c5.148-.818,9.027-6.832,9.027-14.371s-3.879-13.552-9.027-14.37V50.324c.234-2.778,2.213-32.544-19.18-38.478a3.447,3.447,0,0,0-4.2,2.249l-.939,2.874c-7.18-4.446-23.315-11.047-46.3-.833-.181.081-18.253,8.079-28.747,6.549a3.445,3.445,0,0,0-3.683,4.724c.21.508,4.592,10.876,14.567,16.863a49.688,49.688,0,0,0-8.888,10.186A3.446,3.446,0,0,0,97,59.548L108.388,63.8a97.126,97.126,0,0,0-7.034,19.68,3.445,3.445,0,0,0,1.672,3.873,50.733,50.733,0,0,0,13.39,4.615,3.5,3.5,0,0,0,.679.067,3.445,3.445,0,0,0,.671-6.824,47.482,47.482,0,0,1-9-2.768c3.64-13.008,7.387-18.38,7.416-18.422A3.445,3.445,0,0,0,114.6,58.77l-10.932-4.086a45.694,45.694,0,0,1,8.914-8.252,3.445,3.445,0,0,0-.74-6.133c-6.231-2.2-10.522-6.968-13.051-10.645,11.752-.871,25.4-6.923,26.077-7.225,26.765-11.895,42.292,2.036,42.928,2.623a3.445,3.445,0,0,0,5.638-1.436l1.283-3.927C183.2,24.11,185.345,35.411,185.8,42.858c-5.82-3.476-15.834-6.42-30.469-.643A24.4,24.4,0,0,0,140,66.232l.47,9.136A11.719,11.719,0,0,0,126.39,88.891a17.833,17.833,0,0,0,2.453,6.136,11.86,11.86,0,0,0,6.976,5.833v25.789c-8.815.132-33.433-.151-49.82-6.7a3.444,3.444,0,0,0-4.652,3.9c.051.249,1.96,9.744,4.135,28.333-16.873,13.451-56.243,48.147-73.76,91.374a16.616,16.616,0,0,0,6.88,20.585,43.317,43.317,0,0,0,5.156,2.622,59.709,59.709,0,0,0-4.431,7.446,3.445,3.445,0,0,0,2.759,4.905c20.966,2.156,40.478,16.645,48.013,22.884l-2.038,1.376a15.865,15.865,0,0,0-6.822,10.906l-.285,2.006a11.391,11.391,0,0,0,11.278,12.99H215.88a3.445,3.445,0,0,0,3.43-3.756c-.091-1.005-6.594-74.106-3.921-136.48,6.445,16.224,14.925,38.318,21.778,58.753-1.154,14.234,1.3,28.077,4.247,38.8a75.272,75.272,0,0,1-15.792-7.05,3.445,3.445,0,0,0-3.57,5.894,85.946,85.946,0,0,0,21.778,9.053,116.074,116.074,0,0,0,4.927,12.454,3.45,3.45,0,0,0,2.405,1.873,3.487,3.487,0,0,0,.695.07,3.445,3.445,0,0,0,2.255-.84c36.028-31.189,45.457-82.853,47.2-94.8a36.731,36.731,0,0,0,17.5-11.18,14.213,14.213,0,0,0,1.894-16.189l-1.864-3.447a42.88,42.88,0,0,0-18.2-68.838ZM191.473,69.851c1.177,0,3.338,2.879,3.338,7.583s-2.161,7.584-3.338,7.584-3.338-2.879-3.338-7.584S190.3,69.851,191.473,69.851Zm-56.416,22.2a3.541,3.541,0,0,0-.272-.517,11.075,11.075,0,0,1-1.622-3.907,4.715,4.715,0,0,1,1.776-4.615,4.592,4.592,0,0,1,4.771-.664,6.4,6.4,0,0,1,1.881,1.236h0a3.445,3.445,0,0,0,6.08-2.391l-.787-15.312a17.509,17.509,0,0,1,10.981-17.255c16.721-6.6,25.51.406,27.92,2.851V65.343a15.193,15.193,0,0,0-4.247,8.646h-2.925c-1.375-6.319-6.425-11.028-12.444-11.028-7.072,0-12.826,6.493-12.826,14.473s5.754,14.474,12.826,14.474c6.019,0,11.069-4.709,12.444-11.029h2.925a15.19,15.19,0,0,0,4.247,8.646V106.98a10.445,10.445,0,0,1-4.706,8.851l-.111.07a6.458,6.458,0,0,1-5.152.738c-11.18-3.056-17.534-6.806-20.9-9.414a12.06,12.06,0,0,1-4.173-6.317L149.5,96.376a3.445,3.445,0,0,0-4.325-2.384C137.393,96.359,135.245,92.433,135.057,92.049Zm37.048-14.615c0,4.182-2.663,7.584-5.937,7.584s-5.936-3.4-5.936-7.584,2.663-7.583,5.936-7.583S172.105,73.253,172.105,77.434Zm-7.941,42.6V145.59a45.622,45.622,0,0,1-21.455-16.561V101.5c.337-.036.671-.065,1.022-.12l.37,1.347a18.979,18.979,0,0,0,6.594,9.938A55.077,55.077,0,0,0,164.164,120.029ZM22.149,258.225a9.76,9.76,0,0,1-4.042-12.091c15.833-39.069,50.444-71.143,68.279-85.825,1.465,13.932,2.951,31.841,4,53.672L61.162,239.3c-15.46,3.937-26.328,13.591-33.106,21.764A36.511,36.511,0,0,1,22.149,258.225Zm68.624-35.463c.532,13.163.9,27.629,1.013,43.389A144.137,144.137,0,0,0,68.245,242.28Zm.366,99.615H72.232a4.5,4.5,0,0,1-4.456-5.132l.285-2.007a8.962,8.962,0,0,1,3.854-6.162l5.759-3.888a3.445,3.445,0,0,0,.442-5.356c-1-.943-23.338-21.862-50.175-26.836,4.576-7.231,15.773-21.807,34.113-26.82,4.583,3.564,20.471,16.555,29.605,32.091.048.082.111.149.165.225Q91.8,299.078,91.139,322.377ZM124.3,174.58c3.483,49.7,2.27,130.388,1.955,147.8H98.035c3.2-109.749-5.749-174.993-8.894-194.054,14.215,4.289,31.368,5.158,41.534,5.246C122.112,146.829,124.005,171.348,124.3,174.58Zm14.1-39.705a53.509,53.509,0,0,0,26.956,18.416,123.2,123.2,0,0,1,8.973,19.8c-5.362,12.361-19.4,42.164-40.856,69.856-.251-23.89-.9-48.883-2.3-68.918C130.378,165.277,130.364,142.772,138.4,134.875Zm5.687,187.5H133.146c.1-5.31.27-16.255.374-30.322h5.564a5.006,5.006,0,0,1,5,5Zm15.042,0h-8.152V296.131a4.076,4.076,0,1,1,8.152,0Zm28.9,0H166.016v-16.6h22.012Zm0-23.489H166.016v-2.757a10.958,10.958,0,0,0-18.766-7.7,11.836,11.836,0,0,0-8.166-3.27h-5.521c.05-9.549.061-20.2,0-31.315,21.461-25.84,36.449-54.829,43.987-71.112,1.689,5.542,3.339,11.864,4.817,18.918-.05.1-.11.185-.151.287-9.474,23.376-28.643,48.494-43.056,65.45a3.445,3.445,0,1,0,5.25,4.462c12.925-15.205,29.609-36.88,40.143-58.32a291.138,291.138,0,0,1,3.479,45.781Zm24.1,23.489h-17.2V259.316c0-67.707-20.131-103.816-23.864-109.929V136.219c14.623,1.148,34.414-2.441,43.922-4.438C201.88,188.975,210.258,300.1,212.123,322.377ZM313.676,197.463c-3.2,3.584-8.6,8.154-16.1,9.568a3.448,3.448,0,0,0-2.785,3c-.065.576-6.745,56.218-41.682,89.608-3.493-8.657-10.583-29.187-9.158-50.26,4.77-3.059,18.985-13.506,34.4-37.625a3.455,3.455,0,0,0-.726-4.526,38.1,38.1,0,0,1-6.106-6.825,6.528,6.528,0,0,1-.7-6.27l.05-.125a42.623,42.623,0,0,0,12.7,2.882q1.568.109,3.12.11a42.389,42.389,0,0,0,27.01-9.622l.955,1.766A7.3,7.3,0,0,1,313.676,197.463Zm-2.5-17.018a35.988,35.988,0,0,1-60.483-24.526,36.224,36.224,0,0,1,24.149-35.812,10.72,10.72,0,0,0,7.211-10.116V84a3.445,3.445,0,0,0-3.445-3.445h-.861a4.589,4.589,0,0,1-4.576-4.9,4.8,4.8,0,0,1,4.852-4.273h17.5a4.586,4.586,0,0,1,4.575,4.9,4.8,4.8,0,0,1-4.849,4.273h-.586A3.445,3.445,0,0,0,291.224,84v25.994a10.681,10.681,0,0,0,7.173,10.1,36,36,0,0,1,12.78,60.351Z"/></svg>