<svg xmlns="http://www.w3.org/2000/svg" xmlns:xlink="http://www.w3.org/1999/xlink" viewBox="0 0 340 340" width="500px" height="500px"><defs><linearGradient id="1plL-_tEiWBRW1rheZ9Fjg" x1="215.557" x2="215.557" y1="19.798" y2="86.984" gradientUnits="userSpaceOnUse"><stop offset="0" stop-color="#ffd58a"/><stop offset=".553" stop-color="#ffbe65"/><stop offset="1" stop-color="#ffae4c"/></linearGradient><linearGradient id="1plL-_tEiWBRW1rheZ9Fjc" x1="184.99" x2="202.381" y1="27.142" y2="54.127" gradientUnits="userSpaceOnUse"><stop offset="0" stop-color="#a4c192"/><stop offset="1" stop-color="#809d6d"/></linearGradient><linearGradient id="1plL-_tEiWBRW1rheZ9Fja" x1="34.267" x2="40.624" y1="137.029" y2="185.819" gradientUnits="userSpaceOnUse"><stop offset="0" stop-color="#ffe1db"/><stop offset="1" stop-color="#feb5a9"/></linearGradient><linearGradient id="1plL-_tEiWBRW1rheZ9Fji" x1="48.518" x2="54.875" y1="129.521" y2="178.311" xlink:href="#1plL-_tEiWBRW1rheZ9Fja"/><linearGradient id="1plL-_tEiWBRW1rheZ9Fjj" x1="90.851" x2="117.227" y1="201.568" y2="184.87" xlink:href="#1plL-_tEiWBRW1rheZ9Fja"/><linearGradient id="1plL-_tEiWBRW1rheZ9Fjk" x1="37.245" x2="43.602" y1="137.618" y2="186.408" xlink:href="#1plL-_tEiWBRW1rheZ9Fja"/><linearGradient id="1plL-_tEiWBRW1rheZ9Fjd" x1="69.326" x2="39.529" y1="223.299" y2="171.153" gradientUnits="userSpaceOnUse"><stop offset="0" stop-color="#faffff"/><stop offset="1" stop-color="#d5e5ef"/></linearGradient><linearGradient id="1plL-_tEiWBRW1rheZ9Fjf" x1="58.803" x2="88.156" y1="50.913" y2="82.3" gradientUnits="userSpaceOnUse"><stop offset="0" stop-color="#bfd1ec"/><stop offset="1" stop-color="#9db1c9"/></linearGradient><linearGradient id="1plL-_tEiWBRW1rheZ9Fjl" x1="218.995" x2="218.995" y1="228.38" y2="168.235" xlink:href="#1plL-_tEiWBRW1rheZ9Fja"/><linearGradient id="1plL-_tEiWBRW1rheZ9Fjm" x1="92.485" x2="156.891" y1="101.431" y2="165.837" gradientUnits="userSpaceOnUse"><stop offset="0" stop-color="#d07b72"/><stop offset=".308" stop-color="#c37068"/><stop offset="1" stop-color="#aa5b55"/></linearGradient><linearGradient id="1plL-_tEiWBRW1rheZ9Fjb" x1="169.922" x2="172.363" y1="186.966" y2="297.4" gradientUnits="userSpaceOnUse"><stop offset="0" stop-color="#fff7ee"/><stop offset="1" stop-color="#efd3cc"/></linearGradient><linearGradient id="1plL-_tEiWBRW1rheZ9Fjn" x1="163.137" x2="165.578" y1="187.116" y2="297.55" xlink:href="#1plL-_tEiWBRW1rheZ9Fjb"/><linearGradient id="1plL-_tEiWBRW1rheZ9Fjo" x1="162.436" x2="164.358" y1="157.103" y2="120.288" xlink:href="#1plL-_tEiWBRW1rheZ9Fja"/><linearGradient id="1plL-_tEiWBRW1rheZ9Fjp" x1="122.453" x2="218.4" y1="166.032" y2="172.629" xlink:href="#1plL-_tEiWBRW1rheZ9Fjc"/><linearGradient id="1plL-_tEiWBRW1rheZ9Fjq" x1="224.652" x2="254.035" y1="229.463" y2="269.607" xlink:href="#1plL-_tEiWBRW1rheZ9Fjd"/><linearGradient id="1plL-_tEiWBRW1rheZ9Fje" x1="292.934" x2="323.564" y1="242.651" y2="119.674" gradientUnits="userSpaceOnUse"><stop offset="0" stop-color="#ff7b72"/><stop offset=".291" stop-color="#f37169"/><stop offset="1" stop-color="#da5b55"/></linearGradient><linearGradient id="1plL-_tEiWBRW1rheZ9Fjr" x1="246.048" x2="80.827" y1="303.956" y2="300.315" xlink:href="#1plL-_tEiWBRW1rheZ9Fje"/><linearGradient id="1plL-_tEiWBRW1rheZ9Fjs" x1="250.083" x2="288.329" y1="285.858" y2="285.858" xlink:href="#1plL-_tEiWBRW1rheZ9Fja"/><linearGradient id="1plL-_tEiWBRW1rheZ9Fjt" x1="38.825" x2="68.177" y1="69.121" y2="100.508" xlink:href="#1plL-_tEiWBRW1rheZ9Fjf"/><linearGradient id="1plL-_tEiWBRW1rheZ9Fju" x1="152.772" x2="152.772" y1="19.798" y2="86.984" xlink:href="#1plL-_tEiWBRW1rheZ9Fjg"/><linearGradient id="1plL-_tEiWBRW1rheZ9Fjv" x1="150.74" x2="150.214" y1="80.163" y2="140.262" gradientUnits="userSpaceOnUse"><stop offset="0" stop-color="#ffdfcd"/><stop offset=".298" stop-color="#ffd8c7"/><stop offset=".735" stop-color="#fec4b6"/><stop offset="1" stop-color="#feb5a9"/></linearGradient><linearGradient id="1plL-_tEiWBRW1rheZ9Fjh" x1="172.367" x2="167.553" y1="29.42" y2="314.24" gradientUnits="userSpaceOnUse"><stop offset="0" stop-color="#444456"/><stop offset="1" stop-color="#363644"/></linearGradient><linearGradient id="1plL-_tEiWBRW1rheZ9Fjw" x1="252.818" x2="248.004" y1="30.78" y2="315.6" xlink:href="#1plL-_tEiWBRW1rheZ9Fjh"/><linearGradient id="1plL-_tEiWBRW1rheZ9Fjx" x1="153.993" x2="149.179" y1="29.109" y2="313.93" xlink:href="#1plL-_tEiWBRW1rheZ9Fjh"/></defs><path fill="url(#1plL-_tEiWBRW1rheZ9Fjg)" d="M187.879,28.643s3.406-12.888,18.711-12.888c0,0,26.926-2.536,26.926,33.382V85.689s-.423,13.31,9.719,17.747c0,0-1.856,4.8-8.469,7.5a22.112,22.112,0,0,1-18.422-1.074c-10.075-5.173-25.2-19.355-20.737-57.394Z"/><path fill="url(#1plL-_tEiWBRW1rheZ9Fjc)" d="M178.562,30.184s14.783-9.771,24.107,4.586a26.587,26.587,0,0,1,3.034,6.144L194.946,62.4Z"/><path fill="#627c4b" d="M183.218,34.531l-1.44,1.976L194.946,62.4c6.629-4.021,14.269-10.767,10.753-21.481C192.028,44.438,183.218,34.531,183.218,34.531Z"/><path fill="url(#1plL-_tEiWBRW1rheZ9Fja)" d="M23.677,129.8h0a5.641,5.641,0,0,1,6.486-2.043c5.107,1.821,13.369,6.544,16.4,18.431l-9.7,4.4a26.215,26.215,0,0,0-11.434-13A5.342,5.342,0,0,1,23.677,129.8Z"/><path fill="url(#1plL-_tEiWBRW1rheZ9Fji)" d="M48.852,117.745h0a5.92,5.92,0,0,1,6.224,4.785c1.1,5.707,2.483,15.758.166,25.46l-11.995-.35s1.717-12.877.348-23.443A5.707,5.707,0,0,1,48.852,117.745Z"/><path fill="url(#1plL-_tEiWBRW1rheZ9Fjj)" d="M110.262,169.971s-18.743,15.221-31.824,25.117c3.414,9.292,7.579,17.94,13.4,25.165,9.477-6.076,18.967-13.194,26.289-20.954l6.254-17.161Z"/><path fill="url(#1plL-_tEiWBRW1rheZ9Fjk)" d="M34.106,149.01a19.769,19.769,0,0,0-10.354,2.3,9,9,0,0,0-4.508,7.6,31.755,31.755,0,0,0,.453,6.521,6.039,6.039,0,0,0,6.071,4.911,24.414,24.414,0,0,0,3.834-.37S28.684,181.582,38.8,185.5c0,0,12.609,1.059,19.984-10.317l1.017-27.25S49.552,140.9,34.106,149.01Z"/><path fill="url(#1plL-_tEiWBRW1rheZ9Fjd)" d="M78.437,195.087c-3.158,2.389-5.99,4.471-8.144,5.949A226.62,226.62,0,0,1,58.78,175.187L38.8,185.5s5.213,34,13.685,55.5a282.032,282.032,0,0,0,39.356-20.753A54.384,54.384,0,0,0,78.437,195.087Z"/><path fill="#b0c9dd" d="M41.349,199.739c.36,1.823.755,3.761,1.185,5.79A42.163,42.163,0,0,0,65.312,190.9c-.873-1.891-1.8-3.976-2.753-6.2C59.645,188.876,52.745,196.917,41.349,199.739Z"/><path fill="#b0c9dd" d="M52.481,241.005s6.38-2.781,13.213-6.095c11.537-13.351,9.718-31.884,9.121-37.114-1.218.887-3.548,2.572-4.522,3.24C70.293,201.036,69.068,228.988,52.481,241.005Z"/><path fill="#e78582" d="M110.262,169.971s-3.782,3.071-9.127,7.346c2.115,4.878,7.954,21.062.323,36.355A121.724,121.724,0,0,0,118.127,199.3l6.254-17.161Z"/><path fill="url(#1plL-_tEiWBRW1rheZ9Fjf)" d="M65.693,68.407l5.658-.98L74.36,51.756,84.536,64.022a10.119,10.119,0,0,1,2.319,6.93L86.32,82.471,74.206,82.7c-.151,0-.3,0-.45,0Z"/><path fill="#7e7e8e" d="M70.763,72.976l-4.617-5.565L55.883,69.189,67.966,79.332a10.108,10.108,0,0,0,6.243,2.355A15.118,15.118,0,0,0,70.763,72.976Z"/><path fill="url(#1plL-_tEiWBRW1rheZ9Fjl)" d="M235.049,162.515s-10.383,28.448,1.453,56.273q.343.808.7,1.614l-18.8,13.873c-2.386-6.5-5.9-14.058-10.554-18.809l-7.06-35.163S223.628,166.876,235.049,162.515Z"/><path fill="#e78582" d="M203.951,196.062c12.033-8.373,21.893-14.639,27.668-18.2a79.572,79.572,0,0,1,3.43-15.345c-11.421,4.361-34.263,17.788-34.263,17.788Z"/><path fill="url(#1plL-_tEiWBRW1rheZ9Fjm)" d="M77.147,113.2l25.241-23.887a2.775,2.775,0,0,1,3.793-.02l70.451,65.138-44.7,16.166L77.118,117.207A2.775,2.775,0,0,1,77.147,113.2Z"/><path fill="#e78582" d="M207.846,215.466a43.337,43.337,0,0,1,7.6,11.693c12.282-18.59,3.566-47.87,3.566-47.87l-16.9,7.585Z"/><path fill="url(#1plL-_tEiWBRW1rheZ9Fjb)" d="M201.065,273.084c-3.686-3.447-5.045-8.784-4.783-13.824.034-.655.095-1.337.189-2.042,2.786-21.1,8.293-29.807,8.293-29.807h-73.6s7.738,12.565,9.614,33.767a15.8,15.8,0,0,1-2.4,9.782c-4.315,6.869-12.192,23.845-12.192,37.86L219,307.859S220.187,290.958,201.065,273.084Z"/><path fill="#ddada2" d="M137.24,242.28l60.223,8.518c2.924-16.458,7.3-23.387,7.3-23.387h-73.6A66.848,66.848,0,0,1,137.24,242.28Z"/><path fill="#627c4b" d="M133.32,139.657s8.79,6.479,22.451,4.556l2.177,21.9Z"/><path fill="url(#1plL-_tEiWBRW1rheZ9Fjn)" d="M163.58,190.288l-48.763.56a65.96,65.96,0,0,0-1.937,18.3A25.386,25.386,0,0,0,135.037,233.9c.194.023,3.387.214,4.785.112a82.853,82.853,0,0,0,15.937-2.708,28.37,28.37,0,0,1,15.643,0,82.833,82.833,0,0,0,15.936,2.708c1.4.1,4.591-.089,4.785-.112a25.386,25.386,0,0,0,22.157-24.753,65.556,65.556,0,0,0-2.065-18.784Z"/><path fill="#ddada2" d="M175.408,217.113c13.6-10.645,26.443-19.732,36.871-26.752A35.641,35.641,0,0,0,208.16,180.3l-44.514,9.985L119.132,180.3a36.358,36.358,0,0,0-4.251,10.562c15.389,13.861,33.547,23.324,44.2,28.187A15.827,15.827,0,0,0,175.408,217.113Z"/><polygon fill="url(#1plL-_tEiWBRW1rheZ9Fjo)" points="174.472 100.8 179.526 148.13 152.772 166.975 147.767 119.723 174.472 100.8"/><path fill="url(#1plL-_tEiWBRW1rheZ9Fjp)" d="M183.969,132.309,157,157.108,133.32,139.657a8.707,8.707,0,0,0-10.689.287,34.271,34.271,0,0,0-10.255,13.535,21.708,21.708,0,0,0-8.531,3.56,8.085,8.085,0,0,0-1.437,11.871c6.916,8.048,22.838,23.655,52.918,39.5a14.043,14.043,0,0,0,13.213-.074,282.4,282.4,0,0,0,38.051-24.753c13.2-10.273,22.916-15.594,28.746-18.253a8.632,8.632,0,0,0,4.623-10.546,47.433,47.433,0,0,0-13.449-20.418,11.667,11.667,0,0,0-15.193-.371,76.08,76.08,0,0,0-6.928,6.463l-7.888-7.885A9.056,9.056,0,0,0,183.969,132.309Z"/><path fill="url(#1plL-_tEiWBRW1rheZ9Fjq)" d="M254.776,288.767l18.481-16.612S249.3,247.59,237.212,220.4c-4.806,2.374-12.822,7.011-18.814,13.878a109.43,109.43,0,0,1,3.776,12.545C230.688,272.155,254.776,288.767,254.776,288.767Z"/><path fill="url(#1plL-_tEiWBRW1rheZ9Fje)" d="M316.224,143.235c-2.53.919-6.776,3.583-9.235,11.291a19.952,19.952,0,0,0-.883,5.958c-.077,14.782-2.289,89.966-38.821,114.121l11.533,14.162s53.241-40.94,39.733-144.115A1.748,1.748,0,0,0,316.224,143.235Z"/><path fill="url(#1plL-_tEiWBRW1rheZ9Fjr)" d="M256.417,285.858s-41.462,32.647-116.431,16.07a24.089,24.089,0,0,0-23,7.143l-.018.02a1.736,1.736,0,0,0,.852,2.842c16.069,4.223,100.7,23.987,151.387-13.4Z"/><path fill="url(#1plL-_tEiWBRW1rheZ9Fjs)" d="M252.049,280.86c2.888-4.221,7.244-9.205,13.128-12.283a11.158,11.158,0,0,1,12.195,1.309c2.221,1.808,4.929,4.117,7.542,6.616a11.142,11.142,0,0,1,.679,15.342,68.332,68.332,0,0,1-11.212,10.483,11.112,11.112,0,0,1-13.159-.217,66.479,66.479,0,0,1-8.106-7.278A11.15,11.15,0,0,1,252.049,280.86Z"/><path fill="#b0c9dd" d="M243.911,233.376c-10.331,5.141-16.341,13.95-19.305,19.572a72.884,72.884,0,0,0,3.438,6.628c1.046-2.638,6.565-15.17,18.943-21.131Q245.418,235.958,243.911,233.376Z"/><path fill="#b0c9dd" d="M257.911,254.076c-13.27,1.787-21.442,10.959-23.98,14.248,1.265,1.656,2.55,3.229,3.831,4.707a2.747,2.747,0,0,0,.248-.287c.089-.134,8.785-12.954,24.324-13.064C260.928,257.952,259.442,256.075,257.911,254.076Z"/><path fill="url(#1plL-_tEiWBRW1rheZ9Fjt)" d="M31.087,82.874l18.138-3.142L52.652,61.88,64.245,75.853a11.524,11.524,0,0,1,2.642,7.894L66.278,96.87l-13.8.256a11.527,11.527,0,0,1-7.624-2.7Z"/><path fill="#627c4b" d="M226.51,134.364a11.667,11.667,0,0,0-15.193-.371,75.938,75.938,0,0,0-6.928,6.463l-7.647-7.88a9.358,9.358,0,0,0-12.772-.267l-2.76,2.536c2.173.611,6.185,2.6,10.473,9.041l5.087,6.78c5.395-3.915,15.462-8.88,22.732,1.45,0,0,7.446,9.252,5.792,18.539a104.884,104.884,0,0,1,10.042-5.327,8.633,8.633,0,0,0,4.623-10.546A47.433,47.433,0,0,0,226.51,134.364Z"/><path fill="#e78582" d="M176.537,120.143,174.472,100.8l-26.705,18.923,1.956,18.467A47.2,47.2,0,0,0,176.537,120.143Z"/><path fill="url(#1plL-_tEiWBRW1rheZ9Fju)" d="M177.717,98.339s12.909-1.6,18.083-18.7a46.459,46.459,0,0,0-25.637-55.71q-2.562-1.131-5.446-2.092a40.14,40.14,0,0,0-24.127-.571c-4.794,1.44-10.451,5.776-12.862,10.082,0,0-20.549,3.313-19.931,30.623.643,28.444,32.037,31.4,32.037,31.4Z"/><path fill="url(#1plL-_tEiWBRW1rheZ9Fjv)" d="M128.1,56.871s3.864,26.236,36.405,30.3a13.977,13.977,0,0,1,2.658-5.985c3.618-4.6,10.816-4.473,13.883.514,1.256,2.042,2.17,5.013,2.169,9.335,0,0,.2,9.152-8.745,9.762v5.292a12.416,12.416,0,0,1-3.5,8.677A63.486,63.486,0,0,1,149.8,129.052a11.42,11.42,0,0,1-10.478-1.007,44.906,44.906,0,0,1-19.554-27.855S112.645,70.7,128.1,56.871Z"/><path fill="#e78582" d="M129.455,95.473c-.082,0-.165,0-.249-.01a14.516,14.516,0,0,1-3.732-.9,2.953,2.953,0,0,1,2.184-5.487,8.575,8.575,0,0,0,2.04.5,2.953,2.953,0,0,1-.243,5.9Z"/><path fill="#e78582" d="M141.93,95.487a2.953,2.953,0,0,1-.241-5.895,8.573,8.573,0,0,0,2.041-.5,2.953,2.953,0,0,1,2.182,5.488,14.443,14.443,0,0,1-3.733.9C142.1,95.484,142.013,95.487,141.93,95.487Z"/><path fill="url(#1plL-_tEiWBRW1rheZ9Fjh)" d="M321.708,142.283a3.451,3.451,0,0,0-3.539-2.973c-.4.015-9.628.507-14.122,13.174l-42.1,34.545a3.445,3.445,0,1,0,4.371,5.326l36.323-29.8C302.38,178.75,299.628,237,274,264.383a14.6,14.6,0,0,0-3.6-.486c-8.1-9.26-21.828-26.436-30.037-44.9-.011-.024-.027-.044-.039-.068q-.33-.744-.649-1.491c-8.5-20-4.89-40.587-2.757-49.055A12.041,12.041,0,0,0,243.23,153.7a51.047,51.047,0,0,0-14.42-21.9,15.038,15.038,0,0,0-19.676-.471c-1.613,1.322-3.2,2.742-4.757,4.244l-5.441-5.439a12.471,12.471,0,0,0-17.3-.361l-.554.509L178.23,103.55c2.2-.735,17.324-11.2,20.868-22.912a49.428,49.428,0,0,0,1.966-18.281c10.08-7.972,11.693-18.38,4.494-29.464-3.35-5.158-7.306-7.7-11.178-8.768,2.339-2.581,6.131-4.926,12.21-4.926.1,0,.21-.005.306-.013a21.5,21.5,0,0,1,14.931,5.33c5.471,5.029,8.244,13.313,8.244,24.621V85.646c-.024,1.118-.066,12.695,8.25,18.9a14.039,14.039,0,0,1-4.858,3.2,18.634,18.634,0,0,1-15.546-.949A31.941,31.941,0,0,1,205.338,95.05a3.445,3.445,0,1,0-5.846,3.646,39.266,39.266,0,0,0,15.278,14.235,26.556,26.556,0,0,0,12.115,2.981,24.253,24.253,0,0,0,9.184-1.783c7.764-3.172,10.134-8.818,10.379-9.451a3.444,3.444,0,0,0-1.833-4.4c-7.84-3.43-7.658-14.383-7.656-14.482,0-.036,0-.073,0-.109V49.137c0-13.379-3.555-23.4-10.567-29.781a28.208,28.208,0,0,0-19.939-7.046c-12,.052-17.752,7.01-20.2,11.438a26.333,26.333,0,0,0-6.23,1.812,49.729,49.729,0,0,0-8.471-4.782c-1.842-.813-3.778-1.556-5.754-2.211a43.358,43.358,0,0,0-26.2-.6,28.27,28.27,0,0,0-14.065,10.386c-5.333,1.567-21.753,8.455-21.182,33.7.219,9.68,3.7,17.684,10.321,23.815.036,2.551.2,4.922.422,7l-5.31-4.919A8.08,8.08,0,0,0,98.768,88l-1.412,1.336-8.644-8.27.463-9.954a13.533,13.533,0,0,0-3.109-9.289L75.89,49.556a3.445,3.445,0,0,0-6.035,1.55L67.3,64.438,59.422,65.8,54.343,59.68a3.445,3.445,0,0,0-6.035,1.55L45.329,76.743,29.538,79.479a3.445,3.445,0,0,0-1.627,6.033L41.677,97.068a14.964,14.964,0,0,0,9.624,3.5l.279,0,12.3-.228,10.731,11.074a8.063,8.063,0,0,0,1.473,9.6l24.853,24.208a3.445,3.445,0,0,0,4.808-4.936L80.9,116.077a1.169,1.169,0,0,1,.011-1.689l.722-.683h0L103.5,93A1.173,1.173,0,0,1,105.1,93l12.2,11.3a48.672,48.672,0,0,0,20.145,26.643,14.908,14.908,0,0,0,8.091,2.39c.068,0,.136-.009.2-.01l.762,7.193a45.674,45.674,0,0,1-9.306-2.275l-1.835-1.353a12.152,12.152,0,0,0-14.915.393A38.638,38.638,0,0,0,109.915,150.5a26.07,26.07,0,0,0-8.039,3.718,11.42,11.42,0,0,0-4.78,7.931,11.6,11.6,0,0,0,2.7,9.011q.671.779,1.456,1.655c-6.625,5.315-16.839,13.439-24.886,19.526l-.006,0q-2.7,2.041-4.814,3.582a224.561,224.561,0,0,1-9.32-21.353V153.708a11.923,11.923,0,0,0-3.332-8.233,66.626,66.626,0,0,0-.5-23.49,9.381,9.381,0,0,0-9.842-7.569,9.152,9.152,0,0,0-8.438,10.332c.246,1.9.386,3.882.453,5.851a29.354,29.354,0,0,0-9.353-5.43,9.129,9.129,0,0,0-10.448,3.285,8.831,8.831,0,0,0-1.419,7.1,8.736,8.736,0,0,0,4.319,5.716,21.324,21.324,0,0,1,5.7,4.572,21.546,21.546,0,0,0-7.311,2.475,12.515,12.515,0,0,0-6.252,10.5,34.837,34.837,0,0,0,.509,7.233,9.494,9.494,0,0,0,9.527,7.734c.164,0,.328-.008.491-.014.671,4.748,3.131,10.811,9.356,14.081,1.216,7.425,6.1,35.4,13.593,54.414a3.442,3.442,0,0,0,4.521,1.921,282.4,282.4,0,0,0,39.886-21.027l.014-.008c3.391-2.174,6.63-4.383,9.626-6.565a3.445,3.445,0,0,0-4.056-5.569c-1.7,1.238-3.492,2.487-5.341,3.733a58.561,58.561,0,0,0-10.461-19.164c7.746-5.938,16.694-13.066,22.57-17.783,2.071,2.043,4.478,4.285,7.262,6.684-2.019,5.273-4.083,13.5-3.8,24.744A29.069,29.069,0,0,0,131.753,236.8a91.107,91.107,0,0,1,5.593,24.681,12.42,12.42,0,0,1-1.889,7.645c-3.256,5.184-9.855,18.347-12.018,31.685a3.439,3.439,0,0,0-.537,3.1,26.987,26.987,0,0,0-8.461,6.21c-.658.721-1.317,1.482-1.96,2.262a3.445,3.445,0,0,0,1.688,5.5,284.116,284.116,0,0,0,52.9,9.068c6.031.471,12.613.777,19.541.777,24.734,0,53.816-3.908,77.4-18.2a3.413,3.413,0,0,0,1.484-1.909,14.295,14.295,0,0,0,10.9-2.5,70.8,70.8,0,0,0,11.8-11.017,14.558,14.558,0,0,0,3.13-13.2C307.6,261.326,332.154,218.059,321.708,142.283ZM62.025,93.485l-10.574.2a8.078,8.078,0,0,1-5.344-1.89L38.02,85l10.832-1.876a3.447,3.447,0,0,0,2.8-2.745L53.7,69.695l6.933,8.357a8.062,8.062,0,0,1,1.853,5.535Zm6.148-16.159a14.966,14.966,0,0,0-2.238-3.673l-1.441-1.737,6.324-1.095a3.445,3.445,0,0,0,2.794-2.745l1.634-8.5,5.517,6.65a6.661,6.661,0,0,1,1.53,4.57l-.386,8.3-8.887.164a6.6,6.6,0,0,1-4.413-1.56Zm19.98,20.719-7.518-7.372a3.445,3.445,0,1,0-4.824,4.92l7.334,7.192-3.808,3.6L68.827,95.541l.46-9.9a13.4,13.4,0,0,0,3.607.5c.085,0,.17,0,.254,0l10.7-.2,8.5,8.136ZM47.444,122.1a2.216,2.216,0,0,1,1.577-.813,2.48,2.48,0,0,1,2.606,2,61.343,61.343,0,0,1,.816,18.717c-.094-.017-.184-.041-.278-.055a26.242,26.242,0,0,0-4.954-.247,95.164,95.164,0,0,0-.266-17.842A2.286,2.286,0,0,1,47.444,122.1ZM26.968,135.223a1.825,1.825,0,0,1-.907-1.209,1.912,1.912,0,0,1,.31-1.555,2.205,2.205,0,0,1,2.526-.8,21.681,21.681,0,0,1,11.46,9.3c-.044.665-.092,1.3-.14,1.886a36.69,36.69,0,0,0-3.5,1.2A28.83,28.83,0,0,0,26.968,135.223Zm3.171,31.154-1.139.2h0a21.1,21.1,0,0,1-3.287.317,2.579,2.579,0,0,1-2.625-2.1,28.067,28.067,0,0,1-.4-5.794,5.587,5.587,0,0,1,2.773-4.7,14.84,14.84,0,0,1,5.3-1.711,11.732,11.732,0,0,0,2.788,6.182c0,.063-.018.122-.018.186l.018,3.33A4.117,4.117,0,0,1,30.139,166.377Zm3,6.3a10.985,10.985,0,0,0,7.291-10.425v-.025a16.5,16.5,0,0,0,2.247.16q.708,0,1.452-.053a3.445,3.445,0,0,0-.49-6.873c-2.342.169-4-.251-4.938-1.244a5.245,5.245,0,0,1-1.181-3.046c4.838-2.222,9.413-3.038,13.62-2.407a5,5,0,0,1,4.19,4.942v20.417a19.327,19.327,0,0,1-15.784,7.964C34.808,179.992,33.493,175.493,33.144,172.679ZM87.9,218.665A286.29,286.29,0,0,1,54.432,236.4c-5.929-16.546-10.093-38.847-11.6-47.631A26.185,26.185,0,0,0,57.667,181.9c4.542,11.306,9.355,20.331,9.589,20.767a3.444,3.444,0,0,0,4.986,1.214c1.511-1.037,3.431-2.422,5.729-4.132A51.111,51.111,0,0,1,87.9,218.665Zm147.706,6.469c7.881,16.371,19.425,31.367,27.381,40.727a40.825,40.825,0,0,0-13.784,13.053h0c-.125.182-.232.372-.348.559C241.2,272.5,230.542,260.76,225.5,245.886a112.353,112.353,0,0,0-3.155-10.81A58.266,58.266,0,0,1,235.609,225.134Zm-2.813-6.316a68.915,68.915,0,0,0-13.154,9.277,67.576,67.576,0,0,0-4.17-8.2,29.163,29.163,0,0,0,2.319-10.662c.325-12.705-2.377-21.543-4.475-26.425a162.7,162.7,0,0,1,15.668-10.319C227.022,183.241,225.684,201.089,232.8,218.818Zm-17.64,16.618.008.026a107.069,107.069,0,0,1,3.647,12.106,3.483,3.483,0,0,0,.1.35c6.068,18.055,19.514,31.733,27.764,38.821a14.785,14.785,0,0,0,.5,4.286,119.98,119.98,0,0,1-29.361,11.221,3.513,3.513,0,0,0-.024-.587c-1.065-7.544-4.369-19.006-14.06-30.766a16.742,16.742,0,0,1-4-11.454c.031-.584.086-1.18.164-1.77,1.849-14.007,4.914-22.3,6.577-26,.012-.027.016-.055.027-.082a29.153,29.153,0,0,0,4.908-4.853A78.836,78.836,0,0,1,215.156,235.436ZM199.78,36.646c4.512,6.947,4.547,12.538-.049,17.613a49.945,49.945,0,0,0-13.485-23.534C190.5,29.789,195.74,30.426,199.78,36.646Zm-84.5,39.324A26.724,26.724,0,0,1,111.241,61.9c-.538-23.811,16.337-27.023,17.035-27.145a3.446,3.446,0,0,0,2.458-1.718c1.933-3.452,6.8-7.25,10.847-8.465a36.5,36.5,0,0,1,22.053.541c1.768.585,3.5,1.25,5.139,1.973A42.863,42.863,0,0,1,192.5,78.642,26.871,26.871,0,0,1,186.62,89.39a19.916,19.916,0,0,0-2.638-9.492,11.459,11.459,0,0,0-9.237-5.477,12.2,12.2,0,0,0-10.288,4.639,16.9,16.9,0,0,0-2.416,4.26c-26.754-4.749-30.383-26-30.532-26.963a3.445,3.445,0,0,0-5.7-2.054C119.332,60.1,116.415,68.164,115.282,75.97Zm25.906,49.182a41.733,41.733,0,0,1-18.075-25.767c-.059-.246-5.143-22.117,3.539-35.537,3.554,8.777,13.1,23.7,37.427,26.745a3.468,3.468,0,0,0,3.834-2.906,10.665,10.665,0,0,1,1.961-4.369,5.294,5.294,0,0,1,4.475-2.018,4.621,4.621,0,0,1,3.764,2.207c1.1,1.791,1.66,4.325,1.66,7.608.012.54-.02,4.862-4.038,6a6.441,6.441,0,0,0-2.95,1.807h0a6.526,6.526,0,0,0-1.758,4.457v2.716a8.916,8.916,0,0,1-2.525,6.271,59.672,59.672,0,0,1-20.006,13.5A7.953,7.953,0,0,1,141.188,125.152Zm33.587,10.93-18.022,16.569-2.206-1.627-2.053-19.378a66.752,66.752,0,0,0,20.328-13.855Zm-69.754,30.583a4.709,4.709,0,0,1-1.091-3.654,4.463,4.463,0,0,1,1.884-3.145,19.009,19.009,0,0,1,5.18-2.513,114.838,114.838,0,0,0,24.423,22.582,3.445,3.445,0,0,0,3.9-5.684,109.111,109.111,0,0,1-22.952-21.233,31.955,31.955,0,0,1,8.453-10.409,5.293,5.293,0,0,1,3.354-1.2,5.235,5.235,0,0,1,3.109,1.022l20.31,14.971-1.188,1.093a5.329,5.329,0,0,1-6.207.733l-2.484-1.383a3.444,3.444,0,1,0-3.351,6.019l2.483,1.383a12.2,12.2,0,0,0,14.222-1.681l4.265-3.92,26.975-24.8a5.6,5.6,0,0,1,7.764.162l5.606,5.6L166.02,178.98a3.445,3.445,0,1,0,5.18,4.542L206.919,142.8a72.556,72.556,0,0,1,6.583-6.138,8.184,8.184,0,0,1,10.708.271,44.146,44.146,0,0,1,12.479,18.936,5.166,5.166,0,0,1-2.782,6.328c-5.992,2.733-15.962,8.189-29.432,18.669A280.259,280.259,0,0,1,166.9,205.3a10.572,10.572,0,0,1-9.97.058C127.272,189.738,111.677,174.411,105.021,166.665Zm30.488,63.812a22.052,22.052,0,0,1-19.119-21.42,59.781,59.781,0,0,1,2.568-19.9,225.332,225.332,0,0,0,34.763,22.3,17.449,17.449,0,0,0,16.454-.091,288.724,288.724,0,0,0,37.454-24.24c1.7,4.48,3.534,11.758,3.273,21.932-.28,10.951-8.5,20.16-19.038,21.412-.548.045-3.233.177-4.208.105a79.065,79.065,0,0,1-15.24-2.584,31.84,31.84,0,0,0-17.539,0,79.072,79.072,0,0,1-15.241,2.584C138.663,230.646,135.977,230.514,135.509,230.477Zm5.782,42.315a19.345,19.345,0,0,0,2.918-11.918,99.664,99.664,0,0,0-4.882-23.4c.294,0,.573-.014.812-.032a86.241,86.241,0,0,0,16.634-2.832,24.956,24.956,0,0,1,13.747,0,86.234,86.234,0,0,0,16.633,2.832,48.362,48.362,0,0,0,5.442-.127,27.605,27.605,0,0,0,4.806-1.014,122.022,122.022,0,0,0-4.346,20.462c-.1.769-.173,1.548-.213,2.314a23.6,23.6,0,0,0,5.565,16.194c8.671,10.522,11.614,20.679,12.555,27.347a3.426,3.426,0,0,0,.341,1.062c-18.157,3.574-41.849,4.611-70.573-1.74a27.877,27.877,0,0,0-7.2-.633l34.56-28.357a3.445,3.445,0,0,0-4.37-5.326l-31.5,25.848A92.39,92.39,0,0,1,141.291,272.792ZM121.7,312.728a20.786,20.786,0,0,1,17.541-4.056c57.659,12.748,96.185-3.263,111.251-11.611.044.047.083.1.128.146a70.173,70.173,0,0,0,8.187,7.385C211.86,331.748,141.837,317.632,121.7,312.728Zm161.293-23.144a63.994,63.994,0,0,1-10.627,9.948,7.714,7.714,0,0,1-9.073-.175,63.009,63.009,0,0,1-7.683-6.9,7.729,7.729,0,0,1-.718-9.651h0c2.411-3.525,6.43-8.324,11.88-11.175a7.7,7.7,0,0,1,8.425.928c2.709,2.2,5.177,4.37,7.336,6.434A7.67,7.67,0,0,1,282.994,289.584Zm4.7-15.148c-.136-.141-.26-.288-.4-.424-2.106-2.013-4.489-4.11-7.073-6.239,27.507-31.166,29.263-94.549,29.329-107.271a16.551,16.551,0,0,1,.721-4.93c1.431-4.487,3.482-6.832,5.169-8.055C323.742,215.494,302.849,255.263,287.7,274.436Z"/><path fill="url(#1plL-_tEiWBRW1rheZ9Fjw)" d="M246.589,204.086a3.446,3.446,0,0,0,4.849.477l1.367-1.122a3.445,3.445,0,0,0-4.372-5.326l-1.367,1.122A3.445,3.445,0,0,0,246.589,204.086Z"/><path fill="url(#1plL-_tEiWBRW1rheZ9Fjx)" d="M153.077,182.9c-.172-.056-.343-.115-.515-.179l-.646-.247a3.445,3.445,0,1,0-2.487,6.426l.715.272q.4.15.806.281a3.445,3.445,0,0,0,2.127-6.553Z"/></svg>