<svg xmlns="http://www.w3.org/2000/svg" xmlns:xlink="http://www.w3.org/1999/xlink" viewBox="0 0 340 340" width="500px" height="500px"><defs><linearGradient id="CBO5kquSt4wGQSZmBm_l3i" x1="88.414" x2="89.02" y1="36.567" y2="3.996" gradientUnits="userSpaceOnUse"><stop offset="0" stop-color="#ebfeff"/><stop offset=".073" stop-color="#e3f9ff"/><stop offset=".703" stop-color="#a2cefd"/><stop offset="1" stop-color="#89bdfc"/></linearGradient><linearGradient id="CBO5kquSt4wGQSZmBm_l3b" x1="275.807" x2="285.09" y1="314.481" y2="272.432" gradientUnits="userSpaceOnUse"><stop offset="0" stop-color="#ffe1db"/><stop offset="1" stop-color="#feb5a9"/></linearGradient><linearGradient id="CBO5kquSt4wGQSZmBm_l3a" x1="256.712" x2="305.735" y1="190.017" y2="254.781" gradientUnits="userSpaceOnUse"><stop offset="0" stop-color="#efdcd5"/><stop offset="1" stop-color="#d5b5aa"/></linearGradient><linearGradient id="CBO5kquSt4wGQSZmBm_l3d" x1="178.555" x2="256.27" y1="308.363" y2="322.293" gradientUnits="userSpaceOnUse"><stop offset="0" stop-color="#6f6f81"/><stop offset="1" stop-color="#555568"/></linearGradient><linearGradient id="CBO5kquSt4wGQSZmBm_l3g" x1="224.707" x2="223.523" y1="295.676" y2="331.207" gradientUnits="userSpaceOnUse"><stop offset="0" stop-color="#ffd58a"/><stop offset=".553" stop-color="#ffbe65"/><stop offset="1" stop-color="#ffae4c"/></linearGradient><linearGradient id="CBO5kquSt4wGQSZmBm_l3j" x1="189.311" x2="185.713" y1="183.227" y2="296.114" xlink:href="#CBO5kquSt4wGQSZmBm_l3a"/><linearGradient id="CBO5kquSt4wGQSZmBm_l3k" x1="207.604" x2="207.604" y1="122.634" y2="168.188" xlink:href="#CBO5kquSt4wGQSZmBm_l3b"/><linearGradient id="CBO5kquSt4wGQSZmBm_l3c" x1="172.913" x2="234.195" y1="136.553" y2="170.176" gradientUnits="userSpaceOnUse"><stop offset="0" stop-color="#8aa1e2"/><stop offset="1" stop-color="#637bbe"/></linearGradient><linearGradient id="CBO5kquSt4wGQSZmBm_l3l" x1="156.567" x2="217.849" y1="166.345" y2="199.968" xlink:href="#CBO5kquSt4wGQSZmBm_l3c"/><linearGradient id="CBO5kquSt4wGQSZmBm_l3f" x1="256.373" x2="164.122" y1="173.176" y2="304.268" gradientUnits="userSpaceOnUse"><stop offset="0" stop-color="#ff7b72"/><stop offset=".291" stop-color="#f37169"/><stop offset="1" stop-color="#da5b55"/></linearGradient><linearGradient id="CBO5kquSt4wGQSZmBm_l3m" x1="191.646" x2="191.01" y1="23.476" y2="78.494" xlink:href="#CBO5kquSt4wGQSZmBm_l3d"/><linearGradient id="CBO5kquSt4wGQSZmBm_l3n" x1="212.003" x2="212.003" y1="106.701" y2="39.61" xlink:href="#CBO5kquSt4wGQSZmBm_l3b"/><linearGradient id="CBO5kquSt4wGQSZmBm_l3o" x1="223.757" x2="223.121" y1="23.847" y2="78.865" xlink:href="#CBO5kquSt4wGQSZmBm_l3d"/><linearGradient id="CBO5kquSt4wGQSZmBm_l3e" x1="100.975" x2="123.354" y1="217.97" y2="284.112" gradientUnits="userSpaceOnUse"><stop offset="0" stop-color="#dba29a"/><stop offset="1" stop-color="#c97e76"/></linearGradient><linearGradient id="CBO5kquSt4wGQSZmBm_l3p" x1="294.638" x2="333.427" y1="266.349" y2="238.5" xlink:href="#CBO5kquSt4wGQSZmBm_l3e"/><linearGradient id="CBO5kquSt4wGQSZmBm_l3q" x1="88.886" x2="88.313" y1="69.891" y2="276.829" xlink:href="#CBO5kquSt4wGQSZmBm_l3f"/><linearGradient id="CBO5kquSt4wGQSZmBm_l3r" x1="86.843" x2="90.154" y1="183.763" y2="239.012" xlink:href="#CBO5kquSt4wGQSZmBm_l3b"/><linearGradient id="CBO5kquSt4wGQSZmBm_l3s" x1="229.916" x2="220.915" y1="204.182" y2="246.582" xlink:href="#CBO5kquSt4wGQSZmBm_l3g"/><linearGradient id="CBO5kquSt4wGQSZmBm_l3h" x1="172.7" x2="167.887" y1="22.164" y2="306.984" gradientUnits="userSpaceOnUse"><stop offset="0" stop-color="#444456"/><stop offset="1" stop-color="#363644"/></linearGradient><linearGradient id="CBO5kquSt4wGQSZmBm_l3t" x1="88.673" x2="83.859" y1="20.744" y2="305.564" xlink:href="#CBO5kquSt4wGQSZmBm_l3h"/></defs><polygon fill="url(#CBO5kquSt4wGQSZmBm_l3i)" points="88.32 14.695 71.425 41.623 105.215 41.623 88.32 14.695"/><path fill="url(#CBO5kquSt4wGQSZmBm_l3b)" d="M265.783,283.758s-9.388,15.186-10.758,41.547H293.39l.994-4.252a11.362,11.362,0,0,0-6.984-13.188l-3.4-1.309,2.373-11.31S277.911,284.554,265.783,283.758Z"/><path fill="url(#CBO5kquSt4wGQSZmBm_l3a)" d="M257.526,222.011l33.387,30.967,24.77-15.483-49.9-66.414S254.654,195.8,257.526,222.011Z"/><path fill="#a08988" d="M279.93,228.831c-10.975-16.388-5.68-31.669-.882-40.095l-13.265-17.655s-11.129,24.723-8.257,50.93l33.387,30.967,10.2-6.375C292.771,242.2,285,236.4,279.93,228.831Z"/><polygon fill="url(#CBO5kquSt4wGQSZmBm_l3d)" points="256.735 301.571 256.735 325.305 157.008 325.305 156.523 306.556 161.935 301.571 256.735 301.571"/><rect width="25.411" height="23.735" x="211.409" y="301.571" fill="url(#CBO5kquSt4wGQSZmBm_l3g)"/><path fill="url(#CBO5kquSt4wGQSZmBm_l3j)" d="M149.219,165.544s-14.482,43.391-33.2,75.073l16.6,40.292a278.083,278.083,0,0,0,27.551-46.146l1.766,66.808h94.8s.089-35.223,2.493-69.732C259.228,231.839,189.487,197.571,149.219,165.544Z"/><path fill="#a08988" d="M149.219,165.544s-1.667,4.994-4.6,12.824c8.491,13.115,34.451,49.262,72.675,66.805l-55.591,47.7.23,8.7h17.223a315.129,315.129,0,0,0,46.648-38.814h4.245a9.294,9.294,0,0,0,6.347-2.5c4.366-4.072,13.229-13.249,22.83-28.422,1.339-19.226,3.395-38.23,6.555-50.8C265.783,181.041,189.487,197.571,149.219,165.544Z"/><polygon fill="url(#CBO5kquSt4wGQSZmBm_l3k)" points="190.681 105.964 190.681 153.87 224.526 163.953 224.526 125.973 190.681 105.964"/><path fill="url(#CBO5kquSt4wGQSZmBm_l3c)" d="M182.761,138.9c9.564,6.811,33.234,19.318,70.447,11.272l-15.461,37.644s-39.885,6.05-75.064-34.283l10.981-13.387A6.73,6.73,0,0,1,182.761,138.9Z"/><path fill="#3c4e84" d="M238.238,152.416c-3.179,7.872-9.814,22.873-18.466,34.69,10.864,1.789,17.975.711,17.975.711l15.461-37.644A115.879,115.879,0,0,1,238.238,152.416Z"/><path fill="#3c4e84" d="M178.171,157.509a3.019,3.019,0,0,0-3.29,4.945c10.426,10.007,23.781,17.427,36.405,22.794,15.5,4.228,26.461,2.569,26.461,2.569l8.735-21.268A130.428,130.428,0,0,1,178.171,157.509Z"/><path fill="url(#CBO5kquSt4wGQSZmBm_l3l)" d="M161.787,147.145c9.762,8.908,35.692,29.905,64.019,30.756l-7.554,48.456s-53.329-24.975-78.873-64.808l14.184-14.211A5.948,5.948,0,0,1,161.787,147.145Z"/><path fill="#a08988" d="M158.152,219.418a.742.742,0,0,0-1.4.405c.32,3.425.146,8.034-2.1,11.961-2.451,4.287-7.721,11.208-11.66,16.2a5.392,5.392,0,0,1-8.688-.283c-3.132-4.614-8.067-10.635-14.3-14.119-1.305,2.392-2.636,4.746-3.99,7.037l16.6,40.292a278.083,278.083,0,0,0,27.551-46.146v-6.849A18.891,18.891,0,0,0,158.152,219.418Z"/><path fill="#3c4e84" d="M218.253,226.357l30.921-52.881a53.721,53.721,0,0,1-23.367,4.42,104.958,104.958,0,0,1-8.462,12.372s-4.785,0-10.716,9.017c-3.2,4.861-7.088,10.66-10,14.975A226.455,226.455,0,0,0,218.253,226.357Z"/><path fill="url(#CBO5kquSt4wGQSZmBm_l3f)" d="M252.076,145.589s-32.811,86.658-93.926,135.092a9.164,9.164,0,0,0-3.451,6.846,72.144,72.144,0,0,0,1.824,19.029s77.292-41.416,115.258-132.762a9.929,9.929,0,0,0-1.1-9.622A79.413,79.413,0,0,0,252.076,145.589Z"/><polygon fill="#e78582" points="190.681 137.667 224.527 136.379 224.527 125.973 190.681 105.964 190.681 137.667"/><path fill="url(#CBO5kquSt4wGQSZmBm_l3m)" d="M210.37,58.622s3.943,30.525-24.736,35.138c0,0-16.813-10.859-13.4-31.115s19.454-19.654,19.454-19.654Z"/><path fill="url(#CBO5kquSt4wGQSZmBm_l3n)" d="M247.035,57.03s.866,23.186-1.9,44.807a61.354,61.354,0,0,1-2.478,11.056,90.935,90.935,0,0,1-5.332,13.164,12.224,12.224,0,0,1-14.151,6.127c-7.951-2.207-19.77-6.38-28.966-13.422a9.058,9.058,0,0,1-3.523-7.2v-5.6s-13.838-1.8-13.838-14.841a18.555,18.555,0,0,1,1.71-8.445,8.371,8.371,0,0,1,14.382-.834,11.483,11.483,0,0,1,1.757,5.669c8.511-6.236,15-18.1,11.215-30.483Z"/><path fill="url(#CBO5kquSt4wGQSZmBm_l3o)" d="M184.438,32.194a13.879,13.879,0,0,0,1.1,21.531c7.237,5.344,19.669,10.883,40.113,10.883,39.493,0,41.707-31.373,41.707-31.373h-12.18s4.09-4.008,2.722-14.6c0,0-7.9,4.814-25.236,3.156C232.661,21.794,200.96,17.482,184.438,32.194Z"/><path fill="#e78582" d="M221.332,93.069a3.426,3.426,0,0,1-1.4-.3,25.4,25.4,0,0,0-2.732-.988,3.445,3.445,0,0,1,2.025-6.585,32.673,32.673,0,0,1,3.516,1.281,3.446,3.446,0,0,1-1.407,6.592Z"/><path fill="#e78582" d="M237,93.069a3.446,3.446,0,0,1-1.348-6.617c1.158-.491,3-1.169,3.078-1.2a3.445,3.445,0,1,1,2.376,6.468c-.018.006-1.761.647-2.761,1.071A3.429,3.429,0,0,1,237,93.069Z"/><path fill="url(#CBO5kquSt4wGQSZmBm_l3e)" d="M101.083,201.265s40.632,39.641,37,96.79c0,0-28.391-7.55-42.142-38.535A29.182,29.182,0,0,1,93.67,251.4l-5.14-40.22Z"/><path fill="url(#CBO5kquSt4wGQSZmBm_l3p)" d="M324.509,230.477s-42.584,4.308-58.517,53.49l20.585,11.488,32.937-30.86a25.4,25.4,0,0,0,8.176-19.018A44.872,44.872,0,0,0,324.509,230.477Z"/><path fill="#b47171" d="M137.871,298.055c.223-3.5.277-6.924.188-10.283-36.553-16.266-30.731-61.094-27.8-75.478a106.236,106.236,0,0,0-9.381-11.029l-12.553,9.91,5.141,40.22a29.132,29.132,0,0,0,2.269,8.124C109.481,290.505,137.871,298.055,137.871,298.055Z"/><path fill="#c84343" d="M81.312,62.358s-17.521,2.25-38.288,32.374c0,0-13.621,18.31-30.511,23.028a11.252,11.252,0,0,0,8.293,9.4,13.642,13.642,0,0,0,7.684-.322c5.063-1.624,14.825-6.2,23.074-18.606a116.933,116.933,0,0,1,7.351-10.052,53.7,53.7,0,0,1,8.625-8.7c4.135-2.946,8.994-5.581,13.772-6.254Z"/><path fill="#c84343" d="M95.328,62.358s17.521,2.25,38.288,32.374c0,0,13.621,18.31,30.511,23.028a11.25,11.25,0,0,1-8.293,9.4,13.642,13.642,0,0,1-7.684-.322c-5.063-1.624-14.825-6.2-23.073-18.606a117.147,117.147,0,0,0-7.351-10.052c-2.695-3.244-5.927-6.78-8.626-8.7-4.135-2.946-8.993-5.581-13.772-6.254Z"/><path fill="url(#CBO5kquSt4wGQSZmBm_l3q)" d="M100.324,259.339c-2.071-4.676-5-15.035-5-36.245V134.959a40.892,40.892,0,0,1,2.808-14.7,24.893,24.893,0,0,0,2.148-9.843V66.8a7.523,7.523,0,0,0-7.523-7.523H83.88A7.523,7.523,0,0,0,76.356,66.8v43.614a24.893,24.893,0,0,0,2.148,9.843,40.867,40.867,0,0,1,2.808,14.7v88.135c0,20.955-2.855,31.318-4.921,36.074a24.467,24.467,0,0,0-2.087,9.738v10.745a21.777,21.777,0,0,0,5.811,14.9,50.58,50.58,0,0,0,5.852,5.325,3.834,3.834,0,0,0,4.706,0,50.6,50.6,0,0,0,5.853-5.326,21.776,21.776,0,0,0,5.81-14.9V269.043A23.95,23.95,0,0,0,100.324,259.339Z"/><path fill="#c84343" d="M96.378,242.768a163.881,163.881,0,0,1-1.05-19.674V207.818a64.157,64.157,0,0,0-14.016,1.3v13.98c0,19.388-2.444,29.706-4.445,34.907Z"/><rect width="33.034" height="40.544" x="71.803" y="188.139" fill="url(#CBO5kquSt4wGQSZmBm_l3r)" rx="10.692"/><path fill="#b47171" d="M286.368,295.246,319.3,264.385a25.4,25.4,0,0,0,8.177-19.018,39.256,39.256,0,0,0-.36-4.351c-10.153,13.48-29.523,32.672-55.5,28.668a92.894,92.894,0,0,0-5.836,14.074Z"/><path fill="#f78a40" d="M236.821,301.571h-2.7c-.7,4.257-4.31,16.773-22.714,17.694v6.04h25.412Z"/><path fill="#c84343" d="M237.69,233.16l-4.135-4.477L210.717,222.6c-5.093,7.408-10.64,14.883-16.636,22.191a70.191,70.191,0,0,0,21.51,14.372A292.373,292.373,0,0,0,237.69,233.16Z"/><path fill="url(#CBO5kquSt4wGQSZmBm_l3s)" d="M202.538,225.879a294.548,294.548,0,0,0,16.846-24.367,8.436,8.436,0,0,1,12.256-2.41,82.162,82.162,0,0,1,16.619,15.947,8.447,8.447,0,0,1,.338,9.638,227.1,227.1,0,0,1-18.7,25.41,8.442,8.442,0,0,1-11.565,1.078,105.242,105.242,0,0,1-15.594-14.831A8.431,8.431,0,0,1,202.538,225.879Z"/><path fill="#f78a40" d="M229.9,250.1a227.1,227.1,0,0,0,18.7-25.41,8.447,8.447,0,0,0-.338-9.638,65.358,65.358,0,0,0-5.834-6.689c.472,4.693-.315,11.131-5.6,17.712-6.456,8.034-10.95,13.78-13.39,16.932a9.328,9.328,0,0,1-7.172,3.613,17.36,17.36,0,0,1-3.762-.322c2.081,1.846,4.085,3.5,5.838,4.88A8.442,8.442,0,0,0,229.9,250.1Z"/><path fill="url(#CBO5kquSt4wGQSZmBm_l3h)" d="M323.952,226.84a54.465,54.465,0,0,0-10.193,2.358l-39.465-52.525c.22-.52.451-1.036.668-1.557a13.456,13.456,0,0,0-1.491-12.961,82.325,82.325,0,0,0-19.443-19.4,3.445,3.445,0,0,0-5.173,1.619c-.019.051-.479,1.253-1.361,3.4a104.35,104.35,0,0,1-19.523,1.571V135.992a15.632,15.632,0,0,0,12.416-8.364,95.29,95.29,0,0,0,5.544-13.676,64.93,64.93,0,0,0,2.617-11.677,304.875,304.875,0,0,0,2.045-39.622c18.546-9.658,20.18-28.916,20.2-29.175a3.444,3.444,0,0,0-3.437-3.688h-6.648a28.5,28.5,0,0,0,.607-11.593,3.463,3.463,0,0,0-5.179-2.519c-.072.043-7.394,4.182-23.082,2.692-2.158-.284-33.639-4.124-50.906,11.251a17.129,17.129,0,0,0-5.738,13.634,17.456,17.456,0,0,0,.322,2.523c-4.066,3.915-6.733,9.377-7.9,16.3a33.565,33.565,0,0,0,4.984,24.2,27.245,27.245,0,0,0-.419,4.854c0,10.749,7.884,15.834,13.838,17.606v29.035c-.893-.573-1.724-1.133-2.476-1.669A10.2,10.2,0,0,0,171,137.962l-6.06,7.388c-.283-.254-.568-.509-.832-.75a9.377,9.377,0,0,0-12.983.3l-14.184,14.211a3.444,3.444,0,0,0-.462,4.293c2.035,3.174,4.248,6.248,6.586,9.23a494.954,494.954,0,0,1-21.422,50.376,147.778,147.778,0,0,0-13.361-18.647v-5.536a14.151,14.151,0,0,0-9.509-13.343V134.911a37.638,37.638,0,0,1,2.527-13.286,28.251,28.251,0,0,0,2.429-11.208V90.091c1.1.651,2.225,1.371,3.372,2.188a49.324,49.324,0,0,1,7.974,8.1,111.814,111.814,0,0,1,7.133,9.758c8.71,13.1,19.1,18.08,24.669,19.9l-39.313,32.2a3.445,3.445,0,1,0,4.366,5.33l45.6-37.348a14.711,14.711,0,0,0,10.028-12.145,3.445,3.445,0,0,0-2.5-3.635c-15.16-4.235-27.928-20.784-28.644-21.726-14.453-20.945-27.633-28.906-34.429-31.831a10.959,10.959,0,0,0-9.22-5.051H83.879a10.959,10.959,0,0,0-9.22,5.051c-6.8,2.925-19.976,10.887-34.429,31.831-.727.956-13.49,17.493-28.644,21.726a3.446,3.446,0,0,0-2.5,3.635,14.71,14.71,0,0,0,10.028,12.145l45.6,37.348a3.445,3.445,0,1,0,4.366-5.33l-39.313-32.2c5.565-1.824,15.96-6.8,24.669-19.9a111.814,111.814,0,0,1,7.133-9.758,49.324,49.324,0,0,1,7.974-8.1c1.148-.818,2.27-1.536,3.372-2.187v20.325a28.242,28.242,0,0,0,2.43,11.208,37.661,37.661,0,0,1,2.526,13.334v50.529a14.151,14.151,0,0,0-9.509,13.343v19.16A14.149,14.149,0,0,0,77.7,231.273c-.646,15.673-3.092,23.415-4.533,26.67a27.221,27.221,0,0,0-2.308,11.1v10.608A25.119,25.119,0,0,0,77.6,296.908a50.78,50.78,0,0,0,8.876,7.573,3.447,3.447,0,0,0,3.689,0,50.8,50.8,0,0,0,8.875-7.573,25.048,25.048,0,0,0,6.7-15.808c14.228,15.586,30.517,20.064,31.292,20.27a3.445,3.445,0,0,0,4.321-3.114,118.233,118.233,0,0,0-.767-22.592,281.674,281.674,0,0,0,16.5-27.128l.74,27.978c-.6.492-1.21.986-1.816,1.467a12.582,12.582,0,0,0-4.755,9.421,75.574,75.574,0,0,0,1.832,19.583l.476,18.409a3.444,3.444,0,0,0,3.444,3.356H293.39a3.444,3.444,0,0,0,3.355-2.661l.993-4.252a14.866,14.866,0,0,0-9.1-17.187l-.668-.257,1.547-7.376L321.659,266.9a28.843,28.843,0,0,0,9.266-21.611,48.532,48.532,0,0,0-3.411-16.257A3.452,3.452,0,0,0,323.952,226.84ZM103.729,69.491c6.6,3.858,16.329,11.643,27.05,27.2.023.034.048.068.072.1.548.737,12.82,17.039,29.016,23.191a7.55,7.55,0,0,1-4.926,3.851,10.208,10.208,0,0,1-5.739-.276c-4.651-1.491-13.6-5.712-21.257-17.233a118.255,118.255,0,0,0-7.569-10.345,54.748,54.748,0,0,0-9.277-9.308,47.815,47.815,0,0,0-7.37-4.365ZM72.911,82.3a47.806,47.806,0,0,0-7.37,4.366,54.748,54.748,0,0,0-9.277,9.308A118.462,118.462,0,0,0,48.7,106.321c-7.66,11.521-16.606,15.742-21.257,17.233a10.22,10.22,0,0,1-5.74.276,7.558,7.558,0,0,1-4.927-3.85c16.2-6.151,28.47-22.455,29.018-23.192.025-.033.049-.067.072-.1,10.722-15.553,20.449-23.338,27.05-27.2Zm234.126,149.42a76.5,76.5,0,0,0-7.731,3.857,75.644,75.644,0,0,0-12.46,8.928L273.232,231.88a3.445,3.445,0,0,0-4.686,5.052L281.878,249.3a86.35,86.35,0,0,0-19.243,33.018c-.374.643-1.2,2.144-2.259,4.459.438-22.386,1.846-65.167,6.347-92.894a3.423,3.423,0,0,0,.014-.892q2.276-4.512,4.368-9.088Zm-53.43-80.711a78.318,78.318,0,0,1,14.279,15.178,6.521,6.521,0,0,1,.713,6.283,266.237,266.237,0,0,1-19.567,38.019,90.3,90.3,0,0,0-15.346-14.161,11.888,11.888,0,0,0-1.838-1.1A417.491,417.491,0,0,0,253.607,151.011ZM245.7,222.825a224.563,224.563,0,0,1-18.386,25,5,5,0,0,1-6.845.646A102.186,102.186,0,0,1,205.4,234.151a4.967,4.967,0,0,1-.116-6.189,294.021,294.021,0,0,0,17.057-24.679,4.879,4.879,0,0,1,3.268-2.3,5.147,5.147,0,0,1,1.006-.1,5,5,0,0,1,2.981.992,79.241,79.241,0,0,1,15.91,15.246A5.018,5.018,0,0,1,245.7,222.825ZM186.729,34.767c9.576-8.527,25.13-10.105,35.331-10.105a86.324,86.324,0,0,1,10.137.545c.045.006.091.012.136.016,10.594,1.016,17.976-.3,22.382-1.624-.171,4.757-1.746,6.905-1.992,7.212a3.306,3.306,0,0,0-.855,3.7,3.488,3.488,0,0,0,3.308,2.17h8.07c-1.964,7.673-9.477,24.482-37.6,24.482-20.035,0-31.759-5.551-38.067-10.208a10.525,10.525,0,0,1-4.289-8.014A10.267,10.267,0,0,1,186.729,34.767Zm-9.351,43.647a26.413,26.413,0,0,1-1.75-15.2,24.053,24.053,0,0,1,4.121-10.5,17.507,17.507,0,0,0,3.74,3.783,56.559,56.559,0,0,0,20.041,9.025,25.283,25.283,0,0,1-6.971,15.72,13.131,13.131,0,0,0-.741-1.284,11.832,11.832,0,0,0-18.44-1.544Zm2.91,12.709a15.387,15.387,0,0,1,1.341-6.893,4.819,4.819,0,0,1,4.1-2.63,4.764,4.764,0,0,1,4.324,2.129,8.187,8.187,0,0,1,1.2,4,3.452,3.452,0,0,0,3.059,3.208,3.5,3.5,0,0,0,2.473-.691c6.208-4.572,12.634-12.906,13.543-23.346a97.979,97.979,0,0,0,15.319,1.149,59.4,59.4,0,0,0,18.068-2.564,296.52,296.52,0,0,1-2,35.911,57.993,57.993,0,0,1-2.34,10.434,88.07,88.07,0,0,1-5.119,12.651,8.792,8.792,0,0,1-10.163,4.379c-7.892-2.189-19.119-6.194-27.794-12.837a5.642,5.642,0,0,1-2.172-4.466v-3.62a5.771,5.771,0,0,0-1.212-3.539l-.11-.142a5.874,5.874,0,0,0-3.013-2.025C186.623,101.315,180.288,98.546,180.288,91.123Zm40.793,44.048v13.793a78,78,0,0,1-26.955-7.345V122.968C202.877,129.089,213.292,132.927,221.081,135.171Zm-44.754,7.16a3.293,3.293,0,0,1,4.436-.624c8.377,5.966,24.631,14.54,48.832,14.54a109.9,109.9,0,0,0,14.7-1.013c-2.183,4.932-5.136,11.3-8.837,18.639-25.917,3.971-51.324-12.627-65.284-24.041ZM156,149.771a2.5,2.5,0,0,1,3.463-.081c11.562,10.55,40.758,33.694,72.191,31.541-2.183,4.126-4.567,8.468-7.149,12.958-.084.015-.168.02-.252.037a11.85,11.85,0,0,0-7.826,5.516c-3.2,5.344-7.169,11.116-10.68,16C188.887,205.93,160.809,187.06,143.8,162ZM79.8,66.8a4.084,4.084,0,0,1,4.078-4.079h8.882A4.084,4.084,0,0,1,96.839,66.8v43.614a21.426,21.426,0,0,1-1.866,8.48,44.158,44.158,0,0,0-3.09,16.062v49.735H84.757V135.011A44.215,44.215,0,0,0,81.668,118.9a21.411,21.411,0,0,1-1.867-8.48ZM75.248,217.991v-19.16a7.255,7.255,0,0,1,7.247-7.247h11.65a7.255,7.255,0,0,1,7.247,7.247v19.16a7.255,7.255,0,0,1-7.247,7.247H82.5A7.255,7.255,0,0,1,75.248,217.991Zm23.643,61.66A18.255,18.255,0,0,1,94.012,292.2a47.176,47.176,0,0,1-5.692,5.143,47.163,47.163,0,0,1-5.692-5.142,18.26,18.26,0,0,1-4.879-12.547V269.043a20.385,20.385,0,0,1,1.717-8.31c1.976-4.461,4.406-13.007,5.1-28.605h7.514c.691,15.6,3.122,24.145,5.1,28.605a20.385,20.385,0,0,1,1.717,8.31Zm35.775,13.568a68.181,68.181,0,0,1-28.878-22.982l-.007-.007v-1.187a27.232,27.232,0,0,0-2.307-11.1c-1.442-3.256-3.888-11-4.534-26.671a14.149,14.149,0,0,0,9.342-13.282v-2.533C119.4,230.425,135.405,258.2,134.666,293.219Zm19.623-81.5a3.445,3.445,0,0,0-1.534,4.624l2.326,4.632a15.532,15.532,0,0,1,1.643,6.935v6.055a278.989,278.989,0,0,1-17.818,31.8,136.143,136.143,0,0,0-13.182-35.6,477.979,477.979,0,0,0,22.426-51.4c17.108,19.431,39.079,34.116,53.5,42.562-.675.905-1.3,1.739-1.858,2.469a11.835,11.835,0,0,0-1.91,10.639,259.371,259.371,0,0,1-33.317,36.35l-.953-36.076v-6.8a22.46,22.46,0,0,0-2.376-10.027l-2.325-4.631A3.444,3.444,0,0,0,154.289,211.723Zm3.853,75.93a5.7,5.7,0,0,1,2.148-4.272c14.35-11.373,28.318-25.762,41.557-42.8A114.211,114.211,0,0,0,216,253.715a279.9,279.9,0,0,1-57.041,47.43A70.117,70.117,0,0,1,158.142,287.653Zm49.823,34.207h-47.6l-.344-13.318c1.324-.764,3.305-1.942,5.826-3.543.056,0,.109.017.165.017h41.953Zm25.41,0h-18.52V305.016h18.52Zm19.915,0H240.266V305.016H253.29Zm.025-23.734H176.036a297.482,297.482,0,0,0,46.848-41.73c.217.012.434.026.651.026a11.893,11.893,0,0,0,8.953-4.051A231.562,231.562,0,0,0,251.5,226.549a11.954,11.954,0,0,0,1.5-9.425q2.43-3.81,4.73-7.693C254.107,243.039,253.435,285.841,253.315,298.126Zm37.714,22.143-.371,1.591H260.18V309.543a3.445,3.445,0,0,0,.476-1.145,86.331,86.331,0,0,1,7.036-20.938c7.17,1.3,12.744,6.45,14.948,8.774l-2.017,9.614a3.445,3.445,0,0,0,2.135,3.923l3.405,1.31A7.947,7.947,0,0,1,291.029,320.269Zm25.919-58.4-30.411,28.5c-3.073-3-8.762-7.6-16.146-9.372,13.607-36.7,42.653-45.123,51.617-46.877a39.92,39.92,0,0,1,2.029,11.329A21.946,21.946,0,0,1,316.948,261.871Z"/><path fill="url(#CBO5kquSt4wGQSZmBm_l3t)" d="M70.441,45.068H84.875v3.765a3.445,3.445,0,0,0,6.89,0V45.068H106.2a3.445,3.445,0,0,0,2.87-5.351L91.19,12.789a3.446,3.446,0,0,0-5.74,0L67.571,39.717a3.445,3.445,0,0,0,2.87,5.351ZM88.32,20.923,99.777,38.178H76.863Z"/></svg>