<svg xmlns="http://www.w3.org/2000/svg" xmlns:xlink="http://www.w3.org/1999/xlink" viewBox="0 0 340 340" width="500px" height="500px"><defs><linearGradient id="7J2mCYQYP-DNZy7_9a4h_a" x1="269.72" x2="277.912" y1="174.176" y2="81.61" gradientUnits="userSpaceOnUse"><stop offset="0" stop-color="#f9b087"/><stop offset=".308" stop-color="#f4a57a"/><stop offset="1" stop-color="#ea8e61"/></linearGradient><linearGradient id="7J2mCYQYP-DNZy7_9a4h_d" x1="51.612" x2="6.206" y1="127.976" y2="115.406" gradientUnits="userSpaceOnUse"><stop offset="0" stop-color="#e7598c"/><stop offset="1" stop-color="#c14778"/></linearGradient><linearGradient id="7J2mCYQYP-DNZy7_9a4h_g" x1="34.534" x2="34.534" y1="241.137" y2="110.809" gradientUnits="userSpaceOnUse"><stop offset="0" stop-color="#ff7b72"/><stop offset=".291" stop-color="#f37169"/><stop offset="1" stop-color="#da5b55"/></linearGradient><linearGradient id="7J2mCYQYP-DNZy7_9a4h_f" x1="62.633" x2="124.327" y1="229.734" y2="232.4" gradientUnits="userSpaceOnUse"><stop offset="0" stop-color="#91a3be"/><stop offset="1" stop-color="#6f839b"/></linearGradient><linearGradient id="7J2mCYQYP-DNZy7_9a4h_e" x1="132.931" x2="61.883" y1="242.03" y2="235.852" gradientUnits="userSpaceOnUse"><stop offset="0" stop-color="#6f6f81"/><stop offset="1" stop-color="#555568"/></linearGradient><linearGradient id="7J2mCYQYP-DNZy7_9a4h_h" x1="129.271" x2="120.26" y1="177.534" y2="233.648" xlink:href="#7J2mCYQYP-DNZy7_9a4h_a"/><linearGradient id="7J2mCYQYP-DNZy7_9a4h_b" x1="129.552" x2="128.79" y1="254.918" y2="339.08" gradientUnits="userSpaceOnUse"><stop offset="0" stop-color="#91a3d2"/><stop offset="1" stop-color="#6f83af"/></linearGradient><linearGradient id="7J2mCYQYP-DNZy7_9a4h_i" x1="212.183" x2="211.421" y1="255.665" y2="339.828" xlink:href="#7J2mCYQYP-DNZy7_9a4h_b"/><linearGradient id="7J2mCYQYP-DNZy7_9a4h_k" x1="202.733" x2="201.971" y1="255.58" y2="339.742" xlink:href="#7J2mCYQYP-DNZy7_9a4h_b"/><linearGradient id="7J2mCYQYP-DNZy7_9a4h_l" x1="138.956" x2="138.195" y1="255.003" y2="339.165" xlink:href="#7J2mCYQYP-DNZy7_9a4h_b"/><linearGradient id="7J2mCYQYP-DNZy7_9a4h_m" x1="231.76" x2="242.409" y1="162.153" y2="230.144" xlink:href="#7J2mCYQYP-DNZy7_9a4h_a"/><linearGradient id="7J2mCYQYP-DNZy7_9a4h_n" x1="255.571" x2="283.028" y1="284.665" y2="284.665" xlink:href="#7J2mCYQYP-DNZy7_9a4h_a"/><linearGradient id="7J2mCYQYP-DNZy7_9a4h_o" x1="169.977" x2="170.746" y1="290.427" y2="350.968" xlink:href="#7J2mCYQYP-DNZy7_9a4h_d"/><linearGradient id="7J2mCYQYP-DNZy7_9a4h_p" x1="176.377" x2="176.634" y1="181.57" y2="246.697" xlink:href="#7J2mCYQYP-DNZy7_9a4h_e"/><linearGradient id="7J2mCYQYP-DNZy7_9a4h_r" x1="122.486" x2="125.532" y1="90.031" y2="218.369" xlink:href="#7J2mCYQYP-DNZy7_9a4h_b"/><linearGradient id="7J2mCYQYP-DNZy7_9a4h_s" x1="160.684" x2="156.588" y1="66.356" y2="134.347" gradientUnits="userSpaceOnUse"><stop offset="0" stop-color="#ffcfb1"/><stop offset=".644" stop-color="#f1a37a"/><stop offset="1" stop-color="#ea8e61"/></linearGradient><linearGradient id="7J2mCYQYP-DNZy7_9a4h_t" x1="249.398" x2="252.825" y1="199.661" y2="264.782" xlink:href="#7J2mCYQYP-DNZy7_9a4h_f"/><linearGradient id="7J2mCYQYP-DNZy7_9a4h_u" x1="32.146" x2="39.179" y1="200.997" y2="255.151" xlink:href="#7J2mCYQYP-DNZy7_9a4h_a"/><linearGradient id="7J2mCYQYP-DNZy7_9a4h_v" x1="33.542" x2="35.292" y1="111.089" y2="30.598" gradientUnits="userSpaceOnUse"><stop offset="0" stop-color="#e9f4ff"/><stop offset="1" stop-color="#fcffff"/></linearGradient><linearGradient id="7J2mCYQYP-DNZy7_9a4h_x" x1="166.572" x2="169.619" y1="88.985" y2="217.322" xlink:href="#7J2mCYQYP-DNZy7_9a4h_b"/><linearGradient id="7J2mCYQYP-DNZy7_9a4h_y" x1="40.962" x2="38.98" y1="19.073" y2="106.293" xlink:href="#7J2mCYQYP-DNZy7_9a4h_b"/><linearGradient id="7J2mCYQYP-DNZy7_9a4h_z" x1="190.896" x2="164.259" y1="28.576" y2="64.989" xlink:href="#7J2mCYQYP-DNZy7_9a4h_f"/><linearGradient id="7J2mCYQYP-DNZy7_9a4h_A" x1="191.506" x2="162.621" y1="29.613" y2="71.722" xlink:href="#7J2mCYQYP-DNZy7_9a4h_e"/><linearGradient id="7J2mCYQYP-DNZy7_9a4h_C" x1="225.953" x2="229" y1="87.575" y2="215.913" xlink:href="#7J2mCYQYP-DNZy7_9a4h_b"/><linearGradient id="7J2mCYQYP-DNZy7_9a4h_E" x1="264.953" x2="263.666" y1="188.965" y2="270.31" xlink:href="#7J2mCYQYP-DNZy7_9a4h_e"/><linearGradient id="7J2mCYQYP-DNZy7_9a4h_F" x1="171.411" x2="166.481" y1="55.625" y2="347.324" gradientUnits="userSpaceOnUse"><stop offset="0" stop-color="#444456"/><stop offset="1" stop-color="#363644"/></linearGradient><radialGradient id="7J2mCYQYP-DNZy7_9a4h_c" cx="217.858" cy="268.959" r="37.963" gradientUnits="userSpaceOnUse"><stop offset="0" stop-color="#fff"/><stop offset="1" stop-color="#d4e2ff"/></radialGradient><radialGradient id="7J2mCYQYP-DNZy7_9a4h_j" cx="113.553" cy="273.481" r="42.71" xlink:href="#7J2mCYQYP-DNZy7_9a4h_c"/><radialGradient id="7J2mCYQYP-DNZy7_9a4h_q" cx="118.684" cy="107.935" r="51.974" xlink:href="#7J2mCYQYP-DNZy7_9a4h_c"/><radialGradient id="7J2mCYQYP-DNZy7_9a4h_w" cx="143.999" cy="172.772" r="42.79" xlink:href="#7J2mCYQYP-DNZy7_9a4h_c"/><radialGradient id="7J2mCYQYP-DNZy7_9a4h_B" cx="225.626" cy="110.776" r="36.032" xlink:href="#7J2mCYQYP-DNZy7_9a4h_c"/><radialGradient id="7J2mCYQYP-DNZy7_9a4h_D" cx="142.668" cy="251.998" r="52.466" xlink:href="#7J2mCYQYP-DNZy7_9a4h_c"/></defs><path fill="url(#7J2mCYQYP-DNZy7_9a4h_a)" d="M204.661,250.149s64.638,25.264,83.574-33.033c4.015-12.36,3.373-23.321,2.025-33.65a91.709,91.709,0,0,0-6.779-24.082c-7.2-16.845-19.95-57.86,14.086-80.348,0,0-18.664,30.409,11.277,79.362,0,0,41.216,59.205-10.888,121.542-21.721,25.987-47.7,32.686-70.619,31.661Z"/><path fill="#c46e54" d="M323.323,198.294C318.036,214.007,307,229.407,284,227.428c-22.818,44.807-79.339,22.721-79.339,22.721L227.337,311.6c22.916,1.025,48.9-5.674,70.619-31.661C323.06,249.907,326.5,220.6,323.323,198.294Z"/><path fill="#933e65" d="M35.862,110.619s5.125,17.046,28.453,38.232a24.623,24.623,0,0,1,7.036,11.071,111.643,111.643,0,0,1,4.019,20.466,20.494,20.494,0,0,0,2.51,8.082,19.25,19.25,0,0,0,6.681,6.9s-23.257-.237-29.6-30.656a63.855,63.855,0,0,0-3.823-12.44c-2.221-5.111-5.664-11.395-10.52-15.962Z"/><polygon fill="url(#7J2mCYQYP-DNZy7_9a4h_d)" points="41.73 107.122 26.235 107.122 26.235 139.07 41.73 138.657 41.73 107.122"/><path fill="#933e65" d="M39.163,124.2a8.029,8.029,0,0,1-8.029,8.029h-4.9v10.058l16.6-3.629V107.122H39.511l-.348.178Z"/><rect width="14.546" height="6.89" x="26.235" y="119.836" fill="#933e65"/><rect width="16.598" height="191.469" x="26.235" y="138.657" fill="url(#7J2mCYQYP-DNZy7_9a4h_g)"/><polygon fill="#c84343" points="26.235 266.456 42.833 276.65 42.833 232.489 26.235 232.953 26.235 266.456"/><path fill="url(#7J2mCYQYP-DNZy7_9a4h_f)" d="M104.446,217.116s-25.147,1.835-45.459,2.075l-1.118,22.764,54.165,4.339,4.457-19.579Z"/><path fill="url(#7J2mCYQYP-DNZy7_9a4h_e)" d="M104.788,240.893l-35.873-4.306a9.682,9.682,0,0,1-8.4-8.052l-1.527-9.345c-4.965.059-9.643.023-13.592-.16v26.294s56.917,14.848,91.872,11.136l.63-12.686-21.406-17.059a80.425,80.425,0,0,1-5.472,11.167A6.356,6.356,0,0,1,104.788,240.893Z"/><path fill="url(#7J2mCYQYP-DNZy7_9a4h_h)" d="M126.4,150.857s-18.547,24.874-21.952,66.259c0,0,12.1,21.093,33.359,25.213l7.334-70.676S142.07,149.809,126.4,150.857Z"/><path fill="#c46e54" d="M126.4,150.857a95.542,95.542,0,0,0-8.554,15.11l4.047,1.337a4.465,4.465,0,0,1,3.07,4.068c.343,9,.362,35.89-9.886,58.678,5.578,5.218,13.237,10.44,22.73,12.279l7.334-70.676S142.07,149.809,126.4,150.857Z"/><path fill="url(#7J2mCYQYP-DNZy7_9a4h_b)" d="M115.846,286.9a213.493,213.493,0,0,0-7.048,43.231h40.147V300.991Z"/><path fill="url(#7J2mCYQYP-DNZy7_9a4h_i)" d="M189.411,291.3h39.205s6.167,20.607,5.286,38.826H189.411Z"/><path fill="url(#7J2mCYQYP-DNZy7_9a4h_c)" d="M188.667,296.2s3.795,10.229,25,19.91c0,0,8.025-4.127,14.157-15.843A21.772,21.772,0,0,0,229.1,283.15a212.619,212.619,0,0,0-17.96-39.376L187.023,267.52Z"/><path fill="url(#7J2mCYQYP-DNZy7_9a4h_j)" d="M156.7,293.624s-6.576,14.263-26.486,22.483A52.36,52.36,0,0,1,113.8,299.083a17.876,17.876,0,0,1-1.568-14.7c3.14-9.533,9.588-26.591,17.984-35.5L156.7,272.634Z"/><path fill="url(#7J2mCYQYP-DNZy7_9a4h_k)" d="M218.32,257.054c-2.131-4.343-4.521-8.827-7.186-13.28l-24.111,23.745,1.49,25.985.9.61Z"/><path fill="url(#7J2mCYQYP-DNZy7_9a4h_l)" d="M120.861,263.1c9.019,9.9,26.264,24.729,26.264,24.729v.664l9.577-2.916v-12.94l-26.486-23.746A61.476,61.476,0,0,0,120.861,263.1Z"/><path fill="url(#7J2mCYQYP-DNZy7_9a4h_m)" d="M211.092,187.82s22.468,17.092,32.606,35.946l18.357-25.808S252.74,167.27,236.574,144.8H208.626Z"/><path fill="#c46e54" d="M245.673,159.408a140.752,140.752,0,0,0-9.1-14.606H208.626l2.466,43.018a163.567,163.567,0,0,1,15.891,14.269C226.367,174.777,239.007,163.46,245.673,159.408Z"/><path fill="url(#7J2mCYQYP-DNZy7_9a4h_n)" d="M255.571,273.7a133.09,133.09,0,0,1,.648,19.162,14.676,14.676,0,0,0,8.749,13.994,46.9,46.9,0,0,0,16.713,3.782S288,285.25,273.275,258.7A29.13,29.13,0,0,0,255.571,273.7Z"/><path fill="url(#7J2mCYQYP-DNZy7_9a4h_o)" d="M147.125,269.093v61.033h45.881v-65.44S175.639,278.684,147.125,269.093Z"/><path fill="url(#7J2mCYQYP-DNZy7_9a4h_p)" d="M217.813,150.857v33.306a33.306,33.306,0,0,1-5.483,18.308l-5.554,8.443a33.306,33.306,0,0,0-5.483,18.308v13.813L168.8,275.413l-32.595-33.369s-3.965-30.4,2.313-56.5Z"/><path fill="url(#7J2mCYQYP-DNZy7_9a4h_q)" d="M142.927,126.427c-9.4,1.378-28.56,3.181-47.745-1.037a68.644,68.644,0,0,0,2.857,12.115,24.086,24.086,0,0,0,17.036,13.97l24.9-3.078Z"/><path fill="url(#7J2mCYQYP-DNZy7_9a4h_r)" d="M142.927,126.427a44.558,44.558,0,0,1-9.988,18.347,11.264,11.264,0,0,1-9.762,3.572l-11.07-1.371a16.519,16.519,0,0,1-7.979-3.23,29.515,29.515,0,0,1-6.089-6.24,53.07,53.07,0,0,0,3.385,8.033,21.359,21.359,0,0,0,12.382,10.243l16.835,2.617,6.342,14.241c7.751-12.476,12.492-27.055,11.914-47.249C148.9,125.39,146.693,125.874,142.927,126.427Z"/><path fill="url(#7J2mCYQYP-DNZy7_9a4h_s)" d="M118.033,90.328l-1.86,14.054a7.456,7.456,0,0,1-2.036,4.208l-2.78,2.87a1.089,1.089,0,0,0,.5,1.813c5.417,1.4,22.3,4.7,37.521-3.424l27.9,48.549,26.506-29.411s-18.957-32.431-18.028-70.16l-35.38,3.559c-6.69,6.585-17.7,16.546-29.243,23.281A6.358,6.358,0,0,0,118.033,90.328Z"/><path fill="#ffdac4" d="M177.28,158.4,176.1,138.611a10.074,10.074,0,0,1-.364-6.067l-.763-12.738a11.821,11.821,0,0,1-.41-6.86L173.2,90.189c-8.887,13.144-23.071,20.48-23.813,19.66a162.308,162.308,0,0,1-2.336,22.746,9.945,9.945,0,0,1-1.08,5.884c-.669,3.353-1.471,6.886-2.429,10.536l23.149,21.138Z"/><path fill="#c46e54" d="M196.281,112.955c-2.2,6.959-9.025,25.284-23.2,38.134l4.2,7.309,26.506-29.411A130.344,130.344,0,0,1,196.281,112.955Z"/><path fill="#d5a392" d="M165.3,157.03l-20.949-11.261-.049.2.906,4.576,21.475,19.61L177.28,158.4l-.646-10.795A58.5,58.5,0,0,1,165.3,157.03Z"/><path fill="url(#7J2mCYQYP-DNZy7_9a4h_t)" d="M238.068,218.26a186.377,186.377,0,0,1,18.463-23.473c11.8,27.9,12.886,51.841-3.022,69.519-2.344-8.921-6.948-22.591-15.1-33.765A10.721,10.721,0,0,1,238.068,218.26Z"/><rect width="30.449" height="41.946" x="20.581" y="208.204" fill="url(#7J2mCYQYP-DNZy7_9a4h_u)" rx="10.409"/><path fill="url(#7J2mCYQYP-DNZy7_9a4h_v)" d="M34.534,15.153S23.221,34.3,15.709,65.477c0,0,10.526,15.024,10.526,41.645h16.6c0-26.621,10.526-41.645,10.526-41.645C45.847,34.3,34.534,15.153,34.534,15.153Z"/><path fill="#c46e54" d="M146.02,84.387a2.953,2.953,0,0,1-1.574-5.453l2.221-1.4a2.952,2.952,0,1,1,3.143,5l-2.221,1.4A2.937,2.937,0,0,1,146.02,84.387Z"/><path fill="#d5a392" d="M174.969,119.806l-.249-4.177-.161-2.683c-8.028,6.322-20.182,6.52-25.723,5.874-.134,1.461-.3,3.08-.51,4.825a50.046,50.046,0,0,0,8.254.693A36.437,36.437,0,0,0,174.969,119.806Z"/><path fill="#d5a392" d="M147.045,132.594c-.315,1.886-.674,3.852-1.08,5.884a49.233,49.233,0,0,0,15.158,2.341,52.761,52.761,0,0,0,14.973-2.208l-.364-6.066A45.74,45.74,0,0,1,147.045,132.594Z"/><path fill="url(#7J2mCYQYP-DNZy7_9a4h_w)" d="M196.271,134.4c-13.1,16.933-31.408,27.913-31.408,27.913h0l-20.1-18.273c-3.961,12.891-7.993,28.91-10.036,37.275,2.454,7.093,8.737,13.167,16.913,18.739,13.459,6.087,27.661.367,42.109-9.264C199.015,176,198.955,156.388,196.271,134.4Z"/><path fill="url(#7J2mCYQYP-DNZy7_9a4h_x)" d="M198.849,191.869a14.306,14.306,0,0,0,4.406-11.527l-3.6-50.639c-1.074,1.612-2.212,3.174-3.387,4.694-1.366,13.014-1.309,29.6-1.138,38.754a16.728,16.728,0,0,1-5.469,12.7,63.755,63.755,0,0,1-28.011,14.824,52.766,52.766,0,0,1-26.917-19.364c-.044.183-.093.383-.136.558a10.18,10.18,0,0,0,2.447,9.4,115.173,115.173,0,0,0,28.1,21.863C180.722,207.516,193.309,197.14,198.849,191.869Z"/><path fill="url(#7J2mCYQYP-DNZy7_9a4h_y)" d="M25.734,97.242a96.992,96.992,0,0,1,.5,9.88h16.6c0-26.621,10.526-41.645,10.526-41.645C45.847,34.3,34.534,15.153,34.534,15.153V79.531a20.289,20.289,0,0,1-4.96,13.291C28.348,94.237,27.017,95.77,25.734,97.242Z"/><path fill="#c46e54" d="M185.758,58.827,164.1,61.006l-7.46,6.614c.185.2,11.871,11.917,29.65,5.259A115.9,115.9,0,0,1,185.758,58.827Z"/><path fill="url(#7J2mCYQYP-DNZy7_9a4h_z)" d="M197.814,17.609c.168,2.872.356,6.85.408,10.861-5.53,27.977-19.733,38.179-43.376,29.031A140.534,140.534,0,0,1,177.36,39.383a27.585,27.585,0,0,0,5.536-5.056A116.774,116.774,0,0,0,195.55,17.089,1.21,1.21,0,0,1,197.814,17.609Z"/><path fill="#d5a392" d="M173.2,90.189c-9.523,12.441-23.813,19.66-23.813,19.66s-.021,2.052-.273,5.614C170.217,107.077,173.2,90.189,173.2,90.189Z"/><path fill="url(#7J2mCYQYP-DNZy7_9a4h_A)" d="M198.221,28.47c-.3,1-.653,2.061-1.055,3.166a7.405,7.405,0,0,1-7.739,4.835,13.141,13.141,0,0,1-6.347-2.356l-.184.212a31.416,31.416,0,0,1-4.045,3.971c2.069,1.689,7.1,4.035,12.955,4.175a38.792,38.792,0,0,1-5.893,7.072,10.645,10.645,0,0,1-10.658,2.3,26.661,26.661,0,0,1-8.612-4.774c-1.676,1.315-3.216,2.584-4.626,3.792a32.613,32.613,0,0,0,10.344,6.226,40.292,40.292,0,0,1-17.514.408,64.722,64.722,0,0,0-4.469,4.884c2.781,3.51,8.036,6,8.036,6,16.769,5.325,37.009-6,39.126-28.29C197.54,40.092,198.247,30.448,198.221,28.47Z"/><path fill="#fff" d="M162.514,165.705c-3.406,8.325-8.167,25.466.343,43.293a.9.9,0,0,0,1.707-.484,181.341,181.341,0,0,1-.335-42.357A.9.9,0,0,0,162.514,165.705Z"/><path fill="url(#7J2mCYQYP-DNZy7_9a4h_B)" d="M208.078,155.693c20.848-6.064,39.812-14.064,45.963-35.237.577-3.388,1.1-7.163,1.53-11.325,0,0-21.128,13.923-51.046,11.825C202.336,132.555,203.655,144.133,208.078,155.693Z"/><path fill="url(#7J2mCYQYP-DNZy7_9a4h_C)" d="M254.04,120.455a54.594,54.594,0,0,1-5.271,9,33.147,33.147,0,0,1-15.718,11.581l-15.914,5.673a5.5,5.5,0,0,1-6.274-1.975c-6.354-8.678-6.54-19.585-6.337-23.791-1.657-.116-3.334-.27-5.043-.489a518.1,518.1,0,0,0,3.142,52.183L212.952,158.4l27.913-12.157a20.02,20.02,0,0,0,10.244-12.492A132.185,132.185,0,0,0,254.04,120.455Z"/><path fill="#933e65" d="M147.125,269.093v18.733l45.881,35.715V264.686S175.638,278.684,147.125,269.093Z"/><path fill="url(#7J2mCYQYP-DNZy7_9a4h_D)" d="M126.451,223.766,168.8,267.241l44.869-43.475v18.021a14.432,14.432,0,0,1-3.25,9.136,363.465,363.465,0,0,1-41.195,42.7S144.6,271.305,127.479,250.7a14.472,14.472,0,0,1-3.2-11.233Z"/><path fill="url(#7J2mCYQYP-DNZy7_9a4h_E)" d="M253.507,264.306c1.482,5.643,2.063,9.391,2.063,9.391l17.7-15c4.482-34.424-6.274-74.039-6.274-74.039a137.52,137.52,0,0,0-10.464,10.136C259.442,205.7,267.087,240.6,253.507,264.306Z"/><path fill="#fff" d="M168.9,270.246c-.563,4.375-1.287,12.794.143,20.3a.6.6,0,0,1-1.106.4,21.217,21.217,0,0,1-.169-21.04A.6.6,0,0,1,168.9,270.246Z"/><path fill="url(#7J2mCYQYP-DNZy7_9a4h_F)" d="M212.241,319.241a3.447,3.447,0,0,0,3.006-.07c.323-.167,7.123-3.754,13.226-13.189a109.8,109.8,0,0,1,1.988,23.978c0,.056.008.11.008.166h6.88c.549-11.909-1.715-24.614-3.718-33.193a3.438,3.438,0,0,0-.527-1.174,25.467,25.467,0,0,0-.748-13.72,228.26,228.26,0,0,0-9.7-23.945,91.19,91.19,0,0,0,12.792.937,72.687,72.687,0,0,0,12.594-1.056,117.389,117.389,0,0,1,4.121,16.2,131.017,131.017,0,0,1,.619,18.532,18.056,18.056,0,0,0,3.836,11.82,78.129,78.129,0,0,1-8.21,2.12,3.445,3.445,0,0,0,.669,6.824,3.408,3.408,0,0,0,.677-.067,84.6,84.6,0,0,0,13.135-3.743c.229.113.453.233.687.336a50.451,50.451,0,0,0,17.933,4.074c.06,0,.119,0,.178,0a3.445,3.445,0,0,0,3.342-2.613A66.677,66.677,0,0,0,286.5,296.1a101.9,101.9,0,0,0,14.1-13.947c27.756-33.207,29.316-65.6,25.737-86.927-3.761-22.416-13.626-37.275-14.6-38.7-28.281-46.3-11.933-74.517-11.231-75.684a3.446,3.446,0,0,0-4.836-4.677c-36.241,23.945-22.811,67.124-15.355,84.577a88.388,88.388,0,0,1,6.53,23.174c1.473,11.277,1.716,21.058-1.885,32.139A62.169,62.169,0,0,1,277.6,231.53a247.637,247.637,0,0,0-7.27-47.777,3.446,3.446,0,0,0-5.58-1.7c-1.2,1.036-2.361,2.1-3.509,3.169-3.605-9.443-9.693-23.648-17.825-36.44a23.537,23.537,0,0,0,11.016-14.106A151.946,151.946,0,0,0,259,109.482a3.447,3.447,0,0,0-5.319-3.23c-.222.145-22.011,14.134-51.861,11-4.789-10.826-12-30.622-12.6-52.729a30.47,30.47,0,0,0,4.144-5.333,72.288,72.288,0,0,0,5.419-11,40.838,40.838,0,0,0,2.847-13.778c.291-9.155-.622-20.863-.66-21.357a3.445,3.445,0,0,0-6.55-1.2c-3.606,7.637-10.392,15.945-14.116,20.217a24.029,24.029,0,0,1-4.829,4.439c-17.522,11.5-26.378,22-27.645,23.562-6.319,6.209-18.621,17.455-31,24.064a3.443,3.443,0,0,0-1.793,2.586l-2.453,18.527-4.969,5.131a3.444,3.444,0,0,0,1.391,5.667,61.428,61.428,0,0,0,17.794,2.553,53.357,53.357,0,0,0,18.862-3.291c-.144,1.992-.361,4.462-.69,7.318-8.155,1.38-28.517,3.919-49.051-.594a3.445,3.445,0,0,0-4.159,3.776,68.889,68.889,0,0,0,6.619,21.35,24.66,24.66,0,0,0,14.371,11.909,3.5,3.5,0,0,0,.526.124l3.783.588a151.5,151.5,0,0,0-15.775,54.108c-7.907.531-30.361,1.929-47.1,1.889a13.9,13.9,0,0,0-7.9-9.791V134.763A143.467,143.467,0,0,0,62,151.4a21.2,21.2,0,0,1,6.055,9.521,108.8,108.8,0,0,1,3.891,19.831,24.583,24.583,0,0,0,2.094,7.786c-5.952-3.455-12.766-10.435-15.7-24.53a73.982,73.982,0,0,0-2.276-8.516,3.445,3.445,0,0,0-6.531,2.195,66.9,66.9,0,0,1,2.061,7.727c6.829,32.754,32.677,33.4,32.936,33.4h.036a3.445,3.445,0,0,0,1.792-6.387,15.738,15.738,0,0,1-5.487-5.676,16.977,16.977,0,0,1-2.07-6.728,115.686,115.686,0,0,0-4.148-21.1A28.089,28.089,0,0,0,66.631,146.3,126.931,126.931,0,0,1,46.5,123.469c-.067-.1-.226-16.347-.226-16.347,0-25.076,9.808-39.533,9.9-39.668a3.443,3.443,0,0,0,.527-2.784C49.162,33.355,37.973,14.2,37.5,13.4a3.446,3.446,0,0,0-5.932,0c-.472.8-11.663,19.955-19.208,51.27a3.471,3.471,0,0,0,.522,2.776c.1.143,9.908,14.6,9.908,39.676v100.35a13.827,13.827,0,0,0-5.654,11.141v21.128a13.826,13.826,0,0,0,5.654,11.14v79.245h6.89v-76.6c.432.041.868.066,1.31.066h8.4v76.532h6.89V252.374a13.858,13.858,0,0,0,3.64-2.392c11.239,2.665,36.87,8.243,61.161,9.988.085.006.167.008.251.008a3.445,3.445,0,0,0,.243-6.881c-22.243-1.6-45.711-6.494-57.714-9.269a13.8,13.8,0,0,0,.616-4.087V222.66h.3c17.551,0,40.863-1.49,47.858-1.965a66.092,66.092,0,0,0,18.238,18.283l0,.013a17.969,17.969,0,0,0,2.881,12.453c-6.961,9.865-12.217,24.062-14.786,31.862a21.344,21.344,0,0,0,.608,15,220.826,220.826,0,0,0-4.209,31.623c0,.066.008.127.008.192h6.883a208.092,208.092,0,0,1,2.719-23.3,54.554,54.554,0,0,0,13.5,12.247,3.443,3.443,0,0,0,3.065.217,63.957,63.957,0,0,0,12.149-6.61v17.445h6.89V280.571c9.15,9.072,16.211,15.486,16.342,15.606a3.447,3.447,0,0,0,4.571.05c6.518-5.651,12.615-11.475,18.078-17.008v50.907h6.89V309.975A81.146,81.146,0,0,0,212.241,319.241ZM19.4,64.87A215.259,215.259,0,0,1,34.536,22.565,214.772,214.772,0,0,1,49.664,64.87c-2.509,4.177-9.517,17.649-10.219,38.807H29.623C28.92,82.519,21.913,69.047,19.4,64.87ZM29.68,135.212V110.567h9.708v24.645Zm9.708,6.89v62.657h-8.4c-.442,0-.878.025-1.31.066V142.1Zm8.2,97.639a6.972,6.972,0,0,1-6.964,6.963H30.99a6.972,6.972,0,0,1-6.964-6.963V218.613a6.972,6.972,0,0,1,6.964-6.964h9.631a6.972,6.972,0,0,1,6.964,6.964ZM225.834,284.26a18.4,18.4,0,0,1-1.058,14.407,38,38,0,0,1-11.349,13.523c-8.67-4.157-13.927-8.29-16.976-11.3V272.056c7.38-7.876,13.052-14.582,16.241-18.469A216.135,216.135,0,0,1,225.834,284.26Zm51.977-41.929c5.935-6.322,10.547-14.441,13.7-24.151,4.234-13.035,3.542-24.6,2.164-35.16a95.3,95.3,0,0,0-7.027-24.989c-5.976-13.987-16.26-46.093,3.265-67.946-3.1,13.83-3.536,38.183,15.99,70.11.035.056.072.114.11.168a97.905,97.905,0,0,1,13.575,36.287c4.753,28.844-3.415,56.123-24.276,81.081a97.824,97.824,0,0,1-9.336,9.742,81.35,81.35,0,0,0-9.155-29.446A144.244,144.244,0,0,0,277.811,242.331Zm1.041,64.623a42.023,42.023,0,0,1-12.488-3.251,11.292,11.292,0,0,1-6.7-10.7,137.677,137.677,0,0,0-.478-17.854L272.2,264.123A75.993,75.993,0,0,1,278.852,306.954Zm-13.839-115.84c2.614,11.656,7.906,39.665,5.1,64.986a32.85,32.85,0,0,0-12.836,8.991c-2.255-9.095-7.045-24.189-16.091-36.581a7.232,7.232,0,0,1-.249-8.342h0A176.185,176.185,0,0,1,265.013,191.114Zm-9.151-.605a184.488,184.488,0,0,0-16.729,20.168,131.932,131.932,0,0,0-10.013-11.333,3.445,3.445,0,0,0-4.91,4.834,120.533,120.533,0,0,1,10.81,12.47,14.243,14.243,0,0,0,.6,15.925,85,85,0,0,1,10.043,18.8,79.455,79.455,0,0,1-26.827-.911q-1.107-2.1-2.291-4.215a17.925,17.925,0,0,0,.57-4.464V223.766a3.444,3.444,0,0,0-5.842-2.474l-6.475,6.274a29.771,29.771,0,0,1,4.854-14.759l5.555-8.443a36.652,36.652,0,0,0,6.05-20.2V158.538l15.8-6.883C246.021,165.509,252.508,181.375,255.862,190.509Zm-4.52-75.131a136.7,136.7,0,0,1-3.55,17.445,16.632,16.632,0,0,1-8.4,10.3l-27.816,12.114a3.451,3.451,0,0,0-1.414,1.136l-5.055,6.973c-1.565-16.635-2.008-32.109-2.132-39.055A93.96,93.96,0,0,0,251.342,115.378Zm-44.654,64.683-.525-6.43,8.2-11.316v21.847a29.775,29.775,0,0,1-4.916,16.415l-5.555,8.444a36.659,36.659,0,0,0-6.049,20.2V234.3l-28.977,28.076-30.113-30.913a183.983,183.983,0,0,1,.894-32.729,114.931,114.931,0,0,0,23.922,17.471,3.448,3.448,0,0,0,2.732.171c17.612-6.35,31.179-18.454,34.917-22.012A17.672,17.672,0,0,0,206.688,180.061Zm-27.437-137.8a30.661,30.661,0,0,0,6.242-5.672,137.942,137.942,0,0,0,9.2-11.743c.1,3.074.139,6.374.045,9.339a33.984,33.984,0,0,1-2.367,11.46,65.291,65.291,0,0,1-4.9,9.952c-5.6,9.19-16.694,13.438-26.371,10.1a17.423,17.423,0,0,1-6.217-3.242A131.068,131.068,0,0,1,179.251,42.263ZM116.8,110.793l1.525-1.574a3.445,3.445,0,0,0,.941-1.945l2.373-17.925c10.68-6,20.951-14.753,28.483-21.923a23.773,23.773,0,0,0,8.735,4.783,27.61,27.61,0,0,0,9.014,1.5,29.488,29.488,0,0,0,14.7-4c1.53,22.024,8.83,41.241,13.471,51.5.01,1.19.043,3.754.136,7.308a3.328,3.328,0,0,0-.336.4,99.17,99.17,0,0,1-15.819,17.653l-3.314-55.35,1.537-2.1a3.445,3.445,0,1,0-5.558-4.072l-2.238,3.057c-8.906,11.627-22.488,18.6-22.622,18.666-.014.008-.026.017-.041.025s-.018.006-.027.011C136.421,112.858,123.858,112.012,116.8,110.793ZM173.45,152.07c-3.438,2.687-6.365,4.711-8.213,5.927l-16.666-15.153a184.084,184.084,0,0,0,4.2-30.915,85.977,85.977,0,0,0,17.489-13.218Zm-27.2-.932a3.431,3.431,0,0,0,.42-.711l15.876,14.436a3.444,3.444,0,0,0,4.071.416,127.549,127.549,0,0,0,29.952-25.888c.431,9.527,1.212,21.577,2.627,33.574l.625,7.657a10.815,10.815,0,0,1-3.348,8.751c-3.389,3.226-15.416,13.966-31.065,19.985a115.761,115.761,0,0,1-25.861-20.45,6.706,6.706,0,0,1-1.6-6.219c.569-2.337,1.291-5.262,2.121-8.542a3.449,3.449,0,0,0,.35-1.377C142.078,166.229,144.127,158.472,146.25,151.138Zm-31.636,1.282a17.776,17.776,0,0,1-10.146-8.5,58.139,58.139,0,0,1-5-14.191c18.3,3.111,35.691,1.362,44.537.018-.632,4.095-1.473,8.638-2.585,13.447-1.843,6.009-3.692,12.651-5.357,18.913L133.789,157a3.445,3.445,0,0,0-2.619-2Zm8.424,70.873-1.109,8.017a61.3,61.3,0,0,1-13.953-15.036,143.67,143.67,0,0,1,16.291-55.381l3.991.621,5.034,11.306c-.8,3.152-1.492,5.973-2.044,8.238a13.58,13.58,0,0,0,2.356,11.457,172.647,172.647,0,0,0-2.029,31.574l-2.657-2.727a3.445,3.445,0,0,0-5.88,1.931Zm20.642,50.4v30.312a54.92,54.92,0,0,1-13.114,8.2,50.191,50.191,0,0,1-13.8-14.878,14.424,14.424,0,0,1-1.26-11.865c2.311-7.016,6.881-19.438,12.8-28.473,4.931,5.689,10.278,11.4,15.381,16.639C143.686,273.652,143.68,273.674,143.68,273.7Zm25.6,15.3c-6.451-5.99-25.377-23.911-39.154-40.5a11.053,11.053,0,0,1-2.439-8.559l1.207-8.722,37.437,38.43a3.447,3.447,0,0,0,4.865.071L210.226,231.9v9.886a11.026,11.026,0,0,1-2.473,6.957A366.408,366.408,0,0,1,169.283,288.993Z"/></svg>