<svg xmlns="http://www.w3.org/2000/svg" xmlns:xlink="http://www.w3.org/1999/xlink" viewBox="0 0 340 340" width="500px" height="500px"><defs><linearGradient id="2zrAo8lSkUJ2u5gqCQGGga" x1="29.548" x2="151.987" y1="62.296" y2="98.932" gradientUnits="userSpaceOnUse"><stop offset="0" stop-color="#758090"/><stop offset="1" stop-color="#545f6a"/></linearGradient><linearGradient id="2zrAo8lSkUJ2u5gqCQGGgd" x1="332.617" x2="223.471" y1="267.017" y2="275.941" gradientUnits="userSpaceOnUse"><stop offset="0" stop-color="#e9f4ff"/><stop offset="1" stop-color="#fcffff"/></linearGradient><linearGradient id="2zrAo8lSkUJ2u5gqCQGGgb" x1="96.965" x2="104.186" y1="297.283" y2="258.469" gradientUnits="userSpaceOnUse"><stop offset="0" stop-color="#ffe1db"/><stop offset="1" stop-color="#feb5a9"/></linearGradient><linearGradient id="2zrAo8lSkUJ2u5gqCQGGge" x1="183.499" x2="178.678" y1="274.295" y2="346.601" xlink:href="#2zrAo8lSkUJ2u5gqCQGGga"/><linearGradient id="2zrAo8lSkUJ2u5gqCQGGgf" x1="176.882" x2="183.148" y1="141.153" y2="261.182" xlink:href="#2zrAo8lSkUJ2u5gqCQGGga"/><linearGradient id="2zrAo8lSkUJ2u5gqCQGGgg" x1="209.081" x2="211.963" y1="92.462" y2="69.404" xlink:href="#2zrAo8lSkUJ2u5gqCQGGgb"/><linearGradient id="2zrAo8lSkUJ2u5gqCQGGgh" x1="214.155" x2="179.93" y1="-4.774" y2="112.362" xlink:href="#2zrAo8lSkUJ2u5gqCQGGga"/><linearGradient id="2zrAo8lSkUJ2u5gqCQGGgc" x1="169.6" x2="225.455" y1="249.354" y2="292.834" gradientUnits="userSpaceOnUse"><stop offset="0" stop-color="#6f6f81"/><stop offset="1" stop-color="#555568"/></linearGradient><linearGradient id="2zrAo8lSkUJ2u5gqCQGGgi" x1="149.648" x2="84.76" y1="121.908" y2="245.085" xlink:href="#2zrAo8lSkUJ2u5gqCQGGgc"/><linearGradient id="2zrAo8lSkUJ2u5gqCQGGgj" x1="91.041" x2="94.416" y1="207.08" y2="287.1" xlink:href="#2zrAo8lSkUJ2u5gqCQGGga"/><linearGradient id="2zrAo8lSkUJ2u5gqCQGGgk" x1="288.304" x2="261.31" y1="184.216" y2="254.595" xlink:href="#2zrAo8lSkUJ2u5gqCQGGga"/><linearGradient id="2zrAo8lSkUJ2u5gqCQGGgl" x1="209.031" x2="159.863" y1="80.391" y2="162.82" xlink:href="#2zrAo8lSkUJ2u5gqCQGGga"/><linearGradient id="2zrAo8lSkUJ2u5gqCQGGgm" x1="307.19" x2="299.504" y1="128.442" y2="185.126" xlink:href="#2zrAo8lSkUJ2u5gqCQGGgb"/><linearGradient id="2zrAo8lSkUJ2u5gqCQGGgn" x1="-117.966" x2="-117.442" y1="170" y2="170" gradientUnits="userSpaceOnUse"><stop offset="0" stop-color="#444456"/><stop offset="1" stop-color="#363644"/></linearGradient></defs><path fill="#414c5b" d="M167.722,95.866S131.468,89,87.639,116.06c0,0-45.895,25.387-71.843,18.83,0,0,9.5,17.454,35.864,19.077,14.8.911,25.85-4,30.667-8.016,47.123-39.342,84.1-29.072,84.1-29.072Z"/><path fill="url(#2zrAo8lSkUJ2u5gqCQGGga)" d="M56.986,32.568S40.2,41.63,30.415,69.975A24.7,24.7,0,0,0,36.958,96.18c10.414,9.57,30.323,20.241,66.155,16.966a132.237,132.237,0,0,1,14.732-.584c1.364.028,2.873.47,4.406.139,22.417-4.848,25.372-18.751,25.372-18.751a318.747,318.747,0,0,0-35.18-.471S42.488,96.246,56.986,32.568Z"/><path fill="#485362" d="M168,121.756l-.367-23.782s-3.5-2.7-20.008-4.023A53.966,53.966,0,0,1,122.251,112.7C134.962,113.239,153.7,115.212,168,121.756Z"/><path fill="url(#2zrAo8lSkUJ2u5gqCQGGgd)" d="M218.19,265.567s71.333-2.392,103.387-5.259a34.224,34.224,0,0,1-6.571,14.151,16.319,16.319,0,0,1-11.271,5.725c-13.948,1.143-55.6,4.436-84.19,5.413Z"/><path fill="#3e3e51" d="M68.194,271.888h66.932v19.187H57.241a27.921,27.921,0,0,1-.358-9.491A11.351,11.351,0,0,1,68.194,271.888Z"/><rect width="17.547" height="42.28" x="131.794" y="260.308" fill="#3e3e51" rx="4.904"/><path fill="#3e3e51" d="M200.369,161.772s32.864,37.174,66,46.871v35.019S230,232.079,208.181,209.99Z"/><path fill="url(#2zrAo8lSkUJ2u5gqCQGGgb)" d="M87.236,267.238a59.751,59.751,0,0,1,1.333,9.456,15.424,15.424,0,0,1-3.539,10.947l-4.056,4.844A7.219,7.219,0,0,0,80.6,300.8a26.559,26.559,0,0,0,11.791,9.142,12.561,12.561,0,0,0,13.471-2.55,50.766,50.766,0,0,0,4.544-4.977,29,29,0,0,0,6.137-17.726,132.512,132.512,0,0,0-.958-18.894S102.2,252.536,87.236,267.238Z"/><path fill="url(#2zrAo8lSkUJ2u5gqCQGGge)" d="M146.639,289.577s-9.5,13.164-20.464,39.655H233.5a278.893,278.893,0,0,0-6.1-39.655Z"/><path fill="url(#2zrAo8lSkUJ2u5gqCQGGgf)" d="M161.5,117.194l-13.141,2.319a12.013,12.013,0,0,0-9.467,8.512c-1.14,3.982-2.6,9.443-4.071,15.967,8.565,44.478,17.861,86.971,36.037,105.3a88.043,88.043,0,0,0,20.935,2.269l30.893-9.6V211.288a55.65,55.65,0,0,0-8.314-29.261l-12.081-19.543,2.683-8.4Z"/><path fill="#414c5b" d="M227.4,289.577H146.639l-.029.041h0c-.289.406-2.738,3.893-6.434,10.46l0,.007h0a271,271,0,0,0-14,29.146h21.9a56.368,56.368,0,0,1,3.065-9.019,14.909,14.909,0,0,1,14.561-8.858C181.34,312.245,207.022,309.9,227.4,289.577Z"/><path fill="url(#2zrAo8lSkUJ2u5gqCQGGgg)" d="M232.305,78.471s-2.029,20.288-6.979,30.164L189.342,91.576,192.5,53.155Z"/><path fill="#414c5b" d="M175.358,236.024A23.43,23.43,0,0,1,159.1,219.813a64.292,64.292,0,0,1-2.345-14.1,30.266,30.266,0,0,1,1.978-12.416c10.812-28.021-1.721-49.308-1.721-49.308l-25.572,17.3a240.7,240.7,0,0,0-3.342,36.96,23.338,23.338,0,0,0,4.226,13.591L151.6,239.266s4.744,6.468,19.249,10.022l.007.006a88.043,88.043,0,0,0,20.935,2.269l30.893-9.6C201.244,241.966,185.222,238.784,175.358,236.024Z"/><path fill="url(#2zrAo8lSkUJ2u5gqCQGGgh)" d="M153.177,14.97s47.232-7.2,84.165,24.177a20.344,20.344,0,0,1,7,12.673,103.838,103.838,0,0,1,.176,28.208,5.981,5.981,0,0,1-8.652,4.446l-41.151-21s-.746,16.915.5,29.849L170.092,78.4l-.747-26.615-3.386-3.024a12.789,12.789,0,0,1-4.173-7.955l-.437-3.5a18,18,0,0,0-3.807-8.9C155.242,25.493,152.6,20.784,153.177,14.97Z"/><path fill="url(#2zrAo8lSkUJ2u5gqCQGGgc)" d="M171.192,243.664a154.34,154.34,0,0,0,51.489-1.7l4.721,47.611s-28.029,13.162-59.4,7.239A190.055,190.055,0,0,1,171.192,243.664Z"/><path fill="#3e3e51" d="M146.639,289.577A79.194,79.194,0,0,0,168,296.812l3.194-53.15v0a103.676,103.676,0,0,1-19.594-4.394Z"/><path fill="url(#2zrAo8lSkUJ2u5gqCQGGgi)" d="M138.613,133.137c-15.48,11.695-46.091,37.754-62.458,69.543l29.154,15.677s16.227-18.428,35.205-31.08c0,0,31.035-21.452,12.545-51.47A9.939,9.939,0,0,0,138.613,133.137Z"/><path fill="url(#2zrAo8lSkUJ2u5gqCQGGgj)" d="M68.255,196.84s25.657.178,39.993,15.878a24.683,24.683,0,0,1,6.345,15.061c.535,8.238,1.321,23.462.994,38.017,0,0-10.572-8.169-28.351,1.442C87.236,267.238,66.333,238.886,68.255,196.84Z"/><path fill="url(#2zrAo8lSkUJ2u5gqCQGGgk)" d="M286.61,164.7s-9.285,20.48-23.41,35.795a17.462,17.462,0,0,0-4.629,10.862c-.528,9.406-.2,26.888,7.433,41.8,0,0,34.176-23.12,41.213-75.138Z"/><path fill="#e78582" d="M212.642,88.679a2.944,2.944,0,0,1-1.356-.332L207.725,86.5a2.953,2.953,0,0,1,2.718-5.243l3.562,1.847a2.953,2.953,0,0,1-1.363,5.575Z"/><path fill="#3e3e51" d="M112.766,210.531c1.381-1.378,2.923-2.882,4.6-4.47-5.681-13.524-17.055-24.095-23.927-29.586q-1.846,2.306-3.636,4.687C96.57,186.607,108.051,197.339,112.766,210.531Z"/><path fill="#3e3e51" d="M103.931,164.356q-2.085,2.239-4.149,4.582c7.821,3.818,20.854,11.8,30.49,25.863,1.526-1.219,3.093-2.427,4.69-3.61A84.351,84.351,0,0,0,103.931,164.356Z"/><path fill="#3e3e51" d="M121.237,147.447q-2.185,1.951-4.444,4.054a72.73,72.73,0,0,1,23.159,36.158c.188-.127.374-.256.562-.382a42.856,42.856,0,0,0,4.425-3.694A77.649,77.649,0,0,0,121.237,147.447Z"/><path fill="#3e3e51" d="M134.023,136.689c-1.535,1.215-3.165,2.534-4.863,3.941,4.735,2.724,15.883,10.814,25.534,30.448a37.174,37.174,0,0,0,2.94-7.142C149.035,148.279,139.65,140.351,134.023,136.689Z"/><path fill="#3e3e51" d="M150.379,251.631l-.59,5.989a160.647,160.647,0,0,0,39.915,5.246,116.973,116.973,0,0,0,34.561-4.924l-.6-6.011C194.12,261.468,162.211,254.776,150.379,251.631Z"/><path fill="#3e3e51" d="M148.072,275.04,147.485,281a188.186,188.186,0,0,0,38.877,4.09,157.337,157.337,0,0,0,40.1-4.974l-.592-5.972C193.276,282.949,161.01,277.818,148.072,275.04Z"/><path fill="#414c5b" d="M169.345,51.784l.747,26.615,25.122,14.924c-1.243-12.934-.5-29.849-.5-29.849Z"/><path fill="#414c5b" d="M202.286,162.484l2.683-8.4L166.894,103.1l-5.4,14.1S172.766,140.519,202.286,162.484Z"/><path fill="url(#2zrAo8lSkUJ2u5gqCQGGgl)" d="M170.913,75.529c9.882,6.62,33.729,21.465,54.6,29.512a8.8,8.8,0,0,1,5.546,9.472c-1.4,9.661-8.29,30.319-26.093,39.567l-42.31-51.856a11.859,11.859,0,0,1-2.391-10.362,14.816,14.816,0,0,1,3-5.832,24.512,24.512,0,0,1-.495-6.386A5.243,5.243,0,0,1,170.913,75.529Z"/><path fill="#414c5b" d="M200.055,113.692a307.411,307.411,0,0,1-36.79-27.662,14.816,14.816,0,0,0-3,5.832,11.7,11.7,0,0,0,1.062,8.331c9.164,7.677,24.584,13.7,36.822,17.622A2.288,2.288,0,0,0,200.055,113.692Z"/><path fill="#414c5b" d="M286.61,164.7s-2.612,5.76-7.171,13.455c2.861,6.6,9.177,15.543,23.024,21.176a127.172,127.172,0,0,0,4.754-21.312Z"/><path fill="url(#2zrAo8lSkUJ2u5gqCQGGgm)" d="M295.563,176.752s-13.395-4.311-13.375-18.009a8.654,8.654,0,0,1,8.654-8.634h.387V127.415a5.659,5.659,0,0,1,5.659-5.659h13.789a5.658,5.658,0,0,1,5.659,5.659v21.839h0a7.857,7.857,0,0,1,7.8,8.869C322.713,168.939,317.065,184.841,295.563,176.752Z"/><rect width="5.447" height="27.697" x="301.365" y="121.756" fill="#e78582"/><path fill="#414c5b" d="M78.639,251.6a91.325,91.325,0,0,0,8.6,15.634c17.779-9.611,28.351-1.442,28.351-1.442.241-10.7-.121-21.759-.542-30.142C109.113,243.6,98.307,251.13,78.639,251.6Z"/><path fill="url(#2zrAo8lSkUJ2u5gqCQGGgn)" d="M317.658,276.658a37.642,37.642,0,0,0,7.311-15.751,3.443,3.443,0,0,0-3.7-4.03c-24.446,2.186-71.64,4.091-93.163,4.888l-1.98-19.974V228.425a192.3,192.3,0,0,0,32.736,16.2,64.222,64.222,0,0,0,4.074,10.095,3.444,3.444,0,0,0,5,1.284c1.4-.945,33.954-23.521,42.143-73.939a18.149,18.149,0,0,0,6.153-2.285c6.058-3.632,9.974-10.967,11.323-21.211a11.294,11.294,0,0,0-7.772-12.227V127.415a9.108,9.108,0,0,0-15.63-6.353,9.136,9.136,0,0,0-6.516-2.751h-.746a9.114,9.114,0,0,0-9.105,9.1v19.641a12.117,12.117,0,0,0-9.041,11.682,21.182,21.182,0,0,0,2.212,9.611c-3.715,7.127-10.908,19.638-20.287,29.808a21.03,21.03,0,0,0-2.711,3.7c-20.5-9.062-39.644-26.605-49.486-36.552a3.446,3.446,0,0,0-.725-.544l-1.7-2.743,1.783-5.584c17.685-9.963,25.066-30.589,26.64-41.43a12.171,12.171,0,0,0-3.734-10.68,117.451,117.451,0,0,0,3.8-16.682,9.481,9.481,0,0,0,8.44-.14,9.255,9.255,0,0,0,4.955-7,107.192,107.192,0,0,0-.177-29.163,23.771,23.771,0,0,0-8.184-14.821c-37.692-32.021-84.92-25.26-86.913-24.957a3.444,3.444,0,0,0-2.908,3.063c-.695,6.95,2.384,12.49,5.088,15.913a14.575,14.575,0,0,1,3.093,7.2l.437,3.5a16.231,16.231,0,0,0,5.3,10.1l2.279,2.034.5,17.977a8.753,8.753,0,0,0-2.314.776,8.629,8.629,0,0,0-4.8,7.347,29.191,29.191,0,0,0,.278,5.7,18.015,18.015,0,0,0-2.68,5.86c-.041.163-.058.33-.093.5-7.921-1.178-21.637-2.216-44.528-1.478-.3.011-31,1.014-45.84-16.848-7.914-9.525-9.973-22.934-6.121-39.856a3.445,3.445,0,0,0-5-3.8c-.733.4-18.082,10.036-28.19,39.313a28.08,28.08,0,0,0,7.468,29.867c8.219,7.553,22.058,15.789,44.267,17.936-13.623,6.61-43.772,19.572-62.254,14.9a3.445,3.445,0,0,0-3.87,4.986c.425.782,10.727,19.149,38.679,20.869q1.916.119,3.755.117c13.668,0,24.208-4.65,29.331-8.927,21.342-17.818,40.465-25.17,54.766-27.953a15.375,15.375,0,0,0-3.726,6.435c-.376,1.314-.787,2.787-1.22,4.4a3.365,3.365,0,0,0-.107.659c-13.127,10.162-40.347,33.3-57.324,62.048a64.885,64.885,0,0,0-8.646-.793h-.024a3.445,3.445,0,0,0-3.441,3.287c-1.8,39.317,15.554,66.664,19.058,71.761H68.194a14.816,14.816,0,0,0-14.725,12.68,31.449,31.449,0,0,0,.43,10.787,3.444,3.444,0,0,0,3.342,2.61H76.293a10.527,10.527,0,0,0,1.5,8.276A30.112,30.112,0,0,0,91.084,313.13a16.008,16.008,0,0,0,17.168-3.254,54.238,54.238,0,0,0,4.854-5.318,31.5,31.5,0,0,0,5.286-10.038h9.957v3.163a8.359,8.359,0,0,0,5.061,7.672c-3.1,5.987-6.668,13.5-10.419,22.559a3.447,3.447,0,0,0-.26,1.318h7.182c7.837-18.7,14.881-30.5,17.925-35.246a87.66,87.66,0,0,0,37.067,7.87,114.842,114.842,0,0,0,40.038-7.521,282.7,282.7,0,0,1,5.1,34.9h6.884c0-.08.013-.156.008-.237a279.879,279.879,0,0,0-6.127-39.976l-2.021-20.384c20.365-.757,62.7-2.468,88.1-4.477a28.206,28.206,0,0,1-4.529,8.1,12.931,12.931,0,0,1-8.9,4.489c-10.826.887-38.734,3.1-63.99,4.486a3.445,3.445,0,0,0,.186,6.885c.063,0,.128,0,.191-.006,25.339-1.389,53.321-3.609,64.176-4.5A19.859,19.859,0,0,0,317.658,276.658ZM294.674,127.415a2.217,2.217,0,0,1,2.215-2.214h.746a2.221,2.221,0,0,1,2.007,1.28l1,2.15v18.033h-5.969Zm-3.831,26.139H303.6a5.266,5.266,0,0,1-5.467,6.128h-.016a3.445,3.445,0,0,0-.015,6.89h.022c.715,0,6.165-.146,9.688-4.448,2.553-3.118,3.294-7.394,2.2-12.709a3.435,3.435,0,0,0-2.473-2.618V128.7l1.173-2.291a2.214,2.214,0,0,1,4.185,1.009v21.839a3.445,3.445,0,0,0,3.445,3.445,4.379,4.379,0,0,1,3.334,1.509,4.329,4.329,0,0,1,1.052,3.465c-.743,5.639-2.739,13.027-8.035,16.2-3.836,2.3-9.188,2.184-15.911-.346-.042-.016-.1-.036-.142-.05-.45-.15-11.016-3.786-11-14.731A5.213,5.213,0,0,1,290.843,153.554Zm-28.832,58a14.071,14.071,0,0,1,3.722-8.72c8.712-9.447,15.586-20.71,19.763-28.36A24.587,24.587,0,0,0,294.425,180a37.6,37.6,0,0,0,8.653,2.2c-6.483,37.478-27.64,58.637-35.778,65.55C261.734,234.4,261.559,219.6,262.011,211.549ZM165.2,40.378l-.437-3.5a21.46,21.46,0,0,0-4.523-10.614,16.578,16.578,0,0,1-3.617-8.2c10.682-.878,48.4-1.855,78.484,23.7A16.9,16.9,0,0,1,240.932,52.3a100.3,100.3,0,0,1,.177,27.25,2.423,2.423,0,0,1-1.314,1.843,2.543,2.543,0,0,1-2.361.013l-41.152-21-9.044-4.616a3.445,3.445,0,0,0-3.131,6.138l7.087,3.617c-.11,3.557-.266,10.885,0,18.547-8.832-5.165-15.551-9.557-17.805-11.054l-.6-21.351a3.45,3.45,0,0,0-1.149-2.473l-3.387-3.024A9.345,9.345,0,0,1,165.2,40.378Zm62.87,43.987a123.73,123.73,0,0,1-3.5,16.6,244.556,244.556,0,0,1-26.3-12.833c-.4-6.929-.367-14.288-.273-19.113Zm-64.466,8.34a11.446,11.446,0,0,1,2.316-4.485,3.46,3.46,0,0,0,.691-2.993,21.5,21.5,0,0,1-.405-5.4,1.8,1.8,0,0,1,1.007-1.547,1.827,1.827,0,0,1,.807-.2,1.714,1.714,0,0,1,.971.31c5.023,3.364,31.29,20.615,55.282,29.864a5.329,5.329,0,0,1,3.376,5.763c-1.35,9.3-7.459,26.708-21.855,35.63l-40.469-49.6A8.436,8.436,0,0,1,163.608,92.705Zm-83.489,50.6c-3.713,3.1-13.846,8.105-28.247,7.222C37.7,149.657,28.861,144,23.927,139.39c.471.012.946.019,1.422.019,26.847,0,62.266-19.4,63.958-20.335.048-.026.095-.053.141-.082.924-.57,10.137-2.064,13.978-2.415a128.375,128.375,0,0,1,14.348-.57c2.589.053,6.219.128,10.4.311C114.5,120.431,97.992,128.384,80.119,143.307Zm37.8-34.189a134.274,134.274,0,0,0-15.116.6c-34.6,3.157-53.634-6.995-63.511-16.073A21.19,21.19,0,0,1,33.672,71.1c5.377-15.572,12.98-25.062,18.377-30.264-1.77,14.992,1.282,27.328,9.116,36.758,16.989,20.448,50.02,19.389,51.389,19.329,23.656-.764,37.115.389,44.458,1.593a15.58,15.58,0,0,0,2.979,5.887l1.847,2.264-2.46,6.423C145.015,109.677,126.252,109.29,117.916,109.118Zm22.773,26.768a6.553,6.553,0,0,1,5.151-1.208,6.352,6.352,0,0,1,4.286,2.936c16.524,26.827-10.421,46.029-11.524,46.8-11.926,7.951-22.781,18.147-29.162,24.578-7.487-7.439-17.219-11.33-25.347-13.364C101.6,167.113,129.315,144.479,140.689,135.886Zm-69.1,64.6c7.118.653,23.9,3.361,34.115,14.551A21.32,21.32,0,0,1,111.156,228c.433,6.683,1.081,18.811,1.06,31.27-6.174-3.081-15.111-4.254-24.25,2.773A118.069,118.069,0,0,1,71.59,200.49Zm8.956,87.14H60.2a25.2,25.2,0,0,1,.1-5.586,7.9,7.9,0,0,1,7.9-6.711H85C87,282.505,80.546,287.63,80.546,287.63Zm32.554-2.981a25.675,25.675,0,0,1-5.39,15.625,47.378,47.378,0,0,1-4.236,4.638,9.106,9.106,0,0,1-9.773,1.844,23.236,23.236,0,0,1-10.29-7.948,3.824,3.824,0,0,1,.2-4.111l4.056-4.845a18.781,18.781,0,0,0,4.334-13.39,69.79,69.79,0,0,0-1-8.019c10.014-8.651,18.582-3.169,21.332-.925A135.548,135.548,0,0,1,113.1,284.649Zm15.249,2.981h-8.524c.094-.961.154-1.927.165-2.9.031-2.664.014-5.948-.133-9.4h8.492Zm14.949.716c-1.019,1.493-3.371,5.079-6.556,10.8H136.7a1.462,1.462,0,0,1-1.459-1.46V265.212a1.461,1.461,0,0,1,1.459-1.459h9.024Zm3.1-31.483h-9.7a8.359,8.359,0,0,0-8.349,8.349v3.231h-8.975c-.1-.962-.83-32.99-1.344-40.888A28.434,28.434,0,0,0,113.8,214.38c6.09-6.18,16.855-16.389,28.674-24.269.338-.233,33.492-23.685,13.52-56.111a13.29,13.29,0,0,0-13.379-6.157,8.632,8.632,0,0,1,6.34-4.937l13.107-2.313a3.742,3.742,0,0,0,2.652-2.167l2.147-5.605,34.26,41.99L199,161.436a3.441,3.441,0,0,0,.351,2.859l12.081,19.543a52.168,52.168,0,0,1,7.8,27.45V239.11c-34.312,6.248-60.237-1.079-65.472-2.751l-18.62-26.5c-.362-.515-.7-1.049-1.006-1.586a3.445,3.445,0,0,0-5.99,3.4c.413.726.869,1.446,1.357,2.142l18.538,26.38Zm3.9,30.672,4.309-43.717c9.388,2.638,33.592,7.8,65.014,2.232l4.1,41.338C214.932,290.872,181.525,302.2,150.3,287.535Zm69.864-102.1c10.037,8.392,22.394,17.208,35.347,22.881a20.464,20.464,0,0,0-.381,2.849,103.414,103.414,0,0,0,1.631,25.213A175.757,175.757,0,0,1,226.127,220.2v-8.911A59.034,59.034,0,0,0,220.166,185.432Z"/></svg>