<svg xmlns="http://www.w3.org/2000/svg" xmlns:xlink="http://www.w3.org/1999/xlink" viewBox="0 0 340 340" width="500px" height="500px"><defs><linearGradient id="vog5bEO_fOiUKjXlOw5gta" x1="300.763" x2="287.441" y1="145.995" y2="252.576" gradientUnits="userSpaceOnUse"><stop offset="0" stop-color="#e9f4ff"/><stop offset="1" stop-color="#fcffff"/></linearGradient><linearGradient id="vog5bEO_fOiUKjXlOw5gth" x1="65.793" x2="77.957" y1="159.783" y2="279.686" xlink:href="#vog5bEO_fOiUKjXlOw5gta"/><linearGradient id="vog5bEO_fOiUKjXlOw5gtb" x1="101.448" x2="26.85" y1="290.499" y2="269.15" gradientUnits="userSpaceOnUse"><stop offset="0" stop-color="#b0c9fe"/><stop offset="1" stop-color="#99b4e7"/></linearGradient><linearGradient id="vog5bEO_fOiUKjXlOw5gti" x1="298.306" x2="251.055" y1="287.196" y2="273.674" xlink:href="#vog5bEO_fOiUKjXlOw5gtb"/><linearGradient id="vog5bEO_fOiUKjXlOw5gtc" x1="251.959" x2="251.959" y1="323.918" y2="260.535" gradientUnits="userSpaceOnUse"><stop offset="0" stop-color="#ffe1db"/><stop offset="1" stop-color="#feb5a9"/></linearGradient><linearGradient id="vog5bEO_fOiUKjXlOw5gtj" x1="232.53" x2="232.53" y1="168.393" y2="199.988" xlink:href="#vog5bEO_fOiUKjXlOw5gtc"/><linearGradient id="vog5bEO_fOiUKjXlOw5gtd" x1="241.694" x2="243.471" y1="200.883" y2="302.507" gradientUnits="userSpaceOnUse"><stop offset="0" stop-color="#d379a0"/><stop offset="1" stop-color="#9d4f70"/></linearGradient><linearGradient id="vog5bEO_fOiUKjXlOw5gtk" x1="112.044" x2="112.044" y1="323.918" y2="260.535" xlink:href="#vog5bEO_fOiUKjXlOw5gtc"/><linearGradient id="vog5bEO_fOiUKjXlOw5gtl" x1="131.472" x2="131.472" y1="168.393" y2="199.988" xlink:href="#vog5bEO_fOiUKjXlOw5gtc"/><linearGradient id="vog5bEO_fOiUKjXlOw5gtm" x1="124.004" x2="118.319" y1="213.702" y2="293.651" xlink:href="#vog5bEO_fOiUKjXlOw5gtd"/><linearGradient id="vog5bEO_fOiUKjXlOw5gtn" x1="181.469" x2="178.982" y1="192.436" y2="274.162" gradientUnits="userSpaceOnUse"><stop offset="0" stop-color="#6f6f81"/><stop offset="1" stop-color="#555568"/></linearGradient><linearGradient id="vog5bEO_fOiUKjXlOw5gtf" x1="179.618" x2="185.345" y1="47.616" y2="321.17" gradientUnits="userSpaceOnUse"><stop offset="0" stop-color="#444456"/><stop offset="1" stop-color="#363644"/></linearGradient><linearGradient id="vog5bEO_fOiUKjXlOw5gto" x1="53.585" x2="145.488" y1="40.957" y2="130.322" xlink:href="#vog5bEO_fOiUKjXlOw5gtd"/><linearGradient id="vog5bEO_fOiUKjXlOw5gtp" x1="181.311" x2="187.489" y1="93.094" y2="207.008" xlink:href="#vog5bEO_fOiUKjXlOw5gtd"/><linearGradient id="vog5bEO_fOiUKjXlOw5gte" x1="202.864" x2="128.792" y1="261.76" y2="287.353" gradientUnits="userSpaceOnUse"><stop offset="0" stop-color="#7d7daf"/><stop offset="1" stop-color="#5c5c89"/></linearGradient><linearGradient id="vog5bEO_fOiUKjXlOw5gtq" x1="147.999" x2="227.97" y1="303.54" y2="334.67" xlink:href="#vog5bEO_fOiUKjXlOw5gte"/><linearGradient id="vog5bEO_fOiUKjXlOw5gtg" x1="247.826" x2="259.927" y1="22.721" y2="110.076" gradientUnits="userSpaceOnUse"><stop offset="0" stop-color="#eefbff"/><stop offset="1" stop-color="#ccd9e4"/></linearGradient><linearGradient id="vog5bEO_fOiUKjXlOw5gtr" x1="220.905" x2="228.469" y1="12.395" y2="334.994" xlink:href="#vog5bEO_fOiUKjXlOw5gtf"/><linearGradient id="vog5bEO_fOiUKjXlOw5gts" x1="181.094" x2="180.857" y1="69.219" y2="114.145" xlink:href="#vog5bEO_fOiUKjXlOw5gtc"/><linearGradient id="vog5bEO_fOiUKjXlOw5gtt" x1="181.007" x2="181.007" y1="158.027" y2="97.612" xlink:href="#vog5bEO_fOiUKjXlOw5gtd"/><linearGradient id="vog5bEO_fOiUKjXlOw5gtu" x1="162.183" x2="235.517" y1="266.397" y2="296.419" xlink:href="#vog5bEO_fOiUKjXlOw5gte"/><linearGradient id="vog5bEO_fOiUKjXlOw5gtv" x1="178.692" x2="179.842" y1="24.661" y2="97.139" xlink:href="#vog5bEO_fOiUKjXlOw5gtg"/><linearGradient id="vog5bEO_fOiUKjXlOw5gtw" x1="171.06" x2="167.425" y1="39.115" y2="318.553" xlink:href="#vog5bEO_fOiUKjXlOw5gtf"/><linearGradient id="vog5bEO_fOiUKjXlOw5gtx" x1="205.358" x2="201.722" y1="39.566" y2="319.061" xlink:href="#vog5bEO_fOiUKjXlOw5gtf"/></defs><path fill="url(#vog5bEO_fOiUKjXlOw5gta)" d="M295.18,148.592s9.914,86.054-40.348,146.584l11.2,17.923s5.9-28.249,37.45-36.5C303.484,276.594,339.186,230.421,295.18,148.592Z"/><path fill="url(#vog5bEO_fOiUKjXlOw5gth)" d="M58.228,149.905s-3.219,86.564,51.58,143.019l-9.78,18.737s-8.07-27.707-40.166-33.5C59.862,278.165,20.692,234.9,58.228,149.905Z"/><path fill="url(#vog5bEO_fOiUKjXlOw5gtb)" d="M100.028,311.661l9.78-18.737a156.1,156.1,0,0,1-19.349-24.512c-25.277,5.037-38.056-7.288-43.413-15.051,5.293,16.492,12.816,24.805,12.816,24.805C91.958,283.954,100.028,311.661,100.028,311.661Z"/><path fill="url(#vog5bEO_fOiUKjXlOw5gti)" d="M272.58,268.584a156.353,156.353,0,0,1-17.748,26.592l11.2,17.923s5.9-28.249,37.45-36.5c0,0,5.406-7,9.418-20.359C306.663,263.667,294.341,272.613,272.58,268.584Z"/><path fill="url(#vog5bEO_fOiUKjXlOw5gtc)" d="M257.685,278.031l11.641,26.008a13.6,13.6,0,0,1-2.588,15.166c-5.38,5.367-13.017,6.934-26.805,6.632l-6.576-34.218Z"/><path fill="url(#vog5bEO_fOiUKjXlOw5gtj)" d="M238.746,150.729s14.181,7.97,15.449,64.008l-26.662-4.17s0-19.132-5.893-26.731l-10.774-19.864Z"/><path fill="#e78582" d="M238.746,150.729l-27.88,13.243,9.335,17.21c9-5.606,18.651-10.811,27.716-14.121C243.627,153.478,238.746,150.729,238.746,150.729Z"/><path fill="url(#vog5bEO_fOiUKjXlOw5gtd)" d="M254.2,214.737s-12.97-7.518-26.662-4.17c0,0-1.569,54.434,8.271,85.558a33.109,33.109,0,0,0,21.881-18.094S251.959,246.874,254.2,214.737Z"/><path fill="url(#vog5bEO_fOiUKjXlOw5gtk)" d="M106.318,278.031,94.677,304.039a13.6,13.6,0,0,0,2.587,15.166c5.38,5.367,13.017,6.934,26.805,6.632l6.576-34.218Z"/><path fill="url(#vog5bEO_fOiUKjXlOw5gtl)" d="M125.257,150.729s-14.182,7.97-15.449,64.008l26.662-4.17s0-19.132,5.892-26.731l10.775-19.864Z"/><path fill="#e78582" d="M118.917,159.641c4.212,2.688,14.74,9.508,26.777,18.052l7.443-13.721-27.88-13.243S122.271,152.411,118.917,159.641Z"/><path fill="url(#vog5bEO_fOiUKjXlOw5gtm)" d="M109.808,214.737s12.969-7.518,26.662-4.17c0,0,1.568,54.434-8.272,85.558a33.108,33.108,0,0,1-21.88-18.094A452.22,452.22,0,0,0,109.808,214.737Z"/><path fill="#4b4b5e" d="M139.537,261.858a121.048,121.048,0,0,0-6.336,15.456l-5,15.89,14.724,18.443s87.98,8.3,100.472-3.2l-4.915-20.069a153.426,153.426,0,0,0-13.75-28.957l-44.7,12.5Z"/><path fill="url(#vog5bEO_fOiUKjXlOw5gtn)" d="M217.785,217.745c19.015-22.644.464-50.37.464-50.37h-73.67s-18.551,27.726.464,50.37a15.841,15.841,0,0,1,3.733,10.57c-.167,6.629-1.426,19.306-1.426,19.306l34.064,29.693L216.977,250.9s-2.662-8.6-2.925-22.582A15.963,15.963,0,0,1,217.785,217.745Z"/><path fill="url(#vog5bEO_fOiUKjXlOw5gtf)" d="M218.249,167.375h-73.67a49.007,49.007,0,0,0-3.653,6.967c10.042,6.99,21.714,15.529,31.853,24.033a17.667,17.667,0,0,0,22.119.471,311.556,311.556,0,0,1,28.817-19.809A54.033,54.033,0,0,0,218.249,167.375Z"/><path fill="#934662" d="M40.245,102.884a43.807,43.807,0,0,0,6.624,16.426,25.4,25.4,0,0,0,32.847,7.941,86.2,86.2,0,0,0,10.513-6.509,37.686,37.686,0,0,1,26.895-6.946c7.36.947,15.837,3.117,23.2,7.786l-19.892-21.267s-19.35-8.078-42.678,3.635a32.763,32.763,0,0,1-25.851,1.665,29.568,29.568,0,0,1-8.511-4.632A1.966,1.966,0,0,0,40.245,102.884Z"/><path fill="url(#vog5bEO_fOiUKjXlOw5gto)" d="M22.3,14.137S20.76,33.912,36.616,55.69A30.243,30.243,0,0,0,52.686,66.9c17.259,4.981,57.741,20.4,89.872,61.424l9.155-6.682S115.846,38.042,22.3,14.137Z"/><path fill="#934662" d="M201.759,100.407l-.8,6.41c-1.594,16.377,11.188,24.792,13.56,25.671v3.633s-44.428-.46-44.428-.806,1.844-11.289,1.844-11.289Z"/><path fill="url(#vog5bEO_fOiUKjXlOw5gtp)" d="M158.187,112.367c-7.652,2.773-20.5,10.623-23.79,21.633,0,0-9.18,1.185-18.845,9.231a6.316,6.316,0,0,0,1.217,10.449c12.764,6.534,38.863,20.484,59.477,35.335a12.879,12.879,0,0,0,14.844.137c11.915-8.219,36.134-23.636,58.822-30.206a7.609,7.609,0,0,0,3.512-12.492c-2.794-3.024-7.162-5.85-13.984-7.113,0,0-3.338-10.46-24.925-8.234C214.515,131.107,175.842,139.669,158.187,112.367Z"/><path fill="url(#vog5bEO_fOiUKjXlOw5gte)" d="M215.412,243.673a173.63,173.63,0,0,1-47.151,25.792c-7.161,3.7-14.245,6.823-20.768,5.815a126.875,126.875,0,0,1-14.292,2.034s-3.055,8.179-5,15.89c0,0,15.552.077,36.668-5.219l19.409-6.05a151.547,151.547,0,0,0,40.454-22.519S219.8,250.1,215.412,243.673Z"/><path fill="url(#vog5bEO_fOiUKjXlOw5gtq)" d="M128.2,293.2s37.122,21.6,115.2,15.238a107.029,107.029,0,0,1,1.127,17.4H122.487S122.443,312.791,128.2,293.2Z"/><path fill="#934662" d="M236.369,135.354c-19.446,1.631-38.154,13.117-45.455,18.1a6.787,6.787,0,0,1-6.915.427c-6.663-3.4-20.612-10.685-27.305-15.295a24.624,24.624,0,0,0-6.495-3.116,1.981,1.981,0,0,0-1.67,3.551,39.929,39.929,0,0,1,4.608,3.532s13.906,11.6,28.959,18.968a12.4,12.4,0,0,0,12.509-.985c6.057-4.194,15.983-10.663,24.412-14.261a129.516,129.516,0,0,1,20.423-6.937A9.771,9.771,0,0,0,236.369,135.354Z"/><path fill="#934662" d="M109.9,224.7q-.019,3.519-.1,6.958a3.358,3.358,0,0,0,.372-.033c.118-.022,12.049-2.169,25.54,5.238a3.481,3.481,0,0,0,.515.225c.1-2.662.174-5.2.226-7.585A48.624,48.624,0,0,0,109.9,224.7Z"/><path fill="#934662" d="M109.163,246.894c-.146,2.5-.306,4.91-.474,7.2,5.039-1.236,15.837-3.448,26.771-2.906.166-2.334.308-4.633.429-6.879A102.387,102.387,0,0,0,109.163,246.894Z"/><path fill="#934662" d="M132.6,276.8c.415-2.553.787-5.148,1.122-7.76-9.007-6-20.1-8-25.529-8.647-.217,2.516-.435,4.814-.642,6.873C112.985,267.938,124.716,270.123,132.6,276.8Z"/><path fill="#934662" d="M227.443,220.063c0,2.046.023,4.366.066,6.909,5.9-.161,17.483.53,26.2,7.315-.042-2.71-.044-5.474.005-8.277C244.194,220.538,233.46,219.893,227.443,220.063Z"/><path fill="#934662" d="M228.47,250.159c5.125-2.206,15.088-5.717,25.612-5.228q-.18-3.366-.289-6.916c-10.263-.361-19.76,2.488-25.755,4.849C228.158,245.238,228.3,247.676,228.47,250.159Z"/><path fill="#934662" d="M229.6,263.145c6.792.743,17.8,2.755,27.037,8.18-.324-2.29-.69-5.108-1.053-8.334-9.876-4.642-20.37-6.28-26.653-6.856C229.124,258.458,229.346,260.8,229.6,263.145Z"/><path fill="#934662" d="M185.213,139.669s13.457-6.47,25.925-8.1c-9.78,1.05-38.383,2.076-52.951-19.2a42.632,42.632,0,0,0-4.364,1.889C155.981,119.511,163.813,134.293,185.213,139.669Z"/><polygon fill="#934662" points="212.551 131.4 212.55 131.4 212.551 131.4 212.551 131.4"/><path fill="url(#vog5bEO_fOiUKjXlOw5gtg)" d="M230.532,25.711a24.3,24.3,0,0,0-2.963,15.525s.733,71.326,56.12,84.364a1.31,1.31,0,0,0,1.234-2.19c-5.507-5.615-14.983-19.49-14.209-48.03,0,0,1.276-39.852-16.752-54.129A15.645,15.645,0,0,0,230.532,25.711Z"/><path fill="url(#vog5bEO_fOiUKjXlOw5gtr)" d="M205.841,42.323s10.043,2.059,22.974-5.078a5.72,5.72,0,0,1,8.081,2.826c.049.127.1.257.144.389a5.809,5.809,0,0,1-3.07,7.233c-5.679,2.564-16.367,7.909-23.1,14.5Z"/><path fill="url(#vog5bEO_fOiUKjXlOw5gts)" d="M166.882,49.292,151.609,73.515c-1.344,10.142,1.528,23.612,1.528,23.612l11.79,14.691s31.211,10.011,43.951-18.024c0,0,1.5-10.494,1.988-21.234Z"/><path fill="url(#vog5bEO_fOiUKjXlOw5gtt)" d="M153.137,97.127s7.388,8.666,27.092,8.666,28.649-12,28.649-12-3.54,30.5-26.7,34.53C182.174,128.324,157.8,127.257,153.137,97.127Z"/><path fill="#e78582" d="M172.532,92.879a2.955,2.955,0,0,1-.826-.118,20.764,20.764,0,0,0-2.961-.6,2.952,2.952,0,0,1,.668-5.867,26.472,26.472,0,0,1,3.942.8,2.953,2.953,0,0,1-.823,5.789Z"/><path fill="#e78582" d="M188.166,92.879a2.953,2.953,0,0,1-.824-5.789,26.473,26.473,0,0,1,3.944-.8,2.952,2.952,0,0,1,.667,5.867h0a20.736,20.736,0,0,0-2.961.6A2.96,2.96,0,0,1,188.166,92.879Z"/><path fill="#4b4b5e" d="M164.865,287.982a176.231,176.231,0,0,0,24.01-7.859l-20.636-10.659a146.82,146.82,0,0,1-20.749,5.8A155.812,155.812,0,0,0,164.865,287.982Z"/><path fill="url(#vog5bEO_fOiUKjXlOw5gtu)" d="M147.35,247.621s36.656,28.669,91.129,40.752a68.386,68.386,0,0,1,4.915,20.069s-75.8-19.962-103.857-46.584A116.267,116.267,0,0,1,147.35,247.621Z"/><path fill="#e78582" d="M208.765,82.372c.493-.1.963-.223,1.442-.337.266-2.941.51-6.2.659-9.475L166.882,49.292,151.609,73.515a62.747,62.747,0,0,0,.074,13.915A64.211,64.211,0,0,0,167.9,73.3S181.409,88.152,208.765,82.372Z"/><path fill="url(#vog5bEO_fOiUKjXlOw5gtv)" d="M167.356,57.664s-5.134,13.84-15.938,20.818a4.328,4.328,0,0,1-6.6-2.867c-1.472-8.778-2.293-26.169,10.675-38.228a36.4,36.4,0,0,1,41.037-5.616c11.191,5.72,21.8,18.259,16.874,45.7a4.647,4.647,0,0,1-4.643,3.79C199.717,81.185,177.355,78.769,167.356,57.664Z"/><path fill="url(#vog5bEO_fOiUKjXlOw5gtw)" d="M294.775,143.867a3.446,3.446,0,0,0-2.392,3.68c.076.663,7.218,66.926-24.807,122.668a3.446,3.446,0,0,0,5.975,3.433C297.035,232.771,300.3,187.6,300.09,163.7c15.054,33.946,15.612,60.28,13.039,77.15-2.671,17.5-9.1,28.272-11.124,31.314a55.068,55.068,0,0,0-32.383,24.111L261,277.013c-.639-3.689-5.416-32.649-3.372-62.038.005-.072,0-.143,0-.215,0-.034.009-.067.008-.1-.5-22.367-3.074-39.883-7.635-52.143.289-.086.579-.177.867-.261a11.052,11.052,0,0,0,5.084-18.138A27.176,27.176,0,0,0,241.73,136.3c-2.262-3.583-9.09-10.524-27.569-8.619-.09.009-.183.023-.273.039-.016,0-.179.032-.462.076a23.4,23.4,0,0,1-8.395-12.336,59.486,59.486,0,0,0,7.26-21.2c.047-.331.69-4.893,1.269-11.073a8,8,0,0,0,3.24-5.108,71.982,71.982,0,0,0,1.172-17.364,101.555,101.555,0,0,1,17.416-9.881,9.208,9.208,0,0,0,4.9-11.53c-.057-.161-.116-.319-.179-.484a9.008,9.008,0,0,0-5.341-5.182,9.259,9.259,0,0,0-3.456-.537,20.064,20.064,0,0,1,2.207-5.667,12.151,12.151,0,0,1,8.329-5.986,12.362,12.362,0,0,1,9.979,2.505c16.447,13.026,15.459,50.938,15.447,51.334-.626,23.06,5.235,37.08,10.729,45.083-28.187-9.83-39.733-36.745-44.417-58.894a3.445,3.445,0,0,0-6.74,1.426c4.674,22.106,18.857,60.217,61.324,67.1a3.445,3.445,0,0,0,2.291-6.374c-.174-.1-17.32-10.579-16.3-48.132.055-1.7,1.11-41.76-18.057-56.939a19.09,19.09,0,0,0-28.553,5.438,27.033,27.033,0,0,0-3.574,11.827,35.842,35.842,0,0,1-13.349,3.313A35.7,35.7,0,0,0,198.1,28.7a39.676,39.676,0,0,0-44.95,6.161c-14.042,13.058-13.374,31.493-11.727,41.321a7.683,7.683,0,0,0,4.506,5.761,7.885,7.885,0,0,0,1.942.568,102.739,102.739,0,0,0,1.888,15.293,49.967,49.967,0,0,0,3.7,12.82,54.188,54.188,0,0,0-13.549,9.064C107.772,82.32,69.066,68.042,53.642,63.59A26.9,26.9,0,0,1,39.4,53.662C28.778,39.071,26.353,25.341,25.837,18.653c63.363,17.8,98.847,63.217,114.519,89.084a3.445,3.445,0,1,0,5.893-3.57C129.675,76.809,91.642,28.3,23.151,10.8a3.446,3.446,0,0,0-4.288,3.071c-.067.859-1.447,21.3,14.967,43.847a33.826,33.826,0,0,0,17.9,12.493,174.256,174.256,0,0,1,49.649,24,61.616,61.616,0,0,0-25.17,6.658,29.415,29.415,0,0,1-23.13,1.505c-4.9-1.777-8.5-4.281-10.695-7.441a3.445,3.445,0,0,0-6.273,1.985A47.823,47.823,0,0,0,43.786,120.9a28.667,28.667,0,0,0,23.926,12.777,29.206,29.206,0,0,0,13.563-3.353,89.592,89.592,0,0,0,10.988-6.8,34.119,34.119,0,0,1,24.427-6.309,59.971,59.971,0,0,1,15.242,3.9c.025.011.051.014.077.024q1.64,1.818,3.256,3.72a27.8,27.8,0,0,0-3.47,6.153,46.618,46.618,0,0,0-18.445,9.569,9.661,9.661,0,0,0-3.42,8.518,9.776,9.776,0,0,0,5.272,7.648l1.026.527c-4.38,8.956-9.152,25.867-9.864,57.384,0,.02,0,.038,0,.058s0,.068,0,.1c.711,29.283-2.876,58.245-3.4,62.263l-8.151,18.21c-7.515-10.811-21.4-17.861-33.083-20.274-2.256-2.879-9.5-13.12-13.52-30.362-3.872-16.62-5.354-42.92,7.024-77.927,1.661,24.167,8.571,69.824,36.038,109.1a3.445,3.445,0,1,0,5.646-3.949c-37.3-53.336-35.275-121.174-35.251-121.853a3.445,3.445,0,0,0-6.594-1.518C35.3,193.294,36.842,226.627,41.618,246.7c5.244,22.047,15.266,33.305,15.69,33.774a3.447,3.447,0,0,0,1.943,1.078c11.854,2.137,26.672,9.732,32.116,21.485a17.068,17.068,0,0,0,3.464,18.6c6.343,6.326,27.661,7.64,27.664,7.64a3.446,3.446,0,0,0,3.437-3.45c0-.116.044-10.755,4.258-26.916a3.426,3.426,0,0,0,.623-.562c11.761,5.353,47.409,18.3,109.59,13.771a99.469,99.469,0,0,1,.674,13.613c0,.027.006.053.006.08s-.008.058-.007.087c0,.111.025.216.036.324.01.086.013.174.029.258a3.415,3.415,0,0,0,.141.5c.014.039.023.08.038.119a3.438,3.438,0,0,0,3.2,2.2h.046c12.177-.158,19.307-2.378,24.6-7.663a17.018,17.018,0,0,0,3.91-17.42c4.48-9.172,13.628-20.955,31.9-25.737a3.441,3.441,0,0,0,1.854-1.225c.386-.5,9.506-12.5,13.027-34.887,3.207-20.388,2.163-53.74-21.023-96.854A3.444,3.444,0,0,0,294.775,143.867ZM230.48,40.262a2.348,2.348,0,0,1,1.94-.146,2.1,2.1,0,0,1,1.263,1.2l.107.29a2.354,2.354,0,0,1-1.238,2.952,113.824,113.824,0,0,0-15.666,8.529,39.611,39.611,0,0,0-2.424-7.381A45.7,45.7,0,0,0,230.48,40.262ZM117.57,110.38a40.959,40.959,0,0,0-29.349,7.562,82.6,82.6,0,0,1-10.14,6.276,21.969,21.969,0,0,1-28.562-7.14A39.081,39.081,0,0,1,44.5,105.936a36.2,36.2,0,0,0,34.8,1.092,53.511,53.511,0,0,1,31.957-5.454c3.667,2.935,7.343,6.108,10.988,9.554Q119.957,110.69,117.57,110.38Zm30.111,105.149c-13.18-15.695-6.386-34.366-2.42-42.335,9.662,5.659,19.846,12.042,28.965,18.612a16.372,16.372,0,0,0,18.826.177,296.183,296.183,0,0,1,25.829-15.956c2.263,5.243,6.576,26.478-3.733,39.5a20.14,20.14,0,0,0-4.54,12.851,112.02,112.02,0,0,0,1.107,13.811,174.559,174.559,0,0,1-34.339,19.937,220.852,220.852,0,0,1-26.411-16.113c.361-3.841,1.125-12.433,1.255-17.614A19.27,19.27,0,0,0,147.681,215.529Zm-9.152,40.519c1.3-16.029,1.474-31.127,1.453-39.285.742,1.073,1.536,2.141,2.423,3.2a12.388,12.388,0,0,1,2.927,8.268c-.138,5.48-1.057,15.373-1.332,18.245C141.676,250.153,139.823,253.531,138.529,256.048Zm2.176,11.434q2.737,2.271,5.855,4.463-4.148.819-8.248,1.356C139.19,271.014,140.016,269.044,140.705,267.482Zm84.533-14.305c-1.75-3.11-4.174-7.257-6.531-10.776A104.172,104.172,0,0,1,217.5,228.25a12.517,12.517,0,0,1,2.928-8.29,41.616,41.616,0,0,0,3.594-4.983C223.954,222.142,224.018,236.985,225.238,253.177Zm-10.67-4.5c2.224,3.534,4.387,7.361,5.733,9.8A143.413,143.413,0,0,1,198.407,272c-4.665-1.943-9.047-3.93-13.137-5.9A179.8,179.8,0,0,0,214.568,248.676Zm9.2,15.809a151.013,151.013,0,0,1,9.194,19.032,243.215,243.215,0,0,1-26.126-8.175A148.681,148.681,0,0,0,223.771,264.485Zm7.192-37.388a30.254,30.254,0,0,1,19.046,5.151c.074.051.152.088.227.132.021,2.693.081,5.334.175,7.9a86.766,86.766,0,0,0-18.883,3.261C231.213,237.536,231.045,231.925,230.963,227.1Zm19.34-2.707a37.421,37.421,0,0,0-19.41-4.189c-.008-2.829.01-5.144.032-6.779,8.371-1.163,16.224,1.789,19.686,3.372C250.462,219.345,250.364,221.88,250.3,224.39Zm.274-15.085a42.874,42.874,0,0,0-19.729-2.819,69.1,69.1,0,0,0-1.128-10.271,53.856,53.856,0,0,0-4.73-23.4,170.6,170.6,0,0,1,18.469-8.121C246.394,172.528,249.647,186.209,250.577,209.305ZM205.6,92.347c-2.054,2.3-10.08,10-25.369,10-14.764,0-21.946-5.212-23.919-6.938a95,95,0,0,1-1.6-15.011c6.118-4.429,10.376-10.679,12.932-15.311C178.546,81.117,196.792,84.2,206.5,84.642,206.137,88.151,205.782,90.955,205.6,92.347Zm-5.443,29.73a30.042,30.042,0,0,0,4.157,6.462,76.581,76.581,0,0,1-11.333-.569A31.665,31.665,0,0,0,200.155,122.077Zm-18.167,2.779c-2.548-.239-17.189-2.368-23.392-19.921,4.762,2.241,11.811,4.3,21.633,4.3a43.322,43.322,0,0,0,22.807-6.058C200.152,111.525,194.112,122.53,181.988,124.856ZM149.549,75.588a.868.868,0,0,1-.837.054.806.806,0,0,1-.493-.6c-1.418-8.461-2.054-24.277,9.624-35.136a32.769,32.769,0,0,1,37.123-5.072C208.7,41.859,213.765,56,210.017,76.86a1.205,1.205,0,0,1-1.224.954c-8.475-.069-29.175-2.315-38.324-21.625a3.443,3.443,0,0,0-3.112-1.967c-.05,0-.1,0-.147,0a3.449,3.449,0,0,0-3.082,2.238C164.08,56.59,159.226,69.338,149.549,75.588Zm-31.791,70.289a38.543,38.543,0,0,1,16.876-8.426c1.274.053,8.3.662,16.218,7.683.051.046.1.09.158.133.764.6,18.907,14.751,36.6,21.447a3.445,3.445,0,1,0,2.438-6.444c-16.147-6.109-33.433-19.373-34.715-20.366a37.6,37.6,0,0,0-16.017-8.652c3.757-6.662,11.483-11.887,17.5-14.6a35.165,35.165,0,0,0,19.336,13.974,3.41,3.41,0,0,0,.766.431c17.51,6.813,36.077,3.819,38.069,3.468,10.085-1.019,15.515.957,18.339,2.886a134.553,134.553,0,0,0-15.688,5.71,3.445,3.445,0,1,0,2.739,6.322,122.824,122.824,0,0,1,19.117-6.56c4.853,1.01,8.691,2.99,11.391,5.913a4.079,4.079,0,0,1,.964,3.935,4.144,4.144,0,0,1-2.9,2.91c-23.007,6.662-47.351,22.078-59.814,30.674a9.465,9.465,0,0,1-10.886-.1c-20.578-14.823-46.37-28.667-59.913-35.6a2.886,2.886,0,0,1-1.563-2.274A2.777,2.777,0,0,1,117.758,145.877Zm4.586,14.586c4.973,2.626,10.772,5.773,16.941,9.282-3.117,6.16-7.983,18.472-5.635,31.739a3.43,3.43,0,0,0-.155.723c-.158,1.59-.262,3.042-.332,4.28a42.847,42.847,0,0,0-19.735,2.816C114.546,181.615,119.021,167.362,122.344,160.463Zm10.726,52.958c.033,3,.052,8.264-.081,14.854-7.59-3.2-15.727-3.4-19.652-3.268.018-2.7.007-5.431-.04-8.17C116.713,215.264,124.631,212.248,133.07,213.421ZM119.182,322.407c-10.088-.189-15.635-1.8-19.485-5.641a10.165,10.165,0,0,1-1.876-11.32l.458-1.025,0,0,8.45-18.878a36.8,36.8,0,0,0,16.53,12.652A136.9,136.9,0,0,0,119.182,322.407Zm9.518-42.718c-1.021,2.967-2.463,7.39-3.621,11.823a29.413,29.413,0,0,1-15.213-14.051c.2-1.556.589-4.8,1.042-9.267a31.352,31.352,0,0,1,10.63,4.182,3.445,3.445,0,1,0,3.8-5.75,38.508,38.508,0,0,0-13.776-5.325c.194-2.233.388-4.639.573-7.178a63.521,63.521,0,0,1,19.807-2.24A278.861,278.861,0,0,1,128.7,279.689Zm-16.094-32.805c.275-4.719.5-9.761.624-14.976,3.514-.146,12.43-.056,19.551,3.913-.1,2.926-.236,6.006-.41,9.187A68.51,68.51,0,0,0,112.606,246.884Zm23.1,33.658a135.436,135.436,0,0,0,18.963-3.349c3.871,2.32,7.98,4.556,12.228,6.7a176.7,176.7,0,0,1-34.127,5.695C133.837,285.946,134.982,282.583,135.7,280.542Zm7.091,15.056a187.642,187.642,0,0,0,33.431-7.245,432.891,432.891,0,0,0,46.925,17.714C183.858,307,157.217,300.548,142.792,295.6Zm.948-34.571c.949-1.932,2.512-4.958,4.572-8.413,9.861,7.039,42.318,28.309,87.655,38.723a67.833,67.833,0,0,1,3.33,12.386C222.523,298.907,167.805,282.073,143.74,261.027Zm99.227,29.384c-.607-1.726-1.092-2.875-1.277-3.3a161.017,161.017,0,0,0-8.058-18.887c0-.073,0-.145,0-.219-.731-5.808-1.27-11.706-1.668-17.4a81.912,81.912,0,0,1,18.782-3.442c.324,5.4.767,10.354,1.23,14.663a39.254,39.254,0,0,0-12.6-2.218,3.445,3.445,0,0,0,.074,6.89h.053a31.8,31.8,0,0,1,13.142,3.079c.09.045.185.064.278.1.511,3.806.96,6.569,1.2,7.968C251.467,284.036,248.532,286.534,242.967,290.411Zm21.338,26.355c-3.471,3.462-8.2,5.1-16.32,5.539a113.417,113.417,0,0,0-1.175-14.319,75.434,75.434,0,0,0-1.794-10.614c5.431-3.738,9.32-6.436,12.489-11.309l8.677,19.383A10.165,10.165,0,0,1,264.305,316.766Z"/><path fill="url(#vog5bEO_fOiUKjXlOw5gtx)" d="M202.768,157.917a3.433,3.433,0,0,0,1.715-.459q1.05-.6,2.168-1.226a3.445,3.445,0,0,0-3.347-6.023q-1.161.646-2.257,1.277a3.445,3.445,0,0,0,1.721,6.431Z"/></svg>