<svg xmlns="http://www.w3.org/2000/svg" xmlns:xlink="http://www.w3.org/1999/xlink" viewBox="0 0 340 340" width="500px" height="500px"><defs><linearGradient id="dq8A49bnsIvIVenY2-zUza" x1="295.149" x2="289.979" y1="126.601" y2="44.699" gradientUnits="userSpaceOnUse"><stop offset="0" stop-color="#91a3be"/><stop offset="1" stop-color="#6f839b"/></linearGradient><linearGradient id="dq8A49bnsIvIVenY2-zUze" x1="289.098" x2="283.928" y1="126.983" y2="45.081" xlink:href="#dq8A49bnsIvIVenY2-zUza"/><linearGradient id="dq8A49bnsIvIVenY2-zUzf" x1="139.167" x2="59.862" y1="118.23" y2="133.155" gradientUnits="userSpaceOnUse"><stop offset="0" stop-color="#ff7b72"/><stop offset=".291" stop-color="#f37169"/><stop offset="1" stop-color="#da5b55"/></linearGradient><linearGradient id="dq8A49bnsIvIVenY2-zUzg" x1="257.438" x2="309.308" y1="160.737" y2="156.839" gradientUnits="userSpaceOnUse"><stop offset="0" stop-color="#e9f4ff"/><stop offset="1" stop-color="#fcffff"/></linearGradient><linearGradient id="dq8A49bnsIvIVenY2-zUzb" x1="188.462" x2="281.814" y1="154.112" y2="243.074" gradientUnits="userSpaceOnUse"><stop offset="0" stop-color="#ffe1db"/><stop offset="1" stop-color="#feb5a9"/></linearGradient><linearGradient id="dq8A49bnsIvIVenY2-zUzh" x1="205.818" x2="147.45" y1="373.808" y2="278.406" gradientUnits="userSpaceOnUse"><stop offset="0" stop-color="#d68976"/><stop offset="1" stop-color="#c6523f"/></linearGradient><linearGradient id="dq8A49bnsIvIVenY2-zUzi" x1="132.187" x2="132.187" y1="140.347" y2="266.21" xlink:href="#dq8A49bnsIvIVenY2-zUzb"/><linearGradient id="dq8A49bnsIvIVenY2-zUzj" x1="134.886" x2="134.886" y1="153.794" y2="268.328" xlink:href="#dq8A49bnsIvIVenY2-zUzb"/><linearGradient id="dq8A49bnsIvIVenY2-zUzc" x1="110.286" x2="216.171" y1="275.777" y2="175.3" gradientUnits="userSpaceOnUse"><stop offset="0" stop-color="#6f6f81"/><stop offset="1" stop-color="#555568"/></linearGradient><linearGradient id="dq8A49bnsIvIVenY2-zUzd" x1="246.922" x2="212.249" y1="201.109" y2="90.811" gradientUnits="userSpaceOnUse"><stop offset="0" stop-color="#c6695f"/><stop offset="1" stop-color="#aa554b"/></linearGradient><linearGradient id="dq8A49bnsIvIVenY2-zUzk" x1="173.607" x2="173.607" y1="28.416" y2="95.421" xlink:href="#dq8A49bnsIvIVenY2-zUzb"/><linearGradient id="dq8A49bnsIvIVenY2-zUzl" x1="177.728" x2="186.684" y1="75.672" y2="126.621" xlink:href="#dq8A49bnsIvIVenY2-zUzc"/><linearGradient id="dq8A49bnsIvIVenY2-zUzm" x1="147.094" x2="147.094" y1="28.416" y2="95.421" xlink:href="#dq8A49bnsIvIVenY2-zUzb"/><linearGradient id="dq8A49bnsIvIVenY2-zUzn" x1="39.462" x2="40.969" y1="128.99" y2="269.69" xlink:href="#dq8A49bnsIvIVenY2-zUzd"/><linearGradient id="dq8A49bnsIvIVenY2-zUzo" x1="262.986" x2="279.569" y1="304.129" y2="182.524" xlink:href="#dq8A49bnsIvIVenY2-zUzd"/><linearGradient id="dq8A49bnsIvIVenY2-zUzp" x1="40.258" x2="38.425" y1="111.847" y2="170.133" gradientTransform="rotate(12.12 36.954 135.853)" xlink:href="#dq8A49bnsIvIVenY2-zUzb"/><linearGradient id="dq8A49bnsIvIVenY2-zUzq" x1="235.913" x2="246.544" y1="285.718" y2="317.794" xlink:href="#dq8A49bnsIvIVenY2-zUzb"/><linearGradient id="dq8A49bnsIvIVenY2-zUzr" x1="196.418" x2="205.374" y1="72.386" y2="123.335" xlink:href="#dq8A49bnsIvIVenY2-zUzc"/><linearGradient id="dq8A49bnsIvIVenY2-zUzs" x1="171.536" x2="166.762" y1="57.607" y2="340.075" gradientUnits="userSpaceOnUse"><stop offset="0" stop-color="#444456"/><stop offset="1" stop-color="#363644"/></linearGradient></defs><path fill="url(#dq8A49bnsIvIVenY2-zUza)" d="M281.354,100.344s2.35,20.548-10.827,44.4c12.693,13.282,41.681,8.693,50.807-11.532a129.973,129.973,0,0,1-4.635-32.975Z"/><path fill="url(#dq8A49bnsIvIVenY2-zUze)" d="M253.076,59.205s27.444,5.849,26.61,32.806L316.7,86.286V61.9a16.607,16.607,0,0,0-18.094-16.525C287.422,46.356,271.664,49.724,253.076,59.205Z"/><polygon fill="url(#dq8A49bnsIvIVenY2-zUzf)" points="57.201 118.241 316.699 86.286 316.699 100.235 57.201 133.92 57.201 118.241"/><path fill="url(#dq8A49bnsIvIVenY2-zUzg)" d="M328.886,154.825a140.6,140.6,0,0,1-7.549-21.616c-9.616,6.182-27.794,14.808-50.812,11.532-6.5,11.763-16.773,24.33-32.971,35.632C237.554,180.373,294.14,194.574,328.886,154.825Z"/><path fill="url(#dq8A49bnsIvIVenY2-zUzb)" d="M219.422,213.511s4.763,24.586,35.353,34.7l31.956-11.234s-5.381-37.2-38.765-64.909H224.185Z"/><path fill="#e78582" d="M247.966,172.069H224.185l-1.856,16.154.44.26a24.614,24.614,0,0,0,15.978,3.194l25.028-3.528A111.913,111.913,0,0,0,247.966,172.069Z"/><path fill="url(#dq8A49bnsIvIVenY2-zUzh)" d="M103.23,276.965s-11.8,17.578-14.918,46.643H247.966s-4.9-23.708-19.372-54.436Z"/><path fill="#c6523f" d="M234.261,281.96c-3.263.114-24.32,1.746-22.892,24.928a45.748,45.748,0,0,0,4.04,16.72h32.557S244.371,306.233,234.261,281.96Z"/><path fill="url(#dq8A49bnsIvIVenY2-zUzi)" d="M151.848,97.81s-2.644,22.149-17.869,36.11c0,0-40.836.149-47.454,44.465,0,0-19.281-.288-26.187,25.324L28.4,231.91s1.439,12.342,11.623,27.461a16.744,16.744,0,0,0,17.3,7.027c14.436-3.01,37.684-12.964,54.888-40.254l3.381,47.78s28.2,15.828,61.295,15.828,46.043-22.446,46.043-22.446V214.068s9.444-5.6,13.051-22.178l-25.137-67.03Z"/><path fill="url(#dq8A49bnsIvIVenY2-zUzj)" d="M146.886,115.085a54.744,54.744,0,0,1-12.907,18.835s-40.836.149-47.454,44.465c0,0-19.281-.288-26.187,25.324L33.794,248.464a83.456,83.456,0,0,0,6.225,10.907,16.744,16.744,0,0,0,17.3,7.027c14.436-3.01,37.684-12.964,54.888-40.254l3.381,47.78s28.2,15.828,61.295,15.828,46.043-22.446,46.043-22.446V214.068s9.444-5.6,13.051-22.178l-25.137-67.03Z"/><path fill="#e78582" d="M132.187,267.354s.315.148.925.407l.867-.455Z"/><path fill="#e78582" d="M133.112,267.761,118.5,275.428c8.007,3.949,31.59,14.324,58.386,14.324,33.093,0,46.043-22.446,46.043-22.446s-9.3,9.345-40.174,9.345C155.773,276.651,137.335,269.552,133.112,267.761Z"/><path fill="#e78582" d="M224.185,186.679l-9.568-11.024c-24.3,41.415-70.5,71.589-99.782,87.6l.754,10.665s1.978,1.106,5.473,2.727C181.154,251.485,224.185,186.679,224.185,186.679Z"/><path fill="#e78582" d="M213.235,182.839l9.534,5.644a24.6,24.6,0,0,0,13.2,3.406,69.907,69.907,0,0,0,1.055-20.986l-13.522-23.774-19.564-.595S191.561,169.7,213.235,182.839Z"/><path fill="#e78582" d="M113.835,205.158l.081.231a23.8,23.8,0,0,0,21.031,16.08q.6.03,1.214.03h31.978l-7.755,5.559L127.3,230.909s-9.31.8-15.088-4.765C112.208,226.144,110.741,212.289,113.835,205.158Z"/><path fill="#e78582" d="M221.868,144.249,210.841,124.86,151.848,97.81a69.713,69.713,0,0,1-4.964,17.274c3.44,5.254,11.261,15.052,24.166,19.878l1.8-6.367s15.982,16.749,40.382,16.473A51.251,51.251,0,0,0,221.868,144.249Z"/><path fill="#e78582" d="M204.242,165.209c9.743-5.04,12.614-10.361,12.614-10.361a8.533,8.533,0,0,0,1.5-2.743,1.274,1.274,0,0,0-2.024-1.369c-4.509,3.7-14.878,11.121-26.61,12.076a1.911,1.911,0,0,0-1.182,3.291C189.418,166.939,197.88,168.5,204.242,165.209Z"/><path fill="url(#dq8A49bnsIvIVenY2-zUzc)" d="M214.4,164.274S166.663,226.5,113.3,255.728a7.872,7.872,0,0,0-4,6.512l-.455,8.5a4.287,4.287,0,0,0,6.227,4.21c19.481-10.578,74.971-46.511,109.113-99.9Z"/><path fill="url(#dq8A49bnsIvIVenY2-zUzd)" d="M215.06,119.873s-6.281,10.28-11.118,26.661a18.288,18.288,0,0,0,3.746,17.25,116.2,116.2,0,0,0,13.431,13.046,18.328,18.328,0,0,0,16.435,3.543,128.571,128.571,0,0,0,19.56-7.055,11.1,11.1,0,0,0,4.647-16.185C254.1,145.51,238.955,127.526,215.06,119.873Z"/><path fill="#e78582" d="M160.931,113.943l4.348,26.221a19.5,19.5,0,0,0,7.095,12.07l2.746,2.045a1.361,1.361,0,0,0,2.036-1.69l-3.354-6.865a17.489,17.489,0,0,1-1.665-5.7l-2.979-26.08Z"/><path fill="url(#dq8A49bnsIvIVenY2-zUzk)" d="M213.235,92.011v-42s-1.248-33.6-37.286-33.6c0,0-29.944-1.247-39.793,23.122a30.442,30.442,0,0,0-2.12,9.873c-.336,6.681.593,18.133,9.182,26.721l27.856,27.951S200.9,106.508,213.235,92.011Z"/><path fill="url(#dq8A49bnsIvIVenY2-zUzl)" d="M151.124,74.224A27.553,27.553,0,0,1,169.75,96.171s1.042-3.727,5.8-7.868c0,0,1.45,7.04,8.9,14.079,0,0,6.418-10.371,17.391-10.371h11.387s6.872,29.275,3.145,44.389c0,0-27.161-.271-45.381-22.01a29.678,29.678,0,0,1-2.277,6.625s-20.772-6.169-20.7-31.263Z"/><path fill="#e78582" d="M64.749,221.328c.329.637.7,1.29,1.083,1.937a1.309,1.309,0,0,0,2.4-.978A129.591,129.591,0,0,1,65.1,197.1l-2.154-.734a48.365,48.365,0,0,0-2.61,7.348L28.4,231.91s.8,6.832,5.4,16.553c13.694-9.077,24.3-22.171,28.219-27.379A1.617,1.617,0,0,1,64.749,221.328Z"/><path fill="url(#dq8A49bnsIvIVenY2-zUzm)" d="M155.746,84.105V80.8a12.973,12.973,0,0,0-4.985-10.4,12,12,0,0,0-2.426-1.421,7,7,0,0,0-9.674,5.513,18.471,18.471,0,0,0,3.081,13.671s2.765,4.483,7.533,3.783A7.819,7.819,0,0,0,155.746,84.105Z"/><path fill="url(#dq8A49bnsIvIVenY2-zUzn)" d="M55.107,146.151s8.018,25.531,10,50.944a22.12,22.12,0,0,1-5.138,16C53.8,220.4,42.187,231.484,23.5,239.7a4.849,4.849,0,0,1-6.761-4.047c-1.481-17.362-4.268-65.136,6.876-91.841Z"/><path fill="#fff0e9" d="M233.274,267.205a8.2,8.2,0,0,0-13.71-.415c-5.037,7.162-16.882,17.805-42.857,17.982-34.339.234-52.278-8.7-63.073-14.129-6.251-3.143-13.517,1.965-12.4,8.773a18.434,18.434,0,0,0,1.944,5.589,5.661,5.661,0,0,0,7.631,2.352l2.892-1.522s6.152,19.615,33.651,27.237a6.477,6.477,0,0,0,7.862-3.867,18.284,18.284,0,0,0,.942-6.8s9.829,10.572,32.8,11.579a7.25,7.25,0,0,0,6.992-4.246A31.094,31.094,0,0,0,197.551,305s12.5,4.459,25.067-.242a8.459,8.459,0,0,0,4.918-11.033l-.979-2.479s8.809-2.407,8.809-15.787A15.674,15.674,0,0,0,233.274,267.205Z"/><path fill="#e7bcbc" d="M234.532,281.952c-2.062.034-24.639.958-23.163,24.936a35.118,35.118,0,0,0,11.249-2.134,8.459,8.459,0,0,0,4.918-11.033l-.979-2.479S232.335,289.661,234.532,281.952Z"/><path fill="url(#dq8A49bnsIvIVenY2-zUzo)" d="M247.216,244.15a65.56,65.56,0,0,1,46.409-12.881,3.867,3.867,0,0,1,3.443,4.087c-.792,13-5.817,57.648-37.614,78.637l-16.163-29.082s8.98-17.577,2.635-36.424A3.894,3.894,0,0,1,247.216,244.15Z"/><path fill="#e78582" d="M190.327,70.486a2.943,2.943,0,0,1-1.113-.22,15.4,15.4,0,0,0-1.618-.557,2.953,2.953,0,0,1,1.6-5.684,21.354,21.354,0,0,1,2.241.772,2.954,2.954,0,0,1-1.115,5.689Z"/><path fill="#e78582" d="M204.912,70.079a2.953,2.953,0,0,1-1.063-5.709c.077-.029.777-.3,1.832-.6a2.953,2.953,0,1,1,1.636,5.675c-.812.234-1.349.436-1.354.439A2.959,2.959,0,0,1,204.912,70.079Z"/><path fill="#e78582" d="M157.307,165.209c-9.743-5.04-12.613-10.361-12.613-10.361a8.533,8.533,0,0,1-1.5-2.743,1.274,1.274,0,0,1,2.024-1.369c4.509,3.7,14.878,11.121,26.609,12.076a1.911,1.911,0,0,1,1.183,3.291C172.132,166.939,163.67,168.5,157.307,165.209Z"/><path fill="#e78582" d="M147.094,211.492h-4.566a2.953,2.953,0,1,1,0-5.906h4.566a2.953,2.953,0,1,1,0,5.906Z"/><path fill="#874339" d="M263.379,161.145a81.009,81.009,0,0,1-23.563,7.334,21.36,21.36,0,0,1-15.94-4.044l-7.5-5.608c-7.837-7.223-9.827-14.591-9.869-20.135-.885,2.456-1.766,5.112-2.6,7.955a18.2,18.2,0,0,0,3.775,17.131,116.309,116.309,0,0,0,13.437,13.054,18.329,18.329,0,0,0,16.426,3.543,128.665,128.665,0,0,0,19.568-7.057A11.086,11.086,0,0,0,263.379,161.145Z"/><path fill="#874339" d="M15.428,193.875c17.119-7.852,34.8-23.795,43.755-32.537-2.177-9.134-4.076-15.187-4.076-15.187l-31.491-2.342C17.975,157.326,15.907,176.238,15.428,193.875Z"/><path fill="url(#dq8A49bnsIvIVenY2-zUzp)" d="M27.7,113.857a88.659,88.659,0,0,1,23.153-6.548A15.769,15.769,0,0,1,68.554,122.7a46.048,46.048,0,0,1-1.787,13.08,20,20,0,0,1-11.643,12.993,89.031,89.031,0,0,1-30.188,6.675,13.3,13.3,0,0,1-13.377-16.642A86.6,86.6,0,0,1,16.6,124.631,21.449,21.449,0,0,1,27.7,113.857Z"/><path fill="#874339" d="M247.207,272.687a50.845,50.845,0,0,1-3.916,12.224l16.163,29.082c19.736-13.027,29.153-35.166,33.65-53.2C273.878,274.493,253.18,273.368,247.207,272.687Z"/><path fill="url(#dq8A49bnsIvIVenY2-zUzq)" d="M258.4,292.152c-5.892-11.771-21.284-15.355-31.309-6.824q-.458.389-.914.81s-12.237,10.2-.223,28.447a20.057,20.057,0,0,0,16.745,9.023h5.871a13.749,13.749,0,0,0,13.3-9.738C263.306,308.847,263.187,301.725,258.4,292.152Z"/><path fill="#e78582" d="M111.773,205.468C100.194,234.9,77.4,254.845,63.785,264.716c14.294-4.421,33.6-15.058,48.423-38.572,2.454-7.362,2.311-15.4,1.863-20.365A1.19,1.19,0,0,0,111.773,205.468Z"/><path fill="#e78582" d="M208.617,248.127a20,20,0,0,1-8.886,2.185,2.318,2.318,0,0,1-2.37-2.377c.16-6.924-.967-11.379-2.766-14.968-.6-1.188-2.168-.559-2.006.8a35.113,35.113,0,0,1-.7,14.423,3.615,3.615,0,0,1-2.682,2.492c-5.429,1.214-10.642,1.032-13.7-.037-.847-.295-1.467.962-.813,1.655,2.589,2.746,7.6,6.218,15.562,4.627a2.1,2.1,0,0,1,2.5,1.628,38.1,38.1,0,0,1,.694,10.435c-.1,1.291,1.382,1.891,1.98.8a24.863,24.863,0,0,0,2.915-11.525,2.265,2.265,0,0,1,2.211-2.173s7.013-1.007,8.88-6.4C209.729,248.845,209.287,247.746,208.617,248.127Z"/><path fill="url(#dq8A49bnsIvIVenY2-zUzr)" d="M203.154,86.3h0c-13.666-.339-18.2,7.36-19.492,14.425a4.456,4.456,0,0,0,6.816,4.581,20.014,20.014,0,0,1,22.137-.525,4.443,4.443,0,0,0,6.743-4.487C218.189,93.347,214.331,85.965,203.154,86.3Z"/><path fill="url(#dq8A49bnsIvIVenY2-zUzs)" d="M324.666,132.322a.2.2,0,0,1-.008-.022,125.219,125.219,0,0,1-4.515-32.065V61.9A20.051,20.051,0,0,0,298.3,41.942c-14.988,1.316-31.168,6.225-46.794,14.194a3.448,3.448,0,0,0,.84,6.437c.176.038,17.679,4.02,22.587,19.341a3.445,3.445,0,1,0,6.561-2.1c-3.711-11.585-12.731-17.856-19.484-21.046a117.474,117.474,0,0,1,36.892-9.96A13.161,13.161,0,0,1,313.253,61.9v21.34L221.372,94.554a18.51,18.51,0,0,0-4.692-7.187V50.007c0-.043,0-.086,0-.128C216.664,49.51,214.86,13,176.014,12.96c-2.164-.072-32.572-.653-43.051,25.276a33.786,33.786,0,0,0-2.369,10.992c-.3,6.022.38,14.76,5.139,22.8a10.613,10.613,0,0,0-.486,1.988,21.8,21.8,0,0,0,3.642,16.072,12.354,12.354,0,0,0,5.96,4.765,38.388,38.388,0,0,0,2.171,9.306c0,.009-.007.016-.009.024a66.794,66.794,0,0,1-6.171,15.406l-69.152,8.977A47.7,47.7,0,0,0,72,122.661a18.8,18.8,0,0,0-.256-2.74l64.036-7.885a3.445,3.445,0,0,0-.842-6.838L69.384,113.27a19.229,19.229,0,0,0-18.949-9.381,92.365,92.365,0,0,0-24.086,6.8,24.859,24.859,0,0,0-12.884,12.5,89.982,89.982,0,0,0-5.238,14.743,16.552,16.552,0,0,0,3.126,14.682,16.792,16.792,0,0,0,4.76,4.065c-6.754,34.6-2.366,83.709-2.173,85.82a3.446,3.446,0,0,0,4.635,2.913c22.461-8.381,36.334-20.988,44.017-30.087a25.534,25.534,0,0,0,3.955-6.386,41.928,41.928,0,0,1-.8,17.17,3.445,3.445,0,1,0,6.665,1.746,50.325,50.325,0,0,0-3.741-34.837c7.247-11.055,17.381-11.188,17.8-11.188h0a3.425,3.425,0,0,0,3.459-2.936c6.086-40.761,42.518-41.517,44.059-41.529a3.445,3.445,0,0,0,2.316-.906c7.765-7.12,12.458-16.117,15.283-23.9a34.241,34.241,0,0,0,16.151,11.758,3.446,3.446,0,0,0,4.014-1.669c.271-.5.523-1.038.752-1.578a57.906,57.906,0,0,0,31.106,15.515c-1.085,2.949-2.085,5.953-2.977,8.973a21.626,21.626,0,0,0,4.461,20.5c.6.685,1.224,1.345,1.839,2.015a470.25,470.25,0,0,1-47.806,50c-.046,0-.089-.014-.136-.014H136.162a21.086,21.086,0,0,1-17.491-9.181c-.2-.3-.315-.48-.339-.518a3.424,3.424,0,0,0-.669-.778,57.71,57.71,0,0,0-.855-7.292,3.444,3.444,0,0,0-6.756,1.347c.025.125,2.389,12.422-.988,23.027-18.147,28.528-42.7,36.335-52.446,38.368a13.246,13.246,0,0,1-13.741-5.58,81.721,81.721,0,0,1-4.282-7.107,3.445,3.445,0,0,0-6.077,3.248,88.361,88.361,0,0,0,4.644,7.708,20.09,20.09,0,0,0,16.7,8.907,20.427,20.427,0,0,0,4.167-.431c9.65-2.013,32.639-9.2,51.436-33.658l1.218,17.21a11.425,11.425,0,0,0-4.818,8.733l-.263,4.914a12.155,12.155,0,0,0-3.1,1.649,11.691,11.691,0,0,0-4.724,10.906,121.9,121.9,0,0,0-12.887,43.716,3.459,3.459,0,0,0,0,.367h6.9a118.48,118.48,0,0,1,9.42-35.4,9.108,9.108,0,0,0,10.817,2.394c3.326,6.5,12.548,19.732,34.409,25.791a9.951,9.951,0,0,0,12.019-6q.263-.72.466-1.489c5.406,3.447,15.115,7.883,29.885,8.531.159.007.316.011.475.011a10.745,10.745,0,0,0,9.824-6.316q.4-.924.764-1.921a44.559,44.559,0,0,0,19.428.131,39.948,39.948,0,0,0,3.783,7.146,23.432,23.432,0,0,0,19.623,10.574h5.871a17.223,17.223,0,0,0,16.607-12.231c.084-.293.154-.59.227-.886a3.519,3.519,0,0,0,.314-.2c34.255-26.782,34.936-79.736,34.948-81.977a3.444,3.444,0,0,0-2.913-3.422,72.282,72.282,0,0,0-9.7-.851,119.113,119.113,0,0,0-29.96-50.831c.151-.068.305-.128.455-.2a14.537,14.537,0,0,0,7.5-18.5,100.023,100.023,0,0,0,6.339-9.511c20.383,2.254,36.962-4.376,46.866-9.959a149.573,149.573,0,0,0,5.587,15.692c-12.769,13.8-29.8,22.034-50.67,24.48a3.445,3.445,0,1,0,.8,6.843c23.421-2.746,42.435-12.3,56.514-28.41a3.446,3.446,0,0,0,.522-3.738A138.266,138.266,0,0,1,324.666,132.322ZM16.73,148.306a9.723,9.723,0,0,1-1.838-8.625,82.79,82.79,0,0,1,4.833-13.61,17.969,17.969,0,0,1,9.319-9.043,85.406,85.406,0,0,1,22.218-6.3,12.424,12.424,0,0,1,9.683,2.992,12.034,12.034,0,0,1,4.164,9.018,42.741,42.741,0,0,1-1.657,12.1,16.631,16.631,0,0,1-9.639,10.744,85.661,85.661,0,0,1-29,6.419A9.789,9.789,0,0,1,16.73,148.306Zm40.6,62.574c-6.656,7.881-18.327,18.6-36.885,26.383-.916-13.012-2.922-50.861,2.276-78.454.563.056,2.129.09,2.342.082A92,92,0,0,0,53.524,153.1c2.369,8.676,6.766,26.568,8.143,44.259A18.6,18.6,0,0,1,57.329,210.88Zm75.2-80.331c-7.455.555-41.642,5.256-48.97,44.664a29.675,29.675,0,0,0-16.481,8.8,285.857,285.857,0,0,0-7.211-33.823,23.527,23.527,0,0,0,10.211-13.476c.1-.343.183-.687.273-1.031l65.258-8.471A43.925,43.925,0,0,1,132.533,130.549Zm83.428-29.686a.964.964,0,0,1-.459,1,.877.877,0,0,1-1.011.028,23.6,23.6,0,0,0-25.922.547.891.891,0,0,1-1.06.006,1.024,1.024,0,0,1-.458-1.1c1.432-7.808,6.416-11.612,15.227-11.612.26,0,.915.012.979.01C207.874,89.592,214.233,90.607,215.961,100.863ZM140.484,66.309a35.362,35.362,0,0,1-3.008-16.736,26.91,26.91,0,0,1,1.875-8.755c8.8-21.773,35.323-21.018,36.454-20.971.048,0,.095,0,.143,0,31.835,0,33.753,28.411,33.842,30.233V83.605a22.551,22.551,0,0,0-6.644-.754c-12.588-.29-18.389,5.641-21.054,11.427a22.824,22.824,0,0,1-3.164-6.669,3.444,3.444,0,0,0-5.634-1.905,29.174,29.174,0,0,0-2.384,2.316,31.042,31.042,0,0,0-13.5-14.816l-.006,0a15.722,15.722,0,0,0-4.573-5.562,15.493,15.493,0,0,0-3.12-1.827,10.255,10.255,0,0,0-9.2.474C140.505,66.294,140.5,66.3,140.484,66.309Zm8.29,22.219c-2.428.358-4.051-2.109-4.1-2.182s-.1-.155-.155-.229a14.844,14.844,0,0,1-2.446-11.166,3.581,3.581,0,0,1,1.815-2.655,3.484,3.484,0,0,1,1.71-.454,3.394,3.394,0,0,1,1.358.285,8.567,8.567,0,0,1,1.73,1.016A9.546,9.546,0,0,1,152.3,80.8v3.308A4.36,4.36,0,0,1,148.774,88.528Zm24.866,23.649a3.447,3.447,0,0,0-6.012,1.5c-.111.529-.387,1.64-.776,2.839a27.534,27.534,0,0,1-15.058-21.68,11.393,11.393,0,0,0,7.4-10.732V82.977a24.259,24.259,0,0,1,7.165,13.787,3.445,3.445,0,0,0,6.711.335,10.365,10.365,0,0,1,1.3-2.4,36.961,36.961,0,0,0,5.947,8.389,7.919,7.919,0,0,0,3.407,5.105,7.737,7.737,0,0,0,8.667-.023c5.825-3.877,12.858-4.069,18.354-.5a7.9,7.9,0,0,0,1.471.73c.934,8.985.961,16.524.061,22.06C205.616,130.319,187.221,128.381,173.64,112.177ZM117.452,217.854a28.1,28.1,0,0,0,18.71,7.09h15.046a259.98,259.98,0,0,1-33.9,24.506l-1.621-22.9A45.576,45.576,0,0,0,117.452,217.854Zm-4.712,44.57a4.442,4.442,0,0,1,2.213-3.674c43.323-23.729,82.973-68.938,96.8-85.688,1.956,1.9,3.972,3.7,6.022,5.437-34.633,50.871-87.314,83.551-99.43,90.642-1.122-.55-2.175-1.079-3.163-1.576a12.3,12.3,0,0,0-2.664-.969Zm123.486,3a11.52,11.52,0,0,0-9.5-5.578c-.12,0-.238.01-.358.01V233.7a56.666,56.666,0,0,0,15.194,12.439,3.428,3.428,0,0,0,.244,1.162c4.771,11.669,2.794,23.155.689,30.044a23.564,23.564,0,0,0-3.74-.124c.032-.581.052-1.169.052-1.768A19.145,19.145,0,0,0,236.226,265.429Zm-15.057-54.324c-.073.044-.139.095-.209.143-.022.016-.046.025-.068.04-9.391,6.874-20.646,6.769-20.827,6.766a3.483,3.483,0,0,0-3.521,3.361,3.446,3.446,0,0,0,3.36,3.528c.039,0,.137,0,.29,0a45.569,45.569,0,0,0,19.288-4.753v41.87a11.671,11.671,0,0,0-2.735,2.746c-4.288,6.1-15.2,16.35-40.063,16.519-.437,0-.864,0-1.294,0-23.374,0-38.773-4.36-49.415-8.736,17.5-10.736,65.149-42.7,97.507-90.236a21.861,21.861,0,0,0,9.305,2.092c.283,0,.567-.017.85-.028C231.824,204.3,221.608,210.834,221.169,211.105Zm-3.681,91.577a38.4,38.4,0,0,1-18.779-.93,3.445,3.445,0,0,0-4.494,2.386,27.849,27.849,0,0,1-1.43,4.219,3.841,3.841,0,0,1-3.686,2.188c-21.069-.925-30.349-10.405-30.425-10.484a3.446,3.446,0,0,0-5.967,2.442,15.027,15.027,0,0,1-.734,5.523,3.032,3.032,0,0,1-3.705,1.726c-25.19-6.982-31.052-24.233-31.284-24.947a3.444,3.444,0,0,0-4.89-2.018l-2.894,1.521a2.2,2.2,0,0,1-1.693.152,2.154,2.154,0,0,1-1.283-1.057,15.078,15.078,0,0,1-1.594-4.543,4.749,4.749,0,0,1,1.945-4.688,5.2,5.2,0,0,1,5.511-.451c10.82,5.441,28.836,14.5,63.292,14.5.447,0,.9,0,1.352,0,27.955-.19,40.6-12.264,45.652-19.445a4.766,4.766,0,0,1,4.1-2.035,4.592,4.592,0,0,1,3.837,2.245,12.4,12.4,0,0,1,1.6,6.473,22.774,22.774,0,0,1-.243,3.219,23.111,23.111,0,0,0-6.826,4.031q-.512.435-1.02.905h0A22.085,22.085,0,0,0,217.488,302.682Zm41.063,10.236a10.306,10.306,0,0,1-9.986,7.245h-5.871a16.562,16.562,0,0,1-13.869-7.473c-10.072-15.3-.822-23.581-.447-23.9.046-.039.091-.078.135-.119q.4-.372.805-.715a16.2,16.2,0,0,1,10.541-3.87,16.881,16.881,0,0,1,3.37.342,17.3,17.3,0,0,1,12.086,9.271C259.009,301.073,260.1,307.541,258.551,312.918Zm35.093-78.181C293,245.5,289.1,282.475,265.907,304.463a42.389,42.389,0,0,0-4.431-13.853,24.138,24.138,0,0,0-12.3-11.525c2.231-7.444,4.248-19.438-.09-32.01A62.6,62.6,0,0,1,293.644,234.737ZM280.925,227.7a68.575,68.575,0,0,0-34.909,13.026,48.388,48.388,0,0,1-19.4-18.593,3.449,3.449,0,0,0-.241-.339v-5.971c3.856-3.11,13-12.547,14.275-32.762q5.32-1.542,10.515-3.537A112,112,0,0,1,280.925,227.7ZM259.843,165.35a7.613,7.613,0,0,1-4.159,4.834,124.3,124.3,0,0,1-18.7,6.767,3.371,3.371,0,0,0-.983.232,14.9,14.9,0,0,1-12.691-3.013,112.2,112.2,0,0,1-13.028-12.658,14.77,14.77,0,0,1-3.033-14c1.016-3.438,2.18-6.852,3.455-10.183.787.033,4.511-.027,4.7-.044a3.443,3.443,0,0,0,3.043-2.606,50.841,50.841,0,0,0,1.277-9.425c19.092,7.917,31.758,22.541,39.165,33.777A7.633,7.633,0,0,1,259.843,165.35Zm7.68-22.3-.013.021a91.9,91.9,0,0,1-5.37,8.546c-8.555-11.952-22.293-26.191-42.356-33.719q-.141-4.725-.7-10.167c.067-.042.138-.071.2-.115a7.786,7.786,0,0,0,3.561-6.306l90.408-11.132v7.026l-85.176,11.057a3.445,3.445,0,0,0,.439,6.862,3.394,3.394,0,0,0,.448-.03l48.942-6.353A83.538,83.538,0,0,1,267.523,143.054Zm8.367-1.215a89.483,89.483,0,0,0,8.971-34l28.465-3.695a133.76,133.76,0,0,0,4.053,27.46C308.984,136.607,294.253,143.11,275.89,141.839Z"/></svg>