<svg xmlns="http://www.w3.org/2000/svg" xmlns:xlink="http://www.w3.org/1999/xlink" viewBox="0 0 340 340" width="500px" height="500px"><defs><linearGradient id="4WqFXEx4Ml5Cc6ohougEEf" x1="95.886" x2="98.501" y1="13.722" y2="338.424" gradientUnits="userSpaceOnUse"><stop offset="0" stop-color="#444456"/><stop offset="1" stop-color="#363644"/></linearGradient><linearGradient id="4WqFXEx4Ml5Cc6ohougEEc" x1="84.254" x2="89.423" y1="85.67" y2="189.052" gradientUnits="userSpaceOnUse"><stop offset="0" stop-color="#7d7daf"/><stop offset="1" stop-color="#5c5c89"/></linearGradient><linearGradient id="4WqFXEx4Ml5Cc6ohougEEe" x1="283.514" x2="294.119" y1="95.14" y2="181.414" gradientUnits="userSpaceOnUse"><stop offset="0" stop-color="#ff7b72"/><stop offset=".291" stop-color="#f37169"/><stop offset="1" stop-color="#da5b55"/></linearGradient><linearGradient id="4WqFXEx4Ml5Cc6ohougEEg" x1="257.617" x2="331.343" y1="270.876" y2="240.157" gradientUnits="userSpaceOnUse"><stop offset="0" stop-color="#baa7a0"/><stop offset="1" stop-color="#a08075"/></linearGradient><linearGradient id="4WqFXEx4Ml5Cc6ohougEEh" x1="17.532" x2="49.4" y1="194.996" y2="270.319" gradientUnits="userSpaceOnUse"><stop offset="0" stop-color="#e9f4ff"/><stop offset="1" stop-color="#fcffff"/></linearGradient><linearGradient id="4WqFXEx4Ml5Cc6ohougEEa" x1="87.169" x2="72.154" y1="332.605" y2="301.231" gradientUnits="userSpaceOnUse"><stop offset="0" stop-color="#6f6f81"/><stop offset="1" stop-color="#555568"/></linearGradient><linearGradient id="4WqFXEx4Ml5Cc6ohougEEi" x1="185.331" x2="181.763" y1="321.907" y2="276.836" xlink:href="#4WqFXEx4Ml5Cc6ohougEEa"/><linearGradient id="4WqFXEx4Ml5Cc6ohougEEd" x1="168.656" x2="170.43" y1="191.97" y2="280.682" gradientUnits="userSpaceOnUse"><stop offset="0" stop-color="#cebbb4"/><stop offset="1" stop-color="#b49489"/></linearGradient><linearGradient id="4WqFXEx4Ml5Cc6ohougEEb" x1="172.155" x2="187.675" y1="118.439" y2="52.63" gradientUnits="userSpaceOnUse"><stop offset="0" stop-color="#ffe1db"/><stop offset="1" stop-color="#feb5a9"/></linearGradient><linearGradient id="4WqFXEx4Ml5Cc6ohougEEj" x1="170.188" x2="208.513" y1="19.444" y2="85.852" xlink:href="#4WqFXEx4Ml5Cc6ohougEEa"/><linearGradient id="4WqFXEx4Ml5Cc6ohougEEk" x1="78.312" x2="127.828" y1="230.049" y2="161.229" xlink:href="#4WqFXEx4Ml5Cc6ohougEEb"/><linearGradient id="4WqFXEx4Ml5Cc6ohougEEl" x1="158.202" x2="165.25" y1="81.738" y2="222.693" xlink:href="#4WqFXEx4Ml5Cc6ohougEEc"/><linearGradient id="4WqFXEx4Ml5Cc6ohougEEm" x1="76.387" x2="74.021" y1="256.316" y2="305.403" xlink:href="#4WqFXEx4Ml5Cc6ohougEEd"/><linearGradient id="4WqFXEx4Ml5Cc6ohougEEn" x1="281.927" x2="292.532" y1="124.789" y2="211.063" xlink:href="#4WqFXEx4Ml5Cc6ohougEEe"/><linearGradient id="4WqFXEx4Ml5Cc6ohougEEo" x1="287.535" x2="283.9" y1="51.468" y2="330.962" xlink:href="#4WqFXEx4Ml5Cc6ohougEEf"/><linearGradient id="4WqFXEx4Ml5Cc6ohougEEp" x1="172.126" x2="168.438" y1="51.731" y2="335.252" xlink:href="#4WqFXEx4Ml5Cc6ohougEEf"/></defs><path fill="url(#4WqFXEx4Ml5Cc6ohougEEf)" d="M130.188,104.437s-22.48-11.34-42.442,15.64a125.06,125.06,0,0,1-11.853,13.975,115.965,115.965,0,0,1-18.016,15.092,44.7,44.7,0,0,0,18.8,3.253,22.949,22.949,0,0,0,20.4-14.855c.756-1.993,1.7-4.3,2.868-6.931a32.778,32.778,0,0,1,7-10.262c5.755-5.592,15.716-10.871,28.9-1.04Z"/><path fill="url(#4WqFXEx4Ml5Cc6ohougEEc)" d="M138.968,102.623c-7.489-6.663-19.622-12.944-38.719-12.841,0,0-14.988.594-27.778-2.164a20.319,20.319,0,0,0-18.214,4.96L31.786,113.624s23.836,11.545,59.308-4.367a34.96,34.96,0,0,1,23.4-1.855S129.675,111.062,138.968,102.623Z"/><path fill="#4f4f68" d="M117.054,108.2c7.735,2.74,16.675,7.586,23.442,16.144l9.417-6.329s-2.57-7.932-10.948-15.387c-10.634,7.722-24.471,4.785-24.471,4.785h0C115.354,107.643,116.209,107.9,117.054,108.2Z"/><path fill="#c84343" d="M286.138,110.153s-.785-20.162,22.677-28.96c0,0,7.483,23.1-13.671,32.626Z"/><path fill="url(#4WqFXEx4Ml5Cc6ohougEEe)" d="M275.269,77.237s24.011,8.546,19.246,35.569H281.684a15.467,15.467,0,0,0-4.3-9.788,16.239,16.239,0,0,1-4.257-7.558C272.171,91.232,271.913,84.886,275.269,77.237Z"/><path fill="#c84343" d="M271.282,126.045a20.994,20.994,0,0,1,.725-7A15.063,15.063,0,0,1,288.2,108.283c7.472.8,17.755,4.605,15,19.906Z"/><path fill="#e78582" d="M218.2,207.951s10.943,35.974,50.981,35.974v24.189S237.811,272.6,215.4,247.5Z"/><path fill="url(#4WqFXEx4Ml5Cc6ohougEEg)" d="M269.184,243.925l-8.665,40.324s48.557,4.781,66.26-43.624l-6.694-6.132a11.79,11.79,0,0,0-13.812-1.559C298.245,237.523,284.329,243.925,269.184,243.925Z"/><path fill="url(#4WqFXEx4Ml5Cc6ohougEEh)" d="M13.236,188.568s44.616,53.586,59.488,96.785L56.2,299.281S12.292,264.344,13.236,188.568Z"/><path fill="url(#4WqFXEx4Ml5Cc6ohougEEa)" d="M67.88,313.737l14.547-12.478,6.793,15.23a5.854,5.854,0,0,1-2.481,7.489L83.9,325.571a5.855,5.855,0,0,1-7.379-1.375Z"/><polygon fill="url(#4WqFXEx4Ml5Cc6ohougEEi)" points="181.561 280.114 181.561 300.926 137.906 297.916 137.906 329.664 230.062 329.664 230.062 304.271 230.062 280.114 181.561 280.114"/><path fill="url(#4WqFXEx4Ml5Cc6ohougEEd)" d="M108.26,155.8s12.162,43.09,39,82.758a21.984,21.984,0,0,1,3.3,16.829l-5.185,24.729h84.684s.275-62.688-19.522-120.977C210.54,159.137,153.351,142.561,108.26,155.8Z"/><path fill="url(#4WqFXEx4Ml5Cc6ohougEEb)" d="M147.977,70.263s-7.523,2.944-1.391,16.26,27.159,26.283,27.159,26.283l39.775-9.462S218.076,90.2,216.5,71.63L173.745,41.667Z"/><path fill="#9d8d88" d="M108.26,155.8a325.816,325.816,0,0,0,24.353,58.382c3.244-2.2,8.98-8.117,11.567-23.288,14.534,11.237,33.192,19.534,43.3,23.576a10.611,10.611,0,0,0,12.83-4c4.562-7,10.3-19.737,10.388-39.629l-48.514-19.69C145.088,150.015,125.763,150.66,108.26,155.8Z"/><path fill="url(#4WqFXEx4Ml5Cc6ohougEEj)" d="M171.722,55s-6.791,4.875-8.657,21.154a.483.483,0,0,1-.915.163c-1.475-3.17-5.473-9-14.173-6.053,0,0-14.322-17.149-6.595-39.574l9.61-1.508s5.277-12.06,14.888-18.844c0,0,42.023.377,75.567,42.589l-16.96-.942s5.465,6.972,5.276,29.209C229.763,81.193,188.682,79.12,171.722,55Z"/><path fill="#a25b59" d="M185.945,280.114v25.375a10.229,10.229,0,0,1-10.229,10.228H149.657l1.949-35.6Z"/><path fill="#d07b72" d="M162.615,288.177a234.4,234.4,0,0,0-4.565,25.609,18.021,18.021,0,0,1-17.865,15.878h-14.46a12.808,12.808,0,0,1-12.662-14.591,82.68,82.68,0,0,1,10.612-31.011,14.945,14.945,0,0,1,12.846-7.247h17.1A9.232,9.232,0,0,1,162.615,288.177Z"/><path fill="url(#4WqFXEx4Ml5Cc6ohougEEk)" d="M109.235,157.7s20.31,3.02,22.921,25.837a17.748,17.748,0,0,1-8.15,17.026L85.22,225.047V258.2L63.007,243.654l-1.159-19.943a21.1,21.1,0,0,1,3.313-12.458C71.889,200.766,87.583,178.055,109.235,157.7Z"/><path fill="url(#4WqFXEx4Ml5Cc6ohougEEl)" d="M148.828,117.011A26.244,26.244,0,0,1,153.8,95.446a3.22,3.22,0,0,1,2.844-1.266,28.093,28.093,0,0,1,13.741,5.512,13.156,13.156,0,0,0,13.159,1.343,47.639,47.639,0,0,1,30.273-2.91,5.514,5.514,0,0,1,4.314,6.244,62.05,62.05,0,0,1-16.328,32.957,3.269,3.269,0,0,1-3.277.877l-4.482-1.332-1.2,4.959s2.079,4.808,13.485,8.873a8.385,8.385,0,0,1,5.585,8.342c-.468,8.5-2.261,25.933-10.43,39.122a9.877,9.877,0,0,1-12.9,3.51c-11.017-5.65-32.526-17.74-51.763-34.781a30.781,30.781,0,0,0-25.1-7.619q-.687.11-1.391.25a6.233,6.233,0,0,1-7.252-7.634c.025-.1.052-.2.079-.3a26.431,26.431,0,0,1,26.674-19.532l.427.021a18,18,0,0,1,6.328-13.339C142.911,113.612,148.828,117.011,148.828,117.011Z"/><path fill="url(#4WqFXEx4Ml5Cc6ohougEEm)" d="M63.007,243.654s22,6.258,34.04,20.182l-5.213,28.916a13.215,13.215,0,0,1-5.15,8.283L68.273,314.646A7.893,7.893,0,0,1,57.2,313a26.677,26.677,0,0,1-2.767-4.807,15.134,15.134,0,0,1,1.7-15.014L64.9,281.1Z"/><path fill="url(#4WqFXEx4Ml5Cc6ohougEEn)" d="M285.627,122.134s-35.051-5.441-36.3,37.222a38.254,38.254,0,0,0,4.322,19.207c.2.37.406.745.623,1.122,12.881,22.418,44.961,24.732,60.764,4.268a38.106,38.106,0,0,0,7.469-19.092C326.463,132.42,303.608,124.771,285.627,122.134Z"/><path fill="#4f4f68" d="M206.334,150.7c-11.407-4.065-13.485-8.873-13.485-8.873l1.2-4.959s-16.075-7.548-25.2-16.608a1.843,1.843,0,0,0-3.093,1.755c2.45,9.452,10.145,25.957,34.266,32.7,3.228.9,5.022,4.392,4.627,7.72-.695,5.865-2.4,15.139-6.543,23.4a9.159,9.159,0,0,1-12.392,3.932,179.862,179.862,0,0,1-42.885-31.357,31.968,31.968,0,0,0-17.527-9.037,21.11,21.11,0,0,0-10.276.615c-6.694,2.358-7.074-3.932-6.535-8.576a26.245,26.245,0,0,0-5.33,10.165c-.027.1-.055.207-.082.311a6.234,6.234,0,0,0,7.253,7.634q.7-.141,1.391-.25a30.776,30.776,0,0,1,25.1,7.619c19.227,17.031,40.722,29.117,51.744,34.771a9.888,9.888,0,0,0,12.924-3.5c8.169-13.189,9.962-30.619,10.43-39.122A8.385,8.385,0,0,0,206.334,150.7Z"/><path fill="#e78582" d="M195.858,89.453a2.924,2.924,0,0,1-1.047-.194c-.856-.324-1.984-.68-2-.685a2.953,2.953,0,0,1,1.777-5.633c.052.017,1.321.418,2.322.8a2.954,2.954,0,0,1-1.049,5.715Z"/><path fill="#e78582" d="M208.762,91.2a2.953,2.953,0,0,1-.721-5.817s.869-.219,2.023-.455a2.953,2.953,0,0,1,1.182,5.787c-.989.2-1.736.389-1.763.4A2.936,2.936,0,0,1,208.762,91.2Z"/><path fill="url(#4WqFXEx4Ml5Cc6ohougEEo)" d="M251.286,181.4a40.069,40.069,0,0,0,32.144,19.943q1.4.1,2.788.095a39.74,39.74,0,0,0,31.547-15.381,41.7,41.7,0,0,0,8.162-20.78c1.9-15.624-1.935-27.6-11.413-35.591a38.693,38.693,0,0,0-7.473-4.9c.251-4.933-.864-9.084-3.221-12.313,11.581-9.686,10.622-25.083,8.271-32.339a3.445,3.445,0,0,0-4.487-2.164,41.751,41.751,0,0,0-14.735,9.122,38.08,38.08,0,0,0-16.445-13.1,3.446,3.446,0,0,0-4.31,1.861,32.447,32.447,0,0,0-2.35,20.365,19.474,19.474,0,0,0,5.124,9.178,12.346,12.346,0,0,1,1.668,2.206,18.064,18.064,0,0,0-7.869,10.52,24.766,24.766,0,0,0-.584,2.826,31.8,31.8,0,0,0-8.912,5.208c-8.391,6.979-12.868,18.116-13.3,33.1a41.758,41.758,0,0,0,4.727,20.931Q250.934,180.787,251.286,181.4Zm55.065-95.408c.8,5.392.843,15.364-7.782,21.854-.013-.008-.028-.014-.042-.022a34.136,34.136,0,0,0-2.246-14.354A31.984,31.984,0,0,1,306.351,85.993ZM276.485,94.7a24.551,24.551,0,0,1,.7-12.771c4.984,2.749,14.231,9.7,14.5,23.428-1-.207-2.029-.385-3.119-.5a19.008,19.008,0,0,0-5.546.227,19.112,19.112,0,0,0-3.141-4.444A12.734,12.734,0,0,1,276.485,94.7Zm11.344,17.006c9.837,1.051,12.022,6.269,12.357,10.234a81.583,81.583,0,0,0-14.05-3.216,37.164,37.164,0,0,0-10.468.213A11.722,11.722,0,0,1,287.829,111.708ZM263.542,131.5c6.334-5.3,14.112-6.135,18.383-6.135a24.768,24.768,0,0,1,3.184.176l.019,0c26.3,3.857,36.769,15.855,33.959,38.9a34.9,34.9,0,0,1-6.776,17.4,33.39,33.39,0,0,1-55.049-3.875c-.2-.347-.389-.692-.574-1.036a34.883,34.883,0,0,1-3.916-17.479C253.149,146.569,256.773,137.163,263.542,131.5Z"/><path fill="url(#4WqFXEx4Ml5Cc6ohougEEp)" d="M322.413,231.952a15.188,15.188,0,0,0-17.848-2.009c-6.886,3.935-20.637,10.536-35.381,10.536-21.5,0-34.013-11.081-40.723-20.377-.011-.015-.025-.026-.036-.04a371.806,371.806,0,0,0-13.071-57.332,3.428,3.428,0,0,0-.2-.463c.081-1.038.153-2.058.206-3.032a11.9,11.9,0,0,0-7.868-11.777c-6.625-2.362-9.626-4.9-10.833-6.217l2.735.813a3.44,3.44,0,0,0,3.369-.819,65.2,65.2,0,0,0,18.772-36.318,8.9,8.9,0,0,0-2.868-8.044,93.066,93.066,0,0,0,1.522-13.308c5.307.835,8.913,1.044,9.4,1.069.059,0,.117,0,.174,0a3.443,3.443,0,0,0,3.445-3.416c.108-12.683-1.57-20.714-3.188-25.481l11.236.624a3.444,3.444,0,0,0,2.888-5.582c-34.173-43-76.451-43.875-78.234-43.891a3.394,3.394,0,0,0-2.017.63c-8.129,5.738-13.3,14.756-15.22,18.537l-7.825,1.227a3.447,3.447,0,0,0-2.724,2.281c-6.48,18.809,1.242,34.029,5.185,40.092a10.454,10.454,0,0,0-1.679,2.814c-1.644,4.078-1.029,9.29,1.827,15.491a38.936,38.936,0,0,0,5.535,8.451,29.023,29.023,0,0,0-4.138,16.066,14.455,14.455,0,0,0-8.823,2.415,58.01,58.01,0,0,0-17.827-9.945,38.09,38.09,0,0,0-28.454,1.134c-24.261,10.9-42.918,8.378-51.42,6.13L56.612,95.092a16.893,16.893,0,0,1,15.132-4.107c12.779,2.757,27.359,2.287,28.579,2.242h.425c14.917,0,26.8,3.791,35.332,11.271a3.445,3.445,0,1,0,4.542-5.18C130.8,90.7,117.389,86.336,100.748,86.336c-.21,0-.428,0-.634,0-.144.006-14.721.541-26.917-2.09A23.79,23.79,0,0,0,51.9,90.063L29.431,111.109a3.444,3.444,0,0,0,.854,5.615c.99.48,23.673,11.084,57.668-2.413-1.013,1.181-2.009,2.41-2.977,3.717a121.021,121.021,0,0,1-11.524,13.593A111.606,111.606,0,0,1,56,146.254a3.444,3.444,0,0,0,.432,6.017,47.646,47.646,0,0,0,18.43,3.608q.962,0,1.954-.04a26.316,26.316,0,0,0,23.477-17.073c.807-2.121,1.747-4.394,2.8-6.756a29.257,29.257,0,0,1,6.248-9.191c6.473-6.291,13.648-7.2,21.355-2.77a21.876,21.876,0,0,0-3.536,8.579,30.045,30.045,0,0,0-27.328,22.06l-.091.343a9.58,9.58,0,0,0,2.341,9.023,9.878,9.878,0,0,0,1.11.993c-18.652,16.514-35.6,40.035-40.928,48.346a24.45,24.45,0,0,0-3.854,14.518l1.16,19.943v0l.3,5.975c-18.783-33.051-43.7-63.131-43.986-63.468a3.446,3.446,0,0,0-6.093,2.161C9,252.334,39.652,288.082,50.136,298.4A18.242,18.242,0,0,0,51.288,309.6a30.331,30.331,0,0,0,3.125,5.426,11.176,11.176,0,0,0,7.391,4.5,11.515,11.515,0,0,0,1.761.135,11.272,11.272,0,0,0,4.094-.775l6.207,7.511a9.292,9.292,0,0,0,11.722,2.185l2.837-1.594a9.254,9.254,0,0,0,3.941-11.9l-4.685-10.5,1.05-.776a16.6,16.6,0,0,0,6.493-10.441l5.213-28.916a3.447,3.447,0,0,0-.785-2.865,56.6,56.6,0,0,0-10.987-9.573V226.946l37.18-23.468c6.883-4.345,11.488-12.874,11.2-20.742a37.38,37.38,0,0,0-2.839-13.54c.11.094.223.183.332.279,19.484,17.259,41.23,29.5,52.459,35.259a13.4,13.4,0,0,0,17.431-4.769,70.611,70.611,0,0,0,8.353-21.591c11.783,43.61,13.534,86.155,13.792,98.295H162.136a12.6,12.6,0,0,0-8.513-3.3h-3.311l3.622-17.278a25.547,25.547,0,0,0-3.818-19.466A275.794,275.794,0,0,1,134.508,210.4a3.445,3.445,0,1,0-6.1,3.2,282.343,282.343,0,0,0,16,26.882,18.626,18.626,0,0,1,2.779,14.191l-3.918,18.692h-6.751a18.461,18.461,0,0,0-15.8,8.928,86.79,86.79,0,0,0-11.067,32.309,16.255,16.255,0,0,0,16.075,18.5h14.461a21.466,21.466,0,0,0,20.048-13.946h15.484a13.689,13.689,0,0,0,13.673-13.674v-21.93h37.226v46.1c0,.011,0,.021,0,.031H233.5c0-.01,0-.02,0-.031V280.129c0-.181,0-5.8-.491-15.109a70.839,70.839,0,0,0,26.664,6.741l-2.528,11.764a3.445,3.445,0,0,0,3.031,4.152c.171.018,1.608.151,3.983.151a76.254,76.254,0,0,0,23.949-3.976c13.808-4.671,32.287-15.758,41.9-42.044a3.444,3.444,0,0,0-.908-3.723ZM104.537,117.878A36.109,36.109,0,0,0,96.8,129.212c-1.1,2.478-2.091,4.869-2.942,7.108a19.434,19.434,0,0,1-17.32,12.635,42.669,42.669,0,0,1-11.03-1.019,134.358,134.358,0,0,0,12.83-11.452,127.937,127.937,0,0,0,12.182-14.358,45.666,45.666,0,0,1,13.26-12.458,31.459,31.459,0,0,1,11.576,1.6A27.112,27.112,0,0,0,104.537,117.878Zm39.484-84.116,7.505-1.177a3.453,3.453,0,0,0,2.621-2.019c.047-.108,4.687-10.495,12.794-16.732,6.294.415,38.579,4.052,66.706,35.208l-8.969-.5a3.444,3.444,0,0,0-2.9,5.565c.044.056,4.127,6.066,4.517,23.306-10.151-1.162-38.824-6.01-51.753-24.4A3.445,3.445,0,0,0,172.3,51.6a3.389,3.389,0,0,0-.575-.048,3.445,3.445,0,0,0-2.009.646c-.727.522-6.126,4.745-8.912,16.745a13.37,13.37,0,0,0-2.134-1.42,13.588,13.588,0,0,0-9.31-1.2C146.359,61.882,139.5,49.424,144.021,33.762Zm5.248,39.707c2.447-.793,4.453-.76,6.118.116,3.012,1.582,4.146,5.472,4.151,5.49a3.445,3.445,0,0,0,6.759-.608c.806-9.572,3.377-15.143,5.283-18.05,11.163,13.007,28.835,19.068,41.754,21.869A86.884,86.884,0,0,1,212.129,94.3a50.654,50.654,0,0,0-32.913,5.048,3.8,3.8,0,0,1-4.326-.476c-10.113-8.708-19.815-8.221-20.219-8.192a3.418,3.418,0,0,0-1.211.312,30.157,30.157,0,0,1-3.744-5.907C146.266,77.59,147.778,74.287,149.269,73.469ZM53.345,291.152c-.1.134-.182.272-.275.408-10.622-11.148-34.1-41.446-36.245-92.969C26.9,211.539,47,238.669,60.448,265.469a3.464,3.464,0,0,0,.23.362l.718,14.226Zm31.707,29.822-2.838,1.593A2.408,2.408,0,0,1,79.178,322l-5.71-6.91,8.54-6.315,4.066,9.116A2.4,2.4,0,0,1,85.052,320.974Zm8.3-56.086-4.913,27.253a9.735,9.735,0,0,1-3.808,6.124l-18.41,13.611a4.474,4.474,0,0,1-3.372.833,4.326,4.326,0,0,1-2.866-1.737,23.327,23.327,0,0,1-2.408-4.189A11.689,11.689,0,0,1,58.922,295.2l8.764-12.079a3.445,3.445,0,0,0,.652-2.2L66.7,248.547C73.259,251,85.324,256.351,93.356,264.888Zm28.811-67.236L83.382,222.134a3.444,3.444,0,0,0-1.607,2.913v22.776a99.862,99.862,0,0,0-15.466-6.738l-1.02-17.545a17.563,17.563,0,0,1,2.772-10.427c7.732-12.052,26.338-36.193,43.754-50.354.147-.025.3-.056.443-.079a25.784,25.784,0,0,1,6.794-.16,3.513,3.513,0,0,0,.591.3c.4.155,9.92,3.987,10.515,20.173C130.359,188.436,127,194.6,122.167,197.652Zm76.4-1.313a6.467,6.467,0,0,1-8.427,2.265c-10.94-5.612-32.118-17.529-51.036-34.287a34.449,34.449,0,0,0-22.811-8.845,32.645,32.645,0,0,0-5.116.4q-.751.119-1.525.274a2.789,2.789,0,0,1-3.236-3.423l.067-.249A23.078,23.078,0,0,1,129.671,135.5l.168.008c1.732.353,16.373,3.662,23.349,15.9.344.594,8.54,14.62,20.832,20.566a12.8,12.8,0,0,0,5.58,1.27,13.019,13.019,0,0,0,8.138-2.845l.079-.063a3.445,3.445,0,1,0-4.256-5.418l-.106.085a6.094,6.094,0,0,1-6.434.769c-10.361-5.012-17.793-17.683-17.856-17.792-6.888-12.084-19.323-16.885-25.159-18.539a13.869,13.869,0,0,1,4.747-8.025c3.886-3.152,7.338-1.894,8.218-1.486a29.294,29.294,0,0,1,7.12,9.316,3.445,3.445,0,1,0,6.16-3.086,36.94,36.94,0,0,0-8.238-10.98,22.807,22.807,0,0,1,4.46-17.558,25.832,25.832,0,0,1,13.92,6.465,10.641,10.641,0,0,0,12.114,1.308,43.958,43.958,0,0,1,30.574-3.908,2.079,2.079,0,0,1,1.651,2.33,58.509,58.509,0,0,1-15.34,31.046l-4.277-1.271c-1.075-.385-17.122-6.265-23.012-15.941a3.445,3.445,0,1,0-5.884,3.583c5.7,9.358,18.091,15.379,23.772,17.751l-.491,2.034a3.448,3.448,0,0,0,.186,2.175c.289.667,1.594,3.142,5.751,5.982A38.923,38.923,0,0,1,193,154.042a3.445,3.445,0,1,0,5.927,3.513,45.539,45.539,0,0,0,2.584-5.067c1.121.494,2.327.984,3.663,1.46a4.969,4.969,0,0,1,3.3,4.908C207.886,169.607,205.687,184.837,198.568,196.339Zm-39.305,91.04h0a237.854,237.854,0,0,0-4.634,25.988,14.6,14.6,0,0,1-14.444,12.851H125.724a9.191,9.191,0,0,1-7.016-3.187,9.448,9.448,0,0,1-2.232-7.493,79.854,79.854,0,0,1,10.158-29.713,11.54,11.54,0,0,1,9.887-5.566h17.1a5.787,5.787,0,0,1,5.64,7.119Zm23.237,18.11a6.792,6.792,0,0,1-6.783,6.784H161.732a229.316,229.316,0,0,1,4.235-23.3,12.631,12.631,0,0,0,.093-5.415H182.5Zm78.646-40.555a63.339,63.339,0,0,1-28.633-7.958c-.5-7.03-1.256-15.352-2.39-24.536,7.71,7.308,18.936,13.806,34.826,14.8Zm25.01,12.306a69.914,69.914,0,0,1-21.4,3.684l7.224-33.621c14.412-.682,27.418-6.472,36-11.378a8.318,8.318,0,0,1,9.775,1.108l4.967,4.55C315.645,259.355,303.352,271.345,286.156,277.24Z"/></svg>