<svg xmlns="http://www.w3.org/2000/svg" xmlns:xlink="http://www.w3.org/1999/xlink" viewBox="0 0 340 340" width="500px" height="500px"><defs><linearGradient id="sVdeNSQGjdAHjXDtjfIXAa" x1="280.498" x2="279.595" y1="86.171" y2="146.421" gradientUnits="userSpaceOnUse"><stop offset="0" stop-color="#b0c9fe"/><stop offset="1" stop-color="#99b4e7"/></linearGradient><linearGradient id="sVdeNSQGjdAHjXDtjfIXAb" x1="297.258" x2="296.62" y1="228.204" y2="63.535" gradientUnits="userSpaceOnUse"><stop offset="0" stop-color="#e9f4ff"/><stop offset="1" stop-color="#fcffff"/></linearGradient><linearGradient id="sVdeNSQGjdAHjXDtjfIXAg" x1="297.357" x2="296.454" y1="86.424" y2="146.674" xlink:href="#sVdeNSQGjdAHjXDtjfIXAa"/><linearGradient id="sVdeNSQGjdAHjXDtjfIXAh" x1="288.603" x2="287.965" y1="228.237" y2="63.569" xlink:href="#sVdeNSQGjdAHjXDtjfIXAb"/><linearGradient id="sVdeNSQGjdAHjXDtjfIXAc" x1="266.383" x2="265.987" y1="174.917" y2="234.656" gradientUnits="userSpaceOnUse"><stop offset="0" stop-color="#6f6f81"/><stop offset="1" stop-color="#555568"/></linearGradient><linearGradient id="sVdeNSQGjdAHjXDtjfIXAd" x1="275.057" x2="270.763" y1="224.093" y2="324.993" gradientUnits="userSpaceOnUse"><stop offset="0" stop-color="#ff7b72"/><stop offset=".291" stop-color="#f37169"/><stop offset="1" stop-color="#da5b55"/></linearGradient><linearGradient id="sVdeNSQGjdAHjXDtjfIXAi" x1="289.506" x2="288.868" y1="228.234" y2="63.565" xlink:href="#sVdeNSQGjdAHjXDtjfIXAb"/><linearGradient id="sVdeNSQGjdAHjXDtjfIXAj" x1="281.505" x2="306.95" y1="197.015" y2="197.015" xlink:href="#sVdeNSQGjdAHjXDtjfIXAa"/><linearGradient id="sVdeNSQGjdAHjXDtjfIXAk" x1="305.015" x2="304.619" y1="175.173" y2="234.912" xlink:href="#sVdeNSQGjdAHjXDtjfIXAc"/><linearGradient id="sVdeNSQGjdAHjXDtjfIXAl" x1="249.87" x2="273.574" y1="311.807" y2="321.873" xlink:href="#sVdeNSQGjdAHjXDtjfIXAa"/><linearGradient id="sVdeNSQGjdAHjXDtjfIXAf" x1="151.786" x2="149.81" y1="19.015" y2="343.486" gradientUnits="userSpaceOnUse"><stop offset="0" stop-color="#444456"/><stop offset="1" stop-color="#363644"/></linearGradient><linearGradient id="sVdeNSQGjdAHjXDtjfIXAe" x1="105.523" x2="100.051" y1="230.299" y2="325.759" gradientUnits="userSpaceOnUse"><stop offset="0" stop-color="#f1bab5"/><stop offset="1" stop-color="#c97e76"/></linearGradient><linearGradient id="sVdeNSQGjdAHjXDtjfIXAm" x1="120.916" x2="124.254" y1="143.832" y2="265.347" gradientUnits="userSpaceOnUse"><stop offset="0" stop-color="#efdcd5"/><stop offset="1" stop-color="#d5b5aa"/></linearGradient><linearGradient id="sVdeNSQGjdAHjXDtjfIXAn" x1="200.492" x2="141.94" y1="140.829" y2="243.295" xlink:href="#sVdeNSQGjdAHjXDtjfIXAc"/><linearGradient id="sVdeNSQGjdAHjXDtjfIXAo" x1="182.122" x2="168.149" y1="182.245" y2="230.651" gradientUnits="userSpaceOnUse"><stop offset="0" stop-color="#ffd58a"/><stop offset=".553" stop-color="#ffbe65"/><stop offset="1" stop-color="#ffae4c"/></linearGradient><linearGradient id="sVdeNSQGjdAHjXDtjfIXAp" x1="176.667" x2="172.681" y1="47.654" y2="117.279" gradientUnits="userSpaceOnUse"><stop offset="0" stop-color="#ffe1db"/><stop offset="1" stop-color="#feb5a9"/></linearGradient><linearGradient id="sVdeNSQGjdAHjXDtjfIXAq" x1="176.412" x2="176.412" y1="86.091" y2="147.434" xlink:href="#sVdeNSQGjdAHjXDtjfIXAd"/><linearGradient id="sVdeNSQGjdAHjXDtjfIXAr" x1="128.837" x2="125.797" y1="21.369" y2="158.174" xlink:href="#sVdeNSQGjdAHjXDtjfIXAe"/><linearGradient id="sVdeNSQGjdAHjXDtjfIXAs" x1="201.332" x2="195.859" y1="235.791" y2="331.251" xlink:href="#sVdeNSQGjdAHjXDtjfIXAe"/><linearGradient id="sVdeNSQGjdAHjXDtjfIXAt" x1="193.19" x2="193.19" y1="86.091" y2="147.434" xlink:href="#sVdeNSQGjdAHjXDtjfIXAd"/><linearGradient id="sVdeNSQGjdAHjXDtjfIXAu" x1="62.481" x2="63.272" y1="229.004" y2="294.281" xlink:href="#sVdeNSQGjdAHjXDtjfIXAc"/><linearGradient id="sVdeNSQGjdAHjXDtjfIXAv" x1="165.687" x2="172.249" y1="28.119" y2="307.009" xlink:href="#sVdeNSQGjdAHjXDtjfIXAf"/></defs><path fill="url(#sVdeNSQGjdAHjXDtjfIXAa)" d="M288.393,74.239h-7.762a8.739,8.739,0,0,0-8.739,8.738v40.064l16.5,13.828Z"/><path fill="url(#sVdeNSQGjdAHjXDtjfIXAb)" d="M304.893,18.867h-16.5V120.4c1.028,10.2,11.9,16.471,16.5,14.392Z"/><path fill="url(#sVdeNSQGjdAHjXDtjfIXAg)" d="M288.393,120.4v23.89c6.155,2.033,11.891,3.5,16.5,3.467V134.79C299.789,135.841,292.234,130.094,288.393,120.4Z"/><path fill="url(#sVdeNSQGjdAHjXDtjfIXAh)" d="M271.892,200.294V123.041s10.429-2.19,16.824,10.949,16.177,13.765,16.177,13.765V193.5Z"/><path fill="#a08988" d="M208.78,164.948s5.305,31.159,30.375,39.653l15.384,48.663s-33.643,14.581-50.56-3.937Z"/><path fill="url(#sVdeNSQGjdAHjXDtjfIXAc)" d="M239.155,204.6l8.832,58.349S271.348,264.09,293,237.6V201.7S264.225,210.159,239.155,204.6Z"/><path fill="url(#sVdeNSQGjdAHjXDtjfIXAd)" d="M271.892,237.511a29.308,29.308,0,0,1-3.316,8.992,33.43,33.43,0,0,1-3.543,5.118c-4.637,5.635-22.823,30.572-15.657,67.488h42.657s-10.894-27.855,5.59-59.314C297.623,259.8,293.665,237.261,271.892,237.511Z"/><path fill="url(#sVdeNSQGjdAHjXDtjfIXAi)" d="M271.892,200.294l35.058-25.263v60.155a27.959,27.959,0,0,1-3.228,13.041l-6.1,11.568s-12.222-18.424-25.731-22.284Z"/><path fill="url(#sVdeNSQGjdAHjXDtjfIXAj)" d="M301.332,167.488s-19.827.064-19.827,21.846v18.573s1.054,20.6,25.445,18.48V175.031Z"/><rect width="32.355" height="52.815" x="288.716" y="167.09" fill="url(#sVdeNSQGjdAHjXDtjfIXAk)" rx="16.178"/><path fill="url(#sVdeNSQGjdAHjXDtjfIXAl)" d="M251.661,327.488h38.581a5.842,5.842,0,0,0,5.093-8.7,13.872,13.872,0,0,0-4.439-4.859,13.328,13.328,0,0,0-7.4-2.111H253.686s-8.423,0-8.9,8.392A6.891,6.891,0,0,0,251.661,327.488Z"/><polygon fill="url(#sVdeNSQGjdAHjXDtjfIXAf)" points="113.673 327.218 186.146 327.218 186.146 257.159 138.621 257.159 113.673 327.218"/><path fill="url(#sVdeNSQGjdAHjXDtjfIXAe)" d="M160.642,257.429s-14.024,18.148-24.155,52.957a23.758,23.758,0,0,1-22.814,17.1H50.936a7.222,7.222,0,0,1-6.947-9.217c4.233-14.681,15.205-43.534,39.409-61.382Z"/><path fill="url(#sVdeNSQGjdAHjXDtjfIXAm)" d="M212.714,147.893s.378,25.288,4.614,46.151c3.734,18.386,3.734,44.882,1.172,58.591a5.9,5.9,0,0,1-5.809,4.794H59.72s-26.869-.713-32.875-24.3S50.7,168.879,50.7,168.879c10.5-24.834,56.405-33.819,95.269-51.649l53.15,13.277Z"/><path fill="#a08988" d="M211.066,152.33l-84.536,105.1h33.286c7.685-7.1,13.018-13.186,13.018-13.186l2.166.3a10.4,10.4,0,0,0,8.751-2.9,189.087,189.087,0,0,0,20.829-24.618c12.279-17.348,3.537-24.4,3.537-24.4a126.169,126.169,0,0,0,6.229-12.333Z"/><path fill="#a08988" d="M145.972,117.23c-36.735,16.853-79.745,25.812-93.214,47.714a14.357,14.357,0,0,1,12.71,4.619,33.472,33.472,0,0,0,8.86,6.876c11.206,5.808,35.268,15.007,59.655,3.383a54.707,54.707,0,0,0,27.271-29.328,41.913,41.913,0,0,0,2.26-7.662l6.558,5.4a4.375,4.375,0,0,0,5.668-.092l5.467-4.805s2.388,6.462,11.983,13.427c4.2,3.052,11.648-2.611,18.686-9.938l-12.754-16.314Z"/><path fill="url(#sVdeNSQGjdAHjXDtjfIXAn)" d="M202.61,133.823S175.834,205.2,106.655,257.429H143.6S197.6,214.61,216.449,150.6a20.471,20.471,0,0,0,.649-8.952c-.785-5.011-3.349-11.969-11.3-15.138Z"/><path fill="url(#sVdeNSQGjdAHjXDtjfIXAo)" d="M184.887,178.637,199,192.087a9.249,9.249,0,0,1,1.66,11.291c-3.957,6.9-11.148,18.086-20.629,27.159a9.274,9.274,0,0,1-11.471,1.094,126.437,126.437,0,0,1-16.717-12.752,9.241,9.241,0,0,1-1.2-12.063c5.056-7.177,13.688-19.133,20.8-27.486A9.261,9.261,0,0,1,184.887,178.637Z"/><path fill="url(#sVdeNSQGjdAHjXDtjfIXAp)" d="M174.467,28s21.642-1.051,29.37,22.485A45.224,45.224,0,0,1,205.989,64.6v45.512H164.4L143.739,84.42S133.144,37,174.467,28Z"/><path fill="#e78582" d="M182.98,29.253A28.48,28.48,0,0,0,174.467,28C133.144,37,143.739,84.42,143.739,84.42l19.455,24.193a294.147,294.147,0,0,0-3.469-32.879,46.409,46.409,0,0,1,2.093-24.045A38.745,38.745,0,0,1,182.98,29.253Z"/><path fill="url(#sVdeNSQGjdAHjXDtjfIXAq)" d="M148.416,77.957s4.173,7.248,15.234,15.348a19.019,19.019,0,0,0,9.8,3.636l32.542,2.443s4.5,30.748-7.039,43.342a7.013,7.013,0,0,1-9.544.6,28.878,28.878,0,0,1-7.439-8.981l-3.157,1.948a7.352,7.352,0,0,1-7.417.195c-6.458-3.569-18.963-12.209-22.977-27.236C142.918,88.67,148.416,77.957,148.416,77.957Z"/><path fill="#be5249" d="M148.416,77.957s-5.5,10.713,0,31.3c2.72,10.184,9.339,17.426,15.334,22.152a379.6,379.6,0,0,0-1.842-39.416C152.154,84.437,148.416,77.957,148.416,77.957Z"/><path fill="#be5249" d="M180.373,113.192c8.3-5.522,18.436-5.912,26.472-1.2a104.075,104.075,0,0,0-.856-12.609l-32.542-2.443c-.137-.01-.273-.032-.411-.045a16.252,16.252,0,0,0-2.021,8.658C171.049,110.439,176.306,115.9,180.373,113.192Z"/><path fill="url(#sVdeNSQGjdAHjXDtjfIXAr)" d="M203.979,30.592S164.217,23.8,153.968,53.005a36.585,36.585,0,0,0-1.92,13.133c.192,7.034,1.089,20.8,2.429,33.536.207,1.962.473,3.912.776,5.861,1.644,10.55,6.68,58.593-35.774,68.782,0,0-25.843,4.329-50.386-8.331a15.669,15.669,0,0,0-16.74,1.484q-.822.636-1.65,1.409s-6.69-23.359,34.714-49.951A59.988,59.988,0,0,0,112.666,75.4,122.151,122.151,0,0,1,121.1,42.2s-6.172-5.438-7.789-12.639c0,0,13.08-17.047,49.525-17.047C162.831,12.516,193.19,11.928,203.979,30.592Z"/><path fill="url(#sVdeNSQGjdAHjXDtjfIXAs)" d="M176.412,257.429v60.325a9.734,9.734,0,0,0,9.734,9.734h24.416a9.734,9.734,0,0,0,9.734-9.734v-50.4a9.921,9.921,0,0,0-9.922-9.921Z"/><path fill="#e78582" d="M185.1,68.969a3.436,3.436,0,0,1-1.117-.187,18.4,18.4,0,0,0-3.308-.758,3.445,3.445,0,0,1,.79-6.844,24.873,24.873,0,0,1,4.752,1.084,3.446,3.446,0,0,1-1.117,6.7Z"/><path fill="#e78582" d="M197.47,68.96a3.443,3.443,0,0,1-1.453-6.569,18.915,18.915,0,0,1,3.319-1.075,3.445,3.445,0,0,1,1.572,6.708,12.9,12.9,0,0,0-2.039.639A3.437,3.437,0,0,1,197.47,68.96Z"/><path fill="#f78a40" d="M189.364,182.9a16.849,16.849,0,0,1-1.034,13.66c-4.807,8.647-15.411,24.084-26.731,30.267,2.511,1.831,4.924,3.472,6.965,4.8a9.274,9.274,0,0,0,11.471-1.094c9.481-9.073,16.671-20.26,20.629-27.159A9.249,9.249,0,0,0,199,192.087Z"/><path fill="url(#sVdeNSQGjdAHjXDtjfIXAt)" d="M195.233,83.144h0c-16.91-.42-22.516,9.107-24.12,17.85a5.514,5.514,0,0,0,8.434,5.669c8.617-5.734,19.224-5.951,27.394-.65a5.5,5.5,0,0,0,8.344-5.552C213.838,91.868,209.065,82.732,195.233,83.144Z"/><path fill="url(#sVdeNSQGjdAHjXDtjfIXAu)" d="M18.929,239.772s24.427-10.982,61.747-7.433a15.641,15.641,0,0,1,10.768,5.877L99,247.758a35.453,35.453,0,0,1,7.656,22V288.69a10.761,10.761,0,0,1-10.762,10.761h-9.56a10.761,10.761,0,0,1-10.432-8.12l-2-7.907a17.662,17.662,0,0,0-11.254-12.34C51.316,267.1,31.575,257.965,18.929,239.772Z"/><path fill="url(#sVdeNSQGjdAHjXDtjfIXAv)" d="M308.338,163.967V18.867a3.445,3.445,0,0,0-3.445-3.445h-16.5a3.445,3.445,0,0,0-3.445,3.445V70.794h-4.317a12.2,12.2,0,0,0-12.183,12.183V202.548c-10.594.943-20.131.526-28.364-1.275-8.453-2.915-15.435-9.008-20.752-18.119a3.4,3.4,0,0,0-.452-.6c-1.088-7.779-1.736-15.4-2.114-21.177a3.526,3.526,0,0,0-.073-.439c1.113-3.123,2.143-6.245,3.061-9.362a23.775,23.775,0,0,0,.748-10.459c-.843-5.385-3.44-12.491-10.893-16.6a91.223,91.223,0,0,0,.654-14.208,8.981,8.981,0,0,0,8.419-10.418c-1.261-7.489-4.44-13.03-9.248-16.4V65.164c7.384-21.414-2.142-35.828-2.6-36.508-11.77-19.971-42.749-19.609-44-19.585-37.711,0-51.681,17.644-52.258,18.4a3.451,3.451,0,0,0-.628,2.852c1.272,5.667,4.889,10.293,7.1,12.692A126.533,126.533,0,0,0,109.244,75,56.421,56.421,0,0,1,83.555,116.03c-37.092,23.823-37.341,45.735-36.5,52.028-5.071,7.173-29.349,43.115-23.545,65.917.034.134.075.265.111.4a64.581,64.581,0,0,0-6.1,2.256,3.445,3.445,0,0,0-1.417,5.109c13.316,19.155,34.161,28.644,45.4,32.6a14.187,14.187,0,0,1,9.057,9.936l2,7.907A14.194,14.194,0,0,0,86.333,302.9h9.56A14.223,14.223,0,0,0,110.1,288.69V269.763a38.718,38.718,0,0,0-1.046-8.889h45.093c-4.964,7.9-13.873,24.172-20.968,48.55a20.407,20.407,0,0,1-19.506,14.618H46.019a138.179,138.179,0,0,1,15.873-38.157,3.445,3.445,0,0,0-5.86-3.623,140.506,140.506,0,0,0-17.7,44.624,3.445,3.445,0,0,0,3.392,4.047h71.947a27.336,27.336,0,0,0,26.122-19.584c8.291-28.489,19.331-45.734,22.615-50.475h10.557v56.88a13.194,13.194,0,0,0,13.179,13.179h24.416a13.194,13.194,0,0,0,13.179-13.179v-50.4a13.358,13.358,0,0,0-6.305-11.328,17.892,17.892,0,0,0,5.613-11.493,202.228,202.228,0,0,0-1.623-47.227,42.085,42.085,0,0,0,14.627,9.825l7,46.213a65.721,65.721,0,0,1-12.675,1.89,3.445,3.445,0,0,0,.14,6.887c.048,0,.1,0,.145,0a70.952,70.952,0,0,0,13.426-1.934l.5,3.286a3.445,3.445,0,0,0,3.238,2.925c.034,0,.228.01.565.01a33.66,33.66,0,0,0,3.725-.238,86.478,86.478,0,0,0-7.287,45.805,11.818,11.818,0,0,0-3.479,8.046,10.335,10.335,0,0,0,10.318,10.919h38.581a9.288,9.288,0,0,0,8.1-13.823,17.347,17.347,0,0,0-4.831-5.511,74.516,74.516,0,0,1,7.158-50.2h0l6.1-11.568a31.532,31.532,0,0,0,3.625-14.648v-3.553a3.445,3.445,0,1,0-6.89,0v3.553a24.6,24.6,0,0,1-2.83,11.434l-3.538,6.711c-4.375-5.536-12.548-14.563-21.8-18.273v-33l4.3-3.1a3.445,3.445,0,1,0-4.028-5.59l-.273.2V126.5c2.769.484,7.055,2.376,10.28,9,4.926,10.121,11.822,13.726,15.83,15v13.466a19.641,19.641,0,0,0-16.177,19.3v20.46a19.623,19.623,0,1,0,39.245,0v-20.46A19.642,19.642,0,0,0,308.338,163.967ZM213.694,142.18a16.931,16.931,0,0,1-.549,7.447,185.8,185.8,0,0,1-15.374,36.527l-10.507-10.011h0a12.672,12.672,0,0,0-1.817-1.424,300.165,300.165,0,0,0,15.913-29.36c.042-.089.063-.182.1-.273.011-.012.023-.021.034-.033a31.319,31.319,0,0,0,6.7-13.231A16.233,16.233,0,0,1,213.694,142.18Zm-56.222,60.992c1.05-1.459,2.18-3.012,3.358-4.614L186.4,218.386c-1.3,1.639-2.676,3.273-4.119,4.877Zm19.973,25.044a5.793,5.793,0,0,1-7,.527A122.949,122.949,0,0,1,154.2,216.364a5.816,5.816,0,0,1-.742-7.564l0-.006Zm-12.5-35.182c1.417-1.871,2.855-3.737,4.283-5.545l24.635,20.436c-1.027,1.6-2.139,3.256-3.336,4.948Zm8.632-10.889c.162-.193.327-.393.488-.581a5.751,5.751,0,0,1,4.119-2.034c.105,0,.208-.008.313-.008a5.769,5.769,0,0,1,4.009,1.609l14.116,13.45a5.789,5.789,0,0,1,1.049,7.083l-.184.315ZM158.658,105c-.321-2.057-.568-3.918-.754-5.69-.233-2.209-.451-4.449-.655-6.679,1.4,1.175,2.841,2.332,4.366,3.449a22.724,22.724,0,0,0,6.342,3.244c-.075.35-.166.685-.232,1.044a9.023,9.023,0,0,0,3.908,9.185,8.769,8.769,0,0,0,9.823-.027c6.866-4.571,15.045-5.137,21.816-1.654.741,15.11-1.734,26.925-6.862,32.523a3.59,3.59,0,0,1-4.839.248,25.216,25.216,0,0,1-6.553-7.9,3.445,3.445,0,0,0-4.86-1.331L177,133.361a3.917,3.917,0,0,1-3.942.111A50.756,50.756,0,0,1,159.7,122.86,99.1,99.1,0,0,0,158.658,105Zm53.23-3.972a2.037,2.037,0,0,1-.925,2.054,1.912,1.912,0,0,1-2.147.036c-9.279-6.021-21.517-5.758-31.177.672a1.943,1.943,0,0,1-2.215.009,2.107,2.107,0,0,1-.923-2.188c1.855-10.113,8.28-15.04,19.633-15.04.333,0,.672,0,1.014.013.063,0,.125,0,.188,0C204.8,86.305,210.2,91.031,211.888,101.032ZM202.544,64.6V80.438a27.457,27.457,0,0,0-7.308-.741c-12.114-.284-20.758,4.321-25.058,13.1a15.784,15.784,0,0,1-4.492-2.27,69.639,69.639,0,0,1-9.279-8.088c-.49-6.645-.81-12.547-.915-16.393a33.086,33.086,0,0,1,1.727-11.9c4.121-11.744,13.586-17.04,22.886-19.3a21.821,21.821,0,0,1,15.627,7.2,32.951,32.951,0,0,1,4.832,9.517A41.765,41.765,0,0,1,202.544,64.6ZM87.279,121.827a63.282,63.282,0,0,0,28.808-46.022,117.865,117.865,0,0,1,8.181-32.26,3.446,3.446,0,0,0-.895-3.929,25.566,25.566,0,0,1-6.228-9.155c3.694-3.672,17.027-14.5,45.753-14.5.243-.01,21.481-.267,33.4,10.581-12.982-.287-37.532,2.378-45.585,25.322A39.951,39.951,0,0,0,148.6,66.232c.193,7.087,1.1,20.973,2.446,33.8.2,1.887.46,3.86.8,6.03,2,12.861,5.532,55.512-33.041,64.87-1.789.268-25.731,3.547-48.136-8.012a19.209,19.209,0,0,0-16.73-.411C54.876,154.609,60.494,139.03,87.279,121.827ZM103.21,288.69a7.325,7.325,0,0,1-7.317,7.317h-9.56a7.311,7.311,0,0,1-7.093-5.522l-2-7.907a21.062,21.062,0,0,0-13.452-14.744c-9.719-3.417-27.138-11.253-39.35-26.448,8.3-2.795,28.659-8.212,55.913-5.617a12.246,12.246,0,0,1,8.394,4.585L96.3,249.9a32.139,32.139,0,0,1,6.912,19.867Zm3.2-35.43a38.788,38.788,0,0,0-4.708-7.641l-7.554-9.542A19.2,19.2,0,0,0,84.123,229.5c.172-4.723,1.292-15.188,7.512-22.852a3.445,3.445,0,1,0-5.35-4.341c-7.148,8.807-8.735,20.061-9.024,26.293a148.069,148.069,0,0,0-47.02,3.868c-4.725-24.454,20.38-57.561,23.023-61.25.392-.358.791-.709,1.2-1.024a12.226,12.226,0,0,1,13.052-1.147c15.194,7.838,30.709,9.451,40.907,9.451a75.882,75.882,0,0,0,11.627-.784c.079-.013.157-.029.235-.047,27.342-6.563,36.26-27.713,38.678-45.8a59.8,59.8,0,0,0,10.765,7.633,10.813,10.813,0,0,0,10.893-.277l.2-.124a32.57,32.57,0,0,0,6.422,6.9,10.569,10.569,0,0,0,5.07,2.235c-3.252,6.509-7.786,14.918-13.684,24.41-.266,0-.531-.015-.8,0a12.583,12.583,0,0,0-9.006,4.447c-7.331,8.608-16.3,21.072-21,27.736a12.749,12.749,0,0,0-1.663,11.309A289.9,289.9,0,0,1,106.408,253.26Zm10.192.724A298.762,298.762,0,0,0,150.162,222a124.9,124.9,0,0,0,13.978,10.827c-3.214,3.531-6.514,6.973-9.849,10.256a3.445,3.445,0,1,0,4.833,4.91c3.833-3.772,7.618-7.749,11.284-11.829a12.584,12.584,0,0,0,3.2.421,12.72,12.72,0,0,0,8.808-3.556c9.549-9.138,16.818-20.234,21.235-27.933a12.65,12.65,0,0,0-.818-13.856q4.512-8.067,8.181-16.235c.675,6.342,1.62,13.241,2.937,19.728,2.735,13.466,3.655,33.686,2.236,49.171a11.084,11.084,0,0,1-11.124,10.083Zm100.251,63.77a6.3,6.3,0,0,1-6.289,6.288H186.146a6.3,6.3,0,0,1-6.289-6.288v-56.88h30.517a6.484,6.484,0,0,1,6.477,6.476Zm34.077-58.391-7.641-50.486a106.633,106.633,0,0,0,25.161.6v27.743a27.278,27.278,0,0,1-2.892,7.627,29.937,29.937,0,0,1-3.183,4.587,71.722,71.722,0,0,0-6.247,9.029A41.2,41.2,0,0,1,250.928,259.363Zm41.4,61.106a2.4,2.4,0,0,1-2.085,3.573H251.661a3.447,3.447,0,0,1-3.44-3.633,5.215,5.215,0,0,1,5.465-5.144H283.5a9.854,9.854,0,0,1,5.488,1.535A10.455,10.455,0,0,1,292.327,320.469Zm1.286-60.378a81.53,81.53,0,0,0-7.658,48.449,18.382,18.382,0,0,0-2.455-.165H253.686a12.335,12.335,0,0,0-2.264.229c-2.308-29.607,11.763-49.316,16.27-54.794A35.151,35.151,0,0,0,274.25,242.1C282.911,246.257,290.76,256.193,293.613,260.091ZM284.948,123.52a18.133,18.133,0,0,0-9.61-3.974V82.977a5.3,5.3,0,0,1,5.293-5.293h4.317Zm6.865,8.962-.006-.012c.009-.1.031-.2.031-.3V22.312h9.61V143.1C298.679,141.714,294.867,138.758,291.813,132.482Zm25.813,71.246a12.733,12.733,0,1,1-25.465,0v-20.46a12.733,12.733,0,1,1,25.465,0Z"/></svg>