<svg xmlns="http://www.w3.org/2000/svg" xmlns:xlink="http://www.w3.org/1999/xlink" viewBox="0 0 340 340" width="500px" height="500px"><defs><linearGradient id="YhlvpIdHIZCwJrxkd9A24g" x1="10.812" x2="186.909" y1="83.264" y2="139.643" gradientUnits="userSpaceOnUse"><stop offset="0" stop-color="#e9f4ff"/><stop offset="1" stop-color="#fcffff"/></linearGradient><linearGradient id="YhlvpIdHIZCwJrxkd9A24h" x1="227.702" x2="-17.041" y1="149.744" y2="79.703" gradientUnits="userSpaceOnUse"><stop offset="0" stop-color="#b0c9fe"/><stop offset="1" stop-color="#99b4e7"/></linearGradient><linearGradient id="YhlvpIdHIZCwJrxkd9A24f" x1="161.977" x2="163.459" y1="193.254" y2="350.312" gradientUnits="userSpaceOnUse"><stop offset="0" stop-color="#444456"/><stop offset="1" stop-color="#363644"/></linearGradient><linearGradient id="YhlvpIdHIZCwJrxkd9A24a" x1="269.671" x2="254.059" y1="338.81" y2="234.544" gradientUnits="userSpaceOnUse"><stop offset="0" stop-color="#f771a8"/><stop offset="1" stop-color="#c14778"/></linearGradient><linearGradient id="YhlvpIdHIZCwJrxkd9A24i" x1="56.438" x2="96.026" y1="327.139" y2="216.74" xlink:href="#YhlvpIdHIZCwJrxkd9A24a"/><linearGradient id="YhlvpIdHIZCwJrxkd9A24d" x1="272.502" x2="309.463" y1="160.606" y2="179.389" gradientUnits="userSpaceOnUse"><stop offset="0" stop-color="#6f6f81"/><stop offset="1" stop-color="#555568"/></linearGradient><linearGradient id="YhlvpIdHIZCwJrxkd9A24e" x1="254.147" x2="246.726" y1="145.816" y2="197.763" gradientUnits="userSpaceOnUse"><stop offset="0" stop-color="#ffc564"/><stop offset=".532" stop-color="#faa34f"/><stop offset="1" stop-color="#f78a40"/></linearGradient><linearGradient id="YhlvpIdHIZCwJrxkd9A24b" x1="213.814" x2="273.08" y1="225.85" y2="225.85" gradientUnits="userSpaceOnUse"><stop offset="0" stop-color="#ffe1db"/><stop offset="1" stop-color="#feb5a9"/></linearGradient><linearGradient id="YhlvpIdHIZCwJrxkd9A24j" x1="93.05" x2="131.222" y1="297.376" y2="297.376" xlink:href="#YhlvpIdHIZCwJrxkd9A24b"/><linearGradient id="YhlvpIdHIZCwJrxkd9A24k" x1="172.978" x2="172.978" y1="288.91" y2="185.29" gradientUnits="userSpaceOnUse"><stop offset="0" stop-color="#feeddf"/><stop offset="1" stop-color="#e5cdbd"/></linearGradient><linearGradient id="YhlvpIdHIZCwJrxkd9A24l" x1="49.326" x2="118.958" y1="214.401" y2="214.401" xlink:href="#YhlvpIdHIZCwJrxkd9A24b"/><linearGradient id="YhlvpIdHIZCwJrxkd9A24m" x1="191.95" x2="188.047" y1="142.924" y2="228.79" xlink:href="#YhlvpIdHIZCwJrxkd9A24a"/><linearGradient id="YhlvpIdHIZCwJrxkd9A24n" x1="161.459" x2="202.509" y1="153.623" y2="153.623" xlink:href="#YhlvpIdHIZCwJrxkd9A24b"/><linearGradient id="YhlvpIdHIZCwJrxkd9A24o" x1="179.175" x2="179.175" y1="70.244" y2="133.675" xlink:href="#YhlvpIdHIZCwJrxkd9A24b"/><linearGradient id="YhlvpIdHIZCwJrxkd9A24q" x1="197.936" x2="132.869" y1="315.25" y2="315.25" xlink:href="#YhlvpIdHIZCwJrxkd9A24d"/><linearGradient id="YhlvpIdHIZCwJrxkd9A24r" x1="206.154" x2="206.154" y1="301.939" y2="342.055" xlink:href="#YhlvpIdHIZCwJrxkd9A24e"/><linearGradient id="YhlvpIdHIZCwJrxkd9A24t" x1="259.199" x2="301.433" y1="165.7" y2="165.7" xlink:href="#YhlvpIdHIZCwJrxkd9A24b"/><linearGradient id="YhlvpIdHIZCwJrxkd9A24u" x1="190.379" x2="190.379" y1="15.742" y2="76.448" xlink:href="#YhlvpIdHIZCwJrxkd9A24d"/><linearGradient id="YhlvpIdHIZCwJrxkd9A24v" x1="-630.731" x2="-630.239" y1="170" y2="170" xlink:href="#YhlvpIdHIZCwJrxkd9A24f"/><radialGradient id="YhlvpIdHIZCwJrxkd9A24c" cx="63.663" cy="232.667" r="51.224" gradientUnits="userSpaceOnUse"><stop offset="0" stop-color="#fff"/><stop offset="1" stop-color="#d4e2ff"/></radialGradient><radialGradient id="YhlvpIdHIZCwJrxkd9A24p" cx="130.904" cy="151.513" r="52.82" xlink:href="#YhlvpIdHIZCwJrxkd9A24c"/><radialGradient id="YhlvpIdHIZCwJrxkd9A24s" cx="311.09" cy="247.471" r="63.146" xlink:href="#YhlvpIdHIZCwJrxkd9A24c"/></defs><path fill="url(#YhlvpIdHIZCwJrxkd9A24g)" d="M230.364,135.109,37.426,80.781s-8.966.683-21.523,7.036A49.274,49.274,0,0,0,26.647,106.78l186.33,48.732C221.671,149.33,224.9,145.245,230.364,135.109Z"/><path fill="url(#YhlvpIdHIZCwJrxkd9A24h)" d="M230.364,135.109,220.3,146.92,46.67,97.841a14.4,14.4,0,0,0-13.508,3.118l-6.515,5.821,182.662,53.036h0l41.746,12.121,3.8-29.933Z"/><path fill="url(#YhlvpIdHIZCwJrxkd9A24f)" d="M59.786,326.124H266.675s-2.461-57.579-19.686-100.274L127.181,186.307,64.465,299.561Z"/><path fill="url(#YhlvpIdHIZCwJrxkd9A24a)" d="M237.821,229.829s16.509,37.756,19.128,87.03a9.755,9.755,0,0,0,9.726,9.265h15.9s-3.359-48.788-19.195-84.627Z"/><path fill="url(#YhlvpIdHIZCwJrxkd9A24i)" d="M127.151,199.745s1.767,37.863-21.848,62.311c-20.24,20.955-30.072,38.691-33.867,55.644a10.892,10.892,0,0,1-10.667,8.424H26.4s1.6-25.583,27.63-48.611a112.615,112.615,0,0,0,28.121-38.308l7.313-16.321Z"/><path fill="url(#YhlvpIdHIZCwJrxkd9A24d)" d="M270.439,173.612l40.25,14.816a10.427,10.427,0,0,0,14.029-9.785h0a9.054,9.054,0,0,0-6.1-8.558l-44.234-15.29Z"/><path fill="url(#YhlvpIdHIZCwJrxkd9A24e)" d="M254.305,124.683,241.97,153.046l1.785,32.023a9.152,9.152,0,0,0,8.225,8.6l5.6.561,11.28-73.409-3.077-1.1A9.151,9.151,0,0,0,254.305,124.683Z"/><path fill="url(#YhlvpIdHIZCwJrxkd9A24b)" d="M230.483,192.514c9.925,13.378,42.6,31.114,42.6,31.114v35.559s-43.709-22.965-59.266-40.374Z"/><path fill="#e78582" d="M239.825,201.8a56.831,56.831,0,0,1-9.342-9.29l-16.669,26.3a98.648,98.648,0,0,0,13.914,12.235C232.782,223.645,237.148,214.1,239.825,201.8Z"/><path fill="url(#YhlvpIdHIZCwJrxkd9A24j)" d="M116.886,268.629l6.367,6.224a26.478,26.478,0,0,1,7.967,19.263l-.4,32.008H124.34a21.2,21.2,0,0,1-21.2-21.2h0a20.539,20.539,0,0,0-4.882-13.294l-5.2-6.128S97.106,269.888,116.886,268.629Z"/><path fill="url(#YhlvpIdHIZCwJrxkd9A24k)" d="M123.71,220.007c1.717,6.626,3.977,14.6,6.806,23.093a38.215,38.215,0,0,1,1.931,13.375l-1.551,47.9h87.843V273.36A163.019,163.019,0,0,1,221,246.437c.427-2.554.861-5.4,1.246-8.41l-83.581-55.855Z"/><path fill="#d8beac" d="M222.243,238.026c1.047-8.173,1.738-17.525.978-25.377l-84.557-30.477-19.122,19.72s1.353,7.249,4.168,18.115a138.754,138.754,0,0,0,57.478,33.754,32.094,32.094,0,0,0,23.325-2.164A60.541,60.541,0,0,0,222.243,238.026Z"/><path fill="url(#YhlvpIdHIZCwJrxkd9A24l)" d="M118.958,207.129,86.974,235.954l-37.648-7.47,40.14-35.635C102.188,194.856,112.117,199.523,118.958,207.129Z"/><path fill="#e78582" d="M89.466,192.849c7.443,2.438,19.533,7.112,29.492,14.28l16.419-14.8-24.8-18.226Z"/><path fill="url(#YhlvpIdHIZCwJrxkd9A24c)" d="M42.64,226.077c6.485-.912,27.671-2.905,44.808,6.705A17.814,17.814,0,0,1,94.5,240.34a79.571,79.571,0,0,0,8.921,13.337c-14.334,15.524-30.475,12.8-47.651-.369a122.473,122.473,0,0,1-14.35-25.088A1.553,1.553,0,0,1,42.64,226.077Z"/><path fill="url(#YhlvpIdHIZCwJrxkd9A24m)" d="M202.509,155.96s6.978-.478,11.287,2.888a15.123,15.123,0,0,1,4.771,6.383,15.177,15.177,0,0,0,5.872,7.232,20.017,20.017,0,0,1,7.322,8.177l.581,21.679c-1.826,6.022-9.661,27.508-31.385,39.471a14.049,14.049,0,0,1-12.45.557c-9.916-4.381-28.3-14.122-42.624-33.946l17.435-60.222Z"/><path fill="#933e65" d="M163.318,148.179l-28.964,39.36a99.548,99.548,0,0,0,11.538,20.855c24.333-15.565,23.245-51.691,23.245-51.691l.006-7.368Z"/><path fill="url(#YhlvpIdHIZCwJrxkd9A24n)" d="M161.459,137.422v5.556a27.583,27.583,0,0,0,5.287,16.36,36.548,36.548,0,0,0,14.808,11.947,13.564,13.564,0,0,0,13.843-1.661,18.528,18.528,0,0,0,7.112-13.664s-10.809-5.387-7.675-21.173Z"/><path fill="#e78582" d="M161.459,106.788v30.634c4.879,3.51,18.289,11.9,34.912,12-1.734-3.328-2.838-8.084-1.537-14.637Z"/><path fill="url(#YhlvpIdHIZCwJrxkd9A24o)" d="M142.86,90.16s-3.763,17.88,7.686,20.742c0,0,5.546,1.789,10.913-4.114a43.472,43.472,0,0,0,.431,8.189,16.271,16.271,0,0,0,6.757,10.863,90.55,90.55,0,0,0,30.975,13.591,7.117,7.117,0,0,0,6.93-2.185,29.626,29.626,0,0,0,2.026-2.513,30.21,30.21,0,0,0,5.473-15.189c.561-6.735,1.634-20.795,2.031-34.068.2-6.6-29.934-36.652-29.934-36.652l-43.88,30.592Z"/><path fill="url(#YhlvpIdHIZCwJrxkd9A24p)" d="M102.683,158.018c8.213-10.848,22.742-22.439,46.513-19.586a20.1,20.1,0,0,1,6.7,2c4,6.623,6.874,13.567,2.331,22.634L138.4,186.307,99.911,172.9Z"/><rect width="63.369" height="21.747" x="130.896" y="304.377" fill="url(#YhlvpIdHIZCwJrxkd9A24q)"/><rect width="25.171" height="21.747" x="193.568" y="304.377" fill="url(#YhlvpIdHIZCwJrxkd9A24r)"/><path fill="url(#YhlvpIdHIZCwJrxkd9A24s)" d="M270.88,173.2s-5.463,42.13-5.476,77.182a27.36,27.36,0,0,0,6.747,18.159c4.328,4.893,11.211,10.583,21.866,14.9a1.549,1.549,0,0,0,2.1-1.2c1.412-8.674,6.685-46.466,1.16-98.466Z"/><path fill="#b0c9fe" d="M297.277,183.776,270.88,173.2s-1.083,8.355-2.286,20.715a104.319,104.319,0,0,0,30.776,18.19C299,203.258,298.34,193.782,297.277,183.776Z"/><path fill="url(#YhlvpIdHIZCwJrxkd9A24t)" d="M273.39,144.091a63.516,63.516,0,0,1,23.488,10.117,10.367,10.367,0,0,1,4.533,9.18l-1.017,15.33a9.772,9.772,0,0,1-11.418,8.705,60.663,60.663,0,0,1-25.713-10.014,9.218,9.218,0,0,1-3.922-6.986,82.109,82.109,0,0,1,.843-17.612A11.023,11.023,0,0,1,273.39,144.091Z"/><path fill="#933e65" d="M157.7,174.716s11.984,14.841,29.678,23.844a18.363,18.363,0,0,0,22.811-4.993A83.14,83.14,0,0,0,215.939,184a1.338,1.338,0,0,0-2.13-1.576c-4.58,4.62-10.828,10.135-15.166,10.852-7.624,1.26-30.738-18.46-34.044-29.5Z"/><path fill="#933e65" d="M205.089,216.656c-4.211,2.333-10.133,1.708-15.925.529a1.063,1.063,0,0,0-.859,1.887c1.044.8,2.049,1.531,2.993,2.195a15.484,15.484,0,0,0,15.247,1.5,68.684,68.684,0,0,0,25.8-20.451c.309-1.021.45-1.607.45-1.607,2.194-9.04,1.186-15.5-1.03-20.072C223.343,207.3,205.089,216.656,205.089,216.656Z"/><path fill="#e78582" d="M192.781,99.052a2.947,2.947,0,0,1-.773-.1c-1.074-.29-2.222-.567-3.185-.79a2.953,2.953,0,0,1,1.331-5.754c1.025.237,2.251.534,3.4.843a2.954,2.954,0,0,1-.769,5.805Z"/><path fill="#e78582" d="M206.97,99.052a2.954,2.954,0,0,1-.919-5.761s1.384-.452,3.146-.966A2.953,2.953,0,0,1,210.849,98c-1.647.48-2.942.9-2.96.909A2.948,2.948,0,0,1,206.97,99.052Z"/><path fill="#b0c9fe" d="M155.892,140.437c3.472,18.947-8.389,40.057-30.248,37.849-21.192-2.14-22.941-15.92-22.96-20.268a64.6,64.6,0,0,0-7.523,12.82,3.77,3.77,0,0,0,2.3,5.11,79.776,79.776,0,0,1,29.427,17.06,9.988,9.988,0,0,0,12.812.531c13.646-10.526,20.986-26.189,23.977-36.836C165.661,149.623,161.972,143.525,155.892,140.437Z"/><path fill="#b0c9fe" d="M55.783,253.3c17.41,23.43,37.267,32.2,37.267,32.2,8.935-13.249,23.836-16.869,23.836-16.869-5.086-5.2-9.637-10.184-13.461-14.952C81.793,263.4,65.848,259.191,55.783,253.3Z"/><path fill="#e78582" d="M186.148,48.824,153.362,71.681c5.634,7.532,12.937,19.1,12.937,19.1a16.616,16.616,0,0,0,7.975-6.3l2.534,3.058a2.764,2.764,0,0,0,3.3.748c2.836-1.335,8.1-4.731,12.365-12.711,0,0,10.2,8.458,23.6,9.908.2-6.6.227-13.011-.057-18.226Z"/><path fill="url(#YhlvpIdHIZCwJrxkd9A24u)" d="M187.31,58.118s9.816,19.818,45.562,17.966a33.641,33.641,0,0,0-6.853-14.261s11.3,4.445,22.966-5.927c0,0-7.408-1.667-12.039-6.853s-15.187-19.817-29.819-21.855c0,0,6.483-1.667,11.02-9.445,0,0-9.908.185-16.2-2.408,0,0-30.19-10-44.08,21.114,0,0-20.559.37-25.745,26.485,0,0-3.333,17.409,10.743,27.226a11.8,11.8,0,0,1,2.746-4.235,9.578,9.578,0,0,1,14.536,1.244,10.7,10.7,0,0,1,1.794,5.954s8.89-2.223,10.928-14.261l3.954,3.585a2.046,2.046,0,0,0,2.478.216C182.466,80.64,189.732,74.149,187.31,58.118Z"/><path fill="url(#YhlvpIdHIZCwJrxkd9A24v)" d="M319.747,166.829l-14.911-5.154a13.8,13.8,0,0,0-5.992-10.3,67.466,67.466,0,0,0-24.764-10.663,14.907,14.907,0,0,0-4.764-.181l2.949-19.193a3.443,3.443,0,0,0-2.242-3.766l-3.076-1.1a12.628,12.628,0,0,0-15.8,6.835l-5.9,13.566-29.616-8.34a35,35,0,0,0,1.854-8.7c.618-7.427,2-25.517,2.176-40.639a84.306,84.306,0,0,0,13.389.333,3.445,3.445,0,0,0,3.218-4.021,35.758,35.758,0,0,0-3.286-9.3c4.961-.149,11.6-1.786,18.293-7.737a3.445,3.445,0,0,0-1.532-5.936c-.064-.014-6.438-1.543-10.227-5.786-.548-.615-1.182-1.366-1.9-2.216-4.425-5.239-11.89-14.08-21.915-18.439a26.309,26.309,0,0,0,5.422-6.615,3.445,3.445,0,0,0-3.04-5.181c-2.556.044-10.206-.245-14.831-2.149q-.113-.046-.228-.084c-.323-.109-32.132-10.213-47.474,21.192-6,.99-22.2,5.8-26.816,29.029-.147.768-3.3,18.247,10.375,29.348-1.133,8.024.029,19.95,10.577,22.6a13.282,13.282,0,0,0,8.328-.763v24.616a19.51,19.51,0,0,0-8.408-3.079,59.4,59.4,0,0,0-13.942-.095,3.468,3.468,0,0,0-.614-.241L27.894,104.7a45.97,45.97,0,0,1-8.382-14.126,61.871,61.871,0,0,1,17.008-5.32l94.9,26.722a3.445,3.445,0,1,0,1.868-6.632L37.74,78.443a3.417,3.417,0,0,0-1.2-.118c-.394.029-9.8.811-22.817,7.4a3.446,3.446,0,0,0-1.774,3.959,52.517,52.517,0,0,0,11.575,20.45,3.439,3.439,0,0,0,1.57.945l97.285,27.212a52.53,52.53,0,0,0-19.6,14.157,64.916,64.916,0,0,0-12.475,21.386,3.445,3.445,0,0,0,2.438,4.357c2.079.53,4.07,1.149,5.989,1.824L51.607,221.853a80.327,80.327,0,0,0-11.6,1.158,3.445,3.445,0,0,0-2.533,4.684A124.83,124.83,0,0,0,61.26,265.377a108.974,108.974,0,0,1-9.509,9.556c-26.784,23.7-28.716,49.872-28.785,50.975a3.446,3.446,0,0,0,3.438,3.661H60.772a14.438,14.438,0,0,0,14.033-11.147c2.334-10.405,6.952-20.614,14.094-31.143.858.457,1.537.8,2.013,1.023l4.716,5.554a17.113,17.113,0,0,1,4.063,11.064,24.678,24.678,0,0,0,24.649,24.649h94.4a3.446,3.446,0,0,0,3.446-3.445V273.36a160.127,160.127,0,0,1,2.211-26.354c.466-2.782,1.038-7.86,1.547-13,4.193,3.137,8.7,6.24,13.209,9.177a283.589,283.589,0,0,1,14.357,73.857,13.2,13.2,0,0,0,13.166,12.527h15.9a3.447,3.447,0,0,0,3.438-3.682,352,352,0,0,0-7.152-46.789,68.576,68.576,0,0,0,15.717,8.261,3.446,3.446,0,0,0,4.6-2.579c.31-1.619,7.38-39.7,2.043-96.167l8.282,3.048a13.872,13.872,0,0,0,18.664-13.018A12.506,12.506,0,0,0,319.747,166.829Zm-62.283-40.773a5.718,5.718,0,0,1,7.158-3.1l.4.143-3.156,20.546a13.845,13.845,0,0,0-5.082,8.6,85.43,85.43,0,0,0-.885,18.372,12.473,12.473,0,0,0,1.132,4.493l-2.361,15.361-2.349-.235a5.679,5.679,0,0,1-5.129-5.361l-1.738-31.207Zm-14.991,17.2-3.662,8.421a3.422,3.422,0,0,0-.28,1.566l.588,10.547-21.11-5.9c-.06-.017-.121-.018-.181-.032a19,19,0,0,0-1.912-1.716c-4.208-3.288-9.986-3.656-12.484-3.646a13.79,13.79,0,0,1-5.582-9.951c.326.081.643.167.973.246a10.456,10.456,0,0,0,2.427.286,10.591,10.591,0,0,0,7.862-3.516,33.286,33.286,0,0,0,2.26-2.8q.666-.924,1.263-1.9Zm-43.644,14.393a14.885,14.885,0,0,1-5.568,9.277,10.075,10.075,0,0,1-10.324,1.208A32.926,32.926,0,0,1,169.52,157.3a23.336,23.336,0,0,1-2.9-5.3,19.28,19.28,0,0,0-1.435-5.351,24.641,24.641,0,0,1-.281-3.667V127.247a19.835,19.835,0,0,0,1.759,1.409,90.717,90.717,0,0,0,24.164,11.878C190.9,150.1,195.865,155.359,198.829,157.644ZM143.178,83.482a15.378,15.378,0,0,0-1.269,1.431C133.265,76.4,135.4,64.141,135.5,63.605c4.55-22.915,21.718-23.691,22.426-23.712a3.444,3.444,0,0,0,3.084-2.04c12.171-27.263,37.718-19.915,39.757-19.278a39.734,39.734,0,0,0,10.474,2.287,14.015,14.015,0,0,1-4.968,2.99,3.445,3.445,0,0,0,.383,6.748c11.535,1.607,20.749,12.517,25.7,18.379.764.9,1.44,1.7,2.025,2.358a24.94,24.94,0,0,0,7.369,5.487c-7.777,4.2-14.165,1.9-14.466,1.793a3.444,3.444,0,0,0-3.907,5.411,29.982,29.982,0,0,1,4.961,8.734h-.145c-29.089,0-37.429-15.47-37.8-16.193a3.445,3.445,0,0,0-6.483,2.064c1.929,12.769-2.869,18.414-5.585,20.525l-3.142-2.848a3.446,3.446,0,0,0-5.711,1.977c-.858,5.074-3.115,7.987-5.07,9.61a13.244,13.244,0,0,0-1.411-2.674,12.724,12.724,0,0,0-9.352-5.451q-.633-.06-1.263-.06A13,13,0,0,0,143.178,83.482Zm8.2,24.078c-7.589-1.6-5.533-14.579-5.194-16.459a8.674,8.674,0,0,1,1.846-2.732,6.177,6.177,0,0,1,4.951-1.738,5.85,5.85,0,0,1,4.313,2.483,7.2,7.2,0,0,1,1.189,3.918,3.815,3.815,0,0,0,.465,1.818,3.455,3.455,0,0,0,2.984,1.718,3.405,3.405,0,0,0,.836-.1c.383-.095,8.088-2.134,11.883-11.329l.928.841a3.443,3.443,0,0,0,3.594.646c.508-.2,10.47-4.383,11.9-18.772,4.444,3.852,11.389,8.055,21.7,10.255-.12,15.08-1.537,33.634-2.163,41.152a26.759,26.759,0,0,1-4.834,13.46,26.372,26.372,0,0,1-1.791,2.222,3.668,3.668,0,0,1-3.57,1.14,86.654,86.654,0,0,1-29.791-13.057,12.877,12.877,0,0,1-5.335-8.555,40.4,40.4,0,0,1-.392-4.19v-.157a4.863,4.863,0,0,0-3.109-4.536h0a4.816,4.816,0,0,0-4.625.614A7.03,7.03,0,0,1,151.382,107.56ZM98.144,172.552c3.955-9.348,17.8-34.646,50.642-30.7a12.408,12.408,0,0,1,9.787,6.915,31.589,31.589,0,0,0,1.263,4.719,12.334,12.334,0,0,1-.431,4.108h0c-2.678,9.534-8.631,23.031-21.782,33.192a6.537,6.537,0,0,1-8.418-.325A82.67,82.67,0,0,0,98.144,172.552Zm7.679,10.381a77.149,77.149,0,0,1,18.736,12.618,13.521,13.521,0,0,0,1.1.9L88.849,229.626c-8.882-4.908-18.646-6.911-27.1-7.561Zm15.308,40.793c-2.673,11.694-7.13,21.739-13.247,29.943a81.1,81.1,0,0,1-10.429-15.126,20.971,20.971,0,0,0-3.126-4.58l23.953-21.587C119.016,215.511,119.964,219.365,121.131,223.726ZM68.082,316.914a7.5,7.5,0,0,1-7.31,5.764H30.394c1.5-7.6,6.937-25.786,25.923-42.585a115.777,115.777,0,0,0,9.769-9.771A110.84,110.84,0,0,0,82.957,283.77C75.459,294.9,70.581,305.77,68.082,316.914ZM92,281.1c-7.687-4.2-31.721-19.4-46.387-51.9,8.026-.832,25.777-1.467,40.15,6.593a13.69,13.69,0,0,1,5.534,5.846c3.653,7.279,9.709,15.268,19.39,25.52A47.4,47.4,0,0,0,92,281.1Zm35.77,13.358s-.313,9.847-.314,9.865-.005.037-.005.057v15.754l-.032,2.547H124.34a17.779,17.779,0,0,1-17.759-17.758,24.012,24.012,0,0,0-5.7-15.524l-3.446-4.057a41.646,41.646,0,0,1,18.509-12.814l4.9,4.792a23.136,23.136,0,0,1,6.93,16.756ZM129,256.364l-.618,19.1a29.55,29.55,0,0,0-2.725-3.073l-6.343-6.2c-2.473-2.531-4.729-4.925-6.8-7.208A79.68,79.68,0,0,0,124.7,236.206c.792,2.591,1.638,5.259,2.545,7.982A34.647,34.647,0,0,1,129,256.364Zm61.119,66.314H134.341v-2.535l.153-12.321h55.629Zm25.171,0H197.013V307.822h18.281Zm-16-83.906a10.655,10.655,0,0,1-9.4.423c-18.29-8.08-33.4-20.672-43.7-36.413a3.445,3.445,0,0,0-5.765,3.773c11.029,16.857,27.172,30.323,46.682,38.943a17.587,17.587,0,0,0,15.5-.69,66.112,66.112,0,0,0,16.623-13.034c-.541,5.613-1.168,11.267-1.642,14.094a167.144,167.144,0,0,0-2.306,27.492v27.572H134.58l.078-6.305,1.232-38.034a41.51,41.51,0,0,0-2.106-14.582,360.805,360.805,0,0,1-9.639-34.919l8.938-8.055c.171.006.342.023.513.023a13.448,13.448,0,0,0,8.239-2.821,69.242,69.242,0,0,0,23.2-33.506A39.553,39.553,0,0,0,180.17,174.44a17.4,17.4,0,0,0,6.981,1.472,16.711,16.711,0,0,0,10.382-3.585,21.784,21.784,0,0,0,7.948-12.841,12.566,12.566,0,0,1,6.194,2.077,11.653,11.653,0,0,1,3.691,4.943,18.52,18.52,0,0,0,7.22,8.862c5.061,3.226,10.358,10.1,6.853,24.547C229.377,200.171,223.023,225.706,199.3,238.772Zm27.4-12.879c.133-1.561.247-2.981.336-4.174a74,74,0,0,0,8.745-18.833c8.353,7.212,19.7,14.419,27.151,18.872-.542,8.967-.919,18.337-.956,27.31C251.956,243.293,237.6,234.525,226.691,225.893Zm39.984,96.785a6.315,6.315,0,0,1-6.286-6,289.925,289.925,0,0,0-12.156-67.757c5.515,3.378,10.588,6.314,14.517,8.528a30.311,30.311,0,0,0,6.821,13.375c.082.093.173.178.256.271a342.35,342.35,0,0,1,8.994,51.584Zm26.4-43.378a52.9,52.9,0,0,1-18.346-13.041,23.877,23.877,0,0,1-5.883-15.876c.008-19.837,1.781-41.991,3.267-57.085a3.445,3.445,0,1,0-6.857-.674c-.607,6.165-1.26,13.509-1.825,21.39-8.143-4.993-19.161-12.29-26.158-19.083,1.455-14.86-5.982-22.183-10.985-25.372a11.19,11.19,0,0,1-3.19-3.1l16.423,4.594.791,14.208a12.535,12.535,0,0,0,11.32,11.833l5.6.562a3.447,3.447,0,0,0,3.749-2.9l2.05-13.336a65.261,65.261,0,0,0,25.418,9.412,13.885,13.885,0,0,0,2.09.159,13.714,13.714,0,0,0,3.927-.585C298.537,234.756,294.724,268,293.078,279.3Zm3.879-100.81a5.794,5.794,0,0,1-2.217,4.155,6.754,6.754,0,0,1-5.241,1.372,57.532,57.532,0,0,1-24.245-9.419,5.764,5.764,0,0,1-2.474-4.371,78.361,78.361,0,0,1,.8-16.854,7.088,7.088,0,0,1,3.037-4.693,7.8,7.8,0,0,1,4.442-1.38,8.187,8.187,0,0,1,1.64.167,60.463,60.463,0,0,1,22.211,9.57,6.9,6.9,0,0,1,3.061,6.123Zm21.329,5.88a6.894,6.894,0,0,1-6.407.825l-8.651-3.184a12.607,12.607,0,0,0,.6-3.066l.669-10.1,12.994,4.492a5.613,5.613,0,0,1,3.778,5.3A6.9,6.9,0,0,1,318.286,184.37Z"/></svg>