<svg xmlns="http://www.w3.org/2000/svg" xmlns:xlink="http://www.w3.org/1999/xlink" viewBox="0 0 340 340" width="500px" height="500px"><defs><linearGradient id="nEhtDOdYjGLp10RaKlKStb" x1="110.652" x2="111.263" y1="14.1" y2="92.199" gradientUnits="userSpaceOnUse"><stop offset="0" stop-color="#f1bab5"/><stop offset="1" stop-color="#c97e76"/></linearGradient><linearGradient id="nEhtDOdYjGLp10RaKlKStd" x1="109.536" x2="114.3" y1="26.632" y2="127.872" gradientUnits="userSpaceOnUse"><stop offset="0" stop-color="#b97777"/><stop offset="1" stop-color="#964b4b"/></linearGradient><linearGradient id="nEhtDOdYjGLp10RaKlKStf" x1="268.121" x2="325.423" y1="171.722" y2="171.722" gradientUnits="userSpaceOnUse"><stop offset="0" stop-color="#ff7b72"/><stop offset=".291" stop-color="#f37169"/><stop offset="1" stop-color="#da5b55"/></linearGradient><linearGradient id="nEhtDOdYjGLp10RaKlKStc" x1="263.879" x2="263.879" y1="15.266" y2="321.214" gradientUnits="userSpaceOnUse"><stop offset="0" stop-color="#444456"/><stop offset="1" stop-color="#363644"/></linearGradient><linearGradient id="nEhtDOdYjGLp10RaKlKSta" x1="292.794" x2="244.562" y1="242.103" y2="242.783" gradientUnits="userSpaceOnUse"><stop offset="0" stop-color="#ffe1db"/><stop offset="1" stop-color="#feb5a9"/></linearGradient><linearGradient id="nEhtDOdYjGLp10RaKlKStg" x1="301.777" x2="298.931" y1="215.866" y2="270.516" xlink:href="#nEhtDOdYjGLp10RaKlKSta"/><linearGradient id="nEhtDOdYjGLp10RaKlKSth" x1="139.892" x2="140.502" y1="202.67" y2="365.58" xlink:href="#nEhtDOdYjGLp10RaKlKStb"/><linearGradient id="nEhtDOdYjGLp10RaKlKSti" x1="117.366" x2="128.41" y1="13.376" y2="318.423" xlink:href="#nEhtDOdYjGLp10RaKlKStc"/><linearGradient id="nEhtDOdYjGLp10RaKlKStj" x1="180.1" x2="182.482" y1="155.78" y2="337.415" xlink:href="#nEhtDOdYjGLp10RaKlKStd"/><linearGradient id="nEhtDOdYjGLp10RaKlKStk" x1="102.25" x2="104.632" y1="156.801" y2="338.436" xlink:href="#nEhtDOdYjGLp10RaKlKStd"/><linearGradient id="nEhtDOdYjGLp10RaKlKStl" x1="127.001" x2="127.001" y1="94.153" y2="156.855" xlink:href="#nEhtDOdYjGLp10RaKlKSta"/><linearGradient id="nEhtDOdYjGLp10RaKlKSte" x1="114.125" x2="113.247" y1="97.926" y2="127.775" gradientUnits="userSpaceOnUse"><stop offset="0" stop-color="#eefbff"/><stop offset="1" stop-color="#ccd9e4"/></linearGradient><linearGradient id="nEhtDOdYjGLp10RaKlKStm" x1="134.848" x2="136.018" y1="136.959" y2="216.85" xlink:href="#nEhtDOdYjGLp10RaKlKSte"/><linearGradient id="nEhtDOdYjGLp10RaKlKStn" x1="221.124" x2="59.95" y1="85.914" y2="96.341" xlink:href="#nEhtDOdYjGLp10RaKlKStb"/><linearGradient id="nEhtDOdYjGLp10RaKlKSto" x1="226.639" x2="227.375" y1="218.38" y2="274.454" xlink:href="#nEhtDOdYjGLp10RaKlKStd"/><linearGradient id="nEhtDOdYjGLp10RaKlKStp" x1="161.04" x2="157.404" y1="28.597" y2="308.092" xlink:href="#nEhtDOdYjGLp10RaKlKStc"/><linearGradient id="nEhtDOdYjGLp10RaKlKStq" x1="171.655" x2="168.05" y1="54.319" y2="331.434" xlink:href="#nEhtDOdYjGLp10RaKlKStc"/></defs><path fill="url(#nEhtDOdYjGLp10RaKlKStb)" d="M96.373,80.671,98,51.9a82.634,82.634,0,0,0-12.959,6.912A18.83,18.83,0,0,1,56.873,48.337a42.423,42.423,0,0,1-1.342-6.652S71.12,54.441,95.3,21.893a15.494,15.494,0,0,1,15.733-5.94c17.981,3.921,53.011,16.769,55.419,57.524Z"/><path fill="url(#nEhtDOdYjGLp10RaKlKStd)" d="M166.454,73.477a62.8,62.8,0,0,0-3.256-16.9c-7.226.629-14.789,1.666-22.169,2.9l-.037.006c-22.984,4.145-28.018-8.245-29.065-15.188a5.44,5.44,0,0,0-4.729-4.569C95.208,38.15,94.12,28.677,94.656,22.749,70.844,54.205,55.531,41.685,55.531,41.685a42.423,42.423,0,0,0,1.342,6.652A18.83,18.83,0,0,0,85.038,58.808,82.634,82.634,0,0,1,98,51.9L96.373,80.671l46.276-4.75h0Z"/><path fill="url(#nEhtDOdYjGLp10RaKlKStf)" d="M290.767,327.845s.988-142.818-3.118-215.581a38.43,38.43,0,0,1,2.9-16.988l2.751-6.584-7.642-5.16c-5.578-4.13-12.938-10.394-17.54-17.5,0,0,4.472-31.118,25.182-50.428,0,0,22.411,14.926,32.12,30.141,0,0-3.7,25.619-12.621,50.057a52.992,52.992,0,0,0-3.287,18.912c.514,36.213,2.063,159.2.272,213.136Z"/><path fill="url(#nEhtDOdYjGLp10RaKlKStc)" d="M270.52,235.27s7.2,47.071,4.8,92.575H251.95l2.193-88.867Z"/><path fill="url(#nEhtDOdYjGLp10RaKlKSta)" d="M265.724,227.274h21.323V257.4H249.2S250,234.737,265.724,227.274Z"/><path fill="url(#nEhtDOdYjGLp10RaKlKStg)" d="M282.782,229.273v24.79a9.2,9.2,0,0,0,9.2,9.2h14.128a12.128,12.128,0,0,0,12.128-12.128V232.205a12.129,12.129,0,0,0-12.128-12.129H291.978A9.2,9.2,0,0,0,282.782,229.273Z"/><path fill="url(#nEhtDOdYjGLp10RaKlKSth)" d="M42.817,160.566s-1.827,33.982-16.078,74.541-12.02,92.738-12.02,92.738H258.4s-8.391-76.373,7.321-100.571a22.372,22.372,0,0,0-3.115-8.268c-4.823-7.651-15.351-9.726-22.214-3.835a15.4,15.4,0,0,0-4.282,6.133c-6.429,1.814-12.276-.526-17.883-4.584-11.973-5.168-26.756-16.131-33.638-39.346Z"/><path fill="url(#nEhtDOdYjGLp10RaKlKSti)" d="M96.9,116.605l-29.232,9.248-7.308,52.252s102.315,57.972,113.093,112.114c0,0,24.618-68.5,8.094-127.095Z"/><path fill="url(#nEhtDOdYjGLp10RaKlKStj)" d="M177.505,164.666s8.266,35.883-1.68,72.619a262.241,262.241,0,0,0-9.046,68.536v22.024h20.188V270.233a79.432,79.432,0,0,1,2.818-21.031c5.861-21.349,16.363-74.311-14.9-99.09Z"/><path fill="url(#nEhtDOdYjGLp10RaKlKStk)" d="M92.567,114.763s-36.314,1.27-53.8,28.807a36.135,36.135,0,0,0-5.008,27.873c3.039,12.413,12.816,29.412,46.181,34.743,0,0,79.463,11.793,78.109,94.479v27.18h15.413V299.859s6.395-80.436-72.475-104.852c0,0-25.725-5.808-31.463-28.839a37.415,37.415,0,0,1,1.95-23.094c3.359-8.257,10.248-19.071,23.807-22.249Z"/><path fill="url(#nEhtDOdYjGLp10RaKlKStl)" d="M99.327,95.919s-12.105,5.8-12.105,22.444c0,0-.252,14.122,14.123,11.1v23.7h65.109s2.728-35.3-7.612-59.011Z"/><path fill="#e78582" d="M87.779,112.447c9.675-2.076,30.478-8.542,44.352-5.924,7.966,1.5,20.535,3.33,31.363,2.369-1.145-5.234-2.242-10.414-4.287-15.1L99.692,95.554C89.48,100.4,87.779,112.447,87.779,112.447Z"/><path fill="url(#nEhtDOdYjGLp10RaKlKSte)" d="M106.145,108.167a43.819,43.819,0,0,1,2.15,4.787,5.635,5.635,0,0,0,10.248.661,38.739,38.739,0,0,0,3.022-7.609A30.76,30.76,0,0,0,106.145,108.167Z"/><path fill="#91a3be" d="M97.38,96.867a39.409,39.409,0,0,1,8.763,11.3,107.645,107.645,0,0,1,15.418-2.164,37.679,37.679,0,0,0,1.356-11.14l-23.225.689A18.666,18.666,0,0,0,97.38,96.867Z"/><path fill="url(#nEhtDOdYjGLp10RaKlKStm)" d="M101.345,129.459s-5.212,3.518-7.675,11.77a27.812,27.812,0,0,0,2.781,21.853,44.705,44.705,0,0,0,10,11.761,3.835,3.835,0,0,0,4.437.337,13.209,13.209,0,0,0,5.079-5.372s10.58,25.592,39.983,37.12a3.744,3.744,0,0,0,3.661-.541c5.425-4.236,21.152-19.943,17.459-57.571a30.673,30.673,0,0,0-2.286-9.158c-1.594-3.7-4.257-7.677-8.334-7.677h-9.118a14.733,14.733,0,0,0-11.85,5.827c-3.44,4.623-9.95,10.313-21.162,10.313C108.437,148.121,101.345,129.459,101.345,129.459Z"/><path fill="#e78582" d="M142.746,120.431a2.988,2.988,0,0,1-.562-.054l-3.5-.674a2.953,2.953,0,1,1,1.116-5.8l3.5.675a2.953,2.953,0,0,1-.555,5.853Z"/><path fill="#e78582" d="M156.135,120.049a2.953,2.953,0,0,1-1-5.732l2.719-.98a2.953,2.953,0,0,1,2,5.556l-2.719.98A2.956,2.956,0,0,1,156.135,120.049Z"/><path fill="#c84343" d="M285.661,83.531c4.368,3.234,7.642,5.161,7.642,5.161a55.612,55.612,0,0,0,11.542-35.339,14.807,14.807,0,0,0-4.667-10.218l-3.406-3.207c-5.858,4.36-9.777,9.971-10.876,17.4a.614.614,0,0,0,1.154.367,23.585,23.585,0,0,1,5.568-7.51,2.888,2.888,0,0,1,4.725,1.966C298.753,70.08,289.167,80.392,285.661,83.531Z"/><path fill="url(#nEhtDOdYjGLp10RaKlKStn)" d="M18.834,85.975s15.336,5.019,52.98-3.346,121.578-17.01,180.136-9.76c0,0-20.3,46.823-97.549,29.638a142.117,142.117,0,0,0-68.952,1.5C65.073,109.68,38.552,110.175,18.834,85.975Z"/><path fill="url(#nEhtDOdYjGLp10RaKlKSto)" d="M229.424,268.809c1.345-32.877,6.689-47.505,6.689-47.505a55.388,55.388,0,0,1-17.883-4.585c-2.781,19.34,1.629,39.6,5.642,52.8A2.839,2.839,0,0,0,229.424,268.809Z"/><path fill="url(#nEhtDOdYjGLp10RaKlKStp)" d="M157.253,284.259a3.446,3.446,0,0,0-3.11,3.751c.059.633.114,1.269.162,1.912a3.444,3.444,0,0,0,3.431,3.186c.087,0,.175,0,.263-.01a3.446,3.446,0,0,0,3.177-3.694q-.078-1.026-.173-2.035A3.451,3.451,0,0,0,157.253,284.259Z"/><path fill="url(#nEhtDOdYjGLp10RaKlKStq)" d="M314.061,264.5a15.565,15.565,0,0,0,7.618-13.364V232.205a15.567,15.567,0,0,0-7.7-13.412c-.211-42.689-.73-83.494-1.022-104.133a49.424,49.424,0,0,1,3.078-17.683,286.462,286.462,0,0,0,12.794-50.744,3.441,3.441,0,0,0-.5-2.346c-9.985-15.648-32.174-30.529-33.114-31.155a3.447,3.447,0,0,0-4.259.348C269.6,32.989,264.9,64.217,264.711,65.537a3.444,3.444,0,0,0,.517,2.362c6.681,10.322,18.552,18.76,23.77,22.16l-1.625,3.889a42.129,42.129,0,0,0-3.164,18.51c1.394,24.7,2.35,60.079,2.844,105.172a12.7,12.7,0,0,0-6.466,6.2H268.476a26.216,26.216,0,0,0-2.953-6.66,18.909,18.909,0,0,0-13.178-8.637,17.706,17.706,0,0,0-14.194,4.027,18.331,18.331,0,0,0-4.112,5.08,55.673,55.673,0,0,1-34.055-18.409,3.429,3.429,0,0,0-.4-.377c-.815-17.667-5.665-35.6-18.914-48.253-.058-.707-.1-1.4-.172-2.12a34.061,34.061,0,0,0-2.551-10.185c-2.43-5.638-5.455-8.156-8.192-9.165a143.1,143.1,0,0,0-2.884-20.851c33.371,4.717,54.72-3.194,67.143-11.256,15.426-10.008,20.868-22.265,21.092-22.783a3.446,3.446,0,0,0-2.737-4.789c-27.319-3.382-57.87-3.163-83.061-1.919a58.464,58.464,0,0,0-23.607-40.107c-11.581-8.672-24.847-12.855-33.936-14.836a18.982,18.982,0,0,0-19.232,7.251C80.881,35.528,71.743,39.76,66.13,40.548c-5.363.752-8.335-1.468-8.418-1.529a3.445,3.445,0,0,0-5.6,3.089A46.059,46.059,0,0,0,53.565,49.3,21.846,21.846,0,0,0,66.907,63.721a22.31,22.31,0,0,0,19.965-2c2.895-1.821,5.388-3.218,7.36-4.248l-1,17.682c-8.3,1.306-15.793,2.693-22.166,4.109C35.153,87.248,20.032,82.741,19.905,82.7a3.445,3.445,0,0,0-3.742,5.45c14.019,17.2,31.252,22.515,47.187,22.514a85.807,85.807,0,0,0,22.21-3.127,30.056,30.056,0,0,0-1.243,4.737c-11.7,2.014-35.2,8.568-48.454,29.449a39.783,39.783,0,0,0-5.446,30.539,43.666,43.666,0,0,0,5.7,13.322,308.7,308.7,0,0,1-12.629,48.38c-14.071,40.05-12.365,90.194-12.218,93.88h6.881c0-.049.011-.1.009-.147-.022-.515-2.03-52,11.829-91.449a314.15,314.15,0,0,0,11.82-43.6c7.5,7.535,19.259,14.013,37.626,16.948a103.33,103.33,0,0,1,31.6,11.635c21.753,12.292,35.546,30.342,41,53.648a3.445,3.445,0,1,0,6.709-1.569c-7.382-31.568-28.294-49.075-44.537-58.2a108.264,108.264,0,0,0-33.711-12.32c-24.518-3.917-39.113-14.738-43.379-32.16a32.867,32.867,0,0,1,4.571-25.207c11.228-17.687,31.04-23.9,42.129-26.046a19.342,19.342,0,0,0,.319,2.42c-8.5,5.358-13.289,13.711-15.841,19.984A40.6,40.6,0,0,0,66.186,167c6.015,24.147,31.506,30.762,33.9,31.333,31.463,9.773,52.787,29.68,63.386,59.171a113.143,113.143,0,0,1,6.559,42.082c-.008.09-.011.181-.011.273v27.985h6.89V299.987a115.419,115.419,0,0,0-3.654-34c.006-.031.018-.059.023-.091a256.535,256.535,0,0,1,5.869-27.705c9.085-33.558,3.261-66.634,2-72.925a3.53,3.53,0,0,0-.186-.6c.05-1.048.076-2.127.092-3.219,19.145,25.755,10.42,68.588,5.406,86.852a82.892,82.892,0,0,0-2.941,21.943v57.612h6.89V270.233a76,76,0,0,1,2.695-20.119,183.235,183.235,0,0,0,6.539-41.341,62.673,62.673,0,0,0,31.9,15.468,57.31,57.31,0,0,0-1.816,13.781,3.444,3.444,0,0,0,3.394,3.494h.051a3.446,3.446,0,0,0,3.444-3.395c.137-9.441,2.6-15.321,2.656-15.441.007-.016.009-.033.016-.049s.021-.039.03-.06a12.041,12.041,0,0,1,3.322-4.786,10.666,10.666,0,0,1,8.68-2.441,12.025,12.025,0,0,1,8.376,5.5,19.54,19.54,0,0,1,2.394,5.767c-14.817,25.407-7.829,94.871-7.151,101.235h6.892a3.375,3.375,0,0,0,0-.376c-.058-.523-3.947-36.866-1.293-66.629h9.5c1.6,17.3,3.139,42.3,1.847,66.824,0,.062.008.12.008.181h6.88c1.282-24.569-.215-49.54-1.815-67.005h4.374a12.7,12.7,0,0,0,6.062,4.989c.115,35.324-.063,61.725-.064,61.993a.179.179,0,0,0,0,.023h6.888c0-.644.176-26.49.067-61.14h11.826c.357,0,.708-.03,1.059-.054-.068,26.164-.344,46.712-.821,61.08,0,.039.007.075.007.114h6.882C313.724,313.015,314,291.7,314.061,264.5ZM171.624,141.022a27.217,27.217,0,0,1,2.021,8.13c3.6,36.733-11.66,51.162-16.267,54.633-27.72-10.8-38.122-35.05-38.223-35.293a3.444,3.444,0,0,0-3.06-2.126l-.124,0a3.445,3.445,0,0,0-3.081,1.9,9.923,9.923,0,0,1-4.023,4.1,41.307,41.307,0,0,1-9.437-11.018,24.409,24.409,0,0,1-2.458-19.138,21.9,21.9,0,0,1,3.4-6.888c3.485,6.163,11.142,16.24,23.949,16.24,12.581,0,19.955-6.364,23.926-11.7a11.316,11.316,0,0,1,9.086-4.438h9.118C168.853,135.426,170.723,138.932,171.624,141.022Zm-58.578-20.989c.19.012.38.017.568.017a8.923,8.923,0,0,0,7.98-4.836,41.611,41.611,0,0,0,4.257-12.72,143.308,143.308,0,0,1,27.8,3.376c1.994.444,3.939.832,5.859,1.193a129.125,129.125,0,0,1,3.3,21.473h-5.476a18.234,18.234,0,0,0-14.614,7.215c-3.028,4.072-8.678,8.924-18.4,8.924-13.221,0-19.641-16.139-19.76-16.443-.6-1.508-1.977-2.149-3.929-2.144-3.243.683-5.7.371-7.286-.929-2.224-1.816-2.69-5.491-2.682-6.8a23.491,23.491,0,0,1,3.56-12.962c1.79-.382,3.593-.718,5.4-1.025a38.827,38.827,0,0,1,5.446,9.8A9.007,9.007,0,0,0,113.046,120.033ZM107.3,103.291q5.736-.639,11.55-.791a34.89,34.89,0,0,1-3.36,9.515,2.087,2.087,0,0,1-2.033,1.141,2.154,2.154,0,0,1-1.943-1.425A46.506,46.506,0,0,0,107.3,103.291Zm-22.778-2.6c-22.973,6.4-41.9,3.056-56.408-9.929,8.668.5,23.086-.018,44.446-4.765,10.612-2.358,24.43-4.641,39.961-6.6a3.445,3.445,0,1,0-.862-6.836c-3.937.5-7.767,1.014-11.467,1.549l1.235-21.877.281-2.012a18.835,18.835,0,0,0-.648-8.087,3.446,3.446,0,0,0-6.586,2.029,11.873,11.873,0,0,1,.41,5.106l-.032.233a99.832,99.832,0,0,0-11.651,6.4A15.477,15.477,0,0,1,69.354,57.28a15.013,15.013,0,0,1-9.173-9.906c-.013-.043-.025-.087-.038-.13a21.03,21.03,0,0,0,6.561.178c10.173-1.258,20.726-9.156,31.364-23.474A12.083,12.083,0,0,1,110.3,19.319c17.519,3.821,47.135,15.2,52.106,48.586-4.412.259-8.626.543-12.572.838a3.445,3.445,0,1,0,.514,6.871c25.858-1.935,62.932-3.418,95.988.079A56.37,56.37,0,0,1,229.9,91.48c-18.452,11.788-44.3,14.44-74.749,7.664A146,146,0,0,0,84.524,100.686Zm87.976,135.7c-1.4,5.162-2.628,10.412-3.714,15.7C160.358,230.7,142,204.1,102.01,191.716c-.086-.027-.173-.05-.26-.069-.237-.054-23.714-5.581-28.879-26.312a33.762,33.762,0,0,1,1.8-20.963c2.061-5.068,5.8-11.711,12.2-16.128a12.419,12.419,0,0,0,2.071,2.208,12.2,12.2,0,0,0,4.789,2.416,29.063,29.063,0,0,0-3.357,7.376,31.331,31.331,0,0,0,3.1,24.568,48.785,48.785,0,0,0,12.8,14.294,3.448,3.448,0,0,0,3.068.561,17.359,17.359,0,0,0,6-3.5,78.67,78.67,0,0,0,41.325,34.713,3.445,3.445,0,0,0,2.88-.249c.68-.388,11.285-6.7,17.353-23.982C177.761,199.989,177.445,218.12,172.5,236.385ZM279.337,253.95H261.286c1.225-9.3,3.239-17.529,6.4-23.232h11.654Zm-7.587-188.7c1.057-5.676,6.23-29.109,21.923-45.2,5.668,4.042,20.477,15.193,28.142,26.47-.874,5.44-4.671,27.321-12.25,48.09a56.3,56.3,0,0,0-3.494,20.142c.287,20.281.793,60.045,1.01,101.924-.324-.021-.646-.05-.975-.05H293.933c-.5-44.758-1.455-79.927-2.844-104.562a35.177,35.177,0,0,1,2.642-15.464l2.559-6.125a58.935,58.935,0,0,0,12-37.252,18.134,18.134,0,0,0-5.748-12.6l-3.406-3.207a3.445,3.445,0,0,0-3.9-.576c-.975.485-9.627,5.258-13.028,23.281a3.445,3.445,0,0,0,6.771,1.277c1.859-9.851,5.441-14.772,7.584-16.937l1.251,1.179a11.436,11.436,0,0,1,3.587,7.835c.532,14.542-5.8,25.859-8.972,30.581C287.7,80.934,277.672,73.727,271.75,65.251Zm34.356,194.564H291.978a5.758,5.758,0,0,1-5.751-5.752v-24.79a5.758,5.758,0,0,1,5.751-5.752h14.128a8.693,8.693,0,0,1,8.683,8.684v18.926A8.693,8.693,0,0,1,306.106,259.815Z"/></svg>