<svg xmlns="http://www.w3.org/2000/svg" xmlns:xlink="http://www.w3.org/1999/xlink" viewBox="0 0 340 340" width="500px" height="500px"><defs><linearGradient id="pjdj31CqLQQcj0eH2Qg72f" x1="115.995" x2="115.995" y1="39.915" y2="145.545" gradientUnits="userSpaceOnUse"><stop offset="0" stop-color="#6f6f81"/><stop offset="1" stop-color="#555568"/></linearGradient><linearGradient id="pjdj31CqLQQcj0eH2Qg72a" x1="146.009" x2="143.192" y1="38.361" y2="304.124" gradientUnits="userSpaceOnUse"><stop offset="0" stop-color="#444456"/><stop offset="1" stop-color="#363644"/></linearGradient><linearGradient id="pjdj31CqLQQcj0eH2Qg72g" x1="184.699" x2="182.879" y1="10.808" y2="342.578" xlink:href="#pjdj31CqLQQcj0eH2Qg72a"/><linearGradient id="pjdj31CqLQQcj0eH2Qg72b" x1="206.187" x2="211.024" y1="164.36" y2="319.632" gradientUnits="userSpaceOnUse"><stop offset="0" stop-color="#faffff"/><stop offset="1" stop-color="#d5e5ef"/></linearGradient><linearGradient id="pjdj31CqLQQcj0eH2Qg72h" x1="141.607" x2="146.444" y1="166.371" y2="321.644" xlink:href="#pjdj31CqLQQcj0eH2Qg72b"/><linearGradient id="pjdj31CqLQQcj0eH2Qg72i" x1="129.819" x2="134.656" y1="166.739" y2="322.012" xlink:href="#pjdj31CqLQQcj0eH2Qg72b"/><linearGradient id="pjdj31CqLQQcj0eH2Qg72j" x1="149.334" x2="154.171" y1="166.131" y2="321.404" xlink:href="#pjdj31CqLQQcj0eH2Qg72b"/><linearGradient id="pjdj31CqLQQcj0eH2Qg72d" x1="121.368" x2="125.345" y1="118.459" y2="161.481" gradientUnits="userSpaceOnUse"><stop offset="0" stop-color="#ffe1db"/><stop offset="1" stop-color="#feb5a9"/></linearGradient><linearGradient id="pjdj31CqLQQcj0eH2Qg72c" x1="90.943" x2="90.943" y1="153.314" y2="278.549" gradientUnits="userSpaceOnUse"><stop offset="0" stop-color="#8aa1e2"/><stop offset="1" stop-color="#637bbe"/></linearGradient><linearGradient id="pjdj31CqLQQcj0eH2Qg72k" x1="165.188" x2="165.188" y1="148.245" y2="184.262" xlink:href="#pjdj31CqLQQcj0eH2Qg72c"/><linearGradient id="pjdj31CqLQQcj0eH2Qg72e" x1="252.446" x2="252.446" y1="128.062" y2="316.895" gradientUnits="userSpaceOnUse"><stop offset="0" stop-color="#ffd58a"/><stop offset=".553" stop-color="#ffbe65"/><stop offset="1" stop-color="#ffae4c"/></linearGradient><linearGradient id="pjdj31CqLQQcj0eH2Qg72l" x1="126.196" x2="125.549" y1="90.539" y2="141.663" xlink:href="#pjdj31CqLQQcj0eH2Qg72d"/><linearGradient id="pjdj31CqLQQcj0eH2Qg72m" x1="252.446" x2="252.446" y1="21.778" y2="113.74" xlink:href="#pjdj31CqLQQcj0eH2Qg72e"/><linearGradient id="pjdj31CqLQQcj0eH2Qg72n" x1="251.788" x2="253.053" y1="167.935" y2="219.995" xlink:href="#pjdj31CqLQQcj0eH2Qg72d"/><linearGradient id="pjdj31CqLQQcj0eH2Qg72o" x1="252.785" x2="247.972" y1="45.791" y2="330.612" xlink:href="#pjdj31CqLQQcj0eH2Qg72a"/><linearGradient id="pjdj31CqLQQcj0eH2Qg72p" x1="171.735" x2="168.109" y1="53.746" y2="332.525" xlink:href="#pjdj31CqLQQcj0eH2Qg72a"/></defs><path fill="url(#pjdj31CqLQQcj0eH2Qg72f)" d="M124.473,33.537S99.362,16.328,81.02,55.094a102.269,102.269,0,0,0-5.437,29A41.762,41.762,0,0,1,65.2,110.7c-8.771,9.847-18.808,25.043-15.835,40.779a19.724,19.724,0,0,0,30.076,12.832q.224-.144.447-.294l78.477-9.077s23.827,3.593,24.772-16.263c.39-8.181-3.426-15.174-8.048-20.57a29.05,29.05,0,0,1-6.8-14.927c-.959-6.973-1.687-17.856-.852-33.714C167.439,69.466,170.086,22.947,124.473,33.537Z"/><path fill="url(#pjdj31CqLQQcj0eH2Qg72a)" d="M154.657,107.49s-1.652,26,3.05,38.6H132.3V120.482Z"/><path fill="url(#pjdj31CqLQQcj0eH2Qg72g)" d="M198.164,245.677a666.063,666.063,0,0,0,17.143,83.532H192.848l-38.636-6.754-3-105.621h31.947Z"/><path fill="#91a3be" d="M250.931,193.662h-19.55s-14.989,3.72-14.989,30.764v35.843s2.607,26.393,34.539,27.7Z"/><path fill="url(#pjdj31CqLQQcj0eH2Qg72b)" d="M183.162,173.14s2.283,17.428,23.612,30.954c0,0,9.137-18.349,34.336-15.477v9.494s-12.226-.52-13.786,15.347v38.128a32.187,32.187,0,0,0,2.8,13.377c2.855,6.251,8.474,13.091,19.313,12.224V296.7s-15.607,6.5-31.475-9.364-49.682-68.151-49.682-68.151S165.012,195.77,183.162,173.14Z"/><path fill="#b0c9dd" d="M192.848,192.137c-8.511-10.049-9.686-19-9.686-19-18.15,22.63-14.885,46.041-14.885,46.041s7.9,12.218,17.859,26.634C180.324,217.127,187.921,199.8,192.848,192.137Z"/><path fill="url(#pjdj31CqLQQcj0eH2Qg72h)" d="M157.209,267.025s18.872,9.778,25.953,34.921c5.457,19.378,9.2,27.263,9.2,27.263H101V267.025Z"/><path fill="url(#pjdj31CqLQQcj0eH2Qg72i)" d="M161.166,223.023s-3.957,15.6-3.957,44L140.065,281.34a10.615,10.615,0,0,1-11.72,1.261l-24.916-13.016V224.653Z"/><path fill="#b0c9dd" d="M103.429,254.562l55.316-16.58a125.642,125.642,0,0,1,2.421-14.959l-57.737,1.63Z"/><path fill="#b0c9dd" d="M103.429,224.653v44.932l18.93,9.889a223.6,223.6,0,0,1,5.885-55.522Z"/><path fill="#b0c9dd" d="M122.471,267.025H101v62.184h27.688A233.677,233.677,0,0,1,122.471,267.025Z"/><path fill="url(#pjdj31CqLQQcj0eH2Qg72j)" d="M175.733,199.519s3.461,19.231-11.447,28.075a26.1,26.1,0,0,1-13.337,3.474H126.687s-8.333-43.106,16.083-59.345L159.3,169.9S171.819,176.692,175.733,199.519Z"/><path fill="#b0c9dd" d="M109.46,231.068h17.227c6.834-33.993,19.278-54.241,19.278-54.241l-6.164-2.936C117.63,191.484,109.46,231.068,109.46,231.068Z"/><path fill="url(#pjdj31CqLQQcj0eH2Qg72d)" d="M109.385,109.38v17.234a11.706,11.706,0,0,1-5.1,9.694c-1.44.977-3.2,2.269-5.3,3.967l-3.176,8.5s9.218,20.03,47.339,17.581l9.857-12.463-7.04-13.616s-10.221-2.3-9.022-14.122Z"/><path fill="url(#pjdj31CqLQQcj0eH2Qg72c)" d="M98.985,140.275s13.464,20.466,44.163,21l2.817,11.579S97.1,215.192,109.487,329.209H36.51S25.469,194.672,98.985,140.275Z"/><path fill="url(#pjdj31CqLQQcj0eH2Qg72k)" d="M145.965,140.275s1.761,12.926-2.817,21l2.817,11.579s19,8.887,29.768,26.66c0,0,9.712-5.868,11.422-25.847a19.657,19.657,0,0,0-7.142-16.921C172.675,150.765,160.4,142.586,145.965,140.275Z"/><rect width="16.238" height="24.005" x="137.245" y="154.559" fill="#fff" rx="8.119" transform="rotate(-17.085 145.358 166.557)"/><rect width="15.216" height="214.494" x="244.838" y="114.715" fill="url(#pjdj31CqLQQcj0eH2Qg72e)"/><path fill="#e78582" d="M140.006,136.685c-1.984-2.137-3.578-5.455-3.063-10.532L109.385,109.38v17.234a11.706,11.706,0,0,1-5.1,9.694q-.558.38-1.182.823C122.765,147.391,134.752,141.135,140.006,136.685Z"/><path fill="url(#pjdj31CqLQQcj0eH2Qg72l)" d="M123.918,57.793s1.25,23.13,27.3,35.007v14.577a25.212,25.212,0,0,1-6.708,17.193,44.069,44.069,0,0,1-10.63,8.587,10.927,10.927,0,0,1-8.823.695c-5.38-1.845-14.4-6.095-20.223-15.012A24.489,24.489,0,0,1,101,105.426V87.966a29.827,29.827,0,0,1,2.048-10.943C105.691,70.306,111.526,60.891,123.918,57.793Z"/><path fill="#e78582" d="M120.052,102.248a3,3,0,0,1-.7-.085,28.844,28.844,0,0,0-4.54-.6,2.953,2.953,0,0,1,.274-5.9,34.513,34.513,0,0,1,5.67.767,2.953,2.953,0,0,1-.7,5.822Z"/><path fill="#e78582" d="M133.943,102.248a2.953,2.953,0,0,1-.7-5.822,34.5,34.5,0,0,1,5.67-.767,2.953,2.953,0,0,1,.274,5.9,28.865,28.865,0,0,0-4.541.6A2.991,2.991,0,0,1,133.943,102.248Z"/><polygon fill="#f78a40" points="244.838 133.756 260.054 142.023 260.054 114.715 244.838 114.715 244.838 133.756"/><polygon fill="#f78a40" points="291.683 58.244 260.054 58.244 260.054 26.615 244.838 26.615 244.838 58.244 213.21 58.244 213.21 73.46 244.838 73.46 244.838 105.089 260.054 105.089 260.054 73.46 291.683 73.46 291.683 58.244"/><path fill="url(#pjdj31CqLQQcj0eH2Qg72m)" d="M252.446,14.236a51.617,51.617,0,1,0,51.617,51.616A51.616,51.616,0,0,0,252.446,14.236Zm0,88.678a37.062,37.062,0,1,1,37.062-37.062A37.062,37.062,0,0,1,252.446,102.914Z"/><polygon fill="#f78a40" points="244.838 226.023 260.054 234.368 260.054 191.263 244.838 191.263 244.838 226.023"/><rect width="27.782" height="38.339" x="238.522" y="174.492" fill="url(#pjdj31CqLQQcj0eH2Qg72n)" rx="11.113"/><path fill="url(#pjdj31CqLQQcj0eH2Qg72o)" d="M252.446,25.346a40.507,40.507,0,1,0,40.507,40.507A40.552,40.552,0,0,0,252.446,25.346Zm-11.053,8.766V54.8H220.705A33.769,33.769,0,0,1,241.393,34.112Zm0,63.481a33.773,33.773,0,0,1-20.688-20.688h20.688Zm22.107,0V76.905h20.688A33.773,33.773,0,0,1,263.5,97.593Zm-3.445-59.461a3.445,3.445,0,0,0-3.446,3.445V58.244a3.445,3.445,0,0,0,3.446,3.445H285.8a32.588,32.588,0,0,1,0,8.326H260.055a3.445,3.445,0,0,0-3.446,3.445V99.2a68.429,68.429,0,0,1-8.326,0V73.46a3.445,3.445,0,0,0-3.445-3.445H219.1a32.588,32.588,0,0,1,0-8.326h25.741a3.445,3.445,0,0,0,3.445-3.445V32.5a33.523,33.523,0,0,1,35.9,22.3H263.5V41.577A3.445,3.445,0,0,0,260.055,38.132Z"/><path fill="url(#pjdj31CqLQQcj0eH2Qg72p)" d="M269.749,201.719V185.605a14.544,14.544,0,0,0-6.249-11.938V119.8a55.062,55.062,0,1,0-22.107,0v53.82a14.545,14.545,0,0,0-6.279,11.258c-16.613.254-25.606,9.344-29.338,14.4a50.975,50.975,0,0,1-16-17.789,3.433,3.433,0,0,0-.223-.34,61.193,61.193,0,0,0,1.032-7.18,23.086,23.086,0,0,0-8.4-19.885c-.531-.433-1.086-.875-1.658-1.321,3.691-3.383,5.767-8.114,6.044-13.919.378-7.931-2.608-15.661-8.873-22.975a25.581,25.581,0,0,1-6-13.155c-.847-6.153-1.678-16.883-.827-33.05.052-.911,1.112-22.461-12.711-34.1-8.01-6.744-19.145-8.654-33.109-5.686A28.706,28.706,0,0,0,104.08,27.22c-10.411,2.815-19.217,11.7-26.174,26.4-.043.091-.081.183-.116.276A104.933,104.933,0,0,0,72.139,84a38.392,38.392,0,0,1-9.514,24.414c-9.374,10.523-19.871,26.649-16.648,43.709a22.823,22.823,0,0,0,9.881,14.9,3.445,3.445,0,0,0,3.808-5.743,15.982,15.982,0,0,1-6.919-10.44c-2.7-14.307,6.678-28.479,15.023-37.847A45.3,45.3,0,0,0,79.027,84.2,99.888,99.888,0,0,1,84.2,56.42c6.017-12.658,13.277-20.235,21.58-22.522a22.072,22.072,0,0,1,16.741,2.481,3.444,3.444,0,0,0,2.727.513c12.362-2.868,21.935-1.55,28.453,3.921C164.893,50.2,164.009,69.086,164,69.285c-.707,13.424-.411,24.986.879,34.365a32.465,32.465,0,0,0,7.592,16.7c5.085,5.935,7.515,12.047,7.223,18.164-.218,4.573-1.844,7.877-4.94,10.07-7.517-5.024-17.16-9.888-28.037-11.671a9.023,9.023,0,0,1-5.523-4.552,35.169,35.169,0,0,0,5.836-5.442c5.976-7.5,7.623-19.123,7.624-19.281,0-.083,0-.13,0-.136v-.011c0-.038,0-14.69,0-14.69a3.446,3.446,0,0,0-2.015-3.135c-23.708-10.811-25.233-31.208-25.287-32.07a3.445,3.445,0,0,0-4.274-3.144C112.462,57.106,104.208,64.674,99.84,75.76a33.152,33.152,0,0,0-2.288,12.206v17.46a27.847,27.847,0,0,0,4.395,15.3,36.423,36.423,0,0,0,3.993,5.058v.832a8.246,8.246,0,0,1-3.586,6.844c-1.7,1.153-3.554,2.539-5.512,4.12C66.094,160.38,45.324,200.841,36.776,254.6a354.3,354.3,0,0,0-3.721,74.609h6.883c0-.094.013-.185,0-.281a345.467,345.467,0,0,1,3.662-73.393c5.634-35.324,19.719-82.738,54.768-110.454,4.422,5.125,15.446,15.445,34.326,18.664a11.615,11.615,0,0,0,.47,2.5l2.282,7.425a11.473,11.473,0,0,0,1.836,3.574c-13.946,17.28-40.825,63.129-31.263,151.963h6.891a3.3,3.3,0,0,0,0-.372,311.468,311.468,0,0,1-1.546-51.219l15.384,8.037a14.026,14.026,0,0,0,15.523-1.67l15.253-12.738a56.284,56.284,0,0,1,22.319,31.633c4.227,15,7.438,23.212,8.755,26.329h7.2a3.411,3.411,0,0,0-.319-1.473c-.037-.078-3.715-7.964-9-26.724-6.153-21.846-20.629-32.67-25.814-35.947a235.271,235.271,0,0,1,2.325-32.967,26.867,26.867,0,0,0,3.055-1.541,27.161,27.161,0,0,0,3.791-2.718c6.765,10.234,17.981,26.875,28.479,40.988,0,.034,0,.068.008.1,2.589,14.755,7.009,37.111,13.413,60.28h7a3.412,3.412,0,0,0-.112-.924c-4.791-17.2-8.473-34.009-11.117-47.587,2.934,3.6,5.658,6.713,8.015,9.07,9.706,9.706,19.519,11.678,25.869,11.686v27.755h6.89v-113c.446.041.9.069,1.352.069h5.557c.478,0,.951-.027,1.417-.072v113H263.5V213.657A14.545,14.545,0,0,0,269.749,201.719ZM149.723,144.558c11.636,2.9,21.561,9.519,28.112,14.862a16.2,16.2,0,0,1,5.887,13.958c-.992,11.6-4.757,17.879-7.316,20.879a77.728,77.728,0,0,0-19.53-18.908,11.511,11.511,0,0,0,.682-8.472l-2.282-7.425a11.529,11.529,0,0,0-5.927-6.951A51.942,51.942,0,0,0,149.723,144.558Zm-5.5,13.618a4.682,4.682,0,0,1,4.47,3.3l2.282,7.425a4.674,4.674,0,1,1-8.935,2.747l-2.282-7.425a4.673,4.673,0,0,1,4.465-6.047Zm-39.778-52.75V87.966a26.3,26.3,0,0,1,1.808-9.68c2.2-5.584,6.526-12.551,14.889-15.97,1.644,7.514,7.309,23,26.63,32.656v12.336q0,.067-.006.2a21.669,21.669,0,0,1-5.777,14.716,40.181,40.181,0,0,1-9.773,7.919,7.5,7.5,0,0,1-6.041.452c-4.595-1.576-13.1-5.443-18.457-13.638A20.979,20.979,0,0,1,104.442,105.426Zm29.8,51.609a51.929,51.929,0,0,1-30.386-16.185c.823-.614,1.614-1.18,2.367-1.691a15.054,15.054,0,0,0,5.927-8.032,47.839,47.839,0,0,0,11.786,5.983,14.736,14.736,0,0,0,4.782.8,14.119,14.119,0,0,0,6.72-1.689,15.74,15.74,0,0,0,7.3,6.534,47.077,47.077,0,0,1-.195,8.666,11.339,11.339,0,0,0-8.3,5.613ZM153.767,265.41,137.857,278.7a7.152,7.152,0,0,1-7.916.852L111.9,270.126a217.486,217.486,0,0,1,5.951-35.613h33.094a32.127,32.127,0,0,0,4.795-.37A251.08,251.08,0,0,0,153.767,265.41Zm8.761-40.779a22.67,22.67,0,0,1-11.579,2.992h-31.17c.307-1.027.6-2.064.926-3.078,7.109-22.312,16.475-36.236,22.2-43.285a11.562,11.562,0,0,0,9.161-.846c6.351,4.242,14.542,10.989,20.365,20.333C172.84,203.908,173.923,217.871,162.528,224.631Zm78.865,69.94c-5.607.025-13.2-1.876-21-9.676-12.61-12.61-37.214-49.328-45.827-62.394,5.289-7.983,5.188-17.364,4.817-21.489a30.72,30.72,0,0,0,7.479-11.051,60.825,60.825,0,0,0,15.612,15.408,45.132,45.132,0,0,0-2.922,17.808,3.445,3.445,0,0,0,3.438,3.29c.053,0,.106,0,.159,0a3.446,3.446,0,0,0,3.286-3.6,37.851,37.851,0,0,1,3.4-17.188l.007-.02.009-.013c.3-.577,7.132-13.507,25.227-13.871v4.112c-4.366,1.761-10.094,6.17-11.182,17.235-.01.112-.016.225-.016.337v38.128a35.385,35.385,0,0,0,3.108,14.807c3.222,7.057,8.177,11.662,14.406,13.457Zm0-22.049c-3.394-1.573-6.124-4.58-8.138-8.991a28.529,28.529,0,0,1-2.486-11.945V213.632c.543-5.208,2.372-8.2,4.462-9.915a14.558,14.558,0,0,0,6.162,9.989Zm21.466-70.8a7.676,7.676,0,0,1-7.667,7.668h-5.557a7.676,7.676,0,0,1-7.668-7.668V185.605a7.676,7.676,0,0,1,7.668-7.668h5.557a7.676,7.676,0,0,1,7.667,7.668Zm-14.576-30.6V120.74c1.376.1,2.761.174,4.163.174s2.787-.07,4.163-.174v50.379c-.466-.045-.939-.072-1.417-.072h-5.557C249.179,171.047,248.729,171.074,248.283,171.116Zm4.163-57.092a48.172,48.172,0,1,1,48.172-48.171A48.226,48.226,0,0,1,252.446,114.024Z"/></svg>