<svg xmlns="http://www.w3.org/2000/svg" xmlns:xlink="http://www.w3.org/1999/xlink" viewBox="0 0 340 340" width="500px" height="500px"><defs><linearGradient id="5paxj77hnMaW0Q2Kcf5d9a" x1="203.58" x2="201.318" y1="10.005" y2="333.381" gradientUnits="userSpaceOnUse"><stop offset="0" stop-color="#444456"/><stop offset="1" stop-color="#363644"/></linearGradient><linearGradient id="5paxj77hnMaW0Q2Kcf5d9d" x1="104.582" x2="260.288" y1="242.432" y2="290.438" gradientUnits="userSpaceOnUse"><stop offset="0" stop-color="#7d7daf"/><stop offset="1" stop-color="#5c5c89"/></linearGradient><linearGradient id="5paxj77hnMaW0Q2Kcf5d9c" x1="172.117" x2="212.119" y1="154.313" y2="154.176" gradientUnits="userSpaceOnUse"><stop offset="0" stop-color="#ffe1db"/><stop offset="1" stop-color="#feb5a9"/></linearGradient><linearGradient id="5paxj77hnMaW0Q2Kcf5d9f" x1="143.388" x2="134.343" y1="7.794" y2="320.994" xlink:href="#5paxj77hnMaW0Q2Kcf5d9a"/><linearGradient id="5paxj77hnMaW0Q2Kcf5d9b" x1="174.873" x2="168.263" y1="256.901" y2="344.778" gradientUnits="userSpaceOnUse"><stop offset="0" stop-color="#fff7ee"/><stop offset="1" stop-color="#efd3cc"/></linearGradient><linearGradient id="5paxj77hnMaW0Q2Kcf5d9g" x1="98.209" x2="91.599" y1="251.134" y2="339.011" xlink:href="#5paxj77hnMaW0Q2Kcf5d9b"/><linearGradient id="5paxj77hnMaW0Q2Kcf5d9h" x1="130.893" x2="125.061" y1="135.49" y2="238.532" xlink:href="#5paxj77hnMaW0Q2Kcf5d9b"/><linearGradient id="5paxj77hnMaW0Q2Kcf5d9i" x1="129.54" x2="130.142" y1="108.556" y2="163.164" xlink:href="#5paxj77hnMaW0Q2Kcf5d9c"/><linearGradient id="5paxj77hnMaW0Q2Kcf5d9j" x1="103.364" x2="259.069" y1="243.243" y2="291.25" xlink:href="#5paxj77hnMaW0Q2Kcf5d9d"/><linearGradient id="5paxj77hnMaW0Q2Kcf5d9k" x1="88.486" x2="63.69" y1="140.661" y2="189.979" xlink:href="#5paxj77hnMaW0Q2Kcf5d9c"/><linearGradient id="5paxj77hnMaW0Q2Kcf5d9e" x1="75.498" x2="24.15" y1="261.404" y2="208.853" gradientUnits="userSpaceOnUse"><stop offset="0" stop-color="#dba29a"/><stop offset="1" stop-color="#c97e76"/></linearGradient><linearGradient id="5paxj77hnMaW0Q2Kcf5d9l" x1="22.859" x2="93.389" y1="57.505" y2="113.882" gradientUnits="userSpaceOnUse"><stop offset="0" stop-color="#8b5858"/><stop offset="1" stop-color="#634242"/></linearGradient><linearGradient id="5paxj77hnMaW0Q2Kcf5d9m" x1="145.057" x2="144.606" y1="77.433" y2="123.014" xlink:href="#5paxj77hnMaW0Q2Kcf5d9c"/><linearGradient id="5paxj77hnMaW0Q2Kcf5d9n" x1="161.568" x2="101.219" y1="33.013" y2="90.72" gradientUnits="userSpaceOnUse"><stop offset="0" stop-color="#aa6c6c"/><stop offset="1" stop-color="#8b5454"/></linearGradient><linearGradient id="5paxj77hnMaW0Q2Kcf5d9o" x1="277.468" x2="204.458" y1="165.788" y2="141.719" xlink:href="#5paxj77hnMaW0Q2Kcf5d9e"/><linearGradient id="5paxj77hnMaW0Q2Kcf5d9p" x1="111.619" x2="67.602" y1="267.502" y2="259.279" xlink:href="#5paxj77hnMaW0Q2Kcf5d9c"/><linearGradient id="5paxj77hnMaW0Q2Kcf5d9q" x1="322.334" x2="268.401" y1="167.274" y2="163.888" xlink:href="#5paxj77hnMaW0Q2Kcf5d9c"/><linearGradient id="5paxj77hnMaW0Q2Kcf5d9r" x1="171.016" x2="166.202" y1="50.007" y2="334.827" xlink:href="#5paxj77hnMaW0Q2Kcf5d9a"/></defs><path fill="url(#5paxj77hnMaW0Q2Kcf5d9a)" d="M157,258.887s15.17-4.268,34.841-18.27c0,0,25.529-19.829,55-5.715l-22.623,23.985S177.37,268.967,157,258.887Z"/><path fill="url(#5paxj77hnMaW0Q2Kcf5d9d)" d="M155.419,251.671s15.151,5.231,37.359,1.288c0,0,42.341-10.944,58.738,25.142l-9.755,32.142s-10.378-32.322-54.587-36.086-46.907-14.142-46.907-14.142Z"/><path fill="url(#5paxj77hnMaW0Q2Kcf5d9c)" d="M146.6,134.275a75.746,75.746,0,0,1,20.076,6.8,29.343,29.343,0,0,0,11.418,3.23c5.651.421,14.116,1.027,22.716,1.553l7.325,28.457H167.254Z"/><path fill="#e78582" d="M167.254,174.315h40.88l-2.087-8.1H185.113a14.2,14.2,0,0,1-10.875-5.093c-4.265-5.089-11.454-12.755-19.176-17.053a4.49,4.49,0,0,0-3.678-.512Z"/><path fill="url(#5paxj77hnMaW0Q2Kcf5d9f)" d="M94.446,326.226h79.491V296.111l-39.746-22.395S104.66,300.733,94.446,326.226Z"/><path fill="url(#5paxj77hnMaW0Q2Kcf5d9b)" d="M139.534,288.9a85.186,85.186,0,0,1,18.723,26.933,17.134,17.134,0,0,0,15.68,10.393h37.83s-15.158-35.441-53-56.454l-27.022.679Z"/><path fill="#be9180" d="M157.229,269.593l-25.484.858-.9,11.217a64.158,64.158,0,0,1,8.688,7.233C141.527,284.415,150.271,273.485,157.229,269.593Z"/><path fill="url(#5paxj77hnMaW0Q2Kcf5d9g)" d="M91.611,266s-34.244,15.228-53.179,60.23H94.446a29.634,29.634,0,0,0,27.9-19.843c4.621-13.06,13.192-29.02,28.556-36.185Z"/><path fill="url(#5paxj77hnMaW0Q2Kcf5d9h)" d="M118.872,122.832S110.1,131.814,91.1,134.32L79.939,187.508l4.542,18.977,6.841,9.265a12.715,12.715,0,0,1,2.489,7.557v10.641s34.671,4.595,64.956,0V222.17a17.924,17.924,0,0,1,3.576-10.721,62.55,62.55,0,0,1,6.742-7.67,21.755,21.755,0,0,0,6.609-18.668,77.818,77.818,0,0,0-34.471-54.759Z"/><path fill="#be9180" d="M96.692,147.957l-11.225,5.08L73.76,191.967l10.721,14.518c.648-7.339,2.588-15.386,7.13-22.429C103.857,165.067,96.692,147.957,96.692,147.957Z"/><path fill="#be9180" d="M143.431,162.129s11.221,22.675,2.1,41.257a29.007,29.007,0,0,1-3.37,5.2c-3.251,4.1-11.693,15.6-12.5,25.36v2.038q3.291-.015,6.7-.117A42.712,42.712,0,0,1,146.6,210.356l.066-.076a34.243,34.243,0,0,0,8.058-17.932c2.779-22.056-12.406-38.053-12.406-38.053Z"/><path fill="url(#5paxj77hnMaW0Q2Kcf5d9i)" d="M115.89,95.868v33.578s2.652,22.833,27.541,32.683c0,0-1.428-24.4,0-52.606C143.431,109.523,131.6,99,115.89,95.868Z"/><path fill="url(#5paxj77hnMaW0Q2Kcf5d9j)" d="M93.811,233.948c23.568,1.369,45.707,1.716,64.956,0v35.824S117.338,272.929,91.611,266Z"/><path fill="url(#5paxj77hnMaW0Q2Kcf5d9k)" d="M91.1,134.32S76.736,131.738,59.1,165.669L82.883,181.91c1.8-3.12,4.7-7.776,6.751-10.633,5.48-7.645,7.062-23.321,7.062-23.321A31.069,31.069,0,0,0,91.1,134.32Z"/><path fill="#e78582" d="M83.862,182.578a87.852,87.852,0,0,1,5.868-8.936,36.006,36.006,0,0,0,6.51-14,32.754,32.754,0,0,0,.452-11.683c-.863,3.431-3.629,12.11-10.672,18.571a50.828,50.828,0,0,0-9.051,11.343Z"/><path fill="#e9f4fc" d="M230.377,146.87c-5.2.306-17.516-.275-29.569-1.013a30.939,30.939,0,0,0,7.325,28.458h38.712Z"/><path fill="#be9180" d="M84.633,269.9a109.41,109.41,0,0,0-17,13.424,276.978,276.978,0,0,0,26.031,9.7c17.467,5.294,24.723-10.049,24.723-10.049Z"/><path fill="#e9f4fc" d="M83.866,182.581C77.873,172.45,65.822,167.645,59.1,165.67c-.719,1.384-1.444,2.822-2.173,4.33-18.614,38.477-16.406,53.936-16.406,53.936l25.246,10.012S70.748,205.317,83.866,182.581Z"/><path fill="#b0c9dd" d="M78.267,175.816c-5.354,8.146-10.536,20.06-16.673,38.819a5.458,5.458,0,0,1-6.714,3.548,132.337,132.337,0,0,0-13.768-3.3c-.986,6.221-.589,9.05-.589,9.05l25.246,10.012s4.979-28.631,18.1-51.367A29.3,29.3,0,0,0,78.267,175.816Z"/><path fill="url(#5paxj77hnMaW0Q2Kcf5d9e)" d="M23.536,218.261c15.635.547,53.505,5.5,68.075,39.745l-13.57,18.363S44.248,266,19.944,224.3A4.014,4.014,0,0,1,23.536,218.261Z"/><path fill="#b0c9dd" d="M52.973,178.532q-1.291,2.91-2.416,5.618c2.08.242,17.183,2.4,25.555,14.536.834-2.062,1.726-4.136,2.675-6.205C70.188,182.371,57.915,179.36,52.973,178.532Z"/><path fill="#b0c9dd" d="M44.876,199.558c-.654,2.067-1.2,3.979-1.683,5.765,4.452.449,18.787,2.537,26.805,11.127.581-2,1.23-4.115,1.944-6.3C63.034,202.478,50.41,200.2,44.876,199.558Z"/><path fill="#4b4b5e" d="M92.646,250.917l-.4,5.789a274.06,274.06,0,0,0,36.372,2.543,183.514,183.514,0,0,0,30.147-2.319v-6.977C133.552,254.416,105.021,252.612,92.646,250.917Z"/><path fill="#e78582" d="M115.89,118.619l26.946,6.818c.1-4.014.38-11.656.595-15.914,0,0-11.832-10.521-27.541-13.655Z"/><path fill="url(#5paxj77hnMaW0Q2Kcf5d9l)" d="M106.321,89.452c0,.366-14.474-.733-26.382,10.626,0,0-12.092-5.5-22.718,2.565A32.727,32.727,0,0,0,38.9,92.566C37.618,78.643,29.215,71.71,29.215,71.71c12.3-12.795,3.273-28.61,3.273-28.61S41.1,25.67,29.373,13.774c0,0-24.656,11.108-14.343,48.889h0c-7.431,14.666,4.083,30.82,4.083,30.82.733,21.436,22.717,20.674,22.717,20.674l0-.023a18.956,18.956,0,0,0,14.736,7.9c4.563.195,9.961-.625,14.214-4.368,0,0,18.11,4.763,24.811-7.328,0,0,8.721,4.164,21.907.732V96.561Z"/><path fill="url(#5paxj77hnMaW0Q2Kcf5d9m)" d="M171.256,78.675s-1.343,13.289-3.615,24.408a25.519,25.519,0,0,1-7.754,13.647h0a10.278,10.278,0,0,1-9.311,2.481,39.266,39.266,0,0,1-21.8-13.8c-11.325-14.3-9.84-32.674-9.84-32.674l34.717-33.788L169.061,42.1Z"/><path fill="url(#5paxj77hnMaW0Q2Kcf5d9n)" d="M155.7,42.845s-.146,16.285-18.708,27.108a20.268,20.268,0,0,0-10.071,16.819,71.85,71.85,0,0,0,1.86,18.637s-31.109-5.13-33.093-39.132a50.643,50.643,0,0,1,10.969-35.213,45.589,45.589,0,0,1,4.087-4.37c6.567-6.14,16.79-9.747,32.536-6.575,7.871,1.586,12.958,8.566,12.958,8.566s16.8-7.676,23.339,16.293a29.947,29.947,0,0,1,1.082,7.627c.047,5.99-1.122,17.253-9.4,26.07a26.7,26.7,0,0,0-3.494-12.995C164.049,59.368,157.551,53.056,155.7,42.845Z"/><path fill="#e78582" d="M148.875,86.521a2.947,2.947,0,0,1-.834-.121c-.432-.127-1-.266-1.627-.4a2.953,2.953,0,0,1,1.253-5.771c.779.169,1.465.34,2.039.509a2.954,2.954,0,0,1-.831,5.787Z"/><path fill="#e78582" d="M162.616,86.632a2.953,2.953,0,0,1-.833-5.786c.515-.151,1.194-.32,1.869-.473a2.953,2.953,0,1,1,1.31,5.759c-.547.124-1.095.257-1.51.379A2.961,2.961,0,0,1,162.616,86.632Z"/><path fill="#b0c9dd" d="M211.764,146.471c.449,3.836,2.309,10.539,8.911,19.74H202.681a31.27,31.27,0,0,0,5.453,8.1h38.711L230.377,146.87C226.773,147.082,219.748,146.868,211.764,146.471Z"/><path fill="url(#5paxj77hnMaW0Q2Kcf5d9o)" d="M214.394,139.618a68.13,68.13,0,0,0,16.717,28.122,28.781,28.781,0,0,0,20.309,8.337h40.836V150.295s-39.467-14.2-73.872-15.866A4.006,4.006,0,0,0,214.394,139.618Z"/><path fill="#b47171" d="M32.889,242.856c21.83,26.334,45.152,33.513,45.152,33.513l13.57-18.363A58.725,58.725,0,0,0,82.827,243.5C66.546,258.95,45.366,250.41,32.889,242.856Z"/><path fill="url(#5paxj77hnMaW0Q2Kcf5d9p)" d="M89.842,254.212a50.1,50.1,0,0,0-6.042,8.695s-.517,16.755,12.192,21.5c7.264,2.712,19.939,3.3,23.762-3.447.2-.351.391-.714.576-1.092a16.009,16.009,0,0,0-6.074-20.525l-2.29-1.426-.146-3.221a9.408,9.408,0,0,0-13.349-8.113A19.744,19.744,0,0,0,89.842,254.212Z"/><path fill="#b47171" d="M292.256,166.211H262.164c-22.239,0-33.709-4.79-38.948-8.058a63.879,63.879,0,0,0,7.891,9.584,28.785,28.785,0,0,0,20.313,8.34h40.836Z"/><path fill="#e78582" d="M119.754,280.96c.2-.351.391-.714.576-1.092a15.459,15.459,0,0,0,1.349-4.171c-6.483,5.924-13.928,4.545-26.09-.45C86.72,271.6,84.332,266.385,83.8,262.909a66.227,66.227,0,0,0-5.762,13.46,111.16,111.16,0,0,0,22.305,11.455A15.924,15.924,0,0,0,119.754,280.96Z"/><path fill="url(#5paxj77hnMaW0Q2Kcf5d9q)" d="M292.256,150.295s-4.584,15.4,0,25.782h10.655A8.058,8.058,0,0,1,309.2,179.1h0a8.056,8.056,0,0,0,6.292,3.025h3.8a8.185,8.185,0,0,0,8.184-8.185v-8.459a14.036,14.036,0,0,0-13.421-14.022Z"/><path fill="#e78582" d="M292.256,176.077h10.655A8.058,8.058,0,0,1,309.2,179.1a8.056,8.056,0,0,0,6.292,3.025h3.8a8.183,8.183,0,0,0,8.146-7.423c-13.073,1.164-18.594-8.492-18.594-8.492h-18.6A26.931,26.931,0,0,0,292.256,176.077Z"/><path fill="url(#5paxj77hnMaW0Q2Kcf5d9r)" d="M314.244,148.02l-21.305-1.138c-5.117-1.806-45.74-15.761-79.842-16.052a3.445,3.445,0,0,0-3.432,3.991,54.048,54.048,0,0,0,2.2,8.205c-3.268-.163-6.893-.365-10.848-.608h0c-8.583-.526-17.063-1.133-22.665-1.55a25.761,25.761,0,0,1-10.079-2.848,79.072,79.072,0,0,0-20.214-6.981c-.581-.449-1.177-.894-1.779-1.336.027-2.609.073-5.311.145-8.086,1.177.379,2.307.7,3.359.945a13.457,13.457,0,0,0,3.12.365,13.768,13.768,0,0,0,9.319-3.663,28.767,28.767,0,0,0,8.8-15.492c1.93-9.437,3.179-20.215,3.552-23.653,8.363-9.551,9.581-21.28,9.532-27.542a33.4,33.4,0,0,0-1.2-8.507c-2.543-9.326-6.906-15.494-12.967-18.333A18.821,18.821,0,0,0,157.36,24.7c-2.346-2.509-7.06-6.68-13.4-7.958-15.079-3.038-27.045-.535-35.569,7.436a49.206,49.206,0,0,0-4.4,4.7,53.952,53.952,0,0,0-11.745,37.6,47.259,47.259,0,0,0,5.695,20.571,41.57,41.57,0,0,0-18.765,9.088c-4-1.253-12.845-3.008-21.488,2.062A37.1,37.1,0,0,0,42.01,89.73a36.537,36.537,0,0,0-8.148-18.174c7.731-10.22,5.423-22.193,2.434-28.576,2.005-5.011,6.727-20.266-4.468-31.624a3.445,3.445,0,0,0-3.869-.723c-.269.121-26.646,12.521-16.578,51.685C5.265,76.026,12.94,90.176,15.594,94.4c.04.062.1.106.137.165,1.245,20.082,19.04,22.674,24.393,22.993a22.46,22.46,0,0,0,16.292,7.917q.687.03,1.361.03a23.235,23.235,0,0,0,13.862-4.13,39.877,39.877,0,0,0,7.2.672c5.879,0,13.327-1.434,18.118-7.568a33.94,33.94,0,0,0,4.816,1.021,3.559,3.559,0,0,0,.481.034,3.446,3.446,0,0,0,.472-6.858,23.56,23.56,0,0,1-5.489-1.378l-11.53-7.559a35.833,35.833,0,0,1,16.516-6.433,44.086,44.086,0,0,0,10.223,8.969v21.149c-4.253,2.723-11.244,6.024-21.424,7.425-3.568-.264-18.16.875-34.978,33.231-.005.009-.007.02-.012.03-.755,1.452-1.5,2.929-2.2,4.39-11.61,24-15.272,39.36-16.375,47.6a100.557,100.557,0,0,0-21.064-1.247,3.445,3.445,0,0,0-2.814,5.032c23.539,45.053,58.143,58,62.928,59.6a114.914,114.914,0,0,0,22.639,11.56,19.5,19.5,0,0,0,23.609-8.391q.349-.617.673-1.277a19.023,19.023,0,0,0,1.918-7.653c3.914.143,7.722.2,11.284.2q1.2,0,2.357-.008c-10.177,8.787-16.328,21.261-19.883,31.311a26.255,26.255,0,0,1-24.655,17.547H43.728A123.3,123.3,0,0,1,68.4,287.39a3.445,3.445,0,0,0-4.862-4.883A131.215,131.215,0,0,0,35.256,324.89a3.446,3.446,0,0,0,3.176,4.781H94.445A33.158,33.158,0,0,0,125.6,307.532a80.9,80.9,0,0,1,9.112-18.415,81.812,81.812,0,0,1,20.39,28.089,20.592,20.592,0,0,0,18.84,12.465h37.829a3.446,3.446,0,0,0,3.168-4.8c-.628-1.468-15.6-35.664-52.722-57.089V256.917a93.281,93.281,0,0,0,31.168-.4c.084-.015.172-.034.255-.056,1.6-.408,38.859-9.521,54.2,22.073l-6.827,22.493c-6.38-10.485-21.508-27.409-53.541-30.136-2.368-.2-4.679-.428-6.872-.674a3.445,3.445,0,0,0-.767,6.848c2.253.252,4.626.484,7.054.691,41.231,3.511,51.2,32.485,51.6,33.707a3.444,3.444,0,0,0,3.279,2.392h.028a3.446,3.446,0,0,0,3.269-2.445l9.756-32.142a3.454,3.454,0,0,0-.161-2.426,46.711,46.711,0,0,0-21.041-22.723l15.739-16.687a3.445,3.445,0,0,0-1.018-5.471c-30.593-14.651-56.736,4.671-58.539,6.053a147.609,147.609,0,0,1-21.135,12.6c-.095.046-.175.109-.264.163-2.4-.229-4.477-.534-6.181-.845V222.17a14.378,14.378,0,0,1,2.892-8.661,58.707,58.707,0,0,1,6.365-7.244,25.3,25.3,0,0,0,7.637-21.629,80.766,80.766,0,0,0-19.727-43.1,59.869,59.869,0,0,1,5.7,2.589,32.609,32.609,0,0,0,12.758,3.612c4.786.356,11.665.851,18.922,1.316a33.863,33.863,0,0,0,4.49,21.814H186.983a3.445,3.445,0,0,0,0,6.89H240.83a32.5,32.5,0,0,0,10.59,1.762h51.491a4.59,4.59,0,0,1,3.6,1.73,11.442,11.442,0,0,0,8.982,4.319h3.8a11.643,11.643,0,0,0,11.63-11.63v-8.459A17.438,17.438,0,0,0,314.244,148.02ZM28.627,18.19c6.235,8.477,2.505,19.281,1.174,22.477-2.269,1.394-7.436,5.138-13.173,13.071C13.178,31.39,23.848,21.445,28.627,18.19ZM17.173,81.333c-1.59-5.389-2.109-12.119,1.6-18.328,4.737-7.929,9.325-12.421,12.2-14.726C32.536,52.952,33.9,61.5,27.062,68.948A20.853,20.853,0,0,0,17.173,81.333Zm5.384,12.032c-.335-9.783,2.79-14.761,6.123-17.292A29.812,29.812,0,0,1,35.4,92.264a31.293,31.293,0,0,0,.553,17.747C30.318,108.648,22.943,104.7,22.557,93.365Zm34.154,25.227A15.354,15.354,0,0,1,43.376,110a23.545,23.545,0,0,1-1.86-13.256,29.383,29.383,0,0,1,13.042,8.083c.017.022.04.037.058.058s.029.045.047.065L65.545,117.01A18.361,18.361,0,0,1,56.711,118.592Zm33.929-7.379c-5.369,5.266-15.01,3.915-18.044,3.325L62.554,103.41c7.254-3.426,14.431-.818,15.758-.279Zm103.2,132.372.11-.082c.926-.713,21.794-16.45,46.988-7.2l-14.072,14.92a55.833,55.833,0,0,0-10.39-2.476,69.646,69.646,0,0,0-24.419,1,91.986,91.986,0,0,1-9.456,1.162Q188.277,247.54,193.841,243.585ZM164.266,102.393a21.934,21.934,0,0,1-6.712,11.8,6.808,6.808,0,0,1-6.182,1.664,35.709,35.709,0,0,1-19.408-12,68.212,68.212,0,0,1-1.6-16.967,16.733,16.733,0,0,1,8.361-13.958c9.72-5.667,14.813-12.737,17.482-18.6a78.441,78.441,0,0,0,5.232,8.087c1.243,1.755,2.416,3.411,3.357,5.01a23.513,23.513,0,0,1,3.021,11.046C167.664,79.906,166.355,92.176,164.266,102.393Zm-24.53,54.234a38.981,38.981,0,0,1-20.4-27.409V105.931a47.318,47.318,0,0,0,7.55,2.586,41.922,41.922,0,0,0,12.726,10.253C139.11,134.972,139.456,149.124,139.736,156.627ZM99.123,66.077A47.082,47.082,0,0,1,109.316,33.25a42.037,42.037,0,0,1,3.776-4.039c4.855-4.54,11.3-6.82,19.228-6.82A52.218,52.218,0,0,1,142.594,23.5c6.409,1.292,10.818,7.168,10.855,7.218a3.474,3.474,0,0,0,4.192,1.115,12.4,12.4,0,0,1,9.439.183c4.108,1.962,7.194,6.63,9.168,13.872a26.524,26.524,0,0,1,.961,6.748,37.352,37.352,0,0,1-3.89,17.209,27.986,27.986,0,0,0-2.588-5.907c-1.089-1.852-2.345-3.624-3.675-5.5-3.323-4.689-6.759-9.537-7.972-16.2a3.447,3.447,0,0,0-6.835.565c-.011.59-.491,14.559-17,24.183a23.586,23.586,0,0,0-11.778,19.68,74.374,74.374,0,0,0,.865,13.962C116.083,97.675,100.465,89.091,99.123,66.077Zm13.571,65.166c1.016,5.326,6.112,24.156,28.152,33.532,1.975,4.6,8.755,22.5,1.6,37.094a25.557,25.557,0,0,1-2.978,4.579c-3.454,4.356-11.282,15.129-12.98,25.194-8.933-.063-18.651-.381-29.229-.954v-7.381a16.283,16.283,0,0,0-3.162-9.6L81,195.97A119.115,119.115,0,0,1,86.85,184.3c.008-.014.014-.029.021-.044a84.543,84.543,0,0,1,5.611-8.544,39.132,39.132,0,0,0,7.124-15.347,34.546,34.546,0,0,0-2.937-23.5A60.156,60.156,0,0,0,112.694,131.243ZM90.366,223.307v10.518l-.885,12.9a62.679,62.679,0,0,0-18.962-18.636,199,199,0,0,1,7.437-24.636l10.6,14.347A9.344,9.344,0,0,1,90.366,223.307ZM89.3,137.831a27.407,27.407,0,0,1,3.568,21.082,32.784,32.784,0,0,1-5.894,12.657c-1.14,1.514-2.262,3.131-3.361,4.822-5.652-6.563-13.492-10.485-19.539-12.7C76.113,142.048,85.9,138.414,89.3,137.831ZM60.03,171.5q.4-.825.813-1.655c5.9,2.05,14.109,5.968,19,12.858-8.129,14.73-13,31.248-15.562,41.824a87.6,87.6,0,0,0-20.051-7.115C45.176,209.843,48.57,195.187,60.03,171.5ZM75.915,271.867C67.11,268.143,41.536,254.992,22.42,221.7c13.425.376,47.644,4.185,63.281,32.112A66.729,66.729,0,0,0,75.915,271.867Zm41.321,6.488q-.231.469-.479.906a12.519,12.519,0,0,1-15.2,5.336,110.7,110.7,0,0,1-19.421-9.67,57.251,57.251,0,0,1,10.238-18.373,3.472,3.472,0,0,0,.4-.527,16.354,16.354,0,0,1,7.149-6.318,5.963,5.963,0,0,1,8.459,5.144l.147,3.222a3.449,3.449,0,0,0,1.62,2.767l2.289,1.426A12.492,12.492,0,0,1,117.236,278.355Zm7.093-11.56a19.644,19.644,0,0,0-8.252-10.376l-.752-.468-.064-1.411a12.852,12.852,0,0,0-18.238-11.083c-.145.067-.282.145-.426.215l.4-5.882a304.266,304.266,0,0,0,31.353,1.661,218.775,218.775,0,0,0,26.969-1.548v28.633C149.754,266.845,137.573,267.345,124.329,266.8Zm81.857,55.986H173.938a13.7,13.7,0,0,1-12.521-8.322,88.8,88.8,0,0,0-22.489-30.805,41.4,41.4,0,0,1,12.886-10.05c2.823-.121,4.963-.247,6.147-.324C185.57,288.93,200.7,312.689,206.186,322.781Zm-33.9-137.2a18.388,18.388,0,0,1-5.582,15.708,65.607,65.607,0,0,0-7.117,8.095,21.22,21.22,0,0,0-4.261,12.782v8.605c-6.659.508-13.9.8-21.8.865,1.881-8.442,9.016-17.973,11.345-20.911a32.337,32.337,0,0,0,3.766-5.825c8.97-18.286.071-39.568-1.794-43.632-.122-2.368-.526-11.023-.584-22.841A73.69,73.69,0,0,1,172.282,185.585Zm37.411-14.715a27.077,27.077,0,0,1-6.044-21.391c4.083.239,7.781.433,11.049.579a69.82,69.82,0,0,0,13.979,20.121c.238.237.485.463.73.691Zm77.87,1.762H251.42a25.513,25.513,0,0,1-17.883-7.336,65.08,65.08,0,0,1-16.066-27.46c28.348,1.226,60.887,11.424,70.683,14.7C287.2,156.943,285.94,165.146,287.563,172.632Zm36.474,1.309a4.746,4.746,0,0,1-4.74,4.74h-3.8a4.586,4.586,0,0,1-3.6-1.732,11.449,11.449,0,0,0-8.983-4.317h-8.254c-1.931-6.49-.633-14.642.259-18.745L313.91,154.9a10.569,10.569,0,0,1,10.127,10.58Z"/></svg>