<svg xmlns="http://www.w3.org/2000/svg" xmlns:xlink="http://www.w3.org/1999/xlink" viewBox="0 0 340 340" width="500px" height="500px"><defs><linearGradient id="YQ75WWJSRFIWth1_BvRhyd" x1="38.871" x2="38.871" y1="279.529" y2=".858" gradientUnits="userSpaceOnUse"><stop offset="0" stop-color="#ff7b72"/><stop offset=".291" stop-color="#f37169"/><stop offset="1" stop-color="#da5b55"/></linearGradient><linearGradient id="YQ75WWJSRFIWth1_BvRhyb" x1="231.266" x2="350.788" y1="235.798" y2="136.053" gradientUnits="userSpaceOnUse"><stop offset="0" stop-color="#ffe1db"/><stop offset="1" stop-color="#feb5a9"/></linearGradient><linearGradient id="YQ75WWJSRFIWth1_BvRhyc" x1="195.226" x2="178.242" y1="327.525" y2="246.682" gradientUnits="userSpaceOnUse"><stop offset="0" stop-color="#ffc564"/><stop offset="1" stop-color="#f7a13c"/></linearGradient><linearGradient id="YQ75WWJSRFIWth1_BvRhya" x1="219.447" x2="244.471" y1="73.763" y2="183.349" gradientUnits="userSpaceOnUse"><stop offset="0" stop-color="#6f6f81"/><stop offset="1" stop-color="#555568"/></linearGradient><linearGradient id="YQ75WWJSRFIWth1_BvRhye" x1="177.963" x2="202.986" y1="83.236" y2="192.822" xlink:href="#YQ75WWJSRFIWth1_BvRhya"/><linearGradient id="YQ75WWJSRFIWth1_BvRhyf" x1="179.432" x2="32.659" y1="124.077" y2="285.196" xlink:href="#YQ75WWJSRFIWth1_BvRhyb"/><linearGradient id="YQ75WWJSRFIWth1_BvRhyg" x1="195.233" x2="73.326" y1="214.638" y2="279.222" xlink:href="#YQ75WWJSRFIWth1_BvRhyc"/><linearGradient id="YQ75WWJSRFIWth1_BvRhyh" x1="174.352" x2="199.375" y1="84.061" y2="193.647" xlink:href="#YQ75WWJSRFIWth1_BvRhya"/><linearGradient id="YQ75WWJSRFIWth1_BvRhyi" x1="184.719" x2="209.743" y1="81.693" y2="191.279" xlink:href="#YQ75WWJSRFIWth1_BvRhya"/><linearGradient id="YQ75WWJSRFIWth1_BvRhyj" x1="204.066" x2="229.089" y1="77.276" y2="186.862" xlink:href="#YQ75WWJSRFIWth1_BvRhya"/><linearGradient id="YQ75WWJSRFIWth1_BvRhyk" x1="247.753" x2="206.554" y1="62.703" y2="143.263" xlink:href="#YQ75WWJSRFIWth1_BvRhyb"/><linearGradient id="YQ75WWJSRFIWth1_BvRhyl" x1="172.089" x2="168.492" y1="56.062" y2="332.605" gradientUnits="userSpaceOnUse"><stop offset="0" stop-color="#444456"/><stop offset="1" stop-color="#363644"/></linearGradient></defs><rect width="18.28" height="314.973" x="29.731" y="14.236" fill="url(#YQ75WWJSRFIWth1_BvRhyd)"/><polygon fill="#c84343" points="29.731 257.672 48.011 248.5 48.011 213.257 29.731 215.675 29.731 257.672"/><path fill="url(#YQ75WWJSRFIWth1_BvRhyb)" d="M315.679,167.928H296.55a3.216,3.216,0,0,0-3.206,2.965l-1.921,24.6h0a4.37,4.37,0,0,0-4.361,4.3,62.139,62.139,0,0,0,1.16,11.3,7.965,7.965,0,0,1-1.552,6.465,15.982,15.982,0,0,1-3.022,2.868c-12.191,8.844-27.434,13.75-27.434,13.75-6.083-14.336-20.853-26.935-20.853-26.935,6.951-21.07,1.086-36.927,1.086-36.927L203.646,194v41.054c8.138,12.622,33.289,29.179,44.683,36.277a12.222,12.222,0,0,0,11.962.54c28.513-14.365,47.041-37.24,54.657-48a21.5,21.5,0,0,0,3.947-12.423V171.143A3.216,3.216,0,0,0,315.679,167.928Z"/><path fill="#e78582" d="M221.915,253.062c-4.512-27.753,13.446-45.817,13.446-45.817,6.951-21.07,1.086-36.927,1.086-36.927L203.646,194v41.054C207.269,240.668,214.264,247.065,221.915,253.062Z"/><path fill="#f78a40" d="M100.282,273.17s-7.232,5.672-17.406,22.847A131.437,131.437,0,0,1,70.213,313.7a76.3,76.3,0,0,0-10.351,15.506H161.408Z"/><path fill="url(#YQ75WWJSRFIWth1_BvRhyc)" d="M104.564,289.412a116.977,116.977,0,0,0,17.722,24.833,46.549,46.549,0,0,0,34.19,14.964H278.235s-25.437-30.45-77.448-59.593Z"/><path fill="#f78a40" d="M178.064,329.209h30.245c-24.3-7.132-57.18-21.859-70.807-51.045-.332-.71-.656-1.4-.975-2.066l-14.872,1.5v5.576S137.426,311.019,178.064,329.209Z"/><path fill="#f78a40" d="M157.1,283.174s37.668,42.535,105.638,30.493c-2.652-2.408-5.634-5.022-8.975-7.81-18.9,1.473-59.789.327-77.181-33.8l-24.617,2.484Z"/><path fill="#f78a40" d="M208.327,273.968c-2.454-1.451-4.955-2.9-7.54-4.352L100.282,279.754a66.514,66.514,0,0,0,4.283,9.657C120.04,294.191,175.9,304.424,208.327,273.968Z"/><circle cx="237.463" cy="152.66" r="14.024" fill="url(#YQ75WWJSRFIWth1_BvRhya)"/><circle cx="184.079" cy="110.02" r="13.028" fill="url(#YQ75WWJSRFIWth1_BvRhye)"/><path fill="url(#YQ75WWJSRFIWth1_BvRhyf)" d="M210.931,89.925s1.126,13.232-7.311,19.158a54.045,54.045,0,0,1-30.294,9.961s-9.8-12.73-33.8-4.975c0,0-27.316,6.858-50.635,17.947A34.145,34.145,0,0,0,74.8,144.487c-7.083,11.083-20.046,32.425-29.943,54.742l-12.329.62a11.781,11.781,0,0,0-11.185,11.5l-.232,10.2a10.4,10.4,0,0,0,11.117,10.612c4.729-.326,10.556-.893,16.734-1.881a22.178,22.178,0,0,0,15.533-10.517c8.373-14,25.718-45,33.542-54,0,0,21.527-1.349,37.982-6.029,0,0-16.865,22.913-28.132,59.787l125.8-59.8s-3.258-15.427.883-24.882a11.9,11.9,0,0,1,7.45-6.771,14.8,14.8,0,0,1,5.493-.53L227.027,92.12Z"/><path fill="#e78582" d="M176.2,146.274l.188.044a20.67,20.67,0,0,0,2.629,18.912l15.645-8.2-.865-20.5L171.82,119.847a16.332,16.332,0,0,0-6.318,11.288A14.211,14.211,0,0,0,176.2,146.274Z"/><path fill="url(#YQ75WWJSRFIWth1_BvRhyg)" d="M179.014,165.231c-14.978,15.083-40.23,35.328-73.206,42.753a9.456,9.456,0,0,0-7.3,8c-.42,3.2-.988,7.38-1.685,12.159H91.919a6.825,6.825,0,0,0-6.82,6.846c0,6.532,1.155,16.378,7.119,23.336,0,0-1.843,13.594,8.064,21.428,0,0,62.076,12.442,100.505-10.138,0,0,6.633-11.29,5.942-44.7a119.99,119.99,0,0,0,25.726-37.172l-1.583-31C222.083,156.608,179.014,165.231,179.014,165.231Z"/><path fill="#f78a40" d="M194.517,147.272a150.4,150.4,0,0,1-15.5,17.958c2.891,4.059,9.531,9.678,22.953,5.529,0,0-2.9,12.985,11.89,18.916,6.411,2.571,13.085.846,18.591-1.932a97.086,97.086,0,0,0,6.3-19.793l-7.872-11.2A78.056,78.056,0,0,1,194.517,147.272Z"/><path fill="#f78a40" d="M121.818,224.064c28.081-6.554,72.6-23.285,94.56-65.194l-9.2-6.21s-22.268,45.574-86.2,68.488A1.52,1.52,0,0,0,121.818,224.064Z"/><circle cx="184.079" cy="126.659" r="14.024" fill="url(#YQ75WWJSRFIWth1_BvRhyh)"/><circle cx="199.476" cy="146.318" r="15.397" fill="url(#YQ75WWJSRFIWth1_BvRhyi)"/><circle cx="223.577" cy="162.721" r="18.516" fill="url(#YQ75WWJSRFIWth1_BvRhyj)"/><circle cx="222.295" cy="160.766" r="5.917" fill="#9797b7"/><circle cx="197.34" cy="142.873" r="4.73" fill="#9797b7"/><circle cx="183.078" cy="123.048" r="4.065" fill="#9797b7"/><circle cx="183.078" cy="104.32" r="2.075" fill="#9797b7"/><path fill="#e78582" d="M156.365,153.763a1.4,1.4,0,0,0-1.953-1.911,98.205,98.205,0,0,1-19.124,8.905A175.977,175.977,0,0,0,124.8,178.375C143.244,170.917,152.329,160.189,156.365,153.763Z"/><path fill="#f78a40" d="M107.754,261.8c19.411,2.636,55.412,2.311,98.8-22.579.5-5.5-2.148-16.854-2.148-16.854s-42.532,35.855-96.476,36.672A1.387,1.387,0,0,0,107.754,261.8Z"/><path fill="#e78582" d="M247.512,127.531,227.027,92.12l-16.1-2.2s1.074,12.686-6.806,18.777c9.761,16.951,22.341,23.124,30.833,25.35a11.783,11.783,0,0,1,7.061-5.991A14.8,14.8,0,0,1,247.512,127.531Z"/><path fill="url(#YQ75WWJSRFIWth1_BvRhyk)" d="M206.891,73.787a18.849,18.849,0,0,0-1.96,3.1,13.234,13.234,0,0,0,6.291,16.947,22.811,22.811,0,0,0,9.471,2.177v5.615a17.764,17.764,0,0,0,5.226,12.637c4.691,4.643,12.329,10.965,22.052,14.674a21.294,21.294,0,0,0,7.584,1.371h6.279a9.262,9.262,0,0,0,8.219-4.967,97.909,97.909,0,0,0,8.147-21.929,56.162,56.162,0,0,0,1.538-13.3V62.327a43.534,43.534,0,0,0-6.218-22.79c-5.183-8.448-14.511-16.9-31.093-16.9,0,0-19.151-1.341-31.914,10.611a30.726,30.726,0,0,0-8.935,29.3A28.921,28.921,0,0,0,206.891,73.787Z"/><circle cx="262.193" cy="46.001" r="3.753" fill="#e78582"/><circle cx="264.823" cy="58.336" r="3.753" fill="#e78582"/><path fill="#e78582" d="M214.873,62.089c-8.384-2.121-12.336-8.28-12.723-15.428a30.449,30.449,0,0,0-.572,15.894,28.921,28.921,0,0,0,5.313,11.232s5.184-5.512,11.344-2.235a9.513,9.513,0,0,1,4.244,4.233,1.171,1.171,0,0,0,2.218-.232C225.582,71.19,225,64.65,214.873,62.089Z"/><path fill="#e78582" d="M253.872,84.64a2.937,2.937,0,0,1-1.276-.291,28.023,28.023,0,0,0-3.739-1.433,2.953,2.953,0,1,1,1.742-5.643,34.04,34.04,0,0,1,4.552,1.752,2.953,2.953,0,0,1-1.279,5.615Z"/><path fill="#e78582" d="M269.854,84.637a2.952,2.952,0,0,1-1.553-5.465,26.454,26.454,0,0,1,4.042-1.942,2.953,2.953,0,1,1,2.11,5.516,20.943,20.943,0,0,0-3.062,1.459A2.954,2.954,0,0,1,269.854,84.637Z"/><path fill="url(#YQ75WWJSRFIWth1_BvRhyl)" d="M67.448,221.525c1.862-3.113,4.209-7.137,6.693-11.4,8.279-14.2,19.47-33.385,25.6-41.038a237.863,237.863,0,0,0,28.589-3.945,229.73,229.73,0,0,0-18.589,38.309c-1.547.415-3.106.812-4.691,1.169A12.952,12.952,0,0,0,95.1,215.537c-.394,3.009-.814,6.079-1.253,9.161H91.919a10.273,10.273,0,0,0-10.266,10.295c0,7.077,1.258,16.9,7.02,24.428a30.42,30.42,0,0,0,3.916,16.713,128.4,128.4,0,0,0-12.677,18.128,128.537,128.537,0,0,1-12.333,17.22,78.415,78.415,0,0,0-10.821,16.232,3.419,3.419,0,0,0-.33,1.5h7.294a74.132,74.132,0,0,1,9.125-13.286,135.327,135.327,0,0,0,12.993-18.15,125.257,125.257,0,0,1,11.222-16.257c.086.077.175.152.262.228,1.387,3.838,7.339,18.5,22.43,34.839,3.64,3.941,9.628,8.5,16.4,12.626H150.67c-10.257-4.766-20.889-11.925-25.854-17.3a110.7,110.7,0,0,1-18.983-27.718,229.426,229.426,0,0,0,33.3,2.489c19.562,0,42.907-2.775,61.627-13.114a343.694,343.694,0,0,1,72.963,55.644h9.573c-8.157-8.847-35.751-36.864-78.12-61.057,2-5.395,5.367-18.067,5.026-41.784a124.125,124.125,0,0,0,25.008-36.321,63.372,63.372,0,0,1-3.119,16.119,3.448,3.448,0,0,0,1.035,3.7c.141.121,14.235,12.264,19.918,25.661a3.443,3.443,0,0,0,4.227,1.934c.644-.208,15.909-5.18,28.4-14.242a19.384,19.384,0,0,0,3.668-3.478,11.4,11.4,0,0,0,2.272-9.269,57.334,57.334,0,0,1-1.1-10.607.924.924,0,0,1,.917-.924h9.664a1.1,1.1,0,0,1,1.064.716,1.062,1.062,0,0,1-.25,1.234,13.928,13.928,0,0,1-3.41,2.446,3.445,3.445,0,0,0,1.581,6.506h.036a2.938,2.938,0,0,1,1.851.765c.479.618.484,1.975.015,3.723a3.446,3.446,0,1,0,6.656,1.786c1.077-4.018.665-7.292-1.226-9.731a7.977,7.977,0,0,0-.582-.672,8.034,8.034,0,0,0-5.735-13.663h-5.94l1.428-18.288a2.6,2.6,0,0,1,2.582-2.389h1.974l-.794,13.194a3.446,3.446,0,0,0,3.233,3.646c.07,0,.14.006.209.006a3.447,3.447,0,0,0,3.437-3.237l.819-13.609h4.825a2.594,2.594,0,0,1,2.59,2.589v37.476a17.972,17.972,0,0,1-3.316,10.434c-8.215,11.614-26.076,33.154-53.39,46.915a8.835,8.835,0,0,1-8.6-.387,294.838,294.838,0,0,1-29.433-20.717A3.445,3.445,0,0,0,216.333,253,301.864,301.864,0,0,0,246.5,274.248a15.767,15.767,0,0,0,15.341.692c28.647-14.433,47.329-36.951,55.914-49.089a24.823,24.823,0,0,0,4.581-14.413V173.962a9.491,9.491,0,0,0-9.48-9.479h-13.7a9.527,9.527,0,0,0-9.451,8.741l-1.525,19.543a7.878,7.878,0,0,0-4.563,6.958,64.984,64.984,0,0,0,1.214,11.983,4.527,4.527,0,0,1-.84,3.687,12.516,12.516,0,0,1-2.368,2.246c-8.514,6.177-18.737,10.413-23.611,12.243-5.484-10.865-14.85-20.162-18.7-23.725a67.185,67.185,0,0,0,2.078-29.934A20.792,20.792,0,0,0,245,168.408a17.449,17.449,0,0,0-6.773-33.178,8.278,8.278,0,0,1,4.759-3.863c.306-.09.628-.171.968-.237.064-.013.121-.04.184-.057.852.376,1.715.74,2.6,1.078a24.607,24.607,0,0,0,8.812,1.6h6.279a12.673,12.673,0,0,0,11.273-6.818,101.436,101.436,0,0,0,8.44-22.708,59.712,59.712,0,0,0,1.636-14.115V62.327a46.936,46.936,0,0,0-6.727-24.591c-5.178-8.442-15.263-18.5-33.919-18.541-1.931-.111-21.094-.9-34.379,11.541a34.146,34.146,0,0,0-9.934,32.6,32.553,32.553,0,0,0,4.457,10.475,13.85,13.85,0,0,0-.913,1.7,16.553,16.553,0,0,0,5.489,19.9c-.528,3.756-1.956,8.273-5.617,10.845-.45.316-.9.6-1.353.9a16.465,16.465,0,0,0-32.681,2.856c0,.269.016.537.029.805-6.068-2.729-15.54-4.413-29.06-.069-2.2.557-28.321,7.286-51.164,18.148a37.559,37.559,0,0,0-15.517,13.728c-4.851,7.59-12.718,20.4-20.438,35.127V14.236a3.445,3.445,0,0,0-3.445-3.445H29.731a3.445,3.445,0,0,0-3.445,3.445v183.8A15.28,15.28,0,0,0,17.9,211.269l-.231,10.2a13.812,13.812,0,0,0,8.622,13.13v94.614h6.89V235.535c3.887-.281,7.7-.667,11.39-1.15v94.824h6.89V233.277A25.542,25.542,0,0,0,67.448,221.525Zm136.961.846a3.439,3.439,0,0,0-1.124,2.618c.562,27.179-3.854,39.266-5.13,42.169-34.522,19.585-88.975,10.7-96.362,9.373-7.5-6.565-6.174-17.639-6.162-17.742a3.441,3.441,0,0,0-.8-2.7c-5.191-6.056-6.286-14.815-6.291-21.1a3.385,3.385,0,0,1,.99-2.408,3.345,3.345,0,0,1,2.386-.992h4.907a3.444,3.444,0,0,0,3.409-2.948c.6-4.1,1.168-8.207,1.692-12.206a6.034,6.034,0,0,1,4.637-5.089c38.681-8.709,66.841-34.389,81.165-50.32a18.7,18.7,0,0,0,16.045,3.63,20.822,20.822,0,0,0,26.569,19.214A117.817,117.817,0,0,1,204.409,222.371Zm20.224-44.579a14.015,14.015,0,1,1,14.015-14.014A14.029,14.029,0,0,1,224.633,177.792Zm23.409-25.132a10.562,10.562,0,0,1-2.877,7.25,20.932,20.932,0,0,0-9.233-13.694,39.087,39.087,0,0,1,.283-4.055,10.805,10.805,0,0,1,1.248-.08A10.591,10.591,0,0,1,248.042,152.66ZM204.933,61.771a27.241,27.241,0,0,1,7.935-26.006c11.475-10.745,29.145-9.7,29.318-9.688.08,0,.16.008.24.008,12.475,0,21.948,5.132,28.157,15.253a40.055,40.055,0,0,1,5.71,20.989V90.108a52.821,52.821,0,0,1-1.44,12.484A94.438,94.438,0,0,1,267,123.743a5.8,5.8,0,0,1-5.165,3.116h-6.279a17.788,17.788,0,0,1-6.357-1.145c-9.155-3.492-16.394-9.488-20.855-13.9a14.4,14.4,0,0,1-4.2-10.188V96.007a3.445,3.445,0,0,0-3.323-3.443,19.589,19.589,0,0,1-8.057-1.818,9.818,9.818,0,0,1-4.666-12.494,14.587,14.587,0,0,1,1.412-2.206c.7-.672,3.718-3.258,7.114-1.452,2.209,1.174,2.969,4.074,3.226,5.7a3.445,3.445,0,0,0,6.805-1.075c-.788-4.993-3.2-8.8-6.8-10.706a12.321,12.321,0,0,0-12.118.358A25.862,25.862,0,0,1,204.933,61.771Zm10.293,74.2a18.791,18.791,0,0,0-13.709-8.381c.017-.311.031-.622.031-.934a17.349,17.349,0,0,0-3.393-10.3A59.287,59.287,0,0,0,205.6,111.9c4.917-3.453,7.146-8.742,8.122-13.472a27.106,27.106,0,0,0,3.526.737v2.455a21.337,21.337,0,0,0,6.248,15.086,75.006,75.006,0,0,0,13,10.322,15.837,15.837,0,0,0-5.086,6.42,30.679,30.679,0,0,0-2.245,9.933A20.812,20.812,0,0,0,204.9,156.948a11.94,11.94,0,1,1,4.572-17.188,3.445,3.445,0,1,0,5.756-3.786Zm-31.148-35.537a9.6,9.6,0,0,1,9.584,9.583,2.9,2.9,0,0,1-1.123,1.367,17.364,17.364,0,0,0-17.827.552,9.487,9.487,0,0,1,9.366-11.5Zm0,15.644a10.591,10.591,0,0,1,10.58,10.578,10.744,10.744,0,0,1-.111,1.493,18.905,18.905,0,0,0-11.538,9.032,10.579,10.579,0,0,1,1.069-21.1Zm-150.9-98.4h11.39V190.46a3.412,3.412,0,0,0,.122.863q-1.074,2.275-2.115,4.571l-9.4.473ZM48.414,226.873c-5.208.832-10.735,1.453-16.425,1.845a6.956,6.956,0,0,1-7.437-7.1l.232-10.2A8.367,8.367,0,0,1,32.7,203.29l12.329-.62A3.446,3.446,0,0,0,48,200.626c9.854-22.221,22.836-43.549,29.7-54.284a30.668,30.668,0,0,1,12.67-11.215c22.725-10.807,49.725-17.649,50-17.717.074-.019.148-.04.22-.063,15.195-4.911,23.966-.905,27.746,1.8a17.413,17.413,0,0,0,12.489,24.664,18.291,18.291,0,0,0,2.376,11.949c-11.913,13.385-34.393,34.485-65.042,45.111a206.763,206.763,0,0,1,20-38.2c3.441-1.1,13.5-4.606,19.131-9.615a3.445,3.445,0,1,0-4.581-5.146c-5.47,4.869-17.184,8.37-17.631,8.5-15.9,4.521-37.044,5.891-37.257,5.905a3.446,3.446,0,0,0-2.384,1.178c-6.305,7.257-17.915,27.164-27.243,43.16-2.475,4.243-4.812,8.251-6.655,11.333A18.686,18.686,0,0,1,48.414,226.873Z"/></svg>