<svg xmlns="http://www.w3.org/2000/svg"  viewBox="0 0 50 50" width="50px" height="50px" baseProfile="basic"><polygon fill="#6189ff" points="39,16.92 39,42.32 35,44.63 21,45.78 11,30.77 11,5.37 15,3.06 25,11.14"/><polygon fill="#4460b3" points="35,19.231 39,16.922 39,42.321 35,44.63"/><path fill="#5c82f2" d="M21,13.453v32.332l14-1.155l0-25.399L21,13.453z"/><polygon fill="#5274d9" points="21,13.453 25,11.144 39,16.922 35,19.231"/><polygon fill="#577be6" points="25,11.144 21,13.453 11,5.37 15,3.061"/><polygon fill="#ccc" points="14,30.196 14,11.721 21,17.513 21,41.166"/><polygon fill="#bababa" points="21,17.513 32,22.113 32,40.588 21,41.166"/></svg>