<svg xmlns="http://www.w3.org/2000/svg"  viewBox="0 0 48 48" width="48px" height="48px" baseProfile="basic"><polygon fill="#78909c" points="6,43 9,35 12,34 15,28 19,26 32,29 33,31 40,36 42,43"/><path fill="#9fa8da" d="M24.963,32.145l7.199-16.073l1.923,0.861l-5.656,15.506L24.963,32.145z"/><path fill="#c5cae9" d="M24.92,32.243l7.242-16.171l-1.923-0.861l-8.72,16.256L24.92,32.243z"/><path fill="#ffb300" d="M33.938,6.092l4.487,2.01c0.531,0.238,0.769,0.861,0.531,1.392l0,0	c-0.238,0.531-0.861,0.769-1.392,0.531l-4.487-2.01c-0.531-0.238-0.769-0.861-0.531-1.392l0,0	C32.784,6.092,33.407,5.855,33.938,6.092z"/><path fill="#d44b00" d="M34.947,15.01l-1.923-0.861l2.297-5.128l1.923,0.861L34.947,15.01z"/><path fill="#ef6c00" d="M33.023,14.149L31.1,13.288l2.297-5.128l1.923,0.861L33.023,14.149z"/><path fill="#d44b00" d="M27.872,15.382c-0.037-0.007-0.074-0.014-0.111-0.025C27.798,15.367,27.835,15.375,27.872,15.382z"/><path fill="#ffb300" d="M27.624,15.326c0.044,0.02,0.091,0.017,0.137,0.031c-0.059-0.015-0.117-0.036-0.175-0.058	C27.6,15.306,27.609,15.32,27.624,15.326z"/><path fill="#ffb300" d="M28.114,15.412c-0.081-0.003-0.162-0.014-0.242-0.029C27.954,15.398,28.033,15.415,28.114,15.412z"/><path fill="#ffb300" d="M37.282,16.032l-0.026-0.012c-0.018-0.008-0.037-0.011-0.056-0.018	c-0.02-0.011-0.033-0.023-0.056-0.034l-8.282-3.708c-0.005-0.002-0.008-0.005-0.013-0.007c-0.004-0.002-0.009-0.003-0.013-0.004	c-0.681-0.298-1.45-0.096-1.911,0.442c-0.101,0.118-0.192,0.246-0.259,0.395c-0.373,0.833,0,1.811,0.833,2.184	c0.029,0.013,0.059,0.018,0.088,0.029c0.058,0.022,0.116,0.043,0.175,0.058c0.037,0.011,0.074,0.018,0.112,0.025	c0.081,0.015,0.162,0.026,0.242,0.029c0.405-0.016,0.788-0.245,0.965-0.64c0.013-0.03,0.01-0.061,0.021-0.091l0.327,0.147	l5.855,2.64c-0.015,0.02-0.033,0.037-0.044,0.061c-0.177,0.395-0.093,0.834,0.165,1.147c0.056,0.058,0.118,0.111,0.183,0.161	c0.03,0.023,0.06,0.046,0.093,0.066c0.05,0.034,0.105,0.063,0.16,0.092c0.028,0.014,0.051,0.033,0.08,0.046	c0.833,0.373,1.811,0,2.184-0.833c0.067-0.149,0.102-0.302,0.122-0.456C38.319,17.05,37.958,16.342,37.282,16.032z"/><path fill="#546e7a" d="M21.186,30.976L27,32l4.625,0.125l-7.25,1.125L22,32h-3C19,32,21.087,30.956,21.186,30.976z"/><polygon fill="#546e7a" points="42,43 40,36 35,37 33,39 28,38 25,41 21,40 16.625,43"/></svg>