<svg xmlns="http://www.w3.org/2000/svg" xmlns:xlink="http://www.w3.org/1999/xlink" viewBox="0 0 340 340" width="500px" height="500px"><defs><linearGradient id="9p8phPRmjYA1HWb2ZW9dpb" x1="100.334" x2="103.52" y1="98.037" y2="259.269" gradientUnits="userSpaceOnUse"><stop offset="0" stop-color="#4b717b"/><stop offset="1" stop-color="#3a586e"/></linearGradient><linearGradient id="9p8phPRmjYA1HWb2ZW9dpa" x1="76.672" x2="71.115" y1="109.968" y2="280.229" gradientUnits="userSpaceOnUse"><stop offset="0" stop-color="#759aa9"/><stop offset="1" stop-color="#4b717b"/></linearGradient><linearGradient id="9p8phPRmjYA1HWb2ZW9dpf" x1="72.41" x2="66.852" y1="109.829" y2="280.09" xlink:href="#9p8phPRmjYA1HWb2ZW9dpa"/><linearGradient id="9p8phPRmjYA1HWb2ZW9dpg" x1="73.133" x2="76.319" y1="98.575" y2="259.806" xlink:href="#9p8phPRmjYA1HWb2ZW9dpb"/><linearGradient id="9p8phPRmjYA1HWb2ZW9dph" x1="109.258" x2="103.7" y1="111.031" y2="281.292" xlink:href="#9p8phPRmjYA1HWb2ZW9dpa"/><linearGradient id="9p8phPRmjYA1HWb2ZW9dpi" x1="53.16" x2="56.347" y1="98.969" y2="260.201" xlink:href="#9p8phPRmjYA1HWb2ZW9dpb"/><linearGradient id="9p8phPRmjYA1HWb2ZW9dpj" x1="104.452" x2="107.638" y1="97.956" y2="259.188" xlink:href="#9p8phPRmjYA1HWb2ZW9dpb"/><linearGradient id="9p8phPRmjYA1HWb2ZW9dpk" x1="189.126" x2="192.312" y1="96.282" y2="257.514" xlink:href="#9p8phPRmjYA1HWb2ZW9dpb"/><linearGradient id="9p8phPRmjYA1HWb2ZW9dpc" x1="77.882" x2="77.101" y1="234.74" y2="285.946" gradientUnits="userSpaceOnUse"><stop offset="0" stop-color="#edcfc9"/><stop offset="1" stop-color="#eca397"/></linearGradient><linearGradient id="9p8phPRmjYA1HWb2ZW9dpl" x1="277.017" x2="252.947" y1="97.864" y2="188.193" xlink:href="#9p8phPRmjYA1HWb2ZW9dpc"/><linearGradient id="9p8phPRmjYA1HWb2ZW9dpm" x1="164.742" x2="165.328" y1="166.617" y2="292.703" gradientUnits="userSpaceOnUse"><stop offset="0" stop-color="#ede5dc"/><stop offset="1" stop-color="#ddc1ba"/></linearGradient><linearGradient id="9p8phPRmjYA1HWb2ZW9dpn" x1="167.539" x2="169.563" y1="151.97" y2="205.385" xlink:href="#9p8phPRmjYA1HWb2ZW9dpc"/><linearGradient id="9p8phPRmjYA1HWb2ZW9dpd" x1="193.319" x2="102.604" y1="55.232" y2="61.139" gradientUnits="userSpaceOnUse"><stop offset="0" stop-color="#535365"/><stop offset="1" stop-color="#39394c"/></linearGradient><linearGradient id="9p8phPRmjYA1HWb2ZW9dpo" x1="170.027" x2="170.545" y1="66.39" y2="146.367" xlink:href="#9p8phPRmjYA1HWb2ZW9dpc"/><linearGradient id="9p8phPRmjYA1HWb2ZW9dpp" x1="119.607" x2="126.679" y1="155.146" y2="247.428" xlink:href="#9p8phPRmjYA1HWb2ZW9dpd"/><linearGradient id="9p8phPRmjYA1HWb2ZW9dpq" x1="201.106" x2="208.177" y1="148.901" y2="241.183" xlink:href="#9p8phPRmjYA1HWb2ZW9dpd"/><linearGradient id="9p8phPRmjYA1HWb2ZW9dpr" x1="161.331" x2="107.536" y1="319.477" y2="314.73" xlink:href="#9p8phPRmjYA1HWb2ZW9dpd"/><linearGradient id="9p8phPRmjYA1HWb2ZW9dps" x1="191.809" x2="211.395" y1="317.988" y2="317.988" xlink:href="#9p8phPRmjYA1HWb2ZW9dpd"/><linearGradient id="9p8phPRmjYA1HWb2ZW9dpt" x1="169.742" x2="198.538" y1="297.099" y2="353.109" gradientUnits="userSpaceOnUse"><stop offset="0" stop-color="#edb352"/><stop offset=".532" stop-color="#e8913d"/><stop offset="1" stop-color="#e5782e"/></linearGradient><linearGradient id="9p8phPRmjYA1HWb2ZW9dpe" x1="56.181" x2="118.801" y1="297.619" y2="297.619" gradientUnits="userSpaceOnUse"><stop offset="0" stop-color="#c6766c"/><stop offset="1" stop-color="#8b4636"/></linearGradient><linearGradient id="9p8phPRmjYA1HWb2ZW9dpu" x1="186.326" x2="270.908" y1="75.729" y2="75.729" xlink:href="#9p8phPRmjYA1HWb2ZW9dpe"/><linearGradient id="9p8phPRmjYA1HWb2ZW9dpv" x1="52.436" x2="46.882" y1="109.153" y2="279.334" xlink:href="#9p8phPRmjYA1HWb2ZW9dpa"/></defs><polygon fill="url(#9p8phPRmjYA1HWb2ZW9dpb)" points="77.62 142.167 76.292 273.283 123.181 317.988 128.738 143.543 77.62 142.167"/><path fill="url(#9p8phPRmjYA1HWb2ZW9dpa)" d="M63.594,149.657s-.283,38.235-2.549,61.661H85.4s1.955-23.624.182-45.867Z"/><path fill="url(#9p8phPRmjYA1HWb2ZW9dpf)" d="M87.491,201.362H64.6A13.664,13.664,0,0,0,50.936,214.45c-.56,13.405-.307,34.051,5.245,46.919H81.438Z"/><path fill="url(#9p8phPRmjYA1HWb2ZW9dpg)" d="M85.616,165.448a126.37,126.37,0,0,0-3.045-20.437l-18.977,4.234s-.052,7-.289,16.844Z"/><path fill="url(#9p8phPRmjYA1HWb2ZW9dph)" d="M51.857,92.591s7.633-4.335,18.836-1.219a87.989,87.989,0,0,0,9.98,2.258,778.727,778.727,0,0,0,78.827,8.236c15.012.7,2.622,55.279,2.622,55.279l-12.83.935-26.111-.33s-8.476-2.035-18.651-3.42a95.134,95.134,0,0,0-29.449.658,60.665,60.665,0,0,1-19.625.55Z"/><path fill="url(#9p8phPRmjYA1HWb2ZW9dpi)" d="M68.735,123.2c.994,17.383-4.951,31.86-13.279,32.336-5.212.3-10.122-4.959-13.31-13.2l-3.189-13.18q-.254-2.075-.379-4.235c-.994-17.383,4.951-31.86,13.279-32.336S67.741,105.82,68.735,123.2Z"/><path fill="url(#9p8phPRmjYA1HWb2ZW9dpj)" d="M89.153,97.136c4.545,11.337,10.824,31.719,8.268,53.219a7.941,7.941,0,0,0,6.825,8.816l5.884.789a7.947,7.947,0,0,0,8.849-6.321c2.25-11.207,4.49-33.87-6.731-57.143a9.817,9.817,0,0,0-7.3-5.422l-9.7-1.541A5.6,5.6,0,0,0,89.153,97.136Z"/><path fill="url(#9p8phPRmjYA1HWb2ZW9dpk)" d="M203.632,101.624a357.517,357.517,0,0,1-39.179.449c3.261,8.807,9.958,33.791-.96,54.972l50.175-3.657C224.283,118.96,203.632,101.624,203.632,101.624Z"/><path fill="url(#9p8phPRmjYA1HWb2ZW9dpc)" d="M105.105,243.862,66.69,283.8,52.471,266.574a10.208,10.208,0,0,1-.108-12.863l19.773-24.786Z"/><polygon fill="#d57370" points="105.105 243.862 86.182 211.318 72.136 228.925 96.484 252.823 105.105 243.862"/><path fill="url(#9p8phPRmjYA1HWb2ZW9dpl)" d="M244.162,142.167l9.326-1.329a346.46,346.46,0,0,0-16.781-39.214L259.277,82.9s27.294,32.058,42.253,70.486L247.467,185.78Z"/><path fill="#d57370" d="M259.277,82.9l-22.57,18.722c.917,1.794,1.807,3.589,2.667,5.371l34.94-3.961C265.853,90.632,259.277,82.9,259.277,82.9Z"/><path fill="url(#9p8phPRmjYA1HWb2ZW9dpm)" d="M154.833,152.287l-35.49,6.125L76.292,206.878l28.813,36.984L118.8,232.6v73.375h87.632a18.565,18.565,0,0,0,6.665-5.435,12.264,12.264,0,0,0,.992-12.818l-1.448-2.893a21.973,21.973,0,0,1-2.325-9.837V209.8l43.171-19.7-9.326-47.925-63.717,9.076Z"/><path fill="url(#9p8phPRmjYA1HWb2ZW9dpn)" d="M149.292,136.021V158.08s2.027,8.688,14.884,15.985l5.926,31.292,5.828-26.774a12.807,12.807,0,0,1,4.944-7.72c.1-.07.193-.14.287-.21a12.74,12.74,0,0,0,2.788-17.637Z"/><path fill="#d57370" d="M149.292,116.441v19.58a63.662,63.662,0,0,0,34.331,16.516c-2.213-3.362-4.03-9.584-1.724-20.867Z"/><path fill="url(#9p8phPRmjYA1HWb2ZW9dpd)" d="M206.433,61.509s16.669-2.15,17.139-26.829l-11.51,1.409S221,25.252,215,10c0,0-7.437,10.4-24.285,14.7a47.96,47.96,0,0,1-16.7,1.079A65.929,65.929,0,0,0,149.908,27.7c-18.392,5.239-30.643,23.05-27.779,41.958,1.28,8.45,5.607,17.578,16.177,25.153l15.5,6.812Z"/><path fill="url(#9p8phPRmjYA1HWb2ZW9dpo)" d="M206.433,61.509l-2.258,42.909a54.893,54.893,0,0,1-3.166,16,41.885,41.885,0,0,1-3.829,7.937,14.269,14.269,0,0,1-14.563,6.325,84.727,84.727,0,0,1-29.128-10.761,8.783,8.783,0,0,1-4.2-7.475v-5.2s-11.737,1.853-14.517-9.884a24.108,24.108,0,0,1-.885-9.432c.911-9.289,13.8-11.071,17.013-2.307a20.831,20.831,0,0,1,.86,3.091,14.949,14.949,0,0,0,2.059-1.384,19.067,19.067,0,0,0,7.207-15.058V73.716A13.7,13.7,0,0,1,175.382,60.03Z"/><path fill="url(#9p8phPRmjYA1HWb2ZW9dpp)" d="M116.875,155.326a7.246,7.246,0,0,0-4.47,7.144c.728,13.414,2.564,52.075.94,74.616,0,0-.53,9.852,5.456,12.25,0,0,20.936-16.238,13.614-91.249a5.182,5.182,0,0,0-5-4.692A26.408,26.408,0,0,0,116.875,155.326Z"/><path fill="url(#9p8phPRmjYA1HWb2ZW9dpq)" d="M182.71,150.921s26.841,41.256,27.607,89.751c0,0,11.585-5.2,13.9-21.4a38.384,38.384,0,0,0,.09-9.417c-1.145-10.981-6.151-44.361-25.7-62.277a8.131,8.131,0,0,0-6.224-2.125A12.74,12.74,0,0,0,182.71,150.921Z"/><rect width="51.301" height="24.025" x="118.801" y="305.975" fill="url(#9p8phPRmjYA1HWb2ZW9dpr)"/><path fill="url(#9p8phPRmjYA1HWb2ZW9dps)" d="M211.4,315.267v5.441c0,5.132-3.557,9.292-7.946,9.292h-11.64V305.975h11.64C207.838,305.975,211.4,310.136,211.4,315.267Z"/><rect width="25.345" height="24.025" x="167.809" y="305.975" fill="url(#9p8phPRmjYA1HWb2ZW9dpt)"/><path fill="url(#9p8phPRmjYA1HWb2ZW9dpe)" d="M84.541,265.239l-28.36,27.655,38.124,20.689v3.792A12.625,12.625,0,0,0,106.93,330H118.8V314.866a29.392,29.392,0,0,0-5.287-16.81C107.1,288.857,95.751,273.844,84.541,265.239Z"/><circle cx="175.496" cy="92.49" r="3.813" fill="#d57370"/><circle cx="191.102" cy="92.49" r="3.813" fill="#d57370"/><circle cx="151.021" cy="184.89" r="3.813" fill="#bca39c"/><circle cx="153.854" cy="198.449" r="3.813" fill="#bca39c"/><path fill="#d57370" d="M186.609,60.565S185.158,79.19,205.26,83.808l1.173-22.3-19.824-.944Z"/><path fill="url(#9p8phPRmjYA1HWb2ZW9dpu)" d="M236.707,101.624a293.313,293.313,0,0,0-21.044-24.663,19.679,19.679,0,0,0-14.02-5.869h-2.059a13.257,13.257,0,0,1-13.258-13.257h0a8,8,0,0,1,8-8H220.5a47.484,47.484,0,0,1,19.088,3.939c8.811,3.869,21.307,10.994,31.323,23.11Z"/><path fill="url(#9p8phPRmjYA1HWb2ZW9dpv)" d="M60.39,131.641s5.387-20.376-5.283-25.65c-6.048-2.989-8.692,1.992-9.842,6.533a18.987,18.987,0,0,0,.857,12.217c.1.235.215.469.331.7.418.829,1.469.436,1.451-.539a35.418,35.418,0,0,1,.536-7.271c.766-3.823,4.8-4.834,6.79-1.752a4.99,4.99,0,0,1,.6,1.282,20.453,20.453,0,0,1,.834,6.445,38.647,38.647,0,0,1-1.129,8.558c-1.485,5.673-7.489,7.112-10.667,2.611a21.505,21.505,0,0,1-2.8-5.615,66.964,66.964,0,0,0,2.554,13.18,14.026,14.026,0,0,0,2.372,1.4C55.9,147.841,60.39,131.641,60.39,131.641Z"/></svg>