<svg xmlns="http://www.w3.org/2000/svg" xmlns:xlink="http://www.w3.org/1999/xlink" viewBox="0 0 340 340" width="500px" height="500px"><defs><linearGradient id="30sZfecyn2qUMF0YfXIjXa" x1="246.799" x2="201.42" y1="296.639" y2="199.529" gradientUnits="userSpaceOnUse"><stop offset="0" stop-color="#ede5dc"/><stop offset="1" stop-color="#ddc1ba"/></linearGradient><linearGradient id="30sZfecyn2qUMF0YfXIjXb" x1="257.338" x2="307.101" y1="281.166" y2="159.246" gradientUnits="userSpaceOnUse"><stop offset="0" stop-color="#d0696f"/><stop offset="1" stop-color="#953939"/></linearGradient><linearGradient id="30sZfecyn2qUMF0YfXIjXh" x1="161.213" x2="155.768" y1="155.603" y2="306.713" xlink:href="#30sZfecyn2qUMF0YfXIjXa"/><linearGradient id="30sZfecyn2qUMF0YfXIjXc" x1="178.602" x2="111.268" y1="195.602" y2="291.043" gradientUnits="userSpaceOnUse"><stop offset="0" stop-color="#535365"/><stop offset="1" stop-color="#39394c"/></linearGradient><linearGradient id="30sZfecyn2qUMF0YfXIjXi" x1="87.251" x2="24.175" y1="182.225" y2="264.36" xlink:href="#30sZfecyn2qUMF0YfXIjXa"/><linearGradient id="30sZfecyn2qUMF0YfXIjXj" x1="39.261" x2="90.89" y1="258.848" y2="312.343" xlink:href="#30sZfecyn2qUMF0YfXIjXb"/><linearGradient id="30sZfecyn2qUMF0YfXIjXk" x1="198.951" x2="148.7" y1="316.356" y2="316.356" xlink:href="#30sZfecyn2qUMF0YfXIjXc"/><linearGradient id="30sZfecyn2qUMF0YfXIjXd" x1="136.171" x2="136.171" y1="286.148" y2="328.976" gradientUnits="userSpaceOnUse"><stop offset="0" stop-color="#e55f96"/><stop offset="1" stop-color="#af3566"/></linearGradient><linearGradient id="30sZfecyn2qUMF0YfXIjXl" x1="154.805" x2="154.805" y1="286.148" y2="328.976" gradientTransform="rotate(-180 154.805 309.385)" xlink:href="#30sZfecyn2qUMF0YfXIjXd"/><linearGradient id="30sZfecyn2qUMF0YfXIjXe" x1="194.915" x2="187.926" y1="131.948" y2="324.134" gradientUnits="userSpaceOnUse"><stop offset="0" stop-color="#e9897d"/><stop offset="1" stop-color="#b9564f"/></linearGradient><linearGradient id="30sZfecyn2qUMF0YfXIjXf" x1="152.879" x2="155.258" y1="116.404" y2="160.405" gradientUnits="userSpaceOnUse"><stop offset="0" stop-color="#edcfc9"/><stop offset="1" stop-color="#eca397"/></linearGradient><linearGradient id="30sZfecyn2qUMF0YfXIjXm" x1="111.479" x2="99.831" y1="143.092" y2="338.19" xlink:href="#30sZfecyn2qUMF0YfXIjXe"/><linearGradient id="30sZfecyn2qUMF0YfXIjXn" x1="288.575" x2="288.575" y1="144.742" y2="183.46" xlink:href="#30sZfecyn2qUMF0YfXIjXd"/><linearGradient id="30sZfecyn2qUMF0YfXIjXo" x1="173.424" x2="110.673" y1="60.809" y2="37.963" xlink:href="#30sZfecyn2qUMF0YfXIjXc"/><linearGradient id="30sZfecyn2qUMF0YfXIjXp" x1="159.575" x2="158.98" y1="64.521" y2="122.792" xlink:href="#30sZfecyn2qUMF0YfXIjXf"/><linearGradient id="30sZfecyn2qUMF0YfXIjXq" x1="180.985" x2="180.985" y1="68.826" y2="85.938" xlink:href="#30sZfecyn2qUMF0YfXIjXg"/><linearGradient id="30sZfecyn2qUMF0YfXIjXr" x1="166.101" x2="166.101" y1="67.657" y2="85.925" xlink:href="#30sZfecyn2qUMF0YfXIjXg"/><linearGradient id="30sZfecyn2qUMF0YfXIjXs" x1="191.809" x2="191.809" y1="67.657" y2="85.925" xlink:href="#30sZfecyn2qUMF0YfXIjXg"/><radialGradient id="30sZfecyn2qUMF0YfXIjXg" cx="291.247" cy="153.657" r="60.779" gradientUnits="userSpaceOnUse"><stop offset="0" stop-color="#ededed"/><stop offset="1" stop-color="#c2d0ed"/></radialGradient></defs><path fill="url(#30sZfecyn2qUMF0YfXIjXa)" d="M207.624,159.288s20.3,47.814,34.15,89.27l11.384,46.12S221.7,289.9,209.122,269.527C209.122,269.527,195.686,184.008,207.624,159.288Z"/><path fill="url(#30sZfecyn2qUMF0YfXIjXb)" d="M241.774,248.558s16.776-8.987,35.349-38.045a41.575,41.575,0,0,1-6.847-7.624,10.173,10.173,0,0,1-1.1-9.713l1.358-3.332s23.965,12.581,46.732-7.19l2.762,5.11a10.9,10.9,0,0,1-1.453,12.449c-3.774,4.221-9.852,9.231-18.322,10.827,0,0-6.55,58.207-43.642,93.4a3.308,3.308,0,0,1-5.327-1.181C247.545,294.091,239.7,271.59,241.774,248.558Z"/><path fill="url(#30sZfecyn2qUMF0YfXIjXh)" d="M147.164,126.5l-8.4,2.844-20.775,12.332V309.385H198.7S215.526,158.463,147.164,126.5Z"/><path fill="#c6ac9a" d="M136.171,186.319c-4.682-31.45-2.634-53.868-2.633-53.869l-15.546,9.228V309.385h25.5C143.317,267.073,139.749,210.348,136.171,186.319Z"/><path fill="#c6ac9a" d="M189.839,184.508,118.225,279.28s-.083.153-.233.435v29.67c38.578-35.474,64.788-75.146,73.817-104.289l.513-11.639Q191.182,188.929,189.839,184.508Z"/><path fill="url(#30sZfecyn2qUMF0YfXIjXc)" d="M180.773,166.833s-21.307,56.313-60.878,97.786v30.059s57.463-57.074,69.634-102.352Z"/><path fill="url(#30sZfecyn2qUMF0YfXIjXi)" d="M61.1,243.562l36.954-32.019L94.7,148.217s-59.562,41.764-82.27,97.8a13.447,13.447,0,0,0,5.548,16.6,41.722,41.722,0,0,0,14.7,5.347Z"/><path fill="#c6ac9a" d="M61.1,243.562l36.954-32.019L94.7,148.217s-5.066,3.555-12.8,9.971c.1,11.462-1.916,43.519-25.3,69.551a141.443,141.443,0,0,1-41.714,32.312,13.47,13.47,0,0,0,3.089,2.562,41.722,41.722,0,0,0,14.7,5.347Z"/><path fill="url(#30sZfecyn2qUMF0YfXIjXj)" d="M22.517,273.025C27.449,265.1,39.97,248.592,61.1,243.562c0,0,28.338,20.672,37.01,44.422l-4.836,40.3H70.665a8.072,8.072,0,0,1-7.992-9.206l.289-2.038a12.591,12.591,0,0,1,5.423-8.67l5.851-3.95s-22.757-21.56-49.477-26.412A3.3,3.3,0,0,1,22.517,273.025Z"/><rect width="39.123" height="23.864" x="156.57" y="304.424" fill="url(#30sZfecyn2qUMF0YfXIjXk)"/><path fill="url(#30sZfecyn2qUMF0YfXIjXd)" d="M125.178,290.482h13.406a8.58,8.58,0,0,1,8.58,8.58v29.227a0,0,0,0,1,0,0H125.178a0,0,0,0,1,0,0V290.482A0,0,0,0,1,125.178,290.482Z"/><path fill="url(#30sZfecyn2qUMF0YfXIjXl)" d="M147.164,290.482h15.283a0,0,0,0,1,0,0v30.165a7.641,7.641,0,0,1-7.641,7.641h0a7.641,7.641,0,0,1-7.641-7.641V290.482A0,0,0,0,1,147.164,290.482Z" transform="rotate(180 154.805 309.385)"/><path fill="url(#30sZfecyn2qUMF0YfXIjXe)" d="M167.564,150.044s24.245,36.677,24.245,110.677v67.567h24.8s-12.341-135.881,3.02-198.578a2.033,2.033,0,0,0-2.414-2.471c-9.19,2.009-35.734,7.231-51.111,4.25Z"/><path fill="url(#30sZfecyn2qUMF0YfXIjXf)" d="M138.767,95.509v33.837s8.1,14.758,28.8,20.7v-36L147.946,89.39Z"/><path fill="url(#30sZfecyn2qUMF0YfXIjXm)" d="M138.767,129.346s-30.631,1.449-52.085-5.753A2.038,2.038,0,0,0,84,125.867c2.737,15.552,13,83.028,9.27,202.421h35.711s2.093-96.524-1.929-153.9C127.055,174.388,123.667,137.123,138.767,129.346Z"/><path fill="url(#30sZfecyn2qUMF0YfXIjXg)" d="M296.652,109.012V82.6h.6a8.344,8.344,0,0,0,8.42-7.616,8.159,8.159,0,0,0-8.141-8.7H279.741a8.343,8.343,0,0,0-8.42,7.615,8.159,8.159,0,0,0,8.14,8.7h.875v26.408a7.382,7.382,0,0,1-4.973,6.972,40.063,40.063,0,1,0,26.219-.015A7.351,7.351,0,0,1,296.652,109.012Z"/><path fill="url(#30sZfecyn2qUMF0YfXIjXn)" d="M261.915,144.329a3.035,3.035,0,0,0-4.364,2.273,39.776,39.776,0,0,0-.451,9.8,31.716,31.716,0,1,0,62.058-12.624,8.5,8.5,0,0,0-9.331-6.231A43.339,43.339,0,0,0,296.16,142C279.388,150.483,267.5,147.092,261.915,144.329Z"/><circle cx="283.86" cy="132.45" r="3.736" fill="#c64076"/><circle cx="300.389" cy="157.757" r="3.736" fill="#ededed"/><circle cx="281.386" cy="163.518" r="3.736" fill="#ededed"/><polygon fill="#d57370" points="138.767 95.509 138.767 125.633 167.564 121.247 167.564 114.047 147.946 89.39 138.767 95.509"/><path fill="url(#30sZfecyn2qUMF0YfXIjXo)" d="M189.529,48.244s2.831-30.091-16.922-35.57l-2.451,7.5s-17.59-16.58-47.435-3.316c0,0-19.32,8.651-31.142,6.921,0,0,5.479,13.264,18.166,17.734A48.7,48.7,0,0,0,97.058,54.486l15.427,5.767s-4.662,6.406-8.843,22.7c0,0,15.042,8.3,31.19,3.974h29.557Z"/><path fill="url(#30sZfecyn2qUMF0YfXIjXp)" d="M143.012,64.376l.8,15.557a9.316,9.316,0,0,0-3.181-2.209,8.381,8.381,0,0,0-11.5,9.209,14.631,14.631,0,0,0,2.139,5.213s3.136,7.427,14.524,3.961l1.264,4.6a15.678,15.678,0,0,0,5.47,8.258c3.865,3,10.749,6.976,22.452,10.175a10.073,10.073,0,0,0,8.03-1.168l.147-.095a14.168,14.168,0,0,0,6.374-11.927V48.244S179.2,34.4,156.379,43.411A21.33,21.33,0,0,0,143.012,64.376Z"/><rect width="16.317" height="9.039" x="280.336" y="82.604" fill="#7f91ac"/><path fill="#d57370" d="M181.883,84.188s1.563,7.171,7.646,8.094V70.852a9.687,9.687,0,0,0-3.44,5.085H174.86c-1.6-3.538-4.757-5.953-8.4-5.953s-6.816,2.412-8.418,5.953H156.57V81.3c0,6.188,4.623,11.1,9.887,11.1,9.98,0,12.2-8.2,12.2-8.2Z"/><path fill="url(#30sZfecyn2qUMF0YfXIjXq)" d="M188.183,78.937H173.788a3,3,0,0,1,0-6h14.395a3,3,0,0,1,0,6Z"/><ellipse cx="166.101" cy="75.937" fill="url(#30sZfecyn2qUMF0YfXIjXr)" rx="11.093" ry="13.041"/><ellipse cx="191.809" cy="75.937" fill="url(#30sZfecyn2qUMF0YfXIjXs)" rx="8.021" ry="13.041"/></svg>