<svg xmlns="http://www.w3.org/2000/svg" xmlns:xlink="http://www.w3.org/1999/xlink" viewBox="0 0 340 340" width="500px" height="500px"><defs><linearGradient id="dJIPsmbDBQ16uzX0ZrU-yb" x1="304.461" x2="297.004" y1="194.682" y2="293.895" gradientUnits="userSpaceOnUse"><stop offset="0" stop-color="#edcfc9"/><stop offset="1" stop-color="#eca397"/></linearGradient><linearGradient id="dJIPsmbDBQ16uzX0ZrU-yd" x1="92.987" x2="87.637" y1="23.258" y2="176.946" gradientUnits="userSpaceOnUse"><stop offset="0" stop-color="#d07a73"/><stop offset="1" stop-color="#a5544e"/></linearGradient><linearGradient id="dJIPsmbDBQ16uzX0ZrU-ya" x1="10.549" x2="13.6" y1="113.636" y2="137.493" gradientUnits="userSpaceOnUse"><stop offset="0" stop-color="#535365"/><stop offset="1" stop-color="#39394c"/></linearGradient><linearGradient id="dJIPsmbDBQ16uzX0ZrU-ye" x1="225.466" x2="226.301" y1="23.98" y2="94.548" xlink:href="#dJIPsmbDBQ16uzX0ZrU-ya"/><linearGradient id="dJIPsmbDBQ16uzX0ZrU-yf" x1="200.557" x2="193.1" y1="186.872" y2="286.085" xlink:href="#dJIPsmbDBQ16uzX0ZrU-yb"/><linearGradient id="dJIPsmbDBQ16uzX0ZrU-yc" x1="220.917" x2="217.324" y1="107.018" y2="176.474" gradientUnits="userSpaceOnUse"><stop offset="0" stop-color="#7f91ac"/><stop offset="1" stop-color="#5d7189"/></linearGradient><linearGradient id="dJIPsmbDBQ16uzX0ZrU-yg" x1="242.596" x2="241.948" y1="55.031" y2="97.504" xlink:href="#dJIPsmbDBQ16uzX0ZrU-yb"/><linearGradient id="dJIPsmbDBQ16uzX0ZrU-yh" x1="249.08" x2="249.916" y1="23.7" y2="94.269" xlink:href="#dJIPsmbDBQ16uzX0ZrU-ya"/><linearGradient id="dJIPsmbDBQ16uzX0ZrU-yi" x1="230.994" x2="230.595" y1="273.723" y2="327.212" xlink:href="#dJIPsmbDBQ16uzX0ZrU-yc"/></defs><path fill="#863131" d="M23.17,57.42S17.72,37.3,26.555,25.973a9,9,0,0,1,11.309-2.43,19.823,19.823,0,0,1,7.019,6.179l.7,16.146Z"/><path fill="url(#dJIPsmbDBQ16uzX0ZrU-yb)" d="M285.625,138.5s20.571,13.726,17.743,60.832a28.421,28.421,0,0,0,4.364,16.952c5.089,8.021,12.434,22.9,15.213,45,0,0,12.748,23.194,13.1,51.741a11.462,11.462,0,0,1-8.366,11.176,57.248,57.248,0,0,1-21.413,1.72,13.978,13.978,0,0,1-12.5-14.849c.371-5.647,2.152-11.859,7.445-15.612,0,0-.486-10.7-8.239-22.435a51.782,51.782,0,0,0-4.963-6.24,31.436,31.436,0,0,1-7.894-23.222s-12.869-5.485-16.456-15.823S265.394,155.587,285.625,138.5Z"/><path fill="#d57370" d="M285.26,152.383l-10.74,2.535c-11.01,25.029-13.666,64.721-10.857,72.819,3.587,10.338,16.456,15.823,16.456,15.823C283.757,232.5,283,214.7,283,214.7,297.577,184.187,285.26,152.383,285.26,152.383Z"/><path fill="url(#dJIPsmbDBQ16uzX0ZrU-yd)" d="M108.361,213.576q-.218-2.02-.392-4c-2.282-10.875-2.878-21.579-.083-31.941,5.12-54.219,37.379-74.312,48.968-79.835a10.33,10.33,0,0,0,5.425-6.379,102.187,102.187,0,0,1,11.982-25.983,6.438,6.438,0,0,0-.757-7.969c-12.6-13.135-30.661-29.056-52.167-39.762L122.462,10S94.106,13.176,78.148,26.953c0,0-4.687-16.953-21.316-14.493C45.7,14.106,37.705,36.837,37.33,44.525l-5.552,1.851a15.864,15.864,0,0,0-6.411,4.05C18.828,57.214,4.024,74.907,7.7,92.716a42.066,42.066,0,0,1-1.5,23.815l9.938,24.147s7.5,5.48,21.189,2.48c0,0,16.5-7.126,22.877-19.877a40.176,40.176,0,0,1,3.229,7.934c4.473,11.525,6.559,22.12,5.193,31.369.84,13.965.456,32.137-2.566,55.267a45.309,45.309,0,0,0,4.064,25.511c5.166,10.747,13.773,25.9,25.729,37.941a2.3,2.3,0,0,0,3.924-1.682c-1.142-34.529,5.812-56.078,8.1-62.171A8.429,8.429,0,0,0,108.361,213.576Z"/><path fill="#d57370" d="M285.625,138.5c-10.2,8.618-16.611,28.612-20,47.642,20.406-13.1,25.24-33.73,26.327-40.858A28.185,28.185,0,0,0,285.625,138.5Z"/><path fill="#ededed" d="M107.979,209.578a175.245,175.245,0,0,1-.085-31.939c-1.045.475-1.937.851-2.64,1.135a3.676,3.676,0,0,1-3.346-.291C80.975,165.161,68.771,143,63.436,131.215c1.974,6.219,4.287,16.369,5.19,31.369,8.932,24.792,27.119,42.355,32.978,47.557a3.719,3.719,0,0,0,4.07.578Q106.848,210.158,107.979,209.578Z"/><path fill="url(#dJIPsmbDBQ16uzX0ZrU-ya)" d="M6.2,116.531S2.479,121.26,4.611,130.52c2.07,8.995,11.53,10.158,11.53,10.158a19.02,19.02,0,0,0,4.493-7.867,8.749,8.749,0,0,0-4.488-9.834A74.222,74.222,0,0,1,6.2,116.531Z"/><path fill="#863131" d="M52.168,43.363H67.851a1.376,1.376,0,0,0,1.371-1.479c-.21-2.919-.978-9.546-3.714-14.26A6.383,6.383,0,0,0,54.9,26.94c-2.123,2.844-4.1,7.509-4.106,15.027A1.385,1.385,0,0,0,52.168,43.363Z"/><path fill="#863131" d="M79.651,43.169A73.72,73.72,0,0,1,91.381,45a1.007,1.007,0,0,0,.994-1.667,11.348,11.348,0,0,0-4.043-2.734,3.942,3.942,0,0,1-2.6-3.74,79.042,79.042,0,0,0-.948-14.672,49.081,49.081,0,0,0-6.633,4.771A78.561,78.561,0,0,1,79.651,43.169Z"/><path fill="#863131" d="M75.414,101.142c2.162-2.89,6.42-4.292,6.42-4.292s13.018-2.691,15.68-13.78l-9.4-3.737a1.18,1.18,0,0,1-.163-2.115c3.4-1.959,9.815-6.46,13.176-13.972l-5.6-2.964a1.181,1.181,0,0,1,.516-2.224l16.771-.512a2.768,2.768,0,0,1,2.612,3.915A30.232,30.232,0,0,1,103.711,74.6l9.209,3.417a2.778,2.778,0,0,1,1.426,4.011C111.3,87.245,103,97.956,84.638,101.8a13.586,13.586,0,0,0-4.029,1.479c-1.639.949-4.5,4.208-6.868,7.729a1.237,1.237,0,0,1-2.225-.974A22.7,22.7,0,0,1,75.414,101.142Z"/><path fill="#ededed" d="M37.408,82.351a3.5,3.5,0,0,1-3-5.294l2.161-3.62a3.5,3.5,0,1,1,6.01,3.587l-2.162,3.621A3.5,3.5,0,0,1,37.408,82.351Z"/><path fill="url(#dJIPsmbDBQ16uzX0ZrU-ye)" d="M272.3,56.328s8.59-7.962,7.123-23.256a23.061,23.061,0,0,0-5.189-12.509c-6.341-7.807-16.84-11.211-26.241-7.636-.384.146-.77.3-1.155.476A24.723,24.723,0,0,1,230.47,14.97c-6.832-1.814-16.459-1.916-24.771,7.088a32.138,32.138,0,0,0-8.092,17.822,115.294,115.294,0,0,0-.926,14.607,26.715,26.715,0,0,1-9.256,20.306c-7.728,6.691-16.6,19.33-14.64,41.454l67.042,12.361Z"/><path fill="#2f4658" d="M178.811,271.472s-14.462,22.7-15.834,58.528H278.726V289.6Z"/><path fill="url(#dJIPsmbDBQ16uzX0ZrU-yf)" d="M280.666,147.213l3.244,20c.263,14.326-2.187,32.856-14.761,42.719a17.5,17.5,0,0,0,.12,8.025c.03,11.025-.394,31.709-3.408,51.149,0,0-38.134,24.765-79.994-3.069,0,0,2.63-18.19-5.26-32.655s-9.205-25.861-9.205-25.861-3.106,12.09-12.269,17.047c0,0-.662,24.594-13.592,41.689l-1.477,24a9.579,9.579,0,0,0,3,7.569h0a9.579,9.579,0,0,1,3.019,6.98v17.131A8.064,8.064,0,0,1,142.019,330H121.282a8.054,8.054,0,0,1-8.013-7.163c-1.031-9.372-3.233-27.216,1.37-44.31,0,0-6.144-32.21,6.45-60.249a33.809,33.809,0,0,0,3-15.375c-.791-17.544.385-58.047,26-75.058l10.142-6.239Z"/><path fill="#d57370" d="M283.912,167.306a114.55,114.55,0,0,0-2.052-19.839L160.225,121.606l-7.593,4.671a17.037,17.037,0,0,1,14.213,9.678S181.6,203.781,235.53,196.58C262.257,193.012,276.42,179.764,283.912,167.306Z"/><path fill="#d57370" d="M218.111,84.975a213.126,213.126,0,0,0-16.551,29.463s25.159,29.463,58.925,19.2C260.485,133.638,236.981,90.272,218.111,84.975Z"/><path fill="url(#dJIPsmbDBQ16uzX0ZrU-yc)" d="M251.05,122.879s-4.976,7.974-17.38,7.283-28.363-23.368-28.363-23.368-13.017-10.067-26.424,4.665c0,0-21.186-4.8-28.8,16.386,0,0,21.021-5.784,27.145,12.833,0,0,12.249,45.43,61.573,44.271,0,0,41.215-1.158,50.318-49.14,0,0,2.483-11.109-14.069-16.24Z"/><path fill="#2f4658" d="M233.67,130.162a11.386,11.386,0,0,1-1.379-.171,52.565,52.565,0,0,0,12.272,8.508s7.579,4.578,8.914,11.07a1.836,1.836,0,0,0,3.048,1.022,72.313,72.313,0,0,0,8.762-9.913c3.052-4.162,3.158-12.757,2.546-20.113l-16.783,2.314S246.074,130.853,233.67,130.162Z"/><path fill="url(#dJIPsmbDBQ16uzX0ZrU-yg)" d="M228.565,73.542s-.055-.161-.175-.437c-4.146-9.582-18.745-6.164-18.108,4.257q.033.54.1,1.115s.39,12.987,14.805,10c3.934,10.481,10.2,16.874,18.7,19.349l30.129-14.544V49.128a15.232,15.232,0,0,0-15.584-12.207c-8.517,0-14.71,7.849-18.123,13.648a20.851,20.851,0,0,0-2.874,9.916C237.294,64.994,235.871,72.064,228.565,73.542Z"/><path fill="url(#dJIPsmbDBQ16uzX0ZrU-yh)" d="M225.189,88.477s8.325,8.647,19.889,11.781c0,0,.042-.287.15-.78a16.575,16.575,0,0,1,16.226-12.945h7.8a6.915,6.915,0,0,1,6.605,4.8c2.889,9.123,6.53,29.812-10.573,49.347a51.369,51.369,0,0,0-17.724-12.753c-11.347-4.971-14.049-13.077-15.454-16.211l-4.755,4.215S216.324,103.065,225.189,88.477Z"/><path fill="url(#dJIPsmbDBQ16uzX0ZrU-yi)" d="M186.286,258.342s15.921,14.789,42.057,14.789A57.425,57.425,0,0,0,263.5,261.409a6.82,6.82,0,0,1,9.908,1.678c6.513,10.169,16.763,34.672,10.007,63.062a4.983,4.983,0,0,1-8.754,1.961c-4.488-5.688-10.283-17.152-13.3-26.779,0,0-4.5,9.72-11.07,14.945,0,0-12.713-6.455-24.7-25.434,0,0-3.826,7.725-9.989,11.208a44.44,44.44,0,0,1-23.2-17.914,25.976,25.976,0,0,1-8.253,8.6s-9.971-7.159-7.738-19.43C178.715,260.653,186.286,258.342,186.286,258.342Z"/><path fill="#d57370" d="M255.172,70.48a3.045,3.045,0,0,1-.566-.054l-3.3-.631a3,3,0,0,1,1.127-5.893l3.3.631a3,3,0,0,1-.561,5.947Z"/><path fill="#d57370" d="M269.045,70.659a3,3,0,0,1-.538-5.952s1.425-.261,2.857-.493a3,3,0,0,1,.963,5.922c-1.368.222-2.73.471-2.74.473A2.955,2.955,0,0,1,269.045,70.659Z"/><path fill="#2f4658" d="M229.946,160.29a1.555,1.555,0,0,0,.547-3.046c-7.723-2.229-17.447-6.81-24.189-16.22a37.424,37.424,0,0,1-5.456-11.649c-1.617-5.711-6.206-18.446-15.882-23.058a28.186,28.186,0,0,0-6.083,5.142s10.479,5.5,16,23.444C199.206,148.951,214.316,158.917,229.946,160.29Z"/><path fill="#d57370" d="M220.75,217.369a1.835,1.835,0,0,1,.422,3.6,59.205,59.205,0,0,1-29.048.566c-23.988-6.086-27.868-24.85-27.773-36.745a1.835,1.835,0,0,1,3.554-.647C172.469,196.292,185.3,215.825,220.75,217.369Z"/><path fill="#d57370" d="M269.149,209.929c-5.332,3.33-12.589,5.08-17.687,5.828a1.785,1.785,0,0,0,0,3.535,43.105,43.105,0,0,0,17.811-1.338C269.256,212.945,269.149,209.929,269.149,209.929Z"/><path fill="#d57370" d="M261.27,204.417a3,3,0,0,1-.377-5.976l2.7-.346a3,3,0,1,1,.762,5.951l-2.7.346A2.95,2.95,0,0,1,261.27,204.417Z"/><path fill="#d57370" d="M205.012,205.536a3.12,3.12,0,0,1-.384-.025l-2.7-.346a3,3,0,0,1,.762-5.951l2.7.346a3,3,0,0,1-.377,5.976Z"/><path fill="#d57370" d="M235.471,256.729a32.007,32.007,0,0,0-2.683-15.2c2.6-5.5,2.377-11.939,1.787-16.2a1.124,1.124,0,0,1,2.084-.717,16.8,16.8,0,0,1,.969,16.021s4.308,9.885-.1,16.809A1.124,1.124,0,0,1,235.471,256.729Z"/><path fill="#d57370" d="M234.215,240.778c-6.792,2.078-13.584.737-17.391-.4a.873.873,0,0,0-.844,1.475c3.148,2.865,9.739,6.634,20.664,2.992Z"/><path fill="#d57370" d="M236.95,240.056c5.814,1.469,11.265-.462,14.279-1.93.7-.34,1.346.718.852,1.392-2.289,3.126-7.316,7.453-16.7,4.792Z"/><path fill="#d57370" d="M299.262,286.105a39.89,39.89,0,0,1,1.953,9.352s9.878-4.345,19.68-1.365a1.968,1.968,0,0,0,1.741-3.449C319.009,287.786,312.163,285.206,299.262,286.105Z"/><path fill="#2f4658" d="M280.385,159.346c-8.857,8.323-25.467,19.483-48.665,16.1a60.235,60.235,0,0,1-49.246-44.29q-.576-2.181-1.027-4.482s-1.263-10.527,10.737-8.211l-9.756-10.346a30.968,30.968,0,0,0-3.545,3.347s-21.186-4.8-28.8,16.386c0,0,21.021-5.784,27.145,12.833,0,0,12.249,45.43,61.573,44.271A54.02,54.02,0,0,0,280.385,159.346Z"/></svg>