<svg xmlns="http://www.w3.org/2000/svg" xmlns:xlink="http://www.w3.org/1999/xlink" viewBox="0 0 340 340" width="500px" height="500px"><defs><linearGradient id="oamFM4uyp2oEejfNU9XHDg" x1="216.296" x2="216.296" y1="19.108" y2="87.366" gradientUnits="userSpaceOnUse"><stop offset="0" stop-color="#edc378"/><stop offset=".553" stop-color="#edac53"/><stop offset="1" stop-color="#ed9c3a"/></linearGradient><linearGradient id="oamFM4uyp2oEejfNU9XHDc" x1="185.242" x2="202.909" y1="26.569" y2="53.985" gradientUnits="userSpaceOnUse"><stop offset="0" stop-color="#92af80"/><stop offset="1" stop-color="#6e8b5b"/></linearGradient><linearGradient id="oamFM4uyp2oEejfNU9XHDa" x1="34.584" x2="41.042" y1="138.881" y2="188.45" gradientUnits="userSpaceOnUse"><stop offset="0" stop-color="#edcfc9"/><stop offset="1" stop-color="#eca397"/></linearGradient><linearGradient id="oamFM4uyp2oEejfNU9XHDh" x1="50.186" x2="56.645" y1="136.848" y2="186.417" xlink:href="#oamFM4uyp2oEejfNU9XHDa"/><linearGradient id="oamFM4uyp2oEejfNU9XHDi" x1="89.6" x2="116.397" y1="203.779" y2="186.814" xlink:href="#oamFM4uyp2oEejfNU9XHDa"/><linearGradient id="oamFM4uyp2oEejfNU9XHDj" x1="35.138" x2="41.597" y1="138.809" y2="188.377" xlink:href="#oamFM4uyp2oEejfNU9XHDa"/><linearGradient id="oamFM4uyp2oEejfNU9XHDd" x1="67.732" x2="37.459" y1="225.856" y2="172.878" gradientUnits="userSpaceOnUse"><stop offset="0" stop-color="#e8eded"/><stop offset="1" stop-color="#c3d3dd"/></linearGradient><linearGradient id="oamFM4uyp2oEejfNU9XHDf" x1="57.501" x2="87.322" y1="49.708" y2="81.595" gradientUnits="userSpaceOnUse"><stop offset="0" stop-color="#7f91ac"/><stop offset="1" stop-color="#5d7189"/></linearGradient><linearGradient id="oamFM4uyp2oEejfNU9XHDk" x1="219.789" x2="219.789" y1="231.019" y2="169.914" xlink:href="#oamFM4uyp2oEejfNU9XHDa"/><linearGradient id="oamFM4uyp2oEejfNU9XHDl" x1="91.26" x2="156.694" y1="102.044" y2="167.478" gradientUnits="userSpaceOnUse"><stop offset="0" stop-color="#be6960"/><stop offset=".308" stop-color="#b15e56"/><stop offset="1" stop-color="#984943"/></linearGradient><linearGradient id="oamFM4uyp2oEejfNU9XHDb" x1="169.933" x2="172.413" y1="188.944" y2="301.14" gradientUnits="userSpaceOnUse"><stop offset="0" stop-color="#ede5dc"/><stop offset="1" stop-color="#ddc1ba"/></linearGradient><linearGradient id="oamFM4uyp2oEejfNU9XHDm" x1="163.04" x2="165.519" y1="189.096" y2="301.292" xlink:href="#oamFM4uyp2oEejfNU9XHDb"/><linearGradient id="oamFM4uyp2oEejfNU9XHDn" x1="162.328" x2="164.28" y1="158.604" y2="121.202" xlink:href="#oamFM4uyp2oEejfNU9XHDa"/><linearGradient id="oamFM4uyp2oEejfNU9XHDo" x1="121.706" x2="219.184" y1="167.676" y2="174.378" xlink:href="#oamFM4uyp2oEejfNU9XHDc"/><linearGradient id="oamFM4uyp2oEejfNU9XHDp" x1="225.536" x2="255.388" y1="232.119" y2="272.904" xlink:href="#oamFM4uyp2oEejfNU9XHDd"/><linearGradient id="oamFM4uyp2oEejfNU9XHDe" x1="294.908" x2="326.027" y1="245.517" y2="120.578" gradientUnits="userSpaceOnUse"><stop offset="0" stop-color="#ed6960"/><stop offset=".291" stop-color="#e15f57"/><stop offset="1" stop-color="#c84943"/></linearGradient><linearGradient id="oamFM4uyp2oEejfNU9XHDq" x1="247.273" x2="79.416" y1="307.801" y2="304.102" xlink:href="#oamFM4uyp2oEejfNU9XHDe"/><linearGradient id="oamFM4uyp2oEejfNU9XHDr" x1="251.373" x2="290.23" y1="289.414" y2="289.414" xlink:href="#oamFM4uyp2oEejfNU9XHDa"/><linearGradient id="oamFM4uyp2oEejfNU9XHDs" x1="38.525" x2="68.346" y1="67.454" y2="99.342" xlink:href="#oamFM4uyp2oEejfNU9XHDf"/><linearGradient id="oamFM4uyp2oEejfNU9XHDt" x1="152.509" x2="152.509" y1="19.108" y2="87.366" xlink:href="#oamFM4uyp2oEejfNU9XHDg"/><linearGradient id="oamFM4uyp2oEejfNU9XHDu" x1="150.444" x2="149.91" y1="80.436" y2="141.494" gradientUnits="userSpaceOnUse"><stop offset="0" stop-color="#edcdbb"/><stop offset=".298" stop-color="#edc6b5"/><stop offset=".735" stop-color="#ecb2a4"/><stop offset="1" stop-color="#eca397"/></linearGradient></defs><path fill="url(#oamFM4uyp2oEejfNU9XHDg)" d="M188.177,28.094S191.637,15,207.186,15c0,0,27.356-2.576,27.356,33.915V86.05s-.43,13.523,9.874,18.031c0,0-1.885,4.879-8.6,7.624a22.466,22.466,0,0,1-18.715-1.091c-10.236-5.256-25.606-19.665-21.068-58.31Z"/><path fill="url(#oamFM4uyp2oEejfNU9XHDc)" d="M178.711,29.66s15.018-9.927,24.491,4.659a26.993,26.993,0,0,1,3.083,6.242L195.356,62.385Z"/><path fill="#506a39" d="M183.441,34.076l-1.463,2.007,13.378,26.3c6.735-4.084,14.5-10.938,10.924-21.823C192.392,44.141,183.441,34.076,183.441,34.076Z"/><path fill="url(#oamFM4uyp2oEejfNU9XHDa)" d="M23.825,131.533h0a5.73,5.73,0,0,1,6.589-2.076C35.6,131.307,44,136.1,47.074,148.183l-9.858,4.47A26.629,26.629,0,0,0,25.6,139.446,5.426,5.426,0,0,1,23.825,131.533Z"/><path fill="url(#oamFM4uyp2oEejfNU9XHDh)" d="M50.525,124.883h0a6.015,6.015,0,0,1,6.324,4.862c1.119,5.8,2.522,16.01.169,25.866l-12.187-.355s1.744-13.082.353-23.817A5.8,5.8,0,0,1,50.525,124.883Z"/><path fill="url(#oamFM4uyp2oEejfNU9XHDi)" d="M109.32,171.677S90.279,187.142,76.989,197.2c3.469,9.441,7.7,18.226,13.613,25.567,9.629-6.173,19.271-13.4,26.71-21.289l6.353-17.434Z"/><path fill="url(#oamFM4uyp2oEejfNU9XHDj)" d="M31.95,150.382a20.084,20.084,0,0,0-10.52,2.339,9.146,9.146,0,0,0-4.58,7.718,32.312,32.312,0,0,0,.461,6.625,6.134,6.134,0,0,0,6.168,4.99,24.864,24.864,0,0,0,3.894-.377s-.932,11.8,9.341,15.781c0,0,12.81,1.076,20.3-10.481l1.032-27.685S47.642,142.143,31.95,150.382Z"/><path fill="url(#oamFM4uyp2oEejfNU9XHDd)" d="M76.988,197.2c-3.208,2.426-6.085,4.542-8.274,6.044a230.229,230.229,0,0,1-11.7-26.262l-20.3,10.481s5.3,34.539,13.9,56.387A286.627,286.627,0,0,0,90.6,222.761,55.238,55.238,0,0,0,76.988,197.2Z"/><path fill="#9eb7cb" d="M39.308,201.92c.366,1.853.767,3.822,1.2,5.883a42.84,42.84,0,0,0,23.142-14.867c-.887-1.922-1.835-4.04-2.8-6.3C57.9,190.884,50.886,199.054,39.308,201.92Z"/><path fill="#9eb7cb" d="M50.618,243.845s6.482-2.826,13.423-6.192c11.722-13.564,9.873-32.393,9.267-37.707-1.237.9-3.605,2.614-4.594,3.293C68.714,203.239,67.469,231.637,50.618,243.845Z"/><path fill="#d57370" d="M39.14,165.291a11.479,11.479,0,0,0-2.344-7.132l-.017-.022a1.056,1.056,0,0,0-1.909.621v.036l-.009.006.019,5.057a7.693,7.693,0,0,1-6.35,7.616l-1.157.2a18.862,18.862,0,0,0,.5,5.208C36.873,176.131,38.944,170.551,39.14,165.291Z"/><path fill="#d57370" d="M109.32,171.677s-3.841,3.12-9.272,7.464c2.148,4.955,8.081,21.4.328,36.934a123.519,123.519,0,0,0,16.936-14.6l6.353-17.434Z"/><path fill="#3e3e4e" d="M265.646,194.713a3,3,0,0,1-1.911-5.314l50.653-41.8a3,3,0,0,1,3.819,4.628l-50.652,41.8A2.986,2.986,0,0,1,265.646,194.713Z"/><path fill="#3e3e4e" d="M90.394,107.392a2.993,2.993,0,0,1-2.1-.858L76.269,94.743a3,3,0,1,1,4.2-4.284L92.494,102.25a3,3,0,0,1-2.1,5.142Z"/><path fill="#3e3e4e" d="M54.469,85.323l11.124-5.887,6.115-10.9,9.267,11.17a9.218,9.218,0,0,1,2.113,6.311L82.6,96.511l-11.032.2a9.217,9.217,0,0,1-6.095-2.156Z"/><path fill="#3e3e4e" d="M83.857,116.138a2.991,2.991,0,0,1-2.125-.882L59.483,92.942a3,3,0,0,1,4.249-4.237L85.981,111.02a3,3,0,0,1-2.124,5.118Z"/><path fill="#3e3e4e" d="M100.233,98.908a2.988,2.988,0,0,1-2.056-.816L77.638,78.758a3,3,0,0,1,4.112-4.37l20.54,19.335a3,3,0,0,1-2.057,5.185Z"/><path fill="url(#oamFM4uyp2oEejfNU9XHDf)" d="M64.5,67.48l5.748-1,3.057-15.921L83.644,63.026A10.278,10.278,0,0,1,86,70.066l-.544,11.7L73.149,82c-.152,0-.305,0-.456,0Z"/><path fill="#3e3e4e" d="M69.192,73.135,64.5,67.481,54.074,69.287,66.35,79.593a10.278,10.278,0,0,0,6.343,2.392A15.359,15.359,0,0,0,69.192,73.135Z"/><path fill="url(#oamFM4uyp2oEejfNU9XHDk)" d="M236.1,164.1s-10.548,28.9,1.477,57.172q.35.82.713,1.639l-19.1,14.1c-2.425-6.608-6-14.283-10.722-19.109l-7.173-35.724S224.5,168.533,236.1,164.1Z"/><path fill="#d57370" d="M204.5,198.185c12.226-8.506,22.244-14.873,28.111-18.492A80.866,80.866,0,0,1,236.1,164.1c-11.6,4.431-34.809,18.073-34.809,18.073Z"/><path fill="url(#oamFM4uyp2oEejfNU9XHDl)" d="M75.678,114.005l25.643-24.268a2.818,2.818,0,0,1,3.853-.021l71.576,66.178-45.411,16.423L75.648,118.072A2.819,2.819,0,0,1,75.678,114.005Z"/><path fill="#d57370" d="M208.463,217.9a44.072,44.072,0,0,1,7.719,11.879c12.477-18.887,3.622-48.634,3.622-48.634L202.63,188.85Z"/><path fill="url(#oamFM4uyp2oEejfNU9XHDb)" d="M201.573,276.436c-3.745-3.5-5.126-8.924-4.859-14.044q.051-1,.191-2.075c2.831-21.438,8.426-30.282,8.426-30.282H130.555s7.861,12.765,9.768,34.3a16.054,16.054,0,0,1-2.441,9.938C133.5,281.257,125.5,298.5,125.5,312.742l94.294-.975S221,294.6,201.573,276.436Z"/><path fill="#cb9b90" d="M136.73,245.141l61.184,8.653c2.97-16.72,7.417-23.759,7.417-23.759H130.555A67.871,67.871,0,0,1,136.73,245.141Z"/><path fill="#506a39" d="M132.746,140.88s8.931,6.583,22.811,4.629l2.211,22.251Z"/><path fill="url(#oamFM4uyp2oEejfNU9XHDm)" d="M163.49,192.319l-49.542.569a67.023,67.023,0,0,0-1.967,18.589,25.792,25.792,0,0,0,22.51,25.148c.2.023,3.441.217,4.861.114a84.126,84.126,0,0,0,16.192-2.752,28.827,28.827,0,0,1,15.892,0,84.131,84.131,0,0,0,16.191,2.752c1.42.1,4.665-.091,4.861-.114A25.792,25.792,0,0,0,215,211.477a66.573,66.573,0,0,0-2.1-19.084Z"/><path fill="#cb9b90" d="M175.507,219.572c13.813-10.815,26.865-20.047,37.459-27.179a36.235,36.235,0,0,0-4.184-10.218l-45.225,10.144-45.225-10.144s-2.469,3.606-4.318,10.73c15.634,14.082,34.082,23.7,44.9,28.636A16.079,16.079,0,0,0,175.507,219.572Z"/><polygon fill="url(#oamFM4uyp2oEejfNU9XHDn)" points="174.556 101.403 179.69 149.488 152.509 168.633 147.424 120.628 174.556 101.403"/><path fill="url(#oamFM4uyp2oEejfNU9XHDo)" d="M184.205,133.414,156.8,158.61l-24.053-17.73a8.845,8.845,0,0,0-10.859.291,34.82,34.82,0,0,0-10.419,13.751,22.053,22.053,0,0,0-8.667,3.617,8.214,8.214,0,0,0-1.459,12.06c7.026,8.177,23.2,24.033,53.762,40.129a14.263,14.263,0,0,0,13.423-.076,286.679,286.679,0,0,0,38.659-25.147c13.416-10.437,23.282-15.843,29.2-18.545a8.77,8.77,0,0,0,4.7-10.714A48.2,48.2,0,0,0,227.424,135.5a11.851,11.851,0,0,0-15.435-.377,77.017,77.017,0,0,0-7.039,6.566l-8.014-8.012A9.2,9.2,0,0,0,184.205,133.414Z"/><path fill="#3e3e4e" d="M121.208,315.742a3,3,0,0,1-1.979-5.255l44.641-39.144a3,3,0,0,1,3.956,4.511L123.186,315A2.992,2.992,0,0,1,121.208,315.742Z"/><path fill="url(#oamFM4uyp2oEejfNU9XHDp)" d="M256.141,292.369l18.776-16.877s-24.338-24.957-36.62-52.583c-4.883,2.412-13.026,7.123-19.114,14.1a111.15,111.15,0,0,1,3.836,12.745C231.669,275.492,256.141,292.369,256.141,292.369Z"/><path fill="url(#oamFM4uyp2oEejfNU9XHDe)" d="M318.57,144.515c-2.571.933-6.885,3.64-9.382,11.471a20.223,20.223,0,0,0-.9,6.053c-.079,15.018-2.327,91.4-39.441,115.942l11.716,14.388s54.091-41.592,40.367-146.415A1.775,1.775,0,0,0,318.57,144.515Z"/><path fill="url(#oamFM4uyp2oEejfNU9XHDq)" d="M257.809,289.414s-42.125,33.168-118.289,16.327A24.473,24.473,0,0,0,116.151,313l-.019.02A1.764,1.764,0,0,0,117,315.9c16.326,4.291,102.307,24.37,153.8-13.618Z"/><path fill="url(#oamFM4uyp2oEejfNU9XHDr)" d="M253.371,284.336c2.933-4.288,7.359-9.352,13.337-12.478a11.335,11.335,0,0,1,12.39,1.33c2.256,1.836,5.007,4.182,7.662,6.72a11.322,11.322,0,0,1,.69,15.588,69.447,69.447,0,0,1-11.391,10.65,11.29,11.29,0,0,1-13.369-.221,67.424,67.424,0,0,1-8.235-7.394A11.327,11.327,0,0,1,253.371,284.336Z"/><path fill="#3e3e4e" d="M250.531,207.117a3,3,0,0,1-1.906-5.319l1.39-1.14a3,3,0,1,1,3.806,4.637l-1.389,1.14A2.989,2.989,0,0,1,250.531,207.117Z"/><path fill="#506a39" d="M152.966,155.784a18.707,18.707,0,0,1-3.586,2.675c-2.873,1.567-8.332,1.3-12.212.838a.808.808,0,0,0-.484,1.509l5.405,3.014a8.92,8.92,0,0,0,10.377-1.227l4.333-3.983Z"/><path fill="#506a39" d="M117.42,145.458a32.274,32.274,0,0,0-5.952,9.464,179.954,179.954,0,0,0,23.115,22.47,1.046,1.046,0,0,0,1.482-1.456C130.231,168.484,121.192,155.949,117.42,145.458Z"/><path fill="#9eb7cb" d="M245.1,236.1c-10.5,5.222-16.6,14.172-19.612,19.884a74.185,74.185,0,0,0,3.492,6.734c1.063-2.68,6.67-15.412,19.245-21.468Q246.634,238.718,245.1,236.1Z"/><path fill="#9eb7cb" d="M259.326,257.125c-13.482,1.815-21.784,11.133-24.363,14.475,1.286,1.683,2.591,3.281,3.893,4.783a2.924,2.924,0,0,0,.251-.292c.091-.136,8.926-13.161,24.712-13.273C262.391,261.063,260.882,259.156,259.326,257.125Z"/><path fill="url(#oamFM4uyp2oEejfNU9XHDs)" d="M30.664,81.426l18.427-3.192L52.573,60.1l11.777,14.2a11.7,11.7,0,0,1,2.685,8.02l-.619,13.332-14.021.26a11.715,11.715,0,0,1-7.746-2.739Z"/><path fill="#506a39" d="M241.088,156.246A48.2,48.2,0,0,0,227.424,135.5a11.852,11.852,0,0,0-15.435-.377,77.017,77.017,0,0,0-7.039,6.566l-7.769-8.007a9.508,9.508,0,0,0-12.976-.271l-2.8,2.577c2.208.621,6.283,2.641,10.64,9.186a260.133,260.133,0,0,1-28.1,34.12,1.08,1.08,0,0,0,1.423,1.616,206.11,206.11,0,0,0,28.017-25.652l-.013.024s16.377-16.748,26.933-1.748c0,0,7.565,9.4,5.885,18.836a106.724,106.724,0,0,1,10.2-5.413A8.77,8.77,0,0,0,241.088,156.246Z"/><path fill="#d57370" d="M176.654,121.054l-2.1-19.651-27.132,19.225,1.988,18.761A47.951,47.951,0,0,0,176.654,121.054Z"/><path fill="url(#oamFM4uyp2oEejfNU9XHDt)" d="M177.852,98.9s13.115-1.626,18.372-19a47.2,47.2,0,0,0-26.046-56.6q-2.6-1.148-5.533-2.125a40.78,40.78,0,0,0-24.512-.579c-4.871,1.462-10.618,5.868-13.068,10.242,0,0-20.876,3.366-20.249,31.112.654,28.9,32.549,31.906,32.549,31.906Z"/><path fill="url(#oamFM4uyp2oEejfNU9XHDu)" d="M127.446,56.772s3.925,26.655,36.985,30.787a14.215,14.215,0,0,1,2.7-6.081c3.676-4.675,10.989-4.543,14.1.522,1.277,2.076,2.205,5.094,2.205,9.485,0,0,.206,9.3-8.885,9.918v5.376A12.612,12.612,0,0,1,171,115.6a64.5,64.5,0,0,1-21.511,14.511,11.6,11.6,0,0,1-10.644-1.023,45.625,45.625,0,0,1-19.867-28.3S111.742,70.823,127.446,56.772Z"/><path fill="#d57370" d="M128.821,95.991c-.084,0-.169,0-.254-.011a14.646,14.646,0,0,1-3.791-.911A3,3,0,0,1,127,89.494a8.686,8.686,0,0,0,2.072.507,3,3,0,0,1-.246,5.99Z"/><path fill="#d57370" d="M141.5,96.005a3,3,0,0,1-.246-5.99,8.639,8.639,0,0,0,2.074-.506,3,3,0,0,1,2.217,5.575,14.671,14.671,0,0,1-3.793.911C141.663,96,141.578,96.005,141.5,96.005Z"/></svg>