<svg xmlns="http://www.w3.org/2000/svg" xmlns:xlink="http://www.w3.org/1999/xlink" viewBox="0 0 340 340" width="500px" height="500px"><defs><linearGradient id="XnDQ3zmJtbPvSjgfZLPFYi" x1="86.609" x2="87.815" y1="55.731" y2="-9.083" gradientUnits="userSpaceOnUse"><stop offset="0" stop-color="#d9eced"/><stop offset=".073" stop-color="#d1e7ed"/><stop offset=".703" stop-color="#90bceb"/><stop offset="1" stop-color="#77abea"/></linearGradient><linearGradient id="XnDQ3zmJtbPvSjgfZLPFYb" x1="277.389" x2="286.82" y1="316.787" y2="274.067" gradientUnits="userSpaceOnUse"><stop offset="0" stop-color="#edcfc9"/><stop offset="1" stop-color="#eca397"/></linearGradient><linearGradient id="XnDQ3zmJtbPvSjgfZLPFYa" x1="257.99" x2="307.795" y1="190.336" y2="256.134" gradientUnits="userSpaceOnUse"><stop offset="0" stop-color="#ddcac3"/><stop offset="1" stop-color="#c3a398"/></linearGradient><linearGradient id="XnDQ3zmJtbPvSjgfZLPFYd" x1="178.585" x2="257.54" y1="310.571" y2="324.723" gradientUnits="userSpaceOnUse"><stop offset="0" stop-color="#535365"/><stop offset="1" stop-color="#39394c"/></linearGradient><linearGradient id="XnDQ3zmJtbPvSjgfZLPFYh" x1="225.474" x2="224.27" y1="297.681" y2="333.78" gradientUnits="userSpaceOnUse"><stop offset="0" stop-color="#edc378"/><stop offset=".553" stop-color="#edac53"/><stop offset="1" stop-color="#ed9c3a"/></linearGradient><linearGradient id="XnDQ3zmJtbPvSjgfZLPFYj" x1="189.513" x2="185.857" y1="183.438" y2="298.127" xlink:href="#XnDQ3zmJtbPvSjgfZLPFYa"/><linearGradient id="XnDQ3zmJtbPvSjgfZLPFYk" x1="208.097" x2="208.097" y1="121.878" y2="168.159" xlink:href="#XnDQ3zmJtbPvSjgfZLPFYb"/><linearGradient id="XnDQ3zmJtbPvSjgfZLPFYc" x1="172.853" x2="235.113" y1="136.019" y2="170.179" gradientUnits="userSpaceOnUse"><stop offset="0" stop-color="#788fd0"/><stop offset="1" stop-color="#5169ac"/></linearGradient><linearGradient id="XnDQ3zmJtbPvSjgfZLPFYl" x1="156.246" x2="218.506" y1="166.286" y2="200.446" xlink:href="#XnDQ3zmJtbPvSjgfZLPFYc"/><linearGradient id="XnDQ3zmJtbPvSjgfZLPFYg" x1="257.644" x2="163.922" y1="173.226" y2="306.411" gradientUnits="userSpaceOnUse"><stop offset="0" stop-color="#ed6960"/><stop offset=".291" stop-color="#e15f57"/><stop offset="1" stop-color="#c84943"/></linearGradient><linearGradient id="XnDQ3zmJtbPvSjgfZLPFYm" x1="191.885" x2="191.239" y1="21.138" y2="77.033" xlink:href="#XnDQ3zmJtbPvSjgfZLPFYd"/><linearGradient id="XnDQ3zmJtbPvSjgfZLPFYn" x1="212.567" x2="212.567" y1="105.691" y2="37.529" xlink:href="#XnDQ3zmJtbPvSjgfZLPFYb"/><linearGradient id="XnDQ3zmJtbPvSjgfZLPFYo" x1="224.508" x2="223.862" y1="21.515" y2="77.411" xlink:href="#XnDQ3zmJtbPvSjgfZLPFYd"/><linearGradient id="XnDQ3zmJtbPvSjgfZLPFYe" x1="99.767" x2="122.503" y1="218.736" y2="285.933" gradientUnits="userSpaceOnUse"><stop offset="0" stop-color="#c99088"/><stop offset="1" stop-color="#b76c64"/></linearGradient><linearGradient id="XnDQ3zmJtbPvSjgfZLPFYp" x1="296.52" x2="335.929" y1="267.886" y2="239.593" xlink:href="#XnDQ3zmJtbPvSjgfZLPFYe"/><linearGradient id="XnDQ3zmJtbPvSjgfZLPFYf" x1="25.229" x2="49.004" y1="133.077" y2="150.368" gradientUnits="userSpaceOnUse"><stop offset="0" stop-color="#d7e2ed"/><stop offset="1" stop-color="#eaeded"/></linearGradient><linearGradient id="XnDQ3zmJtbPvSjgfZLPFYq" x1="163.785" x2="107.373" y1="120.258" y2="163.702" xlink:href="#XnDQ3zmJtbPvSjgfZLPFYf"/><linearGradient id="XnDQ3zmJtbPvSjgfZLPFYr" x1="87.485" x2="86.903" y1="68.294" y2="278.534" xlink:href="#XnDQ3zmJtbPvSjgfZLPFYg"/><linearGradient id="XnDQ3zmJtbPvSjgfZLPFYs" x1="85.409" x2="88.773" y1="183.982" y2="240.114" xlink:href="#XnDQ3zmJtbPvSjgfZLPFYb"/><linearGradient id="XnDQ3zmJtbPvSjgfZLPFYt" x1="230.765" x2="221.621" y1="204.727" y2="247.804" xlink:href="#XnDQ3zmJtbPvSjgfZLPFYh"/></defs><path fill="url(#XnDQ3zmJtbPvSjgfZLPFYi)" d="M99.074,39.574,86.91,12.216,74.746,39.574H84.2V62.926c0,1.933,1.216,3.5,2.715,3.5s2.715-1.567,2.715-3.5V39.574Z"/><path fill="url(#XnDQ3zmJtbPvSjgfZLPFYb)" d="M267.205,285.573s-9.538,15.428-10.93,42.211h38.978l1.009-4.32a11.542,11.542,0,0,0-7.1-13.4l-3.46-1.33,2.411-11.491S279.527,286.382,267.205,285.573Z"/><path fill="url(#XnDQ3zmJtbPvSjgfZLPFYa)" d="M258.816,222.841l33.92,31.462L317.9,238.572l-50.7-67.474S255.9,196.216,258.816,222.841Z"/><path fill="#8e7776" d="M281.578,229.77c-11.15-16.649-5.771-32.174-.9-40.735L267.205,171.1s-11.306,25.118-8.389,51.743l33.92,31.462,10.362-6.478C294.624,243.349,286.727,237.458,281.578,229.77Z"/><polygon fill="url(#XnDQ3zmJtbPvSjgfZLPFYd)" points="258.012 303.67 258.012 327.784 156.694 327.784 156.201 308.735 161.7 303.67 258.012 303.67"/><rect width="25.817" height="24.113" x="211.964" y="303.67" fill="url(#XnDQ3zmJtbPvSjgfZLPFYh)"/><path fill="url(#XnDQ3zmJtbPvSjgfZLPFYj)" d="M148.781,165.473s-14.713,44.083-33.733,76.271l16.866,40.935A282.491,282.491,0,0,0,159.906,235.8L161.7,303.67h96.312s.091-35.785,2.533-70.844C260.545,232.826,189.691,198.011,148.781,165.473Z"/><path fill="#8e7776" d="M148.781,165.473s-1.694,5.073-4.672,13.029c8.627,13.323,35,50.048,73.836,67.87l-56.479,48.46.234,8.839h17.5a320.177,320.177,0,0,0,47.392-39.434H230.9a9.441,9.441,0,0,0,6.448-2.536c4.436-4.137,13.441-13.46,23.194-28.875,1.361-19.533,3.45-38.84,6.66-51.609C267.205,181.217,189.691,198.011,148.781,165.473Z"/><polygon fill="url(#XnDQ3zmJtbPvSjgfZLPFYk)" points="190.904 104.942 190.904 153.613 225.29 163.857 225.29 125.271 190.904 104.942"/><path fill="url(#XnDQ3zmJtbPvSjgfZLPFYc)" d="M182.858,138.4c9.717,6.921,33.765,19.627,71.571,11.452L238.721,188.1s-40.521,6.147-76.262-34.83l11.157-13.6A6.838,6.838,0,0,1,182.858,138.4Z"/><path fill="#2a3c72" d="M239.22,152.135c-3.23,8-9.971,23.238-18.76,35.244,11.037,1.818,18.261.722,18.261.722l15.708-38.245A117.531,117.531,0,0,1,239.22,152.135Z"/><path fill="#2a3c72" d="M178.194,157.31a3.066,3.066,0,0,0-3.341,5.024c10.591,10.166,24.16,17.7,36.986,23.157,15.744,4.295,26.882,2.61,26.882,2.61l8.875-21.607A132.523,132.523,0,0,1,178.194,157.31Z"/><path fill="url(#XnDQ3zmJtbPvSjgfZLPFYl)" d="M161.549,146.78c9.919,9.05,36.262,30.382,65.041,31.247l-7.674,49.23s-54.18-25.374-80.132-65.843l14.41-14.438A6.043,6.043,0,0,1,161.549,146.78Z"/><path fill="#8e7776" d="M157.857,220.207a.754.754,0,0,0-1.424.411c.325,3.48.149,8.163-2.133,12.152-2.49,4.355-7.844,11.387-11.846,16.456a5.477,5.477,0,0,1-8.826-.287c-3.182-4.688-8.2-10.805-14.526-14.345-1.326,2.431-2.678,4.822-4.054,7.15l16.867,40.934A282.505,282.505,0,0,0,159.906,235.8v-6.958A19.209,19.209,0,0,0,157.857,220.207Z"/><path fill="#2a3c72" d="M218.916,227.257l31.415-53.725a54.591,54.591,0,0,1-23.74,4.49,106.8,106.8,0,0,1-8.6,12.57s-4.862,0-10.887,9.161c-3.248,4.938-7.2,10.829-10.156,15.213A230.2,230.2,0,0,0,218.916,227.257Z"/><path fill="url(#XnDQ3zmJtbPvSjgfZLPFYg)" d="M253.28,145.2s-33.335,88.042-95.425,137.248a9.307,9.307,0,0,0-3.507,6.956,73.322,73.322,0,0,0,1.853,19.332s78.526-42.076,117.1-134.88a10.086,10.086,0,0,0-1.119-9.776A80.693,80.693,0,0,0,253.28,145.2Z"/><polygon fill="#d57370" points="190.904 137.151 225.29 135.842 225.29 125.27 190.904 104.942 190.904 137.151"/><path fill="url(#XnDQ3zmJtbPvSjgfZLPFYm)" d="M210.907,56.844s4.007,31.013-25.13,35.7c0,0-17.081-11.032-13.618-31.611s19.764-19.968,19.764-19.968Z"/><path fill="url(#XnDQ3zmJtbPvSjgfZLPFYn)" d="M248.158,55.227s.879,23.556-1.935,45.523a62.243,62.243,0,0,1-2.518,11.232,92.449,92.449,0,0,1-5.416,13.373,12.418,12.418,0,0,1-14.377,6.225c-8.078-2.241-20.086-6.481-29.429-13.635a9.207,9.207,0,0,1-3.579-7.317v-5.686s-14.058-1.834-14.058-15.077a18.85,18.85,0,0,1,1.737-8.58,8.5,8.5,0,0,1,14.612-.848,11.672,11.672,0,0,1,1.784,5.76c8.648-6.336,15.244-18.391,11.394-30.97Z"/><path fill="url(#XnDQ3zmJtbPvSjgfZLPFYo)" d="M184.562,30a14.1,14.1,0,0,0,1.114,21.875c7.353,5.428,19.983,11.056,40.754,11.056,40.123,0,42.372-31.873,42.372-31.873H256.428s4.155-4.072,2.765-14.83c0,0-8.029,4.89-25.638,3.205C233.555,19.428,201.348,15.048,184.562,30Z"/><path fill="#d57370" d="M222.045,91.842a3.5,3.5,0,0,1-1.425-.3,25.666,25.666,0,0,0-2.776-1,3.5,3.5,0,0,1,2.058-6.691,33.4,33.4,0,0,1,3.572,1.3,3.5,3.5,0,0,1-1.429,6.7Z"/><path fill="#d57370" d="M237.966,91.842a3.5,3.5,0,0,1-1.37-6.723c1.177-.5,3.049-1.188,3.128-1.217a3.5,3.5,0,0,1,2.413,6.571c-.018.007-1.789.658-2.805,1.089A3.483,3.483,0,0,1,237.966,91.842Z"/><path fill="url(#XnDQ3zmJtbPvSjgfZLPFYe)" d="M99.876,201.764s41.281,40.274,37.589,98.335c0,0-28.844-7.671-42.814-39.151a29.623,29.623,0,0,1-2.3-8.254l-5.223-40.862Z"/><path fill="url(#XnDQ3zmJtbPvSjgfZLPFYp)" d="M326.868,231.442s-43.264,4.377-59.45,54.344l20.913,11.671L321.793,266.1a25.806,25.806,0,0,0,8.307-19.321A45.6,45.6,0,0,0,326.868,231.442Z"/><path fill="#a25f5f" d="M137.252,300.1c.226-3.551.281-7.035.19-10.448-37.136-16.525-31.221-62.068-28.248-76.682a108.025,108.025,0,0,0-9.531-11.2L86.91,211.832l5.223,40.862a29.623,29.623,0,0,0,2.305,8.254C108.408,292.428,137.252,300.1,137.252,300.1Z"/><path fill="url(#XnDQ3zmJtbPvSjgfZLPFYf)" d="M83.159,182.582a2.993,2.993,0,0,1-1.951-.722L13.789,124.082a3,3,0,0,1,3.9-4.556L85.112,177.3a3,3,0,0,1-1.953,5.278Z"/><path fill="url(#XnDQ3zmJtbPvSjgfZLPFYq)" d="M87.932,184.818a3,3,0,0,1-1.957-5.276l70.514-60.588a3,3,0,1,1,3.91,4.551L89.885,184.093A2.989,2.989,0,0,1,87.932,184.818Z"/><path fill="#b63131" d="M79.79,60.64s-17.8,2.286-38.9,32.891c0,0-13.839,18.6-31,23.4a11.428,11.428,0,0,0,8.424,9.546,13.856,13.856,0,0,0,7.807-.327c5.144-1.649,15.062-6.3,23.442-18.9A118.98,118.98,0,0,1,57.035,97.03c2.737-3.3,6.022-6.888,8.764-8.842,4.2-2.994,9.136-5.67,13.991-6.354Z"/><path fill="#b63131" d="M94.03,60.64s17.8,2.286,38.9,32.891c0,0,13.839,18.6,31,23.4a11.428,11.428,0,0,1-8.424,9.546,13.856,13.856,0,0,1-7.807-.327c-5.144-1.649-15.062-6.3-23.442-18.9a118.98,118.98,0,0,0-7.468-10.213c-2.737-3.3-6.022-6.888-8.764-8.842-4.2-2.994-9.136-5.67-13.991-6.354Z"/><path fill="url(#XnDQ3zmJtbPvSjgfZLPFYr)" d="M99.105,260.765c-2.1-4.751-5.075-15.275-5.075-36.824V134.4a41.505,41.505,0,0,1,2.853-14.931,25.308,25.308,0,0,0,2.182-10V65.157a7.644,7.644,0,0,0-7.644-7.644H82.4a7.644,7.644,0,0,0-7.644,7.644v44.31a25.308,25.308,0,0,0,2.182,10A41.505,41.505,0,0,1,79.79,134.4v89.542c0,21.29-2.9,31.819-5,36.65a24.843,24.843,0,0,0-2.121,9.893V281.4a22.123,22.123,0,0,0,5.9,15.139,51.316,51.316,0,0,0,5.946,5.411,3.894,3.894,0,0,0,4.78,0,51.4,51.4,0,0,0,5.947-5.411,22.127,22.127,0,0,0,5.9-15.139V270.624A24.325,24.325,0,0,0,99.105,260.765Z"/><path fill="#b63131" d="M95.1,243.929a166.746,166.746,0,0,1-1.066-19.988v-15.52a65.227,65.227,0,0,0-14.24,1.317v14.2c0,19.7-2.483,30.18-4.516,35.465Z"/><rect width="33.561" height="41.191" x="70.129" y="188.429" fill="url(#XnDQ3zmJtbPvSjgfZLPFYs)" rx="10.863"/><path fill="#a25f5f" d="M288.118,297.244l33.462-31.352a25.81,25.81,0,0,0,8.307-19.322,39.38,39.38,0,0,0-.366-4.421c-10.314,13.695-29.993,33.193-56.387,29.125a94.4,94.4,0,0,0-5.929,14.3Z"/><path fill="#e5782e" d="M237.78,303.671h-2.74c-.709,4.325-4.379,17.041-23.076,17.976v6.137H237.78Z"/><path fill="#b63131" d="M238.664,234.168l-4.2-4.548-23.2-6.177c-5.175,7.526-10.811,15.121-16.9,22.546a71.313,71.313,0,0,0,21.853,14.6A296.807,296.807,0,0,0,238.664,234.168Z"/><path fill="url(#XnDQ3zmJtbPvSjgfZLPFYt)" d="M202.951,226.771a299.261,299.261,0,0,0,17.114-24.756,8.573,8.573,0,0,1,12.452-2.449,83.442,83.442,0,0,1,16.884,16.2,8.579,8.579,0,0,1,.343,9.791,230.446,230.446,0,0,1-18.994,25.816,8.578,8.578,0,0,1-11.75,1.1A107.035,107.035,0,0,1,203.156,237.4,8.565,8.565,0,0,1,202.951,226.771Z"/><path fill="#e5782e" d="M230.75,251.375a230.446,230.446,0,0,0,18.994-25.816,8.579,8.579,0,0,0-.343-9.791,66.414,66.414,0,0,0-5.926-6.8c.479,4.768-.321,11.309-5.695,18-6.559,8.162-11.124,14-13.6,17.2a9.47,9.47,0,0,1-7.287,3.67,17.538,17.538,0,0,1-3.821-.326c2.114,1.876,4.15,3.554,5.931,4.958A8.578,8.578,0,0,0,230.75,251.375Z"/></svg>