<svg xmlns="http://www.w3.org/2000/svg" xmlns:xlink="http://www.w3.org/1999/xlink" viewBox="0 0 340 340" width="500px" height="500px"><defs><linearGradient id="va3S4Rf80E378htOJZzbra" x1="271.298" x2="279.62" y1="171.561" y2="77.518" gradientUnits="userSpaceOnUse"><stop offset="0" stop-color="#e79e75"/><stop offset=".308" stop-color="#e29368"/><stop offset="1" stop-color="#d87c4f"/></linearGradient><linearGradient id="va3S4Rf80E378htOJZzbrd" x1="49.709" x2="3.579" y1="124.624" y2="111.854" gradientUnits="userSpaceOnUse"><stop offset="0" stop-color="#d5477a"/><stop offset="1" stop-color="#af3566"/></linearGradient><linearGradient id="va3S4Rf80E378htOJZzbrg" x1="32.359" x2="32.359" y1="239.591" y2="107.183" gradientUnits="userSpaceOnUse"><stop offset="0" stop-color="#ed6960"/><stop offset=".291" stop-color="#e15f57"/><stop offset="1" stop-color="#c84943"/></linearGradient><linearGradient id="va3S4Rf80E378htOJZzbrf" x1="60.907" x2="123.585" y1="228.006" y2="230.714" gradientUnits="userSpaceOnUse"><stop offset="0" stop-color="#7f91ac"/><stop offset="1" stop-color="#5d7189"/></linearGradient><linearGradient id="va3S4Rf80E378htOJZzbre" x1="132.326" x2="60.144" y1="240.498" y2="234.221" gradientUnits="userSpaceOnUse"><stop offset="0" stop-color="#535365"/><stop offset="1" stop-color="#39394c"/></linearGradient><linearGradient id="va3S4Rf80E378htOJZzbrh" x1="128.607" x2="119.453" y1="174.973" y2="231.982" xlink:href="#va3S4Rf80E378htOJZzbra"/><linearGradient id="va3S4Rf80E378htOJZzbrb" x1="128.893" x2="128.119" y1="253.591" y2="339.097" gradientUnits="userSpaceOnUse"><stop offset="0" stop-color="#7f91c0"/><stop offset="1" stop-color="#5d719d"/></linearGradient><linearGradient id="va3S4Rf80E378htOJZzbri" x1="212.842" x2="212.069" y1="254.351" y2="339.856" xlink:href="#va3S4Rf80E378htOJZzbrb"/><linearGradient id="va3S4Rf80E378htOJZzbrk" x1="203.242" x2="202.468" y1="254.264" y2="339.769" xlink:href="#va3S4Rf80E378htOJZzbrb"/><linearGradient id="va3S4Rf80E378htOJZzbrl" x1="138.448" x2="137.674" y1="253.678" y2="339.183" xlink:href="#va3S4Rf80E378htOJZzbrb"/><linearGradient id="va3S4Rf80E378htOJZzbrm" x1="232.732" x2="243.551" y1="159.346" y2="228.422" xlink:href="#va3S4Rf80E378htOJZzbra"/><linearGradient id="va3S4Rf80E378htOJZzbrn" x1="256.923" x2="284.819" y1="283.814" y2="283.814" xlink:href="#va3S4Rf80E378htOJZzbra"/><linearGradient id="va3S4Rf80E378htOJZzbro" x1="169.963" x2="170.745" y1="289.667" y2="351.174" xlink:href="#va3S4Rf80E378htOJZzbrd"/><linearGradient id="va3S4Rf80E378htOJZzbrp" x1="176.465" x2="176.727" y1="179.073" y2="245.24" xlink:href="#va3S4Rf80E378htOJZzbre"/><linearGradient id="va3S4Rf80E378htOJZzbrr" x1="121.714" x2="124.809" y1="86.074" y2="216.459" xlink:href="#va3S4Rf80E378htOJZzbrb"/><linearGradient id="va3S4Rf80E378htOJZzbrs" x1="160.522" x2="156.361" y1="62.021" y2="131.097" gradientUnits="userSpaceOnUse"><stop offset="0" stop-color="#edbd9f"/><stop offset=".644" stop-color="#df9168"/><stop offset="1" stop-color="#d87c4f"/></linearGradient><linearGradient id="va3S4Rf80E378htOJZzbrt" x1="250.652" x2="254.134" y1="197.453" y2="263.613" xlink:href="#va3S4Rf80E378htOJZzbrf"/><linearGradient id="va3S4Rf80E378htOJZzbru" x1="29.932" x2="37.078" y1="198.81" y2="253.828" xlink:href="#va3S4Rf80E378htOJZzbra"/><linearGradient id="va3S4Rf80E378htOJZzbrv" x1="31.351" x2="33.129" y1="107.467" y2="25.691" gradientUnits="userSpaceOnUse"><stop offset="0" stop-color="#d7e2ed"/><stop offset="1" stop-color="#eaeded"/></linearGradient><linearGradient id="va3S4Rf80E378htOJZzbrx" x1="166.504" x2="169.6" y1="85.01" y2="215.396" xlink:href="#va3S4Rf80E378htOJZzbrb"/><linearGradient id="va3S4Rf80E378htOJZzbry" x1="38.889" x2="36.875" y1="13.983" y2="102.595" xlink:href="#va3S4Rf80E378htOJZzbrb"/><linearGradient id="va3S4Rf80E378htOJZzbrz" x1="191.217" x2="164.154" y1="23.638" y2="60.632" xlink:href="#va3S4Rf80E378htOJZzbrf"/><linearGradient id="va3S4Rf80E378htOJZzbrA" x1="191.836" x2="162.49" y1="24.691" y2="67.472" xlink:href="#va3S4Rf80E378htOJZzbre"/><linearGradient id="va3S4Rf80E378htOJZzbrC" x1="226.833" x2="229.928" y1="83.578" y2="213.964" xlink:href="#va3S4Rf80E378htOJZzbrb"/><linearGradient id="va3S4Rf80E378htOJZzbrE" x1="266.455" x2="265.147" y1="186.586" y2="269.229" xlink:href="#va3S4Rf80E378htOJZzbre"/><radialGradient id="va3S4Rf80E378htOJZzbrc" cx="218.609" cy="267.856" r="38.569" gradientUnits="userSpaceOnUse"><stop offset="0" stop-color="#ededed"/><stop offset="1" stop-color="#c2d0ed"/></radialGradient><radialGradient id="va3S4Rf80E378htOJZzbrj" cx="112.638" cy="272.451" r="43.391" xlink:href="#va3S4Rf80E378htOJZzbrc"/><radialGradient id="va3S4Rf80E378htOJZzbrq" cx="117.851" cy="104.263" r="52.804" xlink:href="#va3S4Rf80E378htOJZzbrc"/><radialGradient id="va3S4Rf80E378htOJZzbrw" cx="143.57" cy="170.134" r="43.473" xlink:href="#va3S4Rf80E378htOJZzbrc"/><radialGradient id="va3S4Rf80E378htOJZzbrB" cx="226.5" cy="107.15" r="36.607" xlink:href="#va3S4Rf80E378htOJZzbrc"/><radialGradient id="va3S4Rf80E378htOJZzbrD" cx="142.218" cy="250.625" r="53.303" xlink:href="#va3S4Rf80E378htOJZzbrc"/></defs><path fill="url(#va3S4Rf80E378htOJZzbra)" d="M205.2,248.747s65.67,25.667,84.908-33.561c4.079-12.557,3.427-23.692,2.056-34.187a93.078,93.078,0,0,0-6.887-24.465C277.967,139.419,265.01,97.75,299.59,74.9c0,0-18.962,30.894,11.456,80.628,0,0,41.874,60.15-11.061,123.482-22.068,26.4-48.465,33.207-71.747,32.166Z"/><path fill="#b25c42" d="M325.757,196.064c-5.372,15.964-16.588,31.609-39.951,29.6-23.182,45.522-80.6,23.084-80.6,23.084l23.038,62.432c23.281,1.041,49.678-5.764,71.746-32.166C325.489,248.5,328.982,218.729,325.757,196.064Z"/><path fill="#772249" d="M33.708,106.99s5.207,17.318,28.907,38.842a25.017,25.017,0,0,1,7.148,11.248,113.448,113.448,0,0,1,4.084,20.793,20.818,20.818,0,0,0,2.55,8.21,19.539,19.539,0,0,0,6.787,7.008s-23.628-.241-30.071-31.145a64.753,64.753,0,0,0-3.885-12.638c-2.256-5.193-5.754-11.577-10.687-16.218Z"/><polygon fill="url(#va3S4Rf80E378htOJZzbrd)" points="39.67 103.437 23.927 103.437 23.927 135.895 39.67 135.476 39.67 103.437"/><path fill="#772249" d="M37.062,120.786a8.157,8.157,0,0,1-8.158,8.158H23.927v10.218l16.863-3.686V103.437H37.415l-.353.181Z"/><rect width="14.779" height="7" x="23.927" y="116.354" fill="#772249"/><rect width="16.863" height="194.524" x="23.927" y="135.476" fill="url(#va3S4Rf80E378htOJZzbrg)"/><polygon fill="#b63131" points="23.927 265.314 40.79 275.67 40.79 230.804 23.927 231.276 23.927 265.314"/><path fill="url(#va3S4Rf80E378htOJZzbrf)" d="M103.387,215.186s-25.549,1.865-46.185,2.108l-1.135,23.127L111.1,244.83l4.529-19.892Z"/><path fill="url(#va3S4Rf80E378htOJZzbre)" d="M103.733,239.343l-36.444-4.375a9.836,9.836,0,0,1-8.536-8.18L57.2,217.294c-5.045.059-9.8.023-13.809-.163v26.713s57.826,15.085,93.338,11.314l.64-12.888-21.747-17.332a81.711,81.711,0,0,1-5.559,11.346A6.46,6.46,0,0,1,103.733,239.343Z"/><path fill="url(#va3S4Rf80E378htOJZzbrh)" d="M125.689,147.87s-18.843,25.271-22.3,67.316c0,0,12.288,21.43,33.891,25.616l7.451-71.8S141.611,146.805,125.689,147.87Z"/><path fill="#b25c42" d="M125.689,147.87A97.041,97.041,0,0,0,117,163.222l4.112,1.357a4.536,4.536,0,0,1,3.118,4.134c.35,9.145.368,36.462-10.043,59.613,5.667,5.3,13.448,10.607,23.093,12.476l7.451-71.8S141.611,146.805,125.689,147.87Z"/><path fill="url(#va3S4Rf80E378htOJZzbrb)" d="M114.969,286.079A216.882,216.882,0,0,0,107.808,330H148.6V300.4Z"/><path fill="url(#va3S4Rf80E378htOJZzbri)" d="M189.707,290.554h39.831S235.8,311.49,234.908,330h-45.2Z"/><path fill="url(#va3S4Rf80E378htOJZzbrc)" d="M188.952,295.53s3.855,10.392,25.4,20.227c0,0,8.152-4.192,14.383-16.1a22.125,22.125,0,0,0,1.287-17.388,216.115,216.115,0,0,0-18.247-40l-24.5,24.124Z"/><path fill="url(#va3S4Rf80E378htOJZzbrj)" d="M156.476,292.915s-6.68,14.491-26.908,22.842a53.188,53.188,0,0,1-16.679-17.3,18.159,18.159,0,0,1-1.592-14.932c3.19-9.686,9.74-27.016,18.271-36.063l26.908,24.124Z"/><path fill="url(#va3S4Rf80E378htOJZzbrk)" d="M219.078,255.762c-2.165-4.413-4.593-8.968-7.3-13.492l-24.5,24.124,1.513,26.4.912.619Z"/><path fill="url(#va3S4Rf80E378htOJZzbrl)" d="M120.063,261.9c9.164,10.06,26.683,25.124,26.683,25.124v.674l9.73-2.962V271.59l-26.908-24.124C126.022,251.226,122.825,256.422,120.063,261.9Z"/><path fill="url(#va3S4Rf80E378htOJZzbrm)" d="M211.734,185.423s22.827,17.365,33.126,36.519l18.651-26.22s-9.464-31.177-25.888-54H209.229Z"/><path fill="#b25c42" d="M246.867,156.557a143.059,143.059,0,0,0-9.244-14.838H209.229l2.5,43.7a166.065,166.065,0,0,1,16.145,14.5C227.254,172.172,240.1,160.674,246.867,156.557Z"/><path fill="url(#va3S4Rf80E378htOJZzbrn)" d="M256.923,272.671a135.128,135.128,0,0,1,.659,19.467,14.907,14.907,0,0,0,8.888,14.217,47.632,47.632,0,0,0,16.98,3.843s6.417-25.79-8.54-52.769A29.6,29.6,0,0,0,256.923,272.671Z"/><path fill="url(#va3S4Rf80E378htOJZzbro)" d="M146.746,267.993V330H193.36V263.516S175.715,277.737,146.746,267.993Z"/><path fill="url(#va3S4Rf80E378htOJZzbrp)" d="M218.562,147.87v33.837a33.841,33.841,0,0,1-5.57,18.6l-5.643,8.577a33.849,33.849,0,0,0-5.57,18.6v14.033l-33.01,32.895-33.115-33.9s-4.028-30.881,2.35-57.4Z"/><path fill="url(#va3S4Rf80E378htOJZzbrq)" d="M142.482,123.051c-9.55,1.4-29.016,3.231-48.508-1.054a69.872,69.872,0,0,0,2.9,12.308A24.469,24.469,0,0,0,114.185,148.5l25.3-3.127Z"/><path fill="url(#va3S4Rf80E378htOJZzbrr)" d="M142.481,123.05a45.265,45.265,0,0,1-10.147,18.64,11.442,11.442,0,0,1-9.918,3.629l-11.247-1.393a16.788,16.788,0,0,1-8.105-3.282,29.95,29.95,0,0,1-6.187-6.339,53.943,53.943,0,0,0,3.439,8.161,21.708,21.708,0,0,0,12.58,10.407l17.1,2.658L136.442,170c7.875-12.675,12.692-27.487,12.1-48C148.547,122,146.308,122.489,142.481,123.05Z"/><path fill="url(#va3S4Rf80E378htOJZzbrs)" d="M117.19,86.375l-1.89,14.279a7.567,7.567,0,0,1-2.068,4.274l-2.824,2.916a1.106,1.106,0,0,0,.513,1.842c5.5,1.417,22.657,4.771,38.12-3.479l28.342,49.324,26.929-29.88S185.052,92.7,186,54.372l-35.945,3.615c-6.8,6.691-17.982,16.81-29.709,23.653A6.461,6.461,0,0,0,117.19,86.375Z"/><path fill="#edc8b2" d="M177.383,155.531l-1.2-20.1a10.246,10.246,0,0,1-.369-6.164l-.775-12.942a12.011,12.011,0,0,1-.417-6.969l-1.384-23.12c-9.03,13.354-23.439,20.807-24.193,19.973a164.931,164.931,0,0,1-2.374,23.109,10.106,10.106,0,0,1-1.1,5.978c-.681,3.407-1.5,7-2.468,10.7l23.517,21.476Z"/><path fill="#b25c42" d="M196.687,109.363c-2.232,7.07-9.169,25.688-23.57,38.743l4.266,7.425,26.929-29.88A132.375,132.375,0,0,1,196.687,109.363Z"/><path fill="#c39180" d="M165.216,154.141,143.932,142.7l-.049.2.92,4.649,21.817,19.923,10.763-11.943-.656-10.967A59.411,59.411,0,0,1,165.216,154.141Z"/><path fill="url(#va3S4Rf80E378htOJZzbrt)" d="M239.141,216.348A189.236,189.236,0,0,1,257.9,192.5c11.991,28.342,13.091,52.668-3.071,70.628-2.381-9.063-7.059-22.951-15.346-34.3A10.894,10.894,0,0,1,239.141,216.348Z"/><rect width="30.935" height="42.615" x="18.183" y="206.132" fill="url(#va3S4Rf80E378htOJZzbru)" rx="10.575"/><path fill="url(#va3S4Rf80E378htOJZzbrv)" d="M32.359,10S20.865,29.456,13.233,61.128c0,0,10.694,15.263,10.694,42.309H40.79c0-27.046,10.694-42.309,10.694-42.309C43.852,29.456,32.359,10,32.359,10Z"/><path fill="#b25c42" d="M145.624,80.339a3,3,0,0,1-1.6-5.54l2.257-1.419a3,3,0,0,1,3.193,5.079l-2.257,1.419A2.984,2.984,0,0,1,145.624,80.339Z"/><path fill="#c39180" d="M175.035,116.323l-.253-4.243-.164-2.726c-8.156,6.423-20.5,6.624-26.133,5.968-.136,1.484-.307,3.129-.518,4.9a50.891,50.891,0,0,0,8.386.7C161.966,120.928,168.85,119.947,175.035,116.323Z"/><path fill="#c39180" d="M146.666,129.316c-.321,1.915-.685,3.913-1.1,5.978a50.029,50.029,0,0,0,15.4,2.378,53.617,53.617,0,0,0,15.211-2.243l-.369-6.164A46.465,46.465,0,0,1,146.666,129.316Z"/><path fill="url(#va3S4Rf80E378htOJZzbrw)" d="M196.677,131.151c-13.3,17.2-31.909,28.359-31.909,28.359h0l-20.417-18.565c-4.025,13.1-8.121,29.371-10.2,37.87,2.492,7.206,8.877,13.378,17.183,19.039,13.673,6.184,28.1.372,42.781-9.412C199.464,173.413,199.4,153.49,196.677,131.151Z"/><path fill="url(#va3S4Rf80E378htOJZzbrx)" d="M199.3,189.536a14.532,14.532,0,0,0,4.476-11.711l-3.659-51.446c-1.092,1.637-2.247,3.225-3.441,4.768-1.388,13.222-1.33,30.073-1.156,39.372a17,17,0,0,1-5.557,12.909,64.773,64.773,0,0,1-28.458,15.06,53.615,53.615,0,0,1-27.346-19.672c-.045.185-.095.388-.138.566a10.343,10.343,0,0,0,2.485,9.548,117.035,117.035,0,0,0,28.544,22.212C180.88,205.433,193.668,194.892,199.3,189.536Z"/><path fill="url(#va3S4Rf80E378htOJZzbry)" d="M23.418,93.4a98.552,98.552,0,0,1,.509,10.038H40.79c0-27.046,10.694-42.309,10.694-42.309C43.852,29.456,32.359,10,32.359,10V75.406a20.618,20.618,0,0,1-5.039,13.5C26.074,90.347,24.722,91.9,23.418,93.4Z"/><path fill="#b25c42" d="M186,54.372,163.99,56.585,156.411,63.3c.188.2,12.061,12.108,30.124,5.344A117.546,117.546,0,0,1,186,54.372Z"/><path fill="url(#va3S4Rf80E378htOJZzbrz)" d="M198.245,12.5c.17,2.918.361,6.959.414,11.034-5.618,28.424-20.048,38.789-44.068,29.495a142.75,142.75,0,0,1,22.873-18.408,28.009,28.009,0,0,0,5.625-5.136,118.794,118.794,0,0,0,12.855-17.513A1.23,1.23,0,0,1,198.245,12.5Z"/><path fill="#c39180" d="M173.234,86.234c-9.675,12.64-24.193,19.973-24.193,19.973s-.021,2.086-.278,5.705C170.207,103.391,173.234,86.234,173.234,86.234Z"/><path fill="url(#va3S4Rf80E378htOJZzbrA)" d="M198.658,23.53c-.308,1.015-.663,2.094-1.072,3.217a7.523,7.523,0,0,1-7.862,4.911,13.348,13.348,0,0,1-6.448-2.393c-.062.07-.128.147-.187.216a32.094,32.094,0,0,1-4.11,4.034c2.1,1.716,7.21,4.1,13.162,4.241a39.385,39.385,0,0,1-5.988,7.185,10.811,10.811,0,0,1-10.827,2.342,27.1,27.1,0,0,1-8.75-4.85c-1.7,1.336-3.267,2.625-4.7,3.852a33.121,33.121,0,0,0,10.509,6.325,40.907,40.907,0,0,1-17.794.415,66.124,66.124,0,0,0-4.54,4.962c2.825,3.566,8.165,6.094,8.165,6.094,17.036,5.41,37.6-6.094,39.75-28.742C197.967,35.337,198.685,25.539,198.658,23.53Z"/><path fill="#ededed" d="M162.381,162.955c-3.461,8.458-8.3,25.873.349,43.984a.912.912,0,0,0,1.734-.491,184.181,184.181,0,0,1-.34-43.033A.91.91,0,0,0,162.381,162.955Z"/><path fill="url(#va3S4Rf80E378htOJZzbrB)" d="M208.672,152.783c21.181-6.161,40.448-14.288,46.7-35.8.586-3.441,1.122-7.277,1.554-11.505,0,0-21.465,14.146-51.86,12.014C202.839,129.276,204.179,141.039,208.672,152.783Z"/><path fill="url(#va3S4Rf80E378htOJZzbrC)" d="M255.368,116.983a55.5,55.5,0,0,1-5.355,9.145,33.673,33.673,0,0,1-15.969,11.766l-16.168,5.763a5.582,5.582,0,0,1-6.374-2.005c-6.455-8.818-6.644-19.9-6.439-24.171-1.683-.118-3.387-.274-5.123-.5A526.6,526.6,0,0,0,203.133,170l10.491-14.469,28.358-12.35a20.344,20.344,0,0,0,10.408-12.692A134.485,134.485,0,0,0,255.368,116.983Z"/><path fill="#772249" d="M146.746,267.993v19.032L193.36,323.31V263.516S175.715,277.737,146.746,267.993Z"/><path fill="url(#va3S4Rf80E378htOJZzbrD)" d="M125.742,221.942l43.027,44.17,45.586-44.17v18.309a14.664,14.664,0,0,1-3.3,9.282A369.374,369.374,0,0,1,169.2,292.915s-25.022-22.674-42.412-43.612a14.7,14.7,0,0,1-3.253-11.412Z"/><path fill="url(#va3S4Rf80E378htOJZzbrE)" d="M254.826,263.13c1.506,5.732,2.1,9.541,2.1,9.541l17.987-15.242c4.554-34.974-6.375-75.221-6.375-75.221a140.025,140.025,0,0,0-10.63,10.3C260.856,203.586,268.624,239.045,254.826,263.13Z"/><path fill="#ededed" d="M168.864,269.165c-.572,4.444-1.308,13,.146,20.618a.606.606,0,0,1-1.125.406,21.559,21.559,0,0,1-.171-21.376A.611.611,0,0,1,168.864,269.165Z"/></svg>