<svg xmlns="http://www.w3.org/2000/svg" xmlns:xlink="http://www.w3.org/1999/xlink" viewBox="0 0 340 340" width="500px" height="500px"><defs><linearGradient id="E5d1_dnBAqo8awWvZrjLXa" x1="27.306" x2="151.699" y1="58.805" y2="96.025" gradientUnits="userSpaceOnUse"><stop offset="0" stop-color="#636e7e"/><stop offset="1" stop-color="#424d58"/></linearGradient><linearGradient id="E5d1_dnBAqo8awWvZrjLXd" x1="335.211" x2="224.324" y1="266.792" y2="275.859" gradientUnits="userSpaceOnUse"><stop offset="0" stop-color="#d7e2ed"/><stop offset="1" stop-color="#eaeded"/></linearGradient><linearGradient id="E5d1_dnBAqo8awWvZrjLXb" x1="95.798" x2="103.134" y1="297.541" y2="258.108" gradientUnits="userSpaceOnUse"><stop offset="0" stop-color="#edcfc9"/><stop offset="1" stop-color="#eca397"/></linearGradient><linearGradient id="E5d1_dnBAqo8awWvZrjLXe" x1="183.713" x2="178.815" y1="274.186" y2="347.646" xlink:href="#E5d1_dnBAqo8awWvZrjLXa"/><linearGradient id="E5d1_dnBAqo8awWvZrjLXf" x1="176.99" x2="183.357" y1="138.92" y2="260.864" xlink:href="#E5d1_dnBAqo8awWvZrjLXa"/><linearGradient id="E5d1_dnBAqo8awWvZrjLXg" x1="209.704" x2="212.632" y1="89.451" y2="66.025" xlink:href="#E5d1_dnBAqo8awWvZrjLXb"/><linearGradient id="E5d1_dnBAqo8awWvZrjLXh" x1="214.859" x2="180.087" y1="-9.336" y2="109.669" xlink:href="#E5d1_dnBAqo8awWvZrjLXa"/><linearGradient id="E5d1_dnBAqo8awWvZrjLXc" x1="169.592" x2="226.339" y1="248.848" y2="293.022" gradientUnits="userSpaceOnUse"><stop offset="0" stop-color="#535365"/><stop offset="1" stop-color="#39394c"/></linearGradient><linearGradient id="E5d1_dnBAqo8awWvZrjLXi" x1="149.322" x2="83.399" y1="119.368" y2="244.511" xlink:href="#E5d1_dnBAqo8awWvZrjLXc"/><linearGradient id="E5d1_dnBAqo8awWvZrjLXj" x1="89.78" x2="93.208" y1="205.899" y2="287.195" xlink:href="#E5d1_dnBAqo8awWvZrjLXa"/><linearGradient id="E5d1_dnBAqo8awWvZrjLXk" x1="290.191" x2="262.766" y1="182.67" y2="254.172" xlink:href="#E5d1_dnBAqo8awWvZrjLXa"/><linearGradient id="E5d1_dnBAqo8awWvZrjLXl" x1="209.653" x2="159.7" y1="77.188" y2="160.933" xlink:href="#E5d1_dnBAqo8awWvZrjLXa"/><linearGradient id="E5d1_dnBAqo8awWvZrjLXm" x1="309.378" x2="301.57" y1="126.006" y2="183.595" xlink:href="#E5d1_dnBAqo8awWvZrjLXb"/></defs><path fill="#2f3a49" d="M167.685,92.91s-36.833-6.98-81.361,20.516c0,0-46.628,25.793-72.99,19.131,0,0,9.646,17.733,36.437,19.382,15.031.925,26.262-4.059,31.155-8.144,47.875-39.971,85.445-29.537,85.445-29.537Z"/><path fill="url(#E5d1_dnBAqo8awWvZrjLXa)" d="M55.181,28.6s-17.051,9.207-26.994,38a25.1,25.1,0,0,0,6.646,26.623c10.581,9.723,30.807,20.564,67.211,17.237a134.057,134.057,0,0,1,14.967-.593c1.386.028,2.92.477,4.477.14,22.775-4.925,25.777-19.05,25.777-19.05a324.008,324.008,0,0,0-35.742-.478S40.452,93.3,55.181,28.6Z"/><path fill="#364150" d="M167.965,119.213l-.373-24.161s-3.557-2.74-20.328-4.088a54.823,54.823,0,0,1-25.776,19.053C134.4,110.56,153.434,112.565,167.965,119.213Z"/><path fill="url(#E5d1_dnBAqo8awWvZrjLXd)" d="M218.958,265.319s72.471-2.43,105.037-5.343a34.777,34.777,0,0,1-6.676,14.377,16.574,16.574,0,0,1-11.451,5.816c-14.17,1.162-56.489,4.507-85.534,5.5Z"/><path fill="#2c2c3f" d="M66.568,271.741h68v19.494H55.44a28.366,28.366,0,0,1-.363-9.644A11.531,11.531,0,0,1,66.568,271.741Z"/><rect width="17.827" height="42.955" x="131.183" y="259.976" fill="#2c2c3f" rx="4.982"/><path fill="#2c2c3f" d="M200.852,159.867s33.389,37.768,67.051,47.62v35.578s-36.946-11.768-59.114-34.209Z"/><path fill="url(#E5d1_dnBAqo8awWvZrjLXb)" d="M85.914,267.017a60.575,60.575,0,0,1,1.354,9.607,15.668,15.668,0,0,1-3.595,11.121l-4.12,4.922a7.335,7.335,0,0,0-.379,8.449A26.985,26.985,0,0,0,91.153,310.4a12.759,12.759,0,0,0,13.686-2.59,51.6,51.6,0,0,0,4.617-5.057,29.469,29.469,0,0,0,6.235-18.009,134.792,134.792,0,0,0-.973-19.195S101.116,252.08,85.914,267.017Z"/><path fill="url(#E5d1_dnBAqo8awWvZrjLXe)" d="M146.265,289.713S136.612,303.087,125.474,330H234.51a283.277,283.277,0,0,0-6.194-40.287Z"/><path fill="url(#E5d1_dnBAqo8awWvZrjLXf)" d="M161.358,114.579l-13.35,2.356a12.2,12.2,0,0,0-9.619,8.648c-1.158,4.044-2.639,9.593-4.135,16.221,8.7,45.188,18.145,88.359,36.611,106.983a89.481,89.481,0,0,0,21.27,2.305l31.386-9.751V210.175a56.528,56.528,0,0,0-8.448-29.729L202.8,160.591l2.725-8.538Z"/><path fill="#2f3a49" d="M228.316,289.713H146.265l-.029.042h0c-.295.413-2.782,3.955-6.537,10.627l0,.008h0A275.125,275.125,0,0,0,125.474,330h22.248a57.459,57.459,0,0,1,3.115-9.162,15.146,15.146,0,0,1,14.793-9C181.52,312.742,207.612,310.361,228.316,289.713Z"/><path fill="url(#E5d1_dnBAqo8awWvZrjLXg)" d="M233.3,75.237s-2.061,20.612-7.091,30.646L189.65,88.551l3.2-39.033Z"/><path fill="#2f3a49" d="M175.442,235.3a23.8,23.8,0,0,1-16.517-16.469,65.275,65.275,0,0,1-2.382-14.322,30.728,30.728,0,0,1,2.009-12.614C169.536,163.431,156.8,141.8,156.8,141.8l-25.981,17.573a244.652,244.652,0,0,0-3.4,37.549,23.719,23.719,0,0,0,4.293,13.808L151.3,238.6s4.82,6.571,19.557,10.181l.006.007a89.481,89.481,0,0,0,21.27,2.305l31.386-9.751C201.741,241.341,185.464,238.108,175.442,235.3Z"/><path fill="url(#E5d1_dnBAqo8awWvZrjLXh)" d="M152.908,10.723s47.985-7.312,85.507,24.563a20.661,20.661,0,0,1,7.114,12.876,105.481,105.481,0,0,1,.179,28.657,6.078,6.078,0,0,1-8.79,4.518L195.11,60s-.758,17.185.5,30.325L170.092,75.164l-.758-27.04-3.441-3.072a13,13,0,0,1-4.24-8.081l-.444-3.552a18.284,18.284,0,0,0-3.867-9.048C155.005,21.414,152.317,16.629,152.908,10.723Z"/><path fill="url(#E5d1_dnBAqo8awWvZrjLXc)" d="M171.21,243.066a156.754,156.754,0,0,0,52.311-1.725l4.8,48.372s-28.475,13.371-60.352,7.354A193.09,193.09,0,0,1,171.21,243.066Z"/><path fill="#2c2c3f" d="M146.265,289.713a80.465,80.465,0,0,0,21.7,7.35l3.245-54v0A105.422,105.422,0,0,1,151.3,238.6Z"/><path fill="url(#E5d1_dnBAqo8awWvZrjLXi)" d="M138.111,130.776c-15.727,11.881-46.827,38.356-63.455,70.652l29.619,15.928s16.486-18.722,35.767-31.576c0,0,31.53-21.794,12.745-52.291A10.1,10.1,0,0,0,138.111,130.776Z"/><path fill="url(#E5d1_dnBAqo8awWvZrjLXj)" d="M66.63,195.5s26.066.181,40.632,16.132a25.072,25.072,0,0,1,6.445,15.3c.544,8.37,1.343,23.836,1.011,38.624,0,0-10.741-8.3-28.8,1.465C85.914,267.017,64.677,238.213,66.63,195.5Z"/><path fill="url(#E5d1_dnBAqo8awWvZrjLXk)" d="M288.47,162.84s-9.434,20.808-23.784,36.366a17.743,17.743,0,0,0-4.7,11.036c-.537,9.557-.2,27.317,7.551,42.467,0,0,34.722-23.488,41.87-76.337Z"/><path fill="#d57370" d="M213.322,85.608a2.982,2.982,0,0,1-1.378-.337L208.326,83.4a3,3,0,0,1,2.761-5.327l3.619,1.877a3,3,0,0,1-1.384,5.663Z"/><path fill="#2c2c3f" d="M111.851,209.405c1.4-1.4,2.97-2.928,4.677-4.541-5.77-13.741-17.326-24.479-24.307-30.059q-1.878,2.343-3.7,4.762C95.4,185.1,107.061,196,111.851,209.405Z"/><path fill="#2c2c3f" d="M102.876,162.493q-2.118,2.275-4.216,4.655c7.946,3.879,21.187,11.987,30.977,26.276q2.325-1.857,4.764-3.668A85.7,85.7,0,0,0,102.876,162.493Z"/><path fill="#2c2c3f" d="M120.458,145.314q-2.221,1.983-4.516,4.119a73.883,73.883,0,0,1,23.529,36.735c.191-.129.38-.26.571-.388a43.435,43.435,0,0,0,4.5-3.753A78.9,78.9,0,0,0,120.458,145.314Z"/><path fill="#2c2c3f" d="M133.448,134.385c-1.56,1.234-3.215,2.574-4.94,4,4.809,2.767,16.135,10.986,25.941,30.934a37.827,37.827,0,0,0,2.987-7.257C148.7,146.159,139.164,138.1,133.448,134.385Z"/><path fill="#2c2c3f" d="M150.065,251.161l-.6,6.084a163.217,163.217,0,0,0,40.552,5.331,118.847,118.847,0,0,0,35.113-5l-.606-6.107C194.5,261.155,162.086,254.356,150.065,251.161Z"/><path fill="#2c2c3f" d="M147.721,274.944l-.6,6.05a191.217,191.217,0,0,0,39.5,4.155,159.851,159.851,0,0,0,40.741-5.054l-.6-6.067C193.646,282.979,160.866,277.766,147.721,274.944Z"/><path fill="#2f3a49" d="M169.334,48.124l.758,27.04,25.523,15.162c-1.263-13.14-.5-30.325-.5-30.325Z"/><path fill="#2f3a49" d="M202.8,160.591l2.725-8.538-38.682-51.8-5.485,14.322S172.809,138.275,202.8,160.591Z"/><path fill="url(#E5d1_dnBAqo8awWvZrjLXl)" d="M170.926,72.248c10.04,6.726,34.268,21.808,55.475,29.983a8.937,8.937,0,0,1,5.634,9.624c-1.424,9.815-8.422,30.8-26.51,40.2L162.541,99.37a12.051,12.051,0,0,1-2.43-10.528,15.079,15.079,0,0,1,3.045-5.925,24.9,24.9,0,0,1-.5-6.488A5.327,5.327,0,0,1,170.926,72.248Z"/><path fill="#2f3a49" d="M200.533,111.021a312.394,312.394,0,0,1-37.377-28.1,15.079,15.079,0,0,0-3.045,5.925,11.884,11.884,0,0,0,1.08,8.464c9.31,7.8,24.976,13.923,37.409,17.9A2.324,2.324,0,0,0,200.533,111.021Z"/><path fill="#2f3a49" d="M288.47,162.84s-2.654,5.853-7.286,13.67c2.907,6.709,9.324,15.792,23.392,21.514a129.2,129.2,0,0,0,4.829-21.652Z"/><path fill="url(#E5d1_dnBAqo8awWvZrjLXm)" d="M297.566,175.087s-13.609-4.38-13.589-18.3a8.792,8.792,0,0,1,8.793-8.771h.393V124.962a5.749,5.749,0,0,1,5.749-5.749h14.009a5.749,5.749,0,0,1,5.749,5.749V147.15h0a7.983,7.983,0,0,1,7.927,9.01C325.149,167.149,319.41,183.305,297.566,175.087Z"/><path fill="#d57370" d="M313.6,145.258a4.514,4.514,0,0,0-4.5-3.453c-4.179.078-11.375.194-15.931.162v6.052h9.48a3.565,3.565,0,0,1,3.516,4.332,8.126,8.126,0,0,1-5.741,5.7,1.164,1.164,0,0,0,.055,2.212,8.727,8.727,0,0,0,8.932-2.024C313.7,154.09,314.611,149.647,313.6,145.258Z"/><rect width="5.534" height="28.139" x="303.46" y="119.213" fill="#d57370"/><path fill="#2f3a49" d="M77.18,251.134a92.853,92.853,0,0,0,8.734,15.883c18.063-9.764,28.8-1.465,28.8-1.465.244-10.875-.124-22.106-.551-30.623C108.14,243,97.162,250.652,77.18,251.134Z"/></svg>