<svg xmlns="http://www.w3.org/2000/svg" xmlns:xlink="http://www.w3.org/1999/xlink" viewBox="0 0 340 340" width="500px" height="500px"><defs><linearGradient id="GOmRi_ow_xTjXes9Jps0ia" x1="303.151" x2="289.616" y1="145.607" y2="253.888" gradientUnits="userSpaceOnUse"><stop offset="0" stop-color="#d7e2ed"/><stop offset="1" stop-color="#eaeded"/></linearGradient><linearGradient id="GOmRi_ow_xTjXes9Jps0ig" x1="64.431" x2="76.789" y1="159.615" y2="281.431" xlink:href="#GOmRi_ow_xTjXes9Jps0ia"/><linearGradient id="GOmRi_ow_xTjXes9Jps0ib" x1="100.655" x2="24.866" y1="292.417" y2="270.727" gradientUnits="userSpaceOnUse"><stop offset="0" stop-color="#9eb7ec"/><stop offset="1" stop-color="#87a2d5"/></linearGradient><linearGradient id="GOmRi_ow_xTjXes9Jps0ih" x1="300.655" x2="252.649" y1="289.062" y2="275.323" xlink:href="#GOmRi_ow_xTjXes9Jps0ib"/><linearGradient id="GOmRi_ow_xTjXes9Jps0ic" x1="253.568" x2="253.568" y1="326.37" y2="261.975" gradientUnits="userSpaceOnUse"><stop offset="0" stop-color="#edcfc9"/><stop offset="1" stop-color="#eca397"/></linearGradient><linearGradient id="GOmRi_ow_xTjXes9Jps0ii" x1="233.829" x2="233.829" y1="168.363" y2="200.462" xlink:href="#GOmRi_ow_xTjXes9Jps0ic"/><linearGradient id="GOmRi_ow_xTjXes9Jps0id" x1="243.139" x2="244.944" y1="201.37" y2="304.617" gradientUnits="userSpaceOnUse"><stop offset="0" stop-color="#c1678e"/><stop offset="1" stop-color="#8b3d5e"/></linearGradient><linearGradient id="GOmRi_ow_xTjXes9Jps0ij" x1="111.42" x2="111.42" y1="326.37" y2="261.975" xlink:href="#GOmRi_ow_xTjXes9Jps0ic"/><linearGradient id="GOmRi_ow_xTjXes9Jps0ik" x1="131.158" x2="131.158" y1="168.363" y2="200.462" xlink:href="#GOmRi_ow_xTjXes9Jps0ic"/><linearGradient id="GOmRi_ow_xTjXes9Jps0il" x1="123.571" x2="117.795" y1="214.394" y2="295.62" xlink:href="#GOmRi_ow_xTjXes9Jps0id"/><linearGradient id="GOmRi_ow_xTjXes9Jps0im" x1="181.953" x2="179.426" y1="192.789" y2="275.819" gradientUnits="userSpaceOnUse"><stop offset="0" stop-color="#535365"/><stop offset="1" stop-color="#39394c"/></linearGradient><linearGradient id="GOmRi_ow_xTjXes9Jps0in" x1="52.028" x2="145.398" y1="38.893" y2="129.683" xlink:href="#GOmRi_ow_xTjXes9Jps0id"/><linearGradient id="GOmRi_ow_xTjXes9Jps0io" x1="181.792" x2="188.069" y1="91.861" y2="207.593" xlink:href="#GOmRi_ow_xTjXes9Jps0id"/><linearGradient id="GOmRi_ow_xTjXes9Jps0ie" x1="203.689" x2="128.435" y1="263.22" y2="289.221" gradientUnits="userSpaceOnUse"><stop offset="0" stop-color="#6b6b9d"/><stop offset="1" stop-color="#4a4a77"/></linearGradient><linearGradient id="GOmRi_ow_xTjXes9Jps0ip" x1="147.949" x2="229.196" y1="305.666" y2="337.293" xlink:href="#GOmRi_ow_xTjXes9Jps0ie"/><linearGradient id="GOmRi_ow_xTjXes9Jps0if" x1="249.369" x2="261.663" y1="20.365" y2="109.114" gradientUnits="userSpaceOnUse"><stop offset="0" stop-color="#dce9ed"/><stop offset="1" stop-color="#bac7d2"/></linearGradient><linearGradient id="GOmRi_ow_xTjXes9Jps0iq" x1="181.572" x2="181.331" y1="67.605" y2="113.248" xlink:href="#GOmRi_ow_xTjXes9Jps0ic"/><linearGradient id="GOmRi_ow_xTjXes9Jps0ir" x1="181.484" x2="181.484" y1="157.83" y2="96.452" xlink:href="#GOmRi_ow_xTjXes9Jps0id"/><linearGradient id="GOmRi_ow_xTjXes9Jps0is" x1="162.36" x2="236.864" y1="267.93" y2="298.432" xlink:href="#GOmRi_ow_xTjXes9Jps0ie"/><linearGradient id="GOmRi_ow_xTjXes9Jps0it" x1="179.132" x2="180.3" y1="22.336" y2="95.971" xlink:href="#GOmRi_ow_xTjXes9Jps0if"/></defs><path fill="url(#GOmRi_ow_xTjXes9Jps0ia)" d="M297.479,148.246s10.072,87.427-40.992,148.923l11.38,18.209s5.994-28.7,38.049-37.088C305.916,278.29,342.187,231.38,297.479,148.246Z"/><path fill="url(#GOmRi_ow_xTjXes9Jps0ig)" d="M56.746,149.58s-3.271,87.944,52.4,145.3l-9.936,19.036s-8.2-28.15-40.806-34.03C58.406,279.887,18.61,235.926,56.746,149.58Z"/><path fill="url(#GOmRi_ow_xTjXes9Jps0ib)" d="M99.212,313.917l9.936-19.036a158.66,158.66,0,0,1-19.658-24.9c-25.68,5.117-38.662-7.405-44.1-15.292,5.377,16.755,13.021,25.2,13.021,25.2C91.013,285.767,99.212,313.917,99.212,313.917Z"/><path fill="url(#GOmRi_ow_xTjXes9Jps0ih)" d="M274.519,270.153a159.022,159.022,0,0,1-18.032,27.016l11.38,18.209s5.994-28.7,38.049-37.088c0,0,5.492-7.107,9.567-20.684C309.145,265.157,296.627,274.246,274.519,270.153Z"/><path fill="url(#GOmRi_ow_xTjXes9Jps0ic)" d="M259.385,279.75l11.827,26.423a13.814,13.814,0,0,1-2.629,15.408c-5.466,5.453-13.225,7.045-27.232,6.738l-6.682-34.764Z"/><path fill="url(#GOmRi_ow_xTjXes9Jps0ii)" d="M240.144,150.417s14.408,8.1,15.695,65.028l-27.087-4.236s0-19.437-5.986-27.157l-10.947-20.181Z"/><path fill="#d57370" d="M240.144,150.417l-28.325,13.454,9.484,17.485c9.143-5.7,18.949-10.984,28.159-14.347C245.1,153.209,240.144,150.417,240.144,150.417Z"/><path fill="url(#GOmRi_ow_xTjXes9Jps0id)" d="M255.839,215.445s-13.176-7.637-27.087-4.236c0,0-1.593,55.3,8.4,86.924a33.639,33.639,0,0,0,22.23-18.383S253.568,248.1,255.839,215.445Z"/><path fill="url(#GOmRi_ow_xTjXes9Jps0ij)" d="M105.6,279.75,93.776,306.173a13.814,13.814,0,0,0,2.629,15.408c5.466,5.453,13.224,7.045,27.232,6.738l6.681-34.764Z"/><path fill="url(#GOmRi_ow_xTjXes9Jps0ik)" d="M124.844,150.417s-14.408,8.1-15.7,65.028l27.088-4.236s0-19.437,5.986-27.157l10.947-20.181Z"/><path fill="#d57370" d="M118.4,159.47c4.279,2.732,14.975,9.661,27.2,18.341l7.562-13.94-28.325-13.454S121.81,152.126,118.4,159.47Z"/><path fill="url(#GOmRi_ow_xTjXes9Jps0il)" d="M109.148,215.445s13.177-7.637,27.088-4.236c0,0,1.593,55.3-8.4,86.924A33.637,33.637,0,0,1,105.6,279.75,459.409,459.409,0,0,0,109.148,215.445Z"/><path fill="#39394c" d="M139.352,263.319a122.941,122.941,0,0,0-6.437,15.7l-5.083,16.143L142.791,313.9s89.384,8.436,102.076-3.256l-4.994-20.389a155.873,155.873,0,0,0-13.97-29.419l-45.41,12.7Z"/><path fill="url(#GOmRi_ow_xTjXes9Jps0im)" d="M218.849,218.5c19.318-23,.471-51.174.471-51.174H144.474s-18.846,28.169.471,51.174a16.085,16.085,0,0,1,3.793,10.739c-.169,6.735-1.448,19.613-1.448,19.613L181.9,279.022l36.131-26.839s-2.7-8.738-2.972-22.942A16.217,16.217,0,0,1,218.849,218.5Z"/><path fill="#2c2c3f" d="M219.32,167.328H144.474a49.912,49.912,0,0,0-3.711,7.078c10.2,7.1,22.061,15.777,32.362,24.416a17.947,17.947,0,0,0,22.471.479,316.933,316.933,0,0,1,29.277-20.125A54.859,54.859,0,0,0,219.32,167.328Z"/><path fill="#813450" d="M38.475,101.808A44.506,44.506,0,0,0,45.206,118.5a25.8,25.8,0,0,0,33.37,8.068,87.434,87.434,0,0,0,10.681-6.613,38.287,38.287,0,0,1,27.325-7.057c7.477.962,16.089,3.167,23.571,7.91L119.944,99.2s-19.659-8.207-43.359,3.692a33.285,33.285,0,0,1-26.264,1.692,30.051,30.051,0,0,1-8.647-4.7A2,2,0,0,0,38.475,101.808Z"/><path fill="url(#GOmRi_ow_xTjXes9Jps0in)" d="M20.241,11.644S18.68,31.735,34.788,53.861A30.728,30.728,0,0,0,51.115,65.249c17.535,5.061,58.662,20.723,91.306,62.4l9.3-6.788S115.283,35.93,20.241,11.644Z"/><path fill="#813450" d="M202.567,99.292l-.816,6.512c-1.621,16.638,11.366,25.187,13.775,26.081v3.691s-45.136-.469-45.136-.82,1.872-11.469,1.872-11.469Z"/><path fill="url(#GOmRi_ow_xTjXes9Jps0io)" d="M158.3,111.443c-7.774,2.817-20.829,10.791-24.169,21.977,0,0-9.327,1.2-19.146,9.379a6.416,6.416,0,0,0,1.236,10.615c12.968,6.639,39.484,20.811,60.427,35.9a13.083,13.083,0,0,0,15.08.139c12.106-8.35,36.712-24.013,59.761-30.687a7.731,7.731,0,0,0,3.569-12.692c-2.839-3.072-7.276-5.943-14.208-7.226,0,0-3.391-10.627-25.323-8.366C215.526,130.481,176.237,139.18,158.3,111.443Z"/><path fill="url(#GOmRi_ow_xTjXes9Jps0ie)" d="M216.437,244.844a176.379,176.379,0,0,1-47.9,26.2c-7.275,3.756-14.472,6.932-21.1,5.907a129.188,129.188,0,0,1-14.52,2.067s-3.1,8.309-5.083,16.143c0,0,15.8.078,37.253-5.3l19.718-6.147a153.933,153.933,0,0,0,41.1-22.878S220.9,251.368,216.437,244.844Z"/><path fill="url(#GOmRi_ow_xTjXes9Jps0ip)" d="M127.832,295.165s37.715,21.947,117.035,15.481a108.682,108.682,0,0,1,1.144,17.678H122.03S121.985,315.065,127.832,295.165Z"/><path fill="#813450" d="M237.729,134.8c-19.756,1.657-38.762,13.326-46.181,18.392a6.893,6.893,0,0,1-7.025.434c-6.769-3.46-20.94-10.856-27.74-15.54a25,25,0,0,0-6.6-3.165,2.013,2.013,0,0,0-1.7,3.608,40.5,40.5,0,0,1,4.682,3.588S167.3,153.9,182.591,161.384a12.6,12.6,0,0,0,12.707-1c6.155-4.261,16.239-10.834,24.8-14.488a131.494,131.494,0,0,1,20.749-7.048A9.918,9.918,0,0,0,237.729,134.8Z"/><path fill="#813450" d="M109.237,225.563q-.019,3.575-.1,7.069a3.465,3.465,0,0,0,.378-.033c.12-.023,12.242-2.2,25.948,5.32a3.488,3.488,0,0,0,.523.229c.1-2.7.176-5.287.229-7.706A49.39,49.39,0,0,0,109.237,225.563Z"/><path fill="#813450" d="M108.493,248.116c-.148,2.541-.311,4.988-.481,7.316,5.12-1.255,16.089-3.5,27.2-2.952.168-2.372.313-4.707.436-6.989A104,104,0,0,0,108.493,248.116Z"/><path fill="#813450" d="M132.3,278.494c.422-2.594.8-5.23,1.14-7.883-9.151-6.1-20.419-8.129-25.937-8.785-.22,2.556-.441,4.89-.651,6.982C112.376,269.5,124.3,271.715,132.3,278.494Z"/><path fill="#813450" d="M228.66,220.857c0,2.079.024,4.436.067,7.019,6-.164,17.763.539,26.622,7.432-.043-2.753-.045-5.562.005-8.409C245.679,221.339,234.774,220.684,228.66,220.857Z"/><path fill="#813450" d="M229.7,251.433c5.207-2.241,15.329-5.808,26.021-5.311q-.183-3.42-.294-7.027c-10.426-.366-20.075,2.528-26.166,4.927C229.387,246.434,229.532,248.911,229.7,251.433Z"/><path fill="#813450" d="M230.848,264.627c6.9.754,18.088,2.8,27.468,8.31-.328-2.327-.7-5.19-1.069-8.468-10.034-4.715-20.7-6.379-27.078-6.965C230.369,259.864,230.594,262.244,230.848,264.627Z"/><path fill="#813450" d="M185.757,139.18s13.672-6.573,26.339-8.232c-9.937,1.066-39,2.109-53.8-19.505a43.141,43.141,0,0,0-4.433,1.918C156.058,118.7,164.015,133.718,185.757,139.18Z"/><polygon fill="#813450" points="213.531 130.779 213.53 130.779 213.531 130.779 213.531 130.779"/><path fill="url(#GOmRi_ow_xTjXes9Jps0if)" d="M231.8,23.4a24.688,24.688,0,0,0-3.01,15.773s.744,72.464,57.015,85.71a1.33,1.33,0,0,0,1.254-2.224c-5.595-5.706-15.222-19.8-14.435-48.8,0,0,1.3-40.488-17.02-54.993A15.9,15.9,0,0,0,231.8,23.4Z"/><path fill="#39394c" d="M206.715,40.28s10.2,2.093,23.34-5.159a5.811,5.811,0,0,1,8.209,2.871q.076.194.147.4a5.9,5.9,0,0,1-3.119,7.348c-5.77,2.605-16.628,8.035-23.473,14.726Z"/><path fill="url(#GOmRi_ow_xTjXes9Jps0iq)" d="M167.133,47.36,151.617,71.97c-1.365,10.3,1.552,23.989,1.552,23.989l11.978,14.926s31.709,10.17,44.652-18.313c0,0,1.524-10.661,2.02-21.572Z"/><path fill="url(#GOmRi_ow_xTjXes9Jps0ir)" d="M153.169,95.959s7.506,8.8,27.525,8.8S209.8,92.572,209.8,92.572s-3.6,30.987-27.13,35.081C182.669,127.653,157.91,126.57,153.169,95.959Z"/><path fill="#d57370" d="M172.874,91.644a2.983,2.983,0,0,1-.84-.121,21.108,21.108,0,0,0-3.008-.608,3,3,0,0,1,.678-5.961,26.882,26.882,0,0,1,4.006.808,3,3,0,0,1-.836,5.882Z"/><path fill="#d57370" d="M188.757,91.644a3,3,0,0,1-.837-5.882,26.908,26.908,0,0,1,4.007-.808,3,3,0,0,1,.678,5.961h0a21.136,21.136,0,0,0-3.009.608A2.982,2.982,0,0,1,188.757,91.644Z"/><path fill="#39394c" d="M165.085,289.86a179.107,179.107,0,0,0,24.392-7.985l-20.965-10.829a149.178,149.178,0,0,1-21.08,5.893A158.138,158.138,0,0,0,165.085,289.86Z"/><path fill="url(#GOmRi_ow_xTjXes9Jps0is)" d="M147.29,248.854s37.241,29.128,92.583,41.4a69.481,69.481,0,0,1,4.994,20.389s-77.012-20.28-105.515-47.327A118.014,118.014,0,0,1,147.29,248.854Z"/><path fill="#d57370" d="M209.685,80.968c.5-.106.978-.226,1.465-.342.27-2.988.518-6.3.669-9.626L167.133,47.36,151.617,71.97a63.715,63.715,0,0,0,.075,14.137,65.22,65.22,0,0,0,16.479-14.351S181.892,86.84,209.685,80.968Z"/><path fill="url(#GOmRi_ow_xTjXes9Jps0it)" d="M167.615,55.866s-5.216,14.061-16.192,21.15a4.4,4.4,0,0,1-6.7-2.912c-1.5-8.918-2.329-26.588,10.846-38.838a36.98,36.98,0,0,1,41.691-5.706c11.37,5.812,22.153,18.55,17.144,46.427a4.718,4.718,0,0,1-4.717,3.85C200.492,79.762,177.773,77.308,167.615,55.866Z"/></svg>