<svg xmlns="http://www.w3.org/2000/svg" xmlns:xlink="http://www.w3.org/1999/xlink" viewBox="0 0 340 340" width="500px" height="500px"><defs><linearGradient id="VtF974aAJKr-VLy4lHYJIa" x1="297.145" x2="291.892" y1="125.907" y2="42.698" gradientUnits="userSpaceOnUse"><stop offset="0" stop-color="#7f91ac"/><stop offset="1" stop-color="#5d7189"/></linearGradient><linearGradient id="VtF974aAJKr-VLy4lHYJIe" x1="290.997" x2="285.744" y1="126.295" y2="43.086" xlink:href="#VtF974aAJKr-VLy4lHYJIa"/><linearGradient id="VtF974aAJKr-VLy4lHYJIf" x1="138.673" x2="58.102" y1="117.403" y2="132.565" gradientUnits="userSpaceOnUse"><stop offset="0" stop-color="#ed6960"/><stop offset=".291" stop-color="#e15f57"/><stop offset="1" stop-color="#c84943"/></linearGradient><linearGradient id="VtF974aAJKr-VLy4lHYJIg" x1="258.832" x2="311.53" y1="160.588" y2="156.628" gradientUnits="userSpaceOnUse"><stop offset="0" stop-color="#d7e2ed"/><stop offset="1" stop-color="#eaeded"/></linearGradient><linearGradient id="VtF974aAJKr-VLy4lHYJIb" x1="188.755" x2="283.597" y1="153.857" y2="244.239" gradientUnits="userSpaceOnUse"><stop offset="0" stop-color="#edcfc9"/><stop offset="1" stop-color="#eca397"/></linearGradient><linearGradient id="VtF974aAJKr-VLy4lHYJIh" x1="206.388" x2="147.088" y1="377.059" y2="280.135" gradientUnits="userSpaceOnUse"><stop offset="0" stop-color="#c47764"/><stop offset="1" stop-color="#b4402d"/></linearGradient><linearGradient id="VtF974aAJKr-VLy4lHYJIi" x1="131.582" x2="131.582" y1="139.873" y2="267.744" xlink:href="#VtF974aAJKr-VLy4lHYJIb"/><linearGradient id="VtF974aAJKr-VLy4lHYJIj" x1="134.324" x2="134.324" y1="153.534" y2="269.896" xlink:href="#VtF974aAJKr-VLy4lHYJIb"/><linearGradient id="VtF974aAJKr-VLy4lHYJIc" x1="109.331" x2="216.906" y1="277.464" y2="175.383" gradientUnits="userSpaceOnUse"><stop offset="0" stop-color="#535365"/><stop offset="1" stop-color="#39394c"/></linearGradient><linearGradient id="VtF974aAJKr-VLy4lHYJId" x1="248.147" x2="212.922" y1="201.604" y2="89.545" gradientUnits="userSpaceOnUse"><stop offset="0" stop-color="#b4574d"/><stop offset="1" stop-color="#984339"/></linearGradient><linearGradient id="VtF974aAJKr-VLy4lHYJIk" x1="173.663" x2="173.663" y1="26.155" y2="94.23" xlink:href="#VtF974aAJKr-VLy4lHYJIb"/><linearGradient id="VtF974aAJKr-VLy4lHYJIl" x1="177.849" x2="186.948" y1="74.165" y2="125.927" xlink:href="#VtF974aAJKr-VLy4lHYJIc"/><linearGradient id="VtF974aAJKr-VLy4lHYJIm" x1="146.727" x2="146.727" y1="26.155" y2="94.23" xlink:href="#VtF974aAJKr-VLy4lHYJIb"/><linearGradient id="VtF974aAJKr-VLy4lHYJIn" x1="37.376" x2="38.908" y1="128.334" y2="271.28" xlink:href="#VtF974aAJKr-VLy4lHYJId"/><linearGradient id="VtF974aAJKr-VLy4lHYJIo" x1="264.468" x2="281.315" y1="306.269" y2="182.723" xlink:href="#VtF974aAJKr-VLy4lHYJId"/><linearGradient id="VtF974aAJKr-VLy4lHYJIp" x1="38.118" x2="36.256" y1="111.377" y2="170.593" gradientTransform="rotate(12.12 36.954 135.853)" xlink:href="#VtF974aAJKr-VLy4lHYJIb"/><linearGradient id="VtF974aAJKr-VLy4lHYJIq" x1="236.963" x2="247.764" y1="287.564" y2="320.151" xlink:href="#VtF974aAJKr-VLy4lHYJIb"/><linearGradient id="VtF974aAJKr-VLy4lHYJIr" x1="196.837" x2="205.937" y1="70.827" y2="122.589" xlink:href="#VtF974aAJKr-VLy4lHYJIc"/></defs><path fill="url(#VtF974aAJKr-VLy4lHYJIa)" d="M283.129,99.231s2.388,20.875-11,45.107c12.9,13.494,42.346,8.832,51.618-11.716a132.046,132.046,0,0,1-4.709-33.5Z"/><path fill="url(#VtF974aAJKr-VLy4lHYJIe)" d="M254.4,57.436s27.882,5.942,27.034,33.329l37.6-5.816V60.172a16.871,16.871,0,0,0-18.382-16.788C289.294,44.381,273.285,47.8,254.4,57.436Z"/><polygon fill="url(#VtF974aAJKr-VLy4lHYJIf)" points="55.399 117.414 319.038 84.949 319.038 99.12 55.399 133.343 55.399 117.414"/><path fill="url(#VtF974aAJKr-VLy4lHYJIg)" d="M331.42,154.582a142.942,142.942,0,0,1-7.669-21.961c-9.77,6.28-28.238,15.044-51.624,11.716-6.6,11.951-17.04,24.718-33.5,36.2C238.63,180.537,296.119,194.965,331.42,154.582Z"/><path fill="url(#VtF974aAJKr-VLy4lHYJIb)" d="M220.209,214.2s4.839,24.978,35.917,35.255l32.466-11.413s-5.466-37.792-39.384-65.945h-24.16Z"/><path fill="#d57370" d="M249.209,172.1H225.048l-1.886,16.411.447.265a25.007,25.007,0,0,0,16.233,3.244l25.428-3.584A113.8,113.8,0,0,0,249.209,172.1Z"/><path fill="url(#VtF974aAJKr-VLy4lHYJIh)" d="M102.163,278.671s-11.99,17.858-15.157,47.387h162.2s-4.976-24.086-19.681-55.305Z"/><path fill="#b4402d" d="M235.285,283.745c-3.316.116-24.708,1.774-23.258,25.327a46.479,46.479,0,0,0,4.105,16.986h33.077S245.556,308.406,235.285,283.745Z"/><path fill="url(#VtF974aAJKr-VLy4lHYJIi)" d="M151.557,96.657s-2.687,22.5-18.154,36.686c0,0-41.488.151-48.212,45.175,0,0-19.588-.293-26.605,25.727L26.134,232.9s1.463,12.539,11.809,27.9a17.011,17.011,0,0,0,17.577,7.139c14.666-3.058,38.285-13.171,55.764-40.9l3.435,48.542s28.652,16.08,62.273,16.08,46.778-22.8,46.778-22.8V214.77s9.594-5.691,13.259-22.532l-25.538-68.1Z"/><path fill="url(#VtF974aAJKr-VLy4lHYJIj)" d="M146.516,114.207A55.634,55.634,0,0,1,133.4,133.343s-41.488.151-48.212,45.175c0,0-19.588-.293-26.605,25.727l-26.968,45.47A84.761,84.761,0,0,0,37.943,260.8a17.011,17.011,0,0,0,17.577,7.139c14.666-3.058,38.285-13.171,55.764-40.9l3.435,48.542s28.652,16.08,62.273,16.08,46.778-22.8,46.778-22.8V214.77s9.594-5.691,13.259-22.532l-25.538-68.1Z"/><path fill="#d57370" d="M131.582,268.906s.32.151.939.414l.882-.463Z"/><path fill="#d57370" d="M132.521,269.32l-14.847,7.789c8.135,4.012,32.1,14.552,59.318,14.552,33.622,0,46.778-22.8,46.778-22.8s-9.449,9.495-40.816,9.495C155.544,278.352,136.812,271.139,132.521,269.32Z"/><path fill="#d57370" d="M225.048,186.944l-9.721-11.2c-24.685,42.076-71.625,72.731-101.375,89l.767,10.835s2.009,1.124,5.56,2.771C181.331,252.784,225.048,186.944,225.048,186.944Z"/><path fill="#d57370" d="M213.924,183.043l9.685,5.734a25,25,0,0,0,13.415,3.46,71.031,71.031,0,0,0,1.072-21.321l-13.738-24.153-19.876-.605S191.9,169.7,213.924,183.043Z"/><path fill="#d57370" d="M112.936,205.717l.083.235a24.179,24.179,0,0,0,21.366,16.337q.615.03,1.235.03h32.487l-7.878,5.648-33.616,3.913s-9.458.815-15.329-4.841C111.284,227.039,109.794,212.963,112.936,205.717Z"/><path fill="#d57370" d="M222.694,143.837l-11.2-19.7L151.557,96.657a70.885,70.885,0,0,1-5.043,17.55c3.495,5.337,11.44,15.291,24.551,20.195l1.831-6.469s16.237,17.017,41.028,16.735A51.979,51.979,0,0,0,222.694,143.837Z"/><path fill="#d57370" d="M204.787,165.131c9.9-5.12,12.815-10.526,12.815-10.526a8.681,8.681,0,0,0,1.524-2.787,1.294,1.294,0,0,0-2.056-1.391c-4.581,3.764-15.115,11.3-27.034,12.269a1.942,1.942,0,0,0-1.2,3.344C189.726,166.889,198.323,168.474,204.787,165.131Z"/><path fill="url(#VtF974aAJKr-VLy4lHYJIc)" d="M215.105,164.181S166.608,227.4,112.392,257.1a8,8,0,0,0-4.062,6.616l-.463,8.631a4.356,4.356,0,0,0,6.327,4.277c19.792-10.747,76.168-47.253,110.854-101.494Z"/><path fill="url(#VtF974aAJKr-VLy4lHYJId)" d="M215.778,119.072s-6.382,10.443-11.3,27.086a18.583,18.583,0,0,0,3.805,17.525,118.258,118.258,0,0,0,13.646,13.255,18.62,18.62,0,0,0,16.7,3.6A130.669,130.669,0,0,0,258.5,173.37a11.273,11.273,0,0,0,4.722-16.444C255.44,145.118,240.053,126.847,215.778,119.072Z"/><path fill="#d57370" d="M160.785,113.047l4.417,26.64a19.814,19.814,0,0,0,7.208,12.262l2.79,2.077a1.383,1.383,0,0,0,2.069-1.716l-3.408-6.974a17.791,17.791,0,0,1-1.692-5.793l-3.026-26.5Z"/><path fill="url(#VtF974aAJKr-VLy4lHYJIk)" d="M213.924,90.765V48.09s-1.269-34.137-37.882-34.137c0,0-30.422-1.268-40.428,23.491a30.912,30.912,0,0,0-2.154,10.03c-.341,6.787.6,18.422,9.329,27.148l28.3,28.4S201.4,105.493,213.924,90.765Z"/><path fill="url(#VtF974aAJKr-VLy4lHYJIl)" d="M150.821,72.695a27.992,27.992,0,0,1,18.923,22.3s1.059-3.786,5.9-7.993c0,0,1.472,7.152,9.045,14.3,0,0,6.521-10.536,17.669-10.536h11.569s6.98,29.742,3.194,45.1c0,0-27.594-.275-46.1-22.361a30.178,30.178,0,0,1-2.314,6.731s-21.1-6.268-21.035-31.762Z"/><path fill="#d57370" d="M63.068,222.146c.334.647.708,1.31,1.1,1.968a1.33,1.33,0,0,0,2.434-.993,131.64,131.64,0,0,1-3.175-25.595l-2.188-.746a49.161,49.161,0,0,0-2.652,7.465L26.134,232.9s.813,6.941,5.486,16.817C45.533,240.492,56.3,227.189,60.29,221.9A1.643,1.643,0,0,1,63.068,222.146Z"/><path fill="url(#VtF974aAJKr-VLy4lHYJIm)" d="M155.517,82.733V79.371A13.181,13.181,0,0,0,150.452,68.8a12.233,12.233,0,0,0-2.464-1.444,7.113,7.113,0,0,0-9.829,5.6,18.765,18.765,0,0,0,3.131,13.888s2.809,4.555,7.652,3.844A7.945,7.945,0,0,0,155.517,82.733Z"/><path fill="url(#VtF974aAJKr-VLy4lHYJIn)" d="M53.272,145.769s8.145,25.938,10.154,51.757a22.471,22.471,0,0,1-5.22,16.259c-6.259,7.414-18.06,18.679-37.045,27.023a4.927,4.927,0,0,1-6.869-4.112c-1.5-17.639-4.336-66.175,6.987-93.306Z"/><path fill="#edded7" d="M234.282,268.755a8.328,8.328,0,0,0-13.929-.422c-5.117,7.276-17.151,18.089-43.541,18.269-34.887.238-53.112-8.839-64.08-14.354-6.35-3.193-13.732,2-12.6,8.913a18.712,18.712,0,0,0,1.975,5.678,5.749,5.749,0,0,0,7.752,2.389l2.939-1.545s6.25,19.927,34.188,27.671a6.58,6.58,0,0,0,7.987-3.928,18.581,18.581,0,0,0,.957-6.907s9.986,10.74,33.32,11.764a7.367,7.367,0,0,0,7.1-4.314,31.643,31.643,0,0,0,1.637-4.82s12.694,4.53,25.467-.245a8.6,8.6,0,0,0,5-11.21l-.994-2.518s8.95-2.446,8.95-16.039A15.926,15.926,0,0,0,234.282,268.755Z"/><path fill="#d5aaaa" d="M235.56,283.737c-2.095.035-25.033.974-23.533,25.334a35.713,35.713,0,0,0,11.429-2.167,8.6,8.6,0,0,0,5-11.21l-.994-2.518S233.328,291.569,235.56,283.737Z"/><path fill="url(#VtF974aAJKr-VLy4lHYJIo)" d="M248.447,245.332A66.6,66.6,0,0,1,295.6,232.245a3.928,3.928,0,0,1,3.5,4.152c-.805,13.205-5.91,58.568-38.214,79.893l-16.421-29.547s9.123-17.857,2.677-37A3.956,3.956,0,0,1,248.447,245.332Z"/><path fill="#d57370" d="M190.65,68.9a2.994,2.994,0,0,1-1.131-.223,15.748,15.748,0,0,0-1.644-.566,3,3,0,1,1,1.63-5.774,21.6,21.6,0,0,1,2.278.784A3,3,0,0,1,190.65,68.9Z"/><path fill="#d57370" d="M205.467,68.483a3,3,0,0,1-1.08-5.8c.078-.03.789-.3,1.862-.609a3,3,0,1,1,1.662,5.765c-.825.238-1.37.444-1.376.447A3.009,3.009,0,0,1,205.467,68.483Z"/><path fill="#d57370" d="M157.1,165.131c-9.9-5.12-12.814-10.526-12.814-10.526a8.671,8.671,0,0,1-1.525-2.787,1.294,1.294,0,0,1,2.056-1.391c4.581,3.764,15.115,11.3,27.034,12.269a1.942,1.942,0,0,1,1.2,3.344C172.164,166.889,163.567,168.474,157.1,165.131Z"/><path fill="#d57370" d="M222.555,213.19c-5.931,4.507-13.741,6.976-19.759,8.3a2.011,2.011,0,0,0,.064,3.946c7.978,1.384,19.433,1.471,27.492-6.486,13.575-13.4,5.255-34.509,5.255-34.509h-3.418C232.307,192.246,230.949,206.811,222.555,213.19Z"/><path fill="#d57370" d="M146.727,212.153h-4.639a3,3,0,0,1,0-6h4.639a3,3,0,0,1,0,6Z"/><path fill="#753127" d="M264.868,161a82.272,82.272,0,0,1-23.94,7.451,21.7,21.7,0,0,1-16.194-4.108l-7.616-5.7c-7.962-7.338-9.983-14.824-10.026-20.456-.9,2.5-1.794,5.193-2.644,8.082a18.485,18.485,0,0,0,3.834,17.4,118.2,118.2,0,0,0,13.652,13.262,18.619,18.619,0,0,0,16.688,3.6,130.654,130.654,0,0,0,19.88-7.169A11.265,11.265,0,0,0,264.868,161Z"/><path fill="#753127" d="M12.96,194.255c17.392-7.978,35.352-24.176,44.452-33.057-2.211-9.279-4.14-15.429-4.14-15.429L21.278,143.39C15.547,157.123,13.446,176.337,12.96,194.255Z"/><path fill="url(#VtF974aAJKr-VLy4lHYJIp)" d="M25.423,112.96a90.076,90.076,0,0,1,23.522-6.653,16.021,16.021,0,0,1,17.988,15.636,46.76,46.76,0,0,1-1.815,13.289,20.315,20.315,0,0,1-11.83,13.2,90.457,90.457,0,0,1-30.669,6.782,13.515,13.515,0,0,1-13.59-16.908,87.924,87.924,0,0,1,5.116-14.4A21.793,21.793,0,0,1,25.423,112.96Z"/><path fill="#753127" d="M248.437,274.324a51.611,51.611,0,0,1-3.978,12.419L260.88,316.29c20.05-13.235,29.618-35.727,34.187-54.047C275.534,276.159,254.505,275.016,248.437,274.324Z"/><path fill="url(#VtF974aAJKr-VLy4lHYJIq)" d="M259.8,294.1c-5.986-11.959-21.624-15.6-31.809-6.933q-.465.395-.928.823s-12.433,10.365-.227,28.9a20.375,20.375,0,0,0,17.012,9.167h5.965a13.967,13.967,0,0,0,13.509-9.894C264.793,311.061,264.672,303.826,259.8,294.1Z"/><path fill="#d57370" d="M110.841,206.033c-11.763,29.9-34.919,50.164-48.753,60.193,14.523-4.491,34.136-15.3,49.2-39.187,2.493-7.48,2.347-15.644,1.892-20.69A1.209,1.209,0,0,0,110.841,206.033Z"/><path fill="#d57370" d="M209.232,249.372a20.3,20.3,0,0,1-9.028,2.22,2.354,2.354,0,0,1-2.408-2.414c.162-7.035-.982-11.561-2.81-15.208-.606-1.207-2.2-.568-2.038.817.5,4.223.872,9.25-.71,14.654a3.677,3.677,0,0,1-2.725,2.531c-5.516,1.234-10.812,1.049-13.922-.037-.86-.3-1.49.977-.826,1.681,2.63,2.79,7.723,6.318,15.811,4.7a2.137,2.137,0,0,1,2.542,1.654,38.648,38.648,0,0,1,.705,10.6c-.106,1.312,1.405,1.921,2.012.809a25.248,25.248,0,0,0,2.961-11.708,2.3,2.3,0,0,1,2.247-2.209s7.125-1.023,9.022-6.506C210.362,250.1,209.913,248.985,209.232,249.372Z"/><path fill="#39394c" d="M213.924,90.765H202.355c-11.148,0-17.669,10.536-17.669,10.536-.307-.289-.588-.578-.875-.868l-.007.006s-1.011,6.985,4.341,8.964a4.878,4.878,0,0,0,3.843-.3,22.815,22.815,0,0,1,11.724-3.08c5.489,0,10.3,2.477,13.516,3.764C215.951,99.414,213.924,90.765,213.924,90.765Z"/><path fill="url(#VtF974aAJKr-VLy4lHYJIr)" d="M203.681,84.96h0c-13.883-.345-18.486,7.477-19.8,14.655a4.527,4.527,0,0,0,6.925,4.654c7.074-4.708,15.782-4.886,22.49-.534a4.513,4.513,0,0,0,6.851-4.558C218.956,92.123,215.037,84.622,203.681,84.96Z"/></svg>