<svg xmlns="http://www.w3.org/2000/svg" xmlns:xlink="http://www.w3.org/1999/xlink" viewBox="0 0 340 340" width="500px" height="500px"><defs><linearGradient id="fFFsGy-T3a-xgB1o_x4rda" x1="282.261" x2="281.344" y1="84.832" y2="146.044" gradientUnits="userSpaceOnUse"><stop offset="0" stop-color="#9eb7ec"/><stop offset="1" stop-color="#87a2d5"/></linearGradient><linearGradient id="fFFsGy-T3a-xgB1o_x4rdb" x1="299.289" x2="298.64" y1="229.132" y2="61.835" gradientUnits="userSpaceOnUse"><stop offset="0" stop-color="#d7e2ed"/><stop offset="1" stop-color="#eaeded"/></linearGradient><linearGradient id="fFFsGy-T3a-xgB1o_x4rdf" x1="299.39" x2="298.473" y1="85.089" y2="146.301" xlink:href="#fFFsGy-T3a-xgB1o_x4rda"/><linearGradient id="fFFsGy-T3a-xgB1o_x4rdg" x1="290.496" x2="289.847" y1="229.166" y2="61.869" xlink:href="#fFFsGy-T3a-xgB1o_x4rdb"/><linearGradient id="fFFsGy-T3a-xgB1o_x4rdc" x1="267.921" x2="267.519" y1="174.995" y2="235.687" gradientUnits="userSpaceOnUse"><stop offset="0" stop-color="#535365"/><stop offset="1" stop-color="#39394c"/></linearGradient><linearGradient id="fFFsGy-T3a-xgB1o_x4rdd" x1="276.733" x2="272.371" y1="224.955" y2="327.466" gradientUnits="userSpaceOnUse"><stop offset="0" stop-color="#ed6960"/><stop offset=".291" stop-color="#e15f57"/><stop offset="1" stop-color="#c84943"/></linearGradient><linearGradient id="fFFsGy-T3a-xgB1o_x4rdh" x1="291.414" x2="290.765" y1="229.162" y2="61.866" xlink:href="#fFFsGy-T3a-xgB1o_x4rdb"/><linearGradient id="fFFsGy-T3a-xgB1o_x4rdi" x1="283.284" x2="309.136" y1="197.445" y2="197.445" xlink:href="#fFFsGy-T3a-xgB1o_x4rda"/><linearGradient id="fFFsGy-T3a-xgB1o_x4rdj" x1="307.169" x2="306.768" y1="175.255" y2="235.947" xlink:href="#fFFsGy-T3a-xgB1o_x4rdc"/><linearGradient id="fFFsGy-T3a-xgB1o_x4rdk" x1="251.145" x2="275.227" y1="314.07" y2="324.296" xlink:href="#fFFsGy-T3a-xgB1o_x4rda"/><linearGradient id="fFFsGy-T3a-xgB1o_x4rde" x1="104.494" x2="98.935" y1="231.261" y2="328.243" gradientUnits="userSpaceOnUse"><stop offset="0" stop-color="#dfa8a3"/><stop offset="1" stop-color="#b76c64"/></linearGradient><linearGradient id="fFFsGy-T3a-xgB1o_x4rdl" x1="120.133" x2="123.524" y1="143.414" y2="266.868" gradientUnits="userSpaceOnUse"><stop offset="0" stop-color="#ddcac3"/><stop offset="1" stop-color="#c3a398"/></linearGradient><linearGradient id="fFFsGy-T3a-xgB1o_x4rdm" x1="200.978" x2="141.492" y1="140.363" y2="244.464" xlink:href="#fFFsGy-T3a-xgB1o_x4rdc"/><linearGradient id="fFFsGy-T3a-xgB1o_x4rdn" x1="182.316" x2="168.12" y1="182.439" y2="231.618" gradientUnits="userSpaceOnUse"><stop offset="0" stop-color="#edc378"/><stop offset=".553" stop-color="#edac53"/><stop offset="1" stop-color="#ed9c3a"/></linearGradient><linearGradient id="fFFsGy-T3a-xgB1o_x4rdo" x1="176.773" x2="172.724" y1="45.701" y2="116.436" gradientUnits="userSpaceOnUse"><stop offset="0" stop-color="#edcfc9"/><stop offset="1" stop-color="#eca397"/></linearGradient><linearGradient id="fFFsGy-T3a-xgB1o_x4rdp" x1="176.515" x2="176.515" y1="84.751" y2="147.073" xlink:href="#fFFsGy-T3a-xgB1o_x4rdd"/><linearGradient id="fFFsGy-T3a-xgB1o_x4rdq" x1="128.18" x2="125.091" y1="18.996" y2="157.984" xlink:href="#fFFsGy-T3a-xgB1o_x4rde"/><linearGradient id="fFFsGy-T3a-xgB1o_x4rdr" x1="201.832" x2="196.272" y1="236.84" y2="333.823" xlink:href="#fFFsGy-T3a-xgB1o_x4rde"/><linearGradient id="fFFsGy-T3a-xgB1o_x4rds" x1="193.56" x2="193.56" y1="84.751" y2="147.073" xlink:href="#fFFsGy-T3a-xgB1o_x4rdd"/><linearGradient id="fFFsGy-T3a-xgB1o_x4rdt" x1="60.765" x2="61.569" y1="229.944" y2="296.264" xlink:href="#fFFsGy-T3a-xgB1o_x4rdc"/></defs><path fill="url(#fFFsGy-T3a-xgB1o_x4rda)" d="M290.282,72.709H282.4a8.878,8.878,0,0,0-8.878,8.879v40.7l16.763,14.05Z"/><path fill="url(#fFFsGy-T3a-xgB1o_x4rdb)" d="M307.046,16.454H290.282V119.606c1.045,10.359,12.09,16.734,16.764,14.622Z"/><path fill="url(#fFFsGy-T3a-xgB1o_x4rdf)" d="M290.282,119.606v24.271c6.254,2.065,12.081,3.56,16.764,3.522V134.228C301.86,135.295,294.185,129.457,290.282,119.606Z"/><path fill="url(#fFFsGy-T3a-xgB1o_x4rdg)" d="M273.519,200.776V122.29s10.595-2.224,17.091,11.124S307.046,147.4,307.046,147.4v46.473Z"/><path fill="#8e7776" d="M209.4,164.867s5.389,31.656,30.86,40.285l15.629,49.44s-34.18,14.814-51.366-4Z"/><path fill="url(#fFFsGy-T3a-xgB1o_x4rdc)" d="M240.259,205.152l8.972,59.281s23.734,1.157,45.731-25.76V202.2S265.729,210.8,240.259,205.152Z"/><path fill="url(#fFFsGy-T3a-xgB1o_x4rdd)" d="M273.519,238.588a29.8,29.8,0,0,1-3.37,9.135,33.923,33.923,0,0,1-3.6,5.2c-4.711,5.724-23.188,31.06-15.908,68.564h43.339s-11.068-28.3,5.679-60.26C299.66,261.227,295.639,238.334,273.519,238.588Z"/><path fill="url(#fFFsGy-T3a-xgB1o_x4rdh)" d="M273.519,200.776l35.617-25.666v61.115a28.412,28.412,0,0,1-3.279,13.249l-6.2,11.753s-12.417-18.718-26.141-22.639Z"/><path fill="url(#fFFsGy-T3a-xgB1o_x4rdi)" d="M303.428,167.448s-20.144.064-20.144,22.193v18.87s1.071,20.934,25.852,18.775V175.11Z"/><rect width="32.872" height="53.658" x="290.61" y="167.043" fill="url(#fFFsGy-T3a-xgB1o_x4rdj)" rx="16.436"/><path fill="url(#fFFsGy-T3a-xgB1o_x4rdk)" d="M252.964,330h39.2a5.936,5.936,0,0,0,5.174-8.837,14.092,14.092,0,0,0-4.51-4.935,13.534,13.534,0,0,0-7.513-2.146h-30.29s-8.558,0-9.046,8.526A7,7,0,0,0,252.964,330Z"/><polygon fill="#39394c" points="112.774 329.726 186.403 329.726 186.403 258.549 138.12 258.549 112.774 329.726"/><path fill="url(#fFFsGy-T3a-xgB1o_x4rde)" d="M160.493,258.823s-14.249,18.438-24.541,53.8A24.135,24.135,0,0,1,112.774,330H49.036a7.337,7.337,0,0,1-7.058-9.364c4.3-14.915,15.447-44.229,40.038-62.361Z"/><path fill="url(#fFFsGy-T3a-xgB1o_x4rdl)" d="M213.4,147.539s.384,25.692,4.688,46.888c3.793,18.679,3.793,45.6,1.19,59.526a5.99,5.99,0,0,1-5.9,4.87H57.96s-27.3-.724-33.4-24.692S48.8,168.86,48.8,168.86c10.665-25.23,57.305-34.359,96.79-52.473l54,13.489Z"/><path fill="#8e7776" d="M213.4,147.539l-.564-.721-90.827,112h31.229A193.81,193.81,0,0,0,171.2,241.4l2.128.294a10.261,10.261,0,0,0,8.6-2.829,184.564,184.564,0,0,0,20.464-23.99c12.064-16.906,3.476-23.779,3.476-23.779,2.861-4.662,6.492-12.69,9.049-18.641C213.564,158.745,213.4,147.539,213.4,147.539Z"/><path fill="#8e7776" d="M145.589,116.387c-37.322,17.122-81.018,26.224-94.7,48.476A14.587,14.587,0,0,1,63.8,169.555a34.009,34.009,0,0,0,9,6.986c11.385,5.9,35.831,15.246,60.607,3.437a55.587,55.587,0,0,0,27.707-29.8,42.576,42.576,0,0,0,2.295-7.785l6.663,5.483a4.444,4.444,0,0,0,5.758-.093l5.555-4.881s2.426,6.564,12.174,13.641c4.271,3.1,11.834-2.653,18.985-10.1l-12.959-16.574Z"/><path fill="url(#fFFsGy-T3a-xgB1o_x4rdm)" d="M203.13,133.245s-27.2,72.511-97.486,125.578h37.533s54.867-43.5,74.014-108.534a20.816,20.816,0,0,0,.659-9.095c-.8-5.092-3.4-12.16-11.479-15.38Z"/><path fill="url(#fFFsGy-T3a-xgB1o_x4rdn)" d="M185.125,178.774l14.341,13.664a9.4,9.4,0,0,1,1.687,11.472c-4.02,7.009-11.326,18.375-20.958,27.593a9.422,9.422,0,0,1-11.654,1.11,128.355,128.355,0,0,1-16.983-12.955,9.388,9.388,0,0,1-1.222-12.255c5.137-7.292,13.907-19.439,21.134-27.925A9.409,9.409,0,0,1,185.125,178.774Z"/><path fill="#743846" d="M204.522,28.366s9.451,13.828,2.041,34.553l-26.326-35.47S189.763,24.329,204.522,28.366Z"/><path fill="url(#fFFsGy-T3a-xgB1o_x4rdo)" d="M174.538,25.731s21.987-1.068,29.839,22.844a45.971,45.971,0,0,1,2.186,14.344v46.239H164.311L143.32,83.053S132.555,34.881,174.538,25.731Z"/><path fill="#d57370" d="M183.187,27.005a28.941,28.941,0,0,0-8.649-1.274c-41.983,9.15-31.218,57.322-31.218,57.322l19.766,24.58a298.937,298.937,0,0,0-3.525-33.4A47.136,47.136,0,0,1,161.688,49.8,39.367,39.367,0,0,1,183.187,27.005Z"/><path fill="url(#fFFsGy-T3a-xgB1o_x4rdp)" d="M148.071,76.487s4.24,7.364,15.478,15.593a19.314,19.314,0,0,0,9.953,3.694l33.061,2.482s4.571,31.239-7.151,44.034a7.124,7.124,0,0,1-9.7.609,29.329,29.329,0,0,1-7.558-9.124l-3.208,1.979a7.466,7.466,0,0,1-7.535.2c-6.561-3.626-19.266-12.4-23.344-27.67C142.485,87.372,148.071,76.487,148.071,76.487Z"/><path fill="#ac4037" d="M148.071,76.487s-5.586,10.885,0,31.8c2.764,10.346,9.488,17.7,15.579,22.505a385.614,385.614,0,0,0-1.871-40.045C151.87,83.07,148.071,76.487,148.071,76.487Z"/><path fill="#ac4037" d="M180.539,112.285c8.43-5.611,18.73-6.006,26.894-1.219a105.655,105.655,0,0,0-.87-12.81L173.5,95.774c-.141-.01-.279-.032-.418-.046a16.505,16.505,0,0,0-2.054,8.8C171.065,109.487,176.407,115.034,180.539,112.285Z"/><path fill="url(#fFFsGy-T3a-xgB1o_x4rdq)" d="M204.522,28.366s-40.4-6.9-50.81,22.771a37.185,37.185,0,0,0-1.95,13.343c.195,7.146,1.106,21.133,2.468,34.071.209,1.993.48,3.975.788,5.954,1.67,10.719,6.786,59.528-36.346,69.88,0,0-26.255,4.4-51.19-8.464a15.919,15.919,0,0,0-17.007,1.508c-.556.431-1.116.906-1.676,1.431,0,0-6.8-23.731,35.268-50.748a60.943,60.943,0,0,0,27.684-44.218,124.089,124.089,0,0,1,8.564-33.733s-6.271-5.524-7.913-12.84c0,0,13.288-17.319,50.315-17.319C162.717,10,193.56,9.4,204.522,28.366Z"/><path fill="url(#fFFsGy-T3a-xgB1o_x4rdr)" d="M176.515,258.823v61.288A9.888,9.888,0,0,0,186.4,330H211.21a9.888,9.888,0,0,0,9.888-9.889V268.9a10.08,10.08,0,0,0-10.08-10.08Z"/><path fill="#d57370" d="M185.336,67.356a3.493,3.493,0,0,1-1.135-.19,18.635,18.635,0,0,0-3.361-.77,3.5,3.5,0,0,1,.8-6.954,25.293,25.293,0,0,1,4.827,1.1,3.5,3.5,0,0,1-1.134,6.812Z"/><path fill="#d57370" d="M197.909,67.347a3.5,3.5,0,0,1-1.476-6.674,19.162,19.162,0,0,1,3.371-1.092,3.5,3.5,0,1,1,1.6,6.815,13.135,13.135,0,0,0-2.071.649A3.5,3.5,0,0,1,197.909,67.347Z"/><path fill="#e5782e" d="M153.71,202.657c-1.235,1.722-2.375,3.328-3.374,4.746-.036.052-.066.107-.1.159L180,231.672c.063-.057.131-.11.193-.169,1.4-1.337,2.738-2.721,4.033-4.128Z"/><path fill="#e5782e" d="M158.623,195.905l31.282,24.783c1.271-1.622,2.464-3.233,3.588-4.812L162.219,191.1C161,192.709,159.793,194.321,158.623,195.905Z"/><path fill="#e5782e" d="M171.781,179.149c-.1.111-.212.213-.311.329-1.144,1.344-2.33,2.787-3.531,4.28l30.247,25.092c1.126-1.8,2.123-3.468,2.967-4.94.052-.091.095-.184.144-.276Z"/><path fill="#8e7776" d="M83.226,199.03c-4.9,9.893-10.339,25.238-6.2,39.218L87.144,241.4s-3.074-21.84-.344-41.269A1.9,1.9,0,0,0,83.226,199.03Z"/><path fill="#e5782e" d="M189.673,183.108a17.119,17.119,0,0,1-1.051,13.878c-4.883,8.785-15.656,24.469-27.157,30.75,2.551,1.86,5,3.528,7.077,4.877A9.422,9.422,0,0,0,180.2,231.5c9.632-9.218,16.938-20.584,20.958-27.593a9.4,9.4,0,0,0-1.687-11.472Z"/><path fill="url(#fFFsGy-T3a-xgB1o_x4rds)" d="M195.636,81.757h0c-17.18-.426-22.876,9.253-24.5,18.135a5.6,5.6,0,0,0,8.569,5.759c8.754-5.826,19.53-6.046,27.83-.66a5.586,5.586,0,0,0,8.478-5.641C214.538,90.62,209.688,81.339,195.636,81.757Z"/><path fill="url(#fFFsGy-T3a-xgB1o_x4rdt)" d="M16.518,240.884s24.816-11.157,62.733-7.551a15.9,15.9,0,0,1,10.94,5.97L97.866,249a36.021,36.021,0,0,1,7.778,22.357v19.228A10.934,10.934,0,0,1,94.71,301.517H85a10.934,10.934,0,0,1-10.6-8.251l-2.034-8.033A17.943,17.943,0,0,0,60.931,272.7C49.422,268.65,29.366,259.368,16.518,240.884Z"/></svg>