<svg xmlns="http://www.w3.org/2000/svg" xmlns:xlink="http://www.w3.org/1999/xlink" viewBox="0 0 340 340" width="500px" height="500px"><defs><linearGradient id="-x9LakDvlBZatDwsyvKqJe" x1="287.877" x2="294.651" y1="19.914" y2="84.691" gradientUnits="userSpaceOnUse"><stop offset="0" stop-color="#d9eced"/><stop offset=".073" stop-color="#d1e7ed"/><stop offset=".703" stop-color="#90bceb"/><stop offset="1" stop-color="#77abea"/></linearGradient><linearGradient id="-x9LakDvlBZatDwsyvKqJd" x1="290.133" x2="291.618" y1="259.08" y2="339.989" gradientUnits="userSpaceOnUse"><stop offset="0" stop-color="#ed6960"/><stop offset=".291" stop-color="#e15f57"/><stop offset="1" stop-color="#c84943"/></linearGradient><linearGradient id="-x9LakDvlBZatDwsyvKqJf" x1="134.704" x2="134.704" y1="44.284" y2="160.206" gradientUnits="userSpaceOnUse"><stop offset="0" stop-color="#ed9a78"/><stop offset=".553" stop-color="#ed8353"/><stop offset="1" stop-color="#ed733a"/></linearGradient><linearGradient id="-x9LakDvlBZatDwsyvKqJa" x1="215.702" x2="215.702" y1="302.069" y2="164.636" gradientUnits="userSpaceOnUse"><stop offset="0" stop-color="#e55f96"/><stop offset="1" stop-color="#af3566"/></linearGradient><linearGradient id="-x9LakDvlBZatDwsyvKqJb" x1="128.075" x2="128.075" y1="135.592" y2="170.09" gradientUnits="userSpaceOnUse"><stop offset="0" stop-color="#edcfc9"/><stop offset="1" stop-color="#eca397"/></linearGradient><linearGradient id="-x9LakDvlBZatDwsyvKqJg" x1="33.126" x2="33.126" y1="313.417" y2="244.676" xlink:href="#-x9LakDvlBZatDwsyvKqJa"/><linearGradient id="-x9LakDvlBZatDwsyvKqJh" x1="251.314" x2="173.851" y1="245.087" y2="188.479" xlink:href="#-x9LakDvlBZatDwsyvKqJb"/><linearGradient id="-x9LakDvlBZatDwsyvKqJi" x1="67.725" x2="24.125" y1="285.642" y2="176.472" xlink:href="#-x9LakDvlBZatDwsyvKqJb"/><linearGradient id="-x9LakDvlBZatDwsyvKqJc" x1="133.531" x2="133.531" y1="320.215" y2="223.799" gradientUnits="userSpaceOnUse"><stop offset="0" stop-color="#e7eded"/><stop offset="1" stop-color="#bad0da"/></linearGradient><linearGradient id="-x9LakDvlBZatDwsyvKqJj" x1="123.586" x2="123.586" y1="257.112" y2="149.887" xlink:href="#-x9LakDvlBZatDwsyvKqJc"/><linearGradient id="-x9LakDvlBZatDwsyvKqJk" x1="57.988" x2="164.332" y1="177.559" y2="163.294" xlink:href="#-x9LakDvlBZatDwsyvKqJa"/><linearGradient id="-x9LakDvlBZatDwsyvKqJl" x1="210.94" x2="147.717" y1="155.111" y2="164.513" xlink:href="#-x9LakDvlBZatDwsyvKqJa"/><linearGradient id="-x9LakDvlBZatDwsyvKqJm" x1="269.065" x2="309.519" y1="79.242" y2="126.748" xlink:href="#-x9LakDvlBZatDwsyvKqJd"/><linearGradient id="-x9LakDvlBZatDwsyvKqJn" x1="125.326" x2="125.326" y1="116.313" y2="38.808" xlink:href="#-x9LakDvlBZatDwsyvKqJb"/><linearGradient id="-x9LakDvlBZatDwsyvKqJo" x1="292.419" x2="292.835" y1="220.596" y2="270.113" xlink:href="#-x9LakDvlBZatDwsyvKqJb"/></defs><path fill="url(#-x9LakDvlBZatDwsyvKqJe)" d="M287.568,98.367l-24.413-42.93a4.016,4.016,0,0,1,.186-4.268l24.106-34.916A4.017,4.017,0,0,1,294,16.175l25.5,35.106a3.2,3.2,0,0,1-.013,3.777Z"/><path fill="#467ccb" d="M316.885,54.52l-18.752,6.319a5.52,5.52,0,0,0-3.708,4.482l-4.012,29.186,27.965-37.941A1.328,1.328,0,0,0,316.885,54.52Z"/><path fill="#ededed" d="M284.887,31.148,272.7,48.806a1.586,1.586,0,0,0,.9,2.435l13.98,3.682a1.586,1.586,0,0,0,1.985-1.667l-1.789-21.339A1.586,1.586,0,0,0,284.887,31.148Z"/><path fill="#d73e39" d="M110.271,70.7H83.82v79.151c26.577,12.975,53.947,18.96,82.326,16.054l37.316-26.838L171.11,75.378Z"/><path fill="#b63131" d="M314.423,61.932,289.568,92.725l18.938,16.821,10.218-25.86a20.138,20.138,0,0,0,1.449-7.606C320.126,71.686,319.457,65.623,314.423,61.932Z"/><path fill="url(#-x9LakDvlBZatDwsyvKqJd)" d="M276.5,102.431l24.052,23.789V330H285.6V141.4a17.318,17.318,0,0,0-3.923-10.974C277.323,125.107,271.532,114.969,276.5,102.431Z"/><path fill="#772249" d="M46.426,330H63.6l71.1-6.755L203.462,330h32.1l13.889-40.682S220.028,203.891,186.365,165.9H61.7S11.991,260.047,46.426,330Z"/><path fill="url(#-x9LakDvlBZatDwsyvKqJf)" d="M121.784,54.382S117.893,76.227,155.47,93s34.31,51.478,34.31,72.906c0,0,34.783,6.98,37.3-20.192,0,0,0-9.36-6.091-16.139a22.538,22.538,0,0,1-5.636-17.156c.694-7.747-2.406-18.5-18.89-28.994a28.593,28.593,0,0,1-13.254-21.863C181.707,41.966,173.8,10,138.266,10c0,0-18.944.311-27.329,13.354,0,0-16.77-7.143-34.471,8.385-10.621,9.316-11.963,27.69-11.337,40.9a28.289,28.289,0,0,1-9.291,22.549,38.9,38.9,0,0,0-13.473,31.667c1.242,29.5,30.374,35.628,30.374,35.628l21.739-8.074S69.861,95.156,121.784,54.382Z"/><path fill="url(#-x9LakDvlBZatDwsyvKqJa)" d="M167.016,180.381S244.658,238.016,235.558,330h28.257s11.5-97.375-68.488-170.8Z"/><path fill="#772249" d="M76.345,135.47a478.112,478.112,0,0,0,106.944,2.859l4.18,22.142S102.379,172.194,76.345,135.47Z"/><polygon fill="url(#-x9LakDvlBZatDwsyvKqJb)" points="113.859 137.758 113.859 162.871 142.292 162.871 142.292 147.442 113.859 137.758"/><path fill="#772249" d="M195.327,159.2l-28.311,21.184a138.243,138.243,0,0,1,11.373,9.858l3.357-.008s20,1.993,28.732-15.662C205.829,169.36,200.8,164.221,195.327,159.2Z"/><path fill="url(#-x9LakDvlBZatDwsyvKqJg)" d="M31.668,210.117S14.241,274.258,21.669,330H46.426s-8.466-40.918-1.565-78Z"/><path fill="url(#-x9LakDvlBZatDwsyvKqJh)" d="M162.864,216.6a285.414,285.414,0,0,0,39.475,31.764,27.864,27.864,0,0,0,15.228,4.561h65.759V229.041l-58.032-2.083a16.535,16.535,0,0,1-11.35-5.085c-9.321-9.724-30-31.917-38.856-46.335C158.775,177.47,159.179,195.458,162.864,216.6Z"/><path fill="#d57370" d="M175.088,175.538c-12.724,1.507-15.277,12.783-14.036,27.7a144.239,144.239,0,0,0,12.962-9.8,13.031,13.031,0,0,1,8.469-3.146h3.328A150.728,150.728,0,0,1,175.088,175.538Z"/><path fill="url(#-x9LakDvlBZatDwsyvKqJi)" d="M31.593,202.776A218.176,218.176,0,0,0,26.3,241.317,20.136,20.136,0,0,0,32.074,256.5c7.564,7.681,20.8,20.4,31.526,26.923l-2.3,11.013a12.638,12.638,0,0,0,7.263,14.145l4.138,1.828,16.318-31.066S63.286,255.18,54.814,242L63.6,210.934Z"/><path fill="url(#-x9LakDvlBZatDwsyvKqJc)" d="M93.7,266.933S71.252,293.97,63.6,330H203.462s-9.541-44.168-43.892-69.312Z"/><path fill="#d57370" d="M57.784,231.5,63.6,210.934l-32.007-8.158a197.479,197.479,0,0,0-4.067,23.918A171.963,171.963,0,0,0,57.784,231.5Z"/><path fill="#a4bdce" d="M93.7,266.933s5.166,15.553,30.5,29.963a12.611,12.611,0,0,0,14.752-1.573c6.954-6.35,17.046-18.027,20.616-34.635Z"/><path fill="url(#-x9LakDvlBZatDwsyvKqJj)" d="M76.18,212.672a66.152,66.152,0,0,0,11.844,14.136A17.967,17.967,0,0,1,93.7,240.092v26.841s10.5,10.222,29.224,18.8a13.85,13.85,0,0,0,14.028-1.485,96.026,96.026,0,0,0,22.615-23.561V236.029a18.228,18.228,0,0,1,3.553-10.928c5.006-6.669,12.608-21.7,3.893-44.72H143.8Z"/><path fill="#a4bdce" d="M167.016,180.381H143.8L76.18,212.672a66.14,66.14,0,0,0,11.845,14.136,16.7,16.7,0,0,1,2.9,3.521,167.83,167.83,0,0,0,79.862-34.219A59.916,59.916,0,0,0,167.016,180.381Z"/><path fill="url(#-x9LakDvlBZatDwsyvKqJk)" d="M76.345,135.47s28.225,23.279,80.834,22.57l4.164,25.093s-52.168,44-123.7,31.1A13.993,13.993,0,0,1,26.16,201.244a114.887,114.887,0,0,1,1.162-23.184A9.133,9.133,0,0,1,38.947,170.7l2.144.631a99,99,0,0,1,2.039-15.771A11.153,11.153,0,0,1,55.6,146.849l7.67,1.083a26.419,26.419,0,0,1,1.95-8.4A7.826,7.826,0,0,1,76.345,135.47Z"/><path fill="url(#-x9LakDvlBZatDwsyvKqJl)" d="M152.012,159.933s15.5-5.434,30.193-20.728a5.5,5.5,0,0,1,9.156,1.908,69.848,69.848,0,0,1,4.027,27.353,12.938,12.938,0,0,1-11.927,12.057l-26.31,2.124Z"/><path fill="url(#-x9LakDvlBZatDwsyvKqJm)" d="M300.549,126.22,263.265,90.7a16.643,16.643,0,0,1-4.719-16.556c1.1-3.807,3.543-7.669,9.111-10.787L305.3,103.4a12.6,12.6,0,0,1,2.96,12.211A21.206,21.206,0,0,1,300.549,126.22Z"/><path fill="#772249" d="M96.818,157.636c-10.7-5.576-22.592-12.927-29.753-20.929a7.769,7.769,0,0,0-1.846,2.828,26.419,26.419,0,0,0-1.95,8.4s12.075,8.633,31.405,14.805A2.776,2.776,0,0,0,96.818,157.636Z"/><path fill="#b63131" d="M281.673,130.423c.239.293.458.6.677.9l.008,0s7.808,7.423,12.533,16.056a9.837,9.837,0,0,0,5.658,4.831V126.22L276.5,102.431C271.532,114.969,277.323,125.107,281.673,130.423Z"/><path fill="#772249" d="M160.278,176.714l-.1-.631c-13.1,2.6-73.694,12.469-117.667-17.3a96.971,96.971,0,0,0-1.415,12.553S103.813,202.88,160.278,176.714Z"/><path fill="#edb352" d="M160.355,151.9h0A14.362,14.362,0,0,1,173.9,161.55a44.17,44.17,0,0,1,2.239,11.668,14.477,14.477,0,0,1-10.416,14.759l-.878.254a14.443,14.443,0,0,1-17.914-9.892,35.031,35.031,0,0,1-1.013-13.794A14.415,14.415,0,0,1,160.355,151.9Z"/><path fill="#d57370" d="M113.859,137.758c5.07,4.263,15.351,11.009,28.433,9.684V118.717l-28.433,4.477Z"/><path fill="url(#-x9LakDvlBZatDwsyvKqJn)" d="M121.784,54.382A87.2,87.2,0,0,0,97.892,82.5a134.748,134.748,0,0,0,.647,18.04,37.052,37.052,0,0,0,7.618,18.719,51.224,51.224,0,0,0,16.734,14.113,10.055,10.055,0,0,0,9.819-.369,50.563,50.563,0,0,0,12.627-10.919,35.924,35.924,0,0,0,7.478-16.479C127.972,88.23,120.163,71.208,121.784,54.382Z"/><path fill="#d57370" d="M118.561,101.21a3.008,3.008,0,0,1-.73-.09,27.323,27.323,0,0,0-4.23-.714,3,3,0,0,1,.515-5.978,33.563,33.563,0,0,1,5.17.871,3,3,0,0,1-.725,5.911Z"/><path fill="#d57370" d="M134.263,101.21a3,3,0,0,1-.725-5.911,33.563,33.563,0,0,1,5.17-.871,3,3,0,0,1,.516,5.978,27.313,27.313,0,0,0-4.231.714A3.008,3.008,0,0,1,134.263,101.21Z"/><polygon fill="#d57370" points="266.266 252.923 283.326 252.923 283.326 229.041 264.35 228.36 266.266 252.923"/><rect width="32.192" height="42.747" x="276.497" y="219.908" fill="url(#-x9LakDvlBZatDwsyvKqJo)" rx="11.874"/><path fill="#d57370" d="M152.81,105.608c.161-.914.292-1.835.384-2.762.351-3.535.585-7.057.723-10.557C118,75.619,121.784,54.382,121.784,54.382S112.781,87.388,152.81,105.608Z"/></svg>