<svg xmlns="http://www.w3.org/2000/svg" xmlns:xlink="http://www.w3.org/1999/xlink" viewBox="0 0 340 340" width="500px" height="500px"><defs><linearGradient id="M7TCA-_zpK-RzfRBlss1Zb" x1="109.698" x2="110.318" y1="9.862" y2="89.207" gradientUnits="userSpaceOnUse"><stop offset="0" stop-color="#dfa8a3"/><stop offset="1" stop-color="#b76c64"/></linearGradient><linearGradient id="M7TCA-_zpK-RzfRBlss1Zc" x1="108.563" x2="113.403" y1="22.595" y2="125.449" gradientUnits="userSpaceOnUse"><stop offset="0" stop-color="#a76565"/><stop offset="1" stop-color="#843939"/></linearGradient><linearGradient id="M7TCA-_zpK-RzfRBlss1Ze" x1="269.679" x2="327.896" y1="170" y2="170" gradientUnits="userSpaceOnUse"><stop offset="0" stop-color="#ed6960"/><stop offset=".291" stop-color="#e15f57"/><stop offset="1" stop-color="#c84943"/></linearGradient><linearGradient id="M7TCA-_zpK-RzfRBlss1Za" x1="294.746" x2="245.744" y1="241.504" y2="242.194" gradientUnits="userSpaceOnUse"><stop offset="0" stop-color="#edcfc9"/><stop offset="1" stop-color="#eca397"/></linearGradient><linearGradient id="M7TCA-_zpK-RzfRBlss1Zf" x1="303.873" x2="300.981" y1="214.848" y2="270.371" xlink:href="#M7TCA-_zpK-RzfRBlss1Za"/><linearGradient id="M7TCA-_zpK-RzfRBlss1Zg" x1="139.403" x2="140.023" y1="201.442" y2="366.951" xlink:href="#M7TCA-_zpK-RzfRBlss1Zb"/><linearGradient id="M7TCA-_zpK-RzfRBlss1Zh" x1="180.254" x2="182.674" y1="153.803" y2="338.337" xlink:href="#M7TCA-_zpK-RzfRBlss1Zc"/><linearGradient id="M7TCA-_zpK-RzfRBlss1Zi" x1="101.161" x2="103.581" y1="154.84" y2="339.374" xlink:href="#M7TCA-_zpK-RzfRBlss1Zc"/><linearGradient id="M7TCA-_zpK-RzfRBlss1Zj" x1="126.307" x2="126.307" y1="91.193" y2="154.896" xlink:href="#M7TCA-_zpK-RzfRBlss1Za"/><linearGradient id="M7TCA-_zpK-RzfRBlss1Zd" x1="113.225" x2="112.333" y1="95.026" y2="125.351" gradientUnits="userSpaceOnUse"><stop offset="0" stop-color="#dce9ed"/><stop offset="1" stop-color="#bac7d2"/></linearGradient><linearGradient id="M7TCA-_zpK-RzfRBlss1Zk" x1="134.279" x2="135.468" y1="134.682" y2="215.848" xlink:href="#M7TCA-_zpK-RzfRBlss1Zd"/><linearGradient id="M7TCA-_zpK-RzfRBlss1Zl" x1="221.932" x2="58.187" y1="82.823" y2="93.415" xlink:href="#M7TCA-_zpK-RzfRBlss1Zb"/><linearGradient id="M7TCA-_zpK-RzfRBlss1Zm" x1="227.536" x2="228.283" y1="217.402" y2="274.371" xlink:href="#M7TCA-_zpK-RzfRBlss1Zc"/></defs><path fill="url(#M7TCA-_zpK-RzfRBlss1Zb)" d="M95.19,77.5l1.65-29.234a83.913,83.913,0,0,0-13.166,7.022A19.13,19.13,0,0,1,55.06,44.645,43.136,43.136,0,0,1,53.7,37.888S69.535,50.847,94.1,17.78a15.74,15.74,0,0,1,15.983-6.035c18.269,3.984,53.857,17.036,56.3,58.442Z"/><path fill="url(#M7TCA-_zpK-RzfRBlss1Zc)" d="M166.389,70.187a63.8,63.8,0,0,0-3.307-17.174c-7.341.639-15.025,1.693-22.523,2.941l-.038.006c-23.351,4.212-28.465-8.376-29.528-15.43a5.528,5.528,0,0,0-4.8-4.642C94.007,34.3,92.9,24.672,93.446,18.649,69.254,50.607,53.7,37.888,53.7,37.888a43.136,43.136,0,0,0,1.364,6.757A19.13,19.13,0,0,0,83.674,55.283,83.913,83.913,0,0,1,96.84,48.261L95.19,77.5l47.015-4.826h0Z"/><path fill="url(#M7TCA-_zpK-RzfRBlss1Ze)" d="M292.687,328.614s1-145.1-3.168-219.022a39.027,39.027,0,0,1,2.949-17.258l2.8-6.689L287.5,80.4c-5.666-4.2-13.144-10.559-17.82-17.784,0,0,4.544-31.615,25.585-51.232,0,0,22.767,15.163,32.632,30.621,0,0-3.764,26.028-12.823,50.856a53.832,53.832,0,0,0-3.339,19.213c.522,36.792,2.1,161.743.276,216.538Z"/><path fill="#39394c" d="M272.116,234.562s7.312,47.822,4.875,94.052H253.25l2.228-90.285Z"/><path fill="url(#M7TCA-_zpK-RzfRBlss1Za)" d="M267.244,226.438h21.663v30.6H250.451S251.268,234.021,267.244,226.438Z"/><path fill="url(#M7TCA-_zpK-RzfRBlss1Zf)" d="M284.574,228.469v25.186A9.343,9.343,0,0,0,293.917,263H308.27a12.322,12.322,0,0,0,12.322-12.322V231.448a12.322,12.322,0,0,0-12.322-12.322H293.917A9.343,9.343,0,0,0,284.574,228.469Z"/><path fill="url(#M7TCA-_zpK-RzfRBlss1Zg)" d="M40.78,158.666S38.924,193.19,24.446,234.4s-12.213,94.217-12.213,94.217H259.806s-8.525-77.592,7.438-102.176a22.733,22.733,0,0,0-3.164-8.4c-4.9-7.773-15.6-9.881-22.569-3.9a15.647,15.647,0,0,0-4.35,6.231c-6.532,1.842-12.473-.534-18.169-4.658-12.164-5.25-27.183-16.387-34.175-39.973Z"/><path fill="#39394c" d="M95.722,114l-29.7,9.4L58.6,176.485s103.947,58.9,114.9,113.9c0,0,25.011-69.6,8.223-129.124Z"/><path fill="url(#M7TCA-_zpK-RzfRBlss1Zh)" d="M177.617,162.831s8.4,36.455-1.707,73.778a266.448,266.448,0,0,0-9.19,69.63v22.375h20.51V270.083a80.7,80.7,0,0,1,2.863-21.367c5.954-21.689,16.624-75.5-15.142-100.671Z"/><path fill="url(#M7TCA-_zpK-RzfRBlss1Zi)" d="M91.324,112.131S54.43,113.422,36.669,141.4a36.714,36.714,0,0,0-5.088,28.318C34.669,182.328,44.6,199.6,78.5,205.013c0,0,80.73,11.982,79.355,95.988v27.613h15.659V300.182s6.5-81.72-73.632-106.526c0,0-26.135-5.9-31.965-29.3A38.014,38.014,0,0,1,69.9,140.894c3.413-8.388,10.411-19.375,24.186-22.6Z"/><path fill="url(#M7TCA-_zpK-RzfRBlss1Zj)" d="M98.192,92.987s-12.3,5.892-12.3,22.8c0,0-.257,14.348,14.347,11.273v24.084h66.148s2.772-35.869-7.732-59.953Z"/><path fill="#d57370" d="M86.459,109.779c9.829-2.109,30.965-8.678,45.06-6.019,8.093,1.527,20.863,3.383,31.863,2.407-1.163-5.317-2.277-10.581-4.355-15.344L98.562,92.616C88.187,97.538,86.459,109.779,86.459,109.779Z"/><path fill="url(#M7TCA-_zpK-RzfRBlss1Zd)" d="M105.119,105.431a44.468,44.468,0,0,1,2.184,4.862,5.724,5.724,0,0,0,10.411.672,39.449,39.449,0,0,0,3.071-7.73A31.247,31.247,0,0,0,105.119,105.431Z"/><path fill="#7f91ac" d="M96.213,93.95a40.032,40.032,0,0,1,8.9,11.482,109.4,109.4,0,0,1,15.664-2.2,38.294,38.294,0,0,0,1.378-11.318l-23.6.7A19.062,19.062,0,0,0,96.213,93.95Z"/><path fill="url(#M7TCA-_zpK-RzfRBlss1Zk)" d="M100.241,127.062s-5.294,3.574-7.8,11.958a28.254,28.254,0,0,0,2.825,22.2,45.417,45.417,0,0,0,10.163,11.949,3.9,3.9,0,0,0,4.508.342,13.411,13.411,0,0,0,5.16-5.457s10.749,26,40.621,37.711a3.8,3.8,0,0,0,3.72-.549c5.511-4.3,21.489-20.262,17.737-58.49a31.192,31.192,0,0,0-2.322-9.3c-1.62-3.756-4.325-7.8-8.468-7.8h-9.263a14.969,14.969,0,0,0-12.039,5.92c-3.494,4.7-10.109,10.478-21.5,10.478C107.447,146.022,100.241,127.062,100.241,127.062Z"/><path fill="#d57370" d="M142.3,117.89a3.016,3.016,0,0,1-.571-.055l-3.557-.685a3,3,0,1,1,1.134-5.892l3.559.685a3,3,0,0,1-.565,5.947Z"/><path fill="#d57370" d="M155.906,117.5a3,3,0,0,1-1.017-5.823l2.762-1a3,3,0,1,1,2.035,5.644l-2.762,1A3,3,0,0,1,155.906,117.5Z"/><path fill="#b63131" d="M287.5,80.4c4.437,3.286,7.764,5.244,7.764,5.244a56.5,56.5,0,0,0,11.727-35.9,15.044,15.044,0,0,0-4.742-10.381L298.787,36.1c-5.951,4.429-9.932,10.13-11.049,17.678a.625.625,0,0,0,1.173.373,23.959,23.959,0,0,1,5.656-7.63,2.934,2.934,0,0,1,4.8,2C300.8,66.736,291.061,77.213,287.5,80.4Z"/><path fill="url(#M7TCA-_zpK-RzfRBlss1Zl)" d="M16.413,82.884s15.582,5.1,53.827-3.4S193.757,62.2,253.25,69.569c0,0-20.625,47.57-99.1,30.111A144.4,144.4,0,0,0,84.092,101.2C63.391,106.968,36.447,107.471,16.413,82.884Z"/><path fill="url(#M7TCA-_zpK-RzfRBlss1Zm)" d="M230.365,268.636c1.366-33.4,6.8-48.263,6.8-48.263a56.277,56.277,0,0,1-18.169-4.658c-2.825,19.649,1.655,40.228,5.732,53.637A2.884,2.884,0,0,0,230.365,268.636Z"/></svg>