<svg xmlns="http://www.w3.org/2000/svg" xmlns:xlink="http://www.w3.org/1999/xlink" viewBox="0 0 340 340" width="500px" height="500px"><defs><linearGradient id="pkwnQxg__bpT0ocAKKd5qa" x1="192.037" x2="192.701" y1="128.592" y2="259.471" gradientUnits="userSpaceOnUse"><stop offset="0" stop-color="#535365"/><stop offset="1" stop-color="#39394c"/></linearGradient><linearGradient id="pkwnQxg__bpT0ocAKKd5qe" x1="180.176" x2="180.841" y1="128.652" y2="259.531" xlink:href="#pkwnQxg__bpT0ocAKKd5qa"/><linearGradient id="pkwnQxg__bpT0ocAKKd5qb" x1="163.84" x2="165.073" y1="114.398" y2="276.391" gradientUnits="userSpaceOnUse"><stop offset="0" stop-color="#c6ac9a"/><stop offset="1" stop-color="#a78974"/></linearGradient><linearGradient id="pkwnQxg__bpT0ocAKKd5qf" x1="167.333" x2="167.997" y1="128.717" y2="259.596" xlink:href="#pkwnQxg__bpT0ocAKKd5qa"/><linearGradient id="pkwnQxg__bpT0ocAKKd5qg" x1="83.046" x2="74.742" y1="21.321" y2="79.12" xlink:href="#pkwnQxg__bpT0ocAKKd5qa"/><linearGradient id="pkwnQxg__bpT0ocAKKd5qc" x1="95.845" x2="133.935" y1="45.77" y2="45.77" gradientUnits="userSpaceOnUse"><stop offset="0" stop-color="#e55f96"/><stop offset="1" stop-color="#af3566"/></linearGradient><linearGradient id="pkwnQxg__bpT0ocAKKd5qh" x1="166.859" x2="158.554" y1="33.363" y2="91.162" xlink:href="#pkwnQxg__bpT0ocAKKd5qa"/><linearGradient id="pkwnQxg__bpT0ocAKKd5qd" x1="168.473" x2="166.196" y1="62.43" y2="118.21" gradientUnits="userSpaceOnUse"><stop offset="0" stop-color="#edcfc9"/><stop offset="1" stop-color="#eca397"/></linearGradient><linearGradient id="pkwnQxg__bpT0ocAKKd5qi" x1="137.171" x2="136.87" y1="134.254" y2="222.883" gradientUnits="userSpaceOnUse"><stop offset="0" stop-color="#ede5dc"/><stop offset="1" stop-color="#ddc1ba"/></linearGradient><linearGradient id="pkwnQxg__bpT0ocAKKd5qj" x1="148.655" x2="149.887" y1="114.514" y2="276.506" xlink:href="#pkwnQxg__bpT0ocAKKd5qb"/><linearGradient id="pkwnQxg__bpT0ocAKKd5qk" x1="128.018" x2="124.073" y1="221.584" y2="287.769" xlink:href="#pkwnQxg__bpT0ocAKKd5qc"/><linearGradient id="pkwnQxg__bpT0ocAKKd5ql" x1="87.789" x2="74.584" y1="191.171" y2="232.152" xlink:href="#pkwnQxg__bpT0ocAKKd5qd"/><linearGradient id="pkwnQxg__bpT0ocAKKd5qm" x1="26.786" x2="75.289" y1="286.366" y2="297.482" xlink:href="#pkwnQxg__bpT0ocAKKd5qa"/><linearGradient id="pkwnQxg__bpT0ocAKKd5qn" x1="85.164" x2="91.311" y1="320.339" y2="265.015" xlink:href="#pkwnQxg__bpT0ocAKKd5qd"/><linearGradient id="pkwnQxg__bpT0ocAKKd5qo" x1="117.623" x2="118.856" y1="114.75" y2="276.743" xlink:href="#pkwnQxg__bpT0ocAKKd5qb"/><linearGradient id="pkwnQxg__bpT0ocAKKd5qp" x1="61.741" x2="78.24" y1="209.11" y2="259.935" gradientUnits="userSpaceOnUse"><stop offset="0" stop-color="#6b6b9d"/><stop offset="1" stop-color="#4a4a77"/></linearGradient><linearGradient id="pkwnQxg__bpT0ocAKKd5qq" x1="105.515" x2="81.408" y1="145.929" y2="199.841" xlink:href="#pkwnQxg__bpT0ocAKKd5qc"/><linearGradient id="pkwnQxg__bpT0ocAKKd5qr" x1="118.018" x2="324.299" y1="252.223" y2="252.223" gradientUnits="userSpaceOnUse"><stop offset="0" stop-color="#d7e2ed"/><stop offset="1" stop-color="#eaeded"/></linearGradient><linearGradient id="pkwnQxg__bpT0ocAKKd5qs" x1="117.482" x2="312.302" y1="254.471" y2="254.471" gradientUnits="userSpaceOnUse"><stop offset="0" stop-color="#9eb7ec"/><stop offset="1" stop-color="#87a2d5"/></linearGradient><linearGradient id="pkwnQxg__bpT0ocAKKd5qt" x1="110.916" x2="110.916" y1="268.473" y2="313.511" gradientUnits="userSpaceOnUse"><stop offset="0" stop-color="#edc378"/><stop offset=".553" stop-color="#edac53"/><stop offset="1" stop-color="#ed9c3a"/></linearGradient></defs><path fill="url(#pkwnQxg__bpT0ocAKKd5qa)" d="M163.752,232.43s16.11-14.272,50.655-29.612a1.755,1.755,0,0,1,2.375,1.054l4.432,13.514a1.741,1.741,0,0,1-.888,2.112c-6.5,3.177-34.76,17.309-52.814,31.44Z"/><path fill="url(#pkwnQxg__bpT0ocAKKd5qe)" d="M191.105,235.455c3.008,11.935,7.744,33.992,6.595,50.768l-23.976,7.261L163.785,234.4l16.638-4.992A8.493,8.493,0,0,1,191.105,235.455Z"/><path fill="url(#pkwnQxg__bpT0ocAKKd5qb)" d="M171.066,226.488l8.025,10.521a8.485,8.485,0,0,1,1.587,6.749,31.364,31.364,0,0,1-5.491,12.528,16.783,16.783,0,0,0-2.905,12.475l3.808,24.428-26.812,4.145-.574-67.169Z"/><path fill="url(#pkwnQxg__bpT0ocAKKd5qf)" d="M164.348,105.662s14.694,6.936,27.094,26.906a6.71,6.71,0,0,1-1.2,8.5c-7.227,6.548-22.291,21.037-30,34.559l-17.9-28.863S141.607,115.7,164.348,105.662Z"/><path fill="#d57370" d="M145.479,82.218,140.5,106.244l19.062,22.862c3.29-13.122,5.291-27,25.321-30.286Z"/><path fill="url(#pkwnQxg__bpT0ocAKKd5qg)" d="M74.775,16.361c8.084-7.719,20.721-7.378,28.937.2,4.62,4.262,8.375,10.8,6.757,20.478,0,0-5.933,36.207-46.691,78.287A46.889,46.889,0,0,0,50.92,145.709a1.648,1.648,0,0,1-3.132.639c-5.756-11.917-14.944-40.011,5.15-71.93A72.911,72.911,0,0,0,63.752,43.362C64.745,34.145,67.551,23.259,74.775,16.361Z"/><path fill="url(#pkwnQxg__bpT0ocAKKd5qc)" d="M97.612,27.8a12.055,12.055,0,0,0,.058,12.574,13.718,13.718,0,0,0,5.592,4.949c5.223,2.6,19.068,9.915,27.5,18.42l3.174-16S108.142,36.027,97.612,27.8Z"/><path fill="url(#pkwnQxg__bpT0ocAKKd5qh)" d="M198.819,55.207s0-33.366-31.7-34.884c0,0-29.456-3-37.062,26.714-6.721,26.258,15.427,35.181,15.427,35.181Z"/><path fill="url(#pkwnQxg__bpT0ocAKKd5qd)" d="M198.819,55.207s.35,31.633-11.589,54.452a7.683,7.683,0,0,1-6.8,4.134h-7.344a11.711,11.711,0,0,1-6.712-2.1,43.674,43.674,0,0,1-11.888-12.242,14.963,14.963,0,0,1-2.158-6.6l-.637-7.1s-8.163,2.5-11.981-3.686a14.412,14.412,0,0,1-1.123-11.84,8.358,8.358,0,0,1,13.078-4.343,14.03,14.03,0,0,1,4.9,7.362,102.066,102.066,0,0,1,4.775-12.187,15.134,15.134,0,0,1,13.336-8.551C182.276,52.375,193.287,52.685,198.819,55.207Z"/><path fill="url(#pkwnQxg__bpT0ocAKKd5qi)" d="M160.543,137.971s9.575,43.58,19.035,65.14a17.553,17.553,0,0,1,1.255,10.252,33.388,33.388,0,0,1-9.6,18.289,11.533,11.533,0,0,1-7.932,3.087H108.747v-7.3a12.077,12.077,0,0,0-2.445-7.305c-.883-1.166-1.949-2.62-3.1-4.291,0,0-8.131-12.726-10.439-20.111l12.788-64.792s6.851-8.727,24.312-18.111C129.862,112.832,150.1,121.554,160.543,137.971Z"/><path fill="url(#pkwnQxg__bpT0ocAKKd5qj)" d="M132.747,101.551s20.776,7.713,34.8,27.555l-7,8.865s-12.9-14.854-30.681-25.139Z"/><path fill="url(#pkwnQxg__bpT0ocAKKd5qk)" d="M107.612,230.165h44.709a7.7,7.7,0,0,1,7.46,9.559,143.347,143.347,0,0,0-2.841,49.068,7.711,7.711,0,0,1-7.662,8.542H99.71a7.7,7.7,0,0,1-7.691-7.144c-.788-11.289-.844-34.16,8.521-55.4A7.734,7.734,0,0,1,107.612,230.165Z"/><path fill="url(#pkwnQxg__bpT0ocAKKd5ql)" d="M104.848,196.671s-16.86,19.2-22.112,38.068l-21.8-15.057a85.549,85.549,0,0,1,15.3-37.387Z"/><path fill="#d57370" d="M82.736,234.739c5.252-18.871,22.112-38.069,22.112-38.069L76.242,182.3a79.569,79.569,0,0,0-8.5,14.543c5.224,4.952,13.039,15.794,11.206,35.284Z"/><path fill="url(#pkwnQxg__bpT0ocAKKd5qm)" d="M23.625,280.478c12.648,2.553,41.027,7.718,61.357,7.2l-2.394,18.933s-41.26-3.224-62.638-10.229a6.189,6.189,0,0,1-4.2-6.667l.5-3.94A6.2,6.2,0,0,1,23.625,280.478Z"/><path fill="url(#pkwnQxg__bpT0ocAKKd5qn)" d="M72.461,280.124,70.553,303.74a11.23,11.23,0,0,0,4.131,9.655c4.818,3.886,13.68,8.665,27.558,7.787V298.189c0-3.918,1.32-7.147,0-10.837L97.9,280.124S82.581,275.5,72.461,280.124Z"/><path fill="url(#pkwnQxg__bpT0ocAKKd5qo)" d="M117.482,208.707l25.487-49.626c3.047-13.493-10.752-16.229-10.752-16.229s-25.7,28.581-37.262,41.773l-2.193,11.11c2.309,7.388,6.8,14.832,10.44,20.11A14.975,14.975,0,0,0,117.482,208.707Z"/><path fill="url(#pkwnQxg__bpT0ocAKKd5qp)" d="M50.2,208.707s19.256,4.126,32.866,18.91A20.922,20.922,0,0,1,88.435,239.1c1.208,9.333,4.17,28.427,9.464,41.022H72.461S50.486,248.9,50.2,208.707Z"/><path fill="url(#pkwnQxg__bpT0ocAKKd5qq)" d="M102.942,120.463a58.062,58.062,0,0,0,29.275,22.389,7.069,7.069,0,0,1,3.808,10.175l-26.913,46.805a8.787,8.787,0,0,1-8.368,4.366c-9.648-.815-29.148-4.759-40.6-22.846a8.691,8.691,0,0,1-.471-8.329c4.4-9.387,16.151-32.969,31.907-52.96A7.034,7.034,0,0,1,102.942,120.463Z"/><path fill="url(#pkwnQxg__bpT0ocAKKd5qr)" d="M312.308,207.509q6.145-6.663,11.977-14.051s.517,25.524-4.8,37.222c0,0-72.8,79.743-200.966,80.308l-.5-9.834C278.581,278.906,312.308,207.509,312.308,207.509Z"/><circle cx="111.18" cy="244.415" r="3.747" fill="#932652"/><circle cx="141.732" cy="245.012" r="3.747" fill="#932652"/><circle cx="140.114" cy="275.16" r="3.747" fill="#932652"/><circle cx="97.899" cy="134.224" r="3.747" fill="#932652"/><circle cx="71.153" cy="178.753" r="3.747" fill="#932652"/><circle cx="96.149" cy="192.584" r="3.747" fill="#932652"/><circle cx="119.189" cy="149.972" r="3.747" fill="#932652"/><circle cx="83.527" cy="156.012" r="3.747" fill="#932652"/><circle cx="106.404" cy="171.26" r="3.747" fill="#932652"/><path fill="#d57370" d="M176.531,85.822a3,3,0,0,1-.6-.06l-3.2-.649a3,3,0,1,1,1.194-5.88l3.2.649a3,3,0,0,1-.594,5.94Z"/><path fill="#d57370" d="M189.37,86.325a3,3,0,0,1-.448-5.967l2.453-.373a3,3,0,1,1,.9,5.931l-2.453.374A3.062,3.062,0,0,1,189.37,86.325Z"/><path fill="#932652" d="M127.749,167.42l3.205-5.573c-24.024-3.305-40.582-20.364-48.085-29.841q-1.808,2.662-3.513,5.315C87.623,147.457,104,163.348,127.749,167.42Z"/><path fill="#932652" d="M115.648,188.465l3.247-5.647C92.936,180.024,76.2,163.971,68.81,155.1c-1.1,2.006-2.131,3.93-3.082,5.747C74.07,170.414,90.567,184.988,115.648,188.465Z"/><path fill="#932652" d="M94.7,252.729c-.453,2-.843,3.992-1.178,5.948a187.2,187.2,0,0,0,43.121,4.844c6.176,0,12.77-.287,19.715-.947q.207-3.177.524-6.087A190.755,190.755,0,0,1,94.7,252.729Z"/><path fill="url(#pkwnQxg__bpT0ocAKKd5qs)" d="M117.482,290.546l.536,10.608c15.99,1.056,103.792,3,187.482-72.109a15.525,15.525,0,0,0,4.5-7.157,60.667,60.667,0,0,0,2.3-14.385C233.109,293.365,117.482,290.546,117.482,290.546Z"/><rect width="17.348" height="49.484" x="102.242" y="272.606" fill="url(#pkwnQxg__bpT0ocAKKd5qt)" rx="6.939"/><path fill="#e5782e" d="M109.181,329.277h3.47a6.939,6.939,0,0,0,6.939-6.939V310.994a6.938,6.938,0,0,1-6.939,6.939h-3.47a6.939,6.939,0,0,1-6.939-6.939v11.344A6.939,6.939,0,0,0,109.181,329.277Z"/><path fill="#39394c" d="M88.435,239.1a20.922,20.922,0,0,0-5.372-11.485,58.5,58.5,0,0,0-9.536-8.277c3.731,10.818,13.419,44.206-4.953,54.493,2.308,4.04,3.887,6.291,3.887,6.291H97.9C92.605,267.529,89.643,248.435,88.435,239.1Z"/></svg>