<svg xmlns="http://www.w3.org/2000/svg" xmlns:xlink="http://www.w3.org/1999/xlink" viewBox="0 0 340 340" width="500px" height="500px"><defs><linearGradient id="m-aIhCuo-ERuGYrS2Xb8xe" x1="115.142" x2="115.142" y1="36.089" y2="143.405" gradientUnits="userSpaceOnUse"><stop offset="0" stop-color="#535365"/><stop offset="1" stop-color="#39394c"/></linearGradient><linearGradient id="m-aIhCuo-ERuGYrS2Xb8xa" x1="206.773" x2="211.687" y1="162.52" y2="320.27" gradientUnits="userSpaceOnUse"><stop offset="0" stop-color="#e8eded"/><stop offset="1" stop-color="#c3d3dd"/></linearGradient><linearGradient id="m-aIhCuo-ERuGYrS2Xb8xf" x1="141.163" x2="146.077" y1="164.563" y2="322.314" xlink:href="#m-aIhCuo-ERuGYrS2Xb8xa"/><linearGradient id="m-aIhCuo-ERuGYrS2Xb8xg" x1="129.186" x2="134.101" y1="164.937" y2="322.687" xlink:href="#m-aIhCuo-ERuGYrS2Xb8xa"/><linearGradient id="m-aIhCuo-ERuGYrS2Xb8xh" x1="149.013" x2="153.927" y1="164.319" y2="322.07" xlink:href="#m-aIhCuo-ERuGYrS2Xb8xa"/><linearGradient id="m-aIhCuo-ERuGYrS2Xb8xc" x1="120.601" x2="124.641" y1="115.886" y2="159.595" gradientUnits="userSpaceOnUse"><stop offset="0" stop-color="#edcfc9"/><stop offset="1" stop-color="#eca397"/></linearGradient><linearGradient id="m-aIhCuo-ERuGYrS2Xb8xb" x1="89.69" x2="89.69" y1="151.298" y2="278.532" gradientUnits="userSpaceOnUse"><stop offset="0" stop-color="#788fd0"/><stop offset="1" stop-color="#5169ac"/></linearGradient><linearGradient id="m-aIhCuo-ERuGYrS2Xb8xi" x1="165.119" x2="165.119" y1="146.148" y2="182.74" xlink:href="#m-aIhCuo-ERuGYrS2Xb8xb"/><linearGradient id="m-aIhCuo-ERuGYrS2Xb8xd" x1="253.771" x2="253.771" y1="125.643" y2="317.489" gradientUnits="userSpaceOnUse"><stop offset="0" stop-color="#edc378"/><stop offset=".553" stop-color="#edac53"/><stop offset="1" stop-color="#ed9c3a"/></linearGradient><linearGradient id="m-aIhCuo-ERuGYrS2Xb8xj" x1="125.505" x2="124.848" y1="87.521" y2="139.461" xlink:href="#m-aIhCuo-ERuGYrS2Xb8xc"/><linearGradient id="m-aIhCuo-ERuGYrS2Xb8xk" x1="253.771" x2="253.771" y1="17.662" y2="111.092" xlink:href="#m-aIhCuo-ERuGYrS2Xb8xd"/><linearGradient id="m-aIhCuo-ERuGYrS2Xb8xl" x1="253.102" x2="254.387" y1="166.152" y2="219.043" xlink:href="#m-aIhCuo-ERuGYrS2Xb8xc"/></defs><path fill="url(#m-aIhCuo-ERuGYrS2Xb8xe)" d="M123.755,29.609S98.244,12.126,79.608,51.51a103.91,103.91,0,0,0-5.523,29.467A42.436,42.436,0,0,1,63.533,108c-8.911,10-19.108,25.442-16.088,41.429A20.039,20.039,0,0,0,78,162.47q.226-.145.454-.3l79.73-9.222s24.207,3.651,25.167-16.522c.4-8.311-3.48-15.416-8.176-20.9a29.506,29.506,0,0,1-6.9-15.165c-.975-7.085-1.714-18.141-.866-34.253C167.407,66.111,170.1,18.85,123.755,29.609Z"/><path fill="#39394c" d="M150.923,104.627s-.942,25.96,6.6,39.334H131.705v-26.02Z"/><path fill="#2a3c72" d="M198.622,245.135A676.847,676.847,0,0,0,216.038,330H150.923V215.832H183.38Z"/><path fill="#7f91ac" d="M252.231,192.289H232.369s-15.228,3.78-15.228,31.256v36.414s2.649,26.814,35.09,28.139Z"/><path fill="url(#m-aIhCuo-ERuGYrS2Xb8xa)" d="M183.38,171.44s2.32,17.706,23.99,31.448c0,0,9.282-18.642,34.883-15.724v9.646s-12.42-.528-14.006,15.592v38.736a32.69,32.69,0,0,0,2.842,13.59c2.9,6.351,8.61,13.3,19.621,12.42v19.82s-15.856,6.606-31.977-9.514-50.475-69.238-50.475-69.238S164.941,194.432,183.38,171.44Z"/><path fill="#9eb7cb" d="M193.221,190.741c-8.647-10.21-9.841-19.3-9.841-19.3-18.439,22.992-15.122,46.776-15.122,46.776s8.028,12.413,18.144,27.058C180.5,216.13,188.215,198.527,193.221,190.741Z"/><path fill="url(#m-aIhCuo-ERuGYrS2Xb8xf)" d="M157.013,266.823s19.173,9.934,26.367,35.479c5.545,19.687,9.349,27.7,9.349,27.7H99.9V266.823Z"/><path fill="url(#m-aIhCuo-ERuGYrS2Xb8xg)" d="M161.034,222.119s-4.021,15.848-4.021,44.7L139.6,281.367a10.785,10.785,0,0,1-11.907,1.281l-25.314-13.223v-45.65Z"/><path fill="#9eb7cb" d="M102.375,254.161l56.2-16.844a127.409,127.409,0,0,1,2.46-15.2l-58.659,1.656Z"/><path fill="#9eb7cb" d="M102.375,223.775v45.65l19.232,10.046a227.188,227.188,0,0,1,5.979-56.408Z"/><path fill="#9eb7cb" d="M121.721,266.823H99.9V330h28.131A237.363,237.363,0,0,1,121.721,266.823Z"/><path fill="url(#m-aIhCuo-ERuGYrS2Xb8xh)" d="M175.833,198.24s3.516,19.538-11.63,28.523a26.515,26.515,0,0,1-13.55,3.529H126S117.538,186.5,142.344,170l16.79-1.854S171.857,175.049,175.833,198.24Z"/><path fill="#9eb7cb" d="M108.5,230.292H126c6.944-34.535,19.586-55.106,19.586-55.106l-6.263-2.982C116.8,190.076,108.5,230.292,108.5,230.292Z"/><path fill="url(#m-aIhCuo-ERuGYrS2Xb8xc)" d="M108.426,106.663v17.509a11.893,11.893,0,0,1-5.177,9.849c-1.463.992-3.252,2.3-5.389,4.03l-3.227,8.633s9.366,20.349,48.1,17.862l10.015-12.662-7.153-13.833s-10.384-2.341-9.166-14.348Z"/><path fill="url(#m-aIhCuo-ERuGYrS2Xb8xb)" d="M97.86,138.051s13.679,20.793,44.868,21.34l2.862,11.764S95.945,214.163,108.53,330H34.388S23.171,193.316,97.86,138.051Z"/><path fill="url(#m-aIhCuo-ERuGYrS2Xb8xi)" d="M145.59,138.051s1.789,13.132-2.862,21.34l2.862,11.764s19.3,9.029,30.243,27.085c0,0,9.867-5.961,11.6-26.259a19.971,19.971,0,0,0-7.256-17.192C172.726,148.708,160.257,140.4,145.59,138.051Z"/><rect width="16.497" height="24.388" x="136.73" y="152.563" fill="#ededed" rx="8.248" transform="rotate(-17.085 144.976 164.753)"/><rect width="15.459" height="217.917" x="246.041" y="112.083" fill="url(#m-aIhCuo-ERuGYrS2Xb8xd)"/><path fill="#d57370" d="M139.536,134.4c-2.016-2.171-3.635-5.542-3.112-10.7l-28-17.04v17.509a11.893,11.893,0,0,1-5.177,9.849q-.567.384-1.2.836C122.02,145.28,134.2,138.924,139.536,134.4Z"/><path fill="url(#m-aIhCuo-ERuGYrS2Xb8xj)" d="M123.191,54.253s1.27,23.5,27.732,35.565v14.809a25.615,25.615,0,0,1-6.814,17.468,44.778,44.778,0,0,1-10.8,8.724,11.1,11.1,0,0,1-8.964.706c-5.466-1.875-14.626-6.192-20.545-15.251a24.877,24.877,0,0,1-3.9-13.629V84.907a30.3,30.3,0,0,1,2.081-11.118C104.673,66.965,110.6,57.4,123.191,54.253Z"/><path fill="#d57370" d="M119.264,99.417a3,3,0,0,1-.716-.087,29.207,29.207,0,0,0-4.613-.614,3,3,0,0,1,.279-5.993,35,35,0,0,1,5.76.779,3,3,0,0,1-.71,5.915Z"/><path fill="#d57370" d="M133.376,99.417a3,3,0,0,1-.71-5.915,35.014,35.014,0,0,1,5.76-.779,3,3,0,0,1,.279,5.993,29.241,29.241,0,0,0-4.614.614A2.982,2.982,0,0,1,133.376,99.417Z"/><polygon fill="#e5782e" points="246.041 131.427 261.5 139.827 261.5 112.083 246.041 112.083 246.041 131.427"/><polygon fill="#e5782e" points="293.633 54.711 261.5 54.711 261.5 22.577 246.041 22.577 246.041 54.711 213.908 54.711 213.908 70.169 246.041 70.169 246.041 102.303 261.5 102.303 261.5 70.169 293.633 70.169 293.633 54.711"/><path fill="url(#m-aIhCuo-ERuGYrS2Xb8xk)" d="M253.771,10a52.44,52.44,0,1,0,52.44,52.44A52.441,52.441,0,0,0,253.771,10Zm0,90.093A37.653,37.653,0,1,1,291.424,62.44,37.653,37.653,0,0,1,253.771,100.093Z"/><polygon fill="#e5782e" points="246.041 225.167 261.5 233.645 261.5 189.852 246.041 189.852 246.041 225.167"/><rect width="28.226" height="38.951" x="239.624" y="172.814" fill="url(#m-aIhCuo-ERuGYrS2Xb8xl)" rx="11.29"/></svg>