<svg xmlns="http://www.w3.org/2000/svg" xmlns:xlink="http://www.w3.org/1999/xlink" viewBox="0 0 340 340" width="500px" height="500px"><defs><linearGradient id="M7957-9w_J2cOANAJpdIuf" x1="7.956" x2="186.863" y1="81.917" y2="139.195" gradientUnits="userSpaceOnUse"><stop offset="0" stop-color="#d7e2ed"/><stop offset="1" stop-color="#eaeded"/></linearGradient><linearGradient id="M7957-9w_J2cOANAJpdIug" x1="228.308" x2="-20.341" y1="149.458" y2="78.299" gradientUnits="userSpaceOnUse"><stop offset="0" stop-color="#9eb7ec"/><stop offset="1" stop-color="#87a2d5"/></linearGradient><linearGradient id="M7957-9w_J2cOANAJpdIua" x1="270.946" x2="255.085" y1="341.541" y2="235.611" gradientUnits="userSpaceOnUse"><stop offset="0" stop-color="#e55f96"/><stop offset="1" stop-color="#af3566"/></linearGradient><linearGradient id="M7957-9w_J2cOANAJpdIuh" x1="54.31" x2="94.529" y1="329.684" y2="217.523" xlink:href="#M7957-9w_J2cOANAJpdIua"/><linearGradient id="M7957-9w_J2cOANAJpdIud" x1="273.823" x2="311.374" y1="160.493" y2="179.576" gradientUnits="userSpaceOnUse"><stop offset="0" stop-color="#535365"/><stop offset="1" stop-color="#39394c"/></linearGradient><linearGradient id="M7957-9w_J2cOANAJpdIue" x1="255.174" x2="247.635" y1="145.467" y2="198.243" gradientUnits="userSpaceOnUse"><stop offset="0" stop-color="#edb352"/><stop offset=".532" stop-color="#e8913d"/><stop offset="1" stop-color="#e5782e"/></linearGradient><linearGradient id="M7957-9w_J2cOANAJpdIub" x1="214.198" x2="274.409" y1="226.779" y2="226.779" gradientUnits="userSpaceOnUse"><stop offset="0" stop-color="#edcfc9"/><stop offset="1" stop-color="#eca397"/></linearGradient><linearGradient id="M7957-9w_J2cOANAJpdIui" x1="91.507" x2="130.287" y1="299.446" y2="299.446" xlink:href="#M7957-9w_J2cOANAJpdIub"/><linearGradient id="M7957-9w_J2cOANAJpdIuj" x1="172.71" x2="172.71" y1="290.845" y2="185.571" gradientUnits="userSpaceOnUse"><stop offset="0" stop-color="#ecdbcd"/><stop offset="1" stop-color="#d3bbab"/></linearGradient><linearGradient id="M7957-9w_J2cOANAJpdIuk" x1="47.085" x2="117.828" y1="215.147" y2="215.147" xlink:href="#M7957-9w_J2cOANAJpdIub"/><linearGradient id="M7957-9w_J2cOANAJpdIul" x1="191.985" x2="188.02" y1="142.529" y2="229.765" xlink:href="#M7957-9w_J2cOANAJpdIua"/><linearGradient id="M7957-9w_J2cOANAJpdIum" x1="161.007" x2="202.713" y1="153.399" y2="153.399" xlink:href="#M7957-9w_J2cOANAJpdIub"/><linearGradient id="M7957-9w_J2cOANAJpdIun" x1="179.006" x2="179.006" y1="68.689" y2="133.132" xlink:href="#M7957-9w_J2cOANAJpdIub"/><linearGradient id="M7957-9w_J2cOANAJpdIup" x1="198.066" x2="131.961" y1="317.605" y2="317.605" xlink:href="#M7957-9w_J2cOANAJpdIud"/><linearGradient id="M7957-9w_J2cOANAJpdIuq" x1="206.415" x2="206.415" y1="304.082" y2="344.838" xlink:href="#M7957-9w_J2cOANAJpdIue"/><linearGradient id="M7957-9w_J2cOANAJpdIus" x1="260.307" x2="303.215" y1="165.669" y2="165.669" xlink:href="#M7957-9w_J2cOANAJpdIub"/><linearGradient id="M7957-9w_J2cOANAJpdIut" x1="190.389" x2="190.389" y1="13.317" y2="74.992" xlink:href="#M7957-9w_J2cOANAJpdIud"/><radialGradient id="M7957-9w_J2cOANAJpdIuc" cx="61.651" cy="233.704" r="52.041" gradientUnits="userSpaceOnUse"><stop offset="0" stop-color="#ededed"/><stop offset="1" stop-color="#c2d0ed"/></radialGradient><radialGradient id="M7957-9w_J2cOANAJpdIuo" cx="129.965" cy="151.255" r="53.663" xlink:href="#M7957-9w_J2cOANAJpdIuc"/><radialGradient id="M7957-9w_J2cOANAJpdIur" cx="313.026" cy="248.745" r="64.154" xlink:href="#M7957-9w_J2cOANAJpdIuc"/></defs><path fill="url(#M7957-9w_J2cOANAJpdIuf)" d="M231.012,134.589,34.995,79.394s-9.109.695-21.867,7.149a50.055,50.055,0,0,0,10.916,19.265l189.3,49.51C222.18,149.037,225.457,144.888,231.012,134.589Z"/><path fill="url(#M7957-9w_J2cOANAJpdIug)" d="M231.012,134.589l-10.226,12L44.387,96.726a14.629,14.629,0,0,0-13.725,3.168l-6.618,5.914L209.62,159.691h0l42.413,12.314,3.858-30.41Z"/><path fill="#772249" d="M57.712,328.652H267.9s-2.5-58.5-20-101.873L126.182,186.6,62.465,301.666Z"/><path fill="url(#M7957-9w_J2cOANAJpdIua)" d="M238.588,230.821s16.773,38.359,19.433,88.419a9.91,9.91,0,0,0,9.881,9.412h16.154s-3.413-49.566-19.5-85.976Z"/><path fill="url(#M7957-9w_J2cOANAJpdIuh)" d="M126.152,200.257s1.8,38.467-22.2,63.305C83.392,284.852,73.4,302.87,69.547,320.1a11.064,11.064,0,0,1-10.837,8.557H23.8s1.629-25.99,28.071-49.386a114.417,114.417,0,0,0,28.57-38.92l7.429-16.581Z"/><path fill="url(#M7957-9w_J2cOANAJpdIud)" d="M271.727,173.707l40.892,15.053a10.594,10.594,0,0,0,14.253-9.942h0a9.2,9.2,0,0,0-6.194-8.7l-44.94-15.533Z"/><path fill="url(#M7957-9w_J2cOANAJpdIue)" d="M255.334,124,242.8,152.813l1.813,32.534a9.3,9.3,0,0,0,8.356,8.734l5.691.571,11.46-74.581L267,118.951A9.3,9.3,0,0,0,255.334,124Z"/><path fill="url(#M7957-9w_J2cOANAJpdIub)" d="M231.132,192.91c10.084,13.592,43.277,31.611,43.277,31.611v36.127S230,237.316,214.2,219.629Z"/><path fill="#d57370" d="M240.624,202.348a57.747,57.747,0,0,1-9.492-9.438L214.2,219.629a100.194,100.194,0,0,0,14.136,12.43C233.468,224.538,237.9,214.836,240.624,202.348Z"/><path fill="url(#M7957-9w_J2cOANAJpdIui)" d="M115.723,270.24l6.469,6.324a26.9,26.9,0,0,1,8.093,19.57l-.4,32.518H123.3a21.541,21.541,0,0,1-21.542-21.542h0A20.866,20.866,0,0,0,96.793,293.6l-5.286-6.226S95.628,271.519,115.723,270.24Z"/><path fill="url(#M7957-9w_J2cOANAJpdIuj)" d="M122.656,220.842c1.744,6.732,4.04,14.831,6.914,23.462a38.833,38.833,0,0,1,1.962,13.588l-1.576,48.666H219.2V275.047a165.708,165.708,0,0,1,2.3-27.353c.435-2.595.875-5.489,1.266-8.545L137.848,182.4Z"/><path fill="#c6ac9a" d="M222.761,239.149c1.064-8.3,1.766-17.8.994-25.783L137.848,182.4l-19.427,20.034s1.375,7.365,4.235,18.4a140.962,140.962,0,0,0,58.395,34.293,32.6,32.6,0,0,0,23.7-2.2A61.492,61.492,0,0,0,222.761,239.149Z"/><path fill="url(#M7957-9w_J2cOANAJpdIuk)" d="M117.828,207.758l-32.5,29.286-38.248-7.589,40.78-36.205C100.791,195.29,110.878,200.031,117.828,207.758Z"/><path fill="#d57370" d="M87.865,193.25c7.562,2.478,19.845,7.226,29.963,14.508l16.681-15.034-25.195-18.516Z"/><path fill="url(#M7957-9w_J2cOANAJpdIuc)" d="M40.292,227.009c6.589-.926,28.113-2.951,45.523,6.812a18.1,18.1,0,0,1,7.168,7.679,80.785,80.785,0,0,0,9.064,13.549c-14.563,15.772-30.961,13.009-48.412-.374a124.51,124.51,0,0,1-14.579-25.489A1.578,1.578,0,0,1,40.292,227.009Z"/><path fill="url(#M7957-9w_J2cOANAJpdIul)" d="M202.713,155.773s7.089-.485,11.467,2.935a15.348,15.348,0,0,1,4.846,6.484,15.424,15.424,0,0,0,5.966,7.347,20.341,20.341,0,0,1,7.439,8.308l.59,22.025c-1.854,6.118-9.815,27.946-31.885,40.1a14.273,14.273,0,0,1-12.649.566c-10.074-4.451-28.751-14.348-43.305-34.488L162.9,147.867Z"/><path fill="#772249" d="M162.9,147.868,133.47,187.857a101.181,101.181,0,0,0,11.721,21.187c24.723-15.813,23.617-52.516,23.617-52.516l0-7.486Z"/><path fill="url(#M7957-9w_J2cOANAJpdIum)" d="M161.007,136.94v5.644a28.025,28.025,0,0,0,5.371,16.621,37.126,37.126,0,0,0,15.045,12.137,13.779,13.779,0,0,0,14.064-1.687,18.824,18.824,0,0,0,7.226-13.882s-10.982-5.473-7.8-21.511Z"/><path fill="#d57370" d="M161.007,105.816V136.94c4.957,3.565,18.581,12.093,35.469,12.192-1.762-3.38-2.883-8.212-1.561-14.87Z"/><path fill="url(#M7957-9w_J2cOANAJpdIun)" d="M142.111,88.923S138.288,107.088,149.92,110c0,0,5.635,1.818,11.087-4.18a44.237,44.237,0,0,0,.438,8.32,16.526,16.526,0,0,0,6.865,11.036,91.973,91.973,0,0,0,31.47,13.808,7.232,7.232,0,0,0,7.04-2.219,30.158,30.158,0,0,0,2.058-2.554,30.686,30.686,0,0,0,5.56-15.431c.57-6.843,1.661-21.127,2.063-34.612.2-6.708-30.411-37.237-30.411-37.237l-44.58,31.08Z"/><path fill="url(#M7957-9w_J2cOANAJpdIuo)" d="M101.293,157.863c8.345-11.02,23.1-22.8,47.255-19.9a20.42,20.42,0,0,1,6.8,2.035c4.061,6.729,6.984,13.784,2.367,23L137.58,186.6l-39.1-13.622Z"/><rect width="64.38" height="22.094" x="129.956" y="306.558" fill="url(#M7957-9w_J2cOANAJpdIup)"/><rect width="25.573" height="22.094" x="193.629" y="306.558" fill="url(#M7957-9w_J2cOANAJpdIuq)"/><path fill="url(#M7957-9w_J2cOANAJpdIur)" d="M272.174,173.289s-5.55,42.8-5.563,78.413a27.8,27.8,0,0,0,6.855,18.449c4.4,4.971,11.389,10.752,22.215,15.138a1.574,1.574,0,0,0,2.133-1.218c1.435-8.813,6.792-47.208,1.179-100.038Z"/><path fill="#9eb7ec" d="M298.993,184.033l-26.819-10.744s-1.1,8.488-2.322,21.045a106,106,0,0,0,31.267,18.481C300.746,203.826,300.073,194.2,298.993,184.033Z"/><path fill="url(#M7957-9w_J2cOANAJpdIus)" d="M274.725,143.715a64.538,64.538,0,0,1,23.862,10.278,10.531,10.531,0,0,1,4.606,9.326l-1.033,15.575a9.928,9.928,0,0,1-11.6,8.844,61.624,61.624,0,0,1-26.123-10.174,9.366,9.366,0,0,1-3.985-7.1,83.432,83.432,0,0,1,.857-17.893A11.2,11.2,0,0,1,274.725,143.715Z"/><path fill="#772249" d="M157.186,174.828s12.175,15.078,30.152,24.225a18.656,18.656,0,0,0,23.175-5.073,84.539,84.539,0,0,0,5.844-9.721,1.36,1.36,0,0,0-2.165-1.6c-4.653,4.694-11,10.3-15.407,11.025-7.746,1.28-31.229-18.754-34.588-29.972Z"/><path fill="#772249" d="M205.334,217.437c-4.279,2.371-10.3,1.736-16.18.538a1.08,1.08,0,0,0-.872,1.918c1.061.811,2.081,1.555,3.04,2.229a15.732,15.732,0,0,0,15.491,1.527,69.771,69.771,0,0,0,26.207-20.777c.314-1.037.457-1.633.457-1.633,2.229-9.184,1.206-15.746-1.046-20.392C223.879,207.928,205.334,217.437,205.334,217.437Z"/><path fill="#d57370" d="M192.829,97.956a3,3,0,0,1-.785-.105c-1.091-.3-2.258-.576-3.236-.8A3,3,0,1,1,190.16,91.2c1.042.241,2.287.542,3.45.856a3,3,0,0,1-.781,5.9Z"/><path fill="#d57370" d="M207.245,97.956a3,3,0,0,1-.934-5.852s1.405-.46,3.2-.982a3,3,0,0,1,1.678,5.761c-1.673.487-2.988.917-3.007.923A2.983,2.983,0,0,1,207.245,97.956Z"/><path fill="#9eb7ec" d="M155.351,140c3.528,19.25-8.523,40.7-30.731,38.454-21.53-2.175-23.307-16.175-23.325-20.592a65.6,65.6,0,0,0-7.644,13.024,3.83,3.83,0,0,0,2.332,5.192,81.068,81.068,0,0,1,29.9,17.332,10.146,10.146,0,0,0,13.016.54c13.863-10.695,21.321-26.608,24.359-37.424C165.276,149.335,161.528,143.14,155.351,140Z"/><path fill="#9eb7ec" d="M53.644,254.668c17.688,23.805,37.863,32.71,37.863,32.71,9.077-13.46,24.216-17.138,24.216-17.138-5.167-5.284-9.791-10.346-13.676-15.191C80.069,264.922,63.871,260.652,53.644,254.668Z"/><path fill="#d57370" d="M186.09,46.927,152.781,70.149c5.724,7.652,13.144,19.4,13.144,19.4a16.89,16.89,0,0,0,8.1-6.4l2.574,3.107a2.807,2.807,0,0,0,3.357.759c2.881-1.355,8.232-4.8,12.563-12.913,0,0,10.359,8.593,23.979,10.066.2-6.707.232-13.219-.057-18.516Z"/><path fill="url(#M7957-9w_J2cOANAJpdIut)" d="M187.271,56.37s9.973,20.134,46.288,18.252A34.174,34.174,0,0,0,226.6,60.133s11.478,4.516,23.333-6.021c0,0-7.527-1.694-12.231-6.962s-15.429-20.134-30.3-22.2c0,0,6.586-1.693,11.2-9.6,0,0-10.067.188-16.464-2.446,0,0-30.671-10.161-44.784,21.451,0,0-20.886.376-26.155,26.907,0,0-3.387,17.688,10.914,27.661a12,12,0,0,1,2.79-4.3,9.73,9.73,0,0,1,14.768,1.263,10.877,10.877,0,0,1,1.823,6.049s9.032-2.258,11.1-14.489l4.017,3.643a2.082,2.082,0,0,0,2.518.22C182.349,79.251,189.732,72.657,187.271,56.37Z"/></svg>