<svg xmlns="http://www.w3.org/2000/svg" xmlns:xlink="http://www.w3.org/1999/xlink" viewBox="0 0 340 340" width="500px" height="500px"><defs><linearGradient id="dOT5tFXvIRrVMRsLohkLcc" x1="103.543" x2="261.733" y1="243.587" y2="292.36" gradientUnits="userSpaceOnUse"><stop offset="0" stop-color="#6b6b9d"/><stop offset="1" stop-color="#4a4a77"/></linearGradient><linearGradient id="dOT5tFXvIRrVMRsLohkLcb" x1="172.155" x2="212.796" y1="154.062" y2="153.923" gradientUnits="userSpaceOnUse"><stop offset="0" stop-color="#edcfc9"/><stop offset="1" stop-color="#eca397"/></linearGradient><linearGradient id="dOT5tFXvIRrVMRsLohkLca" x1="174.955" x2="168.24" y1="258.288" y2="347.567" gradientUnits="userSpaceOnUse"><stop offset="0" stop-color="#ede5dc"/><stop offset="1" stop-color="#ddc1ba"/></linearGradient><linearGradient id="dOT5tFXvIRrVMRsLohkLce" x1="97.068" x2="90.352" y1="252.429" y2="341.708" xlink:href="#dOT5tFXvIRrVMRsLohkLca"/><linearGradient id="dOT5tFXvIRrVMRsLohkLcf" x1="130.274" x2="124.348" y1="134.939" y2="239.625" xlink:href="#dOT5tFXvIRrVMRsLohkLca"/><linearGradient id="dOT5tFXvIRrVMRsLohkLcg" x1="128.899" x2="129.511" y1="107.576" y2="163.054" xlink:href="#dOT5tFXvIRrVMRsLohkLcb"/><linearGradient id="dOT5tFXvIRrVMRsLohkLch" x1="102.305" x2="260.495" y1="244.412" y2="293.184" xlink:href="#dOT5tFXvIRrVMRsLohkLcc"/><linearGradient id="dOT5tFXvIRrVMRsLohkLci" x1="87.189" x2="61.997" y1="140.192" y2="190.298" xlink:href="#dOT5tFXvIRrVMRsLohkLcb"/><linearGradient id="dOT5tFXvIRrVMRsLohkLcd" x1="73.994" x2="21.827" y1="262.862" y2="209.472" gradientUnits="userSpaceOnUse"><stop offset="0" stop-color="#c99088"/><stop offset="1" stop-color="#b76c64"/></linearGradient><linearGradient id="dOT5tFXvIRrVMRsLohkLcj" x1="20.515" x2="92.171" y1="55.709" y2="112.986" gradientUnits="userSpaceOnUse"><stop offset="0" stop-color="#794646"/><stop offset="1" stop-color="#513030"/></linearGradient><linearGradient id="dOT5tFXvIRrVMRsLohkLck" x1="144.663" x2="144.205" y1="75.955" y2="122.264" xlink:href="#dOT5tFXvIRrVMRsLohkLcb"/><linearGradient id="dOT5tFXvIRrVMRsLohkLcl" x1="161.438" x2="100.126" y1="30.827" y2="89.454" gradientUnits="userSpaceOnUse"><stop offset="0" stop-color="#985a5a"/><stop offset="1" stop-color="#794242"/></linearGradient><linearGradient id="dOT5tFXvIRrVMRsLohkLcm" x1="279.188" x2="205.012" y1="165.721" y2="141.267" xlink:href="#dOT5tFXvIRrVMRsLohkLcd"/><linearGradient id="dOT5tFXvIRrVMRsLohkLcn" x1="110.692" x2="65.972" y1="269.058" y2="260.703" xlink:href="#dOT5tFXvIRrVMRsLohkLcb"/><linearGradient id="dOT5tFXvIRrVMRsLohkLco" x1="324.769" x2="269.976" y1="167.23" y2="163.79" xlink:href="#dOT5tFXvIRrVMRsLohkLcb"/></defs><path fill="#39394c" d="M156.8,260.306s15.412-4.337,35.4-18.563c0,0,25.936-20.145,55.879-5.806l-22.984,24.369S177.492,270.546,156.8,260.306Z"/><path fill="url(#dOT5tFXvIRrVMRsLohkLcc)" d="M155.191,252.974s15.393,5.315,37.955,1.308c0,0,43.017-11.118,59.675,25.544l-9.91,32.655s-10.544-32.838-55.458-36.662S139.8,261.452,139.8,261.452Z"/><path fill="url(#dOT5tFXvIRrVMRsLohkLcb)" d="M146.229,133.705a76.945,76.945,0,0,1,20.4,6.908,29.812,29.812,0,0,0,11.6,3.281c5.741.428,14.341,1.044,23.078,1.578l7.443,28.912H167.214Z"/><path fill="#d57370" d="M167.214,174.384h41.533l-2.12-8.234H185.359a14.415,14.415,0,0,1-11.048-5.174c-4.334-5.17-11.637-12.959-19.483-17.325a4.559,4.559,0,0,0-3.736-.52Z"/><path fill="#39394c" d="M93.244,328.719h80.761V298.124L133.624,275.37S103.622,302.819,93.244,328.719Z"/><path fill="url(#dOT5tFXvIRrVMRsLohkLca)" d="M139.052,290.8a86.559,86.559,0,0,1,19.022,27.363,17.408,17.408,0,0,0,15.931,10.559h38.433s-15.4-36.006-53.845-57.355l-27.454.69Z"/><path fill="#ac7f6e" d="M157.03,271.182l-25.891.872-.915,11.4a65.156,65.156,0,0,1,8.827,7.349C141.077,286.24,149.96,275.136,157.03,271.182Z"/><path fill="url(#dOT5tFXvIRrVMRsLohkLce)" d="M90.365,267.528S55.574,283,36.337,328.719H93.244a30.107,30.107,0,0,0,28.348-20.159c4.7-13.269,13.4-29.484,29.012-36.763Z"/><path fill="url(#dOT5tFXvIRrVMRsLohkLcf)" d="M118.061,122.079s-8.91,9.125-28.22,11.671L78.506,187.787l4.614,19.28,6.951,9.412a12.928,12.928,0,0,1,2.528,7.679v10.811s35.225,4.668,65.994,0V223a18.2,18.2,0,0,1,3.633-10.892,63.53,63.53,0,0,1,6.849-7.792,22.107,22.107,0,0,0,6.715-18.966,79.06,79.06,0,0,0-35.022-55.633Z"/><path fill="#ac7f6e" d="M95.527,147.6l-11.4,5.161L72.228,192.317l10.892,14.75c.659-7.456,2.63-15.631,7.245-22.787C102.806,164.988,95.527,147.6,95.527,147.6Z"/><path fill="#ac7f6e" d="M143.012,162s11.4,23.037,2.137,41.916a29.442,29.442,0,0,1-3.424,5.285c-3.3,4.165-11.879,15.844-12.7,25.765v2.069c2.229-.009,4.5-.047,6.808-.118a43.4,43.4,0,0,1,10.4-25.92l.067-.078a34.786,34.786,0,0,0,8.187-18.218c2.823-22.408-12.605-38.66-12.605-38.66Z"/><path fill="url(#dOT5tFXvIRrVMRsLohkLcg)" d="M115.031,94.684V128.8s2.695,23.2,27.981,33.2c0,0-1.451-24.79,0-53.446C143.012,108.557,130.991,97.868,115.031,94.684Z"/><path fill="url(#dOT5tFXvIRrVMRsLohkLch)" d="M92.6,234.969c23.945,1.39,46.437,1.743,65.994,0v36.395s-42.091,3.208-68.228-3.836Z"/><path fill="url(#dOT5tFXvIRrVMRsLohkLci)" d="M89.841,133.75S75.252,131.127,57.334,165.6L81.5,182.1c1.829-3.169,4.778-7.9,6.859-10.8,5.568-7.767,7.175-23.693,7.175-23.693A31.6,31.6,0,0,0,89.841,133.75Z"/><path fill="#d57370" d="M82.492,182.779a89.314,89.314,0,0,1,5.961-9.079,36.567,36.567,0,0,0,6.614-14.226,33.291,33.291,0,0,0,.46-11.869c-.877,3.485-3.687,12.3-10.843,18.868A51.644,51.644,0,0,0,75.489,178Z"/><path fill="#d7e2ea" d="M231.345,146.5c-5.283.31-17.8-.28-30.041-1.029a31.434,31.434,0,0,0,7.443,28.912h39.328Z"/><path fill="#ac7f6e" d="M83.275,271.5A111.088,111.088,0,0,0,66,285.137a281.765,281.765,0,0,0,26.446,9.854c17.746,5.377,25.118-10.21,25.118-10.21Z"/><path fill="#d7e2ea" d="M82.5,182.781c-6.088-10.292-18.332-15.174-25.159-17.18-.731,1.406-1.467,2.867-2.208,4.4-18.911,39.091-16.667,54.8-16.667,54.8L64.11,234.969S69.169,205.881,82.5,182.781Z"/><path fill="#9eb7cb" d="M76.808,175.908c-5.44,8.277-10.705,20.381-16.939,39.439a5.546,5.546,0,0,1-6.822,3.6A134.425,134.425,0,0,0,39.06,215.6c-1,6.32-.6,9.194-.6,9.194L64.11,234.969s5.059-29.088,18.386-52.188A29.818,29.818,0,0,0,76.808,175.908Z"/><path fill="url(#dOT5tFXvIRrVMRsLohkLcd)" d="M21.2,219.031c15.884.556,54.359,5.592,69.162,40.379L76.578,278.066s-34.332-10.535-59.024-52.9A4.078,4.078,0,0,1,21.2,219.031Z"/><path fill="#9eb7cb" d="M51.11,178.667q-1.312,2.958-2.455,5.709c2.114.245,17.458,2.442,25.963,14.767.848-2.094,1.754-4.2,2.718-6.3C68.6,182.568,56.13,179.509,51.11,178.667Z"/><path fill="#9eb7cb" d="M42.884,200.029c-.664,2.1-1.225,4.043-1.71,5.857,4.523.457,19.087,2.577,27.233,11.305.59-2.034,1.249-4.18,1.975-6.405C61.331,203,48.506,200.686,42.884,200.029Z"/><path fill="#39394c" d="M91.416,252.209l-.4,5.88a278.265,278.265,0,0,0,36.952,2.584,186.45,186.45,0,0,0,30.628-2.356v-7.088C132.975,255.763,103.988,253.93,91.416,252.209Z"/><path fill="#d57370" d="M115.031,117.8l27.376,6.926c.1-4.077.386-11.842.6-16.168,0,0-12.022-10.689-27.981-13.873Z"/><path fill="url(#dOT5tFXvIRrVMRsLohkLcj)" d="M105.309,88.166c0,.372-14.7-.744-26.8,10.8,0,0-12.285-5.584-23.08,2.606A33.251,33.251,0,0,0,36.813,91.33c-1.3-14.146-9.84-21.189-9.84-21.189,12.5-13,3.325-29.066,3.325-29.066s8.748-17.709-3.164-29.794c0,0-25.05,11.285-14.572,49.669h0c-7.55,14.9,4.148,31.312,4.148,31.312.745,21.777,23.081,21,23.081,21l0-.024a19.255,19.255,0,0,0,14.971,8.027c4.636.2,10.12-.635,14.441-4.438,0,0,18.4,4.84,25.207-7.445,0,0,8.86,4.231,22.257.745V95.388Z"/><path fill="url(#dOT5tFXvIRrVMRsLohkLck)" d="M171.281,77.218s-1.364,13.5-3.674,24.8a25.921,25.921,0,0,1-7.877,13.865h0a10.442,10.442,0,0,1-9.459,2.52,39.89,39.89,0,0,1-22.149-14.022c-11.505-14.523-10-33.2-10-33.2L153.4,36.855l15.655,3.206Z"/><path fill="url(#dOT5tFXvIRrVMRsLohkLcl)" d="M155.471,40.816s-.148,16.544-19.007,27.54a20.593,20.593,0,0,0-10.231,17.088,73,73,0,0,0,1.889,18.934S96.517,99.166,94.5,64.621a51.452,51.452,0,0,1,11.143-35.775,46.421,46.421,0,0,1,4.153-4.439c6.671-6.238,17.058-9.9,33.055-6.68,8,1.612,13.164,8.7,13.164,8.7s17.072-7.8,23.712,16.554a30.393,30.393,0,0,1,1.1,7.748c.048,6.086-1.139,17.529-9.547,26.487a27.135,27.135,0,0,0-3.55-13.2C163.958,57.6,157.357,51.189,155.471,40.816Z"/><path fill="#d57370" d="M148.542,85.188a3.007,3.007,0,0,1-.847-.122c-.439-.129-1.01-.271-1.653-.411a3,3,0,1,1,1.273-5.863c.791.172,1.489.346,2.072.517a3,3,0,0,1-.845,5.879Z"/><path fill="#d57370" d="M162.5,85.3a3,3,0,0,1-.847-5.879c.524-.154,1.213-.325,1.9-.481a3,3,0,0,1,1.33,5.851c-.556.126-1.113.261-1.534.386A3.022,3.022,0,0,1,162.5,85.3Z"/><path fill="#9eb7cb" d="M212.435,146.1c.456,3.9,2.346,10.707,9.053,20.055H203.207a31.754,31.754,0,0,0,5.54,8.234h39.328L231.345,146.5C227.683,146.716,220.547,146.5,212.435,146.1Z"/><path fill="url(#dOT5tFXvIRrVMRsLohkLcm)" d="M215.107,139.133A69.223,69.223,0,0,0,232.09,167.7a29.247,29.247,0,0,0,20.634,8.47h41.487V149.981s-40.1-14.43-75.05-16.12A4.071,4.071,0,0,0,215.107,139.133Z"/><path fill="#a25f5f" d="M30.705,244.018c22.178,26.755,45.873,34.048,45.873,34.048L90.365,259.41a59.678,59.678,0,0,0-8.924-14.74C64.9,260.369,43.381,251.693,30.705,244.018Z"/><path fill="url(#dOT5tFXvIRrVMRsLohkLcn)" d="M88.567,255.556a50.877,50.877,0,0,0-6.138,8.833s-.525,17.023,12.387,21.844c7.379,2.755,20.256,3.35,24.141-3.5q.3-.535.585-1.109a16.266,16.266,0,0,0-6.172-20.853l-2.325-1.449-.149-3.273a9.558,9.558,0,0,0-13.562-8.242A20.06,20.06,0,0,0,88.567,255.556Z"/><path fill="#a25f5f" d="M294.211,166.15H263.639c-22.593,0-34.246-4.866-39.569-8.187a64.727,64.727,0,0,0,8.017,9.737,29.24,29.24,0,0,0,20.637,8.474h41.487Z"/><path fill="#d57370" d="M118.957,282.731q.3-.535.585-1.109a15.709,15.709,0,0,0,1.371-4.238c-6.587,6.018-14.151,4.617-26.507-.458-9.01-3.7-11.437-9-11.974-12.535a67.3,67.3,0,0,0-5.854,13.675A112.94,112.94,0,0,0,99.239,289.7,16.18,16.18,0,0,0,118.957,282.731Z"/><path fill="url(#dOT5tFXvIRrVMRsLohkLco)" d="M294.211,149.981s-4.657,15.649,0,26.193h10.826a8.184,8.184,0,0,1,6.392,3.072h0a8.188,8.188,0,0,0,6.393,3.073h3.863A8.315,8.315,0,0,0,330,174v-8.595a14.259,14.259,0,0,0-13.636-14.245Z"/><path fill="#d57370" d="M294.211,176.174h10.826a8.184,8.184,0,0,1,6.392,3.072,8.188,8.188,0,0,0,6.393,3.073h3.863a8.314,8.314,0,0,0,8.276-7.541c-13.281,1.183-18.89-8.628-18.89-8.628h-18.9A27.375,27.375,0,0,0,294.211,176.174Z"/></svg>