<svg xmlns="http://www.w3.org/2000/svg" xmlns:xlink="http://www.w3.org/1999/xlink" viewBox="0 0 340 340" width="500px" height="500px"><defs><linearGradient id="q6iGpGTsCvuLQaYRfJtVVd" x1="36.778" x2="36.778" y1="279.527" y2="-3.592" gradientUnits="userSpaceOnUse"><stop offset="0" stop-color="#ed6960"/><stop offset=".291" stop-color="#e15f57"/><stop offset="1" stop-color="#c84943"/></linearGradient><linearGradient id="q6iGpGTsCvuLQaYRfJtVVb" x1="232.244" x2="353.674" y1="235.098" y2="133.761" gradientUnits="userSpaceOnUse"><stop offset="0" stop-color="#edcfc9"/><stop offset="1" stop-color="#eca397"/></linearGradient><linearGradient id="q6iGpGTsCvuLQaYRfJtVVc" x1="195.628" x2="178.373" y1="328.289" y2="246.156" gradientUnits="userSpaceOnUse"><stop offset="0" stop-color="#edb352"/><stop offset="1" stop-color="#e58f2a"/></linearGradient><linearGradient id="q6iGpGTsCvuLQaYRfJtVVa" x1="220.237" x2="245.659" y1="70.478" y2="181.812" gradientUnits="userSpaceOnUse"><stop offset="0" stop-color="#535365"/><stop offset="1" stop-color="#39394c"/></linearGradient><linearGradient id="q6iGpGTsCvuLQaYRfJtVVe" x1="178.09" x2="203.513" y1="80.102" y2="191.436" xlink:href="#q6iGpGTsCvuLQaYRfJtVVa"/><linearGradient id="q6iGpGTsCvuLQaYRfJtVVf" x1="179.582" x2="30.467" y1="121.594" y2="285.284" xlink:href="#q6iGpGTsCvuLQaYRfJtVVb"/><linearGradient id="q6iGpGTsCvuLQaYRfJtVVg" x1="195.636" x2="71.783" y1="213.6" y2="279.215" xlink:href="#q6iGpGTsCvuLQaYRfJtVVc"/><linearGradient id="q6iGpGTsCvuLQaYRfJtVVh" x1="174.421" x2="199.844" y1="80.939" y2="192.274" xlink:href="#q6iGpGTsCvuLQaYRfJtVVa"/><linearGradient id="q6iGpGTsCvuLQaYRfJtVVi" x1="184.954" x2="210.377" y1="78.534" y2="189.869" xlink:href="#q6iGpGTsCvuLQaYRfJtVVa"/><linearGradient id="q6iGpGTsCvuLQaYRfJtVVj" x1="204.609" x2="230.032" y1="74.046" y2="185.381" xlink:href="#q6iGpGTsCvuLQaYRfJtVVa"/><linearGradient id="q6iGpGTsCvuLQaYRfJtVVk" x1="248.994" x2="207.137" y1="59.241" y2="141.086" xlink:href="#q6iGpGTsCvuLQaYRfJtVVb"/></defs><rect width="18.572" height="320" x="27.492" y="10" fill="url(#q6iGpGTsCvuLQaYRfJtVVd)"/><polygon fill="#b63131" points="27.492 257.321 46.064 248.003 46.064 212.198 27.492 214.654 27.492 257.321"/><path fill="url(#q6iGpGTsCvuLQaYRfJtVVb)" d="M318,166.145H298.569a3.267,3.267,0,0,0-3.257,3.012l-1.951,24.995h0a4.44,4.44,0,0,0-4.431,4.368A63.125,63.125,0,0,0,290.109,210a8.1,8.1,0,0,1-1.577,6.568,16.219,16.219,0,0,1-3.071,2.914c-12.385,8.985-27.871,13.97-27.871,13.97-6.18-14.566-21.186-27.366-21.186-27.366,7.062-21.406,1.1-37.516,1.1-37.516l-33.324,24.055v41.709c8.268,12.823,33.821,29.645,45.4,36.856a12.416,12.416,0,0,0,12.153.548c28.968-14.594,47.792-37.833,55.529-48.77a21.846,21.846,0,0,0,4.01-12.622V169.412A3.267,3.267,0,0,0,318,166.145Z"/><path fill="#d57370" d="M312.51,194.628a6,6,0,0,0-5.464-5.009l-13.238-1.192-.447,5.725h9.817c4.162,0,4.657,5.576,1.286,7.907-.546.377-1.16.834-1.821,1.305a1.347,1.347,0,0,0,.39,2.385c2.13.645,4.538,2.087,4.782,5.311a.847.847,0,0,0,1.616.305,6.468,6.468,0,0,0-1.113-7.6A9.48,9.48,0,0,0,312.51,194.628Z"/><path fill="#d57370" d="M300.425,166.145l-.727,16.987a3,3,0,0,0,2.869,3.125l.13,0a3,3,0,0,0,3-2.871l.738-17.244Z"/><path fill="#d57370" d="M311.133,166.145l-.726,16.987a3,3,0,0,0,2.869,3.125l.13,0a3,3,0,0,0,3-2.871l.737-17.244Z"/><path fill="#d57370" d="M222.743,252.637c-4.584-28.195,13.661-46.548,13.661-46.548,7.062-21.406,1.1-37.516,1.1-37.516l-33.324,24.055v41.709C207.863,240.046,214.97,246.545,222.743,252.637Z"/><path fill="#e5782e" d="M99.17,273.067s-7.348,5.762-17.684,23.211A133.45,133.45,0,0,1,68.62,314.246,77.565,77.565,0,0,0,58.1,330H161.271Z"/><path fill="url(#q6iGpGTsCvuLQaYRfJtVVc)" d="M103.519,289.568a118.877,118.877,0,0,0,18,25.229A47.3,47.3,0,0,0,156.26,330h123.7s-25.843-30.936-78.684-60.544Z"/><path fill="#e5782e" d="M178.193,330H208.92c-24.683-7.246-58.092-22.208-71.937-51.859-.337-.722-.667-1.42-.991-2.1l-15.108,1.524v5.665S136.906,311.52,178.193,330Z"/><path fill="#e5782e" d="M156.9,283.23s38.268,43.214,107.323,30.98c-2.695-2.447-5.724-5.1-9.119-7.935-19.206,1.5-60.743.333-78.412-34.339l-25.01,2.523Z"/><path fill="#e5782e" d="M208.939,273.877c-2.494-1.474-5.034-2.949-7.661-4.421L99.17,279.755a67.62,67.62,0,0,0,4.351,9.812C119.242,294.423,175.992,304.819,208.939,273.877Z"/><circle cx="238.54" cy="150.633" r="14.248" fill="url(#q6iGpGTsCvuLQaYRfJtVVa)"/><circle cx="184.303" cy="107.313" r="13.236" fill="url(#q6iGpGTsCvuLQaYRfJtVVe)"/><path fill="url(#q6iGpGTsCvuLQaYRfJtVVf)" d="M211.584,86.9s1.144,13.443-7.427,19.464a54.912,54.912,0,0,1-30.778,10.12s-9.96-12.934-34.34-5.055c0,0-27.753,6.967-51.443,18.233a34.709,34.709,0,0,0-14.319,12.67c-7.2,11.26-20.366,32.943-30.42,55.616l-12.526.631a11.969,11.969,0,0,0-11.364,11.681l-.235,10.359A10.564,10.564,0,0,0,30.026,231.4c4.8-.33,10.724-.906,17-1.91A22.53,22.53,0,0,0,62.808,218.8c8.507-14.225,26.129-45.715,34.078-54.861,0,0,21.87-1.372,38.587-6.126,0,0-17.134,23.279-28.58,60.741L234.7,157.8s-3.309-15.674.9-25.279a12.1,12.1,0,0,1,7.569-6.879,15.063,15.063,0,0,1,5.581-.539L227.937,89.127Z"/><path fill="#d57370" d="M176.3,144.145l.191.045a21,21,0,0,0,2.671,19.214l15.894-8.334-.878-20.824L171.849,117.3a16.587,16.587,0,0,0-6.418,11.468A14.435,14.435,0,0,0,176.3,144.145Z"/><path fill="url(#q6iGpGTsCvuLQaYRfJtVVg)" d="M179.158,163.405c-15.217,15.324-40.872,35.892-74.375,43.435a9.608,9.608,0,0,0-7.413,8.129c-.427,3.254-1,7.5-1.712,12.353H90.673a6.934,6.934,0,0,0-6.929,6.955c0,6.636,1.173,16.64,7.233,23.709,0,0-1.873,13.811,8.193,21.769,0,0,63.066,12.641,102.108-10.3,0,0,6.739-11.47,6.037-45.412a121.877,121.877,0,0,0,26.136-37.764l-1.608-31.5C222.914,154.644,179.158,163.405,179.158,163.405Z"/><path fill="#e5782e" d="M194.908,145.159A152.845,152.845,0,0,1,179.157,163.4c2.937,4.124,9.683,9.833,23.319,5.618,0,0-2.945,13.191,12.08,19.217,6.513,2.612,13.293.859,18.887-1.963a98.542,98.542,0,0,0,6.4-20.109l-8-11.382A79.3,79.3,0,0,1,194.908,145.159Z"/><path fill="#e5782e" d="M121.049,223.177c28.529-6.659,73.76-23.657,96.069-66.235l-9.35-6.309s-22.625,46.3-87.577,69.582A1.544,1.544,0,0,0,121.049,223.177Z"/><circle cx="184.303" cy="124.218" r="14.248" fill="url(#q6iGpGTsCvuLQaYRfJtVVh)"/><circle cx="199.946" cy="144.19" r="15.643" fill="url(#q6iGpGTsCvuLQaYRfJtVVi)"/><circle cx="224.432" cy="160.854" r="18.812" fill="url(#q6iGpGTsCvuLQaYRfJtVVj)"/><circle cx="221.601" cy="156.241" r="6.012" fill="#666684"/><circle cx="196.472" cy="138.465" r="4.806" fill="#666684"/><circle cx="182.717" cy="117.297" r="4.13" fill="#666684"/><circle cx="183.13" cy="100.699" r="2.92" fill="#666684"/><path fill="#d57370" d="M152.891,152.044a.927.927,0,0,0-1.293-1.265c-6.691,4.291-16.125,7.035-16.125,7.035a140.742,140.742,0,0,0-7.59,12.022C142.889,164.944,149.935,156.751,152.891,152.044Z"/><path fill="#e5782e" d="M106.76,261.519c19.722,2.678,56.3,2.348,100.381-22.939.5-5.583.174-14.536.174-14.536s-45.568,33.84-100.372,34.67A1.409,1.409,0,0,0,106.76,261.519Z"/><path fill="#d57370" d="M248.749,125.1,227.937,89.127,211.584,86.9s1.091,12.889-6.915,19.077c9.917,17.221,22.7,23.493,31.326,25.755a11.967,11.967,0,0,1,7.173-6.087A15.061,15.061,0,0,1,248.749,125.1Z"/><path fill="url(#q6iGpGTsCvuLQaYRfJtVVk)" d="M207.48,70.5a19.183,19.183,0,0,0-1.992,3.145,13.445,13.445,0,0,0,6.392,17.217,23.164,23.164,0,0,0,9.622,2.212v5.705a18.046,18.046,0,0,0,5.31,12.838c4.765,4.718,12.525,11.141,22.4,14.908a21.608,21.608,0,0,0,7.705,1.393h6.38a9.411,9.411,0,0,0,8.35-5.046,99.464,99.464,0,0,0,8.277-22.279,57.1,57.1,0,0,0,1.562-13.511V58.858a44.236,44.236,0,0,0-6.317-23.153c-5.265-8.583-14.742-17.166-31.59-17.166,0,0-19.456-1.363-32.423,10.78a31.216,31.216,0,0,0-9.077,29.772A29.377,29.377,0,0,0,207.48,70.5Z"/><circle cx="263.664" cy="42.272" r="3.813" fill="#d57370"/><circle cx="266.337" cy="54.804" r="3.813" fill="#d57370"/><path fill="#d57370" d="M215.589,58.617c-8.517-2.155-12.533-8.412-12.926-15.674a30.934,30.934,0,0,0-.581,16.148,29.391,29.391,0,0,0,5.4,11.411s5.266-5.6,11.525-2.271a9.668,9.668,0,0,1,4.311,4.3,1.19,1.19,0,0,0,2.253-.235C226.469,67.863,225.876,61.219,215.589,58.617Z"/><path fill="#d57370" d="M255.21,81.528a2.986,2.986,0,0,1-1.3-.3,28.55,28.55,0,0,0-3.8-1.456,3,3,0,1,1,1.77-5.733,34.59,34.59,0,0,1,4.625,1.78,3,3,0,0,1-1.3,5.705Z"/><path fill="#d57370" d="M271.448,81.525a3,3,0,0,1-1.579-5.552A26.9,26.9,0,0,1,273.976,74a3,3,0,1,1,2.144,5.6,21.407,21.407,0,0,0-3.111,1.481A2.987,2.987,0,0,1,271.448,81.525Z"/></svg>